<svg xmlns="http://www.w3.org/2000/svg" viewBox="0 0 700 400" width="100%" class="trajectory-svg">
      <defs>
        <linearGradient id="trail-grad-e" x1="60" y1="0" x2="670" y2="0" gradientUnits="userSpaceOnUse">
          <stop offset="0%" stop-color="#aa00ff"/><stop offset="100%" stop-color="#ff00cc"/>
        </linearGradient>
      </defs>

      <rect width="700" height="400" fill="#0d0a1a"/>
      <g class="grid"><line x1="60.0" y1="50" x2="60.0" y2="360" stroke="rgba(0,229,204,1)" stroke-width="0.5" opacity="0.06"/>
<line x1="161.66666666666669" y1="50" x2="161.66666666666669" y2="360" stroke="rgba(0,229,204,1)" stroke-width="0.5" opacity="0.06"/>
<line x1="263.33333333333337" y1="50" x2="263.33333333333337" y2="360" stroke="rgba(0,229,204,1)" stroke-width="0.5" opacity="0.06"/>
<line x1="365.0" y1="50" x2="365.0" y2="360" stroke="rgba(0,229,204,1)" stroke-width="0.5" opacity="0.06"/>
<line x1="466.6666666666667" y1="50" x2="466.6666666666667" y2="360" stroke="rgba(0,229,204,1)" stroke-width="0.5" opacity="0.06"/>
<line x1="568.3333333333333" y1="50" x2="568.3333333333333" y2="360" stroke="rgba(0,229,204,1)" stroke-width="0.5" opacity="0.06"/>
<line x1="670.0" y1="50" x2="670.0" y2="360" stroke="rgba(0,229,204,1)" stroke-width="0.5" opacity="0.06"/>
<line x1="60" y1="50.0" x2="670" y2="50.0" stroke="rgba(0,229,204,1)" stroke-width="0.5" opacity="0.18"/>
<line x1="60" y1="101.66666666666666" x2="670" y2="101.66666666666666" stroke="rgba(0,229,204,1)" stroke-width="0.5" opacity="0.18"/>
<line x1="60" y1="153.33333333333331" x2="670" y2="153.33333333333331" stroke="rgba(0,229,204,1)" stroke-width="0.5" opacity="0.18"/>
<line x1="60" y1="205.0" x2="670" y2="205.0" stroke="rgba(0,229,204,1)" stroke-width="0.5" opacity="0.18"/>
<line x1="60" y1="256.66666666666663" x2="670" y2="256.66666666666663" stroke="rgba(0,229,204,1)" stroke-width="0.5" opacity="0.18"/>
<line x1="60" y1="308.3333333333333" x2="670" y2="308.3333333333333" stroke="rgba(0,229,204,1)" stroke-width="0.5" opacity="0.18"/>
<line x1="60" y1="360.0" x2="670" y2="360.0" stroke="rgba(0,229,204,1)" stroke-width="0.5" opacity="0.18"/>
</g>
      <line x1="60" y1="74.85" x2="670" y2="74.85" stroke="rgba(255,255,255,0.5)" stroke-width="1.5" stroke-dasharray="6 6"/>
      <rect x="60" y="50" width="610" height="310" fill="none" stroke="rgba(0,229,204,0.15)" stroke-width="0.75" rx="4"/>

      <g class="axis-labels"><text x="60.0" y="380" font-size="10" fill="rgba(255,255,255,0.6)" text-anchor="middle" font-family="system-ui, sans-serif">0.1s</text>
<text x="161.66666666666669" y="380" font-size="10" fill="rgba(255,255,255,0.6)" text-anchor="middle" font-family="system-ui, sans-serif">7.6s</text>
<text x="263.33333333333337" y="380" font-size="10" fill="rgba(255,255,255,0.6)" text-anchor="middle" font-family="system-ui, sans-serif">15.0s</text>
<text x="365.0" y="380" font-size="10" fill="rgba(255,255,255,0.6)" text-anchor="middle" font-family="system-ui, sans-serif">22.5s</text>
<text x="466.6666666666667" y="380" font-size="10" fill="rgba(255,255,255,0.6)" text-anchor="middle" font-family="system-ui, sans-serif">30.0s</text>
<text x="568.3333333333333" y="380" font-size="10" fill="rgba(255,255,255,0.6)" text-anchor="middle" font-family="system-ui, sans-serif">37.4s</text>
<text x="670.0" y="380" font-size="10" fill="rgba(255,255,255,0.6)" text-anchor="middle" font-family="system-ui, sans-serif">44.9s</text>
<text x="50" y="54.0" font-size="10" fill="rgba(255,255,255,0.6)" text-anchor="end" font-family="system-ui, sans-serif">0.05</text>
<text x="50" y="105.66666666666666" font-size="10" fill="rgba(255,255,255,0.6)" text-anchor="end" font-family="system-ui, sans-serif">-0.05</text>
<text x="50" y="157.33333333333331" font-size="10" fill="rgba(255,255,255,0.6)" text-anchor="end" font-family="system-ui, sans-serif">-0.15</text>
<text x="50" y="209.0" font-size="10" fill="rgba(255,255,255,0.6)" text-anchor="end" font-family="system-ui, sans-serif">-0.25</text>
<text x="50" y="260.66666666666663" font-size="10" fill="rgba(255,255,255,0.6)" text-anchor="end" font-family="system-ui, sans-serif">-0.35</text>
<text x="50" y="312.3333333333333" font-size="10" fill="rgba(255,255,255,0.6)" text-anchor="end" font-family="system-ui, sans-serif">-0.45</text>
<text x="50" y="364.0" font-size="10" fill="rgba(255,255,255,0.6)" text-anchor="end" font-family="system-ui, sans-serif">-0.55</text>
</g>
      <text x="50" y="35" font-size="11" font-weight="bold" fill="rgba(0,229,204,0.8)" text-anchor="end" font-family="system-ui, sans-serif">Error (m)</text>
      <text x="670" y="395" font-size="11" font-weight="bold" fill="rgba(0,229,204,0.8)" text-anchor="end" font-family="system-ui, sans-serif">Time (s)</text>

      <path d="M 60.0,334.17 L 62.72,322.78 L 65.45,308.7 L 68.17,292.96 L 70.89,276.38 L 73.62,259.55 L 76.34,242.93 L 79.06,226.83 L 81.79,211.5 L 84.51,197.07 L 87.23,183.65 L 89.96,171.28 L 92.68,159.95 L 95.4,149.67 L 98.12,140.38 L 100.85,132.04 L 103.57,124.6 L 106.29,117.97 L 109.02,112.11 L 111.74,106.95 L 114.46,102.41 L 117.19,98.44 L 119.91,94.97 L 122.63,91.97 L 125.36,89.36 L 128.08,87.11 L 130.8,85.17 L 133.53,83.64 L 136.25,83.73 L 138.97,85.94 L 141.7,90.7 L 144.42,98.07 L 147.14,107.86 L 149.87,119.68 L 152.59,133.18 L 155.31,147.89 L 158.04,163.36 L 160.76,179.17 L 163.48,194.97 L 166.21,210.43 L 168.93,225.28 L 171.65,239.46 L 174.38,252.71 L 177.1,264.9 L 179.82,275.94 L 182.54,285.77 L 185.27,294.54 L 187.99,302.25 L 190.71,308.82 L 193.44,314.4 L 196.16,319.05 L 198.88,322.84 L 201.61,325.99 L 204.33,328.41 L 207.05,330.26 L 209.78,331.61 L 212.5,332.53 L 215.22,333.21 L 217.95,333.53 L 220.67,333.65 L 223.39,333.57 L 226.12,333.38 L 228.84,333.18 L 231.56,332.83 L 234.29,332.45 L 237.01,332.02 L 239.73,331.61 L 242.46,331.27 L 245.18,330.9 L 247.9,330.56 L 250.62,330.2 L 253.35,329.94 L 256.07,329.75 L 258.79,329.55 L 261.52,329.37 L 264.24,329.16 L 266.96,329.06 L 269.69,329.0 L 272.41,328.92 L 275.13,328.86 L 277.86,328.76 L 280.58,328.74 L 283.3,328.76 L 286.03,328.75 L 288.75,328.74 L 291.47,328.68 L 294.2,328.7 L 296.92,328.75 L 299.64,328.76 L 302.37,328.76 L 305.09,328.71 L 307.81,328.74 L 310.54,328.8 L 313.26,328.8 L 315.98,328.81 L 318.71,328.76 L 321.43,328.78 L 324.15,328.83 L 326.88,328.83 L 329.6,328.84 L 332.32,328.78 L 335.04,328.8 L 337.77,328.84 L 340.49,328.84 L 343.21,328.84 L 345.94,328.78 L 348.66,328.8 L 351.38,328.84 L 354.11,328.83 L 356.83,328.83 L 359.55,328.76 L 362.28,328.78 L 365.0,328.82 L 367.72,328.81 L 370.45,328.81 L 373.17,328.74 L 375.89,328.76 L 378.62,328.8 L 381.34,328.79 L 384.06,328.79 L 386.79,328.72 L 389.51,328.74 L 392.23,328.78 L 394.96,328.78 L 397.68,328.77 L 400.4,328.71 L 403.12,328.72 L 405.85,328.76 L 408.57,328.76 L 411.29,328.75 L 414.02,328.69 L 416.74,328.71 L 419.46,328.75 L 422.19,328.74 L 424.91,328.74 L 427.63,328.67 L 430.36,328.69 L 433.08,328.73 L 435.8,328.73 L 438.53,328.72 L 441.25,328.66 L 443.97,328.68 L 446.7,328.72 L 449.42,328.71 L 452.14,328.71 L 454.87,328.65 L 457.59,328.7 L 460.31,328.74 L 463.04,328.78 L 465.76,328.8 L 468.48,328.76 L 471.21,328.82 L 473.93,328.87 L 476.65,328.91 L 479.37,328.93 L 482.1,328.88 L 484.82,328.93 L 487.54,328.97 L 490.27,329.0 L 492.99,329.0 L 495.71,328.95 L 498.44,328.98 L 501.16,329.01 L 503.88,329.03 L 506.61,329.02 L 509.33,328.95 L 512.05,328.99 L 514.78,329.01 L 517.5,329.02 L 520.22,329.01 L 522.95,328.94 L 525.67,328.97 L 528.39,328.98 L 531.12,328.99 L 533.84,328.98 L 536.56,328.91 L 539.29,328.94 L 542.01,328.96 L 544.73,328.96 L 547.46,328.95 L 550.18,328.88 L 552.9,328.5 L 555.62,326.66 L 558.35,322.59 L 561.07,316.12 L 563.79,307.28 L 566.52,296.3 L 569.24,283.54 L 571.96,269.41 L 574.69,254.32 L 577.41,233.16 L 580.13,214.49 L 582.86,198.11 L 585.58,183.67 L 588.3,170.91 L 591.03,159.6 L 593.75,149.57 L 596.47,140.65 L 599.2,132.73 L 601.92,125.7 L 604.64,119.44 L 607.37,113.9 L 610.09,108.98 L 612.81,104.62 L 615.54,100.78 L 618.26,97.38 L 620.98,94.39 L 623.71,91.76 L 626.43,89.45 L 629.15,87.43 L 631.87,85.67 L 634.6,84.13 L 637.32,82.79 L 640.04,81.63 L 642.77,80.62 L 645.49,79.75 L 648.21,79.0 L 650.94,78.36 L 653.66,77.81 L 656.38,77.33 L 659.11,76.93 L 661.83,76.58 L 664.55,76.29 L 667.28,76.04 L 670.0,75.83" fill="none" stroke="url(#trail-grad-e)" stroke-width="2.5" stroke-linecap="round" stroke-linejoin="round"
            stroke-dasharray="1176.88" stroke-dashoffset="1176.88">
        <animate attributeName="stroke-dashoffset" values="1176.88;1165.17;1150.82;1134.85;1118.05;1101.0;1084.16;1067.83;1052.26;1037.57;1023.88;1011.21;999.56;988.93;979.25;970.47;962.55;955.38;948.92;943.09;937.79;932.98;928.57;924.52;920.74;917.21;913.87;910.74;908.02;904.51;899.03;891.17;881.01;868.88;855.11;840.15;824.44;808.4;792.36;776.67;761.57;747.13;733.6;721.11;709.74;699.54;690.36;682.18;675.07;668.86;663.47;658.81;654.64;651.0;647.71;644.66;641.79;638.99;636.24;633.52;630.79;628.06;625.33;622.59;619.83;617.08;614.33;611.58;608.83;606.09;603.35;600.6;597.88;595.15;592.41;589.69;586.96;584.23;581.51;578.79;576.06;573.34;570.62;567.89;565.17;562.45;559.72;557.0;554.28;551.55;548.83;546.11;543.38;540.66;537.94;535.21;532.49;529.77;527.04;524.32;521.6;518.88;516.15;513.43;510.71;507.97;505.25;502.53;499.8;497.08;494.36;491.63;488.91;486.19;483.46;480.74;478.02;475.29;472.57;469.85;467.12;464.4;461.68;458.95;456.23;453.51;450.79;448.06;445.34;442.62;439.89;437.17;434.45;431.72;429.0;426.28;423.55;420.83;418.11;415.38;412.66;409.94;407.21;404.49;401.77;399.04;396.31;393.59;390.86;388.14;385.42;382.69;379.97;377.25;374.53;371.8;369.08;366.36;363.63;360.91;358.19;355.46;352.74;350.02;347.29;344.57;341.85;339.12;336.4;333.68;330.95;328.23;325.51;322.78;320.06;317.34;314.61;311.89;309.17;306.44;303.72;300.97;297.69;292.78;285.77;276.52;265.2;252.16;237.77;222.43;201.1;182.23;165.62;150.93;137.88;126.25;115.86;106.53;98.15;90.62;83.79;77.61;71.99;66.85;62.14;57.79;53.75;49.96;46.39;43.0;39.76;36.62;33.59;30.64;27.72;24.87;22.05;19.24;16.47;13.71;10.95;8.2;5.47;2.73;0.0" dur="8s" repeatCount="indefinite" calcMode="linear"/>
      </path>

      <g>
        <circle r="9" fill="none" stroke="#ffe566" stroke-width="1.5">
          <animate attributeName="cx" values="60.0;62.72;65.45;68.17;70.89;73.62;76.34;79.06;81.79;84.51;87.23;89.96;92.68;95.4;98.12;100.85;103.57;106.29;109.02;111.74;114.46;117.19;119.91;122.63;125.36;128.08;130.8;133.53;136.25;138.97;141.7;144.42;147.14;149.87;152.59;155.31;158.04;160.76;163.48;166.21;168.93;171.65;174.38;177.1;179.82;182.54;185.27;187.99;190.71;193.44;196.16;198.88;201.61;204.33;207.05;209.78;212.5;215.22;217.95;220.67;223.39;226.12;228.84;231.56;234.29;237.01;239.73;242.46;245.18;247.9;250.62;253.35;256.07;258.79;261.52;264.24;266.96;269.69;272.41;275.13;277.86;280.58;283.3;286.03;288.75;291.47;294.2;296.92;299.64;302.37;305.09;307.81;310.54;313.26;315.98;318.71;321.43;324.15;326.88;329.6;332.32;335.04;337.77;340.49;343.21;345.94;348.66;351.38;354.11;356.83;359.55;362.28;365.0;367.72;370.45;373.17;375.89;378.62;381.34;384.06;386.79;389.51;392.23;394.96;397.68;400.4;403.12;405.85;408.57;411.29;414.02;416.74;419.46;422.19;424.91;427.63;430.36;433.08;435.8;438.53;441.25;443.97;446.7;449.42;452.14;454.87;457.59;460.31;463.04;465.76;468.48;471.21;473.93;476.65;479.37;482.1;484.82;487.54;490.27;492.99;495.71;498.44;501.16;503.88;506.61;509.33;512.05;514.78;517.5;520.22;522.95;525.67;528.39;531.12;533.84;536.56;539.29;542.01;544.73;547.46;550.18;552.9;555.62;558.35;561.07;563.79;566.52;569.24;571.96;574.69;577.41;580.13;582.86;585.58;588.3;591.03;593.75;596.47;599.2;601.92;604.64;607.37;610.09;612.81;615.54;618.26;620.98;623.71;626.43;629.15;631.87;634.6;637.32;640.04;642.77;645.49;648.21;650.94;653.66;656.38;659.11;661.83;664.55;667.28;670.0" dur="8s" repeatCount="indefinite" calcMode="linear"/>
          <animate attributeName="cy" values="334.17;322.78;308.7;292.96;276.38;259.55;242.93;226.83;211.5;197.07;183.65;171.28;159.95;149.67;140.38;132.04;124.6;117.97;112.11;106.95;102.41;98.44;94.97;91.97;89.36;87.11;85.17;83.64;83.73;85.94;90.7;98.07;107.86;119.68;133.18;147.89;163.36;179.17;194.97;210.43;225.28;239.46;252.71;264.9;275.94;285.77;294.54;302.25;308.82;314.4;319.05;322.84;325.99;328.41;330.26;331.61;332.53;333.21;333.53;333.65;333.57;333.38;333.18;332.83;332.45;332.02;331.61;331.27;330.9;330.56;330.2;329.94;329.75;329.55;329.37;329.16;329.06;329.0;328.92;328.86;328.76;328.74;328.76;328.75;328.74;328.68;328.7;328.75;328.76;328.76;328.71;328.74;328.8;328.8;328.81;328.76;328.78;328.83;328.83;328.84;328.78;328.8;328.84;328.84;328.84;328.78;328.8;328.84;328.83;328.83;328.76;328.78;328.82;328.81;328.81;328.74;328.76;328.8;328.79;328.79;328.72;328.74;328.78;328.78;328.77;328.71;328.72;328.76;328.76;328.75;328.69;328.71;328.75;328.74;328.74;328.67;328.69;328.73;328.73;328.72;328.66;328.68;328.72;328.71;328.71;328.65;328.7;328.74;328.78;328.8;328.76;328.82;328.87;328.91;328.93;328.88;328.93;328.97;329.0;329.0;328.95;328.98;329.01;329.03;329.02;328.95;328.99;329.01;329.02;329.01;328.94;328.97;328.98;328.99;328.98;328.91;328.94;328.96;328.96;328.95;328.88;328.5;326.66;322.59;316.12;307.28;296.3;283.54;269.41;254.32;233.16;214.49;198.11;183.67;170.91;159.6;149.57;140.65;132.73;125.7;119.44;113.9;108.98;104.62;100.78;97.38;94.39;91.76;89.45;87.43;85.67;84.13;82.79;81.63;80.62;79.75;79.0;78.36;77.81;77.33;76.93;76.58;76.29;76.04;75.83" dur="8s" repeatCount="indefinite" calcMode="linear"/>
          <animate attributeName="r" values="9;24;9" dur="2s" repeatCount="indefinite"/>
          <animate attributeName="opacity" values="0.8;0;0.8" dur="2s" repeatCount="indefinite"/>
        </circle>
        <circle r="5.5" fill="#ffe566">
          <animate attributeName="cx" values="60.0;62.72;65.45;68.17;70.89;73.62;76.34;79.06;81.79;84.51;87.23;89.96;92.68;95.4;98.12;100.85;103.57;106.29;109.02;111.74;114.46;117.19;119.91;122.63;125.36;128.08;130.8;133.53;136.25;138.97;141.7;144.42;147.14;149.87;152.59;155.31;158.04;160.76;163.48;166.21;168.93;171.65;174.38;177.1;179.82;182.54;185.27;187.99;190.71;193.44;196.16;198.88;201.61;204.33;207.05;209.78;212.5;215.22;217.95;220.67;223.39;226.12;228.84;231.56;234.29;237.01;239.73;242.46;245.18;247.9;250.62;253.35;256.07;258.79;261.52;264.24;266.96;269.69;272.41;275.13;277.86;280.58;283.3;286.03;288.75;291.47;294.2;296.92;299.64;302.37;305.09;307.81;310.54;313.26;315.98;318.71;321.43;324.15;326.88;329.6;332.32;335.04;337.77;340.49;343.21;345.94;348.66;351.38;354.11;356.83;359.55;362.28;365.0;367.72;370.45;373.17;375.89;378.62;381.34;384.06;386.79;389.51;392.23;394.96;397.68;400.4;403.12;405.85;408.57;411.29;414.02;416.74;419.46;422.19;424.91;427.63;430.36;433.08;435.8;438.53;441.25;443.97;446.7;449.42;452.14;454.87;457.59;460.31;463.04;465.76;468.48;471.21;473.93;476.65;479.37;482.1;484.82;487.54;490.27;492.99;495.71;498.44;501.16;503.88;506.61;509.33;512.05;514.78;517.5;520.22;522.95;525.67;528.39;531.12;533.84;536.56;539.29;542.01;544.73;547.46;550.18;552.9;555.62;558.35;561.07;563.79;566.52;569.24;571.96;574.69;577.41;580.13;582.86;585.58;588.3;591.03;593.75;596.47;599.2;601.92;604.64;607.37;610.09;612.81;615.54;618.26;620.98;623.71;626.43;629.15;631.87;634.6;637.32;640.04;642.77;645.49;648.21;650.94;653.66;656.38;659.11;661.83;664.55;667.28;670.0" dur="8s" repeatCount="indefinite" calcMode="linear"/>
          <animate attributeName="cy" values="334.17;322.78;308.7;292.96;276.38;259.55;242.93;226.83;211.5;197.07;183.65;171.28;159.95;149.67;140.38;132.04;124.6;117.97;112.11;106.95;102.41;98.44;94.97;91.97;89.36;87.11;85.17;83.64;83.73;85.94;90.7;98.07;107.86;119.68;133.18;147.89;163.36;179.17;194.97;210.43;225.28;239.46;252.71;264.9;275.94;285.77;294.54;302.25;308.82;314.4;319.05;322.84;325.99;328.41;330.26;331.61;332.53;333.21;333.53;333.65;333.57;333.38;333.18;332.83;332.45;332.02;331.61;331.27;330.9;330.56;330.2;329.94;329.75;329.55;329.37;329.16;329.06;329.0;328.92;328.86;328.76;328.74;328.76;328.75;328.74;328.68;328.7;328.75;328.76;328.76;328.71;328.74;328.8;328.8;328.81;328.76;328.78;328.83;328.83;328.84;328.78;328.8;328.84;328.84;328.84;328.78;328.8;328.84;328.83;328.83;328.76;328.78;328.82;328.81;328.81;328.74;328.76;328.8;328.79;328.79;328.72;328.74;328.78;328.78;328.77;328.71;328.72;328.76;328.76;328.75;328.69;328.71;328.75;328.74;328.74;328.67;328.69;328.73;328.73;328.72;328.66;328.68;328.72;328.71;328.71;328.65;328.7;328.74;328.78;328.8;328.76;328.82;328.87;328.91;328.93;328.88;328.93;328.97;329.0;329.0;328.95;328.98;329.01;329.03;329.02;328.95;328.99;329.01;329.02;329.01;328.94;328.97;328.98;328.99;328.98;328.91;328.94;328.96;328.96;328.95;328.88;328.5;326.66;322.59;316.12;307.28;296.3;283.54;269.41;254.32;233.16;214.49;198.11;183.67;170.91;159.6;149.57;140.65;132.73;125.7;119.44;113.9;108.98;104.62;100.78;97.38;94.39;91.76;89.45;87.43;85.67;84.13;82.79;81.63;80.62;79.75;79.0;78.36;77.81;77.33;76.93;76.58;76.29;76.04;75.83" dur="8s" repeatCount="indefinite" calcMode="linear"/>
        </circle>
        <circle r="2" fill="white">
          <animate attributeName="cx" values="60.0;62.72;65.45;68.17;70.89;73.62;76.34;79.06;81.79;84.51;87.23;89.96;92.68;95.4;98.12;100.85;103.57;106.29;109.02;111.74;114.46;117.19;119.91;122.63;125.36;128.08;130.8;133.53;136.25;138.97;141.7;144.42;147.14;149.87;152.59;155.31;158.04;160.76;163.48;166.21;168.93;171.65;174.38;177.1;179.82;182.54;185.27;187.99;190.71;193.44;196.16;198.88;201.61;204.33;207.05;209.78;212.5;215.22;217.95;220.67;223.39;226.12;228.84;231.56;234.29;237.01;239.73;242.46;245.18;247.9;250.62;253.35;256.07;258.79;261.52;264.24;266.96;269.69;272.41;275.13;277.86;280.58;283.3;286.03;288.75;291.47;294.2;296.92;299.64;302.37;305.09;307.81;310.54;313.26;315.98;318.71;321.43;324.15;326.88;329.6;332.32;335.04;337.77;340.49;343.21;345.94;348.66;351.38;354.11;356.83;359.55;362.28;365.0;367.72;370.45;373.17;375.89;378.62;381.34;384.06;386.79;389.51;392.23;394.96;397.68;400.4;403.12;405.85;408.57;411.29;414.02;416.74;419.46;422.19;424.91;427.63;430.36;433.08;435.8;438.53;441.25;443.97;446.7;449.42;452.14;454.87;457.59;460.31;463.04;465.76;468.48;471.21;473.93;476.65;479.37;482.1;484.82;487.54;490.27;492.99;495.71;498.44;501.16;503.88;506.61;509.33;512.05;514.78;517.5;520.22;522.95;525.67;528.39;531.12;533.84;536.56;539.29;542.01;544.73;547.46;550.18;552.9;555.62;558.35;561.07;563.79;566.52;569.24;571.96;574.69;577.41;580.13;582.86;585.58;588.3;591.03;593.75;596.47;599.2;601.92;604.64;607.37;610.09;612.81;615.54;618.26;620.98;623.71;626.43;629.15;631.87;634.6;637.32;640.04;642.77;645.49;648.21;650.94;653.66;656.38;659.11;661.83;664.55;667.28;670.0" dur="8s" repeatCount="indefinite" calcMode="linear"/>
          <animate attributeName="cy" values="334.17;322.78;308.7;292.96;276.38;259.55;242.93;226.83;211.5;197.07;183.65;171.28;159.95;149.67;140.38;132.04;124.6;117.97;112.11;106.95;102.41;98.44;94.97;91.97;89.36;87.11;85.17;83.64;83.73;85.94;90.7;98.07;107.86;119.68;133.18;147.89;163.36;179.17;194.97;210.43;225.28;239.46;252.71;264.9;275.94;285.77;294.54;302.25;308.82;314.4;319.05;322.84;325.99;328.41;330.26;331.61;332.53;333.21;333.53;333.65;333.57;333.38;333.18;332.83;332.45;332.02;331.61;331.27;330.9;330.56;330.2;329.94;329.75;329.55;329.37;329.16;329.06;329.0;328.92;328.86;328.76;328.74;328.76;328.75;328.74;328.68;328.7;328.75;328.76;328.76;328.71;328.74;328.8;328.8;328.81;328.76;328.78;328.83;328.83;328.84;328.78;328.8;328.84;328.84;328.84;328.78;328.8;328.84;328.83;328.83;328.76;328.78;328.82;328.81;328.81;328.74;328.76;328.8;328.79;328.79;328.72;328.74;328.78;328.78;328.77;328.71;328.72;328.76;328.76;328.75;328.69;328.71;328.75;328.74;328.74;328.67;328.69;328.73;328.73;328.72;328.66;328.68;328.72;328.71;328.71;328.65;328.7;328.74;328.78;328.8;328.76;328.82;328.87;328.91;328.93;328.88;328.93;328.97;329.0;329.0;328.95;328.98;329.01;329.03;329.02;328.95;328.99;329.01;329.02;329.01;328.94;328.97;328.98;328.99;328.98;328.91;328.94;328.96;328.96;328.95;328.88;328.5;326.66;322.59;316.12;307.28;296.3;283.54;269.41;254.32;233.16;214.49;198.11;183.67;170.91;159.6;149.57;140.65;132.73;125.7;119.44;113.9;108.98;104.62;100.78;97.38;94.39;91.76;89.45;87.43;85.67;84.13;82.79;81.63;80.62;79.75;79.0;78.36;77.81;77.33;76.93;76.58;76.29;76.04;75.83" dur="8s" repeatCount="indefinite" calcMode="linear"/>
        </circle>
      </g>

      <g class="legend" transform="translate(195.0, 20)">
        <rect x="0" y="-14" width="310" height="28" rx="14" fill="rgba(20, 15, 35, 0.8)" stroke="rgba(0, 229, 204, 0.4)" stroke-width="1"/>
        <line x1="20" y1="0" x2="45" y2="0" stroke="rgba(255,255,255,0.4)" stroke-width="2" stroke-dasharray="4 3"/>
        <text x="55" y="4" font-size="11" font-weight="600" fill="rgba(255,255,255,0.7)" font-family="system-ui, sans-serif">Perfect Trajectory</text>
        <line x1="175" y1="-6" x2="175" y2="6" stroke="rgba(255,255,255,0.2)" stroke-width="1"/>
        <line x1="190" y1="0" x2="215" y2="0" stroke="url(#trail-grad-e)" stroke-width="3" stroke-linecap="round"/>
        <text x="225" y="4" font-size="11" font-weight="bold" fill="#ff00cc" font-family="system-ui, sans-serif">Error</text>
      </g>
    </svg>