<svg xmlns="http://www.w3.org/2000/svg" viewBox="0 0 700 400" width="100%" class="trajectory-svg">
      <defs>
        <linearGradient id="trail-grad-e" x1="60" y1="0" x2="670" y2="0" gradientUnits="userSpaceOnUse">
          <stop offset="0%" stop-color="#aa00ff"/><stop offset="100%" stop-color="#ff00cc"/>
        </linearGradient>
      </defs>

      <rect width="700" height="400" fill="#0d0a1a"/>
      <g class="grid"><line x1="60.0" y1="50" x2="60.0" y2="360" stroke="rgba(0,229,204,1)" stroke-width="0.5" opacity="0.06"/>
<line x1="161.66666666666669" y1="50" x2="161.66666666666669" y2="360" stroke="rgba(0,229,204,1)" stroke-width="0.5" opacity="0.06"/>
<line x1="263.33333333333337" y1="50" x2="263.33333333333337" y2="360" stroke="rgba(0,229,204,1)" stroke-width="0.5" opacity="0.06"/>
<line x1="365.0" y1="50" x2="365.0" y2="360" stroke="rgba(0,229,204,1)" stroke-width="0.5" opacity="0.06"/>
<line x1="466.6666666666667" y1="50" x2="466.6666666666667" y2="360" stroke="rgba(0,229,204,1)" stroke-width="0.5" opacity="0.06"/>
<line x1="568.3333333333333" y1="50" x2="568.3333333333333" y2="360" stroke="rgba(0,229,204,1)" stroke-width="0.5" opacity="0.06"/>
<line x1="670.0" y1="50" x2="670.0" y2="360" stroke="rgba(0,229,204,1)" stroke-width="0.5" opacity="0.06"/>
<line x1="60" y1="50.0" x2="670" y2="50.0" stroke="rgba(0,229,204,1)" stroke-width="0.5" opacity="0.18"/>
<line x1="60" y1="101.66666666666666" x2="670" y2="101.66666666666666" stroke="rgba(0,229,204,1)" stroke-width="0.5" opacity="0.18"/>
<line x1="60" y1="153.33333333333331" x2="670" y2="153.33333333333331" stroke="rgba(0,229,204,1)" stroke-width="0.5" opacity="0.18"/>
<line x1="60" y1="205.0" x2="670" y2="205.0" stroke="rgba(0,229,204,1)" stroke-width="0.5" opacity="0.18"/>
<line x1="60" y1="256.66666666666663" x2="670" y2="256.66666666666663" stroke="rgba(0,229,204,1)" stroke-width="0.5" opacity="0.18"/>
<line x1="60" y1="308.3333333333333" x2="670" y2="308.3333333333333" stroke="rgba(0,229,204,1)" stroke-width="0.5" opacity="0.18"/>
<line x1="60" y1="360.0" x2="670" y2="360.0" stroke="rgba(0,229,204,1)" stroke-width="0.5" opacity="0.18"/>
</g>
      <line x1="60" y1="201.22" x2="670" y2="201.22" stroke="rgba(255,255,255,0.5)" stroke-width="1.5" stroke-dasharray="6 6"/>
      <rect x="60" y="50" width="610" height="310" fill="none" stroke="rgba(0,229,204,0.15)" stroke-width="0.75" rx="4"/>

      <g class="axis-labels"><text x="60.0" y="380" font-size="10" fill="rgba(255,255,255,0.6)" text-anchor="middle" font-family="system-ui, sans-serif">0.1s</text>
<text x="161.66666666666669" y="380" font-size="10" fill="rgba(255,255,255,0.6)" text-anchor="middle" font-family="system-ui, sans-serif">7.6s</text>
<text x="263.33333333333337" y="380" font-size="10" fill="rgba(255,255,255,0.6)" text-anchor="middle" font-family="system-ui, sans-serif">15.0s</text>
<text x="365.0" y="380" font-size="10" fill="rgba(255,255,255,0.6)" text-anchor="middle" font-family="system-ui, sans-serif">22.5s</text>
<text x="466.6666666666667" y="380" font-size="10" fill="rgba(255,255,255,0.6)" text-anchor="middle" font-family="system-ui, sans-serif">30.0s</text>
<text x="568.3333333333333" y="380" font-size="10" fill="rgba(255,255,255,0.6)" text-anchor="middle" font-family="system-ui, sans-serif">37.4s</text>
<text x="670.0" y="380" font-size="10" fill="rgba(255,255,255,0.6)" text-anchor="middle" font-family="system-ui, sans-serif">44.9s</text>
<text x="50" y="54.0" font-size="10" fill="rgba(255,255,255,0.6)" text-anchor="end" font-family="system-ui, sans-serif">1.10</text>
<text x="50" y="105.66666666666666" font-size="10" fill="rgba(255,255,255,0.6)" text-anchor="end" font-family="system-ui, sans-serif">0.72</text>
<text x="50" y="157.33333333333331" font-size="10" fill="rgba(255,255,255,0.6)" text-anchor="end" font-family="system-ui, sans-serif">0.35</text>
<text x="50" y="209.0" font-size="10" fill="rgba(255,255,255,0.6)" text-anchor="end" font-family="system-ui, sans-serif">-0.03</text>
<text x="50" y="260.66666666666663" font-size="10" fill="rgba(255,255,255,0.6)" text-anchor="end" font-family="system-ui, sans-serif">-0.40</text>
<text x="50" y="312.3333333333333" font-size="10" fill="rgba(255,255,255,0.6)" text-anchor="end" font-family="system-ui, sans-serif">-0.78</text>
<text x="50" y="364.0" font-size="10" fill="rgba(255,255,255,0.6)" text-anchor="end" font-family="system-ui, sans-serif">-1.15</text>
</g>
      <text x="50" y="35" font-size="11" font-weight="bold" fill="rgba(0,229,204,0.8)" text-anchor="end" font-family="system-ui, sans-serif">Error (m)</text>
      <text x="670" y="395" font-size="11" font-weight="bold" fill="rgba(0,229,204,0.8)" text-anchor="end" font-family="system-ui, sans-serif">Time (s)</text>

      <path d="M 60.0,270.14 L 62.72,266.6 L 65.45,261.66 L 68.17,256.02 L 70.89,250.2 L 73.62,244.53 L 76.34,239.19 L 79.06,234.38 L 81.79,230.29 L 84.51,227.1 L 87.23,224.85 L 89.96,223.47 L 92.68,222.82 L 95.4,222.78 L 98.12,223.17 L 100.85,223.89 L 103.57,224.84 L 106.29,225.95 L 109.02,227.15 L 111.74,228.4 L 114.46,229.66 L 117.19,230.9 L 119.91,232.11 L 122.63,233.27 L 125.36,234.39 L 128.08,235.46 L 130.8,236.49 L 133.53,237.51 L 136.25,239.93 L 138.97,242.34 L 141.7,244.87 L 144.42,247.59 L 147.14,250.46 L 149.87,253.51 L 152.59,256.66 L 155.31,259.83 L 158.04,262.99 L 160.76,266.08 L 163.48,269.1 L 166.21,272.01 L 168.93,274.81 L 171.65,277.5 L 174.38,280.08 L 177.1,282.6 L 179.82,285.06 L 182.54,287.48 L 185.27,289.9 L 187.99,292.38 L 190.71,294.94 L 193.44,297.6 L 196.16,300.41 L 198.88,303.44 L 201.61,306.72 L 204.33,310.3 L 207.05,314.26 L 209.78,318.65 L 212.5,323.51 L 215.22,328.7 L 217.95,333.41 L 220.67,334.17 L 223.39,326.4 L 226.12,310.71 L 228.84,298.2 L 231.56,295.77 L 234.29,289.24 L 237.01,273.38 L 239.73,249.46 L 242.46,220.0 L 245.18,188.06 L 247.9,156.07 L 250.62,126.36 L 253.35,101.7 L 256.07,84.88 L 258.79,76.85 L 261.52,75.83 L 264.24,79.2 L 266.96,85.0 L 269.69,92.02 L 272.41,99.54 L 275.13,107.15 L 277.86,114.59 L 280.58,121.72 L 283.3,128.45 L 286.03,134.75 L 288.75,140.6 L 291.47,146.0 L 294.2,150.98 L 296.92,155.54 L 299.64,159.71 L 302.37,163.53 L 305.09,167.01 L 307.81,170.19 L 310.54,173.1 L 313.26,175.75 L 315.98,178.19 L 318.71,180.42 L 321.43,182.45 L 324.15,184.32 L 326.88,186.02 L 329.6,187.59 L 332.32,189.02 L 335.04,190.33 L 337.77,191.54 L 340.49,192.64 L 343.21,193.64 L 345.94,194.55 L 348.66,195.39 L 351.38,196.14 L 354.11,196.85 L 356.83,197.48 L 359.55,198.05 L 362.28,198.56 L 365.0,199.0 L 367.72,199.41 L 370.45,199.75 L 373.17,200.05 L 375.89,200.3 L 378.62,200.5 L 381.34,200.64 L 384.06,200.78 L 386.79,200.85 L 389.51,200.89 L 392.23,200.89 L 394.96,200.83 L 397.68,200.73 L 400.4,200.6 L 403.12,200.42 L 405.85,200.2 L 408.57,199.92 L 411.29,199.59 L 414.02,199.24 L 416.74,198.83 L 419.46,198.35 L 422.19,197.84 L 424.91,197.24 L 427.63,196.59 L 430.36,195.87 L 433.08,195.06 L 435.8,194.19 L 438.53,193.22 L 441.25,192.15 L 443.97,190.98 L 446.7,189.71 L 449.42,188.3 L 452.14,186.76 L 454.87,185.05 L 457.59,183.16 L 460.31,181.06 L 463.04,178.73 L 465.76,176.12 L 468.48,173.19 L 471.21,169.88 L 473.93,166.11 L 476.65,161.79 L 479.37,156.79 L 482.1,150.93 L 484.82,144.07 L 487.54,136.52 L 490.27,129.46 L 492.99,124.03 L 495.71,120.79 L 498.44,119.85 L 501.16,121.03 L 503.88,124.02 L 506.61,128.49 L 509.33,134.09 L 512.05,140.53 L 514.78,147.51 L 517.5,154.77 L 520.22,162.12 L 522.95,169.41 L 525.67,176.53 L 528.39,183.36 L 531.12,189.84 L 533.84,195.9 L 536.56,201.5 L 539.29,206.59 L 542.01,211.04 L 544.73,214.59 L 547.46,217.17 L 550.18,218.82 L 552.9,219.64 L 555.62,219.78 L 558.35,219.41 L 561.07,218.64 L 563.79,217.43 L 566.52,215.78 L 569.24,214.29 L 571.96,212.92 L 574.69,211.67 L 577.41,210.53 L 580.13,209.49 L 582.86,208.54 L 585.58,207.68 L 588.3,206.9 L 591.03,206.21 L 593.75,205.59 L 596.47,205.03 L 599.2,204.54 L 601.92,204.11 L 604.64,203.73 L 607.37,203.39 L 610.09,203.1 L 612.81,202.84 L 615.54,202.62 L 618.26,202.43 L 620.98,202.26 L 623.71,202.11 L 626.43,201.98 L 629.15,201.88 L 631.87,201.78 L 634.6,201.7 L 637.32,201.63 L 640.04,201.57 L 642.77,201.52 L 645.49,201.47 L 648.21,201.43 L 650.94,201.4 L 653.66,201.37 L 656.38,201.35 L 659.11,201.33 L 661.83,201.31 L 664.55,201.3 L 667.28,201.28 L 670.0,201.27" fill="none" stroke="url(#trail-grad-e)" stroke-width="2.5" stroke-linecap="round" stroke-linejoin="round"
            stroke-dasharray="1079.91" stroke-dashoffset="1079.91">
        <animate attributeName="stroke-dashoffset" values="1079.91;1075.44;1069.8;1063.54;1057.11;1050.82;1044.83;1039.3;1034.38;1030.19;1026.66;1023.6;1020.81;1018.09;1015.34;1012.51;1009.63;1006.7;1003.71;1000.72;997.72;994.72;991.75;988.79;985.84;982.92;980.01;977.09;973.45;969.82;966.1;962.25;958.3;954.2;950.04;945.86;941.69;937.57;933.51;929.52;925.61;921.79;918.03;914.32;910.66;907.02;903.37;899.69;895.95;892.14;888.23;884.16;879.89;875.39;870.59;865.42;859.85;853.99;848.55;845.72;837.49;821.56;808.76;805.11;798.04;781.95;757.87;728.29;696.23;664.12;634.29;609.48;592.44;583.96;581.05;576.72;570.31;562.78;554.78;546.7;538.78;531.14;523.89;517.02;510.57;504.52;498.84;493.53;488.55;483.86;479.44;475.26;471.27;467.47;463.82;460.29;456.9;453.6;450.38;447.24;444.17;441.15;438.16;435.23;432.33;429.45;426.6;423.78;420.96;418.17;415.39;412.61;409.86;407.11;404.36;401.62;398.89;396.15;393.43;390.7;387.97;385.25;382.53;379.8;377.08;374.36;371.63;368.89;366.16;363.42;360.67;357.92;355.15;352.38;349.59;346.79;343.97;341.13;338.28;335.38;332.46;329.5;326.49;323.42;320.3;317.07;313.76;310.33;306.74;302.97;298.97;294.68;290.03;284.92;279.23;272.77;265.39;257.36;249.79;243.72;239.49;236.6;233.64;229.6;224.36;218.13;211.14;203.65;195.89;188.06;180.27;172.65;165.3;158.27;151.63;145.4;139.62;134.41;129.94;126.18;123.0;120.16;117.43;114.68;111.85;108.88;105.69;102.58;99.54;96.54;93.59;90.67;87.78;84.93;82.1;79.29;76.5;73.72;70.95;68.19;65.45;62.69;59.96;57.23;54.49;51.76;49.04;46.3;43.58;40.86;38.13;35.4;32.68;29.96;27.23;24.51;21.79;19.06;16.34;13.62;10.89;8.17;5.45;2.72;0.0" dur="8s" repeatCount="indefinite" calcMode="linear"/>
      </path>

      <g>
        <circle r="9" fill="none" stroke="#ffe566" stroke-width="1.5">
          <animate attributeName="cx" values="60.0;62.72;65.45;68.17;70.89;73.62;76.34;79.06;81.79;84.51;87.23;89.96;92.68;95.4;98.12;100.85;103.57;106.29;109.02;111.74;114.46;117.19;119.91;122.63;125.36;128.08;130.8;133.53;136.25;138.97;141.7;144.42;147.14;149.87;152.59;155.31;158.04;160.76;163.48;166.21;168.93;171.65;174.38;177.1;179.82;182.54;185.27;187.99;190.71;193.44;196.16;198.88;201.61;204.33;207.05;209.78;212.5;215.22;217.95;220.67;223.39;226.12;228.84;231.56;234.29;237.01;239.73;242.46;245.18;247.9;250.62;253.35;256.07;258.79;261.52;264.24;266.96;269.69;272.41;275.13;277.86;280.58;283.3;286.03;288.75;291.47;294.2;296.92;299.64;302.37;305.09;307.81;310.54;313.26;315.98;318.71;321.43;324.15;326.88;329.6;332.32;335.04;337.77;340.49;343.21;345.94;348.66;351.38;354.11;356.83;359.55;362.28;365.0;367.72;370.45;373.17;375.89;378.62;381.34;384.06;386.79;389.51;392.23;394.96;397.68;400.4;403.12;405.85;408.57;411.29;414.02;416.74;419.46;422.19;424.91;427.63;430.36;433.08;435.8;438.53;441.25;443.97;446.7;449.42;452.14;454.87;457.59;460.31;463.04;465.76;468.48;471.21;473.93;476.65;479.37;482.1;484.82;487.54;490.27;492.99;495.71;498.44;501.16;503.88;506.61;509.33;512.05;514.78;517.5;520.22;522.95;525.67;528.39;531.12;533.84;536.56;539.29;542.01;544.73;547.46;550.18;552.9;555.62;558.35;561.07;563.79;566.52;569.24;571.96;574.69;577.41;580.13;582.86;585.58;588.3;591.03;593.75;596.47;599.2;601.92;604.64;607.37;610.09;612.81;615.54;618.26;620.98;623.71;626.43;629.15;631.87;634.6;637.32;640.04;642.77;645.49;648.21;650.94;653.66;656.38;659.11;661.83;664.55;667.28;670.0" dur="8s" repeatCount="indefinite" calcMode="linear"/>
          <animate attributeName="cy" values="270.14;266.6;261.66;256.02;250.2;244.53;239.19;234.38;230.29;227.1;224.85;223.47;222.82;222.78;223.17;223.89;224.84;225.95;227.15;228.4;229.66;230.9;232.11;233.27;234.39;235.46;236.49;237.51;239.93;242.34;244.87;247.59;250.46;253.51;256.66;259.83;262.99;266.08;269.1;272.01;274.81;277.5;280.08;282.6;285.06;287.48;289.9;292.38;294.94;297.6;300.41;303.44;306.72;310.3;314.26;318.65;323.51;328.7;333.41;334.17;326.4;310.71;298.2;295.77;289.24;273.38;249.46;220.0;188.06;156.07;126.36;101.7;84.88;76.85;75.83;79.2;85.0;92.02;99.54;107.15;114.59;121.72;128.45;134.75;140.6;146.0;150.98;155.54;159.71;163.53;167.01;170.19;173.1;175.75;178.19;180.42;182.45;184.32;186.02;187.59;189.02;190.33;191.54;192.64;193.64;194.55;195.39;196.14;196.85;197.48;198.05;198.56;199.0;199.41;199.75;200.05;200.3;200.5;200.64;200.78;200.85;200.89;200.89;200.83;200.73;200.6;200.42;200.2;199.92;199.59;199.24;198.83;198.35;197.84;197.24;196.59;195.87;195.06;194.19;193.22;192.15;190.98;189.71;188.3;186.76;185.05;183.16;181.06;178.73;176.12;173.19;169.88;166.11;161.79;156.79;150.93;144.07;136.52;129.46;124.03;120.79;119.85;121.03;124.02;128.49;134.09;140.53;147.51;154.77;162.12;169.41;176.53;183.36;189.84;195.9;201.5;206.59;211.04;214.59;217.17;218.82;219.64;219.78;219.41;218.64;217.43;215.78;214.29;212.92;211.67;210.53;209.49;208.54;207.68;206.9;206.21;205.59;205.03;204.54;204.11;203.73;203.39;203.1;202.84;202.62;202.43;202.26;202.11;201.98;201.88;201.78;201.7;201.63;201.57;201.52;201.47;201.43;201.4;201.37;201.35;201.33;201.31;201.3;201.28;201.27" dur="8s" repeatCount="indefinite" calcMode="linear"/>
          <animate attributeName="r" values="9;24;9" dur="2s" repeatCount="indefinite"/>
          <animate attributeName="opacity" values="0.8;0;0.8" dur="2s" repeatCount="indefinite"/>
        </circle>
        <circle r="5.5" fill="#ffe566">
          <animate attributeName="cx" values="60.0;62.72;65.45;68.17;70.89;73.62;76.34;79.06;81.79;84.51;87.23;89.96;92.68;95.4;98.12;100.85;103.57;106.29;109.02;111.74;114.46;117.19;119.91;122.63;125.36;128.08;130.8;133.53;136.25;138.97;141.7;144.42;147.14;149.87;152.59;155.31;158.04;160.76;163.48;166.21;168.93;171.65;174.38;177.1;179.82;182.54;185.27;187.99;190.71;193.44;196.16;198.88;201.61;204.33;207.05;209.78;212.5;215.22;217.95;220.67;223.39;226.12;228.84;231.56;234.29;237.01;239.73;242.46;245.18;247.9;250.62;253.35;256.07;258.79;261.52;264.24;266.96;269.69;272.41;275.13;277.86;280.58;283.3;286.03;288.75;291.47;294.2;296.92;299.64;302.37;305.09;307.81;310.54;313.26;315.98;318.71;321.43;324.15;326.88;329.6;332.32;335.04;337.77;340.49;343.21;345.94;348.66;351.38;354.11;356.83;359.55;362.28;365.0;367.72;370.45;373.17;375.89;378.62;381.34;384.06;386.79;389.51;392.23;394.96;397.68;400.4;403.12;405.85;408.57;411.29;414.02;416.74;419.46;422.19;424.91;427.63;430.36;433.08;435.8;438.53;441.25;443.97;446.7;449.42;452.14;454.87;457.59;460.31;463.04;465.76;468.48;471.21;473.93;476.65;479.37;482.1;484.82;487.54;490.27;492.99;495.71;498.44;501.16;503.88;506.61;509.33;512.05;514.78;517.5;520.22;522.95;525.67;528.39;531.12;533.84;536.56;539.29;542.01;544.73;547.46;550.18;552.9;555.62;558.35;561.07;563.79;566.52;569.24;571.96;574.69;577.41;580.13;582.86;585.58;588.3;591.03;593.75;596.47;599.2;601.92;604.64;607.37;610.09;612.81;615.54;618.26;620.98;623.71;626.43;629.15;631.87;634.6;637.32;640.04;642.77;645.49;648.21;650.94;653.66;656.38;659.11;661.83;664.55;667.28;670.0" dur="8s" repeatCount="indefinite" calcMode="linear"/>
          <animate attributeName="cy" values="270.14;266.6;261.66;256.02;250.2;244.53;239.19;234.38;230.29;227.1;224.85;223.47;222.82;222.78;223.17;223.89;224.84;225.95;227.15;228.4;229.66;230.9;232.11;233.27;234.39;235.46;236.49;237.51;239.93;242.34;244.87;247.59;250.46;253.51;256.66;259.83;262.99;266.08;269.1;272.01;274.81;277.5;280.08;282.6;285.06;287.48;289.9;292.38;294.94;297.6;300.41;303.44;306.72;310.3;314.26;318.65;323.51;328.7;333.41;334.17;326.4;310.71;298.2;295.77;289.24;273.38;249.46;220.0;188.06;156.07;126.36;101.7;84.88;76.85;75.83;79.2;85.0;92.02;99.54;107.15;114.59;121.72;128.45;134.75;140.6;146.0;150.98;155.54;159.71;163.53;167.01;170.19;173.1;175.75;178.19;180.42;182.45;184.32;186.02;187.59;189.02;190.33;191.54;192.64;193.64;194.55;195.39;196.14;196.85;197.48;198.05;198.56;199.0;199.41;199.75;200.05;200.3;200.5;200.64;200.78;200.85;200.89;200.89;200.83;200.73;200.6;200.42;200.2;199.92;199.59;199.24;198.83;198.35;197.84;197.24;196.59;195.87;195.06;194.19;193.22;192.15;190.98;189.71;188.3;186.76;185.05;183.16;181.06;178.73;176.12;173.19;169.88;166.11;161.79;156.79;150.93;144.07;136.52;129.46;124.03;120.79;119.85;121.03;124.02;128.49;134.09;140.53;147.51;154.77;162.12;169.41;176.53;183.36;189.84;195.9;201.5;206.59;211.04;214.59;217.17;218.82;219.64;219.78;219.41;218.64;217.43;215.78;214.29;212.92;211.67;210.53;209.49;208.54;207.68;206.9;206.21;205.59;205.03;204.54;204.11;203.73;203.39;203.1;202.84;202.62;202.43;202.26;202.11;201.98;201.88;201.78;201.7;201.63;201.57;201.52;201.47;201.43;201.4;201.37;201.35;201.33;201.31;201.3;201.28;201.27" dur="8s" repeatCount="indefinite" calcMode="linear"/>
        </circle>
        <circle r="2" fill="white">
          <animate attributeName="cx" values="60.0;62.72;65.45;68.17;70.89;73.62;76.34;79.06;81.79;84.51;87.23;89.96;92.68;95.4;98.12;100.85;103.57;106.29;109.02;111.74;114.46;117.19;119.91;122.63;125.36;128.08;130.8;133.53;136.25;138.97;141.7;144.42;147.14;149.87;152.59;155.31;158.04;160.76;163.48;166.21;168.93;171.65;174.38;177.1;179.82;182.54;185.27;187.99;190.71;193.44;196.16;198.88;201.61;204.33;207.05;209.78;212.5;215.22;217.95;220.67;223.39;226.12;228.84;231.56;234.29;237.01;239.73;242.46;245.18;247.9;250.62;253.35;256.07;258.79;261.52;264.24;266.96;269.69;272.41;275.13;277.86;280.58;283.3;286.03;288.75;291.47;294.2;296.92;299.64;302.37;305.09;307.81;310.54;313.26;315.98;318.71;321.43;324.15;326.88;329.6;332.32;335.04;337.77;340.49;343.21;345.94;348.66;351.38;354.11;356.83;359.55;362.28;365.0;367.72;370.45;373.17;375.89;378.62;381.34;384.06;386.79;389.51;392.23;394.96;397.68;400.4;403.12;405.85;408.57;411.29;414.02;416.74;419.46;422.19;424.91;427.63;430.36;433.08;435.8;438.53;441.25;443.97;446.7;449.42;452.14;454.87;457.59;460.31;463.04;465.76;468.48;471.21;473.93;476.65;479.37;482.1;484.82;487.54;490.27;492.99;495.71;498.44;501.16;503.88;506.61;509.33;512.05;514.78;517.5;520.22;522.95;525.67;528.39;531.12;533.84;536.56;539.29;542.01;544.73;547.46;550.18;552.9;555.62;558.35;561.07;563.79;566.52;569.24;571.96;574.69;577.41;580.13;582.86;585.58;588.3;591.03;593.75;596.47;599.2;601.92;604.64;607.37;610.09;612.81;615.54;618.26;620.98;623.71;626.43;629.15;631.87;634.6;637.32;640.04;642.77;645.49;648.21;650.94;653.66;656.38;659.11;661.83;664.55;667.28;670.0" dur="8s" repeatCount="indefinite" calcMode="linear"/>
          <animate attributeName="cy" values="270.14;266.6;261.66;256.02;250.2;244.53;239.19;234.38;230.29;227.1;224.85;223.47;222.82;222.78;223.17;223.89;224.84;225.95;227.15;228.4;229.66;230.9;232.11;233.27;234.39;235.46;236.49;237.51;239.93;242.34;244.87;247.59;250.46;253.51;256.66;259.83;262.99;266.08;269.1;272.01;274.81;277.5;280.08;282.6;285.06;287.48;289.9;292.38;294.94;297.6;300.41;303.44;306.72;310.3;314.26;318.65;323.51;328.7;333.41;334.17;326.4;310.71;298.2;295.77;289.24;273.38;249.46;220.0;188.06;156.07;126.36;101.7;84.88;76.85;75.83;79.2;85.0;92.02;99.54;107.15;114.59;121.72;128.45;134.75;140.6;146.0;150.98;155.54;159.71;163.53;167.01;170.19;173.1;175.75;178.19;180.42;182.45;184.32;186.02;187.59;189.02;190.33;191.54;192.64;193.64;194.55;195.39;196.14;196.85;197.48;198.05;198.56;199.0;199.41;199.75;200.05;200.3;200.5;200.64;200.78;200.85;200.89;200.89;200.83;200.73;200.6;200.42;200.2;199.92;199.59;199.24;198.83;198.35;197.84;197.24;196.59;195.87;195.06;194.19;193.22;192.15;190.98;189.71;188.3;186.76;185.05;183.16;181.06;178.73;176.12;173.19;169.88;166.11;161.79;156.79;150.93;144.07;136.52;129.46;124.03;120.79;119.85;121.03;124.02;128.49;134.09;140.53;147.51;154.77;162.12;169.41;176.53;183.36;189.84;195.9;201.5;206.59;211.04;214.59;217.17;218.82;219.64;219.78;219.41;218.64;217.43;215.78;214.29;212.92;211.67;210.53;209.49;208.54;207.68;206.9;206.21;205.59;205.03;204.54;204.11;203.73;203.39;203.1;202.84;202.62;202.43;202.26;202.11;201.98;201.88;201.78;201.7;201.63;201.57;201.52;201.47;201.43;201.4;201.37;201.35;201.33;201.31;201.3;201.28;201.27" dur="8s" repeatCount="indefinite" calcMode="linear"/>
        </circle>
      </g>

      <g class="legend" transform="translate(195.0, 20)">
        <rect x="0" y="-14" width="310" height="28" rx="14" fill="rgba(20, 15, 35, 0.8)" stroke="rgba(0, 229, 204, 0.4)" stroke-width="1"/>
        <line x1="20" y1="0" x2="45" y2="0" stroke="rgba(255,255,255,0.4)" stroke-width="2" stroke-dasharray="4 3"/>
        <text x="55" y="4" font-size="11" font-weight="600" fill="rgba(255,255,255,0.7)" font-family="system-ui, sans-serif">Perfect Trajectory</text>
        <line x1="175" y1="-6" x2="175" y2="6" stroke="rgba(255,255,255,0.2)" stroke-width="1"/>
        <line x1="190" y1="0" x2="215" y2="0" stroke="url(#trail-grad-e)" stroke-width="3" stroke-linecap="round"/>
        <text x="225" y="4" font-size="11" font-weight="bold" fill="#ff00cc" font-family="system-ui, sans-serif">Error</text>
      </g>
    </svg>