<svg xmlns="http://www.w3.org/2000/svg" viewBox="0 0 700 400" width="100%" class="trajectory-svg">
      <defs>
        <linearGradient id="trail-grad-e" x1="60" y1="0" x2="670" y2="0" gradientUnits="userSpaceOnUse">
          <stop offset="0%" stop-color="#aa00ff"/><stop offset="100%" stop-color="#ff00cc"/>
        </linearGradient>
      </defs>

      <rect width="700" height="400" fill="#0d0a1a"/>
      <g class="grid"><line x1="60.0" y1="50" x2="60.0" y2="360" stroke="rgba(0,229,204,1)" stroke-width="0.5" opacity="0.06"/>
<line x1="161.66666666666669" y1="50" x2="161.66666666666669" y2="360" stroke="rgba(0,229,204,1)" stroke-width="0.5" opacity="0.06"/>
<line x1="263.33333333333337" y1="50" x2="263.33333333333337" y2="360" stroke="rgba(0,229,204,1)" stroke-width="0.5" opacity="0.06"/>
<line x1="365.0" y1="50" x2="365.0" y2="360" stroke="rgba(0,229,204,1)" stroke-width="0.5" opacity="0.06"/>
<line x1="466.6666666666667" y1="50" x2="466.6666666666667" y2="360" stroke="rgba(0,229,204,1)" stroke-width="0.5" opacity="0.06"/>
<line x1="568.3333333333333" y1="50" x2="568.3333333333333" y2="360" stroke="rgba(0,229,204,1)" stroke-width="0.5" opacity="0.06"/>
<line x1="670.0" y1="50" x2="670.0" y2="360" stroke="rgba(0,229,204,1)" stroke-width="0.5" opacity="0.06"/>
<line x1="60" y1="50.0" x2="670" y2="50.0" stroke="rgba(0,229,204,1)" stroke-width="0.5" opacity="0.18"/>
<line x1="60" y1="101.66666666666666" x2="670" y2="101.66666666666666" stroke="rgba(0,229,204,1)" stroke-width="0.5" opacity="0.18"/>
<line x1="60" y1="153.33333333333331" x2="670" y2="153.33333333333331" stroke="rgba(0,229,204,1)" stroke-width="0.5" opacity="0.18"/>
<line x1="60" y1="205.0" x2="670" y2="205.0" stroke="rgba(0,229,204,1)" stroke-width="0.5" opacity="0.18"/>
<line x1="60" y1="256.66666666666663" x2="670" y2="256.66666666666663" stroke="rgba(0,229,204,1)" stroke-width="0.5" opacity="0.18"/>
<line x1="60" y1="308.3333333333333" x2="670" y2="308.3333333333333" stroke="rgba(0,229,204,1)" stroke-width="0.5" opacity="0.18"/>
<line x1="60" y1="360.0" x2="670" y2="360.0" stroke="rgba(0,229,204,1)" stroke-width="0.5" opacity="0.18"/>
</g>
      <line x1="60" y1="179.96" x2="670" y2="179.96" stroke="rgba(255,255,255,0.5)" stroke-width="1.5" stroke-dasharray="6 6"/>
      <rect x="60" y="50" width="610" height="310" fill="none" stroke="rgba(0,229,204,0.15)" stroke-width="0.75" rx="4"/>

      <g class="axis-labels"><text x="60.0" y="380" font-size="10" fill="rgba(255,255,255,0.6)" text-anchor="middle" font-family="system-ui, sans-serif">0.1s</text>
<text x="161.66666666666669" y="380" font-size="10" fill="rgba(255,255,255,0.6)" text-anchor="middle" font-family="system-ui, sans-serif">7.6s</text>
<text x="263.33333333333337" y="380" font-size="10" fill="rgba(255,255,255,0.6)" text-anchor="middle" font-family="system-ui, sans-serif">15.0s</text>
<text x="365.0" y="380" font-size="10" fill="rgba(255,255,255,0.6)" text-anchor="middle" font-family="system-ui, sans-serif">22.5s</text>
<text x="466.6666666666667" y="380" font-size="10" fill="rgba(255,255,255,0.6)" text-anchor="middle" font-family="system-ui, sans-serif">30.0s</text>
<text x="568.3333333333333" y="380" font-size="10" fill="rgba(255,255,255,0.6)" text-anchor="middle" font-family="system-ui, sans-serif">37.4s</text>
<text x="670.0" y="380" font-size="10" fill="rgba(255,255,255,0.6)" text-anchor="middle" font-family="system-ui, sans-serif">44.9s</text>
<text x="50" y="54.0" font-size="10" fill="rgba(255,255,255,0.6)" text-anchor="end" font-family="system-ui, sans-serif">0.42</text>
<text x="50" y="105.66666666666666" font-size="10" fill="rgba(255,255,255,0.6)" text-anchor="end" font-family="system-ui, sans-serif">0.25</text>
<text x="50" y="157.33333333333331" font-size="10" fill="rgba(255,255,255,0.6)" text-anchor="end" font-family="system-ui, sans-serif">0.09</text>
<text x="50" y="209.0" font-size="10" fill="rgba(255,255,255,0.6)" text-anchor="end" font-family="system-ui, sans-serif">-0.08</text>
<text x="50" y="260.66666666666663" font-size="10" fill="rgba(255,255,255,0.6)" text-anchor="end" font-family="system-ui, sans-serif">-0.25</text>
<text x="50" y="312.3333333333333" font-size="10" fill="rgba(255,255,255,0.6)" text-anchor="end" font-family="system-ui, sans-serif">-0.42</text>
<text x="50" y="364.0" font-size="10" fill="rgba(255,255,255,0.6)" text-anchor="end" font-family="system-ui, sans-serif">-0.58</text>
</g>
      <text x="50" y="35" font-size="11" font-weight="bold" fill="rgba(0,229,204,0.8)" text-anchor="end" font-family="system-ui, sans-serif">Error (m)</text>
      <text x="670" y="395" font-size="11" font-weight="bold" fill="rgba(0,229,204,0.8)" text-anchor="end" font-family="system-ui, sans-serif">Time (s)</text>

      <path d="M 60.0,334.17 L 62.72,322.98 L 65.45,303.14 L 68.17,277.09 L 70.89,247.44 L 73.62,216.18 L 76.34,185.04 L 79.06,155.58 L 81.79,129.23 L 84.51,107.26 L 87.23,90.67 L 89.96,80.12 L 92.68,75.83 L 95.4,77.6 L 98.12,84.82 L 100.85,96.63 L 103.57,112.0 L 106.29,129.81 L 109.02,148.96 L 111.74,168.36 L 114.46,186.99 L 117.19,203.91 L 119.91,218.33 L 122.63,229.63 L 125.36,237.4 L 128.08,241.45 L 130.8,241.82 L 133.53,238.82 L 136.25,234.53 L 138.97,228.07 L 141.7,219.86 L 144.42,210.7 L 147.14,201.22 L 149.87,191.91 L 152.59,183.18 L 155.31,175.42 L 158.04,168.96 L 160.76,163.97 L 163.48,160.52 L 166.21,158.71 L 168.93,158.51 L 171.65,159.73 L 174.38,162.23 L 177.1,165.74 L 179.82,169.96 L 182.54,174.64 L 185.27,179.47 L 187.99,184.2 L 190.71,188.61 L 193.44,192.43 L 196.16,195.56 L 198.88,197.99 L 201.61,199.69 L 204.33,200.72 L 207.05,201.25 L 209.78,201.6 L 212.5,202.16 L 215.22,199.57 L 217.95,189.58 L 220.67,176.02 L 223.39,162.73 L 226.12,151.53 L 228.84,143.28 L 231.56,138.33 L 234.29,136.65 L 237.01,138.04 L 239.73,142.08 L 242.46,148.32 L 245.18,156.14 L 247.9,164.93 L 250.62,174.08 L 253.35,183.08 L 256.07,191.35 L 258.79,198.47 L 261.52,204.16 L 264.24,208.15 L 266.96,210.26 L 269.69,210.54 L 272.41,209.12 L 275.13,206.19 L 277.86,202.04 L 280.58,196.94 L 283.3,191.23 L 286.03,185.33 L 288.75,179.58 L 291.47,174.26 L 294.2,169.66 L 296.92,166.07 L 299.64,163.51 L 302.37,162.12 L 305.09,161.87 L 307.81,162.68 L 310.54,164.47 L 313.26,167.01 L 315.98,170.14 L 318.71,173.63 L 321.43,177.2 L 324.15,180.71 L 326.88,183.92 L 329.6,186.69 L 332.32,188.91 L 335.04,190.41 L 337.77,191.21 L 340.49,191.35 L 343.21,190.8 L 345.94,189.67 L 348.66,188.06 L 351.38,186.11 L 354.11,183.92 L 356.83,181.69 L 359.55,179.54 L 362.28,177.52 L 365.0,175.8 L 367.72,174.47 L 370.45,173.52 L 373.17,173.01 L 375.89,172.94 L 378.62,173.23 L 381.34,173.91 L 384.06,174.86 L 386.79,176.05 L 389.51,177.39 L 392.23,178.74 L 394.96,180.07 L 397.68,181.29 L 400.4,182.3 L 403.12,183.11 L 405.85,183.66 L 408.57,183.9 L 411.29,183.9 L 414.02,183.66 L 416.74,183.19 L 419.46,182.57 L 422.19,181.81 L 424.91,180.94 L 427.63,180.07 L 430.36,179.22 L 433.08,178.44 L 435.8,177.74 L 438.53,177.15 L 441.25,176.7 L 443.97,176.46 L 446.7,176.34 L 449.42,176.35 L 452.14,176.5 L 454.87,176.7 L 457.59,176.97 L 460.31,177.26 L 463.04,177.52 L 465.76,177.69 L 468.48,177.73 L 471.21,177.71 L 473.93,177.84 L 476.65,178.16 L 479.37,178.77 L 482.1,179.65 L 484.82,180.7 L 487.54,181.9 L 490.27,183.16 L 492.99,184.36 L 495.71,185.39 L 498.44,186.24 L 501.16,186.79 L 503.88,187.07 L 506.61,187.05 L 509.33,186.69 L 512.05,186.03 L 514.78,185.16 L 517.5,184.09 L 520.22,182.9 L 522.95,181.66 L 525.67,180.42 L 528.39,179.25 L 531.12,178.28 L 533.84,177.44 L 536.56,176.83 L 539.29,176.31 L 542.01,175.32 L 544.73,173.73 L 547.46,171.68 L 550.18,169.43 L 552.9,167.25 L 555.62,165.4 L 558.35,164.08 L 561.07,163.42 L 563.79,163.9 L 566.52,164.79 L 569.24,166.17 L 571.96,168.0 L 574.69,170.22 L 577.41,172.7 L 580.13,175.31 L 582.86,177.92 L 585.58,180.4 L 588.3,182.64 L 591.03,184.53 L 593.75,186.0 L 596.47,187.02 L 599.2,187.56 L 601.92,187.63 L 604.64,187.27 L 607.37,186.53 L 610.09,185.49 L 612.81,184.21 L 615.54,182.8 L 618.26,181.34 L 620.98,179.91 L 623.71,178.59 L 626.43,177.44 L 629.15,176.52 L 631.87,175.85 L 634.6,175.46 L 637.32,175.34 L 640.04,175.48 L 642.77,175.85 L 645.49,176.42 L 648.21,177.14 L 650.94,177.96 L 653.66,178.82 L 656.38,179.68 L 659.11,180.49 L 661.83,181.21 L 664.55,181.81 L 667.28,182.26 L 670.0,182.55" fill="none" stroke="url(#trail-grad-e)" stroke-width="2.5" stroke-linecap="round" stroke-linejoin="round"
            stroke-dasharray="1215.76" stroke-dashoffset="1215.76">
        <animate attributeName="stroke-dashoffset" values="1215.76;1204.25;1184.22;1158.03;1128.25;1096.87;1065.61;1036.03;1009.54;987.4;970.59;959.69;954.61;951.37;943.65;931.53;915.92;897.9;878.56;858.97;840.14;823.0;808.33;796.71;788.47;783.59;780.85;776.79;771.71;764.7;756.05;746.5;736.63;726.93;717.79;709.56;702.55;696.87;692.48;689.2;686.47;683.49;679.79;675.35;670.33;664.92;659.37;653.91;648.73;644.03;639.89;636.24;633.02;630.12;627.34;624.59;621.82;618.06;607.7;593.87;580.31;568.78;560.09;554.44;551.24;548.18;543.31;536.5;528.22;519.02;509.48;500.07;491.37;483.74;477.43;472.6;469.16;466.42;463.35;459.35;454.38;448.6;442.28;435.78;429.42;423.44;418.09;413.59;409.85;406.79;404.06;401.22;397.96;394.23;390.09;385.66;381.17;376.73;372.51;368.63;365.12;362.01;359.17;356.45;353.67;350.72;347.56;344.21;340.71;337.19;333.72;330.33;327.11;324.08;321.19;318.42;315.7;312.96;310.16;307.27;304.3;301.26;298.23;295.19;292.21;289.31;286.47;283.68;280.95;278.23;275.49;272.73;269.94;267.11;264.25;261.4;258.54;255.71;252.9;250.11;247.35;244.62;241.89;239.17;236.44;233.71;230.97;228.24;225.5;222.77;220.05;217.32;214.6;211.86;209.07;206.2;203.29;200.31;197.31;194.33;191.42;188.57;185.79;183.06;180.33;177.58;174.78;171.92;169.0;166.03;163.03;160.04;157.08;154.18;151.33;148.55;145.77;142.87;139.72;136.31;132.78;129.29;126.0;122.97;120.17;117.41;114.54;111.49;108.21;104.69;101.01;97.24;93.46;89.78;86.26;82.94;79.85;76.94;74.16;71.44;68.69;65.87;62.95;59.95;56.87;53.79;50.71;47.68;44.73;41.86;39.06;36.3;33.58;30.85;28.1;25.32;22.5;19.65;16.8;13.95;11.1;8.29;5.5;2.74;0.0" dur="8s" repeatCount="indefinite" calcMode="linear"/>
      </path>

      <g>
        <circle r="9" fill="none" stroke="#ffe566" stroke-width="1.5">
          <animate attributeName="cx" values="60.0;62.72;65.45;68.17;70.89;73.62;76.34;79.06;81.79;84.51;87.23;89.96;92.68;95.4;98.12;100.85;103.57;106.29;109.02;111.74;114.46;117.19;119.91;122.63;125.36;128.08;130.8;133.53;136.25;138.97;141.7;144.42;147.14;149.87;152.59;155.31;158.04;160.76;163.48;166.21;168.93;171.65;174.38;177.1;179.82;182.54;185.27;187.99;190.71;193.44;196.16;198.88;201.61;204.33;207.05;209.78;212.5;215.22;217.95;220.67;223.39;226.12;228.84;231.56;234.29;237.01;239.73;242.46;245.18;247.9;250.62;253.35;256.07;258.79;261.52;264.24;266.96;269.69;272.41;275.13;277.86;280.58;283.3;286.03;288.75;291.47;294.2;296.92;299.64;302.37;305.09;307.81;310.54;313.26;315.98;318.71;321.43;324.15;326.88;329.6;332.32;335.04;337.77;340.49;343.21;345.94;348.66;351.38;354.11;356.83;359.55;362.28;365.0;367.72;370.45;373.17;375.89;378.62;381.34;384.06;386.79;389.51;392.23;394.96;397.68;400.4;403.12;405.85;408.57;411.29;414.02;416.74;419.46;422.19;424.91;427.63;430.36;433.08;435.8;438.53;441.25;443.97;446.7;449.42;452.14;454.87;457.59;460.31;463.04;465.76;468.48;471.21;473.93;476.65;479.37;482.1;484.82;487.54;490.27;492.99;495.71;498.44;501.16;503.88;506.61;509.33;512.05;514.78;517.5;520.22;522.95;525.67;528.39;531.12;533.84;536.56;539.29;542.01;544.73;547.46;550.18;552.9;555.62;558.35;561.07;563.79;566.52;569.24;571.96;574.69;577.41;580.13;582.86;585.58;588.3;591.03;593.75;596.47;599.2;601.92;604.64;607.37;610.09;612.81;615.54;618.26;620.98;623.71;626.43;629.15;631.87;634.6;637.32;640.04;642.77;645.49;648.21;650.94;653.66;656.38;659.11;661.83;664.55;667.28;670.0" dur="8s" repeatCount="indefinite" calcMode="linear"/>
          <animate attributeName="cy" values="334.17;322.98;303.14;277.09;247.44;216.18;185.04;155.58;129.23;107.26;90.67;80.12;75.83;77.6;84.82;96.63;112.0;129.81;148.96;168.36;186.99;203.91;218.33;229.63;237.4;241.45;241.82;238.82;234.53;228.07;219.86;210.7;201.22;191.91;183.18;175.42;168.96;163.97;160.52;158.71;158.51;159.73;162.23;165.74;169.96;174.64;179.47;184.2;188.61;192.43;195.56;197.99;199.69;200.72;201.25;201.6;202.16;199.57;189.58;176.02;162.73;151.53;143.28;138.33;136.65;138.04;142.08;148.32;156.14;164.93;174.08;183.08;191.35;198.47;204.16;208.15;210.26;210.54;209.12;206.19;202.04;196.94;191.23;185.33;179.58;174.26;169.66;166.07;163.51;162.12;161.87;162.68;164.47;167.01;170.14;173.63;177.2;180.71;183.92;186.69;188.91;190.41;191.21;191.35;190.8;189.67;188.06;186.11;183.92;181.69;179.54;177.52;175.8;174.47;173.52;173.01;172.94;173.23;173.91;174.86;176.05;177.39;178.74;180.07;181.29;182.3;183.11;183.66;183.9;183.9;183.66;183.19;182.57;181.81;180.94;180.07;179.22;178.44;177.74;177.15;176.7;176.46;176.34;176.35;176.5;176.7;176.97;177.26;177.52;177.69;177.73;177.71;177.84;178.16;178.77;179.65;180.7;181.9;183.16;184.36;185.39;186.24;186.79;187.07;187.05;186.69;186.03;185.16;184.09;182.9;181.66;180.42;179.25;178.28;177.44;176.83;176.31;175.32;173.73;171.68;169.43;167.25;165.4;164.08;163.42;163.9;164.79;166.17;168.0;170.22;172.7;175.31;177.92;180.4;182.64;184.53;186.0;187.02;187.56;187.63;187.27;186.53;185.49;184.21;182.8;181.34;179.91;178.59;177.44;176.52;175.85;175.46;175.34;175.48;175.85;176.42;177.14;177.96;178.82;179.68;180.49;181.21;181.81;182.26;182.55" dur="8s" repeatCount="indefinite" calcMode="linear"/>
          <animate attributeName="r" values="9;24;9" dur="2s" repeatCount="indefinite"/>
          <animate attributeName="opacity" values="0.8;0;0.8" dur="2s" repeatCount="indefinite"/>
        </circle>
        <circle r="5.5" fill="#ffe566">
          <animate attributeName="cx" values="60.0;62.72;65.45;68.17;70.89;73.62;76.34;79.06;81.79;84.51;87.23;89.96;92.68;95.4;98.12;100.85;103.57;106.29;109.02;111.74;114.46;117.19;119.91;122.63;125.36;128.08;130.8;133.53;136.25;138.97;141.7;144.42;147.14;149.87;152.59;155.31;158.04;160.76;163.48;166.21;168.93;171.65;174.38;177.1;179.82;182.54;185.27;187.99;190.71;193.44;196.16;198.88;201.61;204.33;207.05;209.78;212.5;215.22;217.95;220.67;223.39;226.12;228.84;231.56;234.29;237.01;239.73;242.46;245.18;247.9;250.62;253.35;256.07;258.79;261.52;264.24;266.96;269.69;272.41;275.13;277.86;280.58;283.3;286.03;288.75;291.47;294.2;296.92;299.64;302.37;305.09;307.81;310.54;313.26;315.98;318.71;321.43;324.15;326.88;329.6;332.32;335.04;337.77;340.49;343.21;345.94;348.66;351.38;354.11;356.83;359.55;362.28;365.0;367.72;370.45;373.17;375.89;378.62;381.34;384.06;386.79;389.51;392.23;394.96;397.68;400.4;403.12;405.85;408.57;411.29;414.02;416.74;419.46;422.19;424.91;427.63;430.36;433.08;435.8;438.53;441.25;443.97;446.7;449.42;452.14;454.87;457.59;460.31;463.04;465.76;468.48;471.21;473.93;476.65;479.37;482.1;484.82;487.54;490.27;492.99;495.71;498.44;501.16;503.88;506.61;509.33;512.05;514.78;517.5;520.22;522.95;525.67;528.39;531.12;533.84;536.56;539.29;542.01;544.73;547.46;550.18;552.9;555.62;558.35;561.07;563.79;566.52;569.24;571.96;574.69;577.41;580.13;582.86;585.58;588.3;591.03;593.75;596.47;599.2;601.92;604.64;607.37;610.09;612.81;615.54;618.26;620.98;623.71;626.43;629.15;631.87;634.6;637.32;640.04;642.77;645.49;648.21;650.94;653.66;656.38;659.11;661.83;664.55;667.28;670.0" dur="8s" repeatCount="indefinite" calcMode="linear"/>
          <animate attributeName="cy" values="334.17;322.98;303.14;277.09;247.44;216.18;185.04;155.58;129.23;107.26;90.67;80.12;75.83;77.6;84.82;96.63;112.0;129.81;148.96;168.36;186.99;203.91;218.33;229.63;237.4;241.45;241.82;238.82;234.53;228.07;219.86;210.7;201.22;191.91;183.18;175.42;168.96;163.97;160.52;158.71;158.51;159.73;162.23;165.74;169.96;174.64;179.47;184.2;188.61;192.43;195.56;197.99;199.69;200.72;201.25;201.6;202.16;199.57;189.58;176.02;162.73;151.53;143.28;138.33;136.65;138.04;142.08;148.32;156.14;164.93;174.08;183.08;191.35;198.47;204.16;208.15;210.26;210.54;209.12;206.19;202.04;196.94;191.23;185.33;179.58;174.26;169.66;166.07;163.51;162.12;161.87;162.68;164.47;167.01;170.14;173.63;177.2;180.71;183.92;186.69;188.91;190.41;191.21;191.35;190.8;189.67;188.06;186.11;183.92;181.69;179.54;177.52;175.8;174.47;173.52;173.01;172.94;173.23;173.91;174.86;176.05;177.39;178.74;180.07;181.29;182.3;183.11;183.66;183.9;183.9;183.66;183.19;182.57;181.81;180.94;180.07;179.22;178.44;177.74;177.15;176.7;176.46;176.34;176.35;176.5;176.7;176.97;177.26;177.52;177.69;177.73;177.71;177.84;178.16;178.77;179.65;180.7;181.9;183.16;184.36;185.39;186.24;186.79;187.07;187.05;186.69;186.03;185.16;184.09;182.9;181.66;180.42;179.25;178.28;177.44;176.83;176.31;175.32;173.73;171.68;169.43;167.25;165.4;164.08;163.42;163.9;164.79;166.17;168.0;170.22;172.7;175.31;177.92;180.4;182.64;184.53;186.0;187.02;187.56;187.63;187.27;186.53;185.49;184.21;182.8;181.34;179.91;178.59;177.44;176.52;175.85;175.46;175.34;175.48;175.85;176.42;177.14;177.96;178.82;179.68;180.49;181.21;181.81;182.26;182.55" dur="8s" repeatCount="indefinite" calcMode="linear"/>
        </circle>
        <circle r="2" fill="white">
          <animate attributeName="cx" values="60.0;62.72;65.45;68.17;70.89;73.62;76.34;79.06;81.79;84.51;87.23;89.96;92.68;95.4;98.12;100.85;103.57;106.29;109.02;111.74;114.46;117.19;119.91;122.63;125.36;128.08;130.8;133.53;136.25;138.97;141.7;144.42;147.14;149.87;152.59;155.31;158.04;160.76;163.48;166.21;168.93;171.65;174.38;177.1;179.82;182.54;185.27;187.99;190.71;193.44;196.16;198.88;201.61;204.33;207.05;209.78;212.5;215.22;217.95;220.67;223.39;226.12;228.84;231.56;234.29;237.01;239.73;242.46;245.18;247.9;250.62;253.35;256.07;258.79;261.52;264.24;266.96;269.69;272.41;275.13;277.86;280.58;283.3;286.03;288.75;291.47;294.2;296.92;299.64;302.37;305.09;307.81;310.54;313.26;315.98;318.71;321.43;324.15;326.88;329.6;332.32;335.04;337.77;340.49;343.21;345.94;348.66;351.38;354.11;356.83;359.55;362.28;365.0;367.72;370.45;373.17;375.89;378.62;381.34;384.06;386.79;389.51;392.23;394.96;397.68;400.4;403.12;405.85;408.57;411.29;414.02;416.74;419.46;422.19;424.91;427.63;430.36;433.08;435.8;438.53;441.25;443.97;446.7;449.42;452.14;454.87;457.59;460.31;463.04;465.76;468.48;471.21;473.93;476.65;479.37;482.1;484.82;487.54;490.27;492.99;495.71;498.44;501.16;503.88;506.61;509.33;512.05;514.78;517.5;520.22;522.95;525.67;528.39;531.12;533.84;536.56;539.29;542.01;544.73;547.46;550.18;552.9;555.62;558.35;561.07;563.79;566.52;569.24;571.96;574.69;577.41;580.13;582.86;585.58;588.3;591.03;593.75;596.47;599.2;601.92;604.64;607.37;610.09;612.81;615.54;618.26;620.98;623.71;626.43;629.15;631.87;634.6;637.32;640.04;642.77;645.49;648.21;650.94;653.66;656.38;659.11;661.83;664.55;667.28;670.0" dur="8s" repeatCount="indefinite" calcMode="linear"/>
          <animate attributeName="cy" values="334.17;322.98;303.14;277.09;247.44;216.18;185.04;155.58;129.23;107.26;90.67;80.12;75.83;77.6;84.82;96.63;112.0;129.81;148.96;168.36;186.99;203.91;218.33;229.63;237.4;241.45;241.82;238.82;234.53;228.07;219.86;210.7;201.22;191.91;183.18;175.42;168.96;163.97;160.52;158.71;158.51;159.73;162.23;165.74;169.96;174.64;179.47;184.2;188.61;192.43;195.56;197.99;199.69;200.72;201.25;201.6;202.16;199.57;189.58;176.02;162.73;151.53;143.28;138.33;136.65;138.04;142.08;148.32;156.14;164.93;174.08;183.08;191.35;198.47;204.16;208.15;210.26;210.54;209.12;206.19;202.04;196.94;191.23;185.33;179.58;174.26;169.66;166.07;163.51;162.12;161.87;162.68;164.47;167.01;170.14;173.63;177.2;180.71;183.92;186.69;188.91;190.41;191.21;191.35;190.8;189.67;188.06;186.11;183.92;181.69;179.54;177.52;175.8;174.47;173.52;173.01;172.94;173.23;173.91;174.86;176.05;177.39;178.74;180.07;181.29;182.3;183.11;183.66;183.9;183.9;183.66;183.19;182.57;181.81;180.94;180.07;179.22;178.44;177.74;177.15;176.7;176.46;176.34;176.35;176.5;176.7;176.97;177.26;177.52;177.69;177.73;177.71;177.84;178.16;178.77;179.65;180.7;181.9;183.16;184.36;185.39;186.24;186.79;187.07;187.05;186.69;186.03;185.16;184.09;182.9;181.66;180.42;179.25;178.28;177.44;176.83;176.31;175.32;173.73;171.68;169.43;167.25;165.4;164.08;163.42;163.9;164.79;166.17;168.0;170.22;172.7;175.31;177.92;180.4;182.64;184.53;186.0;187.02;187.56;187.63;187.27;186.53;185.49;184.21;182.8;181.34;179.91;178.59;177.44;176.52;175.85;175.46;175.34;175.48;175.85;176.42;177.14;177.96;178.82;179.68;180.49;181.21;181.81;182.26;182.55" dur="8s" repeatCount="indefinite" calcMode="linear"/>
        </circle>
      </g>

      <g class="legend" transform="translate(195.0, 20)">
        <rect x="0" y="-14" width="310" height="28" rx="14" fill="rgba(20, 15, 35, 0.8)" stroke="rgba(0, 229, 204, 0.4)" stroke-width="1"/>
        <line x1="20" y1="0" x2="45" y2="0" stroke="rgba(255,255,255,0.4)" stroke-width="2" stroke-dasharray="4 3"/>
        <text x="55" y="4" font-size="11" font-weight="600" fill="rgba(255,255,255,0.7)" font-family="system-ui, sans-serif">Perfect Trajectory</text>
        <line x1="175" y1="-6" x2="175" y2="6" stroke="rgba(255,255,255,0.2)" stroke-width="1"/>
        <line x1="190" y1="0" x2="215" y2="0" stroke="url(#trail-grad-e)" stroke-width="3" stroke-linecap="round"/>
        <text x="225" y="4" font-size="11" font-weight="bold" fill="#ff00cc" font-family="system-ui, sans-serif">Error</text>
      </g>
    </svg>