<svg xmlns="http://www.w3.org/2000/svg" viewBox="0 0 700 600" width="100%" class="trajectory-svg">
      <defs>
        <linearGradient id="trail-grad-t" x1="83.0" y1="0" x2="598.9" y2="0" gradientUnits="userSpaceOnUse">
          <stop offset="0%" stop-color="#aa00ff"/><stop offset="100%" stop-color="#ff00cc"/>
        </linearGradient>
      </defs>

      <rect width="700" height="600" fill="#0d0a1a"/>
      <g class="grid"><line x1="60" y1="60" x2="60" y2="540" stroke="rgba(0,229,204,1)" stroke-width="0.5" opacity="0.06"/>
<line x1="156" y1="60" x2="156" y2="540" stroke="rgba(0,229,204,1)" stroke-width="0.5" opacity="0.06"/>
<line x1="253" y1="60" x2="253" y2="540" stroke="rgba(0,229,204,1)" stroke-width="0.5" opacity="0.06"/>
<line x1="350" y1="60" x2="350" y2="540" stroke="rgba(0,229,204,1)" stroke-width="0.5" opacity="0.06"/>
<line x1="446" y1="60" x2="446" y2="540" stroke="rgba(0,229,204,1)" stroke-width="0.5" opacity="0.06"/>
<line x1="543" y1="60" x2="543" y2="540" stroke="rgba(0,229,204,1)" stroke-width="0.5" opacity="0.06"/>
<line x1="640" y1="60" x2="640" y2="540" stroke="rgba(0,229,204,1)" stroke-width="0.5" opacity="0.06"/>
<line x1="60" y1="60" x2="640" y2="60" stroke="rgba(0,229,204,1)" stroke-width="0.5" opacity="0.18"/>
<line x1="60" y1="140" x2="640" y2="140" stroke="rgba(0,229,204,1)" stroke-width="0.5" opacity="0.18"/>
<line x1="60" y1="220" x2="640" y2="220" stroke="rgba(0,229,204,1)" stroke-width="0.5" opacity="0.18"/>
<line x1="60" y1="300" x2="640" y2="300" stroke="rgba(0,229,204,1)" stroke-width="0.5" opacity="0.18"/>
<line x1="60" y1="380" x2="640" y2="380" stroke="rgba(0,229,204,1)" stroke-width="0.5" opacity="0.18"/>
<line x1="60" y1="460" x2="640" y2="460" stroke="rgba(0,229,204,1)" stroke-width="0.5" opacity="0.18"/>
<line x1="60" y1="540" x2="640" y2="540" stroke="rgba(0,229,204,1)" stroke-width="0.5" opacity="0.18"/>
</g>
      <rect x="60" y="60" width="580" height="480" fill="none" stroke="rgba(0,229,204,0.15)" stroke-width="0.75" rx="4"/>

      <path d="M 533.88,491.49 L 533.88,489.07 L 533.88,486.64 L 533.88,484.21 L 533.88,481.78 L 533.88,479.35 L 533.88,476.92 L 533.88,474.49 L 533.88,472.06 L 533.88,469.63 L 533.88,467.21 L 533.88,464.78 L 533.88,462.35 L 533.88,459.92 L 533.88,457.49 L 533.88,455.06 L 533.88,452.63 L 533.88,450.2 L 533.88,447.77 L 533.88,445.35 L 533.88,442.92 L 533.88,440.49 L 533.88,438.06 L 533.88,435.63 L 533.88,433.2 L 533.88,430.77 L 533.88,428.34 L 533.88,425.91 L 533.88,423.49 L 533.88,421.06 L 533.88,418.63 L 533.88,416.2 L 533.88,413.77 L 533.88,411.34 L 533.88,408.91 L 533.88,406.48 L 533.88,404.05 L 533.88,401.63 L 533.88,399.2 L 533.88,396.77 L 533.88,394.34 L 533.88,391.91 L 533.88,389.48 L 533.88,387.05 L 533.88,384.62 L 533.88,382.19 L 533.88,379.77 L 533.88,377.34 L 533.88,374.91 L 533.88,372.48 L 533.88,370.05 L 533.88,367.62 L 533.88,365.19 L 533.88,362.76 L 533.88,360.34 L 533.88,357.91 L 533.88,355.48 L 533.88,353.05 L 533.88,350.62 L 533.88,348.19 L 533.88,345.76 L 533.88,343.33 L 533.88,340.9 L 533.88,338.48 L 533.88,336.05 L 533.88,333.62 L 533.88,331.19 L 533.88,328.76 L 533.88,326.33 L 533.88,323.9 L 533.88,321.47 L 533.88,319.04 L 533.88,316.62 L 533.88,314.19 L 533.88,311.76 L 533.88,309.33 L 533.88,306.9 L 533.88,304.47 L 533.88,302.04 L 533.88,299.61 L 533.88,297.18 L 533.88,294.76 L 533.88,292.33 L 533.88,289.9 L 533.88,287.47 L 533.88,285.04 L 533.85,282.61 L 533.8,280.18 L 533.72,277.76 L 533.62,275.33 L 533.49,272.9 L 533.33,270.48 L 533.15,268.06 L 532.94,265.64 L 532.71,263.22 L 532.44,260.81 L 532.16,258.39 L 531.85,255.98 L 531.51,253.58 L 531.15,251.18 L 530.76,248.78 L 530.34,246.39 L 529.9,244.0 L 529.43,241.61 L 528.94,239.24 L 528.42,236.86 L 527.88,234.5 L 527.31,232.13 L 526.72,229.78 L 526.1,227.43 L 525.46,225.09 L 524.79,222.75 L 524.09,220.43 L 523.37,218.11 L 522.63,215.79 L 521.86,213.49 L 521.07,211.19 L 520.25,208.91 L 519.41,206.63 L 518.54,204.36 L 517.65,202.1 L 516.73,199.85 L 515.79,197.61 L 514.83,195.38 L 513.84,193.16 L 512.83,190.95 L 511.8,188.76 L 510.74,186.57 L 509.66,184.4 L 508.55,182.23 L 507.42,180.08 L 506.27,177.94 L 505.1,175.82 L 503.9,173.7 L 502.68,171.6 L 501.44,169.52 L 500.17,167.44 L 498.89,165.38 L 497.58,163.34 L 496.25,161.3 L 494.9,159.29 L 493.52,157.28 L 492.13,155.3 L 490.71,153.32 L 489.27,151.36 L 487.82,149.42 L 486.34,147.5 L 484.84,145.59 L 483.32,143.69 L 481.78,141.81 L 480.21,139.95 L 478.63,138.11 L 477.03,136.28 L 475.41,134.47 L 473.78,132.68 L 472.12,130.9 L 470.44,129.15 L 468.74,127.41 L 467.03,125.69 L 465.3,123.99 L 463.55,122.3 L 461.78,120.64 L 459.99,118.99 L 458.19,117.37 L 456.36,115.76 L 454.52,114.17 L 452.67,112.61 L 450.8,111.06 L 448.91,109.53 L 447.0,108.03 L 445.08,106.54 L 443.14,105.07 L 441.19,103.63 L 439.22,102.21 L 437.24,100.8 L 435.24,99.42 L 433.23,98.06 L 431.2,96.73 L 429.16,95.41 L 427.1,94.12 L 425.03,92.85 L 422.95,91.6 L 420.85,90.37 L 418.75,89.17 L 416.62,87.98 L 414.49,86.83 L 412.34,85.69 L 410.18,84.58 L 408.01,83.49 L 405.83,82.42 L 403.64,81.38 L 401.43,80.36 L 399.21,79.37 L 396.99,78.39 L 394.75,77.45 L 392.51,76.52 L 390.25,75.63 L 387.98,74.75 L 385.71,73.9 L 383.42,73.07 L 381.13,72.27 L 378.83,71.5 L 376.52,70.74 L 374.2,70.02 L 371.88,69.31 L 369.55,68.64 L 367.21,67.99 L 364.86,67.36 L 362.51,66.76 L 360.15,66.18 L 357.78,65.63 L 355.41,65.1 L 353.03,64.6 L 350.65,64.13 L 348.26,63.68 L 345.87,63.26 L 343.48,62.86 L 341.08,62.49 L 338.67,62.14 L 336.26,61.82 L 333.85,61.52 L 331.44,61.26 L 329.02,61.01 L 326.6,60.8 L 324.18,60.61 L 321.76,60.44 L 319.33,60.3 L 316.91,60.19 L 314.48,60.1 L 312.05,60.04 L 309.62,60.01 L 307.19,60.0 L 304.77,60.02 L 302.34,60.06 L 299.91,60.13 L 297.48,60.23 L 295.06,60.35 L 292.63,60.5 L 290.21,60.67 L 287.79,60.87 L 285.37,61.1 L 282.95,61.35 L 280.54,61.63 L 278.13,61.93 L 275.73,62.26 L 273.32,62.62 L 270.92,63.0 L 268.53,63.4 L 266.14,63.84 L 263.75,64.29 L 261.37,64.78 L 259.0,65.29 L 256.63,65.82 L 254.27,66.38 L 251.91,66.97 L 249.56,67.58 L 247.21,68.21 L 244.88,68.88 L 242.55,69.56 L 240.22,70.27 L 237.91,71.01 L 235.6,71.77 L 233.3,72.55 L 231.02,73.36 L 228.73,74.2 L 226.46,75.06 L 224.2,75.94 L 221.95,76.85 L 219.7,77.78 L 217.47,78.74 L 215.25,79.72 L 213.04,80.72 L 210.84,81.75 L 208.65,82.8 L 206.47,83.87 L 204.3,84.97 L 202.15,86.09 L 200.0,87.24 L 197.87,88.4 L 195.76,89.59 L 193.65,90.8 L 191.56,92.04 L 189.48,93.3 L 187.42,94.58 L 185.37,95.88 L 183.33,97.2 L 181.31,98.55 L 179.3,99.91 L 177.31,101.3 L 175.33,102.71 L 173.37,104.14 L 171.42,105.59 L 169.49,107.07 L 167.57,108.56 L 165.67,110.07 L 163.79,111.61 L 161.92,113.16 L 160.07,114.73 L 158.24,116.33 L 156.42,117.94 L 154.63,119.57 L 152.84,121.23 L 151.08,122.9 L 149.34,124.59 L 147.61,126.3 L 145.9,128.02 L 144.21,129.77 L 142.54,131.53 L 140.89,133.31 L 139.26,135.11 L 137.65,136.93 L 136.05,138.76 L 134.48,140.61 L 132.93,142.48 L 131.39,144.36 L 129.88,146.26 L 128.39,148.18 L 126.92,150.11 L 125.46,152.06 L 124.03,154.02 L 122.63,156.0 L 121.24,157.99 L 119.87,160.0 L 118.53,162.02 L 117.2,164.06 L 115.9,166.11 L 114.63,168.18 L 113.37,170.26 L 112.14,172.35 L 110.92,174.45 L 109.73,176.57 L 108.57,178.7 L 107.43,180.85 L 106.31,183.0 L 105.21,185.17 L 104.14,187.35 L 103.09,189.54 L 102.06,191.74 L 101.06,193.95 L 100.08,196.17 L 99.12,198.41 L 98.19,200.65 L 97.28,202.9 L 96.4,205.17 L 95.54,207.44 L 94.71,209.72 L 93.9,212.01 L 93.12,214.31 L 92.36,216.61 L 91.62,218.93 L 90.91,221.25 L 90.22,223.58 L 89.56,225.92 L 88.93,228.26 L 88.32,230.62 L 87.73,232.97 L 87.18,235.34 L 86.64,237.71 L 86.13,240.08 L 85.65,242.46 L 85.19,244.85 L 84.76,247.24 L 84.35,249.63 L 83.97,252.03 L 83.62,254.43 L 83.29,256.84 L 82.99,259.25 L 82.71,261.66 L 82.46,264.08 L 82.24,266.5 L 82.04,268.92 L 81.86,271.34 L 81.72,273.77 L 81.6,276.19 L 81.5,278.62 L 81.43,281.05 L 81.39,283.47 L 81.37,285.9 L 81.38,288.33 L 81.42,290.76 L 81.48,293.19 L 81.56,295.62 L 81.68,298.04 L 81.82,300.47 L 81.98,302.89 L 82.18,305.31 L 82.39,307.73 L 82.64,310.15 L 82.91,312.56 L 83.2,314.97 L 83.52,317.38 L 83.87,319.78 L 84.24,322.18 L 84.64,324.58 L 85.06,326.97 L 85.51,329.36 L 85.99,331.74 L 86.49,334.12 L 87.02,336.49 L 87.57,338.85 L 88.15,341.21 L 88.75,343.57 L 89.38,345.91 L 90.03,348.25 L 90.71,350.58 L 91.41,352.91 L 92.14,355.23 L 92.89,357.53 L 93.67,359.84 L 94.47,362.13 L 95.3,364.41 L 96.15,366.69 L 97.03,368.95 L 97.93,371.21 L 98.85,373.45 L 99.8,375.69 L 100.77,377.92 L 101.77,380.13 L 102.79,382.34 L 103.83,384.53 L 104.9,386.71 L 105.99,388.88 L 107.1,391.04 L 108.24,393.19 L 109.4,395.32 L 110.58,397.44 L 111.78,399.55 L 113.01,401.65 L 114.26,403.73 L 115.53,405.8 L 116.83,407.86 L 118.14,409.9 L 119.48,411.92 L 120.84,413.94 L 122.22,415.93 L 123.63,417.92 L 125.05,419.88 L 126.49,421.84 L 127.96,423.77 L 129.45,425.69 L 130.95,427.6 L 132.48,429.49 L 134.03,431.36 L 135.6,433.21 L 137.18,435.05 L 138.79,436.87 L 140.42,438.68 L 142.06,440.46 L 143.73,442.23 L 145.41,443.98 L 147.12,445.71 L 148.84,447.43 L 150.58,449.12 L 152.33,450.8 L 154.11,452.46 L 155.9,454.1 L 157.71,455.72 L 159.54,457.32 L 161.38,458.89 L 163.25,460.45 L 165.12,461.99 L 167.02,463.51 L 168.93,465.01 L 170.86,466.49 L 172.8,467.95 L 174.76,469.39 L 176.73,470.8 L 178.72,472.2 L 180.72,473.57 L 182.74,474.92 L 184.77,476.25 L 186.82,477.56 L 188.88,478.85 L 190.96,480.11 L 193.04,481.35 L 195.15,482.57 L 197.26,483.76 L 199.39,484.94 L 201.52,486.09 L 203.68,487.22 L 205.84,488.32 L 208.01,489.4 L 210.2,490.46 L 212.4,491.49 L 214.61,492.5 L 216.83,493.49 L 219.06,494.45 L 221.3,495.39 L 223.55,496.31 L 225.81,497.2 L 228.08,498.06 L 230.35,498.91 L 232.64,499.72 L 234.94,500.52 L 237.24,501.28 L 239.55,502.03 L 241.87,502.74 L 244.2,503.44 L 246.54,504.11 L 248.88,504.75 L 251.23,505.37 L 253.58,505.96 L 255.95,506.53 L 258.31,507.07 L 260.69,507.59 L 263.07,508.08 L 265.45,508.54 L 267.84,508.98 L 270.23,509.4 L 272.63,509.79 L 275.03,510.15 L 277.44,510.49 L 279.84,510.8 L 282.26,511.08 L 284.67,511.34 L 287.09,511.58 L 289.51,511.78 L 291.93,511.99 L 294.35,512.2 L 296.77,512.41 L 299.19,512.61 L 301.61,512.82 L 304.03,513.03 L 306.45,513.24 L 308.87,513.44 L 311.29,513.65 L 313.71,513.86 L 316.13,514.07 L 318.55,514.27 L 320.97,514.48 L 323.39,514.69 L 325.81,514.89 L 328.23,515.1 L 330.65,515.31 L 333.07,515.52 L 335.49,515.72 L 337.91,515.93 L 340.33,516.14 L 342.75,516.35 L 345.17,516.55 L 347.59,516.76 L 350.01,516.97 L 352.43,517.18 L 354.85,517.38 L 357.27,517.59 L 359.69,517.8 L 362.11,518.01 L 364.53,518.21 L 366.95,518.42 L 369.37,518.63 L 371.79,518.84 L 374.21,519.04 L 376.63,519.25 L 379.05,519.46 L 381.47,519.67 L 383.89,519.87 L 386.31,520.08 L 388.73,520.29 L 391.15,520.5 L 393.57,520.7 L 395.99,520.91 L 398.41,521.12 L 400.83,521.33 L 403.25,521.53 L 405.67,521.74 L 408.09,521.95 L 410.51,522.16 L 412.93,522.36 L 415.35,522.57 L 417.77,522.78 L 420.19,522.99 L 422.61,523.19 L 425.03,523.4 L 427.45,523.61 L 429.87,523.82 L 432.29,524.02 L 434.71,524.23 L 437.13,524.44 L 439.55,524.65 L 441.97,524.85 L 444.39,525.06 L 446.81,525.27 L 449.23,525.48 L 451.65,525.68 L 454.07,525.89 L 456.49,526.1 L 458.91,526.31 L 461.33,526.51 L 463.75,526.72 L 466.17,526.93 L 468.59,527.14 L 471.01,527.34 L 473.43,527.55 L 475.85,527.76 L 478.27,527.97 L 480.69,528.17 L 483.11,528.38 L 485.53,528.59 L 487.95,528.8 L 490.37,529.0 L 492.79,529.21 L 495.21,529.42 L 497.63,529.63 L 500.05,529.83 L 502.47,530.04 L 504.89,530.25 L 507.31,530.46 L 509.73,530.66 L 512.15,530.87 L 514.57,531.08 L 516.99,531.29 L 519.41,531.49 L 521.83,531.7 L 524.25,531.91 L 526.67,532.12 L 529.09,532.32 L 531.51,532.53 L 533.93,532.74 L 536.35,532.95 L 538.77,533.15 L 541.19,533.36 L 543.61,533.57 L 546.03,533.78 L 548.45,533.98 L 550.87,534.19 L 553.29,534.4 L 555.71,534.61 L 558.13,534.81 L 560.55,535.02 L 562.97,535.23 L 565.39,535.44 L 567.81,535.64 L 570.23,535.85 L 572.65,536.06 L 575.07,536.27 L 577.49,536.47 L 579.91,536.68 L 582.33,536.89 L 584.75,537.1 L 587.17,537.3 L 589.59,537.51 L 592.01,537.72 L 594.43,537.93 L 596.85,538.13 L 599.27,538.34 L 601.69,538.55 L 604.11,538.76 L 606.53,538.96 L 608.95,539.17 L 611.37,539.38 L 613.79,539.59 L 616.21,539.79 L 618.63,540.0" fill="none" stroke="rgba(255,255,255,0.38)" stroke-width="1.3" stroke-dasharray="8 5"/>

      <path d="M 542.62,500.24 L 542.26,493.25 L 541.33,486.32 L 539.93,479.47 L 538.22,472.69 L 536.34,465.95 L 534.4,459.23 L 532.51,452.49 L 530.79,445.72 L 529.3,438.88 L 528.14,431.98 L 527.36,425.03 L 526.99,418.05 L 527.05,411.05 L 527.49,404.07 L 528.27,397.12 L 529.33,390.21 L 530.58,383.33 L 531.95,376.47 L 533.35,369.61 L 534.7,362.75 L 535.95,355.87 L 537.01,348.95 L 537.84,342.01 L 538.4,335.04 L 538.68,328.05 L 538.66,321.05 L 538.36,314.06 L 537.82,307.09 L 537.07,300.13 L 536.14,293.2 L 535.05,286.29 L 533.81,279.41 L 532.47,272.54 L 531.02,265.7 L 529.51,258.87 L 527.94,252.05 L 526.33,245.25 L 524.67,238.45 L 522.97,231.67 L 521.21,224.9 L 519.37,218.15 L 517.43,211.43 L 515.36,204.74 L 513.14,198.11 L 510.73,191.54 L 508.12,185.05 L 505.28,178.66 L 502.19,172.39 L 498.84,166.25 L 495.22,160.26 L 491.35,154.43 L 487.22,148.79 L 482.86,143.32 L 478.27,138.04 L 473.49,132.93 L 468.54,127.99 L 463.35,123.3 L 457.81,119.04 L 452.01,115.13 L 446.07,111.44 L 440.06,107.85 L 434.03,104.31 L 427.99,100.78 L 421.96,97.24 L 415.93,93.7 L 409.89,90.17 L 403.83,86.67 L 397.73,83.24 L 391.58,79.92 L 385.35,76.74 L 379.03,73.74 L 372.6,70.98 L 366.07,68.48 L 359.43,66.28 L 352.69,64.41 L 345.87,62.88 L 338.97,61.71 L 332.02,60.89 L 325.04,60.43 L 318.05,60.3 L 311.06,60.49 L 304.08,60.97 L 297.12,61.7 L 290.19,62.66 L 283.29,63.81 L 276.43,65.13 L 269.58,66.59 L 262.77,68.17 L 255.98,69.87 L 249.23,71.67 L 242.5,73.58 L 235.8,75.61 L 229.15,77.76 L 222.54,80.06 L 215.99,82.51 L 209.51,85.15 L 203.11,87.98 L 196.81,91.02 L 190.63,94.29 L 184.58,97.8 L 178.67,101.54 L 172.93,105.53 L 167.35,109.76 L 161.96,114.21 L 156.76,118.89 L 151.74,123.77 L 146.92,128.83 L 142.28,134.07 L 137.82,139.46 L 133.54,144.98 L 129.42,150.64 L 125.45,156.4 L 121.64,162.27 L 117.97,168.22 L 114.45,174.27 L 111.07,180.39 L 107.83,186.59 L 104.75,192.87 L 101.82,199.22 L 99.06,205.65 L 96.48,212.15 L 94.09,218.72 L 91.91,225.37 L 89.94,232.08 L 88.2,238.86 L 86.7,245.69 L 85.45,252.57 L 84.45,259.49 L 83.7,266.45 L 83.21,273.43 L 82.97,280.42 L 82.98,287.41 L 83.23,294.4 L 83.72,301.38 L 84.43,308.34 L 85.36,315.27 L 86.51,322.17 L 87.85,329.04 L 89.39,335.86 L 91.12,342.64 L 93.04,349.36 L 95.14,356.04 L 97.42,362.65 L 99.88,369.19 L 102.53,375.67 L 105.37,382.06 L 108.39,388.37 L 111.61,394.58 L 115.02,400.69 L 118.63,406.68 L 122.43,412.55 L 126.42,418.3 L 130.59,423.92 L 134.93,429.4 L 139.43,434.75 L 144.11,439.96 L 148.94,445.01 L 153.94,449.91 L 159.09,454.64 L 164.39,459.2 L 169.84,463.58 L 175.43,467.79 L 181.16,471.8 L 187.02,475.62 L 193.0,479.25 L 199.1,482.68 L 205.3,485.91 L 211.6,488.95 L 218.0,491.78 L 224.48,494.42 L 231.03,496.86 L 237.66,499.1 L 244.35,501.14 L 251.1,502.99 L 257.89,504.63 L 264.74,506.08 L 271.62,507.33 L 278.53,508.42 L 285.46,509.36 L 292.41,510.19 L 299.36,510.95 L 306.32,511.65 L 313.28,512.34 L 320.25,513.01 L 327.21,513.69 L 334.17,514.38 L 341.13,515.09 L 348.08,515.83 L 355.04,516.58 L 361.99,517.35 L 368.94,518.13 L 375.89,518.91 L 382.85,519.69 L 389.8,520.45 L 396.75,521.19 L 403.71,521.91 L 410.67,522.59 L 417.64,523.25 L 424.61,523.86 L 431.58,524.45 L 438.55,525.01 L 445.52,525.54 L 452.5,526.05 L 459.48,526.55 L 466.46,527.05 L 473.43,527.54 L 480.41,528.04 L 487.39,528.55 L 494.36,529.08 L 501.34,529.62 L 508.31,530.19 L 515.28,530.78 L 522.25,531.38 L 529.22,532.01 L 536.18,532.66 L 543.14,533.32 L 550.11,533.98 L 557.07,534.66 L 564.03,535.33 L 571.0,535.99 L 577.96,536.65 L 584.93,537.3 L 591.89,537.93 L 598.86,538.55" fill="none" stroke="url(#trail-grad-t)" stroke-width="2.5" stroke-linecap="round" stroke-linejoin="round"
            stroke-dasharray="1566.85" stroke-dashoffset="1566.85">
        <animate attributeName="stroke-dashoffset" values="1566.85;1559.85;1552.86;1545.87;1538.88;1531.88;1524.89;1517.89;1510.9;1503.9;1496.9;1489.91;1482.92;1475.92;1468.93;1461.93;1454.94;1447.95;1440.95;1433.95;1426.96;1419.97;1412.97;1405.98;1398.99;1391.99;1384.99;1377.99;1371.0;1364.0;1357.01;1350.01;1343.02;1336.02;1329.03;1322.04;1315.04;1308.05;1301.05;1294.06;1287.07;1280.07;1273.08;1266.07;1259.08;1252.08;1245.09;1238.09;1231.1;1224.11;1217.11;1210.11;1203.12;1196.13;1189.13;1182.13;1175.14;1168.15;1161.16;1154.16;1147.17;1140.17;1133.18;1126.18;1119.19;1112.2;1105.2;1098.2;1091.2;1084.22;1077.22;1070.23;1063.23;1056.24;1049.24;1042.25;1035.26;1028.26;1021.26;1014.26;1007.27;1000.28;993.28;986.29;979.29;972.29;965.31;958.31;951.31;944.31;937.33;930.33;923.33;916.34;909.34;902.35;895.35;888.36;881.36;874.37;867.38;860.38;853.39;846.39;839.4;832.4;825.4;818.41;811.41;804.42;797.43;790.43;783.44;776.44;769.45;762.45;755.46;748.46;741.47;734.47;727.48;720.48;713.49;706.49;699.5;692.5;685.51;678.52;671.52;664.52;657.53;650.53;643.54;636.55;629.55;622.55;615.56;608.57;601.57;594.58;587.58;580.59;573.59;566.6;559.61;552.61;545.61;538.62;531.62;524.63;517.63;510.64;503.64;496.64;489.65;482.66;475.66;468.67;461.67;454.68;447.69;440.69;433.7;426.7;419.71;412.71;405.71;398.72;391.73;384.73;377.73;370.74;363.74;356.75;349.75;342.77;335.76;328.77;321.78;314.78;307.78;300.79;293.8;286.8;279.8;272.81;265.81;258.82;251.83;244.83;237.84;230.84;223.85;216.84;209.85;202.86;195.87;188.87;181.87;174.88;167.88;160.89;153.9;146.9;139.9;132.9;125.92;118.92;111.92;104.93;97.93;90.94;83.94;76.95;69.95;62.96;55.97;48.96;41.97;34.98;27.98;20.99;13.99;7.0;0.0" dur="8s" repeatCount="indefinite" calcMode="linear"/>
      </path>

      <g>
        <circle r="9" fill="none" stroke="#ffe566" stroke-width="1.5">
          <animate attributeName="cx" values="542.62;542.26;541.33;539.93;538.22;536.34;534.4;532.51;530.79;529.3;528.14;527.36;526.99;527.05;527.49;528.27;529.33;530.58;531.95;533.35;534.7;535.95;537.01;537.84;538.4;538.68;538.66;538.36;537.82;537.07;536.14;535.05;533.81;532.47;531.02;529.51;527.94;526.33;524.67;522.97;521.21;519.37;517.43;515.36;513.14;510.73;508.12;505.28;502.19;498.84;495.22;491.35;487.22;482.86;478.27;473.49;468.54;463.35;457.81;452.01;446.07;440.06;434.03;427.99;421.96;415.93;409.89;403.83;397.73;391.58;385.35;379.03;372.6;366.07;359.43;352.69;345.87;338.97;332.02;325.04;318.05;311.06;304.08;297.12;290.19;283.29;276.43;269.58;262.77;255.98;249.23;242.5;235.8;229.15;222.54;215.99;209.51;203.11;196.81;190.63;184.58;178.67;172.93;167.35;161.96;156.76;151.74;146.92;142.28;137.82;133.54;129.42;125.45;121.64;117.97;114.45;111.07;107.83;104.75;101.82;99.06;96.48;94.09;91.91;89.94;88.2;86.7;85.45;84.45;83.7;83.21;82.97;82.98;83.23;83.72;84.43;85.36;86.51;87.85;89.39;91.12;93.04;95.14;97.42;99.88;102.53;105.37;108.39;111.61;115.02;118.63;122.43;126.42;130.59;134.93;139.43;144.11;148.94;153.94;159.09;164.39;169.84;175.43;181.16;187.02;193.0;199.1;205.3;211.6;218.0;224.48;231.03;237.66;244.35;251.1;257.89;264.74;271.62;278.53;285.46;292.41;299.36;306.32;313.28;320.25;327.21;334.17;341.13;348.08;355.04;361.99;368.94;375.89;382.85;389.8;396.75;403.71;410.67;417.64;424.61;431.58;438.55;445.52;452.5;459.48;466.46;473.43;480.41;487.39;494.36;501.34;508.31;515.28;522.25;529.22;536.18;543.14;550.11;557.07;564.03;571.0;577.96;584.93;591.89;598.86" dur="8s" repeatCount="indefinite" calcMode="linear"/>
          <animate attributeName="cy" values="500.24;493.25;486.32;479.47;472.69;465.95;459.23;452.49;445.72;438.88;431.98;425.03;418.05;411.05;404.07;397.12;390.21;383.33;376.47;369.61;362.75;355.87;348.95;342.01;335.04;328.05;321.05;314.06;307.09;300.13;293.2;286.29;279.41;272.54;265.7;258.87;252.05;245.25;238.45;231.67;224.9;218.15;211.43;204.74;198.11;191.54;185.05;178.66;172.39;166.25;160.26;154.43;148.79;143.32;138.04;132.93;127.99;123.3;119.04;115.13;111.44;107.85;104.31;100.78;97.24;93.7;90.17;86.67;83.24;79.92;76.74;73.74;70.98;68.48;66.28;64.41;62.88;61.71;60.89;60.43;60.3;60.49;60.97;61.7;62.66;63.81;65.13;66.59;68.17;69.87;71.67;73.58;75.61;77.76;80.06;82.51;85.15;87.98;91.02;94.29;97.8;101.54;105.53;109.76;114.21;118.89;123.77;128.83;134.07;139.46;144.98;150.64;156.4;162.27;168.22;174.27;180.39;186.59;192.87;199.22;205.65;212.15;218.72;225.37;232.08;238.86;245.69;252.57;259.49;266.45;273.43;280.42;287.41;294.4;301.38;308.34;315.27;322.17;329.04;335.86;342.64;349.36;356.04;362.65;369.19;375.67;382.06;388.37;394.58;400.69;406.68;412.55;418.3;423.92;429.4;434.75;439.96;445.01;449.91;454.64;459.2;463.58;467.79;471.8;475.62;479.25;482.68;485.91;488.95;491.78;494.42;496.86;499.1;501.14;502.99;504.63;506.08;507.33;508.42;509.36;510.19;510.95;511.65;512.34;513.01;513.69;514.38;515.09;515.83;516.58;517.35;518.13;518.91;519.69;520.45;521.19;521.91;522.59;523.25;523.86;524.45;525.01;525.54;526.05;526.55;527.05;527.54;528.04;528.55;529.08;529.62;530.19;530.78;531.38;532.01;532.66;533.32;533.98;534.66;535.33;535.99;536.65;537.3;537.93;538.55" dur="8s" repeatCount="indefinite" calcMode="linear"/>
          <animate attributeName="r" values="9;24;9" dur="2s" repeatCount="indefinite"/>
          <animate attributeName="opacity" values="0.8;0;0.8" dur="2s" repeatCount="indefinite"/>
        </circle>
        <circle r="5.5" fill="#ffe566">
          <animate attributeName="cx" values="542.62;542.26;541.33;539.93;538.22;536.34;534.4;532.51;530.79;529.3;528.14;527.36;526.99;527.05;527.49;528.27;529.33;530.58;531.95;533.35;534.7;535.95;537.01;537.84;538.4;538.68;538.66;538.36;537.82;537.07;536.14;535.05;533.81;532.47;531.02;529.51;527.94;526.33;524.67;522.97;521.21;519.37;517.43;515.36;513.14;510.73;508.12;505.28;502.19;498.84;495.22;491.35;487.22;482.86;478.27;473.49;468.54;463.35;457.81;452.01;446.07;440.06;434.03;427.99;421.96;415.93;409.89;403.83;397.73;391.58;385.35;379.03;372.6;366.07;359.43;352.69;345.87;338.97;332.02;325.04;318.05;311.06;304.08;297.12;290.19;283.29;276.43;269.58;262.77;255.98;249.23;242.5;235.8;229.15;222.54;215.99;209.51;203.11;196.81;190.63;184.58;178.67;172.93;167.35;161.96;156.76;151.74;146.92;142.28;137.82;133.54;129.42;125.45;121.64;117.97;114.45;111.07;107.83;104.75;101.82;99.06;96.48;94.09;91.91;89.94;88.2;86.7;85.45;84.45;83.7;83.21;82.97;82.98;83.23;83.72;84.43;85.36;86.51;87.85;89.39;91.12;93.04;95.14;97.42;99.88;102.53;105.37;108.39;111.61;115.02;118.63;122.43;126.42;130.59;134.93;139.43;144.11;148.94;153.94;159.09;164.39;169.84;175.43;181.16;187.02;193.0;199.1;205.3;211.6;218.0;224.48;231.03;237.66;244.35;251.1;257.89;264.74;271.62;278.53;285.46;292.41;299.36;306.32;313.28;320.25;327.21;334.17;341.13;348.08;355.04;361.99;368.94;375.89;382.85;389.8;396.75;403.71;410.67;417.64;424.61;431.58;438.55;445.52;452.5;459.48;466.46;473.43;480.41;487.39;494.36;501.34;508.31;515.28;522.25;529.22;536.18;543.14;550.11;557.07;564.03;571.0;577.96;584.93;591.89;598.86" dur="8s" repeatCount="indefinite" calcMode="linear"/>
          <animate attributeName="cy" values="500.24;493.25;486.32;479.47;472.69;465.95;459.23;452.49;445.72;438.88;431.98;425.03;418.05;411.05;404.07;397.12;390.21;383.33;376.47;369.61;362.75;355.87;348.95;342.01;335.04;328.05;321.05;314.06;307.09;300.13;293.2;286.29;279.41;272.54;265.7;258.87;252.05;245.25;238.45;231.67;224.9;218.15;211.43;204.74;198.11;191.54;185.05;178.66;172.39;166.25;160.26;154.43;148.79;143.32;138.04;132.93;127.99;123.3;119.04;115.13;111.44;107.85;104.31;100.78;97.24;93.7;90.17;86.67;83.24;79.92;76.74;73.74;70.98;68.48;66.28;64.41;62.88;61.71;60.89;60.43;60.3;60.49;60.97;61.7;62.66;63.81;65.13;66.59;68.17;69.87;71.67;73.58;75.61;77.76;80.06;82.51;85.15;87.98;91.02;94.29;97.8;101.54;105.53;109.76;114.21;118.89;123.77;128.83;134.07;139.46;144.98;150.64;156.4;162.27;168.22;174.27;180.39;186.59;192.87;199.22;205.65;212.15;218.72;225.37;232.08;238.86;245.69;252.57;259.49;266.45;273.43;280.42;287.41;294.4;301.38;308.34;315.27;322.17;329.04;335.86;342.64;349.36;356.04;362.65;369.19;375.67;382.06;388.37;394.58;400.69;406.68;412.55;418.3;423.92;429.4;434.75;439.96;445.01;449.91;454.64;459.2;463.58;467.79;471.8;475.62;479.25;482.68;485.91;488.95;491.78;494.42;496.86;499.1;501.14;502.99;504.63;506.08;507.33;508.42;509.36;510.19;510.95;511.65;512.34;513.01;513.69;514.38;515.09;515.83;516.58;517.35;518.13;518.91;519.69;520.45;521.19;521.91;522.59;523.25;523.86;524.45;525.01;525.54;526.05;526.55;527.05;527.54;528.04;528.55;529.08;529.62;530.19;530.78;531.38;532.01;532.66;533.32;533.98;534.66;535.33;535.99;536.65;537.3;537.93;538.55" dur="8s" repeatCount="indefinite" calcMode="linear"/>
        </circle>
        <circle r="2" fill="white">
          <animate attributeName="cx" values="542.62;542.26;541.33;539.93;538.22;536.34;534.4;532.51;530.79;529.3;528.14;527.36;526.99;527.05;527.49;528.27;529.33;530.58;531.95;533.35;534.7;535.95;537.01;537.84;538.4;538.68;538.66;538.36;537.82;537.07;536.14;535.05;533.81;532.47;531.02;529.51;527.94;526.33;524.67;522.97;521.21;519.37;517.43;515.36;513.14;510.73;508.12;505.28;502.19;498.84;495.22;491.35;487.22;482.86;478.27;473.49;468.54;463.35;457.81;452.01;446.07;440.06;434.03;427.99;421.96;415.93;409.89;403.83;397.73;391.58;385.35;379.03;372.6;366.07;359.43;352.69;345.87;338.97;332.02;325.04;318.05;311.06;304.08;297.12;290.19;283.29;276.43;269.58;262.77;255.98;249.23;242.5;235.8;229.15;222.54;215.99;209.51;203.11;196.81;190.63;184.58;178.67;172.93;167.35;161.96;156.76;151.74;146.92;142.28;137.82;133.54;129.42;125.45;121.64;117.97;114.45;111.07;107.83;104.75;101.82;99.06;96.48;94.09;91.91;89.94;88.2;86.7;85.45;84.45;83.7;83.21;82.97;82.98;83.23;83.72;84.43;85.36;86.51;87.85;89.39;91.12;93.04;95.14;97.42;99.88;102.53;105.37;108.39;111.61;115.02;118.63;122.43;126.42;130.59;134.93;139.43;144.11;148.94;153.94;159.09;164.39;169.84;175.43;181.16;187.02;193.0;199.1;205.3;211.6;218.0;224.48;231.03;237.66;244.35;251.1;257.89;264.74;271.62;278.53;285.46;292.41;299.36;306.32;313.28;320.25;327.21;334.17;341.13;348.08;355.04;361.99;368.94;375.89;382.85;389.8;396.75;403.71;410.67;417.64;424.61;431.58;438.55;445.52;452.5;459.48;466.46;473.43;480.41;487.39;494.36;501.34;508.31;515.28;522.25;529.22;536.18;543.14;550.11;557.07;564.03;571.0;577.96;584.93;591.89;598.86" dur="8s" repeatCount="indefinite" calcMode="linear"/>
          <animate attributeName="cy" values="500.24;493.25;486.32;479.47;472.69;465.95;459.23;452.49;445.72;438.88;431.98;425.03;418.05;411.05;404.07;397.12;390.21;383.33;376.47;369.61;362.75;355.87;348.95;342.01;335.04;328.05;321.05;314.06;307.09;300.13;293.2;286.29;279.41;272.54;265.7;258.87;252.05;245.25;238.45;231.67;224.9;218.15;211.43;204.74;198.11;191.54;185.05;178.66;172.39;166.25;160.26;154.43;148.79;143.32;138.04;132.93;127.99;123.3;119.04;115.13;111.44;107.85;104.31;100.78;97.24;93.7;90.17;86.67;83.24;79.92;76.74;73.74;70.98;68.48;66.28;64.41;62.88;61.71;60.89;60.43;60.3;60.49;60.97;61.7;62.66;63.81;65.13;66.59;68.17;69.87;71.67;73.58;75.61;77.76;80.06;82.51;85.15;87.98;91.02;94.29;97.8;101.54;105.53;109.76;114.21;118.89;123.77;128.83;134.07;139.46;144.98;150.64;156.4;162.27;168.22;174.27;180.39;186.59;192.87;199.22;205.65;212.15;218.72;225.37;232.08;238.86;245.69;252.57;259.49;266.45;273.43;280.42;287.41;294.4;301.38;308.34;315.27;322.17;329.04;335.86;342.64;349.36;356.04;362.65;369.19;375.67;382.06;388.37;394.58;400.69;406.68;412.55;418.3;423.92;429.4;434.75;439.96;445.01;449.91;454.64;459.2;463.58;467.79;471.8;475.62;479.25;482.68;485.91;488.95;491.78;494.42;496.86;499.1;501.14;502.99;504.63;506.08;507.33;508.42;509.36;510.19;510.95;511.65;512.34;513.01;513.69;514.38;515.09;515.83;516.58;517.35;518.13;518.91;519.69;520.45;521.19;521.91;522.59;523.25;523.86;524.45;525.01;525.54;526.05;526.55;527.05;527.54;528.04;528.55;529.08;529.62;530.19;530.78;531.38;532.01;532.66;533.32;533.98;534.66;535.33;535.99;536.65;537.3;537.93;538.55" dur="8s" repeatCount="indefinite" calcMode="linear"/>
        </circle>
      </g>

      <g class="legend" transform="translate(195.0, 570)">
        <rect x="0" y="-14" width="310" height="28" rx="14" fill="rgba(20, 15, 35, 0.8)" stroke="rgba(0, 229, 204, 0.4)" stroke-width="1"/>
        <line x1="20" y1="0" x2="45" y2="0" stroke="rgba(255,255,255,0.4)" stroke-width="2" stroke-dasharray="4 3"/>
        <text x="55" y="4" font-size="11" font-weight="600" fill="rgba(255,255,255,0.7)" font-family="system-ui, sans-serif">Reference</text>
        <line x1="150" y1="-6" x2="150" y2="6" stroke="rgba(255,255,255,0.2)" stroke-width="1"/>
        <line x1="165" y1="0" x2="190" y2="0" stroke="url(#trail-grad-t)" stroke-width="3" stroke-linecap="round"/>
        <text x="200" y="4" font-size="11" font-weight="bold" fill="#ff00cc" font-family="system-ui, sans-serif">Real Trajectory</text>
      </g>
    </svg>