<svg xmlns="http://www.w3.org/2000/svg" viewBox="0 0 700 600" width="100%" class="trajectory-svg">
      <defs>
        <linearGradient id="trail-grad-t" x1="82.5" y1="0" x2="575.0" y2="0" gradientUnits="userSpaceOnUse">
          <stop offset="0%" stop-color="#aa00ff"/><stop offset="100%" stop-color="#ff00cc"/>
        </linearGradient>
      </defs>

      <rect width="700" height="600" fill="#0d0a1a"/>
      <g class="grid"><line x1="60" y1="60" x2="60" y2="540" stroke="rgba(0,229,204,1)" stroke-width="0.5" opacity="0.06"/>
<line x1="156" y1="60" x2="156" y2="540" stroke="rgba(0,229,204,1)" stroke-width="0.5" opacity="0.06"/>
<line x1="253" y1="60" x2="253" y2="540" stroke="rgba(0,229,204,1)" stroke-width="0.5" opacity="0.06"/>
<line x1="350" y1="60" x2="350" y2="540" stroke="rgba(0,229,204,1)" stroke-width="0.5" opacity="0.06"/>
<line x1="446" y1="60" x2="446" y2="540" stroke="rgba(0,229,204,1)" stroke-width="0.5" opacity="0.06"/>
<line x1="543" y1="60" x2="543" y2="540" stroke="rgba(0,229,204,1)" stroke-width="0.5" opacity="0.06"/>
<line x1="640" y1="60" x2="640" y2="540" stroke="rgba(0,229,204,1)" stroke-width="0.5" opacity="0.06"/>
<line x1="60" y1="60" x2="640" y2="60" stroke="rgba(0,229,204,1)" stroke-width="0.5" opacity="0.18"/>
<line x1="60" y1="140" x2="640" y2="140" stroke="rgba(0,229,204,1)" stroke-width="0.5" opacity="0.18"/>
<line x1="60" y1="220" x2="640" y2="220" stroke="rgba(0,229,204,1)" stroke-width="0.5" opacity="0.18"/>
<line x1="60" y1="300" x2="640" y2="300" stroke="rgba(0,229,204,1)" stroke-width="0.5" opacity="0.18"/>
<line x1="60" y1="380" x2="640" y2="380" stroke="rgba(0,229,204,1)" stroke-width="0.5" opacity="0.18"/>
<line x1="60" y1="460" x2="640" y2="460" stroke="rgba(0,229,204,1)" stroke-width="0.5" opacity="0.18"/>
<line x1="60" y1="540" x2="640" y2="540" stroke="rgba(0,229,204,1)" stroke-width="0.5" opacity="0.18"/>
</g>
      <rect x="60" y="60" width="580" height="480" fill="none" stroke="rgba(0,229,204,0.15)" stroke-width="0.75" rx="4"/>

      <path d="M 533.48,491.92 L 533.48,489.51 L 533.48,487.1 L 533.48,484.7 L 533.48,482.29 L 533.48,479.88 L 533.48,477.47 L 533.48,475.07 L 533.48,472.66 L 533.48,470.25 L 533.48,467.84 L 533.48,465.44 L 533.48,463.03 L 533.48,460.62 L 533.48,458.21 L 533.48,455.81 L 533.48,453.4 L 533.48,450.99 L 533.48,448.58 L 533.48,446.18 L 533.48,443.77 L 533.48,441.36 L 533.48,438.95 L 533.48,436.55 L 533.48,434.14 L 533.48,431.73 L 533.48,429.32 L 533.48,426.91 L 533.48,424.51 L 533.48,422.1 L 533.48,419.69 L 533.48,417.28 L 533.48,414.88 L 533.48,412.47 L 533.48,410.06 L 533.48,407.65 L 533.48,405.25 L 533.48,402.84 L 533.48,400.43 L 533.48,398.02 L 533.48,395.62 L 533.48,393.21 L 533.48,390.8 L 533.48,388.39 L 533.48,385.99 L 533.48,383.58 L 533.48,381.17 L 533.48,378.76 L 533.48,376.36 L 533.48,373.95 L 533.48,371.54 L 533.48,369.13 L 533.48,366.73 L 533.48,364.32 L 533.48,361.91 L 533.48,359.5 L 533.48,357.09 L 533.48,354.69 L 533.48,352.28 L 533.48,349.87 L 533.48,347.46 L 533.48,345.06 L 533.48,342.65 L 533.48,340.24 L 533.48,337.83 L 533.48,335.43 L 533.48,333.02 L 533.48,330.61 L 533.48,328.2 L 533.48,325.8 L 533.48,323.39 L 533.48,320.98 L 533.48,318.57 L 533.48,316.17 L 533.48,313.76 L 533.48,311.35 L 533.48,308.94 L 533.48,306.54 L 533.48,304.13 L 533.48,301.72 L 533.48,299.31 L 533.48,296.91 L 533.48,294.5 L 533.48,292.09 L 533.48,289.68 L 533.48,287.28 L 533.46,284.87 L 533.4,282.46 L 533.33,280.05 L 533.22,277.65 L 533.09,275.24 L 532.94,272.84 L 532.76,270.44 L 532.55,268.04 L 532.32,265.65 L 532.06,263.25 L 531.78,260.86 L 531.47,258.47 L 531.13,256.09 L 530.77,253.71 L 530.39,251.33 L 529.98,248.96 L 529.54,246.59 L 529.08,244.23 L 528.59,241.87 L 528.08,239.52 L 527.54,237.17 L 526.97,234.83 L 526.39,232.5 L 525.77,230.17 L 525.13,227.85 L 524.47,225.53 L 523.78,223.23 L 523.07,220.93 L 522.33,218.64 L 521.57,216.35 L 520.78,214.08 L 519.97,211.81 L 519.14,209.55 L 518.28,207.3 L 517.39,205.06 L 516.49,202.83 L 515.56,200.61 L 514.6,198.4 L 513.62,196.2 L 512.62,194.01 L 511.59,191.84 L 510.54,189.67 L 509.47,187.51 L 508.38,185.37 L 507.26,183.24 L 506.12,181.12 L 504.95,179.01 L 503.77,176.92 L 502.56,174.83 L 501.33,172.76 L 500.07,170.71 L 498.8,168.67 L 497.5,166.64 L 496.18,164.62 L 494.84,162.62 L 493.48,160.64 L 492.1,158.67 L 490.69,156.71 L 489.27,154.77 L 487.82,152.85 L 486.36,150.94 L 484.87,149.04 L 483.36,147.17 L 481.84,145.3 L 480.29,143.46 L 478.72,141.63 L 477.14,139.82 L 475.53,138.03 L 473.91,136.25 L 472.26,134.49 L 470.6,132.75 L 468.92,131.02 L 467.22,129.32 L 465.5,127.63 L 463.77,125.96 L 462.01,124.31 L 460.24,122.68 L 458.45,121.07 L 456.65,119.48 L 454.82,117.91 L 452.98,116.35 L 451.13,114.82 L 449.26,113.31 L 447.37,111.81 L 445.46,110.34 L 443.54,108.89 L 441.61,107.46 L 439.66,106.04 L 437.69,104.65 L 435.71,103.29 L 433.71,101.94 L 431.7,100.61 L 429.68,99.31 L 427.64,98.03 L 425.59,96.77 L 423.53,95.53 L 421.45,94.31 L 419.36,93.12 L 417.25,91.95 L 415.14,90.8 L 413.01,89.67 L 410.87,88.57 L 408.72,87.49 L 406.56,86.43 L 404.38,85.4 L 402.2,84.39 L 400.0,83.4 L 397.79,82.44 L 395.58,81.5 L 393.35,80.59 L 391.11,79.7 L 388.87,78.83 L 386.61,77.99 L 384.35,77.17 L 382.07,76.37 L 379.79,75.6 L 377.5,74.86 L 375.21,74.14 L 372.9,73.44 L 370.59,72.77 L 368.27,72.12 L 365.94,71.5 L 363.61,70.9 L 361.27,70.33 L 358.93,69.79 L 356.58,69.27 L 354.22,68.77 L 351.86,68.3 L 349.49,67.85 L 347.12,67.43 L 344.75,67.04 L 342.37,66.67 L 339.99,66.33 L 337.6,66.01 L 335.21,65.72 L 332.82,65.45 L 330.42,65.21 L 328.02,65.0 L 325.62,64.81 L 323.22,64.65 L 320.82,64.51 L 318.41,64.4 L 316.01,64.31 L 313.6,64.25 L 311.19,64.22 L 308.79,64.21 L 306.38,64.23 L 303.97,64.27 L 301.56,64.34 L 299.16,64.43 L 296.75,64.55 L 294.35,64.7 L 291.95,64.87 L 289.55,65.07 L 287.15,65.3 L 284.76,65.54 L 282.37,65.82 L 279.98,66.12 L 277.59,66.45 L 275.21,66.8 L 272.83,67.18 L 270.46,67.58 L 268.09,68.01 L 265.73,68.46 L 263.37,68.94 L 261.01,69.45 L 258.66,69.98 L 256.32,70.53 L 253.98,71.11 L 251.65,71.72 L 249.33,72.35 L 247.01,73.01 L 244.7,73.69 L 242.4,74.39 L 240.11,75.12 L 237.82,75.87 L 235.54,76.65 L 233.27,77.46 L 231.01,78.28 L 228.76,79.13 L 226.52,80.01 L 224.28,80.91 L 222.06,81.83 L 219.85,82.78 L 217.65,83.75 L 215.45,84.75 L 213.27,85.77 L 211.1,86.81 L 208.94,87.87 L 206.79,88.96 L 204.66,90.07 L 202.53,91.2 L 200.42,92.36 L 198.32,93.54 L 196.24,94.74 L 194.16,95.97 L 192.1,97.21 L 190.06,98.48 L 188.02,99.77 L 186.01,101.08 L 184.0,102.42 L 182.01,103.77 L 180.04,105.15 L 178.07,106.54 L 176.13,107.96 L 174.2,109.4 L 172.28,110.86 L 170.39,112.34 L 168.5,113.84 L 166.64,115.36 L 164.79,116.9 L 162.95,118.46 L 161.14,120.04 L 159.34,121.64 L 157.55,123.26 L 155.79,124.9 L 154.04,126.55 L 152.31,128.23 L 150.6,129.92 L 148.91,131.63 L 147.23,133.36 L 145.58,135.11 L 143.94,136.88 L 142.32,138.66 L 140.72,140.46 L 139.14,142.28 L 137.59,144.11 L 136.05,145.96 L 134.53,147.83 L 133.03,149.71 L 131.55,151.61 L 130.09,153.53 L 128.65,155.46 L 127.23,157.41 L 125.83,159.37 L 124.46,161.34 L 123.1,163.33 L 121.77,165.34 L 120.46,167.36 L 119.17,169.39 L 117.9,171.44 L 116.66,173.5 L 115.44,175.57 L 114.23,177.66 L 113.06,179.76 L 111.9,181.87 L 110.77,183.99 L 109.66,186.13 L 108.57,188.28 L 107.51,190.44 L 106.47,192.61 L 105.45,194.79 L 104.45,196.98 L 103.48,199.19 L 102.54,201.4 L 101.61,203.62 L 100.71,205.86 L 99.84,208.1 L 98.99,210.35 L 98.16,212.61 L 97.36,214.88 L 96.58,217.16 L 95.83,219.45 L 95.1,221.74 L 94.4,224.05 L 93.72,226.36 L 93.06,228.67 L 92.43,231.0 L 91.83,233.33 L 91.25,235.66 L 90.69,238.01 L 90.17,240.36 L 89.66,242.71 L 89.18,245.07 L 88.73,247.43 L 88.3,249.8 L 87.9,252.18 L 87.52,254.56 L 87.17,256.94 L 86.84,259.32 L 86.54,261.71 L 86.27,264.1 L 86.02,266.5 L 85.8,268.89 L 85.6,271.29 L 85.43,273.7 L 85.28,276.1 L 85.16,278.5 L 85.07,280.91 L 85.0,283.32 L 84.96,285.72 L 84.94,288.13 L 84.95,290.54 L 84.99,292.95 L 85.05,295.35 L 85.13,297.76 L 85.25,300.16 L 85.38,302.57 L 85.55,304.97 L 85.74,307.37 L 85.95,309.77 L 86.2,312.16 L 86.46,314.56 L 86.76,316.94 L 87.07,319.33 L 87.42,321.71 L 87.79,324.09 L 88.18,326.47 L 88.6,328.84 L 89.05,331.2 L 89.52,333.57 L 90.02,335.92 L 90.54,338.27 L 91.09,340.62 L 91.66,342.95 L 92.26,345.29 L 92.88,347.61 L 93.53,349.93 L 94.2,352.24 L 94.89,354.55 L 95.62,356.85 L 96.36,359.13 L 97.13,361.42 L 97.93,363.69 L 98.75,365.95 L 99.59,368.21 L 100.46,370.45 L 101.35,372.69 L 102.27,374.91 L 103.21,377.13 L 104.17,379.34 L 105.16,381.53 L 106.17,383.72 L 107.2,385.89 L 108.26,388.06 L 109.34,390.21 L 110.44,392.35 L 111.57,394.47 L 112.72,396.59 L 113.89,398.69 L 115.09,400.78 L 116.3,402.86 L 117.54,404.93 L 118.8,406.98 L 120.09,409.01 L 121.39,411.04 L 122.72,413.05 L 124.07,415.04 L 125.43,417.02 L 126.83,418.99 L 128.24,420.94 L 129.67,422.87 L 131.12,424.79 L 132.6,426.7 L 134.09,428.58 L 135.6,430.46 L 137.14,432.31 L 138.69,434.15 L 140.27,435.97 L 141.86,437.78 L 143.47,439.57 L 145.1,441.34 L 146.75,443.09 L 148.42,444.82 L 150.11,446.54 L 151.82,448.24 L 153.54,449.92 L 155.28,451.58 L 157.04,453.23 L 158.82,454.85 L 160.61,456.45 L 162.42,458.04 L 164.25,459.61 L 166.1,461.15 L 167.96,462.68 L 169.84,464.18 L 171.73,465.67 L 173.64,467.14 L 175.57,468.58 L 177.51,470.01 L 179.47,471.41 L 181.44,472.79 L 183.42,474.15 L 185.42,475.49 L 187.44,476.81 L 189.47,478.11 L 191.51,479.38 L 193.57,480.63 L 195.64,481.86 L 197.72,483.07 L 199.81,484.26 L 201.92,485.42 L 204.04,486.56 L 206.17,487.68 L 208.32,488.77 L 210.47,489.85 L 212.64,490.89 L 214.82,491.92 L 217.01,492.92 L 219.21,493.9 L 221.42,494.85 L 223.64,495.78 L 225.87,496.69 L 228.11,497.57 L 230.36,498.43 L 232.62,499.27 L 234.89,500.08 L 237.16,500.86 L 239.45,501.62 L 241.74,502.36 L 244.04,503.07 L 246.35,503.76 L 248.66,504.42 L 250.98,505.06 L 253.31,505.67 L 255.64,506.26 L 257.99,506.82 L 260.33,507.36 L 262.68,507.87 L 265.04,508.36 L 267.41,508.82 L 269.77,509.26 L 272.15,509.67 L 274.52,510.05 L 276.9,510.41 L 279.29,510.74 L 281.67,511.05 L 284.07,511.34 L 286.46,511.59 L 288.86,511.82 L 291.25,512.03 L 293.65,512.24 L 296.05,512.44 L 298.45,512.65 L 300.85,512.85 L 303.25,513.06 L 305.65,513.26 L 308.05,513.47 L 310.44,513.68 L 312.84,513.88 L 315.24,514.09 L 317.64,514.29 L 320.04,514.5 L 322.44,514.7 L 324.84,514.91 L 327.24,515.12 L 329.64,515.32 L 332.03,515.53 L 334.43,515.73 L 336.83,515.94 L 339.23,516.14 L 341.63,516.35 L 344.03,516.55 L 346.43,516.76 L 348.83,516.97 L 351.22,517.17 L 353.62,517.38 L 356.02,517.58 L 358.42,517.79 L 360.82,517.99 L 363.22,518.2 L 365.62,518.41 L 368.02,518.61 L 370.41,518.82 L 372.81,519.02 L 375.21,519.23 L 377.61,519.43 L 380.01,519.64 L 382.41,519.85 L 384.81,520.05 L 387.21,520.26 L 389.6,520.46 L 392.0,520.67 L 394.4,520.87 L 396.8,521.08 L 399.2,521.28 L 401.6,521.49 L 404.0,521.7 L 406.4,521.9 L 408.8,522.11 L 411.19,522.31 L 413.59,522.52 L 415.99,522.72 L 418.39,522.93 L 420.79,523.14 L 423.19,523.34 L 425.59,523.55 L 427.99,523.75 L 430.38,523.96 L 432.78,524.16 L 435.18,524.37 L 437.58,524.58 L 439.98,524.78 L 442.38,524.99 L 444.78,525.19 L 447.18,525.4 L 449.57,525.6 L 451.97,525.81 L 454.37,526.02 L 456.77,526.22 L 459.17,526.43 L 461.57,526.63 L 463.97,526.84 L 466.37,527.04 L 468.76,527.25 L 471.16,527.45 L 473.56,527.66 L 475.96,527.87 L 478.36,528.07 L 480.76,528.28 L 483.16,528.48 L 485.56,528.69 L 487.95,528.89 L 490.35,529.1 L 492.75,529.31 L 495.15,529.51 L 497.55,529.72 L 499.95,529.92 L 502.35,530.13 L 504.75,530.33 L 507.15,530.54 L 509.54,530.75 L 511.94,530.95 L 514.34,531.16 L 516.74,531.36 L 519.14,531.57 L 521.54,531.77 L 523.94,531.98 L 526.34,532.18 L 528.73,532.39 L 531.13,532.6 L 533.53,532.8 L 535.93,533.01 L 538.33,533.21 L 540.73,533.42 L 543.13,533.62 L 545.53,533.83 L 547.92,534.04 L 550.32,534.24 L 552.72,534.45 L 555.12,534.65 L 557.52,534.86 L 559.92,535.06 L 562.32,535.27 L 564.72,535.48 L 567.11,535.68 L 569.51,535.89 L 571.91,536.09 L 574.31,536.3 L 576.71,536.5 L 579.11,536.71 L 581.51,536.92 L 583.91,537.12 L 586.3,537.33 L 588.7,537.53 L 591.1,537.74 L 593.5,537.94 L 595.9,538.15 L 598.3,538.35 L 600.7,538.56 L 603.1,538.77 L 605.5,538.97 L 607.89,539.18 L 610.29,539.38 L 612.69,539.59 L 615.09,539.79 L 617.49,540.0" fill="none" stroke="rgba(255,255,255,0.38)" stroke-width="1.3" stroke-dasharray="8 5"/>

      <path d="M 542.15,500.59 L 541.77,493.67 L 540.99,486.78 L 539.95,479.92 L 538.63,473.12 L 537.01,466.37 L 535.13,459.7 L 533.08,453.08 L 531.0,446.46 L 529.01,439.82 L 527.27,433.11 L 525.9,426.31 L 525.0,419.44 L 524.64,412.52 L 524.83,405.59 L 525.55,398.69 L 526.74,391.86 L 528.29,385.11 L 530.12,378.42 L 532.09,371.77 L 534.11,365.14 L 536.07,358.49 L 537.87,351.79 L 539.39,345.03 L 540.56,338.19 L 541.3,331.3 L 541.56,324.37 L 541.32,317.44 L 540.63,310.54 L 539.61,303.69 L 538.24,296.89 L 536.53,290.17 L 534.53,283.53 L 532.33,276.96 L 530.02,270.42 L 527.69,263.89 L 525.43,257.33 L 523.3,250.73 L 521.35,244.08 L 519.6,237.37 L 518.04,230.62 L 516.64,223.83 L 515.35,217.01 L 514.11,210.19 L 512.83,203.38 L 511.44,196.58 L 509.86,189.83 L 508.0,183.15 L 505.8,176.58 L 503.18,170.16 L 500.11,163.94 L 496.56,157.99 L 492.53,152.35 L 488.04,147.07 L 483.15,142.16 L 477.92,137.6 L 472.43,133.37 L 466.75,129.4 L 460.81,125.82 L 454.72,122.5 L 448.56,119.33 L 442.33,116.28 L 436.06,113.31 L 429.82,110.29 L 423.67,107.1 L 417.65,103.65 L 411.81,99.92 L 406.13,95.95 L 400.58,91.78 L 395.12,87.51 L 389.67,83.23 L 384.15,79.03 L 378.5,75.01 L 372.66,71.27 L 366.6,67.9 L 360.3,65.02 L 353.76,62.71 L 347.03,61.08 L 340.16,60.17 L 333.23,60.0 L 326.32,60.52 L 319.48,61.64 L 312.74,63.27 L 306.1,65.27 L 299.54,67.52 L 293.02,69.89 L 286.51,72.27 L 279.97,74.56 L 273.36,76.67 L 266.68,78.52 L 259.93,80.09 L 253.11,81.36 L 246.25,82.39 L 239.37,83.23 L 232.48,83.99 L 225.59,84.74 L 218.71,85.61 L 211.86,86.69 L 205.07,88.08 L 198.37,89.87 L 191.83,92.16 L 185.51,95.0 L 179.49,98.44 L 173.86,102.49 L 168.68,107.09 L 163.97,112.17 L 159.72,117.65 L 155.89,123.43 L 152.39,129.41 L 149.13,135.53 L 146.0,141.72 L 142.9,147.92 L 139.74,154.09 L 136.42,160.18 L 132.9,166.16 L 129.15,171.98 L 125.16,177.66 L 120.99,183.2 L 116.68,188.63 L 112.3,194.0 L 107.92,199.38 L 103.62,204.82 L 99.49,210.39 L 95.6,216.13 L 92.06,222.09 L 88.95,228.28 L 86.38,234.72 L 84.41,241.37 L 83.12,248.17 L 82.51,255.08 L 82.56,262.01 L 83.21,268.91 L 84.35,275.75 L 85.88,282.51 L 87.68,289.21 L 89.63,295.86 L 91.63,302.5 L 93.57,309.16 L 95.37,315.86 L 96.96,322.6 L 98.31,329.4 L 99.42,336.25 L 100.31,343.12 L 101.05,350.02 L 101.71,356.92 L 102.39,363.82 L 103.17,370.71 L 104.16,377.57 L 105.44,384.39 L 107.12,391.11 L 109.26,397.71 L 111.94,404.1 L 115.18,410.23 L 118.99,416.02 L 123.33,421.42 L 128.15,426.4 L 133.35,430.99 L 138.85,435.21 L 144.56,439.14 L 150.41,442.87 L 156.33,446.48 L 162.26,450.06 L 168.17,453.69 L 174.01,457.43 L 179.75,461.31 L 185.38,465.36 L 190.9,469.56 L 196.33,473.88 L 201.69,478.27 L 207.04,482.69 L 212.42,487.05 L 217.9,491.31 L 223.51,495.38 L 229.3,499.19 L 235.31,502.66 L 241.53,505.7 L 247.98,508.25 L 254.62,510.25 L 261.4,511.66 L 268.29,512.47 L 275.21,512.74 L 282.14,512.53 L 289.05,511.94 L 295.94,511.11 L 302.8,510.15 L 309.67,509.19 L 316.56,508.37 L 323.46,507.8 L 330.4,507.67 L 337.32,508.03 L 344.2,508.86 L 351.02,510.09 L 357.77,511.68 L 364.45,513.54 L 371.07,515.62 L 377.64,517.82 L 384.2,520.06 L 390.78,522.27 L 397.39,524.35 L 404.06,526.23 L 410.81,527.83 L 417.63,529.09 L 424.51,529.96 L 431.42,530.44 L 438.35,530.52 L 445.28,530.27 L 452.19,529.72 L 459.09,528.97 L 465.97,528.1 L 472.84,527.18 L 479.72,526.32 L 486.61,525.59 L 493.53,525.07 L 500.46,524.82 L 507.39,524.89 L 514.31,525.31 L 521.2,526.09 L 528.04,527.2 L 534.83,528.61 L 541.57,530.25 L 548.26,532.06 L 554.93,533.95 L 561.6,535.86 L 568.28,537.72 L 575.0,539.44" fill="none" stroke="url(#trail-grad-t)" stroke-width="2.5" stroke-linecap="round" stroke-linejoin="round"
            stroke-dasharray="1553.01" stroke-dashoffset="1553.01">
        <animate attributeName="stroke-dashoffset" values="1553.01;1546.08;1539.15;1532.21;1525.28;1518.34;1511.41;1504.48;1497.54;1490.61;1483.68;1476.74;1469.81;1462.88;1455.95;1449.01;1442.08;1435.15;1428.22;1421.28;1414.35;1407.42;1400.48;1393.55;1386.61;1379.68;1372.75;1365.81;1358.88;1351.95;1345.02;1338.08;1331.15;1324.22;1317.28;1310.35;1303.41;1296.48;1289.55;1282.61;1275.68;1268.75;1261.81;1254.88;1247.95;1241.01;1234.08;1227.14;1220.21;1213.28;1206.34;1199.42;1192.48;1185.55;1178.62;1171.68;1164.75;1157.82;1150.89;1143.95;1137.02;1130.09;1123.15;1116.22;1109.29;1102.35;1095.42;1088.49;1081.55;1074.62;1067.69;1060.75;1053.82;1046.88;1039.95;1033.02;1026.09;1019.16;1012.23;1005.3;998.37;991.44;984.5;977.57;970.63;963.7;956.77;949.84;942.9;935.97;929.04;922.1;915.16;908.23;901.3;894.37;887.43;880.5;873.57;866.63;859.7;852.78;845.84;838.91;831.98;825.05;818.12;811.18;804.25;797.32;790.38;783.45;776.52;769.58;762.64;755.72;748.78;741.84;734.91;727.98;721.05;714.11;707.18;700.24;693.31;686.38;679.45;672.51;665.59;658.66;651.73;644.79;637.86;630.93;623.99;617.06;610.13;603.19;596.25;589.33;582.4;575.46;568.53;561.59;554.66;547.72;540.79;533.86;526.92;519.99;513.05;506.13;499.19;492.26;485.33;478.4;471.47;464.53;457.6;450.66;443.73;436.8;429.87;422.93;416.0;409.07;402.13;395.19;388.27;381.33;374.4;367.46;360.53;353.6;346.66;339.74;332.8;325.86;318.94;312.0;305.08;298.14;291.21;284.27;277.34;270.41;263.47;256.54;249.6;242.67;235.74;228.81;221.88;214.94;208.0;201.08;194.14;187.2;180.27;173.34;166.41;159.47;152.54;145.61;138.68;131.74;124.81;117.87;110.94;104.01;97.07;90.14;83.2;76.27;69.34;62.41;55.47;48.54;41.61;34.67;27.74;20.81;13.87;6.94;0.0" dur="8s" repeatCount="indefinite" calcMode="linear"/>
      </path>

      <g>
        <circle r="9" fill="none" stroke="#ffe566" stroke-width="1.5">
          <animate attributeName="cx" values="542.15;541.77;540.99;539.95;538.63;537.01;535.13;533.08;531.0;529.01;527.27;525.9;525.0;524.64;524.83;525.55;526.74;528.29;530.12;532.09;534.11;536.07;537.87;539.39;540.56;541.3;541.56;541.32;540.63;539.61;538.24;536.53;534.53;532.33;530.02;527.69;525.43;523.3;521.35;519.6;518.04;516.64;515.35;514.11;512.83;511.44;509.86;508.0;505.8;503.18;500.11;496.56;492.53;488.04;483.15;477.92;472.43;466.75;460.81;454.72;448.56;442.33;436.06;429.82;423.67;417.65;411.81;406.13;400.58;395.12;389.67;384.15;378.5;372.66;366.6;360.3;353.76;347.03;340.16;333.23;326.32;319.48;312.74;306.1;299.54;293.02;286.51;279.97;273.36;266.68;259.93;253.11;246.25;239.37;232.48;225.59;218.71;211.86;205.07;198.37;191.83;185.51;179.49;173.86;168.68;163.97;159.72;155.89;152.39;149.13;146.0;142.9;139.74;136.42;132.9;129.15;125.16;120.99;116.68;112.3;107.92;103.62;99.49;95.6;92.06;88.95;86.38;84.41;83.12;82.51;82.56;83.21;84.35;85.88;87.68;89.63;91.63;93.57;95.37;96.96;98.31;99.42;100.31;101.05;101.71;102.39;103.17;104.16;105.44;107.12;109.26;111.94;115.18;118.99;123.33;128.15;133.35;138.85;144.56;150.41;156.33;162.26;168.17;174.01;179.75;185.38;190.9;196.33;201.69;207.04;212.42;217.9;223.51;229.3;235.31;241.53;247.98;254.62;261.4;268.29;275.21;282.14;289.05;295.94;302.8;309.67;316.56;323.46;330.4;337.32;344.2;351.02;357.77;364.45;371.07;377.64;384.2;390.78;397.39;404.06;410.81;417.63;424.51;431.42;438.35;445.28;452.19;459.09;465.97;472.84;479.72;486.61;493.53;500.46;507.39;514.31;521.2;528.04;534.83;541.57;548.26;554.93;561.6;568.28;575.0" dur="8s" repeatCount="indefinite" calcMode="linear"/>
          <animate attributeName="cy" values="500.59;493.67;486.78;479.92;473.12;466.37;459.7;453.08;446.46;439.82;433.11;426.31;419.44;412.52;405.59;398.69;391.86;385.11;378.42;371.77;365.14;358.49;351.79;345.03;338.19;331.3;324.37;317.44;310.54;303.69;296.89;290.17;283.53;276.96;270.42;263.89;257.33;250.73;244.08;237.37;230.62;223.83;217.01;210.19;203.38;196.58;189.83;183.15;176.58;170.16;163.94;157.99;152.35;147.07;142.16;137.6;133.37;129.4;125.82;122.5;119.33;116.28;113.31;110.29;107.1;103.65;99.92;95.95;91.78;87.51;83.23;79.03;75.01;71.27;67.9;65.02;62.71;61.08;60.17;60.0;60.52;61.64;63.27;65.27;67.52;69.89;72.27;74.56;76.67;78.52;80.09;81.36;82.39;83.23;83.99;84.74;85.61;86.69;88.08;89.87;92.16;95.0;98.44;102.49;107.09;112.17;117.65;123.43;129.41;135.53;141.72;147.92;154.09;160.18;166.16;171.98;177.66;183.2;188.63;194.0;199.38;204.82;210.39;216.13;222.09;228.28;234.72;241.37;248.17;255.08;262.01;268.91;275.75;282.51;289.21;295.86;302.5;309.16;315.86;322.6;329.4;336.25;343.12;350.02;356.92;363.82;370.71;377.57;384.39;391.11;397.71;404.1;410.23;416.02;421.42;426.4;430.99;435.21;439.14;442.87;446.48;450.06;453.69;457.43;461.31;465.36;469.56;473.88;478.27;482.69;487.05;491.31;495.38;499.19;502.66;505.7;508.25;510.25;511.66;512.47;512.74;512.53;511.94;511.11;510.15;509.19;508.37;507.8;507.67;508.03;508.86;510.09;511.68;513.54;515.62;517.82;520.06;522.27;524.35;526.23;527.83;529.09;529.96;530.44;530.52;530.27;529.72;528.97;528.1;527.18;526.32;525.59;525.07;524.82;524.89;525.31;526.09;527.2;528.61;530.25;532.06;533.95;535.86;537.72;539.44" dur="8s" repeatCount="indefinite" calcMode="linear"/>
          <animate attributeName="r" values="9;24;9" dur="2s" repeatCount="indefinite"/>
          <animate attributeName="opacity" values="0.8;0;0.8" dur="2s" repeatCount="indefinite"/>
        </circle>
        <circle r="5.5" fill="#ffe566">
          <animate attributeName="cx" values="542.15;541.77;540.99;539.95;538.63;537.01;535.13;533.08;531.0;529.01;527.27;525.9;525.0;524.64;524.83;525.55;526.74;528.29;530.12;532.09;534.11;536.07;537.87;539.39;540.56;541.3;541.56;541.32;540.63;539.61;538.24;536.53;534.53;532.33;530.02;527.69;525.43;523.3;521.35;519.6;518.04;516.64;515.35;514.11;512.83;511.44;509.86;508.0;505.8;503.18;500.11;496.56;492.53;488.04;483.15;477.92;472.43;466.75;460.81;454.72;448.56;442.33;436.06;429.82;423.67;417.65;411.81;406.13;400.58;395.12;389.67;384.15;378.5;372.66;366.6;360.3;353.76;347.03;340.16;333.23;326.32;319.48;312.74;306.1;299.54;293.02;286.51;279.97;273.36;266.68;259.93;253.11;246.25;239.37;232.48;225.59;218.71;211.86;205.07;198.37;191.83;185.51;179.49;173.86;168.68;163.97;159.72;155.89;152.39;149.13;146.0;142.9;139.74;136.42;132.9;129.15;125.16;120.99;116.68;112.3;107.92;103.62;99.49;95.6;92.06;88.95;86.38;84.41;83.12;82.51;82.56;83.21;84.35;85.88;87.68;89.63;91.63;93.57;95.37;96.96;98.31;99.42;100.31;101.05;101.71;102.39;103.17;104.16;105.44;107.12;109.26;111.94;115.18;118.99;123.33;128.15;133.35;138.85;144.56;150.41;156.33;162.26;168.17;174.01;179.75;185.38;190.9;196.33;201.69;207.04;212.42;217.9;223.51;229.3;235.31;241.53;247.98;254.62;261.4;268.29;275.21;282.14;289.05;295.94;302.8;309.67;316.56;323.46;330.4;337.32;344.2;351.02;357.77;364.45;371.07;377.64;384.2;390.78;397.39;404.06;410.81;417.63;424.51;431.42;438.35;445.28;452.19;459.09;465.97;472.84;479.72;486.61;493.53;500.46;507.39;514.31;521.2;528.04;534.83;541.57;548.26;554.93;561.6;568.28;575.0" dur="8s" repeatCount="indefinite" calcMode="linear"/>
          <animate attributeName="cy" values="500.59;493.67;486.78;479.92;473.12;466.37;459.7;453.08;446.46;439.82;433.11;426.31;419.44;412.52;405.59;398.69;391.86;385.11;378.42;371.77;365.14;358.49;351.79;345.03;338.19;331.3;324.37;317.44;310.54;303.69;296.89;290.17;283.53;276.96;270.42;263.89;257.33;250.73;244.08;237.37;230.62;223.83;217.01;210.19;203.38;196.58;189.83;183.15;176.58;170.16;163.94;157.99;152.35;147.07;142.16;137.6;133.37;129.4;125.82;122.5;119.33;116.28;113.31;110.29;107.1;103.65;99.92;95.95;91.78;87.51;83.23;79.03;75.01;71.27;67.9;65.02;62.71;61.08;60.17;60.0;60.52;61.64;63.27;65.27;67.52;69.89;72.27;74.56;76.67;78.52;80.09;81.36;82.39;83.23;83.99;84.74;85.61;86.69;88.08;89.87;92.16;95.0;98.44;102.49;107.09;112.17;117.65;123.43;129.41;135.53;141.72;147.92;154.09;160.18;166.16;171.98;177.66;183.2;188.63;194.0;199.38;204.82;210.39;216.13;222.09;228.28;234.72;241.37;248.17;255.08;262.01;268.91;275.75;282.51;289.21;295.86;302.5;309.16;315.86;322.6;329.4;336.25;343.12;350.02;356.92;363.82;370.71;377.57;384.39;391.11;397.71;404.1;410.23;416.02;421.42;426.4;430.99;435.21;439.14;442.87;446.48;450.06;453.69;457.43;461.31;465.36;469.56;473.88;478.27;482.69;487.05;491.31;495.38;499.19;502.66;505.7;508.25;510.25;511.66;512.47;512.74;512.53;511.94;511.11;510.15;509.19;508.37;507.8;507.67;508.03;508.86;510.09;511.68;513.54;515.62;517.82;520.06;522.27;524.35;526.23;527.83;529.09;529.96;530.44;530.52;530.27;529.72;528.97;528.1;527.18;526.32;525.59;525.07;524.82;524.89;525.31;526.09;527.2;528.61;530.25;532.06;533.95;535.86;537.72;539.44" dur="8s" repeatCount="indefinite" calcMode="linear"/>
        </circle>
        <circle r="2" fill="white">
          <animate attributeName="cx" values="542.15;541.77;540.99;539.95;538.63;537.01;535.13;533.08;531.0;529.01;527.27;525.9;525.0;524.64;524.83;525.55;526.74;528.29;530.12;532.09;534.11;536.07;537.87;539.39;540.56;541.3;541.56;541.32;540.63;539.61;538.24;536.53;534.53;532.33;530.02;527.69;525.43;523.3;521.35;519.6;518.04;516.64;515.35;514.11;512.83;511.44;509.86;508.0;505.8;503.18;500.11;496.56;492.53;488.04;483.15;477.92;472.43;466.75;460.81;454.72;448.56;442.33;436.06;429.82;423.67;417.65;411.81;406.13;400.58;395.12;389.67;384.15;378.5;372.66;366.6;360.3;353.76;347.03;340.16;333.23;326.32;319.48;312.74;306.1;299.54;293.02;286.51;279.97;273.36;266.68;259.93;253.11;246.25;239.37;232.48;225.59;218.71;211.86;205.07;198.37;191.83;185.51;179.49;173.86;168.68;163.97;159.72;155.89;152.39;149.13;146.0;142.9;139.74;136.42;132.9;129.15;125.16;120.99;116.68;112.3;107.92;103.62;99.49;95.6;92.06;88.95;86.38;84.41;83.12;82.51;82.56;83.21;84.35;85.88;87.68;89.63;91.63;93.57;95.37;96.96;98.31;99.42;100.31;101.05;101.71;102.39;103.17;104.16;105.44;107.12;109.26;111.94;115.18;118.99;123.33;128.15;133.35;138.85;144.56;150.41;156.33;162.26;168.17;174.01;179.75;185.38;190.9;196.33;201.69;207.04;212.42;217.9;223.51;229.3;235.31;241.53;247.98;254.62;261.4;268.29;275.21;282.14;289.05;295.94;302.8;309.67;316.56;323.46;330.4;337.32;344.2;351.02;357.77;364.45;371.07;377.64;384.2;390.78;397.39;404.06;410.81;417.63;424.51;431.42;438.35;445.28;452.19;459.09;465.97;472.84;479.72;486.61;493.53;500.46;507.39;514.31;521.2;528.04;534.83;541.57;548.26;554.93;561.6;568.28;575.0" dur="8s" repeatCount="indefinite" calcMode="linear"/>
          <animate attributeName="cy" values="500.59;493.67;486.78;479.92;473.12;466.37;459.7;453.08;446.46;439.82;433.11;426.31;419.44;412.52;405.59;398.69;391.86;385.11;378.42;371.77;365.14;358.49;351.79;345.03;338.19;331.3;324.37;317.44;310.54;303.69;296.89;290.17;283.53;276.96;270.42;263.89;257.33;250.73;244.08;237.37;230.62;223.83;217.01;210.19;203.38;196.58;189.83;183.15;176.58;170.16;163.94;157.99;152.35;147.07;142.16;137.6;133.37;129.4;125.82;122.5;119.33;116.28;113.31;110.29;107.1;103.65;99.92;95.95;91.78;87.51;83.23;79.03;75.01;71.27;67.9;65.02;62.71;61.08;60.17;60.0;60.52;61.64;63.27;65.27;67.52;69.89;72.27;74.56;76.67;78.52;80.09;81.36;82.39;83.23;83.99;84.74;85.61;86.69;88.08;89.87;92.16;95.0;98.44;102.49;107.09;112.17;117.65;123.43;129.41;135.53;141.72;147.92;154.09;160.18;166.16;171.98;177.66;183.2;188.63;194.0;199.38;204.82;210.39;216.13;222.09;228.28;234.72;241.37;248.17;255.08;262.01;268.91;275.75;282.51;289.21;295.86;302.5;309.16;315.86;322.6;329.4;336.25;343.12;350.02;356.92;363.82;370.71;377.57;384.39;391.11;397.71;404.1;410.23;416.02;421.42;426.4;430.99;435.21;439.14;442.87;446.48;450.06;453.69;457.43;461.31;465.36;469.56;473.88;478.27;482.69;487.05;491.31;495.38;499.19;502.66;505.7;508.25;510.25;511.66;512.47;512.74;512.53;511.94;511.11;510.15;509.19;508.37;507.8;507.67;508.03;508.86;510.09;511.68;513.54;515.62;517.82;520.06;522.27;524.35;526.23;527.83;529.09;529.96;530.44;530.52;530.27;529.72;528.97;528.1;527.18;526.32;525.59;525.07;524.82;524.89;525.31;526.09;527.2;528.61;530.25;532.06;533.95;535.86;537.72;539.44" dur="8s" repeatCount="indefinite" calcMode="linear"/>
        </circle>
      </g>

      <g class="legend" transform="translate(195.0, 570)">
        <rect x="0" y="-14" width="310" height="28" rx="14" fill="rgba(20, 15, 35, 0.8)" stroke="rgba(0, 229, 204, 0.4)" stroke-width="1"/>
        <line x1="20" y1="0" x2="45" y2="0" stroke="rgba(255,255,255,0.4)" stroke-width="2" stroke-dasharray="4 3"/>
        <text x="55" y="4" font-size="11" font-weight="600" fill="rgba(255,255,255,0.7)" font-family="system-ui, sans-serif">Reference</text>
        <line x1="150" y1="-6" x2="150" y2="6" stroke="rgba(255,255,255,0.2)" stroke-width="1"/>
        <line x1="165" y1="0" x2="190" y2="0" stroke="url(#trail-grad-t)" stroke-width="3" stroke-linecap="round"/>
        <text x="200" y="4" font-size="11" font-weight="bold" fill="#ff00cc" font-family="system-ui, sans-serif">Real Trajectory</text>
      </g>
    </svg>