<svg xmlns="http://www.w3.org/2000/svg"
     viewBox="0 0 700 400" width="100%" class="trajectory-svg">

  <defs>
    <linearGradient id="steer-grad" x1="60" y1="0" x2="670" y2="0" gradientUnits="userSpaceOnUse">
      <stop offset="0%"   stop-color="#aa00ff"/>
      <stop offset="100%" stop-color="#ff00cc"/>
    </linearGradient>
  </defs>

  <rect width="700" height="400" fill="#0d0a1a"/>
  <g class="grid"><line x1="60.0" y1="50" x2="60.0" y2="360" stroke="rgba(0,229,204,1)" stroke-width="0.5" opacity="0.06"/>
<line x1="161.66666666666669" y1="50" x2="161.66666666666669" y2="360" stroke="rgba(0,229,204,1)" stroke-width="0.5" opacity="0.06"/>
<line x1="263.33333333333337" y1="50" x2="263.33333333333337" y2="360" stroke="rgba(0,229,204,1)" stroke-width="0.5" opacity="0.06"/>
<line x1="365.0" y1="50" x2="365.0" y2="360" stroke="rgba(0,229,204,1)" stroke-width="0.5" opacity="0.06"/>
<line x1="466.6666666666667" y1="50" x2="466.6666666666667" y2="360" stroke="rgba(0,229,204,1)" stroke-width="0.5" opacity="0.06"/>
<line x1="568.3333333333333" y1="50" x2="568.3333333333333" y2="360" stroke="rgba(0,229,204,1)" stroke-width="0.5" opacity="0.06"/>
<line x1="670.0" y1="50" x2="670.0" y2="360" stroke="rgba(0,229,204,1)" stroke-width="0.5" opacity="0.06"/>
<line x1="60" y1="50.0" x2="670" y2="50.0" stroke="rgba(0,229,204,1)" stroke-width="0.5" opacity="0.18"/>
<line x1="60" y1="112.0" x2="670" y2="112.0" stroke="rgba(0,229,204,1)" stroke-width="0.5" opacity="0.18"/>
<line x1="60" y1="174.0" x2="670" y2="174.0" stroke="rgba(0,229,204,1)" stroke-width="0.5" opacity="0.18"/>
<line x1="60" y1="236.0" x2="670" y2="236.0" stroke="rgba(0,229,204,1)" stroke-width="0.5" opacity="0.18"/>
<line x1="60" y1="298.0" x2="670" y2="298.0" stroke="rgba(0,229,204,1)" stroke-width="0.5" opacity="0.18"/>
<line x1="60" y1="360.0" x2="670" y2="360.0" stroke="rgba(0,229,204,1)" stroke-width="0.5" opacity="0.18"/>
</g>
  <line x1="60" y1="205.0" x2="670" y2="205.0" stroke="rgba(255,255,255,0.35)" stroke-width="1" stroke-dasharray="5 5"/>
  <rect x="60" y="50" width="610" height="310"
        fill="none" stroke="rgba(0,229,204,0.15)" stroke-width="0.75" rx="4"/>
  <g class="axis-labels"><text x="60.0" y="378" font-size="10" fill="rgba(255,255,255,0.5)" text-anchor="middle" font-family="'JetBrains Mono',monospace">0.1s</text>
<text x="161.66666666666669" y="378" font-size="10" fill="rgba(255,255,255,0.5)" text-anchor="middle" font-family="'JetBrains Mono',monospace">7.6s</text>
<text x="263.33333333333337" y="378" font-size="10" fill="rgba(255,255,255,0.5)" text-anchor="middle" font-family="'JetBrains Mono',monospace">15.0s</text>
<text x="365.0" y="378" font-size="10" fill="rgba(255,255,255,0.5)" text-anchor="middle" font-family="'JetBrains Mono',monospace">22.5s</text>
<text x="466.6666666666667" y="378" font-size="10" fill="rgba(255,255,255,0.5)" text-anchor="middle" font-family="'JetBrains Mono',monospace">30.0s</text>
<text x="568.3333333333333" y="378" font-size="10" fill="rgba(255,255,255,0.5)" text-anchor="middle" font-family="'JetBrains Mono',monospace">37.4s</text>
<text x="670.0" y="378" font-size="10" fill="rgba(255,255,255,0.5)" text-anchor="middle" font-family="'JetBrains Mono',monospace">44.9s</text>
<text x="52" y="54.0" font-size="10" fill="rgba(255,255,255,0.5)" text-anchor="end" font-family="'JetBrains Mono',monospace">0.649</text>
<text x="52" y="116.0" font-size="10" fill="rgba(255,255,255,0.5)" text-anchor="end" font-family="'JetBrains Mono',monospace">0.390</text>
<text x="52" y="178.0" font-size="10" fill="rgba(255,255,255,0.5)" text-anchor="end" font-family="'JetBrains Mono',monospace">0.130</text>
<text x="52" y="240.0" font-size="10" fill="rgba(255,255,255,0.5)" text-anchor="end" font-family="'JetBrains Mono',monospace">-0.130</text>
<text x="52" y="302.0" font-size="10" fill="rgba(255,255,255,0.5)" text-anchor="end" font-family="'JetBrains Mono',monospace">-0.390</text>
<text x="52" y="364.0" font-size="10" fill="rgba(255,255,255,0.5)" text-anchor="end" font-family="'JetBrains Mono',monospace">-0.649</text>
</g>

  <!-- Labels axes -->
  <text x="52" y="36" font-size="10" letter-spacing="1" font-weight="500"
        fill="rgba(0,229,204,0.75)" text-anchor="end"
        font-family="'JetBrains Mono',monospace">δF (rad)</text>
  <text x="670" y="395" font-size="10" letter-spacing="1" font-weight="500"
        fill="rgba(0,229,204,0.75)" text-anchor="end"
        font-family="'JetBrains Mono',monospace">Time (s)</text>

  <!-- Tracé animé -->
  <path d="M 60.0,80.0 L 62.72,80.0 L 65.45,80.0 L 68.17,262.6 L 70.89,310.1 L 73.62,80.0 L 76.34,232.28 L 79.06,330.0 L 81.79,80.0 L 84.51,130.69 L 87.23,330.0 L 89.96,317.19 L 92.68,94.99 L 95.4,330.0 L 98.12,330.0 L 100.85,110.05 L 103.57,102.54 L 106.29,330.0 L 109.02,163.92 L 111.74,176.02 L 114.46,330.0 L 117.19,228.26 L 119.91,88.26 L 122.63,182.14 L 125.36,313.45 L 128.08,80.0 L 130.8,206.79 L 133.53,311.83 L 136.25,80.0 L 138.97,186.9 L 141.7,85.48 L 144.42,285.96 L 147.14,129.21 L 149.87,80.0 L 152.59,318.59 L 155.31,80.0 L 158.04,174.87 L 160.76,322.22 L 163.48,80.0 L 166.21,321.3 L 168.93,172.04 L 171.65,80.0 L 174.38,320.15 L 177.1,84.11 L 179.82,195.42 L 182.54,227.23 L 185.27,80.0 L 187.99,286.78 L 190.71,131.75 L 193.44,80.0 L 196.16,272.46 L 198.88,80.26 L 201.61,183.16 L 204.33,196.23 L 207.05,80.0 L 209.78,287.34 L 212.5,144.45 L 215.22,80.0 L 217.95,80.0 L 220.67,158.44 L 223.39,310.03 L 226.12,80.0 L 228.84,179.21 L 231.56,329.37 L 234.29,80.0 L 237.01,88.62 L 239.73,329.09 L 242.46,147.61 L 245.18,80.0 L 247.9,324.91 L 250.62,85.49 L 253.35,139.21 L 256.07,236.04 L 258.79,80.0 L 261.52,263.47 L 264.24,133.86 L 266.96,80.0 L 269.69,290.13 L 272.41,80.0 L 275.13,125.92 L 277.86,275.4 L 280.58,80.0 L 283.3,276.92 L 286.03,129.99 L 288.75,80.0 L 291.47,299.61 L 294.2,80.0 L 296.92,183.89 L 299.64,291.65 L 302.37,80.0 L 305.09,310.35 L 307.81,151.44 L 310.54,80.0 L 313.26,317.63 L 315.98,85.68 L 318.71,175.62 L 321.43,223.7 L 324.15,80.0 L 326.88,285.45 L 329.6,146.37 L 332.32,80.0 L 335.04,292.59 L 337.77,80.99 L 340.49,172.71 L 343.21,197.26 L 345.94,80.0 L 348.66,278.99 L 351.38,138.8 L 354.11,80.0 L 356.83,289.04 L 359.55,80.0 L 362.28,206.25 L 365.0,211.25 L 367.72,80.0 L 370.45,298.36 L 373.17,150.14 L 375.89,80.0 L 378.62,310.65 L 381.34,80.0 L 384.06,220.42 L 386.79,206.93 L 389.51,80.0 L 392.23,302.6 L 394.96,113.47 L 397.68,80.0 L 400.4,307.36 L 403.12,80.0 L 405.85,221.54 L 408.57,204.33 L 411.29,80.0 L 414.02,271.48 L 416.74,113.01 L 419.46,80.0 L 422.19,294.27 L 424.91,80.0 L 427.63,232.84 L 430.36,202.67 L 433.08,80.0 L 435.8,295.37 L 438.53,102.86 L 441.25,104.98 L 443.97,309.05 L 446.7,80.0 L 449.42,258.2 L 452.14,212.45 L 454.87,80.0 L 457.59,307.37 L 460.31,89.65 L 463.04,106.4 L 465.76,304.38 L 468.48,80.0 L 471.21,268.95 L 473.93,185.51 L 476.65,80.0 L 479.37,303.93 L 482.1,85.62 L 484.82,117.86 L 487.54,288.14 L 490.27,80.0 L 492.99,271.3 L 495.71,158.75 L 498.44,80.0 L 501.16,301.76 L 503.88,87.37 L 506.61,124.47 L 509.33,261.72 L 512.05,80.0 L 514.78,287.25 L 517.5,158.64 L 520.22,80.0 L 522.95,306.1 L 525.67,86.32 L 528.39,144.16 L 531.12,251.14 L 533.84,80.0 L 536.56,280.9 L 539.29,163.28 L 542.01,80.0 L 544.73,312.11 L 547.46,94.58 L 550.18,184.88 L 552.9,319.67 L 555.62,80.0 L 558.35,315.71 L 561.07,187.08 L 563.79,87.9 L 566.52,330.0 L 569.24,92.35 L 571.96,239.14 L 574.69,329.1 L 577.41,82.07 L 580.13,324.64 L 582.86,170.78 L 585.58,105.42 L 588.3,330.0 L 591.03,82.79 L 593.75,250.51 L 596.47,285.43 L 599.2,80.0 L 601.92,327.4 L 604.64,139.48 L 607.37,117.71 L 610.09,327.21 L 612.81,80.0 L 615.54,268.61 L 618.26,262.36 L 620.98,80.0 L 623.71,329.83 L 626.43,127.65 L 629.15,156.51 L 631.87,330.0 L 634.6,80.0 L 637.32,293.94 L 640.04,249.56 L 642.77,81.49 L 645.49,330.0 L 648.21,115.46 L 650.94,188.01 L 653.66,330.0 L 656.38,80.78 L 659.11,305.51 L 661.83,217.2 L 664.55,80.0 L 667.28,330.0 L 670.0,97.55" fill="none" stroke="url(#steer-grad)"
        stroke-width="2.5" stroke-linecap="round" stroke-linejoin="round"
        stroke-dasharray="33696.93" stroke-dashoffset="33696.93">
    <animate attributeName="stroke-dashoffset"
             values="33696.93;33694.21;33691.48;33508.86;33461.28;33231.16;33078.86;32981.1;32731.09;32680.32;32480.99;32467.9;32245.68;32010.65;32007.93;31787.97;31779.98;31552.5;31386.4;31374.0;31220.0;31118.22;30978.19;30884.27;30752.93;30519.47;30392.65;30287.57;30055.73;29948.79;29847.34;29646.84;29490.06;29440.78;29202.17;28963.57;28868.66;28721.28;28479.05;28237.73;28088.45;27996.37;27756.2;27520.15;27408.8;27376.88;27229.62;27022.82;26867.77;26815.95;26623.47;26431.25;26328.31;26314.96;26198.7;25991.34;25848.43;25783.92;25781.19;25702.7;25551.09;25321.04;25221.8;25071.61;24822.23;24813.19;24572.7;24391.2;24323.54;24078.61;23839.18;23785.39;23688.52;23532.45;23348.96;23219.33;23165.4;22955.25;22745.1;22699.1;22549.6;22354.18;22157.24;22010.28;21960.22;21740.59;21520.97;21417.04;21309.25;21097.58;20867.21;20708.28;20636.79;20399.14;20167.17;20077.19;20029.04;19885.31;19679.84;19540.74;19474.31;19261.7;19050.09;18958.33;18933.62;18816.33;18617.32;18477.11;18418.24;18209.19;18000.13;17873.85;17868.16;17736.88;17518.5;17370.26;17300.06;17069.4;16838.73;16698.29;16684.52;16557.56;16334.95;16145.8;16112.22;15884.84;15657.46;15515.9;15498.47;15374.11;15182.62;15024.12;14991.0;14776.71;14562.43;14409.56;14379.27;14256.57;14041.18;13848.65;13845.2;13641.11;13412.05;13233.83;13188.0;13055.52;12828.13;12610.4;12593.42;12395.43;12171.03;11982.06;11898.58;11793.03;11569.08;11350.76;11318.4;11148.1;10939.94;10748.62;10636.04;10557.24;10335.47;10121.06;10083.86;9946.58;9764.84;9557.57;9428.93;9350.25;9124.13;8904.33;8846.43;8739.42;8568.25;8367.34;8249.68;8166.36;7934.23;7716.69;7626.35;7491.53;7251.84;7016.12;6887.46;6788.24;6546.13;6308.46;6161.64;6071.64;5824.6;5582.01;5428.13;5362.71;5138.12;4890.89;4723.15;4688.12;4482.67;4235.26;4047.32;4025.38;3815.86;3568.64;3380.01;3373.19;3190.81;2940.97;2738.77;2709.78;2536.27;2286.25;2072.3;2027.83;1859.74;1611.22;1396.66;1324.06;1182.04;932.81;708.06;619.71;482.48;232.47;0.0" dur="8s"
             repeatCount="indefinite" calcMode="linear"/>
  </path>

  <!-- Robot -->
  <circle r="9" fill="none" stroke="#ffe566" stroke-width="1.5">
    <animate attributeName="cx" values="60.0;62.72;65.45;68.17;70.89;73.62;76.34;79.06;81.79;84.51;87.23;89.96;92.68;95.4;98.12;100.85;103.57;106.29;109.02;111.74;114.46;117.19;119.91;122.63;125.36;128.08;130.8;133.53;136.25;138.97;141.7;144.42;147.14;149.87;152.59;155.31;158.04;160.76;163.48;166.21;168.93;171.65;174.38;177.1;179.82;182.54;185.27;187.99;190.71;193.44;196.16;198.88;201.61;204.33;207.05;209.78;212.5;215.22;217.95;220.67;223.39;226.12;228.84;231.56;234.29;237.01;239.73;242.46;245.18;247.9;250.62;253.35;256.07;258.79;261.52;264.24;266.96;269.69;272.41;275.13;277.86;280.58;283.3;286.03;288.75;291.47;294.2;296.92;299.64;302.37;305.09;307.81;310.54;313.26;315.98;318.71;321.43;324.15;326.88;329.6;332.32;335.04;337.77;340.49;343.21;345.94;348.66;351.38;354.11;356.83;359.55;362.28;365.0;367.72;370.45;373.17;375.89;378.62;381.34;384.06;386.79;389.51;392.23;394.96;397.68;400.4;403.12;405.85;408.57;411.29;414.02;416.74;419.46;422.19;424.91;427.63;430.36;433.08;435.8;438.53;441.25;443.97;446.7;449.42;452.14;454.87;457.59;460.31;463.04;465.76;468.48;471.21;473.93;476.65;479.37;482.1;484.82;487.54;490.27;492.99;495.71;498.44;501.16;503.88;506.61;509.33;512.05;514.78;517.5;520.22;522.95;525.67;528.39;531.12;533.84;536.56;539.29;542.01;544.73;547.46;550.18;552.9;555.62;558.35;561.07;563.79;566.52;569.24;571.96;574.69;577.41;580.13;582.86;585.58;588.3;591.03;593.75;596.47;599.2;601.92;604.64;607.37;610.09;612.81;615.54;618.26;620.98;623.71;626.43;629.15;631.87;634.6;637.32;640.04;642.77;645.49;648.21;650.94;653.66;656.38;659.11;661.83;664.55;667.28;670.0" dur="8s" repeatCount="indefinite" calcMode="linear"/>
    <animate attributeName="cy" values="80.0;80.0;80.0;262.6;310.1;80.0;232.28;330.0;80.0;130.69;330.0;317.19;94.99;330.0;330.0;110.05;102.54;330.0;163.92;176.02;330.0;228.26;88.26;182.14;313.45;80.0;206.79;311.83;80.0;186.9;85.48;285.96;129.21;80.0;318.59;80.0;174.87;322.22;80.0;321.3;172.04;80.0;320.15;84.11;195.42;227.23;80.0;286.78;131.75;80.0;272.46;80.26;183.16;196.23;80.0;287.34;144.45;80.0;80.0;158.44;310.03;80.0;179.21;329.37;80.0;88.62;329.09;147.61;80.0;324.91;85.49;139.21;236.04;80.0;263.47;133.86;80.0;290.13;80.0;125.92;275.4;80.0;276.92;129.99;80.0;299.61;80.0;183.89;291.65;80.0;310.35;151.44;80.0;317.63;85.68;175.62;223.7;80.0;285.45;146.37;80.0;292.59;80.99;172.71;197.26;80.0;278.99;138.8;80.0;289.04;80.0;206.25;211.25;80.0;298.36;150.14;80.0;310.65;80.0;220.42;206.93;80.0;302.6;113.47;80.0;307.36;80.0;221.54;204.33;80.0;271.48;113.01;80.0;294.27;80.0;232.84;202.67;80.0;295.37;102.86;104.98;309.05;80.0;258.2;212.45;80.0;307.37;89.65;106.4;304.38;80.0;268.95;185.51;80.0;303.93;85.62;117.86;288.14;80.0;271.3;158.75;80.0;301.76;87.37;124.47;261.72;80.0;287.25;158.64;80.0;306.1;86.32;144.16;251.14;80.0;280.9;163.28;80.0;312.11;94.58;184.88;319.67;80.0;315.71;187.08;87.9;330.0;92.35;239.14;329.1;82.07;324.64;170.78;105.42;330.0;82.79;250.51;285.43;80.0;327.4;139.48;117.71;327.21;80.0;268.61;262.36;80.0;329.83;127.65;156.51;330.0;80.0;293.94;249.56;81.49;330.0;115.46;188.01;330.0;80.78;305.51;217.2;80.0;330.0;97.55" dur="8s" repeatCount="indefinite" calcMode="linear"/>
    <animate attributeName="r"       values="9;22;9"   dur="2s" repeatCount="indefinite"/>
    <animate attributeName="opacity" values="0.8;0;0.8" dur="2s" repeatCount="indefinite"/>
  </circle>
  <circle r="5.5" fill="#ffe566">
    <animate attributeName="cx" values="60.0;62.72;65.45;68.17;70.89;73.62;76.34;79.06;81.79;84.51;87.23;89.96;92.68;95.4;98.12;100.85;103.57;106.29;109.02;111.74;114.46;117.19;119.91;122.63;125.36;128.08;130.8;133.53;136.25;138.97;141.7;144.42;147.14;149.87;152.59;155.31;158.04;160.76;163.48;166.21;168.93;171.65;174.38;177.1;179.82;182.54;185.27;187.99;190.71;193.44;196.16;198.88;201.61;204.33;207.05;209.78;212.5;215.22;217.95;220.67;223.39;226.12;228.84;231.56;234.29;237.01;239.73;242.46;245.18;247.9;250.62;253.35;256.07;258.79;261.52;264.24;266.96;269.69;272.41;275.13;277.86;280.58;283.3;286.03;288.75;291.47;294.2;296.92;299.64;302.37;305.09;307.81;310.54;313.26;315.98;318.71;321.43;324.15;326.88;329.6;332.32;335.04;337.77;340.49;343.21;345.94;348.66;351.38;354.11;356.83;359.55;362.28;365.0;367.72;370.45;373.17;375.89;378.62;381.34;384.06;386.79;389.51;392.23;394.96;397.68;400.4;403.12;405.85;408.57;411.29;414.02;416.74;419.46;422.19;424.91;427.63;430.36;433.08;435.8;438.53;441.25;443.97;446.7;449.42;452.14;454.87;457.59;460.31;463.04;465.76;468.48;471.21;473.93;476.65;479.37;482.1;484.82;487.54;490.27;492.99;495.71;498.44;501.16;503.88;506.61;509.33;512.05;514.78;517.5;520.22;522.95;525.67;528.39;531.12;533.84;536.56;539.29;542.01;544.73;547.46;550.18;552.9;555.62;558.35;561.07;563.79;566.52;569.24;571.96;574.69;577.41;580.13;582.86;585.58;588.3;591.03;593.75;596.47;599.2;601.92;604.64;607.37;610.09;612.81;615.54;618.26;620.98;623.71;626.43;629.15;631.87;634.6;637.32;640.04;642.77;645.49;648.21;650.94;653.66;656.38;659.11;661.83;664.55;667.28;670.0" dur="8s" repeatCount="indefinite" calcMode="linear"/>
    <animate attributeName="cy" values="80.0;80.0;80.0;262.6;310.1;80.0;232.28;330.0;80.0;130.69;330.0;317.19;94.99;330.0;330.0;110.05;102.54;330.0;163.92;176.02;330.0;228.26;88.26;182.14;313.45;80.0;206.79;311.83;80.0;186.9;85.48;285.96;129.21;80.0;318.59;80.0;174.87;322.22;80.0;321.3;172.04;80.0;320.15;84.11;195.42;227.23;80.0;286.78;131.75;80.0;272.46;80.26;183.16;196.23;80.0;287.34;144.45;80.0;80.0;158.44;310.03;80.0;179.21;329.37;80.0;88.62;329.09;147.61;80.0;324.91;85.49;139.21;236.04;80.0;263.47;133.86;80.0;290.13;80.0;125.92;275.4;80.0;276.92;129.99;80.0;299.61;80.0;183.89;291.65;80.0;310.35;151.44;80.0;317.63;85.68;175.62;223.7;80.0;285.45;146.37;80.0;292.59;80.99;172.71;197.26;80.0;278.99;138.8;80.0;289.04;80.0;206.25;211.25;80.0;298.36;150.14;80.0;310.65;80.0;220.42;206.93;80.0;302.6;113.47;80.0;307.36;80.0;221.54;204.33;80.0;271.48;113.01;80.0;294.27;80.0;232.84;202.67;80.0;295.37;102.86;104.98;309.05;80.0;258.2;212.45;80.0;307.37;89.65;106.4;304.38;80.0;268.95;185.51;80.0;303.93;85.62;117.86;288.14;80.0;271.3;158.75;80.0;301.76;87.37;124.47;261.72;80.0;287.25;158.64;80.0;306.1;86.32;144.16;251.14;80.0;280.9;163.28;80.0;312.11;94.58;184.88;319.67;80.0;315.71;187.08;87.9;330.0;92.35;239.14;329.1;82.07;324.64;170.78;105.42;330.0;82.79;250.51;285.43;80.0;327.4;139.48;117.71;327.21;80.0;268.61;262.36;80.0;329.83;127.65;156.51;330.0;80.0;293.94;249.56;81.49;330.0;115.46;188.01;330.0;80.78;305.51;217.2;80.0;330.0;97.55" dur="8s" repeatCount="indefinite" calcMode="linear"/>
  </circle>
  <circle r="2" fill="white">
    <animate attributeName="cx" values="60.0;62.72;65.45;68.17;70.89;73.62;76.34;79.06;81.79;84.51;87.23;89.96;92.68;95.4;98.12;100.85;103.57;106.29;109.02;111.74;114.46;117.19;119.91;122.63;125.36;128.08;130.8;133.53;136.25;138.97;141.7;144.42;147.14;149.87;152.59;155.31;158.04;160.76;163.48;166.21;168.93;171.65;174.38;177.1;179.82;182.54;185.27;187.99;190.71;193.44;196.16;198.88;201.61;204.33;207.05;209.78;212.5;215.22;217.95;220.67;223.39;226.12;228.84;231.56;234.29;237.01;239.73;242.46;245.18;247.9;250.62;253.35;256.07;258.79;261.52;264.24;266.96;269.69;272.41;275.13;277.86;280.58;283.3;286.03;288.75;291.47;294.2;296.92;299.64;302.37;305.09;307.81;310.54;313.26;315.98;318.71;321.43;324.15;326.88;329.6;332.32;335.04;337.77;340.49;343.21;345.94;348.66;351.38;354.11;356.83;359.55;362.28;365.0;367.72;370.45;373.17;375.89;378.62;381.34;384.06;386.79;389.51;392.23;394.96;397.68;400.4;403.12;405.85;408.57;411.29;414.02;416.74;419.46;422.19;424.91;427.63;430.36;433.08;435.8;438.53;441.25;443.97;446.7;449.42;452.14;454.87;457.59;460.31;463.04;465.76;468.48;471.21;473.93;476.65;479.37;482.1;484.82;487.54;490.27;492.99;495.71;498.44;501.16;503.88;506.61;509.33;512.05;514.78;517.5;520.22;522.95;525.67;528.39;531.12;533.84;536.56;539.29;542.01;544.73;547.46;550.18;552.9;555.62;558.35;561.07;563.79;566.52;569.24;571.96;574.69;577.41;580.13;582.86;585.58;588.3;591.03;593.75;596.47;599.2;601.92;604.64;607.37;610.09;612.81;615.54;618.26;620.98;623.71;626.43;629.15;631.87;634.6;637.32;640.04;642.77;645.49;648.21;650.94;653.66;656.38;659.11;661.83;664.55;667.28;670.0" dur="8s" repeatCount="indefinite" calcMode="linear"/>
    <animate attributeName="cy" values="80.0;80.0;80.0;262.6;310.1;80.0;232.28;330.0;80.0;130.69;330.0;317.19;94.99;330.0;330.0;110.05;102.54;330.0;163.92;176.02;330.0;228.26;88.26;182.14;313.45;80.0;206.79;311.83;80.0;186.9;85.48;285.96;129.21;80.0;318.59;80.0;174.87;322.22;80.0;321.3;172.04;80.0;320.15;84.11;195.42;227.23;80.0;286.78;131.75;80.0;272.46;80.26;183.16;196.23;80.0;287.34;144.45;80.0;80.0;158.44;310.03;80.0;179.21;329.37;80.0;88.62;329.09;147.61;80.0;324.91;85.49;139.21;236.04;80.0;263.47;133.86;80.0;290.13;80.0;125.92;275.4;80.0;276.92;129.99;80.0;299.61;80.0;183.89;291.65;80.0;310.35;151.44;80.0;317.63;85.68;175.62;223.7;80.0;285.45;146.37;80.0;292.59;80.99;172.71;197.26;80.0;278.99;138.8;80.0;289.04;80.0;206.25;211.25;80.0;298.36;150.14;80.0;310.65;80.0;220.42;206.93;80.0;302.6;113.47;80.0;307.36;80.0;221.54;204.33;80.0;271.48;113.01;80.0;294.27;80.0;232.84;202.67;80.0;295.37;102.86;104.98;309.05;80.0;258.2;212.45;80.0;307.37;89.65;106.4;304.38;80.0;268.95;185.51;80.0;303.93;85.62;117.86;288.14;80.0;271.3;158.75;80.0;301.76;87.37;124.47;261.72;80.0;287.25;158.64;80.0;306.1;86.32;144.16;251.14;80.0;280.9;163.28;80.0;312.11;94.58;184.88;319.67;80.0;315.71;187.08;87.9;330.0;92.35;239.14;329.1;82.07;324.64;170.78;105.42;330.0;82.79;250.51;285.43;80.0;327.4;139.48;117.71;327.21;80.0;268.61;262.36;80.0;329.83;127.65;156.51;330.0;80.0;293.94;249.56;81.49;330.0;115.46;188.01;330.0;80.78;305.51;217.2;80.0;330.0;97.55" dur="8s" repeatCount="indefinite" calcMode="linear"/>
  </circle>

  <!-- Légende -->
  <g transform="translate(240.0,36)">
    <rect x="0" y="-11" width="220" height="22" rx="11"
          fill="rgba(20,15,35,0.85)" stroke="rgba(0,229,204,0.35)" stroke-width="0.75"/>
    <line x1="16" y1="0" x2="38" y2="0" stroke="url(#steer-grad)" stroke-width="2.5" stroke-linecap="round"/>
    <text x="48" y="4" font-size="10" letter-spacing="1.5" font-weight="500"
          fill="rgba(255,180,230,0.85)"
          font-family="'JetBrains Mono',monospace">FRONT STEERING ANGLE</text>
  </g>

</svg>