<svg xmlns="http://www.w3.org/2000/svg" viewBox="0 0 700 400" width="100%" class="trajectory-svg">
      <defs>
        <linearGradient id="trail-grad-e" x1="60" y1="0" x2="670" y2="0" gradientUnits="userSpaceOnUse">
          <stop offset="0%" stop-color="#aa00ff"/><stop offset="100%" stop-color="#ff00cc"/>
        </linearGradient>
      </defs>

      <rect width="700" height="400" fill="#0d0a1a"/>
      <g class="grid"><line x1="60.0" y1="50" x2="60.0" y2="360" stroke="rgba(0,229,204,1)" stroke-width="0.5" opacity="0.06"/>
<line x1="161.66666666666669" y1="50" x2="161.66666666666669" y2="360" stroke="rgba(0,229,204,1)" stroke-width="0.5" opacity="0.06"/>
<line x1="263.33333333333337" y1="50" x2="263.33333333333337" y2="360" stroke="rgba(0,229,204,1)" stroke-width="0.5" opacity="0.06"/>
<line x1="365.0" y1="50" x2="365.0" y2="360" stroke="rgba(0,229,204,1)" stroke-width="0.5" opacity="0.06"/>
<line x1="466.6666666666667" y1="50" x2="466.6666666666667" y2="360" stroke="rgba(0,229,204,1)" stroke-width="0.5" opacity="0.06"/>
<line x1="568.3333333333333" y1="50" x2="568.3333333333333" y2="360" stroke="rgba(0,229,204,1)" stroke-width="0.5" opacity="0.06"/>
<line x1="670.0" y1="50" x2="670.0" y2="360" stroke="rgba(0,229,204,1)" stroke-width="0.5" opacity="0.06"/>
<line x1="60" y1="50.0" x2="670" y2="50.0" stroke="rgba(0,229,204,1)" stroke-width="0.5" opacity="0.18"/>
<line x1="60" y1="101.66666666666666" x2="670" y2="101.66666666666666" stroke="rgba(0,229,204,1)" stroke-width="0.5" opacity="0.18"/>
<line x1="60" y1="153.33333333333331" x2="670" y2="153.33333333333331" stroke="rgba(0,229,204,1)" stroke-width="0.5" opacity="0.18"/>
<line x1="60" y1="205.0" x2="670" y2="205.0" stroke="rgba(0,229,204,1)" stroke-width="0.5" opacity="0.18"/>
<line x1="60" y1="256.66666666666663" x2="670" y2="256.66666666666663" stroke="rgba(0,229,204,1)" stroke-width="0.5" opacity="0.18"/>
<line x1="60" y1="308.3333333333333" x2="670" y2="308.3333333333333" stroke="rgba(0,229,204,1)" stroke-width="0.5" opacity="0.18"/>
<line x1="60" y1="360.0" x2="670" y2="360.0" stroke="rgba(0,229,204,1)" stroke-width="0.5" opacity="0.18"/>
</g>
      <line x1="60" y1="189.15" x2="670" y2="189.15" stroke="rgba(255,255,255,0.5)" stroke-width="1.5" stroke-dasharray="6 6"/>
      <rect x="60" y="50" width="610" height="310" fill="none" stroke="rgba(0,229,204,0.15)" stroke-width="0.75" rx="4"/>

      <g class="axis-labels"><text x="60.0" y="380" font-size="10" fill="rgba(255,255,255,0.6)" text-anchor="middle" font-family="system-ui, sans-serif">0.1s</text>
<text x="161.66666666666669" y="380" font-size="10" fill="rgba(255,255,255,0.6)" text-anchor="middle" font-family="system-ui, sans-serif">7.6s</text>
<text x="263.33333333333337" y="380" font-size="10" fill="rgba(255,255,255,0.6)" text-anchor="middle" font-family="system-ui, sans-serif">15.0s</text>
<text x="365.0" y="380" font-size="10" fill="rgba(255,255,255,0.6)" text-anchor="middle" font-family="system-ui, sans-serif">22.5s</text>
<text x="466.6666666666667" y="380" font-size="10" fill="rgba(255,255,255,0.6)" text-anchor="middle" font-family="system-ui, sans-serif">30.0s</text>
<text x="568.3333333333333" y="380" font-size="10" fill="rgba(255,255,255,0.6)" text-anchor="middle" font-family="system-ui, sans-serif">37.4s</text>
<text x="670.0" y="380" font-size="10" fill="rgba(255,255,255,0.6)" text-anchor="middle" font-family="system-ui, sans-serif">44.9s</text>
<text x="50" y="54.0" font-size="10" fill="rgba(255,255,255,0.6)" text-anchor="end" font-family="system-ui, sans-serif">0.48</text>
<text x="50" y="105.66666666666666" font-size="10" fill="rgba(255,255,255,0.6)" text-anchor="end" font-family="system-ui, sans-serif">0.30</text>
<text x="50" y="157.33333333333331" font-size="10" fill="rgba(255,255,255,0.6)" text-anchor="end" font-family="system-ui, sans-serif">0.12</text>
<text x="50" y="209.0" font-size="10" fill="rgba(255,255,255,0.6)" text-anchor="end" font-family="system-ui, sans-serif">-0.05</text>
<text x="50" y="260.66666666666663" font-size="10" fill="rgba(255,255,255,0.6)" text-anchor="end" font-family="system-ui, sans-serif">-0.23</text>
<text x="50" y="312.3333333333333" font-size="10" fill="rgba(255,255,255,0.6)" text-anchor="end" font-family="system-ui, sans-serif">-0.41</text>
<text x="50" y="364.0" font-size="10" fill="rgba(255,255,255,0.6)" text-anchor="end" font-family="system-ui, sans-serif">-0.59</text>
</g>
      <text x="50" y="35" font-size="11" font-weight="bold" fill="rgba(0,229,204,0.8)" text-anchor="end" font-family="system-ui, sans-serif">Error (m)</text>
      <text x="670" y="395" font-size="11" font-weight="bold" fill="rgba(0,229,204,0.8)" text-anchor="end" font-family="system-ui, sans-serif">Time (s)</text>

      <path d="M 60.0,334.17 L 62.72,319.02 L 65.45,290.16 L 68.17,263.89 L 70.89,241.88 L 73.62,220.7 L 76.34,197.28 L 79.06,171.04 L 81.79,143.66 L 84.51,117.96 L 87.23,96.79 L 89.96,82.34 L 92.68,75.83 L 95.4,77.44 L 98.12,86.47 L 100.85,101.69 L 103.57,121.61 L 106.29,144.67 L 109.02,169.35 L 111.74,194.24 L 114.46,217.99 L 117.19,239.36 L 119.91,257.18 L 122.63,270.46 L 125.36,278.45 L 128.08,280.75 L 130.8,277.32 L 133.53,268.58 L 136.25,255.96 L 138.97,241.43 L 141.7,225.35 L 144.42,208.27 L 147.14,191.15 L 149.87,175.1 L 152.59,161.17 L 155.31,150.21 L 158.04,142.85 L 160.76,139.3 L 163.48,139.54 L 166.21,143.31 L 168.93,150.16 L 171.65,159.52 L 174.38,170.67 L 177.1,182.91 L 179.82,195.47 L 182.54,207.49 L 185.27,218.28 L 187.99,227.2 L 190.71,233.71 L 193.44,237.41 L 196.16,238.16 L 198.88,236.04 L 201.61,231.32 L 204.33,224.47 L 207.05,216.11 L 209.78,207.02 L 212.5,198.06 L 215.22,188.73 L 217.95,176.33 L 220.67,164.57 L 223.39,152.94 L 226.12,140.75 L 228.84,128.86 L 231.56,119.48 L 234.29,114.84 L 237.01,116.29 L 239.73,124.02 L 242.46,137.15 L 245.18,154.18 L 247.9,173.42 L 250.62,193.28 L 253.35,212.33 L 256.07,229.41 L 258.79,243.57 L 261.52,254.0 L 264.24,260.13 L 266.96,261.64 L 269.69,258.48 L 272.41,250.91 L 275.13,239.56 L 277.86,225.24 L 280.58,208.94 L 283.3,191.78 L 286.03,174.92 L 288.75,159.42 L 291.47,146.26 L 294.2,136.24 L 296.92,129.96 L 299.64,127.74 L 302.37,129.62 L 305.09,135.33 L 307.81,144.35 L 310.54,156.01 L 313.26,169.48 L 315.98,183.87 L 318.71,198.24 L 321.43,211.67 L 324.15,223.39 L 326.88,232.67 L 329.6,238.98 L 332.32,241.92 L 335.04,241.33 L 337.77,237.32 L 340.49,230.24 L 343.21,220.65 L 345.94,209.24 L 348.66,196.83 L 351.38,184.27 L 354.11,172.37 L 356.83,161.87 L 359.55,153.38 L 362.28,147.4 L 365.0,144.27 L 367.72,144.14 L 370.45,146.93 L 373.17,152.4 L 375.89,160.06 L 378.62,169.39 L 381.34,179.72 L 384.06,190.42 L 386.79,200.79 L 389.51,210.13 L 392.23,217.89 L 394.96,223.61 L 397.68,226.92 L 400.4,227.67 L 403.12,225.84 L 405.85,221.63 L 408.57,215.42 L 411.29,207.66 L 414.02,198.87 L 416.74,189.63 L 419.46,180.54 L 422.19,172.19 L 424.91,165.16 L 427.63,159.84 L 430.36,156.54 L 433.08,155.41 L 435.8,156.47 L 438.53,159.58 L 441.25,164.49 L 443.97,170.79 L 446.7,178.04 L 449.42,185.74 L 452.14,193.36 L 454.87,200.43 L 457.59,206.5 L 460.31,211.15 L 463.04,214.1 L 465.76,215.22 L 468.48,214.41 L 471.21,211.75 L 473.93,207.48 L 476.65,202.03 L 479.37,195.86 L 482.1,189.48 L 484.82,183.4 L 487.54,178.15 L 490.27,174.1 L 492.99,171.49 L 495.71,170.42 L 498.44,170.84 L 501.16,172.64 L 503.88,175.64 L 506.61,179.55 L 509.33,184.1 L 512.05,188.94 L 514.78,193.77 L 517.5,198.25 L 520.22,202.05 L 522.95,205.0 L 525.67,206.91 L 528.39,207.64 L 531.12,207.14 L 533.84,205.52 L 536.56,202.89 L 539.29,199.39 L 542.01,194.88 L 544.73,189.21 L 547.46,182.4 L 550.18,174.73 L 552.9,166.75 L 555.62,159.23 L 558.35,152.95 L 561.07,148.58 L 563.79,146.77 L 566.52,148.19 L 569.24,152.28 L 571.96,158.27 L 574.69,165.47 L 577.41,173.39 L 580.13,181.63 L 582.86,189.86 L 585.58,197.7 L 588.3,204.78 L 591.03,210.71 L 593.75,215.14 L 596.47,217.83 L 599.2,218.64 L 601.92,217.57 L 604.64,214.76 L 607.37,210.45 L 610.09,204.97 L 612.81,198.71 L 615.54,192.08 L 618.26,185.52 L 620.98,179.4 L 623.71,174.1 L 626.43,169.9 L 629.15,167.03 L 631.87,165.61 L 634.6,165.68 L 637.32,167.2 L 640.04,170.0 L 642.77,173.89 L 645.49,178.57 L 648.21,183.73 L 650.94,189.04 L 653.66,194.17 L 656.38,198.82 L 659.11,202.7 L 661.83,205.62 L 664.55,207.42 L 667.28,208.04 L 670.0,207.48" fill="none" stroke="url(#trail-grad-e)" stroke-width="2.5" stroke-linecap="round" stroke-linejoin="round"
            stroke-dasharray="2006.05" stroke-dashoffset="2006.05">
        <animate attributeName="stroke-dashoffset" values="2006.05;1990.66;1961.67;1935.26;1913.08;1891.73;1868.15;1841.77;1814.25;1788.41;1767.06;1752.36;1745.3;1742.14;1732.71;1717.25;1697.14;1673.92;1649.09;1624.06;1600.15;1578.61;1560.58;1547.02;1538.58;1535.02;1530.64;1521.49;1508.58;1493.79;1477.48;1460.19;1442.85;1426.57;1412.38;1401.09;1393.24;1388.76;1386.03;1381.38;1374.01;1364.26;1352.78;1340.24;1327.39;1315.07;1303.94;1294.61;1287.56;1282.96;1280.14;1276.69;1271.24;1263.87;1255.08;1245.58;1236.22;1226.5;1213.81;1201.74;1189.79;1177.3;1165.1;1155.34;1149.95;1146.87;1138.68;1125.26;1108.02;1088.59;1068.54;1049.3;1032.0;1017.58;1006.8;1000.1;996.98;992.81;984.76;973.09;958.52;941.99;924.62;907.54;891.8;878.36;867.98;861.13;857.62;854.31;847.98;838.56;826.59;812.84;798.2;783.57;769.87;757.84;748.16;741.29;737.29;734.5;729.65;722.07;712.1;700.37;687.66;674.81;662.6;651.76;642.84;636.27;632.12;629.4;625.49;619.39;611.26;601.54;590.85;579.81;569.09;559.36;551.14;544.8;540.52;537.7;534.42;529.4;522.62;514.4;505.19;495.56;486.07;477.29;469.75;463.77;459.49;456.55;453.63;449.49;443.88;437.01;429.27;421.1;413.01;405.43;398.78;393.39;389.37;386.43;383.59;379.78;374.72;368.63;361.89;354.95;348.28;342.37;337.49;333.72;330.8;328.03;324.77;320.72;315.95;310.65;305.1;299.55;294.31;289.64;285.62;282.29;279.48;276.7;273.54;269.75;265.32;260.05;253.76;246.42;238.28;229.85;221.86;215.01;209.86;206.59;203.52;198.61;192.03;184.33;175.95;167.28;158.6;150.31;142.72;136.19;131.0;127.17;124.32;121.4;117.49;112.39;106.27;99.44;92.27;85.17;78.47;72.51;67.51;63.55;60.49;57.76;54.64;50.74;45.98;40.57;34.74;28.77;22.96;17.57;12.83;8.84;5.58;2.78;0.0" dur="8s" repeatCount="indefinite" calcMode="linear"/>
      </path>

      <g>
        <circle r="9" fill="none" stroke="#ffe566" stroke-width="1.5">
          <animate attributeName="cx" values="60.0;62.72;65.45;68.17;70.89;73.62;76.34;79.06;81.79;84.51;87.23;89.96;92.68;95.4;98.12;100.85;103.57;106.29;109.02;111.74;114.46;117.19;119.91;122.63;125.36;128.08;130.8;133.53;136.25;138.97;141.7;144.42;147.14;149.87;152.59;155.31;158.04;160.76;163.48;166.21;168.93;171.65;174.38;177.1;179.82;182.54;185.27;187.99;190.71;193.44;196.16;198.88;201.61;204.33;207.05;209.78;212.5;215.22;217.95;220.67;223.39;226.12;228.84;231.56;234.29;237.01;239.73;242.46;245.18;247.9;250.62;253.35;256.07;258.79;261.52;264.24;266.96;269.69;272.41;275.13;277.86;280.58;283.3;286.03;288.75;291.47;294.2;296.92;299.64;302.37;305.09;307.81;310.54;313.26;315.98;318.71;321.43;324.15;326.88;329.6;332.32;335.04;337.77;340.49;343.21;345.94;348.66;351.38;354.11;356.83;359.55;362.28;365.0;367.72;370.45;373.17;375.89;378.62;381.34;384.06;386.79;389.51;392.23;394.96;397.68;400.4;403.12;405.85;408.57;411.29;414.02;416.74;419.46;422.19;424.91;427.63;430.36;433.08;435.8;438.53;441.25;443.97;446.7;449.42;452.14;454.87;457.59;460.31;463.04;465.76;468.48;471.21;473.93;476.65;479.37;482.1;484.82;487.54;490.27;492.99;495.71;498.44;501.16;503.88;506.61;509.33;512.05;514.78;517.5;520.22;522.95;525.67;528.39;531.12;533.84;536.56;539.29;542.01;544.73;547.46;550.18;552.9;555.62;558.35;561.07;563.79;566.52;569.24;571.96;574.69;577.41;580.13;582.86;585.58;588.3;591.03;593.75;596.47;599.2;601.92;604.64;607.37;610.09;612.81;615.54;618.26;620.98;623.71;626.43;629.15;631.87;634.6;637.32;640.04;642.77;645.49;648.21;650.94;653.66;656.38;659.11;661.83;664.55;667.28;670.0" dur="8s" repeatCount="indefinite" calcMode="linear"/>
          <animate attributeName="cy" values="334.17;319.02;290.16;263.89;241.88;220.7;197.28;171.04;143.66;117.96;96.79;82.34;75.83;77.44;86.47;101.69;121.61;144.67;169.35;194.24;217.99;239.36;257.18;270.46;278.45;280.75;277.32;268.58;255.96;241.43;225.35;208.27;191.15;175.1;161.17;150.21;142.85;139.3;139.54;143.31;150.16;159.52;170.67;182.91;195.47;207.49;218.28;227.2;233.71;237.41;238.16;236.04;231.32;224.47;216.11;207.02;198.06;188.73;176.33;164.57;152.94;140.75;128.86;119.48;114.84;116.29;124.02;137.15;154.18;173.42;193.28;212.33;229.41;243.57;254.0;260.13;261.64;258.48;250.91;239.56;225.24;208.94;191.78;174.92;159.42;146.26;136.24;129.96;127.74;129.62;135.33;144.35;156.01;169.48;183.87;198.24;211.67;223.39;232.67;238.98;241.92;241.33;237.32;230.24;220.65;209.24;196.83;184.27;172.37;161.87;153.38;147.4;144.27;144.14;146.93;152.4;160.06;169.39;179.72;190.42;200.79;210.13;217.89;223.61;226.92;227.67;225.84;221.63;215.42;207.66;198.87;189.63;180.54;172.19;165.16;159.84;156.54;155.41;156.47;159.58;164.49;170.79;178.04;185.74;193.36;200.43;206.5;211.15;214.1;215.22;214.41;211.75;207.48;202.03;195.86;189.48;183.4;178.15;174.1;171.49;170.42;170.84;172.64;175.64;179.55;184.1;188.94;193.77;198.25;202.05;205.0;206.91;207.64;207.14;205.52;202.89;199.39;194.88;189.21;182.4;174.73;166.75;159.23;152.95;148.58;146.77;148.19;152.28;158.27;165.47;173.39;181.63;189.86;197.7;204.78;210.71;215.14;217.83;218.64;217.57;214.76;210.45;204.97;198.71;192.08;185.52;179.4;174.1;169.9;167.03;165.61;165.68;167.2;170.0;173.89;178.57;183.73;189.04;194.17;198.82;202.7;205.62;207.42;208.04;207.48" dur="8s" repeatCount="indefinite" calcMode="linear"/>
          <animate attributeName="r" values="9;24;9" dur="2s" repeatCount="indefinite"/>
          <animate attributeName="opacity" values="0.8;0;0.8" dur="2s" repeatCount="indefinite"/>
        </circle>
        <circle r="5.5" fill="#ffe566">
          <animate attributeName="cx" values="60.0;62.72;65.45;68.17;70.89;73.62;76.34;79.06;81.79;84.51;87.23;89.96;92.68;95.4;98.12;100.85;103.57;106.29;109.02;111.74;114.46;117.19;119.91;122.63;125.36;128.08;130.8;133.53;136.25;138.97;141.7;144.42;147.14;149.87;152.59;155.31;158.04;160.76;163.48;166.21;168.93;171.65;174.38;177.1;179.82;182.54;185.27;187.99;190.71;193.44;196.16;198.88;201.61;204.33;207.05;209.78;212.5;215.22;217.95;220.67;223.39;226.12;228.84;231.56;234.29;237.01;239.73;242.46;245.18;247.9;250.62;253.35;256.07;258.79;261.52;264.24;266.96;269.69;272.41;275.13;277.86;280.58;283.3;286.03;288.75;291.47;294.2;296.92;299.64;302.37;305.09;307.81;310.54;313.26;315.98;318.71;321.43;324.15;326.88;329.6;332.32;335.04;337.77;340.49;343.21;345.94;348.66;351.38;354.11;356.83;359.55;362.28;365.0;367.72;370.45;373.17;375.89;378.62;381.34;384.06;386.79;389.51;392.23;394.96;397.68;400.4;403.12;405.85;408.57;411.29;414.02;416.74;419.46;422.19;424.91;427.63;430.36;433.08;435.8;438.53;441.25;443.97;446.7;449.42;452.14;454.87;457.59;460.31;463.04;465.76;468.48;471.21;473.93;476.65;479.37;482.1;484.82;487.54;490.27;492.99;495.71;498.44;501.16;503.88;506.61;509.33;512.05;514.78;517.5;520.22;522.95;525.67;528.39;531.12;533.84;536.56;539.29;542.01;544.73;547.46;550.18;552.9;555.62;558.35;561.07;563.79;566.52;569.24;571.96;574.69;577.41;580.13;582.86;585.58;588.3;591.03;593.75;596.47;599.2;601.92;604.64;607.37;610.09;612.81;615.54;618.26;620.98;623.71;626.43;629.15;631.87;634.6;637.32;640.04;642.77;645.49;648.21;650.94;653.66;656.38;659.11;661.83;664.55;667.28;670.0" dur="8s" repeatCount="indefinite" calcMode="linear"/>
          <animate attributeName="cy" values="334.17;319.02;290.16;263.89;241.88;220.7;197.28;171.04;143.66;117.96;96.79;82.34;75.83;77.44;86.47;101.69;121.61;144.67;169.35;194.24;217.99;239.36;257.18;270.46;278.45;280.75;277.32;268.58;255.96;241.43;225.35;208.27;191.15;175.1;161.17;150.21;142.85;139.3;139.54;143.31;150.16;159.52;170.67;182.91;195.47;207.49;218.28;227.2;233.71;237.41;238.16;236.04;231.32;224.47;216.11;207.02;198.06;188.73;176.33;164.57;152.94;140.75;128.86;119.48;114.84;116.29;124.02;137.15;154.18;173.42;193.28;212.33;229.41;243.57;254.0;260.13;261.64;258.48;250.91;239.56;225.24;208.94;191.78;174.92;159.42;146.26;136.24;129.96;127.74;129.62;135.33;144.35;156.01;169.48;183.87;198.24;211.67;223.39;232.67;238.98;241.92;241.33;237.32;230.24;220.65;209.24;196.83;184.27;172.37;161.87;153.38;147.4;144.27;144.14;146.93;152.4;160.06;169.39;179.72;190.42;200.79;210.13;217.89;223.61;226.92;227.67;225.84;221.63;215.42;207.66;198.87;189.63;180.54;172.19;165.16;159.84;156.54;155.41;156.47;159.58;164.49;170.79;178.04;185.74;193.36;200.43;206.5;211.15;214.1;215.22;214.41;211.75;207.48;202.03;195.86;189.48;183.4;178.15;174.1;171.49;170.42;170.84;172.64;175.64;179.55;184.1;188.94;193.77;198.25;202.05;205.0;206.91;207.64;207.14;205.52;202.89;199.39;194.88;189.21;182.4;174.73;166.75;159.23;152.95;148.58;146.77;148.19;152.28;158.27;165.47;173.39;181.63;189.86;197.7;204.78;210.71;215.14;217.83;218.64;217.57;214.76;210.45;204.97;198.71;192.08;185.52;179.4;174.1;169.9;167.03;165.61;165.68;167.2;170.0;173.89;178.57;183.73;189.04;194.17;198.82;202.7;205.62;207.42;208.04;207.48" dur="8s" repeatCount="indefinite" calcMode="linear"/>
        </circle>
        <circle r="2" fill="white">
          <animate attributeName="cx" values="60.0;62.72;65.45;68.17;70.89;73.62;76.34;79.06;81.79;84.51;87.23;89.96;92.68;95.4;98.12;100.85;103.57;106.29;109.02;111.74;114.46;117.19;119.91;122.63;125.36;128.08;130.8;133.53;136.25;138.97;141.7;144.42;147.14;149.87;152.59;155.31;158.04;160.76;163.48;166.21;168.93;171.65;174.38;177.1;179.82;182.54;185.27;187.99;190.71;193.44;196.16;198.88;201.61;204.33;207.05;209.78;212.5;215.22;217.95;220.67;223.39;226.12;228.84;231.56;234.29;237.01;239.73;242.46;245.18;247.9;250.62;253.35;256.07;258.79;261.52;264.24;266.96;269.69;272.41;275.13;277.86;280.58;283.3;286.03;288.75;291.47;294.2;296.92;299.64;302.37;305.09;307.81;310.54;313.26;315.98;318.71;321.43;324.15;326.88;329.6;332.32;335.04;337.77;340.49;343.21;345.94;348.66;351.38;354.11;356.83;359.55;362.28;365.0;367.72;370.45;373.17;375.89;378.62;381.34;384.06;386.79;389.51;392.23;394.96;397.68;400.4;403.12;405.85;408.57;411.29;414.02;416.74;419.46;422.19;424.91;427.63;430.36;433.08;435.8;438.53;441.25;443.97;446.7;449.42;452.14;454.87;457.59;460.31;463.04;465.76;468.48;471.21;473.93;476.65;479.37;482.1;484.82;487.54;490.27;492.99;495.71;498.44;501.16;503.88;506.61;509.33;512.05;514.78;517.5;520.22;522.95;525.67;528.39;531.12;533.84;536.56;539.29;542.01;544.73;547.46;550.18;552.9;555.62;558.35;561.07;563.79;566.52;569.24;571.96;574.69;577.41;580.13;582.86;585.58;588.3;591.03;593.75;596.47;599.2;601.92;604.64;607.37;610.09;612.81;615.54;618.26;620.98;623.71;626.43;629.15;631.87;634.6;637.32;640.04;642.77;645.49;648.21;650.94;653.66;656.38;659.11;661.83;664.55;667.28;670.0" dur="8s" repeatCount="indefinite" calcMode="linear"/>
          <animate attributeName="cy" values="334.17;319.02;290.16;263.89;241.88;220.7;197.28;171.04;143.66;117.96;96.79;82.34;75.83;77.44;86.47;101.69;121.61;144.67;169.35;194.24;217.99;239.36;257.18;270.46;278.45;280.75;277.32;268.58;255.96;241.43;225.35;208.27;191.15;175.1;161.17;150.21;142.85;139.3;139.54;143.31;150.16;159.52;170.67;182.91;195.47;207.49;218.28;227.2;233.71;237.41;238.16;236.04;231.32;224.47;216.11;207.02;198.06;188.73;176.33;164.57;152.94;140.75;128.86;119.48;114.84;116.29;124.02;137.15;154.18;173.42;193.28;212.33;229.41;243.57;254.0;260.13;261.64;258.48;250.91;239.56;225.24;208.94;191.78;174.92;159.42;146.26;136.24;129.96;127.74;129.62;135.33;144.35;156.01;169.48;183.87;198.24;211.67;223.39;232.67;238.98;241.92;241.33;237.32;230.24;220.65;209.24;196.83;184.27;172.37;161.87;153.38;147.4;144.27;144.14;146.93;152.4;160.06;169.39;179.72;190.42;200.79;210.13;217.89;223.61;226.92;227.67;225.84;221.63;215.42;207.66;198.87;189.63;180.54;172.19;165.16;159.84;156.54;155.41;156.47;159.58;164.49;170.79;178.04;185.74;193.36;200.43;206.5;211.15;214.1;215.22;214.41;211.75;207.48;202.03;195.86;189.48;183.4;178.15;174.1;171.49;170.42;170.84;172.64;175.64;179.55;184.1;188.94;193.77;198.25;202.05;205.0;206.91;207.64;207.14;205.52;202.89;199.39;194.88;189.21;182.4;174.73;166.75;159.23;152.95;148.58;146.77;148.19;152.28;158.27;165.47;173.39;181.63;189.86;197.7;204.78;210.71;215.14;217.83;218.64;217.57;214.76;210.45;204.97;198.71;192.08;185.52;179.4;174.1;169.9;167.03;165.61;165.68;167.2;170.0;173.89;178.57;183.73;189.04;194.17;198.82;202.7;205.62;207.42;208.04;207.48" dur="8s" repeatCount="indefinite" calcMode="linear"/>
        </circle>
      </g>

      <g class="legend" transform="translate(195.0, 20)">
        <rect x="0" y="-14" width="310" height="28" rx="14" fill="rgba(20, 15, 35, 0.8)" stroke="rgba(0, 229, 204, 0.4)" stroke-width="1"/>
        <line x1="20" y1="0" x2="45" y2="0" stroke="rgba(255,255,255,0.4)" stroke-width="2" stroke-dasharray="4 3"/>
        <text x="55" y="4" font-size="11" font-weight="600" fill="rgba(255,255,255,0.7)" font-family="system-ui, sans-serif">Perfect Trajectory</text>
        <line x1="175" y1="-6" x2="175" y2="6" stroke="rgba(255,255,255,0.2)" stroke-width="1"/>
        <line x1="190" y1="0" x2="215" y2="0" stroke="url(#trail-grad-e)" stroke-width="3" stroke-linecap="round"/>
        <text x="225" y="4" font-size="11" font-weight="bold" fill="#ff00cc" font-family="system-ui, sans-serif">Error</text>
      </g>
    </svg>