<svg xmlns="http://www.w3.org/2000/svg" viewBox="0 0 700 600" width="100%" class="trajectory-svg">
      <defs>
        <linearGradient id="trail-grad-t" x1="83.5" y1="0" x2="596.3" y2="0" gradientUnits="userSpaceOnUse">
          <stop offset="0%" stop-color="#aa00ff"/><stop offset="100%" stop-color="#ff00cc"/>
        </linearGradient>
      </defs>

      <rect width="700" height="600" fill="#0d0a1a"/>
      <g class="grid"><line x1="60" y1="60" x2="60" y2="540" stroke="rgba(0,229,204,1)" stroke-width="0.5" opacity="0.06"/>
<line x1="156" y1="60" x2="156" y2="540" stroke="rgba(0,229,204,1)" stroke-width="0.5" opacity="0.06"/>
<line x1="253" y1="60" x2="253" y2="540" stroke="rgba(0,229,204,1)" stroke-width="0.5" opacity="0.06"/>
<line x1="350" y1="60" x2="350" y2="540" stroke="rgba(0,229,204,1)" stroke-width="0.5" opacity="0.06"/>
<line x1="446" y1="60" x2="446" y2="540" stroke="rgba(0,229,204,1)" stroke-width="0.5" opacity="0.06"/>
<line x1="543" y1="60" x2="543" y2="540" stroke="rgba(0,229,204,1)" stroke-width="0.5" opacity="0.06"/>
<line x1="640" y1="60" x2="640" y2="540" stroke="rgba(0,229,204,1)" stroke-width="0.5" opacity="0.06"/>
<line x1="60" y1="60" x2="640" y2="60" stroke="rgba(0,229,204,1)" stroke-width="0.5" opacity="0.18"/>
<line x1="60" y1="140" x2="640" y2="140" stroke="rgba(0,229,204,1)" stroke-width="0.5" opacity="0.18"/>
<line x1="60" y1="220" x2="640" y2="220" stroke="rgba(0,229,204,1)" stroke-width="0.5" opacity="0.18"/>
<line x1="60" y1="300" x2="640" y2="300" stroke="rgba(0,229,204,1)" stroke-width="0.5" opacity="0.18"/>
<line x1="60" y1="380" x2="640" y2="380" stroke="rgba(0,229,204,1)" stroke-width="0.5" opacity="0.18"/>
<line x1="60" y1="460" x2="640" y2="460" stroke="rgba(0,229,204,1)" stroke-width="0.5" opacity="0.18"/>
<line x1="60" y1="540" x2="640" y2="540" stroke="rgba(0,229,204,1)" stroke-width="0.5" opacity="0.18"/>
</g>
      <rect x="60" y="60" width="580" height="480" fill="none" stroke="rgba(0,229,204,0.15)" stroke-width="0.75" rx="4"/>

      <path d="M 533.8,491.52 L 533.8,489.09 L 533.8,486.66 L 533.8,484.23 L 533.8,481.8 L 533.8,479.38 L 533.8,476.95 L 533.8,474.52 L 533.8,472.09 L 533.8,469.67 L 533.8,467.24 L 533.8,464.81 L 533.8,462.38 L 533.8,459.95 L 533.8,457.53 L 533.8,455.1 L 533.8,452.67 L 533.8,450.24 L 533.8,447.82 L 533.8,445.39 L 533.8,442.96 L 533.8,440.53 L 533.8,438.1 L 533.8,435.68 L 533.8,433.25 L 533.8,430.82 L 533.8,428.39 L 533.8,425.97 L 533.8,423.54 L 533.8,421.11 L 533.8,418.68 L 533.8,416.25 L 533.8,413.83 L 533.8,411.4 L 533.8,408.97 L 533.8,406.54 L 533.8,404.12 L 533.8,401.69 L 533.8,399.26 L 533.8,396.83 L 533.8,394.4 L 533.8,391.98 L 533.8,389.55 L 533.8,387.12 L 533.8,384.69 L 533.8,382.27 L 533.8,379.84 L 533.8,377.41 L 533.8,374.98 L 533.8,372.55 L 533.8,370.13 L 533.8,367.7 L 533.8,365.27 L 533.8,362.84 L 533.8,360.42 L 533.8,357.99 L 533.8,355.56 L 533.8,353.13 L 533.8,350.7 L 533.8,348.28 L 533.8,345.85 L 533.8,343.42 L 533.8,340.99 L 533.8,338.57 L 533.8,336.14 L 533.8,333.71 L 533.8,331.28 L 533.8,328.85 L 533.8,326.43 L 533.8,324.0 L 533.8,321.57 L 533.8,319.14 L 533.8,316.72 L 533.8,314.29 L 533.8,311.86 L 533.8,309.43 L 533.8,307.0 L 533.8,304.58 L 533.8,302.15 L 533.8,299.72 L 533.8,297.29 L 533.8,294.87 L 533.8,292.44 L 533.8,290.01 L 533.8,287.58 L 533.8,285.15 L 533.77,282.73 L 533.72,280.3 L 533.64,277.87 L 533.53,275.45 L 533.4,273.02 L 533.25,270.6 L 533.07,268.18 L 532.86,265.76 L 532.62,263.34 L 532.36,260.93 L 532.08,258.52 L 531.77,256.11 L 531.43,253.71 L 531.06,251.31 L 530.68,248.91 L 530.26,246.52 L 529.82,244.13 L 529.35,241.75 L 528.86,239.37 L 528.34,237.0 L 527.8,234.63 L 527.23,232.27 L 526.64,229.92 L 526.02,227.57 L 525.38,225.23 L 524.71,222.9 L 524.01,220.57 L 523.3,218.25 L 522.55,215.94 L 521.78,213.64 L 520.99,211.34 L 520.17,209.06 L 519.33,206.78 L 518.46,204.51 L 517.57,202.25 L 516.66,200.0 L 515.72,197.76 L 514.76,195.54 L 513.77,193.32 L 512.76,191.11 L 511.72,188.91 L 510.67,186.73 L 509.58,184.56 L 508.48,182.39 L 507.35,180.24 L 506.2,178.11 L 505.03,175.98 L 503.83,173.87 L 502.61,171.77 L 501.37,169.68 L 500.11,167.61 L 498.82,165.55 L 497.51,163.5 L 496.18,161.47 L 494.83,159.46 L 493.46,157.45 L 492.06,155.47 L 490.65,153.49 L 489.21,151.54 L 487.75,149.6 L 486.27,147.67 L 484.78,145.76 L 483.26,143.87 L 481.72,141.99 L 480.16,140.13 L 478.58,138.29 L 476.98,136.46 L 475.36,134.65 L 473.72,132.86 L 472.06,131.09 L 470.39,129.33 L 468.69,127.59 L 466.98,125.87 L 465.24,124.17 L 463.49,122.49 L 461.73,120.83 L 459.94,119.18 L 458.14,117.56 L 456.32,115.95 L 454.48,114.36 L 452.62,112.8 L 450.75,111.25 L 448.86,109.72 L 446.96,108.22 L 445.04,106.73 L 443.1,105.27 L 441.15,103.83 L 439.18,102.4 L 437.2,101.0 L 435.2,99.62 L 433.19,98.26 L 431.16,96.93 L 429.12,95.61 L 427.07,94.32 L 425.0,93.05 L 422.92,91.8 L 420.82,90.57 L 418.71,89.37 L 416.59,88.19 L 414.46,87.03 L 412.31,85.89 L 410.16,84.78 L 407.99,83.69 L 405.8,82.63 L 403.61,81.59 L 401.41,80.57 L 399.19,79.57 L 396.97,78.6 L 394.73,77.65 L 392.49,76.73 L 390.23,75.83 L 387.97,74.96 L 385.69,74.11 L 383.41,73.28 L 381.12,72.48 L 378.82,71.71 L 376.51,70.95 L 374.19,70.23 L 371.87,69.52 L 369.54,68.85 L 367.2,68.2 L 364.85,67.57 L 362.5,66.97 L 360.14,66.39 L 357.78,65.84 L 355.41,65.32 L 353.03,64.82 L 350.65,64.34 L 348.26,63.89 L 345.87,63.47 L 343.48,63.07 L 341.08,62.7 L 338.68,62.35 L 336.27,62.03 L 333.86,61.74 L 331.45,61.47 L 329.03,61.23 L 326.61,61.01 L 324.19,60.82 L 321.77,60.66 L 319.35,60.52 L 316.92,60.4 L 314.5,60.32 L 312.07,60.26 L 309.64,60.22 L 307.21,60.21 L 304.79,60.23 L 302.36,60.28 L 299.93,60.35 L 297.51,60.44 L 295.08,60.56 L 292.66,60.71 L 290.24,60.89 L 287.82,61.09 L 285.4,61.31 L 282.98,61.56 L 280.57,61.84 L 278.16,62.14 L 275.76,62.47 L 273.36,62.83 L 270.96,63.21 L 268.57,63.62 L 266.18,64.05 L 263.79,64.51 L 261.41,64.99 L 259.04,65.5 L 256.67,66.03 L 254.31,66.59 L 251.95,67.18 L 249.6,67.79 L 247.26,68.42 L 244.92,69.09 L 242.6,69.77 L 240.27,70.48 L 237.96,71.22 L 235.65,71.98 L 233.36,72.76 L 231.07,73.57 L 228.79,74.41 L 226.52,75.27 L 224.26,76.15 L 222.0,77.06 L 219.76,77.99 L 217.53,78.94 L 215.31,79.92 L 213.1,80.93 L 210.9,81.95 L 208.71,83.0 L 206.53,84.08 L 204.37,85.17 L 202.21,86.29 L 200.07,87.44 L 197.94,88.6 L 195.82,89.79 L 193.72,91.0 L 191.63,92.24 L 189.55,93.5 L 187.49,94.77 L 185.44,96.08 L 183.4,97.4 L 181.38,98.74 L 179.38,100.11 L 177.38,101.5 L 175.41,102.91 L 173.44,104.34 L 171.5,105.79 L 169.57,107.26 L 167.65,108.75 L 165.75,110.26 L 163.87,111.8 L 162.01,113.35 L 160.16,114.92 L 158.32,116.52 L 156.51,118.13 L 154.71,119.76 L 152.93,121.41 L 151.17,123.08 L 149.43,124.77 L 147.7,126.48 L 145.99,128.21 L 144.31,129.95 L 142.64,131.71 L 140.99,133.49 L 139.35,135.29 L 137.74,137.11 L 136.15,138.94 L 134.58,140.79 L 133.02,142.66 L 131.49,144.54 L 129.98,146.44 L 128.49,148.35 L 127.02,150.28 L 125.57,152.23 L 124.14,154.19 L 122.73,156.17 L 121.34,158.16 L 119.98,160.17 L 118.63,162.19 L 117.31,164.23 L 116.01,166.28 L 114.73,168.34 L 113.47,170.42 L 112.24,172.51 L 111.03,174.62 L 109.84,176.73 L 108.68,178.86 L 107.53,181.01 L 106.41,183.16 L 105.32,185.33 L 104.25,187.5 L 103.2,189.69 L 102.17,191.89 L 101.17,194.1 L 100.19,196.33 L 99.23,198.56 L 98.3,200.8 L 97.4,203.05 L 96.51,205.32 L 95.66,207.59 L 94.82,209.87 L 94.01,212.16 L 93.23,214.45 L 92.47,216.76 L 91.74,219.07 L 91.03,221.39 L 90.34,223.72 L 89.68,226.06 L 89.05,228.4 L 88.44,230.75 L 87.85,233.11 L 87.29,235.47 L 86.76,237.84 L 86.25,240.22 L 85.77,242.59 L 85.31,244.98 L 84.88,247.37 L 84.47,249.76 L 84.09,252.16 L 83.74,254.56 L 83.41,256.97 L 83.11,259.38 L 82.83,261.79 L 82.58,264.2 L 82.36,266.62 L 82.16,269.04 L 81.98,271.46 L 81.84,273.88 L 81.72,276.31 L 81.62,278.73 L 81.55,281.16 L 81.51,283.59 L 81.49,286.02 L 81.5,288.44 L 81.54,290.87 L 81.6,293.3 L 81.68,295.73 L 81.8,298.15 L 81.94,300.57 L 82.1,303.0 L 82.29,305.42 L 82.51,307.83 L 82.76,310.25 L 83.03,312.66 L 83.32,315.07 L 83.64,317.48 L 83.99,319.88 L 84.36,322.28 L 84.76,324.68 L 85.18,327.07 L 85.63,329.45 L 86.11,331.83 L 86.61,334.21 L 87.14,336.58 L 87.69,338.94 L 88.26,341.3 L 88.87,343.65 L 89.49,346.0 L 90.15,348.34 L 90.82,350.67 L 91.53,352.99 L 92.26,355.31 L 93.01,357.62 L 93.78,359.92 L 94.59,362.21 L 95.41,364.49 L 96.26,366.76 L 97.14,369.03 L 98.04,371.28 L 98.96,373.53 L 99.91,375.76 L 100.88,377.99 L 101.88,380.2 L 102.9,382.41 L 103.94,384.6 L 105.01,386.78 L 106.09,388.95 L 107.21,391.11 L 108.34,393.25 L 109.5,395.39 L 110.68,397.51 L 111.89,399.62 L 113.12,401.71 L 114.37,403.79 L 115.64,405.86 L 116.93,407.91 L 118.25,409.95 L 119.58,411.98 L 120.94,413.99 L 122.32,415.99 L 123.73,417.97 L 125.15,419.94 L 126.59,421.89 L 128.06,423.83 L 129.55,425.75 L 131.05,427.65 L 132.58,429.54 L 134.13,431.41 L 135.69,433.26 L 137.28,435.1 L 138.89,436.92 L 140.51,438.72 L 142.16,440.51 L 143.82,442.28 L 145.5,444.03 L 147.21,445.76 L 148.93,447.47 L 150.66,449.16 L 152.42,450.84 L 154.2,452.5 L 155.99,454.13 L 157.8,455.75 L 159.63,457.35 L 161.47,458.93 L 163.33,460.49 L 165.21,462.03 L 167.1,463.55 L 169.01,465.05 L 170.94,466.53 L 172.88,467.98 L 174.84,469.42 L 176.81,470.83 L 178.8,472.23 L 180.8,473.6 L 182.82,474.95 L 184.85,476.28 L 186.89,477.59 L 188.95,478.87 L 191.03,480.14 L 193.11,481.38 L 195.21,482.59 L 197.33,483.79 L 199.45,484.96 L 201.59,486.11 L 203.74,487.24 L 205.9,488.34 L 208.08,489.42 L 210.26,490.48 L 212.46,491.52 L 214.67,492.53 L 216.89,493.51 L 219.12,494.47 L 221.35,495.41 L 223.6,496.33 L 225.86,497.22 L 228.13,498.08 L 230.41,498.92 L 232.69,499.74 L 234.99,500.53 L 237.29,501.3 L 239.6,502.04 L 241.92,502.76 L 244.25,503.45 L 246.58,504.12 L 248.92,504.77 L 251.27,505.38 L 253.63,505.98 L 255.99,506.54 L 258.35,507.08 L 260.73,507.6 L 263.1,508.09 L 265.49,508.56 L 267.87,509.0 L 270.27,509.41 L 272.66,509.8 L 275.06,510.16 L 277.47,510.5 L 279.88,510.81 L 282.29,511.1 L 284.7,511.35 L 287.12,511.59 L 289.54,511.8 L 291.96,512.0 L 294.37,512.21 L 296.79,512.42 L 299.21,512.62 L 301.63,512.83 L 304.05,513.04 L 306.47,513.25 L 308.89,513.45 L 311.31,513.66 L 313.73,513.87 L 316.14,514.08 L 318.56,514.28 L 320.98,514.49 L 323.4,514.7 L 325.82,514.91 L 328.24,515.11 L 330.66,515.32 L 333.08,515.53 L 335.5,515.74 L 337.91,515.94 L 340.33,516.15 L 342.75,516.36 L 345.17,516.57 L 347.59,516.77 L 350.01,516.98 L 352.43,517.19 L 354.85,517.39 L 357.27,517.6 L 359.68,517.81 L 362.1,518.02 L 364.52,518.22 L 366.94,518.43 L 369.36,518.64 L 371.78,518.85 L 374.2,519.05 L 376.62,519.26 L 379.04,519.47 L 381.45,519.68 L 383.87,519.88 L 386.29,520.09 L 388.71,520.3 L 391.13,520.51 L 393.55,520.71 L 395.97,520.92 L 398.39,521.13 L 400.81,521.34 L 403.23,521.54 L 405.64,521.75 L 408.06,521.96 L 410.48,522.16 L 412.9,522.37 L 415.32,522.58 L 417.74,522.79 L 420.16,522.99 L 422.58,523.2 L 425.0,523.41 L 427.41,523.62 L 429.83,523.82 L 432.25,524.03 L 434.67,524.24 L 437.09,524.45 L 439.51,524.65 L 441.93,524.86 L 444.35,525.07 L 446.77,525.28 L 449.18,525.48 L 451.6,525.69 L 454.02,525.9 L 456.44,526.11 L 458.86,526.31 L 461.28,526.52 L 463.7,526.73 L 466.12,526.93 L 468.54,527.14 L 470.95,527.35 L 473.37,527.56 L 475.79,527.76 L 478.21,527.97 L 480.63,528.18 L 483.05,528.39 L 485.47,528.59 L 487.89,528.8 L 490.31,529.01 L 492.72,529.22 L 495.14,529.42 L 497.56,529.63 L 499.98,529.84 L 502.4,530.05 L 504.82,530.25 L 507.24,530.46 L 509.66,530.67 L 512.08,530.87 L 514.5,531.08 L 516.91,531.29 L 519.33,531.5 L 521.75,531.7 L 524.17,531.91 L 526.59,532.12 L 529.01,532.33 L 531.43,532.53 L 533.85,532.74 L 536.27,532.95 L 538.68,533.16 L 541.1,533.36 L 543.52,533.57 L 545.94,533.78 L 548.36,533.99 L 550.78,534.19 L 553.2,534.4 L 555.62,534.61 L 558.04,534.82 L 560.45,535.02 L 562.87,535.23 L 565.29,535.44 L 567.71,535.64 L 570.13,535.85 L 572.55,536.06 L 574.97,536.27 L 577.39,536.47 L 579.81,536.68 L 582.22,536.89 L 584.64,537.1 L 587.06,537.3 L 589.48,537.51 L 591.9,537.72 L 594.32,537.93 L 596.74,538.13 L 599.16,538.34 L 601.58,538.55 L 604.0,538.76 L 606.41,538.96 L 608.83,539.17 L 611.25,539.38 L 613.67,539.59 L 616.09,539.79 L 618.51,540.0" fill="none" stroke="rgba(255,255,255,0.38)" stroke-width="1.3" stroke-dasharray="8 5"/>

      <path d="M 542.54,500.26 L 541.62,493.34 L 539.88,486.57 L 538.3,479.76 L 536.97,472.9 L 535.7,466.02 L 534.29,459.17 L 532.7,452.36 L 531.05,445.57 L 529.51,438.75 L 528.23,431.88 L 527.36,424.94 L 526.97,417.96 L 527.06,410.97 L 527.61,404.0 L 528.52,397.07 L 529.73,390.18 L 531.11,383.33 L 532.6,376.5 L 534.1,369.67 L 535.53,362.82 L 536.82,355.95 L 537.9,349.04 L 538.7,342.1 L 539.18,335.12 L 539.32,328.13 L 539.11,321.14 L 538.58,314.17 L 537.8,307.23 L 536.84,300.3 L 535.71,293.4 L 534.4,286.53 L 532.96,279.69 L 531.43,272.87 L 529.87,266.05 L 528.31,259.23 L 526.79,252.41 L 525.3,245.58 L 523.84,238.74 L 522.38,231.9 L 520.91,225.07 L 519.38,218.24 L 517.76,211.44 L 515.99,204.68 L 514.03,197.97 L 511.84,191.33 L 509.38,184.78 L 506.62,178.36 L 503.53,172.09 L 500.1,166.0 L 496.34,160.1 L 492.25,154.43 L 487.87,148.98 L 483.23,143.75 L 478.36,138.73 L 473.31,133.9 L 468.12,129.22 L 462.77,124.71 L 457.18,120.53 L 451.47,116.48 L 445.65,112.61 L 439.69,108.96 L 433.62,105.48 L 427.53,102.05 L 421.46,98.58 L 415.47,94.97 L 409.56,91.24 L 403.71,87.41 L 397.86,83.57 L 391.98,79.8 L 386.0,76.18 L 379.88,72.78 L 373.61,69.69 L 367.18,66.95 L 360.59,64.62 L 353.86,62.75 L 347.01,61.35 L 340.08,60.43 L 333.1,60.0 L 326.11,60.01 L 319.13,60.41 L 312.18,61.15 L 305.26,62.15 L 298.37,63.35 L 291.5,64.68 L 284.65,66.08 L 277.81,67.51 L 270.96,68.94 L 264.11,70.34 L 257.26,71.72 L 250.4,73.09 L 243.55,74.48 L 236.71,75.93 L 229.89,77.48 L 223.12,79.2 L 216.39,81.12 L 209.75,83.31 L 203.22,85.79 L 196.82,88.61 L 190.59,91.79 L 184.57,95.33 L 178.77,99.24 L 173.22,103.49 L 167.92,108.05 L 162.86,112.88 L 158.04,117.94 L 153.42,123.18 L 148.97,128.58 L 144.66,134.08 L 140.45,139.67 L 136.33,145.31 L 132.26,151.0 L 128.23,156.71 L 124.23,162.45 L 120.26,168.21 L 116.35,174.0 L 112.51,179.84 L 108.77,185.75 L 105.16,191.74 L 101.72,197.83 L 98.5,204.03 L 95.52,210.36 L 92.82,216.81 L 90.45,223.38 L 88.41,230.07 L 86.73,236.86 L 85.42,243.72 L 84.46,250.65 L 83.83,257.61 L 83.51,264.6 L 83.48,271.59 L 83.68,278.58 L 84.1,285.56 L 84.68,292.52 L 85.41,299.48 L 86.25,306.42 L 87.18,313.35 L 88.21,320.27 L 89.32,327.17 L 90.53,334.05 L 91.85,340.92 L 93.3,347.76 L 94.91,354.57 L 96.7,361.32 L 98.71,368.02 L 100.96,374.64 L 103.46,381.17 L 106.25,387.58 L 109.33,393.86 L 112.69,399.98 L 116.35,405.94 L 120.28,411.73 L 124.47,417.32 L 128.88,422.75 L 133.49,428.0 L 138.28,433.1 L 143.2,438.06 L 148.25,442.9 L 153.39,447.64 L 158.63,452.28 L 163.94,456.82 L 169.34,461.26 L 174.83,465.59 L 180.4,469.81 L 186.08,473.9 L 191.85,477.84 L 197.74,481.62 L 203.74,485.2 L 209.86,488.58 L 216.1,491.74 L 222.46,494.65 L 228.92,497.3 L 235.5,499.68 L 242.16,501.79 L 248.91,503.62 L 255.72,505.19 L 262.59,506.49 L 269.5,507.55 L 276.45,508.39 L 283.41,509.04 L 290.38,509.55 L 297.36,509.96 L 304.34,510.34 L 311.32,510.74 L 318.3,511.22 L 325.26,511.83 L 332.21,512.61 L 339.14,513.52 L 346.06,514.54 L 352.97,515.61 L 359.87,516.72 L 366.78,517.84 L 373.68,518.96 L 380.59,520.04 L 387.5,521.08 L 394.43,522.04 L 401.36,522.92 L 408.31,523.68 L 415.27,524.33 L 422.25,524.87 L 429.22,525.31 L 436.21,525.65 L 443.19,525.92 L 450.18,526.14 L 457.17,526.34 L 464.16,526.54 L 471.15,526.77 L 478.14,527.05 L 485.12,527.4 L 492.1,527.82 L 499.07,528.33 L 506.04,528.94 L 513.0,529.63 L 519.95,530.39 L 526.89,531.22 L 533.82,532.1 L 540.76,533.01 L 547.69,533.92 L 554.62,534.83 L 561.56,535.7 L 568.5,536.53 L 575.45,537.3 L 582.41,538.01 L 589.37,538.64 L 596.34,539.21" fill="none" stroke="url(#trail-grad-t)" stroke-width="2.5" stroke-linecap="round" stroke-linejoin="round"
            stroke-dasharray="1566.13" stroke-dashoffset="1566.13">
        <animate attributeName="stroke-dashoffset" values="1566.13;1559.15;1552.16;1545.17;1538.18;1531.18;1524.19;1517.2;1510.21;1503.22;1496.23;1489.23;1482.24;1475.25;1468.26;1461.27;1454.28;1447.29;1440.3;1433.31;1426.31;1419.32;1412.32;1405.34;1398.34;1391.35;1384.36;1377.37;1370.38;1363.39;1356.39;1349.4;1342.41;1335.42;1328.43;1321.43;1314.44;1307.45;1300.46;1293.46;1286.48;1279.48;1272.49;1265.5;1258.51;1251.52;1244.52;1237.53;1230.54;1223.55;1216.56;1209.57;1202.57;1195.58;1188.59;1181.6;1174.61;1167.61;1160.63;1153.63;1146.64;1139.66;1132.66;1125.67;1118.68;1111.68;1104.69;1097.7;1090.71;1083.72;1076.73;1069.73;1062.74;1055.75;1048.76;1041.77;1034.78;1027.79;1020.8;1013.81;1006.82;999.83;992.84;985.84;978.85;971.85;964.87;957.87;950.88;943.89;936.89;929.9;922.91;915.92;908.93;901.93;894.94;887.96;880.96;873.97;866.99;859.99;853.0;846.01;839.01;832.02;825.04;818.04;811.05;804.06;797.07;790.08;783.09;776.09;769.09;762.11;755.12;748.12;741.13;734.14;727.15;720.15;713.16;706.18;699.18;692.19;685.2;678.21;671.22;664.22;657.23;650.24;643.25;636.26;629.26;622.27;615.28;608.29;601.3;594.31;587.32;580.32;573.33;566.34;559.35;552.36;545.36;538.37;531.38;524.4;517.4;510.4;503.42;496.42;489.44;482.44;475.45;468.46;461.47;454.47;447.48;440.49;433.5;426.51;419.51;412.52;405.53;398.54;391.55;384.55;377.56;370.58;363.58;356.59;349.6;342.61;335.62;328.63;321.63;314.64;307.65;300.66;293.67;286.67;279.68;272.69;265.7;258.71;251.71;244.72;237.73;230.73;223.74;216.75;209.76;202.76;195.78;188.79;181.8;174.8;167.81;160.81;153.83;146.83;139.84;132.85;125.86;118.86;111.87;104.88;97.89;90.89;83.9;76.91;69.92;62.93;55.93;48.94;41.95;34.96;27.97;20.98;13.98;6.99;0.0" dur="8s" repeatCount="indefinite" calcMode="linear"/>
      </path>

      <g>
        <circle r="9" fill="none" stroke="#ffe566" stroke-width="1.5">
          <animate attributeName="cx" values="542.54;541.62;539.88;538.3;536.97;535.7;534.29;532.7;531.05;529.51;528.23;527.36;526.97;527.06;527.61;528.52;529.73;531.11;532.6;534.1;535.53;536.82;537.9;538.7;539.18;539.32;539.11;538.58;537.8;536.84;535.71;534.4;532.96;531.43;529.87;528.31;526.79;525.3;523.84;522.38;520.91;519.38;517.76;515.99;514.03;511.84;509.38;506.62;503.53;500.1;496.34;492.25;487.87;483.23;478.36;473.31;468.12;462.77;457.18;451.47;445.65;439.69;433.62;427.53;421.46;415.47;409.56;403.71;397.86;391.98;386.0;379.88;373.61;367.18;360.59;353.86;347.01;340.08;333.1;326.11;319.13;312.18;305.26;298.37;291.5;284.65;277.81;270.96;264.11;257.26;250.4;243.55;236.71;229.89;223.12;216.39;209.75;203.22;196.82;190.59;184.57;178.77;173.22;167.92;162.86;158.04;153.42;148.97;144.66;140.45;136.33;132.26;128.23;124.23;120.26;116.35;112.51;108.77;105.16;101.72;98.5;95.52;92.82;90.45;88.41;86.73;85.42;84.46;83.83;83.51;83.48;83.68;84.1;84.68;85.41;86.25;87.18;88.21;89.32;90.53;91.85;93.3;94.91;96.7;98.71;100.96;103.46;106.25;109.33;112.69;116.35;120.28;124.47;128.88;133.49;138.28;143.2;148.25;153.39;158.63;163.94;169.34;174.83;180.4;186.08;191.85;197.74;203.74;209.86;216.1;222.46;228.92;235.5;242.16;248.91;255.72;262.59;269.5;276.45;283.41;290.38;297.36;304.34;311.32;318.3;325.26;332.21;339.14;346.06;352.97;359.87;366.78;373.68;380.59;387.5;394.43;401.36;408.31;415.27;422.25;429.22;436.21;443.19;450.18;457.17;464.16;471.15;478.14;485.12;492.1;499.07;506.04;513.0;519.95;526.89;533.82;540.76;547.69;554.62;561.56;568.5;575.45;582.41;589.37;596.34" dur="8s" repeatCount="indefinite" calcMode="linear"/>
          <animate attributeName="cy" values="500.26;493.34;486.57;479.76;472.9;466.02;459.17;452.36;445.57;438.75;431.88;424.94;417.96;410.97;404.0;397.07;390.18;383.33;376.5;369.67;362.82;355.95;349.04;342.1;335.12;328.13;321.14;314.17;307.23;300.3;293.4;286.53;279.69;272.87;266.05;259.23;252.41;245.58;238.74;231.9;225.07;218.24;211.44;204.68;197.97;191.33;184.78;178.36;172.09;166.0;160.1;154.43;148.98;143.75;138.73;133.9;129.22;124.71;120.53;116.48;112.61;108.96;105.48;102.05;98.58;94.97;91.24;87.41;83.57;79.8;76.18;72.78;69.69;66.95;64.62;62.75;61.35;60.43;60.0;60.01;60.41;61.15;62.15;63.35;64.68;66.08;67.51;68.94;70.34;71.72;73.09;74.48;75.93;77.48;79.2;81.12;83.31;85.79;88.61;91.79;95.33;99.24;103.49;108.05;112.88;117.94;123.18;128.58;134.08;139.67;145.31;151.0;156.71;162.45;168.21;174.0;179.84;185.75;191.74;197.83;204.03;210.36;216.81;223.38;230.07;236.86;243.72;250.65;257.61;264.6;271.59;278.58;285.56;292.52;299.48;306.42;313.35;320.27;327.17;334.05;340.92;347.76;354.57;361.32;368.02;374.64;381.17;387.58;393.86;399.98;405.94;411.73;417.32;422.75;428.0;433.1;438.06;442.9;447.64;452.28;456.82;461.26;465.59;469.81;473.9;477.84;481.62;485.2;488.58;491.74;494.65;497.3;499.68;501.79;503.62;505.19;506.49;507.55;508.39;509.04;509.55;509.96;510.34;510.74;511.22;511.83;512.61;513.52;514.54;515.61;516.72;517.84;518.96;520.04;521.08;522.04;522.92;523.68;524.33;524.87;525.31;525.65;525.92;526.14;526.34;526.54;526.77;527.05;527.4;527.82;528.33;528.94;529.63;530.39;531.22;532.1;533.01;533.92;534.83;535.7;536.53;537.3;538.01;538.64;539.21" dur="8s" repeatCount="indefinite" calcMode="linear"/>
          <animate attributeName="r" values="9;24;9" dur="2s" repeatCount="indefinite"/>
          <animate attributeName="opacity" values="0.8;0;0.8" dur="2s" repeatCount="indefinite"/>
        </circle>
        <circle r="5.5" fill="#ffe566">
          <animate attributeName="cx" values="542.54;541.62;539.88;538.3;536.97;535.7;534.29;532.7;531.05;529.51;528.23;527.36;526.97;527.06;527.61;528.52;529.73;531.11;532.6;534.1;535.53;536.82;537.9;538.7;539.18;539.32;539.11;538.58;537.8;536.84;535.71;534.4;532.96;531.43;529.87;528.31;526.79;525.3;523.84;522.38;520.91;519.38;517.76;515.99;514.03;511.84;509.38;506.62;503.53;500.1;496.34;492.25;487.87;483.23;478.36;473.31;468.12;462.77;457.18;451.47;445.65;439.69;433.62;427.53;421.46;415.47;409.56;403.71;397.86;391.98;386.0;379.88;373.61;367.18;360.59;353.86;347.01;340.08;333.1;326.11;319.13;312.18;305.26;298.37;291.5;284.65;277.81;270.96;264.11;257.26;250.4;243.55;236.71;229.89;223.12;216.39;209.75;203.22;196.82;190.59;184.57;178.77;173.22;167.92;162.86;158.04;153.42;148.97;144.66;140.45;136.33;132.26;128.23;124.23;120.26;116.35;112.51;108.77;105.16;101.72;98.5;95.52;92.82;90.45;88.41;86.73;85.42;84.46;83.83;83.51;83.48;83.68;84.1;84.68;85.41;86.25;87.18;88.21;89.32;90.53;91.85;93.3;94.91;96.7;98.71;100.96;103.46;106.25;109.33;112.69;116.35;120.28;124.47;128.88;133.49;138.28;143.2;148.25;153.39;158.63;163.94;169.34;174.83;180.4;186.08;191.85;197.74;203.74;209.86;216.1;222.46;228.92;235.5;242.16;248.91;255.72;262.59;269.5;276.45;283.41;290.38;297.36;304.34;311.32;318.3;325.26;332.21;339.14;346.06;352.97;359.87;366.78;373.68;380.59;387.5;394.43;401.36;408.31;415.27;422.25;429.22;436.21;443.19;450.18;457.17;464.16;471.15;478.14;485.12;492.1;499.07;506.04;513.0;519.95;526.89;533.82;540.76;547.69;554.62;561.56;568.5;575.45;582.41;589.37;596.34" dur="8s" repeatCount="indefinite" calcMode="linear"/>
          <animate attributeName="cy" values="500.26;493.34;486.57;479.76;472.9;466.02;459.17;452.36;445.57;438.75;431.88;424.94;417.96;410.97;404.0;397.07;390.18;383.33;376.5;369.67;362.82;355.95;349.04;342.1;335.12;328.13;321.14;314.17;307.23;300.3;293.4;286.53;279.69;272.87;266.05;259.23;252.41;245.58;238.74;231.9;225.07;218.24;211.44;204.68;197.97;191.33;184.78;178.36;172.09;166.0;160.1;154.43;148.98;143.75;138.73;133.9;129.22;124.71;120.53;116.48;112.61;108.96;105.48;102.05;98.58;94.97;91.24;87.41;83.57;79.8;76.18;72.78;69.69;66.95;64.62;62.75;61.35;60.43;60.0;60.01;60.41;61.15;62.15;63.35;64.68;66.08;67.51;68.94;70.34;71.72;73.09;74.48;75.93;77.48;79.2;81.12;83.31;85.79;88.61;91.79;95.33;99.24;103.49;108.05;112.88;117.94;123.18;128.58;134.08;139.67;145.31;151.0;156.71;162.45;168.21;174.0;179.84;185.75;191.74;197.83;204.03;210.36;216.81;223.38;230.07;236.86;243.72;250.65;257.61;264.6;271.59;278.58;285.56;292.52;299.48;306.42;313.35;320.27;327.17;334.05;340.92;347.76;354.57;361.32;368.02;374.64;381.17;387.58;393.86;399.98;405.94;411.73;417.32;422.75;428.0;433.1;438.06;442.9;447.64;452.28;456.82;461.26;465.59;469.81;473.9;477.84;481.62;485.2;488.58;491.74;494.65;497.3;499.68;501.79;503.62;505.19;506.49;507.55;508.39;509.04;509.55;509.96;510.34;510.74;511.22;511.83;512.61;513.52;514.54;515.61;516.72;517.84;518.96;520.04;521.08;522.04;522.92;523.68;524.33;524.87;525.31;525.65;525.92;526.14;526.34;526.54;526.77;527.05;527.4;527.82;528.33;528.94;529.63;530.39;531.22;532.1;533.01;533.92;534.83;535.7;536.53;537.3;538.01;538.64;539.21" dur="8s" repeatCount="indefinite" calcMode="linear"/>
        </circle>
        <circle r="2" fill="white">
          <animate attributeName="cx" values="542.54;541.62;539.88;538.3;536.97;535.7;534.29;532.7;531.05;529.51;528.23;527.36;526.97;527.06;527.61;528.52;529.73;531.11;532.6;534.1;535.53;536.82;537.9;538.7;539.18;539.32;539.11;538.58;537.8;536.84;535.71;534.4;532.96;531.43;529.87;528.31;526.79;525.3;523.84;522.38;520.91;519.38;517.76;515.99;514.03;511.84;509.38;506.62;503.53;500.1;496.34;492.25;487.87;483.23;478.36;473.31;468.12;462.77;457.18;451.47;445.65;439.69;433.62;427.53;421.46;415.47;409.56;403.71;397.86;391.98;386.0;379.88;373.61;367.18;360.59;353.86;347.01;340.08;333.1;326.11;319.13;312.18;305.26;298.37;291.5;284.65;277.81;270.96;264.11;257.26;250.4;243.55;236.71;229.89;223.12;216.39;209.75;203.22;196.82;190.59;184.57;178.77;173.22;167.92;162.86;158.04;153.42;148.97;144.66;140.45;136.33;132.26;128.23;124.23;120.26;116.35;112.51;108.77;105.16;101.72;98.5;95.52;92.82;90.45;88.41;86.73;85.42;84.46;83.83;83.51;83.48;83.68;84.1;84.68;85.41;86.25;87.18;88.21;89.32;90.53;91.85;93.3;94.91;96.7;98.71;100.96;103.46;106.25;109.33;112.69;116.35;120.28;124.47;128.88;133.49;138.28;143.2;148.25;153.39;158.63;163.94;169.34;174.83;180.4;186.08;191.85;197.74;203.74;209.86;216.1;222.46;228.92;235.5;242.16;248.91;255.72;262.59;269.5;276.45;283.41;290.38;297.36;304.34;311.32;318.3;325.26;332.21;339.14;346.06;352.97;359.87;366.78;373.68;380.59;387.5;394.43;401.36;408.31;415.27;422.25;429.22;436.21;443.19;450.18;457.17;464.16;471.15;478.14;485.12;492.1;499.07;506.04;513.0;519.95;526.89;533.82;540.76;547.69;554.62;561.56;568.5;575.45;582.41;589.37;596.34" dur="8s" repeatCount="indefinite" calcMode="linear"/>
          <animate attributeName="cy" values="500.26;493.34;486.57;479.76;472.9;466.02;459.17;452.36;445.57;438.75;431.88;424.94;417.96;410.97;404.0;397.07;390.18;383.33;376.5;369.67;362.82;355.95;349.04;342.1;335.12;328.13;321.14;314.17;307.23;300.3;293.4;286.53;279.69;272.87;266.05;259.23;252.41;245.58;238.74;231.9;225.07;218.24;211.44;204.68;197.97;191.33;184.78;178.36;172.09;166.0;160.1;154.43;148.98;143.75;138.73;133.9;129.22;124.71;120.53;116.48;112.61;108.96;105.48;102.05;98.58;94.97;91.24;87.41;83.57;79.8;76.18;72.78;69.69;66.95;64.62;62.75;61.35;60.43;60.0;60.01;60.41;61.15;62.15;63.35;64.68;66.08;67.51;68.94;70.34;71.72;73.09;74.48;75.93;77.48;79.2;81.12;83.31;85.79;88.61;91.79;95.33;99.24;103.49;108.05;112.88;117.94;123.18;128.58;134.08;139.67;145.31;151.0;156.71;162.45;168.21;174.0;179.84;185.75;191.74;197.83;204.03;210.36;216.81;223.38;230.07;236.86;243.72;250.65;257.61;264.6;271.59;278.58;285.56;292.52;299.48;306.42;313.35;320.27;327.17;334.05;340.92;347.76;354.57;361.32;368.02;374.64;381.17;387.58;393.86;399.98;405.94;411.73;417.32;422.75;428.0;433.1;438.06;442.9;447.64;452.28;456.82;461.26;465.59;469.81;473.9;477.84;481.62;485.2;488.58;491.74;494.65;497.3;499.68;501.79;503.62;505.19;506.49;507.55;508.39;509.04;509.55;509.96;510.34;510.74;511.22;511.83;512.61;513.52;514.54;515.61;516.72;517.84;518.96;520.04;521.08;522.04;522.92;523.68;524.33;524.87;525.31;525.65;525.92;526.14;526.34;526.54;526.77;527.05;527.4;527.82;528.33;528.94;529.63;530.39;531.22;532.1;533.01;533.92;534.83;535.7;536.53;537.3;538.01;538.64;539.21" dur="8s" repeatCount="indefinite" calcMode="linear"/>
        </circle>
      </g>

      <g class="legend" transform="translate(195.0, 570)">
        <rect x="0" y="-14" width="310" height="28" rx="14" fill="rgba(20, 15, 35, 0.8)" stroke="rgba(0, 229, 204, 0.4)" stroke-width="1"/>
        <line x1="20" y1="0" x2="45" y2="0" stroke="rgba(255,255,255,0.4)" stroke-width="2" stroke-dasharray="4 3"/>
        <text x="55" y="4" font-size="11" font-weight="600" fill="rgba(255,255,255,0.7)" font-family="system-ui, sans-serif">Reference</text>
        <line x1="150" y1="-6" x2="150" y2="6" stroke="rgba(255,255,255,0.2)" stroke-width="1"/>
        <line x1="165" y1="0" x2="190" y2="0" stroke="url(#trail-grad-t)" stroke-width="3" stroke-linecap="round"/>
        <text x="200" y="4" font-size="11" font-weight="bold" fill="#ff00cc" font-family="system-ui, sans-serif">Real Trajectory</text>
      </g>
    </svg>