<svg xmlns="http://www.w3.org/2000/svg"
     viewBox="0 0 700 400" width="100%" class="trajectory-svg">

  <defs>
    <linearGradient id="steer-grad" x1="60" y1="0" x2="670" y2="0" gradientUnits="userSpaceOnUse">
      <stop offset="0%"   stop-color="#aa00ff"/>
      <stop offset="100%" stop-color="#ff00cc"/>
    </linearGradient>
  </defs>

  <rect width="700" height="400" fill="#0d0a1a"/>
  <g class="grid"><line x1="60.0" y1="50" x2="60.0" y2="360" stroke="rgba(0,229,204,1)" stroke-width="0.5" opacity="0.06"/>
<line x1="161.66666666666669" y1="50" x2="161.66666666666669" y2="360" stroke="rgba(0,229,204,1)" stroke-width="0.5" opacity="0.06"/>
<line x1="263.33333333333337" y1="50" x2="263.33333333333337" y2="360" stroke="rgba(0,229,204,1)" stroke-width="0.5" opacity="0.06"/>
<line x1="365.0" y1="50" x2="365.0" y2="360" stroke="rgba(0,229,204,1)" stroke-width="0.5" opacity="0.06"/>
<line x1="466.6666666666667" y1="50" x2="466.6666666666667" y2="360" stroke="rgba(0,229,204,1)" stroke-width="0.5" opacity="0.06"/>
<line x1="568.3333333333333" y1="50" x2="568.3333333333333" y2="360" stroke="rgba(0,229,204,1)" stroke-width="0.5" opacity="0.06"/>
<line x1="670.0" y1="50" x2="670.0" y2="360" stroke="rgba(0,229,204,1)" stroke-width="0.5" opacity="0.06"/>
<line x1="60" y1="50.0" x2="670" y2="50.0" stroke="rgba(0,229,204,1)" stroke-width="0.5" opacity="0.18"/>
<line x1="60" y1="112.0" x2="670" y2="112.0" stroke="rgba(0,229,204,1)" stroke-width="0.5" opacity="0.18"/>
<line x1="60" y1="174.0" x2="670" y2="174.0" stroke="rgba(0,229,204,1)" stroke-width="0.5" opacity="0.18"/>
<line x1="60" y1="236.0" x2="670" y2="236.0" stroke="rgba(0,229,204,1)" stroke-width="0.5" opacity="0.18"/>
<line x1="60" y1="298.0" x2="670" y2="298.0" stroke="rgba(0,229,204,1)" stroke-width="0.5" opacity="0.18"/>
<line x1="60" y1="360.0" x2="670" y2="360.0" stroke="rgba(0,229,204,1)" stroke-width="0.5" opacity="0.18"/>
</g>
  <line x1="60" y1="232.12" x2="670" y2="232.12" stroke="rgba(255,255,255,0.35)" stroke-width="1" stroke-dasharray="5 5"/>
  <rect x="60" y="50" width="610" height="310"
        fill="none" stroke="rgba(0,229,204,0.15)" stroke-width="0.75" rx="4"/>
  <g class="axis-labels"><text x="60.0" y="378" font-size="10" fill="rgba(255,255,255,0.5)" text-anchor="middle" font-family="'JetBrains Mono',monospace">0.1s</text>
<text x="161.66666666666669" y="378" font-size="10" fill="rgba(255,255,255,0.5)" text-anchor="middle" font-family="'JetBrains Mono',monospace">7.6s</text>
<text x="263.33333333333337" y="378" font-size="10" fill="rgba(255,255,255,0.5)" text-anchor="middle" font-family="'JetBrains Mono',monospace">15.0s</text>
<text x="365.0" y="378" font-size="10" fill="rgba(255,255,255,0.5)" text-anchor="middle" font-family="'JetBrains Mono',monospace">22.5s</text>
<text x="466.6666666666667" y="378" font-size="10" fill="rgba(255,255,255,0.5)" text-anchor="middle" font-family="'JetBrains Mono',monospace">30.0s</text>
<text x="568.3333333333333" y="378" font-size="10" fill="rgba(255,255,255,0.5)" text-anchor="middle" font-family="'JetBrains Mono',monospace">37.4s</text>
<text x="670.0" y="378" font-size="10" fill="rgba(255,255,255,0.5)" text-anchor="middle" font-family="'JetBrains Mono',monospace">44.9s</text>
<text x="52" y="54.0" font-size="10" fill="rgba(255,255,255,0.5)" text-anchor="end" font-family="'JetBrains Mono',monospace">0.627</text>
<text x="52" y="116.0" font-size="10" fill="rgba(255,255,255,0.5)" text-anchor="end" font-family="'JetBrains Mono',monospace">0.413</text>
<text x="52" y="178.0" font-size="10" fill="rgba(255,255,255,0.5)" text-anchor="end" font-family="'JetBrains Mono',monospace">0.200</text>
<text x="52" y="240.0" font-size="10" fill="rgba(255,255,255,0.5)" text-anchor="end" font-family="'JetBrains Mono',monospace">-0.013</text>
<text x="52" y="302.0" font-size="10" fill="rgba(255,255,255,0.5)" text-anchor="end" font-family="'JetBrains Mono',monospace">-0.227</text>
<text x="52" y="364.0" font-size="10" fill="rgba(255,255,255,0.5)" text-anchor="end" font-family="'JetBrains Mono',monospace">-0.440</text>
</g>

  <!-- Labels axes -->
  <text x="52" y="36" font-size="10" letter-spacing="1" font-weight="500"
        fill="rgba(0,229,204,0.75)" text-anchor="end"
        font-family="'JetBrains Mono',monospace">δF (rad)</text>
  <text x="670" y="395" font-size="10" letter-spacing="1" font-weight="500"
        fill="rgba(0,229,204,0.75)" text-anchor="end"
        font-family="'JetBrains Mono',monospace">Time (s)</text>

  <!-- Tracé animé -->
  <path d="M 60.0,141.11 L 62.72,80.0 L 65.45,80.0 L 68.17,93.02 L 70.89,198.37 L 73.62,293.53 L 76.34,324.56 L 79.06,289.63 L 81.79,233.83 L 84.51,216.56 L 87.23,253.22 L 89.96,307.48 L 92.68,330.0 L 95.4,301.04 L 98.12,247.7 L 100.85,214.84 L 103.57,220.7 L 106.29,247.36 L 109.02,260.14 L 111.74,240.97 L 114.46,203.61 L 117.19,176.68 L 119.91,177.27 L 122.63,198.7 L 125.36,218.17 L 128.08,219.02 L 130.8,205.09 L 133.53,194.8 L 136.25,194.4 L 138.97,209.89 L 141.7,226.39 L 144.42,230.77 L 147.14,221.3 L 149.87,213.08 L 152.59,207.14 L 155.31,211.6 L 158.04,218.88 L 160.76,221.3 L 163.48,214.08 L 166.21,202.41 L 168.93,194.3 L 171.65,191.85 L 174.38,194.35 L 177.1,202.44 L 179.82,198.98 L 182.54,191.6 L 185.27,185.66 L 187.99,185.29 L 190.71,188.83 L 193.44,192.85 L 196.16,193.15 L 198.88,192.36 L 201.61,199.38 L 204.33,202.22 L 207.05,206.75 L 209.78,211.63 L 212.5,215.93 L 215.22,110.92 L 217.95,119.42 L 220.67,187.49 L 223.39,259.73 L 226.12,284.29 L 228.84,258.31 L 231.56,204.32 L 234.29,177.5 L 237.01,193.53 L 239.73,228.01 L 242.46,243.79 L 245.18,223.61 L 247.9,186.65 L 250.62,159.99 L 253.35,159.07 L 256.07,177.62 L 258.79,200.82 L 261.52,199.41 L 264.24,182.91 L 266.96,167.13 L 269.69,166.14 L 272.41,180.31 L 275.13,197.63 L 277.86,211.91 L 280.58,206.37 L 283.3,198.59 L 286.03,198.26 L 288.75,206.26 L 291.47,216.49 L 294.2,221.2 L 296.92,216.23 L 299.64,207.48 L 302.37,201.55 L 305.09,200.94 L 307.81,202.88 L 310.54,209.59 L 313.26,203.56 L 315.98,195.52 L 318.71,189.27 L 321.43,186.13 L 324.15,186.96 L 326.88,188.76 L 329.6,188.59 L 332.32,185.67 L 335.04,183.34 L 337.77,191.38 L 340.49,195.17 L 343.21,199.05 L 345.94,200.05 L 348.66,200.03 L 351.38,200.42 L 354.11,200.99 L 356.83,203.18 L 359.55,204.78 L 362.28,204.9 L 365.0,210.7 L 367.72,207.58 L 370.45,205.23 L 373.17,203.11 L 375.89,201.87 L 378.62,200.22 L 381.34,196.62 L 384.06,193.73 L 386.79,191.08 L 389.51,189.59 L 392.23,189.84 L 394.96,196.76 L 397.68,195.2 L 400.4,194.3 L 403.12,194.44 L 405.85,195.18 L 408.57,195.25 L 411.29,196.49 L 414.02,197.8 L 416.74,197.58 L 419.46,198.4 L 422.19,198.64 L 424.91,205.41 L 427.63,205.35 L 430.36,204.38 L 433.08,202.97 L 435.8,201.84 L 438.53,199.87 L 441.25,198.87 L 443.97,197.03 L 446.7,195.73 L 449.42,194.74 L 452.14,192.39 L 454.87,198.13 L 457.59,197.17 L 460.31,195.6 L 463.04,194.81 L 465.76,194.54 L 468.48,194.01 L 471.21,195.85 L 473.93,199.06 L 476.65,199.99 L 479.37,199.74 L 482.1,205.46 L 484.82,203.22 L 487.54,202.47 L 490.27,202.49 L 492.99,201.14 L 495.71,199.81 L 498.44,197.72 L 501.16,194.71 L 503.88,193.63 L 506.61,193.04 L 509.33,192.83 L 512.05,199.64 L 514.78,198.69 L 517.5,196.64 L 520.22,195.81 L 522.95,196.31 L 525.67,196.37 L 528.39,196.94 L 531.12,197.38 L 533.84,196.3 L 536.56,196.0 L 539.29,204.02 L 542.01,209.54 L 544.73,218.72 L 547.46,227.12 L 550.18,231.44 L 552.9,232.67 L 555.62,233.2 L 558.35,234.88 L 561.07,237.45 L 563.79,236.57 L 566.52,238.34 L 569.24,239.26 L 571.96,238.61 L 574.69,235.85 L 577.41,232.18 L 580.13,229.25 L 582.86,227.84 L 585.58,227.38 L 588.3,226.84 L 591.03,225.48 L 593.75,223.99 L 596.47,223.36 L 599.2,224.11 L 601.92,225.84 L 604.64,227.65 L 607.37,228.97 L 610.09,229.92 L 612.81,231.08 L 615.54,232.76 L 618.26,234.72 L 620.98,236.36 L 623.71,237.23 L 626.43,237.36 L 629.15,237.18 L 631.87,237.04 L 634.6,236.91 L 637.32,236.51 L 640.04,235.6 L 642.77,234.26 L 645.49,232.82 L 648.21,231.62 L 650.94,230.74 L 653.66,230.04 L 656.38,229.35 L 659.11,228.67 L 661.83,228.19 L 664.55,228.1 L 667.28,228.42 L 670.0,229.0" fill="none" stroke="url(#steer-grad)"
        stroke-width="2.5" stroke-linecap="round" stroke-linejoin="round"
        stroke-dasharray="2255.08" stroke-dashoffset="2255.08">
    <animate attributeName="stroke-dashoffset"
             values="2255.08;2193.91;2191.18;2177.88;2072.49;1977.3;1946.15;1911.11;1855.24;1837.76;1801.0;1746.67;1723.99;1694.9;1641.49;1608.52;1602.06;1575.26;1562.19;1542.83;1505.37;1478.3;1475.52;1453.92;1434.26;1431.41;1417.21;1406.57;1403.82;1388.09;1371.37;1366.21;1356.36;1347.7;1341.16;1335.94;1328.16;1324.52;1316.81;1304.82;1296.27;1292.61;1288.91;1280.37;1275.97;1268.11;1261.57;1258.82;1254.36;1249.5;1246.76;1243.93;1236.4;1232.47;1227.18;1221.59;1216.5;1111.46;1102.53;1034.41;962.11;937.4;911.28;857.22;830.26;814.0;779.42;763.4;743.04;705.98;679.18;676.3;657.55;634.19;631.12;614.4;598.39;595.48;581.05;563.52;548.98;542.81;534.57;531.82;523.37;512.78;507.34;501.67;492.51;485.98;483.2;479.85;472.61;466.0;457.51;450.69;446.53;443.69;440.42;437.69;433.7;430.12;421.63;416.97;412.23;409.32;406.6;403.85;401.06;397.57;394.42;391.68;385.28;381.14;377.54;374.09;371.1;367.91;363.4;359.43;355.62;352.52;349.79;342.35;339.22;336.35;333.63;330.8;328.08;325.09;322.06;319.33;316.49;313.75;306.45;303.73;300.84;297.77;294.83;291.46;288.56;285.28;282.25;279.36;275.77;269.41;266.52;263.38;260.54;257.81;255.04;251.75;247.54;244.66;241.93;235.59;232.07;229.25;226.52;223.48;220.45;217.02;212.96;210.03;207.24;204.51;197.18;194.29;190.88;188.04;185.26;182.54;179.76;177.0;174.07;171.33;162.86;156.71;147.13;138.3;133.2;130.21;127.44;124.24;120.49;117.63;114.38;111.51;108.71;104.83;100.26;96.26;93.19;90.43;87.66;84.61;81.51;78.72;75.89;72.66;69.39;66.36;63.48;60.52;57.32;53.97;50.79;47.92;45.2;42.48;39.75;37.02;34.27;31.4;28.36;25.28;22.31;19.44;16.63;13.83;11.01;8.25;5.53;2.78;0.0" dur="8s"
             repeatCount="indefinite" calcMode="linear"/>
  </path>

  <!-- Robot -->
  <circle r="9" fill="none" stroke="#ffe566" stroke-width="1.5">
    <animate attributeName="cx" values="60.0;62.72;65.45;68.17;70.89;73.62;76.34;79.06;81.79;84.51;87.23;89.96;92.68;95.4;98.12;100.85;103.57;106.29;109.02;111.74;114.46;117.19;119.91;122.63;125.36;128.08;130.8;133.53;136.25;138.97;141.7;144.42;147.14;149.87;152.59;155.31;158.04;160.76;163.48;166.21;168.93;171.65;174.38;177.1;179.82;182.54;185.27;187.99;190.71;193.44;196.16;198.88;201.61;204.33;207.05;209.78;212.5;215.22;217.95;220.67;223.39;226.12;228.84;231.56;234.29;237.01;239.73;242.46;245.18;247.9;250.62;253.35;256.07;258.79;261.52;264.24;266.96;269.69;272.41;275.13;277.86;280.58;283.3;286.03;288.75;291.47;294.2;296.92;299.64;302.37;305.09;307.81;310.54;313.26;315.98;318.71;321.43;324.15;326.88;329.6;332.32;335.04;337.77;340.49;343.21;345.94;348.66;351.38;354.11;356.83;359.55;362.28;365.0;367.72;370.45;373.17;375.89;378.62;381.34;384.06;386.79;389.51;392.23;394.96;397.68;400.4;403.12;405.85;408.57;411.29;414.02;416.74;419.46;422.19;424.91;427.63;430.36;433.08;435.8;438.53;441.25;443.97;446.7;449.42;452.14;454.87;457.59;460.31;463.04;465.76;468.48;471.21;473.93;476.65;479.37;482.1;484.82;487.54;490.27;492.99;495.71;498.44;501.16;503.88;506.61;509.33;512.05;514.78;517.5;520.22;522.95;525.67;528.39;531.12;533.84;536.56;539.29;542.01;544.73;547.46;550.18;552.9;555.62;558.35;561.07;563.79;566.52;569.24;571.96;574.69;577.41;580.13;582.86;585.58;588.3;591.03;593.75;596.47;599.2;601.92;604.64;607.37;610.09;612.81;615.54;618.26;620.98;623.71;626.43;629.15;631.87;634.6;637.32;640.04;642.77;645.49;648.21;650.94;653.66;656.38;659.11;661.83;664.55;667.28;670.0" dur="8s" repeatCount="indefinite" calcMode="linear"/>
    <animate attributeName="cy" values="141.11;80.0;80.0;93.02;198.37;293.53;324.56;289.63;233.83;216.56;253.22;307.48;330.0;301.04;247.7;214.84;220.7;247.36;260.14;240.97;203.61;176.68;177.27;198.7;218.17;219.02;205.09;194.8;194.4;209.89;226.39;230.77;221.3;213.08;207.14;211.6;218.88;221.3;214.08;202.41;194.3;191.85;194.35;202.44;198.98;191.6;185.66;185.29;188.83;192.85;193.15;192.36;199.38;202.22;206.75;211.63;215.93;110.92;119.42;187.49;259.73;284.29;258.31;204.32;177.5;193.53;228.01;243.79;223.61;186.65;159.99;159.07;177.62;200.82;199.41;182.91;167.13;166.14;180.31;197.63;211.91;206.37;198.59;198.26;206.26;216.49;221.2;216.23;207.48;201.55;200.94;202.88;209.59;203.56;195.52;189.27;186.13;186.96;188.76;188.59;185.67;183.34;191.38;195.17;199.05;200.05;200.03;200.42;200.99;203.18;204.78;204.9;210.7;207.58;205.23;203.11;201.87;200.22;196.62;193.73;191.08;189.59;189.84;196.76;195.2;194.3;194.44;195.18;195.25;196.49;197.8;197.58;198.4;198.64;205.41;205.35;204.38;202.97;201.84;199.87;198.87;197.03;195.73;194.74;192.39;198.13;197.17;195.6;194.81;194.54;194.01;195.85;199.06;199.99;199.74;205.46;203.22;202.47;202.49;201.14;199.81;197.72;194.71;193.63;193.04;192.83;199.64;198.69;196.64;195.81;196.31;196.37;196.94;197.38;196.3;196.0;204.02;209.54;218.72;227.12;231.44;232.67;233.2;234.88;237.45;236.57;238.34;239.26;238.61;235.85;232.18;229.25;227.84;227.38;226.84;225.48;223.99;223.36;224.11;225.84;227.65;228.97;229.92;231.08;232.76;234.72;236.36;237.23;237.36;237.18;237.04;236.91;236.51;235.6;234.26;232.82;231.62;230.74;230.04;229.35;228.67;228.19;228.1;228.42;229.0" dur="8s" repeatCount="indefinite" calcMode="linear"/>
    <animate attributeName="r"       values="9;22;9"   dur="2s" repeatCount="indefinite"/>
    <animate attributeName="opacity" values="0.8;0;0.8" dur="2s" repeatCount="indefinite"/>
  </circle>
  <circle r="5.5" fill="#ffe566">
    <animate attributeName="cx" values="60.0;62.72;65.45;68.17;70.89;73.62;76.34;79.06;81.79;84.51;87.23;89.96;92.68;95.4;98.12;100.85;103.57;106.29;109.02;111.74;114.46;117.19;119.91;122.63;125.36;128.08;130.8;133.53;136.25;138.97;141.7;144.42;147.14;149.87;152.59;155.31;158.04;160.76;163.48;166.21;168.93;171.65;174.38;177.1;179.82;182.54;185.27;187.99;190.71;193.44;196.16;198.88;201.61;204.33;207.05;209.78;212.5;215.22;217.95;220.67;223.39;226.12;228.84;231.56;234.29;237.01;239.73;242.46;245.18;247.9;250.62;253.35;256.07;258.79;261.52;264.24;266.96;269.69;272.41;275.13;277.86;280.58;283.3;286.03;288.75;291.47;294.2;296.92;299.64;302.37;305.09;307.81;310.54;313.26;315.98;318.71;321.43;324.15;326.88;329.6;332.32;335.04;337.77;340.49;343.21;345.94;348.66;351.38;354.11;356.83;359.55;362.28;365.0;367.72;370.45;373.17;375.89;378.62;381.34;384.06;386.79;389.51;392.23;394.96;397.68;400.4;403.12;405.85;408.57;411.29;414.02;416.74;419.46;422.19;424.91;427.63;430.36;433.08;435.8;438.53;441.25;443.97;446.7;449.42;452.14;454.87;457.59;460.31;463.04;465.76;468.48;471.21;473.93;476.65;479.37;482.1;484.82;487.54;490.27;492.99;495.71;498.44;501.16;503.88;506.61;509.33;512.05;514.78;517.5;520.22;522.95;525.67;528.39;531.12;533.84;536.56;539.29;542.01;544.73;547.46;550.18;552.9;555.62;558.35;561.07;563.79;566.52;569.24;571.96;574.69;577.41;580.13;582.86;585.58;588.3;591.03;593.75;596.47;599.2;601.92;604.64;607.37;610.09;612.81;615.54;618.26;620.98;623.71;626.43;629.15;631.87;634.6;637.32;640.04;642.77;645.49;648.21;650.94;653.66;656.38;659.11;661.83;664.55;667.28;670.0" dur="8s" repeatCount="indefinite" calcMode="linear"/>
    <animate attributeName="cy" values="141.11;80.0;80.0;93.02;198.37;293.53;324.56;289.63;233.83;216.56;253.22;307.48;330.0;301.04;247.7;214.84;220.7;247.36;260.14;240.97;203.61;176.68;177.27;198.7;218.17;219.02;205.09;194.8;194.4;209.89;226.39;230.77;221.3;213.08;207.14;211.6;218.88;221.3;214.08;202.41;194.3;191.85;194.35;202.44;198.98;191.6;185.66;185.29;188.83;192.85;193.15;192.36;199.38;202.22;206.75;211.63;215.93;110.92;119.42;187.49;259.73;284.29;258.31;204.32;177.5;193.53;228.01;243.79;223.61;186.65;159.99;159.07;177.62;200.82;199.41;182.91;167.13;166.14;180.31;197.63;211.91;206.37;198.59;198.26;206.26;216.49;221.2;216.23;207.48;201.55;200.94;202.88;209.59;203.56;195.52;189.27;186.13;186.96;188.76;188.59;185.67;183.34;191.38;195.17;199.05;200.05;200.03;200.42;200.99;203.18;204.78;204.9;210.7;207.58;205.23;203.11;201.87;200.22;196.62;193.73;191.08;189.59;189.84;196.76;195.2;194.3;194.44;195.18;195.25;196.49;197.8;197.58;198.4;198.64;205.41;205.35;204.38;202.97;201.84;199.87;198.87;197.03;195.73;194.74;192.39;198.13;197.17;195.6;194.81;194.54;194.01;195.85;199.06;199.99;199.74;205.46;203.22;202.47;202.49;201.14;199.81;197.72;194.71;193.63;193.04;192.83;199.64;198.69;196.64;195.81;196.31;196.37;196.94;197.38;196.3;196.0;204.02;209.54;218.72;227.12;231.44;232.67;233.2;234.88;237.45;236.57;238.34;239.26;238.61;235.85;232.18;229.25;227.84;227.38;226.84;225.48;223.99;223.36;224.11;225.84;227.65;228.97;229.92;231.08;232.76;234.72;236.36;237.23;237.36;237.18;237.04;236.91;236.51;235.6;234.26;232.82;231.62;230.74;230.04;229.35;228.67;228.19;228.1;228.42;229.0" dur="8s" repeatCount="indefinite" calcMode="linear"/>
  </circle>
  <circle r="2" fill="white">
    <animate attributeName="cx" values="60.0;62.72;65.45;68.17;70.89;73.62;76.34;79.06;81.79;84.51;87.23;89.96;92.68;95.4;98.12;100.85;103.57;106.29;109.02;111.74;114.46;117.19;119.91;122.63;125.36;128.08;130.8;133.53;136.25;138.97;141.7;144.42;147.14;149.87;152.59;155.31;158.04;160.76;163.48;166.21;168.93;171.65;174.38;177.1;179.82;182.54;185.27;187.99;190.71;193.44;196.16;198.88;201.61;204.33;207.05;209.78;212.5;215.22;217.95;220.67;223.39;226.12;228.84;231.56;234.29;237.01;239.73;242.46;245.18;247.9;250.62;253.35;256.07;258.79;261.52;264.24;266.96;269.69;272.41;275.13;277.86;280.58;283.3;286.03;288.75;291.47;294.2;296.92;299.64;302.37;305.09;307.81;310.54;313.26;315.98;318.71;321.43;324.15;326.88;329.6;332.32;335.04;337.77;340.49;343.21;345.94;348.66;351.38;354.11;356.83;359.55;362.28;365.0;367.72;370.45;373.17;375.89;378.62;381.34;384.06;386.79;389.51;392.23;394.96;397.68;400.4;403.12;405.85;408.57;411.29;414.02;416.74;419.46;422.19;424.91;427.63;430.36;433.08;435.8;438.53;441.25;443.97;446.7;449.42;452.14;454.87;457.59;460.31;463.04;465.76;468.48;471.21;473.93;476.65;479.37;482.1;484.82;487.54;490.27;492.99;495.71;498.44;501.16;503.88;506.61;509.33;512.05;514.78;517.5;520.22;522.95;525.67;528.39;531.12;533.84;536.56;539.29;542.01;544.73;547.46;550.18;552.9;555.62;558.35;561.07;563.79;566.52;569.24;571.96;574.69;577.41;580.13;582.86;585.58;588.3;591.03;593.75;596.47;599.2;601.92;604.64;607.37;610.09;612.81;615.54;618.26;620.98;623.71;626.43;629.15;631.87;634.6;637.32;640.04;642.77;645.49;648.21;650.94;653.66;656.38;659.11;661.83;664.55;667.28;670.0" dur="8s" repeatCount="indefinite" calcMode="linear"/>
    <animate attributeName="cy" values="141.11;80.0;80.0;93.02;198.37;293.53;324.56;289.63;233.83;216.56;253.22;307.48;330.0;301.04;247.7;214.84;220.7;247.36;260.14;240.97;203.61;176.68;177.27;198.7;218.17;219.02;205.09;194.8;194.4;209.89;226.39;230.77;221.3;213.08;207.14;211.6;218.88;221.3;214.08;202.41;194.3;191.85;194.35;202.44;198.98;191.6;185.66;185.29;188.83;192.85;193.15;192.36;199.38;202.22;206.75;211.63;215.93;110.92;119.42;187.49;259.73;284.29;258.31;204.32;177.5;193.53;228.01;243.79;223.61;186.65;159.99;159.07;177.62;200.82;199.41;182.91;167.13;166.14;180.31;197.63;211.91;206.37;198.59;198.26;206.26;216.49;221.2;216.23;207.48;201.55;200.94;202.88;209.59;203.56;195.52;189.27;186.13;186.96;188.76;188.59;185.67;183.34;191.38;195.17;199.05;200.05;200.03;200.42;200.99;203.18;204.78;204.9;210.7;207.58;205.23;203.11;201.87;200.22;196.62;193.73;191.08;189.59;189.84;196.76;195.2;194.3;194.44;195.18;195.25;196.49;197.8;197.58;198.4;198.64;205.41;205.35;204.38;202.97;201.84;199.87;198.87;197.03;195.73;194.74;192.39;198.13;197.17;195.6;194.81;194.54;194.01;195.85;199.06;199.99;199.74;205.46;203.22;202.47;202.49;201.14;199.81;197.72;194.71;193.63;193.04;192.83;199.64;198.69;196.64;195.81;196.31;196.37;196.94;197.38;196.3;196.0;204.02;209.54;218.72;227.12;231.44;232.67;233.2;234.88;237.45;236.57;238.34;239.26;238.61;235.85;232.18;229.25;227.84;227.38;226.84;225.48;223.99;223.36;224.11;225.84;227.65;228.97;229.92;231.08;232.76;234.72;236.36;237.23;237.36;237.18;237.04;236.91;236.51;235.6;234.26;232.82;231.62;230.74;230.04;229.35;228.67;228.19;228.1;228.42;229.0" dur="8s" repeatCount="indefinite" calcMode="linear"/>
  </circle>

  <!-- Légende -->
  <g transform="translate(240.0,36)">
    <rect x="0" y="-11" width="220" height="22" rx="11"
          fill="rgba(20,15,35,0.85)" stroke="rgba(0,229,204,0.35)" stroke-width="0.75"/>
    <line x1="16" y1="0" x2="38" y2="0" stroke="url(#steer-grad)" stroke-width="2.5" stroke-linecap="round"/>
    <text x="48" y="4" font-size="10" letter-spacing="1.5" font-weight="500"
          fill="rgba(255,180,230,0.85)"
          font-family="'JetBrains Mono',monospace">FRONT STEERING ANGLE</text>
  </g>

</svg>