<svg xmlns="http://www.w3.org/2000/svg" viewBox="0 0 700 400" width="100%" class="trajectory-svg">
      <defs>
        <linearGradient id="trail-grad-e" x1="60" y1="0" x2="670" y2="0" gradientUnits="userSpaceOnUse">
          <stop offset="0%" stop-color="#aa00ff"/><stop offset="100%" stop-color="#ff00cc"/>
        </linearGradient>
      </defs>

      <rect width="700" height="400" fill="#0d0a1a"/>
      <g class="grid"><line x1="60.0" y1="50" x2="60.0" y2="360" stroke="rgba(0,229,204,1)" stroke-width="0.5" opacity="0.06"/>
<line x1="161.66666666666669" y1="50" x2="161.66666666666669" y2="360" stroke="rgba(0,229,204,1)" stroke-width="0.5" opacity="0.06"/>
<line x1="263.33333333333337" y1="50" x2="263.33333333333337" y2="360" stroke="rgba(0,229,204,1)" stroke-width="0.5" opacity="0.06"/>
<line x1="365.0" y1="50" x2="365.0" y2="360" stroke="rgba(0,229,204,1)" stroke-width="0.5" opacity="0.06"/>
<line x1="466.6666666666667" y1="50" x2="466.6666666666667" y2="360" stroke="rgba(0,229,204,1)" stroke-width="0.5" opacity="0.06"/>
<line x1="568.3333333333333" y1="50" x2="568.3333333333333" y2="360" stroke="rgba(0,229,204,1)" stroke-width="0.5" opacity="0.06"/>
<line x1="670.0" y1="50" x2="670.0" y2="360" stroke="rgba(0,229,204,1)" stroke-width="0.5" opacity="0.06"/>
<line x1="60" y1="50.0" x2="670" y2="50.0" stroke="rgba(0,229,204,1)" stroke-width="0.5" opacity="0.18"/>
<line x1="60" y1="101.66666666666666" x2="670" y2="101.66666666666666" stroke="rgba(0,229,204,1)" stroke-width="0.5" opacity="0.18"/>
<line x1="60" y1="153.33333333333331" x2="670" y2="153.33333333333331" stroke="rgba(0,229,204,1)" stroke-width="0.5" opacity="0.18"/>
<line x1="60" y1="205.0" x2="670" y2="205.0" stroke="rgba(0,229,204,1)" stroke-width="0.5" opacity="0.18"/>
<line x1="60" y1="256.66666666666663" x2="670" y2="256.66666666666663" stroke="rgba(0,229,204,1)" stroke-width="0.5" opacity="0.18"/>
<line x1="60" y1="308.3333333333333" x2="670" y2="308.3333333333333" stroke="rgba(0,229,204,1)" stroke-width="0.5" opacity="0.18"/>
<line x1="60" y1="360.0" x2="670" y2="360.0" stroke="rgba(0,229,204,1)" stroke-width="0.5" opacity="0.18"/>
</g>
      <line x1="60" y1="175.75" x2="670" y2="175.75" stroke="rgba(255,255,255,0.5)" stroke-width="1.5" stroke-dasharray="6 6"/>
      <rect x="60" y="50" width="610" height="310" fill="none" stroke="rgba(0,229,204,0.15)" stroke-width="0.75" rx="4"/>

      <g class="axis-labels"><text x="60.0" y="380" font-size="10" fill="rgba(255,255,255,0.6)" text-anchor="middle" font-family="system-ui, sans-serif">0.1s</text>
<text x="161.66666666666669" y="380" font-size="10" fill="rgba(255,255,255,0.6)" text-anchor="middle" font-family="system-ui, sans-serif">7.6s</text>
<text x="263.33333333333337" y="380" font-size="10" fill="rgba(255,255,255,0.6)" text-anchor="middle" font-family="system-ui, sans-serif">15.0s</text>
<text x="365.0" y="380" font-size="10" fill="rgba(255,255,255,0.6)" text-anchor="middle" font-family="system-ui, sans-serif">22.5s</text>
<text x="466.6666666666667" y="380" font-size="10" fill="rgba(255,255,255,0.6)" text-anchor="middle" font-family="system-ui, sans-serif">30.0s</text>
<text x="568.3333333333333" y="380" font-size="10" fill="rgba(255,255,255,0.6)" text-anchor="middle" font-family="system-ui, sans-serif">37.4s</text>
<text x="670.0" y="380" font-size="10" fill="rgba(255,255,255,0.6)" text-anchor="middle" font-family="system-ui, sans-serif">44.9s</text>
<text x="50" y="54.0" font-size="10" fill="rgba(255,255,255,0.6)" text-anchor="end" font-family="system-ui, sans-serif">0.40</text>
<text x="50" y="105.66666666666666" font-size="10" fill="rgba(255,255,255,0.6)" text-anchor="end" font-family="system-ui, sans-serif">0.23</text>
<text x="50" y="157.33333333333331" font-size="10" fill="rgba(255,255,255,0.6)" text-anchor="end" font-family="system-ui, sans-serif">0.07</text>
<text x="50" y="209.0" font-size="10" fill="rgba(255,255,255,0.6)" text-anchor="end" font-family="system-ui, sans-serif">-0.09</text>
<text x="50" y="260.66666666666663" font-size="10" fill="rgba(255,255,255,0.6)" text-anchor="end" font-family="system-ui, sans-serif">-0.26</text>
<text x="50" y="312.3333333333333" font-size="10" fill="rgba(255,255,255,0.6)" text-anchor="end" font-family="system-ui, sans-serif">-0.42</text>
<text x="50" y="364.0" font-size="10" fill="rgba(255,255,255,0.6)" text-anchor="end" font-family="system-ui, sans-serif">-0.58</text>
</g>
      <text x="50" y="35" font-size="11" font-weight="bold" fill="rgba(0,229,204,0.8)" text-anchor="end" font-family="system-ui, sans-serif">Error (m)</text>
      <text x="670" y="395" font-size="11" font-weight="bold" fill="rgba(0,229,204,0.8)" text-anchor="end" font-family="system-ui, sans-serif">Time (s)</text>

      <path d="M 60.0,334.17 L 62.72,311.02 L 65.45,270.55 L 68.17,247.51 L 70.89,234.11 L 73.62,211.96 L 76.34,172.78 L 79.06,126.44 L 81.79,90.37 L 84.51,75.83 L 87.23,79.13 L 89.96,86.26 L 92.68,87.02 L 95.4,83.56 L 98.12,86.5 L 100.85,103.71 L 103.57,132.66 L 106.29,163.13 L 109.02,185.93 L 111.74,199.55 L 114.46,209.82 L 117.19,222.92 L 119.91,238.85 L 122.63,251.71 L 125.36,255.24 L 128.08,248.29 L 130.8,235.39 L 133.53,222.42 L 136.25,212.36 L 138.97,204.27 L 141.7,194.5 L 144.42,181.44 L 147.14,167.33 L 149.87,156.29 L 152.59,150.81 L 155.31,150.06 L 158.04,151.23 L 160.76,152.28 L 163.48,153.27 L 166.21,155.93 L 168.93,161.64 L 171.65,169.8 L 174.38,178.44 L 177.1,185.67 L 179.82,190.79 L 182.54,194.43 L 185.27,197.7 L 187.99,200.83 L 190.71,202.85 L 193.44,202.65 L 196.16,200.04 L 198.88,196.04 L 201.61,191.86 L 204.33,188.04 L 207.05,184.47 L 209.78,181.17 L 212.5,178.51 L 215.22,175.15 L 217.95,171.28 L 220.67,170.19 L 223.39,162.62 L 226.12,142.85 L 228.84,118.1 L 231.56,102.4 L 234.29,104.57 L 237.01,121.11 L 239.73,140.38 L 242.46,153.09 L 245.18,158.95 L 247.9,165.05 L 250.62,177.59 L 253.35,196.01 L 256.07,214.06 L 258.79,225.16 L 261.52,227.32 L 264.24,223.97 L 266.96,220.13 L 269.69,217.92 L 272.41,215.41 L 275.13,209.13 L 277.86,197.72 L 280.58,183.42 L 283.3,170.18 L 286.03,160.53 L 288.75,154.07 L 291.47,148.88 L 294.2,143.78 L 296.92,139.44 L 299.64,137.86 L 302.37,140.35 L 305.09,146.41 L 307.81,154.1 L 310.54,161.76 L 313.26,168.84 L 315.98,175.9 L 318.71,183.41 L 321.43,190.93 L 324.15,197.43 L 326.88,201.78 L 329.6,203.44 L 332.32,202.79 L 335.04,200.78 L 337.77,198.06 L 340.49,194.39 L 343.21,189.32 L 345.94,182.97 L 348.66,176.25 L 351.38,170.12 L 354.11,165.01 L 356.83,161.03 L 359.55,158.06 L 362.28,156.01 L 365.0,155.16 L 367.72,155.76 L 370.45,157.91 L 373.17,161.3 L 375.89,165.47 L 378.62,169.87 L 381.34,174.17 L 384.06,178.41 L 386.79,182.45 L 389.51,186.0 L 392.23,188.78 L 394.96,190.38 L 397.68,190.73 L 400.4,190.11 L 403.12,188.75 L 405.85,186.66 L 408.57,183.89 L 411.29,180.72 L 414.02,177.3 L 416.74,173.81 L 419.46,170.63 L 422.19,167.95 L 424.91,165.9 L 427.63,164.58 L 430.36,163.93 L 433.08,164.0 L 435.8,164.84 L 438.53,166.31 L 441.25,168.33 L 443.97,170.61 L 446.7,173.0 L 449.42,175.34 L 452.14,177.44 L 454.87,179.33 L 457.59,180.83 L 460.31,181.72 L 463.04,182.03 L 465.76,181.74 L 468.48,180.76 L 471.21,179.3 L 473.93,177.52 L 476.65,175.42 L 479.37,173.36 L 482.1,171.89 L 484.82,171.31 L 487.54,171.68 L 490.27,172.66 L 492.99,173.84 L 495.71,175.15 L 498.44,176.58 L 501.16,178.15 L 503.88,179.92 L 506.61,181.59 L 509.33,182.8 L 512.05,183.49 L 514.78,183.58 L 517.5,183.16 L 520.22,182.55 L 522.95,181.78 L 525.67,180.64 L 528.39,179.13 L 531.12,177.39 L 533.84,175.54 L 536.56,173.91 L 539.29,172.58 L 542.01,170.95 L 544.73,168.28 L 547.46,164.17 L 550.18,158.96 L 552.9,153.85 L 555.62,150.07 L 558.35,148.2 L 561.07,148.04 L 563.79,149.31 L 566.52,152.01 L 569.24,155.65 L 571.96,159.68 L 574.69,163.96 L 577.41,168.6 L 580.13,173.66 L 582.86,178.8 L 585.58,183.42 L 588.3,187.02 L 591.03,189.45 L 593.75,190.84 L 596.47,191.41 L 599.2,191.18 L 601.92,190.03 L 604.64,187.91 L 607.37,184.96 L 610.09,181.56 L 612.81,178.09 L 615.54,174.81 L 618.26,171.81 L 620.98,169.12 L 623.71,166.85 L 626.43,165.21 L 629.15,164.36 L 631.87,164.36 L 634.6,165.1 L 637.32,166.42 L 640.04,168.14 L 642.77,170.2 L 645.49,172.52 L 648.21,174.98 L 650.94,177.4 L 653.66,179.56 L 656.38,181.32 L 659.11,182.6 L 661.83,183.4 L 664.55,183.75 L 667.28,183.61 L 670.0,182.99" fill="none" stroke="url(#trail-grad-e)" stroke-width="2.5" stroke-linecap="round" stroke-linejoin="round"
            stroke-dasharray="1510.89" stroke-dashoffset="1510.89">
        <animate attributeName="stroke-dashoffset" values="1510.89;1487.58;1447.02;1423.82;1410.15;1387.83;1348.56;1302.14;1265.96;1251.17;1246.9;1239.26;1236.44;1232.04;1228.03;1210.61;1181.53;1150.94;1127.97;1114.08;1103.46;1090.08;1073.92;1060.77;1056.31;1048.85;1035.66;1022.41;1011.99;1003.45;993.31;979.97;965.6;954.23;948.11;945.29;942.32;939.4;936.51;932.7;926.37;917.77;908.71;900.98;895.19;890.64;886.38;882.24;878.85;876.11;872.34;867.5;862.51;857.82;853.33;849.05;845.25;840.92;836.19;833.26;825.21;805.26;780.36;764.42;760.94;744.17;724.71;711.71;705.25;698.57;685.74;667.12;648.87;637.44;633.96;629.64;624.94;621.42;617.72;610.88;599.15;584.59;571.07;561.04;554.04;548.18;542.39;537.27;534.12;530.43;523.79;515.63;507.5;499.91;492.35;484.36;476.36;469.31;464.18;460.99;458.19;454.81;450.96;446.39;440.64;433.73;426.48;419.77;413.98;409.16;405.13;401.71;398.86;396.08;392.6;388.26;383.28;378.1;373.01;367.97;363.1;358.63;354.74;351.57;348.83;346.04;343.0;339.56;335.68;331.5;327.13;322.7;318.52;314.69;311.29;308.26;305.46;302.74;299.89;296.79;293.4;289.85;286.22;282.63;279.2;275.88;272.77;269.91;267.16;264.43;261.54;258.44;255.19;251.75;248.34;245.24;242.46;239.71;236.81;233.85;230.83;227.75;224.61;221.36;218.16;215.18;212.38;209.65;206.89;204.11;201.27;198.32;195.21;191.97;188.68;185.51;182.48;179.3;175.49;170.56;164.68;158.89;154.24;150.93;148.2;145.2;141.36;136.82;131.95;126.88;121.5;115.75;109.93;104.57;100.06;96.41;93.35;90.57;87.83;84.88;81.43;77.41;73.06;68.65;64.38;60.33;56.51;52.96;49.78;46.93;44.21;41.38;38.36;35.14;31.72;28.14;24.48;20.83;17.36;14.12;11.1;8.27;5.52;2.79;0.0" dur="8s" repeatCount="indefinite" calcMode="linear"/>
      </path>

      <g>
        <circle r="9" fill="none" stroke="#ffe566" stroke-width="1.5">
          <animate attributeName="cx" values="60.0;62.72;65.45;68.17;70.89;73.62;76.34;79.06;81.79;84.51;87.23;89.96;92.68;95.4;98.12;100.85;103.57;106.29;109.02;111.74;114.46;117.19;119.91;122.63;125.36;128.08;130.8;133.53;136.25;138.97;141.7;144.42;147.14;149.87;152.59;155.31;158.04;160.76;163.48;166.21;168.93;171.65;174.38;177.1;179.82;182.54;185.27;187.99;190.71;193.44;196.16;198.88;201.61;204.33;207.05;209.78;212.5;215.22;217.95;220.67;223.39;226.12;228.84;231.56;234.29;237.01;239.73;242.46;245.18;247.9;250.62;253.35;256.07;258.79;261.52;264.24;266.96;269.69;272.41;275.13;277.86;280.58;283.3;286.03;288.75;291.47;294.2;296.92;299.64;302.37;305.09;307.81;310.54;313.26;315.98;318.71;321.43;324.15;326.88;329.6;332.32;335.04;337.77;340.49;343.21;345.94;348.66;351.38;354.11;356.83;359.55;362.28;365.0;367.72;370.45;373.17;375.89;378.62;381.34;384.06;386.79;389.51;392.23;394.96;397.68;400.4;403.12;405.85;408.57;411.29;414.02;416.74;419.46;422.19;424.91;427.63;430.36;433.08;435.8;438.53;441.25;443.97;446.7;449.42;452.14;454.87;457.59;460.31;463.04;465.76;468.48;471.21;473.93;476.65;479.37;482.1;484.82;487.54;490.27;492.99;495.71;498.44;501.16;503.88;506.61;509.33;512.05;514.78;517.5;520.22;522.95;525.67;528.39;531.12;533.84;536.56;539.29;542.01;544.73;547.46;550.18;552.9;555.62;558.35;561.07;563.79;566.52;569.24;571.96;574.69;577.41;580.13;582.86;585.58;588.3;591.03;593.75;596.47;599.2;601.92;604.64;607.37;610.09;612.81;615.54;618.26;620.98;623.71;626.43;629.15;631.87;634.6;637.32;640.04;642.77;645.49;648.21;650.94;653.66;656.38;659.11;661.83;664.55;667.28;670.0" dur="8s" repeatCount="indefinite" calcMode="linear"/>
          <animate attributeName="cy" values="334.17;311.02;270.55;247.51;234.11;211.96;172.78;126.44;90.37;75.83;79.13;86.26;87.02;83.56;86.5;103.71;132.66;163.13;185.93;199.55;209.82;222.92;238.85;251.71;255.24;248.29;235.39;222.42;212.36;204.27;194.5;181.44;167.33;156.29;150.81;150.06;151.23;152.28;153.27;155.93;161.64;169.8;178.44;185.67;190.79;194.43;197.7;200.83;202.85;202.65;200.04;196.04;191.86;188.04;184.47;181.17;178.51;175.15;171.28;170.19;162.62;142.85;118.1;102.4;104.57;121.11;140.38;153.09;158.95;165.05;177.59;196.01;214.06;225.16;227.32;223.97;220.13;217.92;215.41;209.13;197.72;183.42;170.18;160.53;154.07;148.88;143.78;139.44;137.86;140.35;146.41;154.1;161.76;168.84;175.9;183.41;190.93;197.43;201.78;203.44;202.79;200.78;198.06;194.39;189.32;182.97;176.25;170.12;165.01;161.03;158.06;156.01;155.16;155.76;157.91;161.3;165.47;169.87;174.17;178.41;182.45;186.0;188.78;190.38;190.73;190.11;188.75;186.66;183.89;180.72;177.3;173.81;170.63;167.95;165.9;164.58;163.93;164.0;164.84;166.31;168.33;170.61;173.0;175.34;177.44;179.33;180.83;181.72;182.03;181.74;180.76;179.3;177.52;175.42;173.36;171.89;171.31;171.68;172.66;173.84;175.15;176.58;178.15;179.92;181.59;182.8;183.49;183.58;183.16;182.55;181.78;180.64;179.13;177.39;175.54;173.91;172.58;170.95;168.28;164.17;158.96;153.85;150.07;148.2;148.04;149.31;152.01;155.65;159.68;163.96;168.6;173.66;178.8;183.42;187.02;189.45;190.84;191.41;191.18;190.03;187.91;184.96;181.56;178.09;174.81;171.81;169.12;166.85;165.21;164.36;164.36;165.1;166.42;168.14;170.2;172.52;174.98;177.4;179.56;181.32;182.6;183.4;183.75;183.61;182.99" dur="8s" repeatCount="indefinite" calcMode="linear"/>
          <animate attributeName="r" values="9;24;9" dur="2s" repeatCount="indefinite"/>
          <animate attributeName="opacity" values="0.8;0;0.8" dur="2s" repeatCount="indefinite"/>
        </circle>
        <circle r="5.5" fill="#ffe566">
          <animate attributeName="cx" values="60.0;62.72;65.45;68.17;70.89;73.62;76.34;79.06;81.79;84.51;87.23;89.96;92.68;95.4;98.12;100.85;103.57;106.29;109.02;111.74;114.46;117.19;119.91;122.63;125.36;128.08;130.8;133.53;136.25;138.97;141.7;144.42;147.14;149.87;152.59;155.31;158.04;160.76;163.48;166.21;168.93;171.65;174.38;177.1;179.82;182.54;185.27;187.99;190.71;193.44;196.16;198.88;201.61;204.33;207.05;209.78;212.5;215.22;217.95;220.67;223.39;226.12;228.84;231.56;234.29;237.01;239.73;242.46;245.18;247.9;250.62;253.35;256.07;258.79;261.52;264.24;266.96;269.69;272.41;275.13;277.86;280.58;283.3;286.03;288.75;291.47;294.2;296.92;299.64;302.37;305.09;307.81;310.54;313.26;315.98;318.71;321.43;324.15;326.88;329.6;332.32;335.04;337.77;340.49;343.21;345.94;348.66;351.38;354.11;356.83;359.55;362.28;365.0;367.72;370.45;373.17;375.89;378.62;381.34;384.06;386.79;389.51;392.23;394.96;397.68;400.4;403.12;405.85;408.57;411.29;414.02;416.74;419.46;422.19;424.91;427.63;430.36;433.08;435.8;438.53;441.25;443.97;446.7;449.42;452.14;454.87;457.59;460.31;463.04;465.76;468.48;471.21;473.93;476.65;479.37;482.1;484.82;487.54;490.27;492.99;495.71;498.44;501.16;503.88;506.61;509.33;512.05;514.78;517.5;520.22;522.95;525.67;528.39;531.12;533.84;536.56;539.29;542.01;544.73;547.46;550.18;552.9;555.62;558.35;561.07;563.79;566.52;569.24;571.96;574.69;577.41;580.13;582.86;585.58;588.3;591.03;593.75;596.47;599.2;601.92;604.64;607.37;610.09;612.81;615.54;618.26;620.98;623.71;626.43;629.15;631.87;634.6;637.32;640.04;642.77;645.49;648.21;650.94;653.66;656.38;659.11;661.83;664.55;667.28;670.0" dur="8s" repeatCount="indefinite" calcMode="linear"/>
          <animate attributeName="cy" values="334.17;311.02;270.55;247.51;234.11;211.96;172.78;126.44;90.37;75.83;79.13;86.26;87.02;83.56;86.5;103.71;132.66;163.13;185.93;199.55;209.82;222.92;238.85;251.71;255.24;248.29;235.39;222.42;212.36;204.27;194.5;181.44;167.33;156.29;150.81;150.06;151.23;152.28;153.27;155.93;161.64;169.8;178.44;185.67;190.79;194.43;197.7;200.83;202.85;202.65;200.04;196.04;191.86;188.04;184.47;181.17;178.51;175.15;171.28;170.19;162.62;142.85;118.1;102.4;104.57;121.11;140.38;153.09;158.95;165.05;177.59;196.01;214.06;225.16;227.32;223.97;220.13;217.92;215.41;209.13;197.72;183.42;170.18;160.53;154.07;148.88;143.78;139.44;137.86;140.35;146.41;154.1;161.76;168.84;175.9;183.41;190.93;197.43;201.78;203.44;202.79;200.78;198.06;194.39;189.32;182.97;176.25;170.12;165.01;161.03;158.06;156.01;155.16;155.76;157.91;161.3;165.47;169.87;174.17;178.41;182.45;186.0;188.78;190.38;190.73;190.11;188.75;186.66;183.89;180.72;177.3;173.81;170.63;167.95;165.9;164.58;163.93;164.0;164.84;166.31;168.33;170.61;173.0;175.34;177.44;179.33;180.83;181.72;182.03;181.74;180.76;179.3;177.52;175.42;173.36;171.89;171.31;171.68;172.66;173.84;175.15;176.58;178.15;179.92;181.59;182.8;183.49;183.58;183.16;182.55;181.78;180.64;179.13;177.39;175.54;173.91;172.58;170.95;168.28;164.17;158.96;153.85;150.07;148.2;148.04;149.31;152.01;155.65;159.68;163.96;168.6;173.66;178.8;183.42;187.02;189.45;190.84;191.41;191.18;190.03;187.91;184.96;181.56;178.09;174.81;171.81;169.12;166.85;165.21;164.36;164.36;165.1;166.42;168.14;170.2;172.52;174.98;177.4;179.56;181.32;182.6;183.4;183.75;183.61;182.99" dur="8s" repeatCount="indefinite" calcMode="linear"/>
        </circle>
        <circle r="2" fill="white">
          <animate attributeName="cx" values="60.0;62.72;65.45;68.17;70.89;73.62;76.34;79.06;81.79;84.51;87.23;89.96;92.68;95.4;98.12;100.85;103.57;106.29;109.02;111.74;114.46;117.19;119.91;122.63;125.36;128.08;130.8;133.53;136.25;138.97;141.7;144.42;147.14;149.87;152.59;155.31;158.04;160.76;163.48;166.21;168.93;171.65;174.38;177.1;179.82;182.54;185.27;187.99;190.71;193.44;196.16;198.88;201.61;204.33;207.05;209.78;212.5;215.22;217.95;220.67;223.39;226.12;228.84;231.56;234.29;237.01;239.73;242.46;245.18;247.9;250.62;253.35;256.07;258.79;261.52;264.24;266.96;269.69;272.41;275.13;277.86;280.58;283.3;286.03;288.75;291.47;294.2;296.92;299.64;302.37;305.09;307.81;310.54;313.26;315.98;318.71;321.43;324.15;326.88;329.6;332.32;335.04;337.77;340.49;343.21;345.94;348.66;351.38;354.11;356.83;359.55;362.28;365.0;367.72;370.45;373.17;375.89;378.62;381.34;384.06;386.79;389.51;392.23;394.96;397.68;400.4;403.12;405.85;408.57;411.29;414.02;416.74;419.46;422.19;424.91;427.63;430.36;433.08;435.8;438.53;441.25;443.97;446.7;449.42;452.14;454.87;457.59;460.31;463.04;465.76;468.48;471.21;473.93;476.65;479.37;482.1;484.82;487.54;490.27;492.99;495.71;498.44;501.16;503.88;506.61;509.33;512.05;514.78;517.5;520.22;522.95;525.67;528.39;531.12;533.84;536.56;539.29;542.01;544.73;547.46;550.18;552.9;555.62;558.35;561.07;563.79;566.52;569.24;571.96;574.69;577.41;580.13;582.86;585.58;588.3;591.03;593.75;596.47;599.2;601.92;604.64;607.37;610.09;612.81;615.54;618.26;620.98;623.71;626.43;629.15;631.87;634.6;637.32;640.04;642.77;645.49;648.21;650.94;653.66;656.38;659.11;661.83;664.55;667.28;670.0" dur="8s" repeatCount="indefinite" calcMode="linear"/>
          <animate attributeName="cy" values="334.17;311.02;270.55;247.51;234.11;211.96;172.78;126.44;90.37;75.83;79.13;86.26;87.02;83.56;86.5;103.71;132.66;163.13;185.93;199.55;209.82;222.92;238.85;251.71;255.24;248.29;235.39;222.42;212.36;204.27;194.5;181.44;167.33;156.29;150.81;150.06;151.23;152.28;153.27;155.93;161.64;169.8;178.44;185.67;190.79;194.43;197.7;200.83;202.85;202.65;200.04;196.04;191.86;188.04;184.47;181.17;178.51;175.15;171.28;170.19;162.62;142.85;118.1;102.4;104.57;121.11;140.38;153.09;158.95;165.05;177.59;196.01;214.06;225.16;227.32;223.97;220.13;217.92;215.41;209.13;197.72;183.42;170.18;160.53;154.07;148.88;143.78;139.44;137.86;140.35;146.41;154.1;161.76;168.84;175.9;183.41;190.93;197.43;201.78;203.44;202.79;200.78;198.06;194.39;189.32;182.97;176.25;170.12;165.01;161.03;158.06;156.01;155.16;155.76;157.91;161.3;165.47;169.87;174.17;178.41;182.45;186.0;188.78;190.38;190.73;190.11;188.75;186.66;183.89;180.72;177.3;173.81;170.63;167.95;165.9;164.58;163.93;164.0;164.84;166.31;168.33;170.61;173.0;175.34;177.44;179.33;180.83;181.72;182.03;181.74;180.76;179.3;177.52;175.42;173.36;171.89;171.31;171.68;172.66;173.84;175.15;176.58;178.15;179.92;181.59;182.8;183.49;183.58;183.16;182.55;181.78;180.64;179.13;177.39;175.54;173.91;172.58;170.95;168.28;164.17;158.96;153.85;150.07;148.2;148.04;149.31;152.01;155.65;159.68;163.96;168.6;173.66;178.8;183.42;187.02;189.45;190.84;191.41;191.18;190.03;187.91;184.96;181.56;178.09;174.81;171.81;169.12;166.85;165.21;164.36;164.36;165.1;166.42;168.14;170.2;172.52;174.98;177.4;179.56;181.32;182.6;183.4;183.75;183.61;182.99" dur="8s" repeatCount="indefinite" calcMode="linear"/>
        </circle>
      </g>

      <g class="legend" transform="translate(195.0, 20)">
        <rect x="0" y="-14" width="310" height="28" rx="14" fill="rgba(20, 15, 35, 0.8)" stroke="rgba(0, 229, 204, 0.4)" stroke-width="1"/>
        <line x1="20" y1="0" x2="45" y2="0" stroke="rgba(255,255,255,0.4)" stroke-width="2" stroke-dasharray="4 3"/>
        <text x="55" y="4" font-size="11" font-weight="600" fill="rgba(255,255,255,0.7)" font-family="system-ui, sans-serif">Perfect Trajectory</text>
        <line x1="175" y1="-6" x2="175" y2="6" stroke="rgba(255,255,255,0.2)" stroke-width="1"/>
        <line x1="190" y1="0" x2="215" y2="0" stroke="url(#trail-grad-e)" stroke-width="3" stroke-linecap="round"/>
        <text x="225" y="4" font-size="11" font-weight="bold" fill="#ff00cc" font-family="system-ui, sans-serif">Error</text>
      </g>
    </svg>