<svg xmlns="http://www.w3.org/2000/svg" viewBox="0 0 700 600" width="100%" class="trajectory-svg">
      <defs>
        <linearGradient id="trail-grad-t" x1="83.7" y1="0" x2="598.4" y2="0" gradientUnits="userSpaceOnUse">
          <stop offset="0%" stop-color="#aa00ff"/><stop offset="100%" stop-color="#ff00cc"/>
        </linearGradient>
      </defs>

      <rect width="700" height="600" fill="#0d0a1a"/>
      <g class="grid"><line x1="60" y1="60" x2="60" y2="540" stroke="rgba(0,229,204,1)" stroke-width="0.5" opacity="0.06"/>
<line x1="156" y1="60" x2="156" y2="540" stroke="rgba(0,229,204,1)" stroke-width="0.5" opacity="0.06"/>
<line x1="253" y1="60" x2="253" y2="540" stroke="rgba(0,229,204,1)" stroke-width="0.5" opacity="0.06"/>
<line x1="350" y1="60" x2="350" y2="540" stroke="rgba(0,229,204,1)" stroke-width="0.5" opacity="0.06"/>
<line x1="446" y1="60" x2="446" y2="540" stroke="rgba(0,229,204,1)" stroke-width="0.5" opacity="0.06"/>
<line x1="543" y1="60" x2="543" y2="540" stroke="rgba(0,229,204,1)" stroke-width="0.5" opacity="0.06"/>
<line x1="640" y1="60" x2="640" y2="540" stroke="rgba(0,229,204,1)" stroke-width="0.5" opacity="0.06"/>
<line x1="60" y1="60" x2="640" y2="60" stroke="rgba(0,229,204,1)" stroke-width="0.5" opacity="0.18"/>
<line x1="60" y1="140" x2="640" y2="140" stroke="rgba(0,229,204,1)" stroke-width="0.5" opacity="0.18"/>
<line x1="60" y1="220" x2="640" y2="220" stroke="rgba(0,229,204,1)" stroke-width="0.5" opacity="0.18"/>
<line x1="60" y1="300" x2="640" y2="300" stroke="rgba(0,229,204,1)" stroke-width="0.5" opacity="0.18"/>
<line x1="60" y1="380" x2="640" y2="380" stroke="rgba(0,229,204,1)" stroke-width="0.5" opacity="0.18"/>
<line x1="60" y1="460" x2="640" y2="460" stroke="rgba(0,229,204,1)" stroke-width="0.5" opacity="0.18"/>
<line x1="60" y1="540" x2="640" y2="540" stroke="rgba(0,229,204,1)" stroke-width="0.5" opacity="0.18"/>
</g>
      <rect x="60" y="60" width="580" height="480" fill="none" stroke="rgba(0,229,204,0.15)" stroke-width="0.75" rx="4"/>

      <path d="M 533.88,491.49 L 533.88,489.07 L 533.88,486.64 L 533.88,484.21 L 533.88,481.78 L 533.88,479.35 L 533.88,476.92 L 533.88,474.49 L 533.88,472.06 L 533.88,469.63 L 533.88,467.21 L 533.88,464.78 L 533.88,462.35 L 533.88,459.92 L 533.88,457.49 L 533.88,455.06 L 533.88,452.63 L 533.88,450.2 L 533.88,447.77 L 533.88,445.35 L 533.88,442.92 L 533.88,440.49 L 533.88,438.06 L 533.88,435.63 L 533.88,433.2 L 533.88,430.77 L 533.88,428.34 L 533.88,425.91 L 533.88,423.49 L 533.88,421.06 L 533.88,418.63 L 533.88,416.2 L 533.88,413.77 L 533.88,411.34 L 533.88,408.91 L 533.88,406.48 L 533.88,404.05 L 533.88,401.63 L 533.88,399.2 L 533.88,396.77 L 533.88,394.34 L 533.88,391.91 L 533.88,389.48 L 533.88,387.05 L 533.88,384.62 L 533.88,382.19 L 533.88,379.77 L 533.88,377.34 L 533.88,374.91 L 533.88,372.48 L 533.88,370.05 L 533.88,367.62 L 533.88,365.19 L 533.88,362.76 L 533.88,360.34 L 533.88,357.91 L 533.88,355.48 L 533.88,353.05 L 533.88,350.62 L 533.88,348.19 L 533.88,345.76 L 533.88,343.33 L 533.88,340.9 L 533.88,338.48 L 533.88,336.05 L 533.88,333.62 L 533.88,331.19 L 533.88,328.76 L 533.88,326.33 L 533.88,323.9 L 533.88,321.47 L 533.88,319.04 L 533.88,316.62 L 533.88,314.19 L 533.88,311.76 L 533.88,309.33 L 533.88,306.9 L 533.88,304.47 L 533.88,302.04 L 533.88,299.61 L 533.88,297.18 L 533.88,294.76 L 533.88,292.33 L 533.88,289.9 L 533.88,287.47 L 533.88,285.04 L 533.85,282.61 L 533.8,280.18 L 533.72,277.76 L 533.62,275.33 L 533.49,272.9 L 533.33,270.48 L 533.15,268.06 L 532.94,265.64 L 532.71,263.22 L 532.44,260.81 L 532.16,258.39 L 531.85,255.98 L 531.51,253.58 L 531.15,251.18 L 530.76,248.78 L 530.34,246.39 L 529.9,244.0 L 529.43,241.61 L 528.94,239.24 L 528.42,236.86 L 527.88,234.5 L 527.31,232.13 L 526.72,229.78 L 526.1,227.43 L 525.46,225.09 L 524.79,222.75 L 524.09,220.43 L 523.37,218.11 L 522.63,215.79 L 521.86,213.49 L 521.07,211.19 L 520.25,208.91 L 519.41,206.63 L 518.54,204.36 L 517.65,202.1 L 516.73,199.85 L 515.79,197.61 L 514.83,195.38 L 513.84,193.16 L 512.83,190.95 L 511.8,188.76 L 510.74,186.57 L 509.66,184.4 L 508.55,182.23 L 507.42,180.08 L 506.27,177.94 L 505.1,175.82 L 503.9,173.7 L 502.68,171.6 L 501.44,169.52 L 500.17,167.44 L 498.89,165.38 L 497.58,163.34 L 496.25,161.3 L 494.9,159.29 L 493.52,157.28 L 492.13,155.3 L 490.71,153.32 L 489.27,151.36 L 487.82,149.42 L 486.34,147.5 L 484.84,145.59 L 483.32,143.69 L 481.78,141.81 L 480.21,139.95 L 478.63,138.11 L 477.03,136.28 L 475.41,134.47 L 473.78,132.68 L 472.12,130.9 L 470.44,129.15 L 468.74,127.41 L 467.03,125.69 L 465.3,123.99 L 463.55,122.3 L 461.78,120.64 L 459.99,118.99 L 458.19,117.37 L 456.36,115.76 L 454.52,114.17 L 452.67,112.61 L 450.8,111.06 L 448.91,109.53 L 447.0,108.03 L 445.08,106.54 L 443.14,105.07 L 441.19,103.63 L 439.22,102.21 L 437.24,100.8 L 435.24,99.42 L 433.23,98.06 L 431.2,96.73 L 429.16,95.41 L 427.1,94.12 L 425.03,92.85 L 422.95,91.6 L 420.85,90.37 L 418.75,89.17 L 416.62,87.98 L 414.49,86.83 L 412.34,85.69 L 410.18,84.58 L 408.01,83.49 L 405.83,82.42 L 403.64,81.38 L 401.43,80.36 L 399.21,79.37 L 396.99,78.39 L 394.75,77.45 L 392.51,76.52 L 390.25,75.63 L 387.98,74.75 L 385.71,73.9 L 383.42,73.07 L 381.13,72.27 L 378.83,71.5 L 376.52,70.74 L 374.2,70.02 L 371.88,69.31 L 369.55,68.64 L 367.21,67.99 L 364.86,67.36 L 362.51,66.76 L 360.15,66.18 L 357.78,65.63 L 355.41,65.1 L 353.03,64.6 L 350.65,64.13 L 348.26,63.68 L 345.87,63.26 L 343.48,62.86 L 341.08,62.49 L 338.67,62.14 L 336.26,61.82 L 333.85,61.52 L 331.44,61.26 L 329.02,61.01 L 326.6,60.8 L 324.18,60.61 L 321.76,60.44 L 319.33,60.3 L 316.91,60.19 L 314.48,60.1 L 312.05,60.04 L 309.62,60.01 L 307.19,60.0 L 304.77,60.02 L 302.34,60.06 L 299.91,60.13 L 297.48,60.23 L 295.06,60.35 L 292.63,60.5 L 290.21,60.67 L 287.79,60.87 L 285.37,61.1 L 282.95,61.35 L 280.54,61.63 L 278.13,61.93 L 275.73,62.26 L 273.32,62.62 L 270.92,63.0 L 268.53,63.4 L 266.14,63.84 L 263.75,64.29 L 261.37,64.78 L 259.0,65.29 L 256.63,65.82 L 254.27,66.38 L 251.91,66.97 L 249.56,67.58 L 247.21,68.21 L 244.88,68.88 L 242.55,69.56 L 240.22,70.27 L 237.91,71.01 L 235.6,71.77 L 233.3,72.55 L 231.02,73.36 L 228.73,74.2 L 226.46,75.06 L 224.2,75.94 L 221.95,76.85 L 219.7,77.78 L 217.47,78.74 L 215.25,79.72 L 213.04,80.72 L 210.84,81.75 L 208.65,82.8 L 206.47,83.87 L 204.3,84.97 L 202.15,86.09 L 200.0,87.24 L 197.87,88.4 L 195.76,89.59 L 193.65,90.8 L 191.56,92.04 L 189.48,93.3 L 187.42,94.58 L 185.37,95.88 L 183.33,97.2 L 181.31,98.55 L 179.3,99.91 L 177.31,101.3 L 175.33,102.71 L 173.37,104.14 L 171.42,105.59 L 169.49,107.07 L 167.57,108.56 L 165.67,110.07 L 163.79,111.61 L 161.92,113.16 L 160.07,114.73 L 158.24,116.33 L 156.42,117.94 L 154.63,119.57 L 152.84,121.23 L 151.08,122.9 L 149.34,124.59 L 147.61,126.3 L 145.9,128.02 L 144.21,129.77 L 142.54,131.53 L 140.89,133.31 L 139.26,135.11 L 137.65,136.93 L 136.05,138.76 L 134.48,140.61 L 132.93,142.48 L 131.39,144.36 L 129.88,146.26 L 128.39,148.18 L 126.92,150.11 L 125.46,152.06 L 124.03,154.02 L 122.63,156.0 L 121.24,157.99 L 119.87,160.0 L 118.53,162.02 L 117.2,164.06 L 115.9,166.11 L 114.63,168.18 L 113.37,170.26 L 112.14,172.35 L 110.92,174.45 L 109.73,176.57 L 108.57,178.7 L 107.43,180.85 L 106.31,183.0 L 105.21,185.17 L 104.14,187.35 L 103.09,189.54 L 102.06,191.74 L 101.06,193.95 L 100.08,196.17 L 99.12,198.41 L 98.19,200.65 L 97.28,202.9 L 96.4,205.17 L 95.54,207.44 L 94.71,209.72 L 93.9,212.01 L 93.12,214.31 L 92.36,216.61 L 91.62,218.93 L 90.91,221.25 L 90.22,223.58 L 89.56,225.92 L 88.93,228.26 L 88.32,230.62 L 87.73,232.97 L 87.18,235.34 L 86.64,237.71 L 86.13,240.08 L 85.65,242.46 L 85.19,244.85 L 84.76,247.24 L 84.35,249.63 L 83.97,252.03 L 83.62,254.43 L 83.29,256.84 L 82.99,259.25 L 82.71,261.66 L 82.46,264.08 L 82.24,266.5 L 82.04,268.92 L 81.86,271.34 L 81.72,273.77 L 81.6,276.19 L 81.5,278.62 L 81.43,281.05 L 81.39,283.47 L 81.37,285.9 L 81.38,288.33 L 81.42,290.76 L 81.48,293.19 L 81.56,295.62 L 81.68,298.04 L 81.82,300.47 L 81.98,302.89 L 82.18,305.31 L 82.39,307.73 L 82.64,310.15 L 82.91,312.56 L 83.2,314.97 L 83.52,317.38 L 83.87,319.78 L 84.24,322.18 L 84.64,324.58 L 85.06,326.97 L 85.51,329.36 L 85.99,331.74 L 86.49,334.12 L 87.02,336.49 L 87.57,338.85 L 88.15,341.21 L 88.75,343.57 L 89.38,345.91 L 90.03,348.25 L 90.71,350.58 L 91.41,352.91 L 92.14,355.23 L 92.89,357.53 L 93.67,359.84 L 94.47,362.13 L 95.3,364.41 L 96.15,366.69 L 97.03,368.95 L 97.93,371.21 L 98.85,373.45 L 99.8,375.69 L 100.77,377.92 L 101.77,380.13 L 102.79,382.34 L 103.83,384.53 L 104.9,386.71 L 105.99,388.88 L 107.1,391.04 L 108.24,393.19 L 109.4,395.32 L 110.58,397.44 L 111.78,399.55 L 113.01,401.65 L 114.26,403.73 L 115.53,405.8 L 116.83,407.86 L 118.14,409.9 L 119.48,411.92 L 120.84,413.94 L 122.22,415.93 L 123.63,417.92 L 125.05,419.88 L 126.49,421.84 L 127.96,423.77 L 129.45,425.69 L 130.95,427.6 L 132.48,429.49 L 134.03,431.36 L 135.6,433.21 L 137.18,435.05 L 138.79,436.87 L 140.42,438.68 L 142.06,440.46 L 143.73,442.23 L 145.41,443.98 L 147.12,445.71 L 148.84,447.43 L 150.58,449.12 L 152.33,450.8 L 154.11,452.46 L 155.9,454.1 L 157.71,455.72 L 159.54,457.32 L 161.38,458.89 L 163.25,460.45 L 165.12,461.99 L 167.02,463.51 L 168.93,465.01 L 170.86,466.49 L 172.8,467.95 L 174.76,469.39 L 176.73,470.8 L 178.72,472.2 L 180.72,473.57 L 182.74,474.92 L 184.77,476.25 L 186.82,477.56 L 188.88,478.85 L 190.96,480.11 L 193.04,481.35 L 195.15,482.57 L 197.26,483.76 L 199.39,484.94 L 201.52,486.09 L 203.68,487.22 L 205.84,488.32 L 208.01,489.4 L 210.2,490.46 L 212.4,491.49 L 214.61,492.5 L 216.83,493.49 L 219.06,494.45 L 221.3,495.39 L 223.55,496.31 L 225.81,497.2 L 228.08,498.06 L 230.35,498.91 L 232.64,499.72 L 234.94,500.52 L 237.24,501.28 L 239.55,502.03 L 241.87,502.74 L 244.2,503.44 L 246.54,504.11 L 248.88,504.75 L 251.23,505.37 L 253.58,505.96 L 255.95,506.53 L 258.31,507.07 L 260.69,507.59 L 263.07,508.08 L 265.45,508.54 L 267.84,508.98 L 270.23,509.4 L 272.63,509.79 L 275.03,510.15 L 277.44,510.49 L 279.84,510.8 L 282.26,511.08 L 284.67,511.34 L 287.09,511.58 L 289.51,511.78 L 291.93,511.99 L 294.35,512.2 L 296.77,512.41 L 299.19,512.61 L 301.61,512.82 L 304.03,513.03 L 306.45,513.24 L 308.87,513.44 L 311.29,513.65 L 313.71,513.86 L 316.13,514.07 L 318.55,514.27 L 320.97,514.48 L 323.39,514.69 L 325.81,514.89 L 328.23,515.1 L 330.65,515.31 L 333.07,515.52 L 335.49,515.72 L 337.91,515.93 L 340.33,516.14 L 342.75,516.35 L 345.17,516.55 L 347.59,516.76 L 350.01,516.97 L 352.43,517.18 L 354.85,517.38 L 357.27,517.59 L 359.69,517.8 L 362.11,518.01 L 364.53,518.21 L 366.95,518.42 L 369.37,518.63 L 371.79,518.84 L 374.21,519.04 L 376.63,519.25 L 379.05,519.46 L 381.47,519.67 L 383.89,519.87 L 386.31,520.08 L 388.73,520.29 L 391.15,520.5 L 393.57,520.7 L 395.99,520.91 L 398.41,521.12 L 400.83,521.33 L 403.25,521.53 L 405.67,521.74 L 408.09,521.95 L 410.51,522.16 L 412.93,522.36 L 415.35,522.57 L 417.77,522.78 L 420.19,522.99 L 422.61,523.19 L 425.03,523.4 L 427.45,523.61 L 429.87,523.82 L 432.29,524.02 L 434.71,524.23 L 437.13,524.44 L 439.55,524.65 L 441.97,524.85 L 444.39,525.06 L 446.81,525.27 L 449.23,525.48 L 451.65,525.68 L 454.07,525.89 L 456.49,526.1 L 458.91,526.31 L 461.33,526.51 L 463.75,526.72 L 466.17,526.93 L 468.59,527.14 L 471.01,527.34 L 473.43,527.55 L 475.85,527.76 L 478.27,527.97 L 480.69,528.17 L 483.11,528.38 L 485.53,528.59 L 487.95,528.8 L 490.37,529.0 L 492.79,529.21 L 495.21,529.42 L 497.63,529.63 L 500.05,529.83 L 502.47,530.04 L 504.89,530.25 L 507.31,530.46 L 509.73,530.66 L 512.15,530.87 L 514.57,531.08 L 516.99,531.29 L 519.41,531.49 L 521.83,531.7 L 524.25,531.91 L 526.67,532.12 L 529.09,532.32 L 531.51,532.53 L 533.93,532.74 L 536.35,532.95 L 538.77,533.15 L 541.19,533.36 L 543.61,533.57 L 546.03,533.78 L 548.45,533.98 L 550.87,534.19 L 553.29,534.4 L 555.71,534.61 L 558.13,534.81 L 560.55,535.02 L 562.97,535.23 L 565.39,535.44 L 567.81,535.64 L 570.23,535.85 L 572.65,536.06 L 575.07,536.27 L 577.49,536.47 L 579.91,536.68 L 582.33,536.89 L 584.75,537.1 L 587.17,537.3 L 589.59,537.51 L 592.01,537.72 L 594.43,537.93 L 596.85,538.13 L 599.27,538.34 L 601.69,538.55 L 604.11,538.76 L 606.53,538.96 L 608.95,539.17 L 611.37,539.38 L 613.79,539.59 L 616.21,539.79 L 618.63,540.0" fill="none" stroke="rgba(255,255,255,0.38)" stroke-width="1.3" stroke-dasharray="8 5"/>

      <path d="M 542.62,500.24 L 541.34,493.4 L 539.11,486.78 L 537.84,479.9 L 537.1,472.95 L 535.88,466.06 L 533.71,459.42 L 531.16,452.91 L 529.17,446.21 L 528.36,439.27 L 528.54,432.28 L 528.94,425.29 L 528.98,418.3 L 528.79,411.31 L 528.95,404.32 L 529.9,397.39 L 531.5,390.58 L 533.18,383.79 L 534.44,376.91 L 535.19,369.96 L 535.76,362.99 L 536.48,356.03 L 537.36,349.09 L 538.07,342.13 L 538.26,335.14 L 537.88,328.16 L 537.17,321.2 L 536.45,314.24 L 535.88,307.27 L 535.35,300.29 L 534.64,293.34 L 533.64,286.41 L 532.45,279.52 L 531.27,272.62 L 530.24,265.71 L 529.28,258.78 L 528.25,251.86 L 527.02,244.97 L 525.6,238.12 L 524.07,231.3 L 522.5,224.48 L 520.86,217.68 L 519.04,210.93 L 516.94,204.25 L 514.54,197.69 L 511.86,191.23 L 508.96,184.86 L 505.86,178.59 L 502.52,172.44 L 498.89,166.47 L 494.96,160.68 L 490.79,155.06 L 486.45,149.58 L 481.95,144.22 L 477.29,139.0 L 472.49,133.91 L 467.56,128.96 L 462.45,124.18 L 457.17,119.59 L 451.86,115.04 L 446.18,110.95 L 440.04,107.62 L 433.67,104.73 L 427.42,101.59 L 421.56,97.77 L 416.03,93.49 L 410.46,89.26 L 404.56,85.51 L 398.36,82.28 L 392.06,79.23 L 385.83,76.06 L 379.65,72.79 L 373.36,69.72 L 366.83,67.22 L 360.08,65.38 L 353.22,64.05 L 346.31,62.96 L 339.38,61.99 L 332.42,61.26 L 325.44,60.94 L 318.45,61.13 L 311.47,61.69 L 304.52,62.41 L 297.56,63.15 L 290.61,63.93 L 283.67,64.86 L 276.77,66.0 L 269.9,67.32 L 263.05,68.7 L 256.19,70.07 L 249.33,71.47 L 242.51,73.0 L 235.73,74.74 L 229.02,76.72 L 222.38,78.92 L 215.8,81.29 L 209.3,83.87 L 202.9,86.7 L 196.65,89.83 L 190.57,93.28 L 184.66,97.03 L 178.92,101.03 L 173.33,105.23 L 167.9,109.64 L 162.67,114.28 L 157.63,119.13 L 152.75,124.15 L 148.01,129.29 L 143.4,134.55 L 138.9,139.9 L 134.52,145.36 L 130.28,150.92 L 126.16,156.58 L 122.16,162.31 L 118.27,168.13 L 114.5,174.02 L 110.88,180.01 L 107.44,186.1 L 104.2,192.29 L 101.15,198.59 L 98.31,204.98 L 95.7,211.47 L 93.33,218.05 L 91.22,224.72 L 89.4,231.48 L 87.83,238.29 L 86.52,245.16 L 85.47,252.08 L 84.66,259.03 L 84.1,266.0 L 83.76,272.99 L 83.65,279.98 L 83.74,286.97 L 84.02,293.96 L 84.48,300.94 L 85.12,307.91 L 85.95,314.86 L 86.95,321.78 L 88.12,328.67 L 89.47,335.54 L 91.01,342.36 L 92.75,349.14 L 94.69,355.86 L 96.85,362.51 L 99.22,369.09 L 101.81,375.59 L 104.62,381.99 L 107.66,388.3 L 110.92,394.48 L 114.4,400.55 L 118.1,406.49 L 122.0,412.29 L 126.1,417.96 L 130.39,423.48 L 134.85,428.88 L 139.44,434.15 L 144.17,439.31 L 149.01,444.35 L 153.99,449.27 L 159.11,454.03 L 164.38,458.64 L 169.77,463.09 L 175.3,467.37 L 180.96,471.49 L 186.74,475.42 L 192.66,479.15 L 198.7,482.67 L 204.87,485.97 L 211.15,489.06 L 217.53,491.93 L 223.99,494.6 L 230.55,497.04 L 237.18,499.26 L 243.88,501.26 L 250.64,503.05 L 257.46,504.64 L 264.31,506.03 L 271.2,507.23 L 278.13,508.23 L 285.07,509.04 L 292.04,509.7 L 299.01,510.29 L 305.98,510.9 L 312.94,511.57 L 319.9,512.3 L 326.85,513.08 L 333.79,513.91 L 340.73,514.78 L 347.68,515.66 L 354.62,516.53 L 361.55,517.42 L 368.49,518.33 L 375.43,519.23 L 382.37,520.1 L 389.32,520.91 L 396.27,521.65 L 403.23,522.33 L 410.2,522.97 L 417.17,523.56 L 424.14,524.1 L 431.12,524.58 L 438.1,525.02 L 445.09,525.43 L 452.07,525.84 L 459.05,526.26 L 466.03,526.69 L 473.01,527.14 L 479.99,527.62 L 486.97,528.13 L 493.94,528.68 L 500.91,529.28 L 507.88,529.91 L 514.84,530.58 L 521.8,531.28 L 528.76,531.99 L 535.72,532.71 L 542.68,533.45 L 549.63,534.18 L 556.59,534.89 L 563.55,535.59 L 570.52,536.25 L 577.48,536.9 L 584.45,537.51 L 591.42,538.1 L 598.39,538.67" fill="none" stroke="url(#trail-grad-t)" stroke-width="2.5" stroke-linecap="round" stroke-linejoin="round"
            stroke-dasharray="1566.75" stroke-dashoffset="1566.75">
        <animate attributeName="stroke-dashoffset" values="1566.75;1559.79;1552.81;1545.81;1538.82;1531.83;1524.84;1517.85;1510.86;1503.87;1496.88;1489.88;1482.89;1475.9;1468.9;1461.91;1454.91;1447.92;1440.92;1433.93;1426.94;1419.94;1412.95;1405.95;1398.96;1391.97;1384.97;1377.98;1370.98;1363.98;1357.0;1349.99;1343.0;1336.0;1329.02;1322.02;1315.02;1308.02;1301.03;1294.04;1287.04;1280.05;1273.06;1266.05;1259.07;1252.07;1245.07;1238.08;1231.08;1224.09;1217.1;1210.1;1203.11;1196.11;1189.11;1182.12;1175.13;1168.13;1161.14;1154.14;1147.14;1140.16;1133.16;1126.17;1119.18;1112.18;1105.19;1098.2;1091.21;1084.21;1077.22;1070.23;1063.23;1056.23;1049.24;1042.25;1035.25;1028.26;1021.26;1014.27;1007.28;1000.28;993.29;986.29;979.3;972.29;965.3;958.3;951.32;944.32;937.32;930.33;923.33;916.34;909.34;902.35;895.35;888.36;881.37;874.37;867.38;860.38;853.39;846.39;839.4;832.41;825.4;818.41;811.42;804.43;797.43;790.44;783.43;776.45;769.45;762.45;755.45;748.46;741.47;734.47;727.48;720.49;713.49;706.5;699.5;692.51;685.51;678.51;671.52;664.52;657.53;650.54;643.54;636.55;629.55;622.55;615.56;608.56;601.57;594.57;587.58;580.58;573.59;566.6;559.6;552.6;545.62;538.61;531.62;524.63;517.63;510.64;503.64;496.65;489.65;482.66;475.66;468.67;461.67;454.68;447.68;440.69;433.7;426.7;419.71;412.71;405.72;398.72;391.72;384.73;377.74;370.74;363.75;356.75;349.76;342.76;335.77;328.77;321.77;314.78;307.78;300.79;293.79;286.8;279.8;272.81;265.82;258.82;251.82;244.82;237.84;230.84;223.84;216.85;209.85;202.86;195.87;188.87;181.87;174.88;167.88;160.89;153.89;146.9;139.9;132.91;125.92;118.92;111.92;104.93;97.93;90.94;83.94;76.95;69.95;62.95;55.96;48.97;41.97;34.98;27.98;20.98;13.99;6.99;0.0" dur="8s" repeatCount="indefinite" calcMode="linear"/>
      </path>

      <g>
        <circle r="9" fill="none" stroke="#ffe566" stroke-width="1.5">
          <animate attributeName="cx" values="542.62;541.34;539.11;537.84;537.1;535.88;533.71;531.16;529.17;528.36;528.54;528.94;528.98;528.79;528.95;529.9;531.5;533.18;534.44;535.19;535.76;536.48;537.36;538.07;538.26;537.88;537.17;536.45;535.88;535.35;534.64;533.64;532.45;531.27;530.24;529.28;528.25;527.02;525.6;524.07;522.5;520.86;519.04;516.94;514.54;511.86;508.96;505.86;502.52;498.89;494.96;490.79;486.45;481.95;477.29;472.49;467.56;462.45;457.17;451.86;446.18;440.04;433.67;427.42;421.56;416.03;410.46;404.56;398.36;392.06;385.83;379.65;373.36;366.83;360.08;353.22;346.31;339.38;332.42;325.44;318.45;311.47;304.52;297.56;290.61;283.67;276.77;269.9;263.05;256.19;249.33;242.51;235.73;229.02;222.38;215.8;209.3;202.9;196.65;190.57;184.66;178.92;173.33;167.9;162.67;157.63;152.75;148.01;143.4;138.9;134.52;130.28;126.16;122.16;118.27;114.5;110.88;107.44;104.2;101.15;98.31;95.7;93.33;91.22;89.4;87.83;86.52;85.47;84.66;84.1;83.76;83.65;83.74;84.02;84.48;85.12;85.95;86.95;88.12;89.47;91.01;92.75;94.69;96.85;99.22;101.81;104.62;107.66;110.92;114.4;118.1;122.0;126.1;130.39;134.85;139.44;144.17;149.01;153.99;159.11;164.38;169.77;175.3;180.96;186.74;192.66;198.7;204.87;211.15;217.53;223.99;230.55;237.18;243.88;250.64;257.46;264.31;271.2;278.13;285.07;292.04;299.01;305.98;312.94;319.9;326.85;333.79;340.73;347.68;354.62;361.55;368.49;375.43;382.37;389.32;396.27;403.23;410.2;417.17;424.14;431.12;438.1;445.09;452.07;459.05;466.03;473.01;479.99;486.97;493.94;500.91;507.88;514.84;521.8;528.76;535.72;542.68;549.63;556.59;563.55;570.52;577.48;584.45;591.42;598.39" dur="8s" repeatCount="indefinite" calcMode="linear"/>
          <animate attributeName="cy" values="500.24;493.4;486.78;479.9;472.95;466.06;459.42;452.91;446.21;439.27;432.28;425.29;418.3;411.31;404.32;397.39;390.58;383.79;376.91;369.96;362.99;356.03;349.09;342.13;335.14;328.16;321.2;314.24;307.27;300.29;293.34;286.41;279.52;272.62;265.71;258.78;251.86;244.97;238.12;231.3;224.48;217.68;210.93;204.25;197.69;191.23;184.86;178.59;172.44;166.47;160.68;155.06;149.58;144.22;139.0;133.91;128.96;124.18;119.59;115.04;110.95;107.62;104.73;101.59;97.77;93.49;89.26;85.51;82.28;79.23;76.06;72.79;69.72;67.22;65.38;64.05;62.96;61.99;61.26;60.94;61.13;61.69;62.41;63.15;63.93;64.86;66.0;67.32;68.7;70.07;71.47;73.0;74.74;76.72;78.92;81.29;83.87;86.7;89.83;93.28;97.03;101.03;105.23;109.64;114.28;119.13;124.15;129.29;134.55;139.9;145.36;150.92;156.58;162.31;168.13;174.02;180.01;186.1;192.29;198.59;204.98;211.47;218.05;224.72;231.48;238.29;245.16;252.08;259.03;266.0;272.99;279.98;286.97;293.96;300.94;307.91;314.86;321.78;328.67;335.54;342.36;349.14;355.86;362.51;369.09;375.59;381.99;388.3;394.48;400.55;406.49;412.29;417.96;423.48;428.88;434.15;439.31;444.35;449.27;454.03;458.64;463.09;467.37;471.49;475.42;479.15;482.67;485.97;489.06;491.93;494.6;497.04;499.26;501.26;503.05;504.64;506.03;507.23;508.23;509.04;509.7;510.29;510.9;511.57;512.3;513.08;513.91;514.78;515.66;516.53;517.42;518.33;519.23;520.1;520.91;521.65;522.33;522.97;523.56;524.1;524.58;525.02;525.43;525.84;526.26;526.69;527.14;527.62;528.13;528.68;529.28;529.91;530.58;531.28;531.99;532.71;533.45;534.18;534.89;535.59;536.25;536.9;537.51;538.1;538.67" dur="8s" repeatCount="indefinite" calcMode="linear"/>
          <animate attributeName="r" values="9;24;9" dur="2s" repeatCount="indefinite"/>
          <animate attributeName="opacity" values="0.8;0;0.8" dur="2s" repeatCount="indefinite"/>
        </circle>
        <circle r="5.5" fill="#ffe566">
          <animate attributeName="cx" values="542.62;541.34;539.11;537.84;537.1;535.88;533.71;531.16;529.17;528.36;528.54;528.94;528.98;528.79;528.95;529.9;531.5;533.18;534.44;535.19;535.76;536.48;537.36;538.07;538.26;537.88;537.17;536.45;535.88;535.35;534.64;533.64;532.45;531.27;530.24;529.28;528.25;527.02;525.6;524.07;522.5;520.86;519.04;516.94;514.54;511.86;508.96;505.86;502.52;498.89;494.96;490.79;486.45;481.95;477.29;472.49;467.56;462.45;457.17;451.86;446.18;440.04;433.67;427.42;421.56;416.03;410.46;404.56;398.36;392.06;385.83;379.65;373.36;366.83;360.08;353.22;346.31;339.38;332.42;325.44;318.45;311.47;304.52;297.56;290.61;283.67;276.77;269.9;263.05;256.19;249.33;242.51;235.73;229.02;222.38;215.8;209.3;202.9;196.65;190.57;184.66;178.92;173.33;167.9;162.67;157.63;152.75;148.01;143.4;138.9;134.52;130.28;126.16;122.16;118.27;114.5;110.88;107.44;104.2;101.15;98.31;95.7;93.33;91.22;89.4;87.83;86.52;85.47;84.66;84.1;83.76;83.65;83.74;84.02;84.48;85.12;85.95;86.95;88.12;89.47;91.01;92.75;94.69;96.85;99.22;101.81;104.62;107.66;110.92;114.4;118.1;122.0;126.1;130.39;134.85;139.44;144.17;149.01;153.99;159.11;164.38;169.77;175.3;180.96;186.74;192.66;198.7;204.87;211.15;217.53;223.99;230.55;237.18;243.88;250.64;257.46;264.31;271.2;278.13;285.07;292.04;299.01;305.98;312.94;319.9;326.85;333.79;340.73;347.68;354.62;361.55;368.49;375.43;382.37;389.32;396.27;403.23;410.2;417.17;424.14;431.12;438.1;445.09;452.07;459.05;466.03;473.01;479.99;486.97;493.94;500.91;507.88;514.84;521.8;528.76;535.72;542.68;549.63;556.59;563.55;570.52;577.48;584.45;591.42;598.39" dur="8s" repeatCount="indefinite" calcMode="linear"/>
          <animate attributeName="cy" values="500.24;493.4;486.78;479.9;472.95;466.06;459.42;452.91;446.21;439.27;432.28;425.29;418.3;411.31;404.32;397.39;390.58;383.79;376.91;369.96;362.99;356.03;349.09;342.13;335.14;328.16;321.2;314.24;307.27;300.29;293.34;286.41;279.52;272.62;265.71;258.78;251.86;244.97;238.12;231.3;224.48;217.68;210.93;204.25;197.69;191.23;184.86;178.59;172.44;166.47;160.68;155.06;149.58;144.22;139.0;133.91;128.96;124.18;119.59;115.04;110.95;107.62;104.73;101.59;97.77;93.49;89.26;85.51;82.28;79.23;76.06;72.79;69.72;67.22;65.38;64.05;62.96;61.99;61.26;60.94;61.13;61.69;62.41;63.15;63.93;64.86;66.0;67.32;68.7;70.07;71.47;73.0;74.74;76.72;78.92;81.29;83.87;86.7;89.83;93.28;97.03;101.03;105.23;109.64;114.28;119.13;124.15;129.29;134.55;139.9;145.36;150.92;156.58;162.31;168.13;174.02;180.01;186.1;192.29;198.59;204.98;211.47;218.05;224.72;231.48;238.29;245.16;252.08;259.03;266.0;272.99;279.98;286.97;293.96;300.94;307.91;314.86;321.78;328.67;335.54;342.36;349.14;355.86;362.51;369.09;375.59;381.99;388.3;394.48;400.55;406.49;412.29;417.96;423.48;428.88;434.15;439.31;444.35;449.27;454.03;458.64;463.09;467.37;471.49;475.42;479.15;482.67;485.97;489.06;491.93;494.6;497.04;499.26;501.26;503.05;504.64;506.03;507.23;508.23;509.04;509.7;510.29;510.9;511.57;512.3;513.08;513.91;514.78;515.66;516.53;517.42;518.33;519.23;520.1;520.91;521.65;522.33;522.97;523.56;524.1;524.58;525.02;525.43;525.84;526.26;526.69;527.14;527.62;528.13;528.68;529.28;529.91;530.58;531.28;531.99;532.71;533.45;534.18;534.89;535.59;536.25;536.9;537.51;538.1;538.67" dur="8s" repeatCount="indefinite" calcMode="linear"/>
        </circle>
        <circle r="2" fill="white">
          <animate attributeName="cx" values="542.62;541.34;539.11;537.84;537.1;535.88;533.71;531.16;529.17;528.36;528.54;528.94;528.98;528.79;528.95;529.9;531.5;533.18;534.44;535.19;535.76;536.48;537.36;538.07;538.26;537.88;537.17;536.45;535.88;535.35;534.64;533.64;532.45;531.27;530.24;529.28;528.25;527.02;525.6;524.07;522.5;520.86;519.04;516.94;514.54;511.86;508.96;505.86;502.52;498.89;494.96;490.79;486.45;481.95;477.29;472.49;467.56;462.45;457.17;451.86;446.18;440.04;433.67;427.42;421.56;416.03;410.46;404.56;398.36;392.06;385.83;379.65;373.36;366.83;360.08;353.22;346.31;339.38;332.42;325.44;318.45;311.47;304.52;297.56;290.61;283.67;276.77;269.9;263.05;256.19;249.33;242.51;235.73;229.02;222.38;215.8;209.3;202.9;196.65;190.57;184.66;178.92;173.33;167.9;162.67;157.63;152.75;148.01;143.4;138.9;134.52;130.28;126.16;122.16;118.27;114.5;110.88;107.44;104.2;101.15;98.31;95.7;93.33;91.22;89.4;87.83;86.52;85.47;84.66;84.1;83.76;83.65;83.74;84.02;84.48;85.12;85.95;86.95;88.12;89.47;91.01;92.75;94.69;96.85;99.22;101.81;104.62;107.66;110.92;114.4;118.1;122.0;126.1;130.39;134.85;139.44;144.17;149.01;153.99;159.11;164.38;169.77;175.3;180.96;186.74;192.66;198.7;204.87;211.15;217.53;223.99;230.55;237.18;243.88;250.64;257.46;264.31;271.2;278.13;285.07;292.04;299.01;305.98;312.94;319.9;326.85;333.79;340.73;347.68;354.62;361.55;368.49;375.43;382.37;389.32;396.27;403.23;410.2;417.17;424.14;431.12;438.1;445.09;452.07;459.05;466.03;473.01;479.99;486.97;493.94;500.91;507.88;514.84;521.8;528.76;535.72;542.68;549.63;556.59;563.55;570.52;577.48;584.45;591.42;598.39" dur="8s" repeatCount="indefinite" calcMode="linear"/>
          <animate attributeName="cy" values="500.24;493.4;486.78;479.9;472.95;466.06;459.42;452.91;446.21;439.27;432.28;425.29;418.3;411.31;404.32;397.39;390.58;383.79;376.91;369.96;362.99;356.03;349.09;342.13;335.14;328.16;321.2;314.24;307.27;300.29;293.34;286.41;279.52;272.62;265.71;258.78;251.86;244.97;238.12;231.3;224.48;217.68;210.93;204.25;197.69;191.23;184.86;178.59;172.44;166.47;160.68;155.06;149.58;144.22;139.0;133.91;128.96;124.18;119.59;115.04;110.95;107.62;104.73;101.59;97.77;93.49;89.26;85.51;82.28;79.23;76.06;72.79;69.72;67.22;65.38;64.05;62.96;61.99;61.26;60.94;61.13;61.69;62.41;63.15;63.93;64.86;66.0;67.32;68.7;70.07;71.47;73.0;74.74;76.72;78.92;81.29;83.87;86.7;89.83;93.28;97.03;101.03;105.23;109.64;114.28;119.13;124.15;129.29;134.55;139.9;145.36;150.92;156.58;162.31;168.13;174.02;180.01;186.1;192.29;198.59;204.98;211.47;218.05;224.72;231.48;238.29;245.16;252.08;259.03;266.0;272.99;279.98;286.97;293.96;300.94;307.91;314.86;321.78;328.67;335.54;342.36;349.14;355.86;362.51;369.09;375.59;381.99;388.3;394.48;400.55;406.49;412.29;417.96;423.48;428.88;434.15;439.31;444.35;449.27;454.03;458.64;463.09;467.37;471.49;475.42;479.15;482.67;485.97;489.06;491.93;494.6;497.04;499.26;501.26;503.05;504.64;506.03;507.23;508.23;509.04;509.7;510.29;510.9;511.57;512.3;513.08;513.91;514.78;515.66;516.53;517.42;518.33;519.23;520.1;520.91;521.65;522.33;522.97;523.56;524.1;524.58;525.02;525.43;525.84;526.26;526.69;527.14;527.62;528.13;528.68;529.28;529.91;530.58;531.28;531.99;532.71;533.45;534.18;534.89;535.59;536.25;536.9;537.51;538.1;538.67" dur="8s" repeatCount="indefinite" calcMode="linear"/>
        </circle>
      </g>

      <g class="legend" transform="translate(195.0, 570)">
        <rect x="0" y="-14" width="310" height="28" rx="14" fill="rgba(20, 15, 35, 0.8)" stroke="rgba(0, 229, 204, 0.4)" stroke-width="1"/>
        <line x1="20" y1="0" x2="45" y2="0" stroke="rgba(255,255,255,0.4)" stroke-width="2" stroke-dasharray="4 3"/>
        <text x="55" y="4" font-size="11" font-weight="600" fill="rgba(255,255,255,0.7)" font-family="system-ui, sans-serif">Reference</text>
        <line x1="150" y1="-6" x2="150" y2="6" stroke="rgba(255,255,255,0.2)" stroke-width="1"/>
        <line x1="165" y1="0" x2="190" y2="0" stroke="url(#trail-grad-t)" stroke-width="3" stroke-linecap="round"/>
        <text x="200" y="4" font-size="11" font-weight="bold" fill="#ff00cc" font-family="system-ui, sans-serif">Real Trajectory</text>
      </g>
    </svg>