<svg xmlns="http://www.w3.org/2000/svg" viewBox="0 0 700 600" width="100%" class="trajectory-svg">
      <defs>
        <linearGradient id="trail-grad-t" x1="81.8" y1="0" x2="565.1" y2="0" gradientUnits="userSpaceOnUse">
          <stop offset="0%" stop-color="#aa00ff"/><stop offset="100%" stop-color="#ff00cc"/>
        </linearGradient>
      </defs>

      <rect width="700" height="600" fill="#0d0a1a"/>
      <g class="grid"><line x1="60" y1="60" x2="60" y2="540" stroke="rgba(0,229,204,1)" stroke-width="0.5" opacity="0.06"/>
<line x1="156" y1="60" x2="156" y2="540" stroke="rgba(0,229,204,1)" stroke-width="0.5" opacity="0.06"/>
<line x1="253" y1="60" x2="253" y2="540" stroke="rgba(0,229,204,1)" stroke-width="0.5" opacity="0.06"/>
<line x1="350" y1="60" x2="350" y2="540" stroke="rgba(0,229,204,1)" stroke-width="0.5" opacity="0.06"/>
<line x1="446" y1="60" x2="446" y2="540" stroke="rgba(0,229,204,1)" stroke-width="0.5" opacity="0.06"/>
<line x1="543" y1="60" x2="543" y2="540" stroke="rgba(0,229,204,1)" stroke-width="0.5" opacity="0.06"/>
<line x1="640" y1="60" x2="640" y2="540" stroke="rgba(0,229,204,1)" stroke-width="0.5" opacity="0.06"/>
<line x1="60" y1="60" x2="640" y2="60" stroke="rgba(0,229,204,1)" stroke-width="0.5" opacity="0.18"/>
<line x1="60" y1="140" x2="640" y2="140" stroke="rgba(0,229,204,1)" stroke-width="0.5" opacity="0.18"/>
<line x1="60" y1="220" x2="640" y2="220" stroke="rgba(0,229,204,1)" stroke-width="0.5" opacity="0.18"/>
<line x1="60" y1="300" x2="640" y2="300" stroke="rgba(0,229,204,1)" stroke-width="0.5" opacity="0.18"/>
<line x1="60" y1="380" x2="640" y2="380" stroke="rgba(0,229,204,1)" stroke-width="0.5" opacity="0.18"/>
<line x1="60" y1="460" x2="640" y2="460" stroke="rgba(0,229,204,1)" stroke-width="0.5" opacity="0.18"/>
<line x1="60" y1="540" x2="640" y2="540" stroke="rgba(0,229,204,1)" stroke-width="0.5" opacity="0.18"/>
</g>
      <rect x="60" y="60" width="580" height="480" fill="none" stroke="rgba(0,229,204,0.15)" stroke-width="0.75" rx="4"/>

      <path d="M 534.63,492.14 L 534.63,489.74 L 534.63,487.35 L 534.63,484.95 L 534.63,482.55 L 534.63,480.16 L 534.63,477.76 L 534.63,475.36 L 534.63,472.97 L 534.63,470.57 L 534.63,468.17 L 534.63,465.78 L 534.63,463.38 L 534.63,460.98 L 534.63,458.59 L 534.63,456.19 L 534.63,453.79 L 534.63,451.4 L 534.63,449.0 L 534.63,446.6 L 534.63,444.21 L 534.63,441.81 L 534.63,439.41 L 534.63,437.02 L 534.63,434.62 L 534.63,432.22 L 534.63,429.83 L 534.63,427.43 L 534.63,425.03 L 534.63,422.64 L 534.63,420.24 L 534.63,417.84 L 534.63,415.45 L 534.63,413.05 L 534.63,410.65 L 534.63,408.26 L 534.63,405.86 L 534.63,403.46 L 534.63,401.07 L 534.63,398.67 L 534.63,396.27 L 534.63,393.88 L 534.63,391.48 L 534.63,389.08 L 534.63,386.69 L 534.63,384.29 L 534.63,381.89 L 534.63,379.5 L 534.63,377.1 L 534.63,374.7 L 534.63,372.31 L 534.63,369.91 L 534.63,367.51 L 534.63,365.12 L 534.63,362.72 L 534.63,360.33 L 534.63,357.93 L 534.63,355.53 L 534.63,353.14 L 534.63,350.74 L 534.63,348.34 L 534.63,345.95 L 534.63,343.55 L 534.63,341.15 L 534.63,338.76 L 534.63,336.36 L 534.63,333.96 L 534.63,331.57 L 534.63,329.17 L 534.63,326.77 L 534.63,324.38 L 534.63,321.98 L 534.63,319.58 L 534.63,317.19 L 534.63,314.79 L 534.63,312.39 L 534.63,310.0 L 534.63,307.6 L 534.63,305.2 L 534.63,302.81 L 534.63,300.41 L 534.63,298.01 L 534.63,295.62 L 534.63,293.22 L 534.63,290.82 L 534.63,288.43 L 534.6,286.03 L 534.55,283.63 L 534.47,281.24 L 534.37,278.84 L 534.24,276.45 L 534.09,274.06 L 533.91,271.67 L 533.7,269.28 L 533.47,266.9 L 533.22,264.51 L 532.93,262.13 L 532.63,259.76 L 532.29,257.38 L 531.93,255.01 L 531.55,252.65 L 531.14,250.29 L 530.7,247.93 L 530.24,245.58 L 529.76,243.23 L 529.25,240.89 L 528.71,238.55 L 528.15,236.22 L 527.57,233.9 L 526.96,231.58 L 526.32,229.27 L 525.66,226.97 L 524.97,224.67 L 524.26,222.38 L 523.53,220.1 L 522.77,217.83 L 521.99,215.56 L 521.18,213.31 L 520.35,211.06 L 519.5,208.82 L 518.62,206.59 L 517.71,204.37 L 516.79,202.16 L 515.83,199.96 L 514.86,197.77 L 513.86,195.59 L 512.84,193.42 L 511.8,191.27 L 510.73,189.12 L 509.64,186.99 L 508.53,184.86 L 507.39,182.75 L 506.23,180.66 L 505.05,178.57 L 503.85,176.5 L 502.62,174.44 L 501.37,172.39 L 500.1,170.36 L 498.81,168.34 L 497.5,166.33 L 496.17,164.34 L 494.81,162.37 L 493.43,160.41 L 492.04,158.46 L 490.62,156.53 L 489.18,154.61 L 487.72,152.71 L 486.24,150.82 L 484.74,148.96 L 483.22,147.1 L 481.68,145.27 L 480.12,143.45 L 478.54,141.64 L 476.94,139.86 L 475.33,138.09 L 473.69,136.34 L 472.03,134.6 L 470.36,132.89 L 468.67,131.19 L 466.96,129.51 L 465.23,127.85 L 463.49,126.21 L 461.72,124.59 L 459.94,122.98 L 458.15,121.4 L 456.33,119.83 L 454.5,118.28 L 452.65,116.76 L 450.79,115.25 L 448.91,113.76 L 447.01,112.3 L 445.1,110.85 L 443.17,109.43 L 441.23,108.02 L 439.28,106.64 L 437.3,105.28 L 435.32,103.94 L 433.32,102.62 L 431.3,101.32 L 429.27,100.04 L 427.23,98.79 L 425.18,97.55 L 423.11,96.34 L 421.03,95.16 L 418.93,93.99 L 416.83,92.85 L 414.71,91.73 L 412.58,90.63 L 410.44,89.55 L 408.28,88.5 L 406.12,87.47 L 403.94,86.47 L 401.76,85.49 L 399.56,84.53 L 397.35,83.59 L 395.14,82.68 L 392.91,81.79 L 390.67,80.93 L 388.43,80.09 L 386.17,79.28 L 383.91,78.49 L 381.64,77.72 L 379.36,76.98 L 377.08,76.26 L 374.78,75.57 L 372.48,74.9 L 370.17,74.26 L 367.86,73.64 L 365.53,73.04 L 363.21,72.47 L 360.87,71.93 L 358.53,71.41 L 356.19,70.92 L 353.84,70.45 L 351.48,70.01 L 349.12,69.59 L 346.76,69.2 L 344.39,68.83 L 342.02,68.49 L 339.64,68.17 L 337.26,67.88 L 334.88,67.62 L 332.5,67.38 L 330.11,67.16 L 327.72,66.97 L 325.33,66.81 L 322.94,66.67 L 320.54,66.56 L 318.15,66.48 L 315.75,66.42 L 313.35,66.38 L 310.96,66.38 L 308.56,66.39 L 306.16,66.44 L 303.77,66.51 L 301.37,66.6 L 298.98,66.72 L 296.59,66.87 L 294.2,67.04 L 291.81,67.24 L 289.42,67.46 L 287.04,67.71 L 284.66,67.98 L 282.28,68.28 L 279.91,68.61 L 277.54,68.96 L 275.17,69.33 L 272.81,69.73 L 270.45,70.16 L 268.09,70.61 L 265.75,71.09 L 263.4,71.59 L 261.06,72.12 L 258.73,72.67 L 256.41,73.25 L 254.09,73.85 L 251.77,74.48 L 249.47,75.13 L 247.17,75.81 L 244.88,76.51 L 242.59,77.24 L 240.32,77.99 L 238.05,78.76 L 235.79,79.56 L 233.54,80.39 L 231.3,81.23 L 229.07,82.11 L 226.84,83.0 L 224.63,83.92 L 222.43,84.86 L 220.23,85.83 L 218.05,86.82 L 215.88,87.84 L 213.72,88.87 L 211.57,89.93 L 209.43,91.02 L 207.3,92.12 L 205.19,93.25 L 203.09,94.4 L 201.0,95.57 L 198.92,96.77 L 196.86,97.99 L 194.81,99.23 L 192.77,100.49 L 190.75,101.78 L 188.74,103.08 L 186.74,104.41 L 184.76,105.76 L 182.79,107.13 L 180.84,108.52 L 178.91,109.93 L 176.98,111.36 L 175.08,112.82 L 173.19,114.29 L 171.31,115.78 L 169.46,117.3 L 167.61,118.83 L 165.79,120.38 L 163.98,121.96 L 162.19,123.55 L 160.42,125.16 L 158.66,126.79 L 156.92,128.44 L 155.2,130.11 L 153.49,131.79 L 151.81,133.5 L 150.14,135.22 L 148.49,136.96 L 146.86,138.72 L 145.25,140.49 L 143.66,142.28 L 142.09,144.09 L 140.54,145.92 L 139.0,147.76 L 137.49,149.62 L 136.0,151.49 L 134.53,153.38 L 133.07,155.29 L 131.64,157.21 L 130.23,159.15 L 128.84,161.1 L 127.47,163.07 L 126.12,165.05 L 124.8,167.05 L 123.49,169.06 L 122.21,171.08 L 120.95,173.12 L 119.71,175.17 L 118.49,177.23 L 117.29,179.31 L 116.12,181.4 L 114.97,183.5 L 113.84,185.62 L 112.74,187.74 L 111.65,189.88 L 110.6,192.03 L 109.56,194.19 L 108.55,196.36 L 107.56,198.55 L 106.59,200.74 L 105.65,202.94 L 104.73,205.16 L 103.84,207.38 L 102.96,209.61 L 102.12,211.86 L 101.29,214.11 L 100.5,216.37 L 99.72,218.63 L 98.97,220.91 L 98.25,223.19 L 97.55,225.49 L 96.87,227.79 L 96.22,230.09 L 95.59,232.41 L 94.99,234.73 L 94.41,237.05 L 93.86,239.38 L 93.33,241.72 L 92.83,244.07 L 92.36,246.41 L 91.9,248.77 L 91.48,251.13 L 91.08,253.49 L 90.7,255.86 L 90.35,258.23 L 90.03,260.6 L 89.73,262.98 L 89.46,265.36 L 89.21,267.74 L 88.99,270.13 L 88.79,272.52 L 88.62,274.91 L 88.47,277.3 L 88.35,279.7 L 88.26,282.09 L 88.19,284.49 L 88.15,286.88 L 88.13,289.28 L 88.14,291.68 L 88.18,294.07 L 88.24,296.47 L 88.33,298.86 L 88.44,301.26 L 88.57,303.65 L 88.74,306.04 L 88.93,308.43 L 89.14,310.82 L 89.38,313.2 L 89.65,315.58 L 89.94,317.96 L 90.26,320.34 L 90.6,322.71 L 90.97,325.08 L 91.36,327.44 L 91.78,329.8 L 92.22,332.16 L 92.69,334.51 L 93.19,336.85 L 93.71,339.19 L 94.25,341.52 L 94.82,343.85 L 95.41,346.17 L 96.03,348.49 L 96.68,350.8 L 97.35,353.1 L 98.04,355.39 L 98.76,357.68 L 99.5,359.96 L 100.27,362.23 L 101.06,364.49 L 101.88,366.74 L 102.72,368.99 L 103.58,371.22 L 104.47,373.45 L 105.38,375.67 L 106.32,377.87 L 107.28,380.07 L 108.26,382.26 L 109.26,384.43 L 110.29,386.6 L 111.35,388.75 L 112.42,390.89 L 113.52,393.02 L 114.64,395.14 L 115.79,397.24 L 116.95,399.34 L 118.14,401.42 L 119.35,403.49 L 120.59,405.54 L 121.84,407.58 L 123.12,409.61 L 124.42,411.62 L 125.74,413.62 L 127.08,415.61 L 128.44,417.58 L 129.83,419.54 L 131.23,421.48 L 132.66,423.41 L 134.1,425.32 L 135.57,427.21 L 137.06,429.09 L 138.57,430.96 L 140.09,432.8 L 141.64,434.63 L 143.21,436.45 L 144.79,438.24 L 146.4,440.02 L 148.02,441.79 L 149.66,443.53 L 151.32,445.26 L 153.0,446.97 L 154.7,448.66 L 156.42,450.33 L 158.15,451.99 L 159.91,453.62 L 161.67,455.24 L 163.46,456.84 L 165.26,458.41 L 167.08,459.97 L 168.92,461.51 L 170.78,463.03 L 172.64,464.53 L 174.53,466.01 L 176.43,467.47 L 178.35,468.91 L 180.28,470.32 L 182.23,471.72 L 184.19,473.1 L 186.17,474.45 L 188.16,475.79 L 190.16,477.1 L 192.18,478.39 L 194.22,479.66 L 196.26,480.9 L 198.32,482.13 L 200.4,483.33 L 202.48,484.51 L 204.58,485.67 L 206.69,486.81 L 208.81,487.92 L 210.95,489.01 L 213.1,490.07 L 215.25,491.12 L 217.42,492.14 L 219.6,493.13 L 221.79,494.11 L 223.99,495.06 L 226.2,495.98 L 228.42,496.89 L 230.65,497.77 L 232.89,498.62 L 235.14,499.45 L 237.4,500.26 L 239.66,501.04 L 241.93,501.8 L 244.22,502.53 L 246.51,503.24 L 248.8,503.92 L 251.11,504.58 L 253.42,505.22 L 255.73,505.83 L 258.06,506.41 L 260.39,506.97 L 262.73,507.51 L 265.07,508.02 L 267.41,508.5 L 269.77,508.96 L 272.12,509.4 L 274.48,509.8 L 276.85,510.19 L 279.22,510.55 L 281.59,510.88 L 283.97,511.19 L 286.35,511.47 L 288.73,511.72 L 291.12,511.95 L 293.51,512.16 L 295.89,512.36 L 298.28,512.57 L 300.67,512.77 L 303.06,512.98 L 305.45,513.18 L 307.83,513.39 L 310.22,513.59 L 312.61,513.8 L 315.0,514.0 L 317.39,514.2 L 319.77,514.41 L 322.16,514.61 L 324.55,514.82 L 326.94,515.02 L 329.32,515.23 L 331.71,515.43 L 334.1,515.64 L 336.49,515.84 L 338.88,516.05 L 341.26,516.25 L 343.65,516.46 L 346.04,516.66 L 348.43,516.87 L 350.82,517.07 L 353.2,517.28 L 355.59,517.48 L 357.98,517.69 L 360.37,517.89 L 362.75,518.09 L 365.14,518.3 L 367.53,518.5 L 369.92,518.71 L 372.31,518.91 L 374.69,519.12 L 377.08,519.32 L 379.47,519.53 L 381.86,519.73 L 384.25,519.94 L 386.63,520.14 L 389.02,520.35 L 391.41,520.55 L 393.8,520.76 L 396.18,520.96 L 398.57,521.17 L 400.96,521.37 L 403.35,521.57 L 405.74,521.78 L 408.12,521.98 L 410.51,522.19 L 412.9,522.39 L 415.29,522.6 L 417.68,522.8 L 420.06,523.01 L 422.45,523.21 L 424.84,523.42 L 427.23,523.62 L 429.61,523.83 L 432.0,524.03 L 434.39,524.24 L 436.78,524.44 L 439.17,524.65 L 441.55,524.85 L 443.94,525.06 L 446.33,525.26 L 448.72,525.46 L 451.11,525.67 L 453.49,525.87 L 455.88,526.08 L 458.27,526.28 L 460.66,526.49 L 463.04,526.69 L 465.43,526.9 L 467.82,527.1 L 470.21,527.31 L 472.6,527.51 L 474.98,527.72 L 477.37,527.92 L 479.76,528.13 L 482.15,528.33 L 484.53,528.54 L 486.92,528.74 L 489.31,528.94 L 491.7,529.15 L 494.09,529.35 L 496.47,529.56 L 498.86,529.76 L 501.25,529.97 L 503.64,530.17 L 506.03,530.38 L 508.41,530.58 L 510.8,530.79 L 513.19,530.99 L 515.58,531.2 L 517.96,531.4 L 520.35,531.61 L 522.74,531.81 L 525.13,532.02 L 527.52,532.22 L 529.9,532.43 L 532.29,532.63 L 534.68,532.83 L 537.07,533.04 L 539.46,533.24 L 541.84,533.45 L 544.23,533.65 L 546.62,533.86 L 549.01,534.06 L 551.39,534.27 L 553.78,534.47 L 556.17,534.68 L 558.56,534.88 L 560.95,535.09 L 563.33,535.29 L 565.72,535.5 L 568.11,535.7 L 570.5,535.91 L 572.89,536.11 L 575.27,536.31 L 577.66,536.52 L 580.05,536.72 L 582.44,536.93 L 584.82,537.13 L 587.21,537.34 L 589.6,537.54 L 591.99,537.75 L 594.38,537.95 L 596.76,538.16 L 599.15,538.36 L 601.54,538.57 L 603.93,538.77 L 606.32,538.98 L 608.7,539.18 L 611.09,539.39 L 613.48,539.59 L 615.87,539.8 L 618.25,540.0" fill="none" stroke="rgba(255,255,255,0.38)" stroke-width="1.3" stroke-dasharray="8 5"/>

      <path d="M 543.26,500.77 L 542.88,493.88 L 542.41,486.99 L 541.89,480.11 L 541.33,473.23 L 540.77,466.35 L 540.22,459.47 L 539.69,452.59 L 539.18,445.7 L 538.7,438.82 L 538.25,431.93 L 537.84,425.04 L 537.46,418.15 L 537.12,411.25 L 536.81,404.36 L 536.53,397.46 L 536.28,390.56 L 536.06,383.66 L 535.87,376.77 L 535.7,369.87 L 535.55,362.96 L 535.41,356.06 L 535.3,349.16 L 535.2,342.26 L 535.11,335.36 L 535.04,328.46 L 534.97,321.56 L 534.92,314.65 L 534.88,307.75 L 534.85,300.85 L 534.8,293.95 L 534.71,287.05 L 534.57,280.14 L 534.34,273.25 L 533.99,266.35 L 533.51,259.47 L 532.88,252.59 L 532.07,245.74 L 531.07,238.91 L 529.86,232.12 L 528.44,225.36 L 526.8,218.66 L 524.93,212.01 L 522.84,205.44 L 520.51,198.94 L 517.96,192.52 L 515.19,186.2 L 512.19,179.99 L 508.98,173.88 L 505.56,167.88 L 501.93,162.01 L 498.11,156.27 L 494.09,150.65 L 489.89,145.17 L 485.52,139.84 L 480.97,134.64 L 476.26,129.6 L 471.4,124.7 L 466.38,119.96 L 461.22,115.38 L 455.91,110.96 L 450.48,106.71 L 444.92,102.62 L 439.24,98.7 L 433.44,94.96 L 427.53,91.39 L 421.51,88.01 L 415.4,84.8 L 409.2,81.78 L 402.9,78.95 L 396.53,76.3 L 390.08,73.85 L 383.56,71.59 L 376.97,69.52 L 370.32,67.66 L 363.63,65.99 L 356.88,64.53 L 350.1,63.26 L 343.28,62.21 L 336.43,61.35 L 329.56,60.7 L 322.67,60.26 L 315.77,60.03 L 308.87,60.0 L 301.97,60.18 L 295.08,60.57 L 288.2,61.16 L 281.35,61.96 L 274.52,62.96 L 267.72,64.17 L 260.97,65.59 L 254.26,67.2 L 247.6,69.02 L 241.0,71.04 L 234.46,73.25 L 227.99,75.66 L 221.6,78.26 L 215.29,81.06 L 209.06,84.04 L 202.93,87.21 L 196.9,90.56 L 190.97,94.09 L 185.14,97.79 L 179.44,101.67 L 173.85,105.72 L 168.38,109.94 L 163.05,114.32 L 157.85,118.86 L 152.78,123.55 L 147.86,128.39 L 143.09,133.38 L 138.47,138.5 L 134.01,143.77 L 129.71,149.16 L 125.57,154.69 L 121.6,160.33 L 117.8,166.09 L 114.17,171.97 L 110.73,177.95 L 107.46,184.03 L 104.38,190.2 L 101.49,196.47 L 98.78,202.82 L 96.27,209.25 L 93.95,215.75 L 91.83,222.32 L 89.9,228.95 L 88.18,235.63 L 86.66,242.36 L 85.34,249.14 L 84.23,255.95 L 83.32,262.79 L 82.61,269.66 L 82.12,276.54 L 81.83,283.44 L 81.75,290.34 L 81.87,297.24 L 82.2,304.13 L 82.74,311.01 L 83.49,317.87 L 84.44,324.71 L 85.6,331.52 L 86.96,338.28 L 88.52,345.0 L 90.29,351.68 L 92.25,358.29 L 94.41,364.85 L 96.77,371.33 L 99.32,377.75 L 102.07,384.08 L 105.0,390.33 L 108.12,396.49 L 111.42,402.55 L 114.9,408.51 L 118.56,414.36 L 122.4,420.09 L 126.4,425.72 L 130.58,431.21 L 134.91,436.58 L 139.41,441.82 L 144.06,446.92 L 148.86,451.88 L 153.81,456.69 L 158.9,461.35 L 164.13,465.85 L 169.5,470.2 L 174.99,474.38 L 180.6,478.39 L 186.33,482.24 L 192.18,485.91 L 198.13,489.4 L 204.18,492.72 L 210.34,495.85 L 216.58,498.79 L 222.91,501.54 L 229.32,504.11 L 235.8,506.48 L 242.35,508.65 L 248.96,510.63 L 255.63,512.4 L 262.35,513.98 L 269.12,515.35 L 275.92,516.51 L 282.75,517.48 L 289.61,518.26 L 296.48,518.88 L 303.37,519.37 L 310.26,519.74 L 317.16,520.03 L 324.06,520.25 L 330.96,520.24 L 337.86,520.29 L 344.76,520.4 L 351.66,520.57 L 358.56,520.77 L 365.46,521.02 L 372.36,521.31 L 379.25,521.62 L 386.14,521.96 L 393.04,522.33 L 399.93,522.73 L 406.82,523.14 L 413.71,523.58 L 420.59,524.03 L 427.48,524.49 L 434.37,524.97 L 441.25,525.47 L 448.13,525.97 L 455.02,526.49 L 461.9,527.01 L 468.78,527.54 L 475.66,528.08 L 482.54,528.63 L 489.42,529.18 L 496.3,529.74 L 503.18,530.3 L 510.06,530.86 L 516.94,531.43 L 523.82,532.0 L 530.7,532.58 L 537.58,533.15 L 544.45,533.73 L 551.33,534.31 L 558.21,534.89 L 565.09,535.47" fill="none" stroke="url(#trail-grad-t)" stroke-width="2.5" stroke-linecap="round" stroke-linejoin="round"
            stroke-dasharray="1546.07" stroke-dashoffset="1546.07">
        <animate attributeName="stroke-dashoffset" values="1546.07;1539.17;1532.26;1525.36;1518.46;1511.56;1504.65;1497.75;1490.85;1483.95;1477.04;1470.14;1463.24;1456.33;1449.44;1442.53;1435.63;1428.72;1421.83;1414.93;1408.02;1401.11;1394.21;1387.31;1380.41;1373.51;1366.61;1359.7;1352.8;1345.9;1339.0;1332.1;1325.19;1318.3;1311.39;1304.49;1297.58;1290.68;1283.78;1276.88;1269.98;1263.08;1256.17;1249.28;1242.37;1235.46;1228.56;1221.67;1214.76;1207.86;1200.96;1194.06;1187.15;1180.25;1173.35;1166.44;1159.55;1152.65;1145.74;1138.84;1131.93;1125.04;1118.13;1111.23;1104.33;1097.43;1090.52;1083.62;1076.73;1069.82;1062.92;1056.02;1049.12;1042.21;1035.31;1028.41;1021.51;1014.61;1007.71;1000.8;993.9;987.0;980.09;973.19;966.29;959.39;952.49;945.59;938.69;931.78;924.88;917.98;911.08;904.18;897.27;890.37;883.47;876.57;869.66;862.76;855.86;848.96;842.05;835.16;828.26;821.35;814.45;807.55;800.64;793.74;786.83;779.94;773.03;766.14;759.23;752.33;745.43;738.52;731.62;724.72;717.82;710.92;704.02;697.11;690.21;683.31;676.4;669.51;662.61;655.7;648.8;641.9;634.99;628.09;621.19;614.29;607.39;600.49;593.59;586.69;579.78;572.87;565.98;559.08;552.17;545.27;538.37;531.47;524.56;517.66;510.76;503.85;496.95;490.05;483.15;476.25;469.35;462.45;455.55;448.64;441.74;434.84;427.94;421.04;414.14;407.23;400.32;393.43;386.53;379.62;372.72;365.82;358.91;352.01;345.11;338.21;331.31;324.41;317.51;310.6;303.7;296.79;289.9;283.0;276.09;269.2;262.29;255.39;248.48;241.58;234.68;227.78;220.88;213.98;207.07;200.17;193.26;186.36;179.47;172.56;165.65;158.75;151.85;144.95;138.05;131.14;124.24;117.35;110.44;103.54;96.64;89.73;82.83;75.93;69.03;62.13;55.22;48.32;41.42;34.51;27.61;20.71;13.81;6.9;0.0" dur="8s" repeatCount="indefinite" calcMode="linear"/>
      </path>

      <g>
        <circle r="9" fill="none" stroke="#ffe566" stroke-width="1.5">
          <animate attributeName="cx" values="543.26;542.88;542.41;541.89;541.33;540.77;540.22;539.69;539.18;538.7;538.25;537.84;537.46;537.12;536.81;536.53;536.28;536.06;535.87;535.7;535.55;535.41;535.3;535.2;535.11;535.04;534.97;534.92;534.88;534.85;534.8;534.71;534.57;534.34;533.99;533.51;532.88;532.07;531.07;529.86;528.44;526.8;524.93;522.84;520.51;517.96;515.19;512.19;508.98;505.56;501.93;498.11;494.09;489.89;485.52;480.97;476.26;471.4;466.38;461.22;455.91;450.48;444.92;439.24;433.44;427.53;421.51;415.4;409.2;402.9;396.53;390.08;383.56;376.97;370.32;363.63;356.88;350.1;343.28;336.43;329.56;322.67;315.77;308.87;301.97;295.08;288.2;281.35;274.52;267.72;260.97;254.26;247.6;241.0;234.46;227.99;221.6;215.29;209.06;202.93;196.9;190.97;185.14;179.44;173.85;168.38;163.05;157.85;152.78;147.86;143.09;138.47;134.01;129.71;125.57;121.6;117.8;114.17;110.73;107.46;104.38;101.49;98.78;96.27;93.95;91.83;89.9;88.18;86.66;85.34;84.23;83.32;82.61;82.12;81.83;81.75;81.87;82.2;82.74;83.49;84.44;85.6;86.96;88.52;90.29;92.25;94.41;96.77;99.32;102.07;105.0;108.12;111.42;114.9;118.56;122.4;126.4;130.58;134.91;139.41;144.06;148.86;153.81;158.9;164.13;169.5;174.99;180.6;186.33;192.18;198.13;204.18;210.34;216.58;222.91;229.32;235.8;242.35;248.96;255.63;262.35;269.12;275.92;282.75;289.61;296.48;303.37;310.26;317.16;324.06;330.96;337.86;344.76;351.66;358.56;365.46;372.36;379.25;386.14;393.04;399.93;406.82;413.71;420.59;427.48;434.37;441.25;448.13;455.02;461.9;468.78;475.66;482.54;489.42;496.3;503.18;510.06;516.94;523.82;530.7;537.58;544.45;551.33;558.21;565.09" dur="8s" repeatCount="indefinite" calcMode="linear"/>
          <animate attributeName="cy" values="500.77;493.88;486.99;480.11;473.23;466.35;459.47;452.59;445.7;438.82;431.93;425.04;418.15;411.25;404.36;397.46;390.56;383.66;376.77;369.87;362.96;356.06;349.16;342.26;335.36;328.46;321.56;314.65;307.75;300.85;293.95;287.05;280.14;273.25;266.35;259.47;252.59;245.74;238.91;232.12;225.36;218.66;212.01;205.44;198.94;192.52;186.2;179.99;173.88;167.88;162.01;156.27;150.65;145.17;139.84;134.64;129.6;124.7;119.96;115.38;110.96;106.71;102.62;98.7;94.96;91.39;88.01;84.8;81.78;78.95;76.3;73.85;71.59;69.52;67.66;65.99;64.53;63.26;62.21;61.35;60.7;60.26;60.03;60.0;60.18;60.57;61.16;61.96;62.96;64.17;65.59;67.2;69.02;71.04;73.25;75.66;78.26;81.06;84.04;87.21;90.56;94.09;97.79;101.67;105.72;109.94;114.32;118.86;123.55;128.39;133.38;138.5;143.77;149.16;154.69;160.33;166.09;171.97;177.95;184.03;190.2;196.47;202.82;209.25;215.75;222.32;228.95;235.63;242.36;249.14;255.95;262.79;269.66;276.54;283.44;290.34;297.24;304.13;311.01;317.87;324.71;331.52;338.28;345.0;351.68;358.29;364.85;371.33;377.75;384.08;390.33;396.49;402.55;408.51;414.36;420.09;425.72;431.21;436.58;441.82;446.92;451.88;456.69;461.35;465.85;470.2;474.38;478.39;482.24;485.91;489.4;492.72;495.85;498.79;501.54;504.11;506.48;508.65;510.63;512.4;513.98;515.35;516.51;517.48;518.26;518.88;519.37;519.74;520.03;520.25;520.24;520.29;520.4;520.57;520.77;521.02;521.31;521.62;521.96;522.33;522.73;523.14;523.58;524.03;524.49;524.97;525.47;525.97;526.49;527.01;527.54;528.08;528.63;529.18;529.74;530.3;530.86;531.43;532.0;532.58;533.15;533.73;534.31;534.89;535.47" dur="8s" repeatCount="indefinite" calcMode="linear"/>
          <animate attributeName="r" values="9;24;9" dur="2s" repeatCount="indefinite"/>
          <animate attributeName="opacity" values="0.8;0;0.8" dur="2s" repeatCount="indefinite"/>
        </circle>
        <circle r="5.5" fill="#ffe566">
          <animate attributeName="cx" values="543.26;542.88;542.41;541.89;541.33;540.77;540.22;539.69;539.18;538.7;538.25;537.84;537.46;537.12;536.81;536.53;536.28;536.06;535.87;535.7;535.55;535.41;535.3;535.2;535.11;535.04;534.97;534.92;534.88;534.85;534.8;534.71;534.57;534.34;533.99;533.51;532.88;532.07;531.07;529.86;528.44;526.8;524.93;522.84;520.51;517.96;515.19;512.19;508.98;505.56;501.93;498.11;494.09;489.89;485.52;480.97;476.26;471.4;466.38;461.22;455.91;450.48;444.92;439.24;433.44;427.53;421.51;415.4;409.2;402.9;396.53;390.08;383.56;376.97;370.32;363.63;356.88;350.1;343.28;336.43;329.56;322.67;315.77;308.87;301.97;295.08;288.2;281.35;274.52;267.72;260.97;254.26;247.6;241.0;234.46;227.99;221.6;215.29;209.06;202.93;196.9;190.97;185.14;179.44;173.85;168.38;163.05;157.85;152.78;147.86;143.09;138.47;134.01;129.71;125.57;121.6;117.8;114.17;110.73;107.46;104.38;101.49;98.78;96.27;93.95;91.83;89.9;88.18;86.66;85.34;84.23;83.32;82.61;82.12;81.83;81.75;81.87;82.2;82.74;83.49;84.44;85.6;86.96;88.52;90.29;92.25;94.41;96.77;99.32;102.07;105.0;108.12;111.42;114.9;118.56;122.4;126.4;130.58;134.91;139.41;144.06;148.86;153.81;158.9;164.13;169.5;174.99;180.6;186.33;192.18;198.13;204.18;210.34;216.58;222.91;229.32;235.8;242.35;248.96;255.63;262.35;269.12;275.92;282.75;289.61;296.48;303.37;310.26;317.16;324.06;330.96;337.86;344.76;351.66;358.56;365.46;372.36;379.25;386.14;393.04;399.93;406.82;413.71;420.59;427.48;434.37;441.25;448.13;455.02;461.9;468.78;475.66;482.54;489.42;496.3;503.18;510.06;516.94;523.82;530.7;537.58;544.45;551.33;558.21;565.09" dur="8s" repeatCount="indefinite" calcMode="linear"/>
          <animate attributeName="cy" values="500.77;493.88;486.99;480.11;473.23;466.35;459.47;452.59;445.7;438.82;431.93;425.04;418.15;411.25;404.36;397.46;390.56;383.66;376.77;369.87;362.96;356.06;349.16;342.26;335.36;328.46;321.56;314.65;307.75;300.85;293.95;287.05;280.14;273.25;266.35;259.47;252.59;245.74;238.91;232.12;225.36;218.66;212.01;205.44;198.94;192.52;186.2;179.99;173.88;167.88;162.01;156.27;150.65;145.17;139.84;134.64;129.6;124.7;119.96;115.38;110.96;106.71;102.62;98.7;94.96;91.39;88.01;84.8;81.78;78.95;76.3;73.85;71.59;69.52;67.66;65.99;64.53;63.26;62.21;61.35;60.7;60.26;60.03;60.0;60.18;60.57;61.16;61.96;62.96;64.17;65.59;67.2;69.02;71.04;73.25;75.66;78.26;81.06;84.04;87.21;90.56;94.09;97.79;101.67;105.72;109.94;114.32;118.86;123.55;128.39;133.38;138.5;143.77;149.16;154.69;160.33;166.09;171.97;177.95;184.03;190.2;196.47;202.82;209.25;215.75;222.32;228.95;235.63;242.36;249.14;255.95;262.79;269.66;276.54;283.44;290.34;297.24;304.13;311.01;317.87;324.71;331.52;338.28;345.0;351.68;358.29;364.85;371.33;377.75;384.08;390.33;396.49;402.55;408.51;414.36;420.09;425.72;431.21;436.58;441.82;446.92;451.88;456.69;461.35;465.85;470.2;474.38;478.39;482.24;485.91;489.4;492.72;495.85;498.79;501.54;504.11;506.48;508.65;510.63;512.4;513.98;515.35;516.51;517.48;518.26;518.88;519.37;519.74;520.03;520.25;520.24;520.29;520.4;520.57;520.77;521.02;521.31;521.62;521.96;522.33;522.73;523.14;523.58;524.03;524.49;524.97;525.47;525.97;526.49;527.01;527.54;528.08;528.63;529.18;529.74;530.3;530.86;531.43;532.0;532.58;533.15;533.73;534.31;534.89;535.47" dur="8s" repeatCount="indefinite" calcMode="linear"/>
        </circle>
        <circle r="2" fill="white">
          <animate attributeName="cx" values="543.26;542.88;542.41;541.89;541.33;540.77;540.22;539.69;539.18;538.7;538.25;537.84;537.46;537.12;536.81;536.53;536.28;536.06;535.87;535.7;535.55;535.41;535.3;535.2;535.11;535.04;534.97;534.92;534.88;534.85;534.8;534.71;534.57;534.34;533.99;533.51;532.88;532.07;531.07;529.86;528.44;526.8;524.93;522.84;520.51;517.96;515.19;512.19;508.98;505.56;501.93;498.11;494.09;489.89;485.52;480.97;476.26;471.4;466.38;461.22;455.91;450.48;444.92;439.24;433.44;427.53;421.51;415.4;409.2;402.9;396.53;390.08;383.56;376.97;370.32;363.63;356.88;350.1;343.28;336.43;329.56;322.67;315.77;308.87;301.97;295.08;288.2;281.35;274.52;267.72;260.97;254.26;247.6;241.0;234.46;227.99;221.6;215.29;209.06;202.93;196.9;190.97;185.14;179.44;173.85;168.38;163.05;157.85;152.78;147.86;143.09;138.47;134.01;129.71;125.57;121.6;117.8;114.17;110.73;107.46;104.38;101.49;98.78;96.27;93.95;91.83;89.9;88.18;86.66;85.34;84.23;83.32;82.61;82.12;81.83;81.75;81.87;82.2;82.74;83.49;84.44;85.6;86.96;88.52;90.29;92.25;94.41;96.77;99.32;102.07;105.0;108.12;111.42;114.9;118.56;122.4;126.4;130.58;134.91;139.41;144.06;148.86;153.81;158.9;164.13;169.5;174.99;180.6;186.33;192.18;198.13;204.18;210.34;216.58;222.91;229.32;235.8;242.35;248.96;255.63;262.35;269.12;275.92;282.75;289.61;296.48;303.37;310.26;317.16;324.06;330.96;337.86;344.76;351.66;358.56;365.46;372.36;379.25;386.14;393.04;399.93;406.82;413.71;420.59;427.48;434.37;441.25;448.13;455.02;461.9;468.78;475.66;482.54;489.42;496.3;503.18;510.06;516.94;523.82;530.7;537.58;544.45;551.33;558.21;565.09" dur="8s" repeatCount="indefinite" calcMode="linear"/>
          <animate attributeName="cy" values="500.77;493.88;486.99;480.11;473.23;466.35;459.47;452.59;445.7;438.82;431.93;425.04;418.15;411.25;404.36;397.46;390.56;383.66;376.77;369.87;362.96;356.06;349.16;342.26;335.36;328.46;321.56;314.65;307.75;300.85;293.95;287.05;280.14;273.25;266.35;259.47;252.59;245.74;238.91;232.12;225.36;218.66;212.01;205.44;198.94;192.52;186.2;179.99;173.88;167.88;162.01;156.27;150.65;145.17;139.84;134.64;129.6;124.7;119.96;115.38;110.96;106.71;102.62;98.7;94.96;91.39;88.01;84.8;81.78;78.95;76.3;73.85;71.59;69.52;67.66;65.99;64.53;63.26;62.21;61.35;60.7;60.26;60.03;60.0;60.18;60.57;61.16;61.96;62.96;64.17;65.59;67.2;69.02;71.04;73.25;75.66;78.26;81.06;84.04;87.21;90.56;94.09;97.79;101.67;105.72;109.94;114.32;118.86;123.55;128.39;133.38;138.5;143.77;149.16;154.69;160.33;166.09;171.97;177.95;184.03;190.2;196.47;202.82;209.25;215.75;222.32;228.95;235.63;242.36;249.14;255.95;262.79;269.66;276.54;283.44;290.34;297.24;304.13;311.01;317.87;324.71;331.52;338.28;345.0;351.68;358.29;364.85;371.33;377.75;384.08;390.33;396.49;402.55;408.51;414.36;420.09;425.72;431.21;436.58;441.82;446.92;451.88;456.69;461.35;465.85;470.2;474.38;478.39;482.24;485.91;489.4;492.72;495.85;498.79;501.54;504.11;506.48;508.65;510.63;512.4;513.98;515.35;516.51;517.48;518.26;518.88;519.37;519.74;520.03;520.25;520.24;520.29;520.4;520.57;520.77;521.02;521.31;521.62;521.96;522.33;522.73;523.14;523.58;524.03;524.49;524.97;525.47;525.97;526.49;527.01;527.54;528.08;528.63;529.18;529.74;530.3;530.86;531.43;532.0;532.58;533.15;533.73;534.31;534.89;535.47" dur="8s" repeatCount="indefinite" calcMode="linear"/>
        </circle>
      </g>

      <g class="legend" transform="translate(195.0, 570)">
        <rect x="0" y="-14" width="310" height="28" rx="14" fill="rgba(20, 15, 35, 0.8)" stroke="rgba(0, 229, 204, 0.4)" stroke-width="1"/>
        <line x1="20" y1="0" x2="45" y2="0" stroke="rgba(255,255,255,0.4)" stroke-width="2" stroke-dasharray="4 3"/>
        <text x="55" y="4" font-size="11" font-weight="600" fill="rgba(255,255,255,0.7)" font-family="system-ui, sans-serif">Reference</text>
        <line x1="150" y1="-6" x2="150" y2="6" stroke="rgba(255,255,255,0.2)" stroke-width="1"/>
        <line x1="165" y1="0" x2="190" y2="0" stroke="url(#trail-grad-t)" stroke-width="3" stroke-linecap="round"/>
        <text x="200" y="4" font-size="11" font-weight="bold" fill="#ff00cc" font-family="system-ui, sans-serif">Real Trajectory</text>
      </g>
    </svg>