<svg xmlns="http://www.w3.org/2000/svg" viewBox="0 0 700 600" width="100%" class="trajectory-svg">
      <defs>
        <linearGradient id="trail-grad-t" x1="83.9" y1="0" x2="594.9" y2="0" gradientUnits="userSpaceOnUse">
          <stop offset="0%" stop-color="#aa00ff"/><stop offset="100%" stop-color="#ff00cc"/>
        </linearGradient>
      </defs>

      <rect width="700" height="600" fill="#0d0a1a"/>
      <g class="grid"><line x1="60" y1="60" x2="60" y2="540" stroke="rgba(0,229,204,1)" stroke-width="0.5" opacity="0.06"/>
<line x1="156" y1="60" x2="156" y2="540" stroke="rgba(0,229,204,1)" stroke-width="0.5" opacity="0.06"/>
<line x1="253" y1="60" x2="253" y2="540" stroke="rgba(0,229,204,1)" stroke-width="0.5" opacity="0.06"/>
<line x1="350" y1="60" x2="350" y2="540" stroke="rgba(0,229,204,1)" stroke-width="0.5" opacity="0.06"/>
<line x1="446" y1="60" x2="446" y2="540" stroke="rgba(0,229,204,1)" stroke-width="0.5" opacity="0.06"/>
<line x1="543" y1="60" x2="543" y2="540" stroke="rgba(0,229,204,1)" stroke-width="0.5" opacity="0.06"/>
<line x1="640" y1="60" x2="640" y2="540" stroke="rgba(0,229,204,1)" stroke-width="0.5" opacity="0.06"/>
<line x1="60" y1="60" x2="640" y2="60" stroke="rgba(0,229,204,1)" stroke-width="0.5" opacity="0.18"/>
<line x1="60" y1="140" x2="640" y2="140" stroke="rgba(0,229,204,1)" stroke-width="0.5" opacity="0.18"/>
<line x1="60" y1="220" x2="640" y2="220" stroke="rgba(0,229,204,1)" stroke-width="0.5" opacity="0.18"/>
<line x1="60" y1="300" x2="640" y2="300" stroke="rgba(0,229,204,1)" stroke-width="0.5" opacity="0.18"/>
<line x1="60" y1="380" x2="640" y2="380" stroke="rgba(0,229,204,1)" stroke-width="0.5" opacity="0.18"/>
<line x1="60" y1="460" x2="640" y2="460" stroke="rgba(0,229,204,1)" stroke-width="0.5" opacity="0.18"/>
<line x1="60" y1="540" x2="640" y2="540" stroke="rgba(0,229,204,1)" stroke-width="0.5" opacity="0.18"/>
</g>
      <rect x="60" y="60" width="580" height="480" fill="none" stroke="rgba(0,229,204,0.15)" stroke-width="0.75" rx="4"/>

      <path d="M 533.88,491.49 L 533.88,489.07 L 533.88,486.64 L 533.88,484.21 L 533.88,481.78 L 533.88,479.35 L 533.88,476.92 L 533.88,474.49 L 533.88,472.06 L 533.88,469.63 L 533.88,467.21 L 533.88,464.78 L 533.88,462.35 L 533.88,459.92 L 533.88,457.49 L 533.88,455.06 L 533.88,452.63 L 533.88,450.2 L 533.88,447.77 L 533.88,445.35 L 533.88,442.92 L 533.88,440.49 L 533.88,438.06 L 533.88,435.63 L 533.88,433.2 L 533.88,430.77 L 533.88,428.34 L 533.88,425.91 L 533.88,423.49 L 533.88,421.06 L 533.88,418.63 L 533.88,416.2 L 533.88,413.77 L 533.88,411.34 L 533.88,408.91 L 533.88,406.48 L 533.88,404.05 L 533.88,401.63 L 533.88,399.2 L 533.88,396.77 L 533.88,394.34 L 533.88,391.91 L 533.88,389.48 L 533.88,387.05 L 533.88,384.62 L 533.88,382.19 L 533.88,379.77 L 533.88,377.34 L 533.88,374.91 L 533.88,372.48 L 533.88,370.05 L 533.88,367.62 L 533.88,365.19 L 533.88,362.76 L 533.88,360.34 L 533.88,357.91 L 533.88,355.48 L 533.88,353.05 L 533.88,350.62 L 533.88,348.19 L 533.88,345.76 L 533.88,343.33 L 533.88,340.9 L 533.88,338.48 L 533.88,336.05 L 533.88,333.62 L 533.88,331.19 L 533.88,328.76 L 533.88,326.33 L 533.88,323.9 L 533.88,321.47 L 533.88,319.04 L 533.88,316.62 L 533.88,314.19 L 533.88,311.76 L 533.88,309.33 L 533.88,306.9 L 533.88,304.47 L 533.88,302.04 L 533.88,299.61 L 533.88,297.18 L 533.88,294.76 L 533.88,292.33 L 533.88,289.9 L 533.88,287.47 L 533.88,285.04 L 533.85,282.61 L 533.8,280.18 L 533.72,277.76 L 533.62,275.33 L 533.49,272.9 L 533.33,270.48 L 533.15,268.06 L 532.94,265.64 L 532.71,263.22 L 532.44,260.81 L 532.16,258.39 L 531.85,255.98 L 531.51,253.58 L 531.15,251.18 L 530.76,248.78 L 530.34,246.39 L 529.9,244.0 L 529.43,241.61 L 528.94,239.24 L 528.42,236.86 L 527.88,234.5 L 527.31,232.13 L 526.72,229.78 L 526.1,227.43 L 525.46,225.09 L 524.79,222.75 L 524.09,220.43 L 523.37,218.11 L 522.63,215.79 L 521.86,213.49 L 521.07,211.19 L 520.25,208.91 L 519.41,206.63 L 518.54,204.36 L 517.65,202.1 L 516.73,199.85 L 515.79,197.61 L 514.83,195.38 L 513.84,193.16 L 512.83,190.95 L 511.8,188.76 L 510.74,186.57 L 509.66,184.4 L 508.55,182.23 L 507.42,180.08 L 506.27,177.94 L 505.1,175.82 L 503.9,173.7 L 502.68,171.6 L 501.44,169.52 L 500.17,167.44 L 498.89,165.38 L 497.58,163.34 L 496.25,161.3 L 494.9,159.29 L 493.52,157.28 L 492.13,155.3 L 490.71,153.32 L 489.27,151.36 L 487.82,149.42 L 486.34,147.5 L 484.84,145.59 L 483.32,143.69 L 481.78,141.81 L 480.21,139.95 L 478.63,138.11 L 477.03,136.28 L 475.41,134.47 L 473.78,132.68 L 472.12,130.9 L 470.44,129.15 L 468.74,127.41 L 467.03,125.69 L 465.3,123.99 L 463.55,122.3 L 461.78,120.64 L 459.99,118.99 L 458.19,117.37 L 456.36,115.76 L 454.52,114.17 L 452.67,112.61 L 450.8,111.06 L 448.91,109.53 L 447.0,108.03 L 445.08,106.54 L 443.14,105.07 L 441.19,103.63 L 439.22,102.21 L 437.24,100.8 L 435.24,99.42 L 433.23,98.06 L 431.2,96.73 L 429.16,95.41 L 427.1,94.12 L 425.03,92.85 L 422.95,91.6 L 420.85,90.37 L 418.75,89.17 L 416.62,87.98 L 414.49,86.83 L 412.34,85.69 L 410.18,84.58 L 408.01,83.49 L 405.83,82.42 L 403.64,81.38 L 401.43,80.36 L 399.21,79.37 L 396.99,78.39 L 394.75,77.45 L 392.51,76.52 L 390.25,75.63 L 387.98,74.75 L 385.71,73.9 L 383.42,73.07 L 381.13,72.27 L 378.83,71.5 L 376.52,70.74 L 374.2,70.02 L 371.88,69.31 L 369.55,68.64 L 367.21,67.99 L 364.86,67.36 L 362.51,66.76 L 360.15,66.18 L 357.78,65.63 L 355.41,65.1 L 353.03,64.6 L 350.65,64.13 L 348.26,63.68 L 345.87,63.26 L 343.48,62.86 L 341.08,62.49 L 338.67,62.14 L 336.26,61.82 L 333.85,61.52 L 331.44,61.26 L 329.02,61.01 L 326.6,60.8 L 324.18,60.61 L 321.76,60.44 L 319.33,60.3 L 316.91,60.19 L 314.48,60.1 L 312.05,60.04 L 309.62,60.01 L 307.19,60.0 L 304.77,60.02 L 302.34,60.06 L 299.91,60.13 L 297.48,60.23 L 295.06,60.35 L 292.63,60.5 L 290.21,60.67 L 287.79,60.87 L 285.37,61.1 L 282.95,61.35 L 280.54,61.63 L 278.13,61.93 L 275.73,62.26 L 273.32,62.62 L 270.92,63.0 L 268.53,63.4 L 266.14,63.84 L 263.75,64.29 L 261.37,64.78 L 259.0,65.29 L 256.63,65.82 L 254.27,66.38 L 251.91,66.97 L 249.56,67.58 L 247.21,68.21 L 244.88,68.88 L 242.55,69.56 L 240.22,70.27 L 237.91,71.01 L 235.6,71.77 L 233.3,72.55 L 231.02,73.36 L 228.73,74.2 L 226.46,75.06 L 224.2,75.94 L 221.95,76.85 L 219.7,77.78 L 217.47,78.74 L 215.25,79.72 L 213.04,80.72 L 210.84,81.75 L 208.65,82.8 L 206.47,83.87 L 204.3,84.97 L 202.15,86.09 L 200.0,87.24 L 197.87,88.4 L 195.76,89.59 L 193.65,90.8 L 191.56,92.04 L 189.48,93.3 L 187.42,94.58 L 185.37,95.88 L 183.33,97.2 L 181.31,98.55 L 179.3,99.91 L 177.31,101.3 L 175.33,102.71 L 173.37,104.14 L 171.42,105.59 L 169.49,107.07 L 167.57,108.56 L 165.67,110.07 L 163.79,111.61 L 161.92,113.16 L 160.07,114.73 L 158.24,116.33 L 156.42,117.94 L 154.63,119.57 L 152.84,121.23 L 151.08,122.9 L 149.34,124.59 L 147.61,126.3 L 145.9,128.02 L 144.21,129.77 L 142.54,131.53 L 140.89,133.31 L 139.26,135.11 L 137.65,136.93 L 136.05,138.76 L 134.48,140.61 L 132.93,142.48 L 131.39,144.36 L 129.88,146.26 L 128.39,148.18 L 126.92,150.11 L 125.46,152.06 L 124.03,154.02 L 122.63,156.0 L 121.24,157.99 L 119.87,160.0 L 118.53,162.02 L 117.2,164.06 L 115.9,166.11 L 114.63,168.18 L 113.37,170.26 L 112.14,172.35 L 110.92,174.45 L 109.73,176.57 L 108.57,178.7 L 107.43,180.85 L 106.31,183.0 L 105.21,185.17 L 104.14,187.35 L 103.09,189.54 L 102.06,191.74 L 101.06,193.95 L 100.08,196.17 L 99.12,198.41 L 98.19,200.65 L 97.28,202.9 L 96.4,205.17 L 95.54,207.44 L 94.71,209.72 L 93.9,212.01 L 93.12,214.31 L 92.36,216.61 L 91.62,218.93 L 90.91,221.25 L 90.22,223.58 L 89.56,225.92 L 88.93,228.26 L 88.32,230.62 L 87.73,232.97 L 87.18,235.34 L 86.64,237.71 L 86.13,240.08 L 85.65,242.46 L 85.19,244.85 L 84.76,247.24 L 84.35,249.63 L 83.97,252.03 L 83.62,254.43 L 83.29,256.84 L 82.99,259.25 L 82.71,261.66 L 82.46,264.08 L 82.24,266.5 L 82.04,268.92 L 81.86,271.34 L 81.72,273.77 L 81.6,276.19 L 81.5,278.62 L 81.43,281.05 L 81.39,283.47 L 81.37,285.9 L 81.38,288.33 L 81.42,290.76 L 81.48,293.19 L 81.56,295.62 L 81.68,298.04 L 81.82,300.47 L 81.98,302.89 L 82.18,305.31 L 82.39,307.73 L 82.64,310.15 L 82.91,312.56 L 83.2,314.97 L 83.52,317.38 L 83.87,319.78 L 84.24,322.18 L 84.64,324.58 L 85.06,326.97 L 85.51,329.36 L 85.99,331.74 L 86.49,334.12 L 87.02,336.49 L 87.57,338.85 L 88.15,341.21 L 88.75,343.57 L 89.38,345.91 L 90.03,348.25 L 90.71,350.58 L 91.41,352.91 L 92.14,355.23 L 92.89,357.53 L 93.67,359.84 L 94.47,362.13 L 95.3,364.41 L 96.15,366.69 L 97.03,368.95 L 97.93,371.21 L 98.85,373.45 L 99.8,375.69 L 100.77,377.92 L 101.77,380.13 L 102.79,382.34 L 103.83,384.53 L 104.9,386.71 L 105.99,388.88 L 107.1,391.04 L 108.24,393.19 L 109.4,395.32 L 110.58,397.44 L 111.78,399.55 L 113.01,401.65 L 114.26,403.73 L 115.53,405.8 L 116.83,407.86 L 118.14,409.9 L 119.48,411.92 L 120.84,413.94 L 122.22,415.93 L 123.63,417.92 L 125.05,419.88 L 126.49,421.84 L 127.96,423.77 L 129.45,425.69 L 130.95,427.6 L 132.48,429.49 L 134.03,431.36 L 135.6,433.21 L 137.18,435.05 L 138.79,436.87 L 140.42,438.68 L 142.06,440.46 L 143.73,442.23 L 145.41,443.98 L 147.12,445.71 L 148.84,447.43 L 150.58,449.12 L 152.33,450.8 L 154.11,452.46 L 155.9,454.1 L 157.71,455.72 L 159.54,457.32 L 161.38,458.89 L 163.25,460.45 L 165.12,461.99 L 167.02,463.51 L 168.93,465.01 L 170.86,466.49 L 172.8,467.95 L 174.76,469.39 L 176.73,470.8 L 178.72,472.2 L 180.72,473.57 L 182.74,474.92 L 184.77,476.25 L 186.82,477.56 L 188.88,478.85 L 190.96,480.11 L 193.04,481.35 L 195.15,482.57 L 197.26,483.76 L 199.39,484.94 L 201.52,486.09 L 203.68,487.22 L 205.84,488.32 L 208.01,489.4 L 210.2,490.46 L 212.4,491.49 L 214.61,492.5 L 216.83,493.49 L 219.06,494.45 L 221.3,495.39 L 223.55,496.31 L 225.81,497.2 L 228.08,498.06 L 230.35,498.91 L 232.64,499.72 L 234.94,500.52 L 237.24,501.28 L 239.55,502.03 L 241.87,502.74 L 244.2,503.44 L 246.54,504.11 L 248.88,504.75 L 251.23,505.37 L 253.58,505.96 L 255.95,506.53 L 258.31,507.07 L 260.69,507.59 L 263.07,508.08 L 265.45,508.54 L 267.84,508.98 L 270.23,509.4 L 272.63,509.79 L 275.03,510.15 L 277.44,510.49 L 279.84,510.8 L 282.26,511.08 L 284.67,511.34 L 287.09,511.58 L 289.51,511.78 L 291.93,511.99 L 294.35,512.2 L 296.77,512.41 L 299.19,512.61 L 301.61,512.82 L 304.03,513.03 L 306.45,513.24 L 308.87,513.44 L 311.29,513.65 L 313.71,513.86 L 316.13,514.07 L 318.55,514.27 L 320.97,514.48 L 323.39,514.69 L 325.81,514.89 L 328.23,515.1 L 330.65,515.31 L 333.07,515.52 L 335.49,515.72 L 337.91,515.93 L 340.33,516.14 L 342.75,516.35 L 345.17,516.55 L 347.59,516.76 L 350.01,516.97 L 352.43,517.18 L 354.85,517.38 L 357.27,517.59 L 359.69,517.8 L 362.11,518.01 L 364.53,518.21 L 366.95,518.42 L 369.37,518.63 L 371.79,518.84 L 374.21,519.04 L 376.63,519.25 L 379.05,519.46 L 381.47,519.67 L 383.89,519.87 L 386.31,520.08 L 388.73,520.29 L 391.15,520.5 L 393.57,520.7 L 395.99,520.91 L 398.41,521.12 L 400.83,521.33 L 403.25,521.53 L 405.67,521.74 L 408.09,521.95 L 410.51,522.16 L 412.93,522.36 L 415.35,522.57 L 417.77,522.78 L 420.19,522.99 L 422.61,523.19 L 425.03,523.4 L 427.45,523.61 L 429.87,523.82 L 432.29,524.02 L 434.71,524.23 L 437.13,524.44 L 439.55,524.65 L 441.97,524.85 L 444.39,525.06 L 446.81,525.27 L 449.23,525.48 L 451.65,525.68 L 454.07,525.89 L 456.49,526.1 L 458.91,526.31 L 461.33,526.51 L 463.75,526.72 L 466.17,526.93 L 468.59,527.14 L 471.01,527.34 L 473.43,527.55 L 475.85,527.76 L 478.27,527.97 L 480.69,528.17 L 483.11,528.38 L 485.53,528.59 L 487.95,528.8 L 490.37,529.0 L 492.79,529.21 L 495.21,529.42 L 497.63,529.63 L 500.05,529.83 L 502.47,530.04 L 504.89,530.25 L 507.31,530.46 L 509.73,530.66 L 512.15,530.87 L 514.57,531.08 L 516.99,531.29 L 519.41,531.49 L 521.83,531.7 L 524.25,531.91 L 526.67,532.12 L 529.09,532.32 L 531.51,532.53 L 533.93,532.74 L 536.35,532.95 L 538.77,533.15 L 541.19,533.36 L 543.61,533.57 L 546.03,533.78 L 548.45,533.98 L 550.87,534.19 L 553.29,534.4 L 555.71,534.61 L 558.13,534.81 L 560.55,535.02 L 562.97,535.23 L 565.39,535.44 L 567.81,535.64 L 570.23,535.85 L 572.65,536.06 L 575.07,536.27 L 577.49,536.47 L 579.91,536.68 L 582.33,536.89 L 584.75,537.1 L 587.17,537.3 L 589.59,537.51 L 592.01,537.72 L 594.43,537.93 L 596.85,538.13 L 599.27,538.34 L 601.69,538.55 L 604.11,538.76 L 606.53,538.96 L 608.95,539.17 L 611.37,539.38 L 613.79,539.59 L 616.21,539.79 L 618.63,540.0" fill="none" stroke="rgba(255,255,255,0.38)" stroke-width="1.3" stroke-dasharray="8 5"/>

      <path d="M 542.62,500.24 L 542.17,493.26 L 541.55,486.29 L 540.83,479.33 L 540.09,472.38 L 539.37,465.42 L 538.7,458.46 L 538.08,451.49 L 537.57,444.51 L 537.16,437.53 L 536.88,430.54 L 536.7,423.55 L 536.62,416.55 L 536.61,409.56 L 536.66,402.56 L 536.75,395.57 L 536.87,388.57 L 537.01,381.58 L 537.17,374.59 L 537.33,367.59 L 537.49,360.6 L 537.64,353.61 L 537.8,346.61 L 537.94,339.62 L 538.09,332.63 L 538.22,325.63 L 538.35,318.64 L 538.48,311.64 L 538.75,304.65 L 538.94,297.66 L 539.06,290.67 L 539.07,283.67 L 538.97,276.68 L 538.73,269.69 L 538.34,262.7 L 537.78,255.73 L 537.04,248.77 L 536.11,241.84 L 534.97,234.94 L 533.64,228.07 L 532.09,221.25 L 530.34,214.48 L 528.38,207.77 L 526.21,201.11 L 523.85,194.53 L 521.3,188.02 L 518.55,181.59 L 515.62,175.23 L 512.52,168.96 L 509.24,162.78 L 505.81,156.69 L 502.21,150.69 L 498.47,144.78 L 494.59,138.96 L 490.58,133.23 L 486.45,127.58 L 482.21,122.02 L 477.84,116.56 L 473.26,111.27 L 468.18,106.47 L 462.31,102.69 L 455.87,99.98 L 449.52,97.08 L 443.69,93.22 L 437.5,90.0 L 430.78,88.08 L 423.83,87.43 L 416.84,87.77 L 409.91,88.65 L 403.0,89.73 L 396.06,90.64 L 389.08,91.02 L 382.11,90.54 L 375.25,89.14 L 368.56,87.11 L 361.97,84.77 L 355.41,82.35 L 348.82,80.01 L 342.17,77.83 L 335.46,75.85 L 328.68,74.12 L 321.85,72.64 L 314.96,71.44 L 308.02,70.52 L 301.06,69.88 L 294.07,69.51 L 287.08,69.43 L 280.09,69.62 L 273.11,70.09 L 266.15,70.82 L 259.23,71.82 L 252.34,73.07 L 245.51,74.58 L 238.74,76.33 L 232.04,78.32 L 225.41,80.55 L 218.86,83.0 L 212.4,85.69 L 206.03,88.59 L 199.77,91.71 L 193.62,95.04 L 187.58,98.57 L 181.67,102.31 L 175.88,106.23 L 170.22,110.35 L 164.71,114.65 L 159.33,119.13 L 154.11,123.78 L 149.04,128.6 L 144.13,133.58 L 139.38,138.72 L 134.81,144.01 L 130.4,149.44 L 126.17,155.01 L 122.13,160.72 L 118.27,166.55 L 114.59,172.51 L 111.12,178.57 L 107.83,184.75 L 104.75,191.03 L 101.87,197.4 L 99.19,203.87 L 96.72,210.41 L 94.47,217.03 L 92.42,223.72 L 90.59,230.47 L 88.98,237.28 L 87.58,244.13 L 86.41,251.03 L 85.46,257.96 L 84.73,264.91 L 84.22,271.89 L 83.94,278.88 L 83.89,285.87 L 84.06,292.87 L 84.46,299.85 L 85.08,306.82 L 85.94,313.76 L 87.02,320.67 L 88.32,327.54 L 89.86,334.37 L 91.62,341.14 L 93.6,347.84 L 95.81,354.48 L 98.25,361.04 L 100.9,367.51 L 103.79,373.88 L 106.89,380.15 L 110.22,386.3 L 113.77,392.33 L 117.54,398.22 L 121.53,403.96 L 125.76,409.54 L 130.21,414.93 L 134.9,420.12 L 139.82,425.09 L 144.99,429.8 L 150.37,434.27 L 155.85,438.62 L 161.34,442.96 L 166.79,447.34 L 172.21,451.76 L 177.6,456.22 L 182.99,460.68 L 188.41,465.1 L 193.88,469.47 L 199.42,473.74 L 205.05,477.88 L 210.79,481.88 L 216.65,485.7 L 222.64,489.32 L 228.74,492.74 L 234.97,495.93 L 241.31,498.88 L 247.76,501.58 L 254.31,504.03 L 260.96,506.21 L 267.69,508.12 L 274.48,509.77 L 281.33,511.18 L 288.23,512.38 L 295.15,513.39 L 302.09,514.25 L 309.04,515.0 L 316.01,515.65 L 322.98,516.22 L 329.96,516.71 L 336.94,517.2 L 343.91,517.69 L 350.89,518.18 L 357.87,518.67 L 364.85,519.17 L 371.83,519.67 L 378.8,520.18 L 385.78,520.7 L 392.75,521.22 L 399.73,521.75 L 406.7,522.28 L 413.68,522.83 L 420.65,523.37 L 427.62,523.93 L 434.6,524.49 L 441.57,525.05 L 448.54,525.62 L 455.51,526.19 L 462.48,526.76 L 469.46,527.34 L 476.43,527.92 L 483.4,528.5 L 490.37,529.08 L 497.34,529.67 L 504.31,530.26 L 511.28,530.85 L 518.25,531.44 L 525.22,532.03 L 532.19,532.62 L 539.16,533.21 L 546.13,533.81 L 553.1,534.4 L 560.07,535.0 L 567.04,535.59 L 574.01,536.19 L 580.98,536.78 L 587.95,537.38 L 594.92,537.97" fill="none" stroke="url(#trail-grad-t)" stroke-width="2.5" stroke-linecap="round" stroke-linejoin="round"
            stroke-dasharray="1566.77" stroke-dashoffset="1566.77">
        <animate attributeName="stroke-dashoffset" values="1566.77;1559.78;1552.78;1545.78;1538.79;1531.8;1524.8;1517.81;1510.81;1503.82;1496.82;1489.83;1482.83;1475.84;1468.84;1461.85;1454.85;1447.86;1440.86;1433.86;1426.87;1419.88;1412.88;1405.88;1398.89;1391.89;1384.9;1377.9;1370.9;1363.91;1356.92;1349.92;1342.93;1335.94;1328.94;1321.94;1314.94;1307.95;1300.96;1293.96;1286.97;1279.97;1272.98;1265.98;1258.99;1252.0;1245.0;1238.0;1231.01;1224.01;1217.02;1210.02;1203.03;1196.03;1189.04;1182.04;1175.05;1168.06;1161.06;1154.07;1147.09;1140.1;1133.12;1126.13;1119.15;1112.16;1105.18;1098.18;1091.2;1084.2;1077.2;1070.21;1063.23;1056.23;1049.24;1042.24;1035.25;1028.26;1021.26;1014.26;1007.27;1000.28;993.28;986.28;979.29;972.29;965.3;958.31;951.31;944.32;937.32;930.32;923.33;916.33;909.35;902.35;895.36;888.36;881.36;874.37;867.37;860.38;853.38;846.39;839.39;832.4;825.4;818.41;811.41;804.42;797.42;790.43;783.43;776.44;769.45;762.45;755.45;748.47;741.47;734.47;727.48;720.48;713.49;706.49;699.5;692.5;685.51;678.51;671.52;664.52;657.53;650.53;643.54;636.55;629.55;622.55;615.56;608.56;601.57;594.58;587.58;580.58;573.59;566.6;559.6;552.61;545.61;538.62;531.62;524.63;517.63;510.64;503.64;496.65;489.65;482.66;475.67;468.67;461.68;454.68;447.69;440.69;433.7;426.7;419.71;412.71;405.71;398.72;391.73;384.73;377.73;370.74;363.74;356.75;349.75;342.76;335.76;328.77;321.78;314.79;307.78;300.79;293.8;286.81;279.81;272.81;265.82;258.82;251.83;244.83;237.84;230.84;223.84;216.85;209.85;202.86;195.86;188.87;181.87;174.88;167.89;160.89;153.89;146.9;139.91;132.91;125.91;118.92;111.92;104.93;97.93;90.94;83.94;76.95;69.95;62.96;55.96;48.97;41.97;34.98;27.98;20.99;13.99;6.99;0.0" dur="8s" repeatCount="indefinite" calcMode="linear"/>
      </path>

      <g>
        <circle r="9" fill="none" stroke="#ffe566" stroke-width="1.5">
          <animate attributeName="cx" values="542.62;542.17;541.55;540.83;540.09;539.37;538.7;538.08;537.57;537.16;536.88;536.7;536.62;536.61;536.66;536.75;536.87;537.01;537.17;537.33;537.49;537.64;537.8;537.94;538.09;538.22;538.35;538.48;538.75;538.94;539.06;539.07;538.97;538.73;538.34;537.78;537.04;536.11;534.97;533.64;532.09;530.34;528.38;526.21;523.85;521.3;518.55;515.62;512.52;509.24;505.81;502.21;498.47;494.59;490.58;486.45;482.21;477.84;473.26;468.18;462.31;455.87;449.52;443.69;437.5;430.78;423.83;416.84;409.91;403.0;396.06;389.08;382.11;375.25;368.56;361.97;355.41;348.82;342.17;335.46;328.68;321.85;314.96;308.02;301.06;294.07;287.08;280.09;273.11;266.15;259.23;252.34;245.51;238.74;232.04;225.41;218.86;212.4;206.03;199.77;193.62;187.58;181.67;175.88;170.22;164.71;159.33;154.11;149.04;144.13;139.38;134.81;130.4;126.17;122.13;118.27;114.59;111.12;107.83;104.75;101.87;99.19;96.72;94.47;92.42;90.59;88.98;87.58;86.41;85.46;84.73;84.22;83.94;83.89;84.06;84.46;85.08;85.94;87.02;88.32;89.86;91.62;93.6;95.81;98.25;100.9;103.79;106.89;110.22;113.77;117.54;121.53;125.76;130.21;134.9;139.82;144.99;150.37;155.85;161.34;166.79;172.21;177.6;182.99;188.41;193.88;199.42;205.05;210.79;216.65;222.64;228.74;234.97;241.31;247.76;254.31;260.96;267.69;274.48;281.33;288.23;295.15;302.09;309.04;316.01;322.98;329.96;336.94;343.91;350.89;357.87;364.85;371.83;378.8;385.78;392.75;399.73;406.7;413.68;420.65;427.62;434.6;441.57;448.54;455.51;462.48;469.46;476.43;483.4;490.37;497.34;504.31;511.28;518.25;525.22;532.19;539.16;546.13;553.1;560.07;567.04;574.01;580.98;587.95;594.92" dur="8s" repeatCount="indefinite" calcMode="linear"/>
          <animate attributeName="cy" values="500.24;493.26;486.29;479.33;472.38;465.42;458.46;451.49;444.51;437.53;430.54;423.55;416.55;409.56;402.56;395.57;388.57;381.58;374.59;367.59;360.6;353.61;346.61;339.62;332.63;325.63;318.64;311.64;304.65;297.66;290.67;283.67;276.68;269.69;262.7;255.73;248.77;241.84;234.94;228.07;221.25;214.48;207.77;201.11;194.53;188.02;181.59;175.23;168.96;162.78;156.69;150.69;144.78;138.96;133.23;127.58;122.02;116.56;111.27;106.47;102.69;99.98;97.08;93.22;90.0;88.08;87.43;87.77;88.65;89.73;90.64;91.02;90.54;89.14;87.11;84.77;82.35;80.01;77.83;75.85;74.12;72.64;71.44;70.52;69.88;69.51;69.43;69.62;70.09;70.82;71.82;73.07;74.58;76.33;78.32;80.55;83.0;85.69;88.59;91.71;95.04;98.57;102.31;106.23;110.35;114.65;119.13;123.78;128.6;133.58;138.72;144.01;149.44;155.01;160.72;166.55;172.51;178.57;184.75;191.03;197.4;203.87;210.41;217.03;223.72;230.47;237.28;244.13;251.03;257.96;264.91;271.89;278.88;285.87;292.87;299.85;306.82;313.76;320.67;327.54;334.37;341.14;347.84;354.48;361.04;367.51;373.88;380.15;386.3;392.33;398.22;403.96;409.54;414.93;420.12;425.09;429.8;434.27;438.62;442.96;447.34;451.76;456.22;460.68;465.1;469.47;473.74;477.88;481.88;485.7;489.32;492.74;495.93;498.88;501.58;504.03;506.21;508.12;509.77;511.18;512.38;513.39;514.25;515.0;515.65;516.22;516.71;517.2;517.69;518.18;518.67;519.17;519.67;520.18;520.7;521.22;521.75;522.28;522.83;523.37;523.93;524.49;525.05;525.62;526.19;526.76;527.34;527.92;528.5;529.08;529.67;530.26;530.85;531.44;532.03;532.62;533.21;533.81;534.4;535.0;535.59;536.19;536.78;537.38;537.97" dur="8s" repeatCount="indefinite" calcMode="linear"/>
          <animate attributeName="r" values="9;24;9" dur="2s" repeatCount="indefinite"/>
          <animate attributeName="opacity" values="0.8;0;0.8" dur="2s" repeatCount="indefinite"/>
        </circle>
        <circle r="5.5" fill="#ffe566">
          <animate attributeName="cx" values="542.62;542.17;541.55;540.83;540.09;539.37;538.7;538.08;537.57;537.16;536.88;536.7;536.62;536.61;536.66;536.75;536.87;537.01;537.17;537.33;537.49;537.64;537.8;537.94;538.09;538.22;538.35;538.48;538.75;538.94;539.06;539.07;538.97;538.73;538.34;537.78;537.04;536.11;534.97;533.64;532.09;530.34;528.38;526.21;523.85;521.3;518.55;515.62;512.52;509.24;505.81;502.21;498.47;494.59;490.58;486.45;482.21;477.84;473.26;468.18;462.31;455.87;449.52;443.69;437.5;430.78;423.83;416.84;409.91;403.0;396.06;389.08;382.11;375.25;368.56;361.97;355.41;348.82;342.17;335.46;328.68;321.85;314.96;308.02;301.06;294.07;287.08;280.09;273.11;266.15;259.23;252.34;245.51;238.74;232.04;225.41;218.86;212.4;206.03;199.77;193.62;187.58;181.67;175.88;170.22;164.71;159.33;154.11;149.04;144.13;139.38;134.81;130.4;126.17;122.13;118.27;114.59;111.12;107.83;104.75;101.87;99.19;96.72;94.47;92.42;90.59;88.98;87.58;86.41;85.46;84.73;84.22;83.94;83.89;84.06;84.46;85.08;85.94;87.02;88.32;89.86;91.62;93.6;95.81;98.25;100.9;103.79;106.89;110.22;113.77;117.54;121.53;125.76;130.21;134.9;139.82;144.99;150.37;155.85;161.34;166.79;172.21;177.6;182.99;188.41;193.88;199.42;205.05;210.79;216.65;222.64;228.74;234.97;241.31;247.76;254.31;260.96;267.69;274.48;281.33;288.23;295.15;302.09;309.04;316.01;322.98;329.96;336.94;343.91;350.89;357.87;364.85;371.83;378.8;385.78;392.75;399.73;406.7;413.68;420.65;427.62;434.6;441.57;448.54;455.51;462.48;469.46;476.43;483.4;490.37;497.34;504.31;511.28;518.25;525.22;532.19;539.16;546.13;553.1;560.07;567.04;574.01;580.98;587.95;594.92" dur="8s" repeatCount="indefinite" calcMode="linear"/>
          <animate attributeName="cy" values="500.24;493.26;486.29;479.33;472.38;465.42;458.46;451.49;444.51;437.53;430.54;423.55;416.55;409.56;402.56;395.57;388.57;381.58;374.59;367.59;360.6;353.61;346.61;339.62;332.63;325.63;318.64;311.64;304.65;297.66;290.67;283.67;276.68;269.69;262.7;255.73;248.77;241.84;234.94;228.07;221.25;214.48;207.77;201.11;194.53;188.02;181.59;175.23;168.96;162.78;156.69;150.69;144.78;138.96;133.23;127.58;122.02;116.56;111.27;106.47;102.69;99.98;97.08;93.22;90.0;88.08;87.43;87.77;88.65;89.73;90.64;91.02;90.54;89.14;87.11;84.77;82.35;80.01;77.83;75.85;74.12;72.64;71.44;70.52;69.88;69.51;69.43;69.62;70.09;70.82;71.82;73.07;74.58;76.33;78.32;80.55;83.0;85.69;88.59;91.71;95.04;98.57;102.31;106.23;110.35;114.65;119.13;123.78;128.6;133.58;138.72;144.01;149.44;155.01;160.72;166.55;172.51;178.57;184.75;191.03;197.4;203.87;210.41;217.03;223.72;230.47;237.28;244.13;251.03;257.96;264.91;271.89;278.88;285.87;292.87;299.85;306.82;313.76;320.67;327.54;334.37;341.14;347.84;354.48;361.04;367.51;373.88;380.15;386.3;392.33;398.22;403.96;409.54;414.93;420.12;425.09;429.8;434.27;438.62;442.96;447.34;451.76;456.22;460.68;465.1;469.47;473.74;477.88;481.88;485.7;489.32;492.74;495.93;498.88;501.58;504.03;506.21;508.12;509.77;511.18;512.38;513.39;514.25;515.0;515.65;516.22;516.71;517.2;517.69;518.18;518.67;519.17;519.67;520.18;520.7;521.22;521.75;522.28;522.83;523.37;523.93;524.49;525.05;525.62;526.19;526.76;527.34;527.92;528.5;529.08;529.67;530.26;530.85;531.44;532.03;532.62;533.21;533.81;534.4;535.0;535.59;536.19;536.78;537.38;537.97" dur="8s" repeatCount="indefinite" calcMode="linear"/>
        </circle>
        <circle r="2" fill="white">
          <animate attributeName="cx" values="542.62;542.17;541.55;540.83;540.09;539.37;538.7;538.08;537.57;537.16;536.88;536.7;536.62;536.61;536.66;536.75;536.87;537.01;537.17;537.33;537.49;537.64;537.8;537.94;538.09;538.22;538.35;538.48;538.75;538.94;539.06;539.07;538.97;538.73;538.34;537.78;537.04;536.11;534.97;533.64;532.09;530.34;528.38;526.21;523.85;521.3;518.55;515.62;512.52;509.24;505.81;502.21;498.47;494.59;490.58;486.45;482.21;477.84;473.26;468.18;462.31;455.87;449.52;443.69;437.5;430.78;423.83;416.84;409.91;403.0;396.06;389.08;382.11;375.25;368.56;361.97;355.41;348.82;342.17;335.46;328.68;321.85;314.96;308.02;301.06;294.07;287.08;280.09;273.11;266.15;259.23;252.34;245.51;238.74;232.04;225.41;218.86;212.4;206.03;199.77;193.62;187.58;181.67;175.88;170.22;164.71;159.33;154.11;149.04;144.13;139.38;134.81;130.4;126.17;122.13;118.27;114.59;111.12;107.83;104.75;101.87;99.19;96.72;94.47;92.42;90.59;88.98;87.58;86.41;85.46;84.73;84.22;83.94;83.89;84.06;84.46;85.08;85.94;87.02;88.32;89.86;91.62;93.6;95.81;98.25;100.9;103.79;106.89;110.22;113.77;117.54;121.53;125.76;130.21;134.9;139.82;144.99;150.37;155.85;161.34;166.79;172.21;177.6;182.99;188.41;193.88;199.42;205.05;210.79;216.65;222.64;228.74;234.97;241.31;247.76;254.31;260.96;267.69;274.48;281.33;288.23;295.15;302.09;309.04;316.01;322.98;329.96;336.94;343.91;350.89;357.87;364.85;371.83;378.8;385.78;392.75;399.73;406.7;413.68;420.65;427.62;434.6;441.57;448.54;455.51;462.48;469.46;476.43;483.4;490.37;497.34;504.31;511.28;518.25;525.22;532.19;539.16;546.13;553.1;560.07;567.04;574.01;580.98;587.95;594.92" dur="8s" repeatCount="indefinite" calcMode="linear"/>
          <animate attributeName="cy" values="500.24;493.26;486.29;479.33;472.38;465.42;458.46;451.49;444.51;437.53;430.54;423.55;416.55;409.56;402.56;395.57;388.57;381.58;374.59;367.59;360.6;353.61;346.61;339.62;332.63;325.63;318.64;311.64;304.65;297.66;290.67;283.67;276.68;269.69;262.7;255.73;248.77;241.84;234.94;228.07;221.25;214.48;207.77;201.11;194.53;188.02;181.59;175.23;168.96;162.78;156.69;150.69;144.78;138.96;133.23;127.58;122.02;116.56;111.27;106.47;102.69;99.98;97.08;93.22;90.0;88.08;87.43;87.77;88.65;89.73;90.64;91.02;90.54;89.14;87.11;84.77;82.35;80.01;77.83;75.85;74.12;72.64;71.44;70.52;69.88;69.51;69.43;69.62;70.09;70.82;71.82;73.07;74.58;76.33;78.32;80.55;83.0;85.69;88.59;91.71;95.04;98.57;102.31;106.23;110.35;114.65;119.13;123.78;128.6;133.58;138.72;144.01;149.44;155.01;160.72;166.55;172.51;178.57;184.75;191.03;197.4;203.87;210.41;217.03;223.72;230.47;237.28;244.13;251.03;257.96;264.91;271.89;278.88;285.87;292.87;299.85;306.82;313.76;320.67;327.54;334.37;341.14;347.84;354.48;361.04;367.51;373.88;380.15;386.3;392.33;398.22;403.96;409.54;414.93;420.12;425.09;429.8;434.27;438.62;442.96;447.34;451.76;456.22;460.68;465.1;469.47;473.74;477.88;481.88;485.7;489.32;492.74;495.93;498.88;501.58;504.03;506.21;508.12;509.77;511.18;512.38;513.39;514.25;515.0;515.65;516.22;516.71;517.2;517.69;518.18;518.67;519.17;519.67;520.18;520.7;521.22;521.75;522.28;522.83;523.37;523.93;524.49;525.05;525.62;526.19;526.76;527.34;527.92;528.5;529.08;529.67;530.26;530.85;531.44;532.03;532.62;533.21;533.81;534.4;535.0;535.59;536.19;536.78;537.38;537.97" dur="8s" repeatCount="indefinite" calcMode="linear"/>
        </circle>
      </g>

      <g class="legend" transform="translate(195.0, 570)">
        <rect x="0" y="-14" width="310" height="28" rx="14" fill="rgba(20, 15, 35, 0.8)" stroke="rgba(0, 229, 204, 0.4)" stroke-width="1"/>
        <line x1="20" y1="0" x2="45" y2="0" stroke="rgba(255,255,255,0.4)" stroke-width="2" stroke-dasharray="4 3"/>
        <text x="55" y="4" font-size="11" font-weight="600" fill="rgba(255,255,255,0.7)" font-family="system-ui, sans-serif">Reference</text>
        <line x1="150" y1="-6" x2="150" y2="6" stroke="rgba(255,255,255,0.2)" stroke-width="1"/>
        <line x1="165" y1="0" x2="190" y2="0" stroke="url(#trail-grad-t)" stroke-width="3" stroke-linecap="round"/>
        <text x="200" y="4" font-size="11" font-weight="bold" fill="#ff00cc" font-family="system-ui, sans-serif">Real Trajectory</text>
      </g>
    </svg>