<svg xmlns="http://www.w3.org/2000/svg" viewBox="0 0 700 400" width="100%" class="trajectory-svg">
      <defs>
        <linearGradient id="trail-grad-e" x1="60" y1="0" x2="670" y2="0" gradientUnits="userSpaceOnUse">
          <stop offset="0%" stop-color="#aa00ff"/><stop offset="100%" stop-color="#ff00cc"/>
        </linearGradient>
      </defs>

      <rect width="700" height="400" fill="#0d0a1a"/>
      <g class="grid"><line x1="60.0" y1="50" x2="60.0" y2="360" stroke="rgba(0,229,204,1)" stroke-width="0.5" opacity="0.06"/>
<line x1="161.66666666666669" y1="50" x2="161.66666666666669" y2="360" stroke="rgba(0,229,204,1)" stroke-width="0.5" opacity="0.06"/>
<line x1="263.33333333333337" y1="50" x2="263.33333333333337" y2="360" stroke="rgba(0,229,204,1)" stroke-width="0.5" opacity="0.06"/>
<line x1="365.0" y1="50" x2="365.0" y2="360" stroke="rgba(0,229,204,1)" stroke-width="0.5" opacity="0.06"/>
<line x1="466.6666666666667" y1="50" x2="466.6666666666667" y2="360" stroke="rgba(0,229,204,1)" stroke-width="0.5" opacity="0.06"/>
<line x1="568.3333333333333" y1="50" x2="568.3333333333333" y2="360" stroke="rgba(0,229,204,1)" stroke-width="0.5" opacity="0.06"/>
<line x1="670.0" y1="50" x2="670.0" y2="360" stroke="rgba(0,229,204,1)" stroke-width="0.5" opacity="0.06"/>
<line x1="60" y1="50.0" x2="670" y2="50.0" stroke="rgba(0,229,204,1)" stroke-width="0.5" opacity="0.18"/>
<line x1="60" y1="101.66666666666666" x2="670" y2="101.66666666666666" stroke="rgba(0,229,204,1)" stroke-width="0.5" opacity="0.18"/>
<line x1="60" y1="153.33333333333331" x2="670" y2="153.33333333333331" stroke="rgba(0,229,204,1)" stroke-width="0.5" opacity="0.18"/>
<line x1="60" y1="205.0" x2="670" y2="205.0" stroke="rgba(0,229,204,1)" stroke-width="0.5" opacity="0.18"/>
<line x1="60" y1="256.66666666666663" x2="670" y2="256.66666666666663" stroke="rgba(0,229,204,1)" stroke-width="0.5" opacity="0.18"/>
<line x1="60" y1="308.3333333333333" x2="670" y2="308.3333333333333" stroke="rgba(0,229,204,1)" stroke-width="0.5" opacity="0.18"/>
<line x1="60" y1="360.0" x2="670" y2="360.0" stroke="rgba(0,229,204,1)" stroke-width="0.5" opacity="0.18"/>
</g>
      <line x1="60" y1="127.08" x2="670" y2="127.08" stroke="rgba(255,255,255,0.5)" stroke-width="1.5" stroke-dasharray="6 6"/>
      <rect x="60" y="50" width="610" height="310" fill="none" stroke="rgba(0,229,204,0.15)" stroke-width="0.75" rx="4"/>

      <g class="axis-labels"><text x="60.0" y="380" font-size="10" fill="rgba(255,255,255,0.6)" text-anchor="middle" font-family="system-ui, sans-serif">0.1s</text>
<text x="161.66666666666669" y="380" font-size="10" fill="rgba(255,255,255,0.6)" text-anchor="middle" font-family="system-ui, sans-serif">7.6s</text>
<text x="263.33333333333337" y="380" font-size="10" fill="rgba(255,255,255,0.6)" text-anchor="middle" font-family="system-ui, sans-serif">15.0s</text>
<text x="365.0" y="380" font-size="10" fill="rgba(255,255,255,0.6)" text-anchor="middle" font-family="system-ui, sans-serif">22.5s</text>
<text x="466.6666666666667" y="380" font-size="10" fill="rgba(255,255,255,0.6)" text-anchor="middle" font-family="system-ui, sans-serif">30.0s</text>
<text x="568.3333333333333" y="380" font-size="10" fill="rgba(255,255,255,0.6)" text-anchor="middle" font-family="system-ui, sans-serif">37.4s</text>
<text x="670.0" y="380" font-size="10" fill="rgba(255,255,255,0.6)" text-anchor="middle" font-family="system-ui, sans-serif">44.9s</text>
<text x="50" y="54.0" font-size="10" fill="rgba(255,255,255,0.6)" text-anchor="end" font-family="system-ui, sans-serif">1.18</text>
<text x="50" y="105.66666666666666" font-size="10" fill="rgba(255,255,255,0.6)" text-anchor="end" font-family="system-ui, sans-serif">0.39</text>
<text x="50" y="157.33333333333331" font-size="10" fill="rgba(255,255,255,0.6)" text-anchor="end" font-family="system-ui, sans-serif">-0.40</text>
<text x="50" y="209.0" font-size="10" fill="rgba(255,255,255,0.6)" text-anchor="end" font-family="system-ui, sans-serif">-1.19</text>
<text x="50" y="260.66666666666663" font-size="10" fill="rgba(255,255,255,0.6)" text-anchor="end" font-family="system-ui, sans-serif">-1.98</text>
<text x="50" y="312.3333333333333" font-size="10" fill="rgba(255,255,255,0.6)" text-anchor="end" font-family="system-ui, sans-serif">-2.77</text>
<text x="50" y="364.0" font-size="10" fill="rgba(255,255,255,0.6)" text-anchor="end" font-family="system-ui, sans-serif">-3.55</text>
</g>
      <text x="50" y="35" font-size="11" font-weight="bold" fill="rgba(0,229,204,0.8)" text-anchor="end" font-family="system-ui, sans-serif">Error (m)</text>
      <text x="670" y="395" font-size="11" font-weight="bold" fill="rgba(0,229,204,0.8)" text-anchor="end" font-family="system-ui, sans-serif">Time (s)</text>

      <path d="M 60.0,159.85 L 62.72,158.33 L 65.45,156.45 L 68.17,154.14 L 70.89,151.51 L 73.62,148.68 L 76.34,145.77 L 79.06,142.9 L 81.79,140.2 L 84.51,137.8 L 87.23,135.8 L 89.96,134.28 L 92.68,133.25 L 95.4,132.72 L 98.12,132.64 L 100.85,132.97 L 103.57,133.65 L 106.29,134.61 L 109.02,135.8 L 111.74,137.15 L 114.46,138.61 L 117.19,140.13 L 119.91,141.66 L 122.63,143.18 L 125.36,144.66 L 128.08,146.07 L 130.8,147.41 L 133.53,148.66 L 136.25,150.27 L 138.97,152.28 L 141.7,154.27 L 144.42,156.26 L 147.14,158.25 L 149.87,160.24 L 152.59,162.24 L 155.31,164.22 L 158.04,166.17 L 160.76,168.1 L 163.48,169.99 L 166.21,171.83 L 168.93,173.62 L 171.65,175.38 L 174.38,177.1 L 177.1,178.77 L 179.82,180.42 L 182.54,182.06 L 185.27,183.68 L 187.99,185.32 L 190.71,186.98 L 193.44,188.67 L 196.16,190.41 L 198.88,192.25 L 201.61,194.19 L 204.33,196.25 L 207.05,198.49 L 209.78,200.91 L 212.5,203.59 L 215.22,206.57 L 217.95,209.92 L 220.67,213.79 L 223.39,218.4 L 226.12,224.34 L 228.84,232.63 L 231.56,244.3 L 234.29,259.29 L 237.01,275.91 L 239.73,292.53 L 242.46,307.41 L 245.18,319.87 L 247.9,329.03 L 250.62,333.98 L 253.35,334.17 L 256.07,329.83 L 258.79,322.06 L 261.52,311.86 L 264.24,300.05 L 266.96,287.22 L 269.69,273.8 L 272.41,260.08 L 275.13,246.33 L 277.86,232.75 L 280.58,219.54 L 283.3,206.87 L 286.03,194.86 L 288.75,183.66 L 291.47,173.33 L 294.2,163.89 L 296.92,155.3 L 299.64,147.37 L 302.37,140.07 L 305.09,133.39 L 307.81,127.36 L 310.54,121.96 L 313.26,117.21 L 315.98,113.11 L 318.71,109.68 L 321.43,106.92 L 324.15,104.83 L 326.88,103.43 L 329.6,102.68 L 332.32,102.54 L 335.04,102.96 L 337.77,103.87 L 340.49,105.17 L 343.21,106.79 L 345.94,108.63 L 348.66,110.62 L 351.38,112.67 L 354.11,114.74 L 356.83,116.77 L 359.55,118.72 L 362.28,120.57 L 365.0,122.28 L 367.72,123.84 L 370.45,125.24 L 373.17,126.48 L 375.89,127.55 L 378.62,128.47 L 381.34,129.23 L 384.06,129.85 L 386.79,130.32 L 389.51,130.66 L 392.23,130.88 L 394.96,131.01 L 397.68,131.05 L 400.4,131.01 L 403.12,130.89 L 405.85,130.7 L 408.57,130.46 L 411.29,130.18 L 414.02,129.87 L 416.74,129.53 L 419.46,129.18 L 422.19,128.81 L 424.91,128.42 L 427.63,128.04 L 430.36,127.65 L 433.08,127.27 L 435.8,126.88 L 438.53,126.49 L 441.25,126.09 L 443.97,125.69 L 446.7,125.28 L 449.42,124.86 L 452.14,124.44 L 454.87,123.99 L 457.59,123.52 L 460.31,123.03 L 463.04,122.5 L 465.76,121.93 L 468.48,121.31 L 471.21,120.66 L 473.93,119.94 L 476.65,119.16 L 479.37,118.28 L 482.1,117.31 L 484.82,116.23 L 487.54,115.03 L 490.27,113.68 L 492.99,112.16 L 495.71,110.45 L 498.44,108.49 L 501.16,106.24 L 503.88,103.64 L 506.61,100.6 L 509.33,97.03 L 512.05,93.04 L 514.78,88.89 L 517.5,84.9 L 520.22,81.35 L 522.95,78.5 L 525.67,76.59 L 528.39,75.83 L 531.12,76.37 L 533.84,78.2 L 536.56,81.18 L 539.29,85.06 L 542.01,89.58 L 544.73,94.5 L 547.46,99.66 L 550.18,104.9 L 552.9,110.12 L 555.62,115.21 L 558.35,120.11 L 561.07,124.75 L 563.79,129.1 L 566.52,133.07 L 569.24,136.58 L 571.96,139.58 L 574.69,142.0 L 577.41,143.85 L 580.13,145.11 L 582.86,145.81 L 585.58,145.98 L 588.3,145.43 L 591.03,144.08 L 593.75,142.54 L 596.47,140.86 L 599.2,139.12 L 601.92,137.37 L 604.64,135.66 L 607.37,134.01 L 610.09,132.48 L 612.81,131.06 L 615.54,129.79 L 618.26,128.67 L 620.98,127.7 L 623.71,126.89 L 626.43,126.22 L 629.15,125.69 L 631.87,125.3 L 634.6,125.02 L 637.32,124.85 L 640.04,124.77 L 642.77,124.77 L 645.49,124.84 L 648.21,124.95 L 650.94,125.1 L 653.66,125.28 L 656.38,125.48 L 659.11,125.69 L 661.83,125.89 L 664.55,126.09 L 667.28,126.28 L 670.0,126.46" fill="none" stroke="url(#trail-grad-e)" stroke-width="2.5" stroke-linecap="round" stroke-linejoin="round"
            stroke-dasharray="980.93" stroke-dashoffset="980.93">
        <animate attributeName="stroke-dashoffset" values="980.93;977.81;974.5;970.93;967.14;963.21;959.23;955.27;951.44;947.81;944.43;941.31;938.4;935.63;932.91;930.16;927.35;924.47;921.49;918.45;915.37;912.24;909.12;906.01;902.9;899.84;896.8;893.8;890.64;887.26;883.88;880.51;877.14;873.76;870.39;867.02;863.67;860.33;857.02;853.73;850.47;847.23;844.0;840.81;837.63;834.45;831.28;828.1;824.92;821.71;818.48;815.19;811.84;808.43;804.91;801.26;797.44;793.41;789.09;784.36;779.0;772.47;763.74;751.76;736.52;719.68;702.84;687.71;674.96;665.4;659.75;657.02;651.9;643.66;633.1;620.99;607.87;594.18;580.19;566.17;552.32;538.83;525.87;513.56;502.03;491.35;481.52;472.51;464.13;456.34;449.12;442.51;436.46;430.98;426.06;421.68;417.8;414.37;411.31;408.48;405.76;403.01;400.13;397.12;393.95;390.66;387.29;383.88;380.46;377.06;373.72;370.42;367.2;364.07;361.0;358.01;355.09;352.21;349.38;346.59;343.82;341.08;338.35;335.62;332.9;330.18;327.46;324.72;321.99;319.26;316.51;313.77;311.03;308.27;305.52;302.78;300.02;297.27;294.52;291.77;289.02;286.27;283.51;280.75;278.0;275.24;272.48;269.71;266.93;264.15;261.36;258.56;255.74;252.91;250.05;247.16;244.23;241.26;238.21;235.1;231.88;228.52;224.99;221.23;217.14;212.65;207.83;202.86;198.03;193.56;189.61;186.29;183.46;180.68;177.4;173.37;168.62;163.35;157.73;151.89;145.98;140.1;134.33;128.72;123.34;118.21;113.39;108.95;104.9;101.25;97.96;94.97;92.15;89.42;86.65;83.6;80.48;77.28;74.04;70.81;67.59;64.4;61.28;58.21;55.2;52.26;49.37;46.53;43.73;40.95;38.21;35.46;32.74;30.02;27.29;24.56;21.84;19.11;16.38;13.66;10.92;8.19;5.46;2.73;0.0" dur="8s" repeatCount="indefinite" calcMode="linear"/>
      </path>

      <g>
        <circle r="9" fill="none" stroke="#ffe566" stroke-width="1.5">
          <animate attributeName="cx" values="60.0;62.72;65.45;68.17;70.89;73.62;76.34;79.06;81.79;84.51;87.23;89.96;92.68;95.4;98.12;100.85;103.57;106.29;109.02;111.74;114.46;117.19;119.91;122.63;125.36;128.08;130.8;133.53;136.25;138.97;141.7;144.42;147.14;149.87;152.59;155.31;158.04;160.76;163.48;166.21;168.93;171.65;174.38;177.1;179.82;182.54;185.27;187.99;190.71;193.44;196.16;198.88;201.61;204.33;207.05;209.78;212.5;215.22;217.95;220.67;223.39;226.12;228.84;231.56;234.29;237.01;239.73;242.46;245.18;247.9;250.62;253.35;256.07;258.79;261.52;264.24;266.96;269.69;272.41;275.13;277.86;280.58;283.3;286.03;288.75;291.47;294.2;296.92;299.64;302.37;305.09;307.81;310.54;313.26;315.98;318.71;321.43;324.15;326.88;329.6;332.32;335.04;337.77;340.49;343.21;345.94;348.66;351.38;354.11;356.83;359.55;362.28;365.0;367.72;370.45;373.17;375.89;378.62;381.34;384.06;386.79;389.51;392.23;394.96;397.68;400.4;403.12;405.85;408.57;411.29;414.02;416.74;419.46;422.19;424.91;427.63;430.36;433.08;435.8;438.53;441.25;443.97;446.7;449.42;452.14;454.87;457.59;460.31;463.04;465.76;468.48;471.21;473.93;476.65;479.37;482.1;484.82;487.54;490.27;492.99;495.71;498.44;501.16;503.88;506.61;509.33;512.05;514.78;517.5;520.22;522.95;525.67;528.39;531.12;533.84;536.56;539.29;542.01;544.73;547.46;550.18;552.9;555.62;558.35;561.07;563.79;566.52;569.24;571.96;574.69;577.41;580.13;582.86;585.58;588.3;591.03;593.75;596.47;599.2;601.92;604.64;607.37;610.09;612.81;615.54;618.26;620.98;623.71;626.43;629.15;631.87;634.6;637.32;640.04;642.77;645.49;648.21;650.94;653.66;656.38;659.11;661.83;664.55;667.28;670.0" dur="8s" repeatCount="indefinite" calcMode="linear"/>
          <animate attributeName="cy" values="159.85;158.33;156.45;154.14;151.51;148.68;145.77;142.9;140.2;137.8;135.8;134.28;133.25;132.72;132.64;132.97;133.65;134.61;135.8;137.15;138.61;140.13;141.66;143.18;144.66;146.07;147.41;148.66;150.27;152.28;154.27;156.26;158.25;160.24;162.24;164.22;166.17;168.1;169.99;171.83;173.62;175.38;177.1;178.77;180.42;182.06;183.68;185.32;186.98;188.67;190.41;192.25;194.19;196.25;198.49;200.91;203.59;206.57;209.92;213.79;218.4;224.34;232.63;244.3;259.29;275.91;292.53;307.41;319.87;329.03;333.98;334.17;329.83;322.06;311.86;300.05;287.22;273.8;260.08;246.33;232.75;219.54;206.87;194.86;183.66;173.33;163.89;155.3;147.37;140.07;133.39;127.36;121.96;117.21;113.11;109.68;106.92;104.83;103.43;102.68;102.54;102.96;103.87;105.17;106.79;108.63;110.62;112.67;114.74;116.77;118.72;120.57;122.28;123.84;125.24;126.48;127.55;128.47;129.23;129.85;130.32;130.66;130.88;131.01;131.05;131.01;130.89;130.7;130.46;130.18;129.87;129.53;129.18;128.81;128.42;128.04;127.65;127.27;126.88;126.49;126.09;125.69;125.28;124.86;124.44;123.99;123.52;123.03;122.5;121.93;121.31;120.66;119.94;119.16;118.28;117.31;116.23;115.03;113.68;112.16;110.45;108.49;106.24;103.64;100.6;97.03;93.04;88.89;84.9;81.35;78.5;76.59;75.83;76.37;78.2;81.18;85.06;89.58;94.5;99.66;104.9;110.12;115.21;120.11;124.75;129.1;133.07;136.58;139.58;142.0;143.85;145.11;145.81;145.98;145.43;144.08;142.54;140.86;139.12;137.37;135.66;134.01;132.48;131.06;129.79;128.67;127.7;126.89;126.22;125.69;125.3;125.02;124.85;124.77;124.77;124.84;124.95;125.1;125.28;125.48;125.69;125.89;126.09;126.28;126.46" dur="8s" repeatCount="indefinite" calcMode="linear"/>
          <animate attributeName="r" values="9;24;9" dur="2s" repeatCount="indefinite"/>
          <animate attributeName="opacity" values="0.8;0;0.8" dur="2s" repeatCount="indefinite"/>
        </circle>
        <circle r="5.5" fill="#ffe566">
          <animate attributeName="cx" values="60.0;62.72;65.45;68.17;70.89;73.62;76.34;79.06;81.79;84.51;87.23;89.96;92.68;95.4;98.12;100.85;103.57;106.29;109.02;111.74;114.46;117.19;119.91;122.63;125.36;128.08;130.8;133.53;136.25;138.97;141.7;144.42;147.14;149.87;152.59;155.31;158.04;160.76;163.48;166.21;168.93;171.65;174.38;177.1;179.82;182.54;185.27;187.99;190.71;193.44;196.16;198.88;201.61;204.33;207.05;209.78;212.5;215.22;217.95;220.67;223.39;226.12;228.84;231.56;234.29;237.01;239.73;242.46;245.18;247.9;250.62;253.35;256.07;258.79;261.52;264.24;266.96;269.69;272.41;275.13;277.86;280.58;283.3;286.03;288.75;291.47;294.2;296.92;299.64;302.37;305.09;307.81;310.54;313.26;315.98;318.71;321.43;324.15;326.88;329.6;332.32;335.04;337.77;340.49;343.21;345.94;348.66;351.38;354.11;356.83;359.55;362.28;365.0;367.72;370.45;373.17;375.89;378.62;381.34;384.06;386.79;389.51;392.23;394.96;397.68;400.4;403.12;405.85;408.57;411.29;414.02;416.74;419.46;422.19;424.91;427.63;430.36;433.08;435.8;438.53;441.25;443.97;446.7;449.42;452.14;454.87;457.59;460.31;463.04;465.76;468.48;471.21;473.93;476.65;479.37;482.1;484.82;487.54;490.27;492.99;495.71;498.44;501.16;503.88;506.61;509.33;512.05;514.78;517.5;520.22;522.95;525.67;528.39;531.12;533.84;536.56;539.29;542.01;544.73;547.46;550.18;552.9;555.62;558.35;561.07;563.79;566.52;569.24;571.96;574.69;577.41;580.13;582.86;585.58;588.3;591.03;593.75;596.47;599.2;601.92;604.64;607.37;610.09;612.81;615.54;618.26;620.98;623.71;626.43;629.15;631.87;634.6;637.32;640.04;642.77;645.49;648.21;650.94;653.66;656.38;659.11;661.83;664.55;667.28;670.0" dur="8s" repeatCount="indefinite" calcMode="linear"/>
          <animate attributeName="cy" values="159.85;158.33;156.45;154.14;151.51;148.68;145.77;142.9;140.2;137.8;135.8;134.28;133.25;132.72;132.64;132.97;133.65;134.61;135.8;137.15;138.61;140.13;141.66;143.18;144.66;146.07;147.41;148.66;150.27;152.28;154.27;156.26;158.25;160.24;162.24;164.22;166.17;168.1;169.99;171.83;173.62;175.38;177.1;178.77;180.42;182.06;183.68;185.32;186.98;188.67;190.41;192.25;194.19;196.25;198.49;200.91;203.59;206.57;209.92;213.79;218.4;224.34;232.63;244.3;259.29;275.91;292.53;307.41;319.87;329.03;333.98;334.17;329.83;322.06;311.86;300.05;287.22;273.8;260.08;246.33;232.75;219.54;206.87;194.86;183.66;173.33;163.89;155.3;147.37;140.07;133.39;127.36;121.96;117.21;113.11;109.68;106.92;104.83;103.43;102.68;102.54;102.96;103.87;105.17;106.79;108.63;110.62;112.67;114.74;116.77;118.72;120.57;122.28;123.84;125.24;126.48;127.55;128.47;129.23;129.85;130.32;130.66;130.88;131.01;131.05;131.01;130.89;130.7;130.46;130.18;129.87;129.53;129.18;128.81;128.42;128.04;127.65;127.27;126.88;126.49;126.09;125.69;125.28;124.86;124.44;123.99;123.52;123.03;122.5;121.93;121.31;120.66;119.94;119.16;118.28;117.31;116.23;115.03;113.68;112.16;110.45;108.49;106.24;103.64;100.6;97.03;93.04;88.89;84.9;81.35;78.5;76.59;75.83;76.37;78.2;81.18;85.06;89.58;94.5;99.66;104.9;110.12;115.21;120.11;124.75;129.1;133.07;136.58;139.58;142.0;143.85;145.11;145.81;145.98;145.43;144.08;142.54;140.86;139.12;137.37;135.66;134.01;132.48;131.06;129.79;128.67;127.7;126.89;126.22;125.69;125.3;125.02;124.85;124.77;124.77;124.84;124.95;125.1;125.28;125.48;125.69;125.89;126.09;126.28;126.46" dur="8s" repeatCount="indefinite" calcMode="linear"/>
        </circle>
        <circle r="2" fill="white">
          <animate attributeName="cx" values="60.0;62.72;65.45;68.17;70.89;73.62;76.34;79.06;81.79;84.51;87.23;89.96;92.68;95.4;98.12;100.85;103.57;106.29;109.02;111.74;114.46;117.19;119.91;122.63;125.36;128.08;130.8;133.53;136.25;138.97;141.7;144.42;147.14;149.87;152.59;155.31;158.04;160.76;163.48;166.21;168.93;171.65;174.38;177.1;179.82;182.54;185.27;187.99;190.71;193.44;196.16;198.88;201.61;204.33;207.05;209.78;212.5;215.22;217.95;220.67;223.39;226.12;228.84;231.56;234.29;237.01;239.73;242.46;245.18;247.9;250.62;253.35;256.07;258.79;261.52;264.24;266.96;269.69;272.41;275.13;277.86;280.58;283.3;286.03;288.75;291.47;294.2;296.92;299.64;302.37;305.09;307.81;310.54;313.26;315.98;318.71;321.43;324.15;326.88;329.6;332.32;335.04;337.77;340.49;343.21;345.94;348.66;351.38;354.11;356.83;359.55;362.28;365.0;367.72;370.45;373.17;375.89;378.62;381.34;384.06;386.79;389.51;392.23;394.96;397.68;400.4;403.12;405.85;408.57;411.29;414.02;416.74;419.46;422.19;424.91;427.63;430.36;433.08;435.8;438.53;441.25;443.97;446.7;449.42;452.14;454.87;457.59;460.31;463.04;465.76;468.48;471.21;473.93;476.65;479.37;482.1;484.82;487.54;490.27;492.99;495.71;498.44;501.16;503.88;506.61;509.33;512.05;514.78;517.5;520.22;522.95;525.67;528.39;531.12;533.84;536.56;539.29;542.01;544.73;547.46;550.18;552.9;555.62;558.35;561.07;563.79;566.52;569.24;571.96;574.69;577.41;580.13;582.86;585.58;588.3;591.03;593.75;596.47;599.2;601.92;604.64;607.37;610.09;612.81;615.54;618.26;620.98;623.71;626.43;629.15;631.87;634.6;637.32;640.04;642.77;645.49;648.21;650.94;653.66;656.38;659.11;661.83;664.55;667.28;670.0" dur="8s" repeatCount="indefinite" calcMode="linear"/>
          <animate attributeName="cy" values="159.85;158.33;156.45;154.14;151.51;148.68;145.77;142.9;140.2;137.8;135.8;134.28;133.25;132.72;132.64;132.97;133.65;134.61;135.8;137.15;138.61;140.13;141.66;143.18;144.66;146.07;147.41;148.66;150.27;152.28;154.27;156.26;158.25;160.24;162.24;164.22;166.17;168.1;169.99;171.83;173.62;175.38;177.1;178.77;180.42;182.06;183.68;185.32;186.98;188.67;190.41;192.25;194.19;196.25;198.49;200.91;203.59;206.57;209.92;213.79;218.4;224.34;232.63;244.3;259.29;275.91;292.53;307.41;319.87;329.03;333.98;334.17;329.83;322.06;311.86;300.05;287.22;273.8;260.08;246.33;232.75;219.54;206.87;194.86;183.66;173.33;163.89;155.3;147.37;140.07;133.39;127.36;121.96;117.21;113.11;109.68;106.92;104.83;103.43;102.68;102.54;102.96;103.87;105.17;106.79;108.63;110.62;112.67;114.74;116.77;118.72;120.57;122.28;123.84;125.24;126.48;127.55;128.47;129.23;129.85;130.32;130.66;130.88;131.01;131.05;131.01;130.89;130.7;130.46;130.18;129.87;129.53;129.18;128.81;128.42;128.04;127.65;127.27;126.88;126.49;126.09;125.69;125.28;124.86;124.44;123.99;123.52;123.03;122.5;121.93;121.31;120.66;119.94;119.16;118.28;117.31;116.23;115.03;113.68;112.16;110.45;108.49;106.24;103.64;100.6;97.03;93.04;88.89;84.9;81.35;78.5;76.59;75.83;76.37;78.2;81.18;85.06;89.58;94.5;99.66;104.9;110.12;115.21;120.11;124.75;129.1;133.07;136.58;139.58;142.0;143.85;145.11;145.81;145.98;145.43;144.08;142.54;140.86;139.12;137.37;135.66;134.01;132.48;131.06;129.79;128.67;127.7;126.89;126.22;125.69;125.3;125.02;124.85;124.77;124.77;124.84;124.95;125.1;125.28;125.48;125.69;125.89;126.09;126.28;126.46" dur="8s" repeatCount="indefinite" calcMode="linear"/>
        </circle>
      </g>

      <g class="legend" transform="translate(195.0, 20)">
        <rect x="0" y="-14" width="310" height="28" rx="14" fill="rgba(20, 15, 35, 0.8)" stroke="rgba(0, 229, 204, 0.4)" stroke-width="1"/>
        <line x1="20" y1="0" x2="45" y2="0" stroke="rgba(255,255,255,0.4)" stroke-width="2" stroke-dasharray="4 3"/>
        <text x="55" y="4" font-size="11" font-weight="600" fill="rgba(255,255,255,0.7)" font-family="system-ui, sans-serif">Perfect Trajectory</text>
        <line x1="175" y1="-6" x2="175" y2="6" stroke="rgba(255,255,255,0.2)" stroke-width="1"/>
        <line x1="190" y1="0" x2="215" y2="0" stroke="url(#trail-grad-e)" stroke-width="3" stroke-linecap="round"/>
        <text x="225" y="4" font-size="11" font-weight="bold" fill="#ff00cc" font-family="system-ui, sans-serif">Error</text>
      </g>
    </svg>