<svg xmlns="http://www.w3.org/2000/svg" viewBox="0 0 700 600" width="100%" class="trajectory-svg">
      <defs>
        <linearGradient id="trail-grad-t" x1="96.7" y1="0" x2="533.3" y2="0" gradientUnits="userSpaceOnUse">
          <stop offset="0%" stop-color="#aa00ff"/><stop offset="100%" stop-color="#ff00cc"/>
        </linearGradient>
      </defs>

      <rect width="700" height="600" fill="#0d0a1a"/>
      <g class="grid"><line x1="60" y1="60" x2="60" y2="540" stroke="rgba(0,229,204,1)" stroke-width="0.5" opacity="0.06"/>
<line x1="156" y1="60" x2="156" y2="540" stroke="rgba(0,229,204,1)" stroke-width="0.5" opacity="0.06"/>
<line x1="253" y1="60" x2="253" y2="540" stroke="rgba(0,229,204,1)" stroke-width="0.5" opacity="0.06"/>
<line x1="350" y1="60" x2="350" y2="540" stroke="rgba(0,229,204,1)" stroke-width="0.5" opacity="0.06"/>
<line x1="446" y1="60" x2="446" y2="540" stroke="rgba(0,229,204,1)" stroke-width="0.5" opacity="0.06"/>
<line x1="543" y1="60" x2="543" y2="540" stroke="rgba(0,229,204,1)" stroke-width="0.5" opacity="0.06"/>
<line x1="640" y1="60" x2="640" y2="540" stroke="rgba(0,229,204,1)" stroke-width="0.5" opacity="0.06"/>
<line x1="60" y1="60" x2="640" y2="60" stroke="rgba(0,229,204,1)" stroke-width="0.5" opacity="0.18"/>
<line x1="60" y1="140" x2="640" y2="140" stroke="rgba(0,229,204,1)" stroke-width="0.5" opacity="0.18"/>
<line x1="60" y1="220" x2="640" y2="220" stroke="rgba(0,229,204,1)" stroke-width="0.5" opacity="0.18"/>
<line x1="60" y1="300" x2="640" y2="300" stroke="rgba(0,229,204,1)" stroke-width="0.5" opacity="0.18"/>
<line x1="60" y1="380" x2="640" y2="380" stroke="rgba(0,229,204,1)" stroke-width="0.5" opacity="0.18"/>
<line x1="60" y1="460" x2="640" y2="460" stroke="rgba(0,229,204,1)" stroke-width="0.5" opacity="0.18"/>
<line x1="60" y1="540" x2="640" y2="540" stroke="rgba(0,229,204,1)" stroke-width="0.5" opacity="0.18"/>
</g>
      <rect x="60" y="60" width="580" height="480" fill="none" stroke="rgba(0,229,204,0.15)" stroke-width="0.75" rx="4"/>

      <path d="M 525.02,493.83 L 525.02,491.52 L 525.02,489.21 L 525.02,486.9 L 525.02,484.58 L 525.02,482.27 L 525.02,479.96 L 525.02,477.65 L 525.02,475.34 L 525.02,473.02 L 525.02,470.71 L 525.02,468.4 L 525.02,466.09 L 525.02,463.78 L 525.02,461.47 L 525.02,459.15 L 525.02,456.84 L 525.02,454.53 L 525.02,452.22 L 525.02,449.91 L 525.02,447.59 L 525.02,445.28 L 525.02,442.97 L 525.02,440.66 L 525.02,438.35 L 525.02,436.03 L 525.02,433.72 L 525.02,431.41 L 525.02,429.1 L 525.02,426.79 L 525.02,424.48 L 525.02,422.16 L 525.02,419.85 L 525.02,417.54 L 525.02,415.23 L 525.02,412.92 L 525.02,410.6 L 525.02,408.29 L 525.02,405.98 L 525.02,403.67 L 525.02,401.36 L 525.02,399.04 L 525.02,396.73 L 525.02,394.42 L 525.02,392.11 L 525.02,389.8 L 525.02,387.49 L 525.02,385.17 L 525.02,382.86 L 525.02,380.55 L 525.02,378.24 L 525.02,375.93 L 525.02,373.61 L 525.02,371.3 L 525.02,368.99 L 525.02,366.68 L 525.02,364.37 L 525.02,362.06 L 525.02,359.74 L 525.02,357.43 L 525.02,355.12 L 525.02,352.81 L 525.02,350.5 L 525.02,348.18 L 525.02,345.87 L 525.02,343.56 L 525.02,341.25 L 525.02,338.94 L 525.02,336.62 L 525.02,334.31 L 525.02,332.0 L 525.02,329.69 L 525.02,327.38 L 525.02,325.07 L 525.02,322.75 L 525.02,320.44 L 525.02,318.13 L 525.02,315.82 L 525.02,313.51 L 525.02,311.19 L 525.02,308.88 L 525.02,306.57 L 525.02,304.26 L 525.02,301.95 L 525.02,299.63 L 525.02,297.32 L 524.99,295.01 L 524.94,292.7 L 524.87,290.39 L 524.77,288.08 L 524.65,285.77 L 524.5,283.46 L 524.32,281.16 L 524.13,278.86 L 523.9,276.55 L 523.66,274.26 L 523.38,271.96 L 523.09,269.67 L 522.76,267.38 L 522.42,265.09 L 522.05,262.81 L 521.65,260.53 L 521.23,258.26 L 520.79,255.99 L 520.32,253.73 L 519.83,251.47 L 519.31,249.21 L 518.77,246.97 L 518.21,244.72 L 517.62,242.49 L 517.0,240.26 L 516.37,238.04 L 515.71,235.82 L 515.02,233.61 L 514.31,231.41 L 513.58,229.22 L 512.83,227.03 L 512.05,224.86 L 511.25,222.69 L 510.42,220.53 L 509.57,218.38 L 508.7,216.24 L 507.81,214.11 L 506.89,211.98 L 505.95,209.87 L 504.99,207.77 L 504.0,205.68 L 502.99,203.6 L 501.96,201.53 L 500.91,199.47 L 499.84,197.42 L 498.74,195.39 L 497.63,193.36 L 496.49,191.35 L 495.33,189.35 L 494.14,187.36 L 492.94,185.39 L 491.72,183.43 L 490.47,181.48 L 489.2,179.55 L 487.92,177.63 L 486.61,175.72 L 485.28,173.83 L 483.93,171.95 L 482.56,170.09 L 481.18,168.24 L 479.77,166.4 L 478.34,164.59 L 476.89,162.78 L 475.43,161.0 L 473.94,159.22 L 472.44,157.47 L 470.91,155.73 L 469.37,154.01 L 467.81,152.3 L 466.23,150.61 L 464.64,148.94 L 463.02,147.28 L 461.39,145.65 L 459.74,144.03 L 458.08,142.43 L 456.39,140.84 L 454.69,139.27 L 452.97,137.73 L 451.24,136.2 L 449.49,134.69 L 447.72,133.2 L 445.94,131.72 L 444.14,130.27 L 442.33,128.84 L 440.5,127.42 L 438.66,126.03 L 436.8,124.65 L 434.92,123.3 L 433.04,121.96 L 431.13,120.65 L 429.22,119.36 L 427.29,118.08 L 425.35,116.83 L 423.39,115.6 L 421.42,114.39 L 419.44,113.2 L 417.44,112.03 L 415.43,110.89 L 413.41,109.76 L 411.38,108.66 L 409.34,107.58 L 407.28,106.52 L 405.22,105.48 L 403.14,104.47 L 401.05,103.47 L 398.95,102.5 L 396.84,101.56 L 394.72,100.63 L 392.6,99.73 L 390.46,98.85 L 388.31,98.0 L 386.15,97.16 L 383.99,96.35 L 381.81,95.57 L 379.63,94.81 L 377.44,94.07 L 375.24,93.35 L 373.04,92.66 L 370.82,91.99 L 368.6,91.35 L 366.38,90.72 L 364.14,90.13 L 361.9,89.56 L 359.66,89.01 L 357.41,88.48 L 355.15,87.98 L 352.89,87.51 L 350.62,87.05 L 348.35,86.63 L 346.07,86.22 L 343.79,85.84 L 341.51,85.49 L 339.22,85.16 L 336.93,84.86 L 334.63,84.58 L 332.33,84.32 L 330.03,84.09 L 327.73,83.88 L 325.43,83.7 L 323.12,83.54 L 320.81,83.41 L 318.5,83.31 L 316.19,83.22 L 313.88,83.17 L 311.57,83.13 L 309.26,83.12 L 306.94,83.14 L 304.63,83.18 L 302.32,83.25 L 300.01,83.34 L 297.7,83.46 L 295.4,83.6 L 293.09,83.76 L 290.79,83.95 L 288.48,84.17 L 286.18,84.41 L 283.89,84.67 L 281.59,84.96 L 279.3,85.28 L 277.02,85.61 L 274.73,85.98 L 272.45,86.36 L 270.18,86.78 L 267.91,87.21 L 265.64,87.67 L 263.38,88.16 L 261.13,88.67 L 258.88,89.2 L 256.63,89.76 L 254.4,90.34 L 252.17,90.94 L 249.94,91.57 L 247.72,92.23 L 245.51,92.9 L 243.31,93.6 L 241.11,94.33 L 238.93,95.07 L 236.75,95.85 L 234.58,96.64 L 232.41,97.46 L 230.26,98.3 L 228.12,99.16 L 225.98,100.05 L 223.86,100.96 L 221.74,101.89 L 219.63,102.85 L 217.54,103.82 L 215.46,104.82 L 213.38,105.85 L 211.32,106.89 L 209.27,107.96 L 207.23,109.05 L 205.2,110.16 L 203.19,111.29 L 201.18,112.44 L 199.19,113.62 L 197.21,114.82 L 195.25,116.03 L 193.3,117.27 L 191.36,118.53 L 189.43,119.81 L 187.52,121.11 L 185.63,122.44 L 183.74,123.78 L 181.87,125.14 L 180.02,126.52 L 178.18,127.92 L 176.36,129.34 L 174.55,130.78 L 172.76,132.24 L 170.98,133.72 L 169.22,135.22 L 167.48,136.74 L 165.75,138.28 L 164.04,139.83 L 162.34,141.4 L 160.67,142.99 L 159.0,144.6 L 157.36,146.23 L 155.74,147.87 L 154.13,149.53 L 152.54,151.21 L 150.97,152.91 L 149.41,154.62 L 147.88,156.35 L 146.36,158.09 L 144.86,159.85 L 143.38,161.63 L 141.93,163.42 L 140.49,165.23 L 139.06,167.05 L 137.66,168.89 L 136.28,170.75 L 134.92,172.62 L 133.58,174.5 L 132.26,176.4 L 130.96,178.31 L 129.68,180.23 L 128.42,182.17 L 127.18,184.13 L 125.96,186.09 L 124.77,188.07 L 123.59,190.06 L 122.44,192.06 L 121.31,194.08 L 120.2,196.11 L 119.11,198.15 L 118.05,200.2 L 117.0,202.26 L 115.98,204.34 L 114.98,206.42 L 114.0,208.52 L 113.05,210.62 L 112.12,212.74 L 111.21,214.86 L 110.32,217.0 L 109.46,219.14 L 108.62,221.3 L 107.8,223.46 L 107.01,225.63 L 106.24,227.81 L 105.49,230.0 L 104.77,232.19 L 104.07,234.4 L 103.39,236.61 L 102.74,238.83 L 102.11,241.05 L 101.51,243.28 L 100.93,245.52 L 100.37,247.76 L 99.84,250.01 L 99.33,252.27 L 98.84,254.53 L 98.39,256.8 L 97.95,259.07 L 97.54,261.34 L 97.15,263.62 L 96.79,265.9 L 96.45,268.19 L 96.14,270.48 L 95.85,272.78 L 95.59,275.07 L 95.35,277.37 L 95.14,279.67 L 94.95,281.98 L 94.78,284.28 L 94.64,286.59 L 94.53,288.9 L 94.44,291.21 L 94.37,293.52 L 94.33,295.83 L 94.31,298.14 L 94.32,300.46 L 94.36,302.77 L 94.41,305.08 L 94.5,307.39 L 94.61,309.7 L 94.74,312.01 L 94.9,314.31 L 95.08,316.62 L 95.28,318.92 L 95.52,321.22 L 95.77,323.52 L 96.05,325.81 L 96.36,328.1 L 96.69,330.39 L 97.05,332.68 L 97.42,334.96 L 97.83,337.23 L 98.26,339.51 L 98.71,341.77 L 99.19,344.04 L 99.69,346.29 L 100.21,348.54 L 100.76,350.79 L 101.34,353.03 L 101.93,355.26 L 102.56,357.49 L 103.2,359.71 L 103.87,361.92 L 104.56,364.13 L 105.28,366.33 L 106.02,368.52 L 106.78,370.7 L 107.57,372.87 L 108.38,375.04 L 109.21,377.19 L 110.07,379.34 L 110.95,381.48 L 111.85,383.61 L 112.78,385.73 L 113.73,387.83 L 114.7,389.93 L 115.69,392.02 L 116.7,394.1 L 117.74,396.16 L 118.8,398.22 L 119.88,400.26 L 120.99,402.29 L 122.11,404.31 L 123.26,406.32 L 124.43,408.31 L 125.62,410.3 L 126.83,412.27 L 128.06,414.22 L 129.31,416.16 L 130.59,418.09 L 131.88,420.01 L 133.2,421.91 L 134.53,423.8 L 135.89,425.67 L 137.26,427.53 L 138.66,429.37 L 140.07,431.2 L 141.51,433.01 L 142.96,434.81 L 144.43,436.59 L 145.93,438.36 L 147.44,440.11 L 148.97,441.84 L 150.51,443.56 L 152.08,445.26 L 153.67,446.94 L 155.27,448.61 L 156.89,450.26 L 158.53,451.89 L 160.18,453.5 L 161.86,455.1 L 163.55,456.68 L 165.25,458.23 L 166.98,459.78 L 168.72,461.3 L 170.47,462.8 L 172.24,464.29 L 174.03,465.75 L 175.83,467.2 L 177.65,468.63 L 179.49,470.03 L 181.34,471.42 L 183.2,472.79 L 185.08,474.14 L 186.97,475.46 L 188.88,476.77 L 190.8,478.06 L 192.73,479.32 L 194.68,480.57 L 196.64,481.79 L 198.62,482.99 L 200.61,484.18 L 202.61,485.34 L 204.62,486.47 L 206.64,487.59 L 208.68,488.69 L 210.73,489.76 L 212.78,490.81 L 214.85,491.84 L 216.94,492.85 L 219.03,493.83 L 221.13,494.79 L 223.24,495.73 L 225.37,496.65 L 227.5,497.54 L 229.64,498.41 L 231.79,499.26 L 233.95,500.08 L 236.12,500.88 L 238.3,501.66 L 240.48,502.42 L 242.67,503.15 L 244.88,503.86 L 247.08,504.54 L 249.3,505.2 L 251.52,505.84 L 253.75,506.45 L 255.99,507.04 L 258.23,507.6 L 260.48,508.14 L 262.73,508.66 L 264.99,509.15 L 267.25,509.62 L 269.52,510.06 L 271.8,510.48 L 274.07,510.87 L 276.36,511.24 L 278.64,511.59 L 280.93,511.91 L 283.22,512.2 L 285.52,512.48 L 287.82,512.72 L 290.12,512.94 L 292.42,513.14 L 294.73,513.34 L 297.03,513.54 L 299.33,513.73 L 301.64,513.93 L 303.94,514.13 L 306.24,514.33 L 308.55,514.52 L 310.85,514.72 L 313.15,514.92 L 315.46,515.12 L 317.76,515.31 L 320.06,515.51 L 322.37,515.71 L 324.67,515.91 L 326.97,516.1 L 329.28,516.3 L 331.58,516.5 L 333.88,516.7 L 336.19,516.89 L 338.49,517.09 L 340.79,517.29 L 343.1,517.49 L 345.4,517.68 L 347.71,517.88 L 350.01,518.08 L 352.31,518.28 L 354.62,518.47 L 356.92,518.67 L 359.22,518.87 L 361.53,519.07 L 363.83,519.26 L 366.13,519.46 L 368.44,519.66 L 370.74,519.86 L 373.04,520.05 L 375.35,520.25 L 377.65,520.45 L 379.95,520.65 L 382.26,520.84 L 384.56,521.04 L 386.86,521.24 L 389.17,521.44 L 391.47,521.63 L 393.77,521.83 L 396.08,522.03 L 398.38,522.23 L 400.68,522.42 L 402.99,522.62 L 405.29,522.82 L 407.59,523.02 L 409.9,523.21 L 412.2,523.41 L 414.5,523.61 L 416.81,523.81 L 419.11,524.0 L 421.41,524.2 L 423.72,524.4 L 426.02,524.6 L 428.32,524.79 L 430.63,524.99 L 432.93,525.19 L 435.23,525.39 L 437.54,525.58 L 439.84,525.78 L 442.14,525.98 L 444.45,526.18 L 446.75,526.37 L 449.06,526.57 L 451.36,526.77 L 453.66,526.97 L 455.97,527.16 L 458.27,527.36 L 460.57,527.56 L 462.88,527.76 L 465.18,527.95 L 467.48,528.15 L 469.79,528.35 L 472.09,528.55 L 474.39,528.74 L 476.7,528.94 L 479.0,529.14 L 481.3,529.34 L 483.61,529.53 L 485.91,529.73 L 488.21,529.93 L 490.52,530.13 L 492.82,530.32 L 495.12,530.52 L 497.43,530.72 L 499.73,530.92 L 502.03,531.11 L 504.34,531.31 L 506.64,531.51 L 508.94,531.71 L 511.25,531.9 L 513.55,532.1 L 515.85,532.3 L 518.16,532.5 L 520.46,532.69 L 522.76,532.89 L 525.07,533.09 L 527.37,533.29 L 529.67,533.48 L 531.98,533.68 L 534.28,533.88 L 536.58,534.08 L 538.89,534.27 L 541.19,534.47 L 543.5,534.67 L 545.8,534.87 L 548.1,535.06 L 550.41,535.26 L 552.71,535.46 L 555.01,535.66 L 557.32,535.85 L 559.62,536.05 L 561.92,536.25 L 564.23,536.45 L 566.53,536.64 L 568.83,536.84 L 571.14,537.04 L 573.44,537.24 L 575.74,537.43 L 578.05,537.63 L 580.35,537.83 L 582.65,538.03 L 584.96,538.22 L 587.26,538.42 L 589.56,538.62 L 591.87,538.82 L 594.17,539.01 L 596.47,539.21 L 598.78,539.41 L 601.08,539.61 L 603.38,539.8 L 605.69,540.0" fill="none" stroke="rgba(255,255,255,0.38)" stroke-width="1.3" stroke-dasharray="8 5"/>

      <path d="M 533.34,502.15 L 532.96,495.6 L 532.48,489.08 L 531.89,482.57 L 531.22,476.06 L 530.51,469.57 L 529.77,463.07 L 529.04,456.58 L 528.35,450.08 L 527.74,443.57 L 527.24,437.06 L 526.85,430.55 L 526.59,424.02 L 526.45,417.5 L 526.43,410.97 L 526.52,404.44 L 526.69,397.91 L 526.93,391.38 L 527.23,384.85 L 527.58,378.33 L 527.95,371.8 L 528.33,365.28 L 528.72,358.76 L 529.11,352.24 L 529.48,345.71 L 529.84,339.19 L 530.18,332.67 L 530.5,326.14 L 530.9,319.62 L 531.35,313.09 L 531.71,306.56 L 531.98,300.02 L 532.13,293.47 L 532.15,286.92 L 532.02,280.37 L 531.74,273.82 L 531.29,267.27 L 530.67,260.74 L 529.86,254.23 L 528.87,247.75 L 527.69,241.29 L 526.33,234.87 L 524.78,228.49 L 523.04,222.16 L 521.11,215.89 L 519.01,209.67 L 516.73,203.51 L 514.27,197.41 L 511.65,191.39 L 508.86,185.43 L 505.92,179.55 L 502.83,173.74 L 499.6,168.0 L 496.23,162.34 L 492.73,156.75 L 489.12,151.23 L 485.39,145.76 L 481.56,140.35 L 477.66,134.98 L 473.69,129.64 L 469.73,124.28 L 465.9,118.84 L 462.44,113.15 L 459.66,107.11 L 457.64,100.77 L 455.99,94.33 L 454.2,87.92 L 451.76,81.73 L 448.54,75.91 L 444.42,70.69 L 439.39,66.34 L 433.57,63.13 L 427.23,61.13 L 420.66,60.16 L 414.01,60.0 L 407.37,60.45 L 400.77,61.33 L 394.22,62.54 L 387.72,63.98 L 381.26,65.57 L 374.82,67.27 L 368.4,69.02 L 361.98,70.77 L 355.55,72.5 L 349.1,74.18 L 342.64,75.79 L 336.19,77.34 L 329.76,78.85 L 323.35,80.38 L 316.95,81.93 L 310.58,83.51 L 304.22,85.11 L 297.87,86.74 L 291.54,88.4 L 285.23,90.08 L 278.93,91.8 L 272.65,93.55 L 266.37,95.32 L 260.11,97.12 L 253.85,98.97 L 247.61,100.85 L 241.39,102.8 L 235.19,104.83 L 229.03,106.96 L 222.9,109.2 L 216.82,111.59 L 210.81,114.12 L 204.86,116.83 L 199.01,119.72 L 193.25,122.8 L 187.59,126.07 L 182.05,129.54 L 176.65,133.21 L 171.37,137.08 L 166.25,141.13 L 161.27,145.37 L 156.46,149.8 L 151.81,154.4 L 147.34,159.16 L 143.03,164.09 L 138.92,169.17 L 134.98,174.39 L 131.23,179.74 L 127.66,185.22 L 124.28,190.82 L 121.1,196.53 L 118.1,202.34 L 115.3,208.24 L 112.69,214.24 L 110.28,220.32 L 108.06,226.46 L 106.04,232.68 L 104.21,238.96 L 102.58,245.28 L 101.15,251.66 L 99.91,258.08 L 98.87,264.53 L 98.02,271.01 L 97.38,277.52 L 96.94,284.04 L 96.69,290.57 L 96.65,297.11 L 96.82,303.64 L 97.18,310.17 L 97.75,316.68 L 98.52,323.17 L 99.5,329.63 L 100.68,336.06 L 102.07,342.45 L 103.66,348.79 L 105.46,355.08 L 107.46,361.31 L 109.67,367.46 L 112.09,373.54 L 114.71,379.53 L 117.54,385.43 L 120.57,391.23 L 123.82,396.91 L 127.26,402.48 L 130.92,407.91 L 134.79,413.2 L 138.87,418.32 L 143.17,423.28 L 147.69,428.03 L 152.44,432.57 L 157.42,436.85 L 162.59,440.89 L 167.91,444.72 L 173.31,448.4 L 178.76,451.99 L 184.21,455.56 L 189.64,459.14 L 195.03,462.79 L 200.35,466.54 L 205.61,470.39 L 210.83,474.31 L 216.04,478.26 L 221.29,482.17 L 226.6,486.0 L 232.0,489.72 L 237.51,493.28 L 243.12,496.67 L 248.86,499.85 L 254.71,502.82 L 260.68,505.54 L 266.75,508.01 L 272.92,510.24 L 279.16,512.21 L 285.46,513.95 L 291.82,515.47 L 298.22,516.77 L 304.66,517.87 L 311.12,518.79 L 317.61,519.53 L 324.11,520.07 L 330.63,520.38 L 337.16,520.62 L 343.69,520.81 L 350.22,520.97 L 356.75,521.13 L 363.28,521.28 L 369.81,521.45 L 376.33,521.63 L 382.86,521.85 L 389.38,522.1 L 395.91,522.38 L 402.43,522.7 L 408.95,523.06 L 415.46,523.45 L 421.98,523.88 L 428.49,524.34 L 435.0,524.83 L 441.5,525.35 L 448.01,525.89 L 454.51,526.45 L 461.02,527.02 L 467.52,527.61 L 474.02,528.2 L 480.52,528.81 L 487.02,529.42 L 493.52,530.03 L 500.02,530.64 L 506.52,531.25 L 513.02,531.85 L 519.51,532.45" fill="none" stroke="url(#trail-grad-t)" stroke-width="2.5" stroke-linecap="round" stroke-linejoin="round"
            stroke-dasharray="1468.57" stroke-dashoffset="1468.57">
        <animate attributeName="stroke-dashoffset" values="1468.57;1462.01;1455.47;1448.94;1442.39;1435.86;1429.32;1422.79;1416.25;1409.72;1403.19;1396.67;1390.13;1383.61;1377.08;1370.55;1364.02;1357.48;1350.94;1344.42;1337.87;1331.34;1324.81;1318.28;1311.74;1305.21;1298.68;1292.14;1285.61;1279.07;1272.53;1265.98;1259.43;1252.88;1246.33;1239.77;1233.21;1226.65;1220.09;1213.53;1206.96;1200.4;1193.84;1187.27;1180.71;1174.15;1167.58;1161.0;1154.43;1147.85;1141.28;1134.7;1128.11;1121.53;1114.93;1108.33;1101.71;1095.09;1088.45;1081.79;1075.13;1068.48;1061.82;1055.17;1048.51;1041.87;1035.21;1028.56;1021.91;1015.26;1008.61;1001.96;995.31;988.67;982.02;975.36;968.71;962.04;955.39;948.73;942.07;935.42;928.77;922.11;915.44;908.78;902.15;895.55;888.95;882.37;875.81;869.25;862.69;856.15;849.62;843.09;836.57;830.04;823.53;817.0;810.49;803.97;797.44;790.93;784.4;777.87;771.35;764.81;758.28;751.75;745.21;738.68;732.15;725.6;719.07;712.53;705.99;699.45;692.92;686.37;679.84;673.3;666.77;660.23;653.69;647.15;640.61;634.08;627.54;621.0;614.47;607.93;601.39;594.86;588.32;581.78;575.25;568.71;562.17;555.64;549.1;542.56;536.03;529.49;522.96;516.42;509.89;503.35;496.81;490.27;483.73;477.19;470.65;464.11;457.57;451.03;444.48;437.94;431.39;424.85;418.29;411.74;405.18;398.62;392.05;385.49;378.92;372.37;365.83;359.31;352.79;346.29;339.78;333.27;326.75;320.22;313.69;307.14;300.59;294.04;287.48;280.92;274.36;267.8;261.24;254.68;248.12;241.58;235.04;228.5;221.97;215.44;208.92;202.38;195.86;189.33;182.8;176.27;169.73;163.2;156.67;150.14;143.62;137.08;130.56;124.02;117.49;110.96;104.44;97.91;91.38;84.85;78.33;71.8;65.28;58.74;52.21;45.69;39.16;32.63;26.1;19.57;13.05;6.52;0.0" dur="8s" repeatCount="indefinite" calcMode="linear"/>
      </path>

      <g>
        <circle r="9" fill="none" stroke="#ffe566" stroke-width="1.5">
          <animate attributeName="cx" values="533.34;532.96;532.48;531.89;531.22;530.51;529.77;529.04;528.35;527.74;527.24;526.85;526.59;526.45;526.43;526.52;526.69;526.93;527.23;527.58;527.95;528.33;528.72;529.11;529.48;529.84;530.18;530.5;530.9;531.35;531.71;531.98;532.13;532.15;532.02;531.74;531.29;530.67;529.86;528.87;527.69;526.33;524.78;523.04;521.11;519.01;516.73;514.27;511.65;508.86;505.92;502.83;499.6;496.23;492.73;489.12;485.39;481.56;477.66;473.69;469.73;465.9;462.44;459.66;457.64;455.99;454.2;451.76;448.54;444.42;439.39;433.57;427.23;420.66;414.01;407.37;400.77;394.22;387.72;381.26;374.82;368.4;361.98;355.55;349.1;342.64;336.19;329.76;323.35;316.95;310.58;304.22;297.87;291.54;285.23;278.93;272.65;266.37;260.11;253.85;247.61;241.39;235.19;229.03;222.9;216.82;210.81;204.86;199.01;193.25;187.59;182.05;176.65;171.37;166.25;161.27;156.46;151.81;147.34;143.03;138.92;134.98;131.23;127.66;124.28;121.1;118.1;115.3;112.69;110.28;108.06;106.04;104.21;102.58;101.15;99.91;98.87;98.02;97.38;96.94;96.69;96.65;96.82;97.18;97.75;98.52;99.5;100.68;102.07;103.66;105.46;107.46;109.67;112.09;114.71;117.54;120.57;123.82;127.26;130.92;134.79;138.87;143.17;147.69;152.44;157.42;162.59;167.91;173.31;178.76;184.21;189.64;195.03;200.35;205.61;210.83;216.04;221.29;226.6;232.0;237.51;243.12;248.86;254.71;260.68;266.75;272.92;279.16;285.46;291.82;298.22;304.66;311.12;317.61;324.11;330.63;337.16;343.69;350.22;356.75;363.28;369.81;376.33;382.86;389.38;395.91;402.43;408.95;415.46;421.98;428.49;435.0;441.5;448.01;454.51;461.02;467.52;474.02;480.52;487.02;493.52;500.02;506.52;513.02;519.51" dur="8s" repeatCount="indefinite" calcMode="linear"/>
          <animate attributeName="cy" values="502.15;495.6;489.08;482.57;476.06;469.57;463.07;456.58;450.08;443.57;437.06;430.55;424.02;417.5;410.97;404.44;397.91;391.38;384.85;378.33;371.8;365.28;358.76;352.24;345.71;339.19;332.67;326.14;319.62;313.09;306.56;300.02;293.47;286.92;280.37;273.82;267.27;260.74;254.23;247.75;241.29;234.87;228.49;222.16;215.89;209.67;203.51;197.41;191.39;185.43;179.55;173.74;168.0;162.34;156.75;151.23;145.76;140.35;134.98;129.64;124.28;118.84;113.15;107.11;100.77;94.33;87.92;81.73;75.91;70.69;66.34;63.13;61.13;60.16;60.0;60.45;61.33;62.54;63.98;65.57;67.27;69.02;70.77;72.5;74.18;75.79;77.34;78.85;80.38;81.93;83.51;85.11;86.74;88.4;90.08;91.8;93.55;95.32;97.12;98.97;100.85;102.8;104.83;106.96;109.2;111.59;114.12;116.83;119.72;122.8;126.07;129.54;133.21;137.08;141.13;145.37;149.8;154.4;159.16;164.09;169.17;174.39;179.74;185.22;190.82;196.53;202.34;208.24;214.24;220.32;226.46;232.68;238.96;245.28;251.66;258.08;264.53;271.01;277.52;284.04;290.57;297.11;303.64;310.17;316.68;323.17;329.63;336.06;342.45;348.79;355.08;361.31;367.46;373.54;379.53;385.43;391.23;396.91;402.48;407.91;413.2;418.32;423.28;428.03;432.57;436.85;440.89;444.72;448.4;451.99;455.56;459.14;462.79;466.54;470.39;474.31;478.26;482.17;486.0;489.72;493.28;496.67;499.85;502.82;505.54;508.01;510.24;512.21;513.95;515.47;516.77;517.87;518.79;519.53;520.07;520.38;520.62;520.81;520.97;521.13;521.28;521.45;521.63;521.85;522.1;522.38;522.7;523.06;523.45;523.88;524.34;524.83;525.35;525.89;526.45;527.02;527.61;528.2;528.81;529.42;530.03;530.64;531.25;531.85;532.45" dur="8s" repeatCount="indefinite" calcMode="linear"/>
          <animate attributeName="r" values="9;24;9" dur="2s" repeatCount="indefinite"/>
          <animate attributeName="opacity" values="0.8;0;0.8" dur="2s" repeatCount="indefinite"/>
        </circle>
        <circle r="5.5" fill="#ffe566">
          <animate attributeName="cx" values="533.34;532.96;532.48;531.89;531.22;530.51;529.77;529.04;528.35;527.74;527.24;526.85;526.59;526.45;526.43;526.52;526.69;526.93;527.23;527.58;527.95;528.33;528.72;529.11;529.48;529.84;530.18;530.5;530.9;531.35;531.71;531.98;532.13;532.15;532.02;531.74;531.29;530.67;529.86;528.87;527.69;526.33;524.78;523.04;521.11;519.01;516.73;514.27;511.65;508.86;505.92;502.83;499.6;496.23;492.73;489.12;485.39;481.56;477.66;473.69;469.73;465.9;462.44;459.66;457.64;455.99;454.2;451.76;448.54;444.42;439.39;433.57;427.23;420.66;414.01;407.37;400.77;394.22;387.72;381.26;374.82;368.4;361.98;355.55;349.1;342.64;336.19;329.76;323.35;316.95;310.58;304.22;297.87;291.54;285.23;278.93;272.65;266.37;260.11;253.85;247.61;241.39;235.19;229.03;222.9;216.82;210.81;204.86;199.01;193.25;187.59;182.05;176.65;171.37;166.25;161.27;156.46;151.81;147.34;143.03;138.92;134.98;131.23;127.66;124.28;121.1;118.1;115.3;112.69;110.28;108.06;106.04;104.21;102.58;101.15;99.91;98.87;98.02;97.38;96.94;96.69;96.65;96.82;97.18;97.75;98.52;99.5;100.68;102.07;103.66;105.46;107.46;109.67;112.09;114.71;117.54;120.57;123.82;127.26;130.92;134.79;138.87;143.17;147.69;152.44;157.42;162.59;167.91;173.31;178.76;184.21;189.64;195.03;200.35;205.61;210.83;216.04;221.29;226.6;232.0;237.51;243.12;248.86;254.71;260.68;266.75;272.92;279.16;285.46;291.82;298.22;304.66;311.12;317.61;324.11;330.63;337.16;343.69;350.22;356.75;363.28;369.81;376.33;382.86;389.38;395.91;402.43;408.95;415.46;421.98;428.49;435.0;441.5;448.01;454.51;461.02;467.52;474.02;480.52;487.02;493.52;500.02;506.52;513.02;519.51" dur="8s" repeatCount="indefinite" calcMode="linear"/>
          <animate attributeName="cy" values="502.15;495.6;489.08;482.57;476.06;469.57;463.07;456.58;450.08;443.57;437.06;430.55;424.02;417.5;410.97;404.44;397.91;391.38;384.85;378.33;371.8;365.28;358.76;352.24;345.71;339.19;332.67;326.14;319.62;313.09;306.56;300.02;293.47;286.92;280.37;273.82;267.27;260.74;254.23;247.75;241.29;234.87;228.49;222.16;215.89;209.67;203.51;197.41;191.39;185.43;179.55;173.74;168.0;162.34;156.75;151.23;145.76;140.35;134.98;129.64;124.28;118.84;113.15;107.11;100.77;94.33;87.92;81.73;75.91;70.69;66.34;63.13;61.13;60.16;60.0;60.45;61.33;62.54;63.98;65.57;67.27;69.02;70.77;72.5;74.18;75.79;77.34;78.85;80.38;81.93;83.51;85.11;86.74;88.4;90.08;91.8;93.55;95.32;97.12;98.97;100.85;102.8;104.83;106.96;109.2;111.59;114.12;116.83;119.72;122.8;126.07;129.54;133.21;137.08;141.13;145.37;149.8;154.4;159.16;164.09;169.17;174.39;179.74;185.22;190.82;196.53;202.34;208.24;214.24;220.32;226.46;232.68;238.96;245.28;251.66;258.08;264.53;271.01;277.52;284.04;290.57;297.11;303.64;310.17;316.68;323.17;329.63;336.06;342.45;348.79;355.08;361.31;367.46;373.54;379.53;385.43;391.23;396.91;402.48;407.91;413.2;418.32;423.28;428.03;432.57;436.85;440.89;444.72;448.4;451.99;455.56;459.14;462.79;466.54;470.39;474.31;478.26;482.17;486.0;489.72;493.28;496.67;499.85;502.82;505.54;508.01;510.24;512.21;513.95;515.47;516.77;517.87;518.79;519.53;520.07;520.38;520.62;520.81;520.97;521.13;521.28;521.45;521.63;521.85;522.1;522.38;522.7;523.06;523.45;523.88;524.34;524.83;525.35;525.89;526.45;527.02;527.61;528.2;528.81;529.42;530.03;530.64;531.25;531.85;532.45" dur="8s" repeatCount="indefinite" calcMode="linear"/>
        </circle>
        <circle r="2" fill="white">
          <animate attributeName="cx" values="533.34;532.96;532.48;531.89;531.22;530.51;529.77;529.04;528.35;527.74;527.24;526.85;526.59;526.45;526.43;526.52;526.69;526.93;527.23;527.58;527.95;528.33;528.72;529.11;529.48;529.84;530.18;530.5;530.9;531.35;531.71;531.98;532.13;532.15;532.02;531.74;531.29;530.67;529.86;528.87;527.69;526.33;524.78;523.04;521.11;519.01;516.73;514.27;511.65;508.86;505.92;502.83;499.6;496.23;492.73;489.12;485.39;481.56;477.66;473.69;469.73;465.9;462.44;459.66;457.64;455.99;454.2;451.76;448.54;444.42;439.39;433.57;427.23;420.66;414.01;407.37;400.77;394.22;387.72;381.26;374.82;368.4;361.98;355.55;349.1;342.64;336.19;329.76;323.35;316.95;310.58;304.22;297.87;291.54;285.23;278.93;272.65;266.37;260.11;253.85;247.61;241.39;235.19;229.03;222.9;216.82;210.81;204.86;199.01;193.25;187.59;182.05;176.65;171.37;166.25;161.27;156.46;151.81;147.34;143.03;138.92;134.98;131.23;127.66;124.28;121.1;118.1;115.3;112.69;110.28;108.06;106.04;104.21;102.58;101.15;99.91;98.87;98.02;97.38;96.94;96.69;96.65;96.82;97.18;97.75;98.52;99.5;100.68;102.07;103.66;105.46;107.46;109.67;112.09;114.71;117.54;120.57;123.82;127.26;130.92;134.79;138.87;143.17;147.69;152.44;157.42;162.59;167.91;173.31;178.76;184.21;189.64;195.03;200.35;205.61;210.83;216.04;221.29;226.6;232.0;237.51;243.12;248.86;254.71;260.68;266.75;272.92;279.16;285.46;291.82;298.22;304.66;311.12;317.61;324.11;330.63;337.16;343.69;350.22;356.75;363.28;369.81;376.33;382.86;389.38;395.91;402.43;408.95;415.46;421.98;428.49;435.0;441.5;448.01;454.51;461.02;467.52;474.02;480.52;487.02;493.52;500.02;506.52;513.02;519.51" dur="8s" repeatCount="indefinite" calcMode="linear"/>
          <animate attributeName="cy" values="502.15;495.6;489.08;482.57;476.06;469.57;463.07;456.58;450.08;443.57;437.06;430.55;424.02;417.5;410.97;404.44;397.91;391.38;384.85;378.33;371.8;365.28;358.76;352.24;345.71;339.19;332.67;326.14;319.62;313.09;306.56;300.02;293.47;286.92;280.37;273.82;267.27;260.74;254.23;247.75;241.29;234.87;228.49;222.16;215.89;209.67;203.51;197.41;191.39;185.43;179.55;173.74;168.0;162.34;156.75;151.23;145.76;140.35;134.98;129.64;124.28;118.84;113.15;107.11;100.77;94.33;87.92;81.73;75.91;70.69;66.34;63.13;61.13;60.16;60.0;60.45;61.33;62.54;63.98;65.57;67.27;69.02;70.77;72.5;74.18;75.79;77.34;78.85;80.38;81.93;83.51;85.11;86.74;88.4;90.08;91.8;93.55;95.32;97.12;98.97;100.85;102.8;104.83;106.96;109.2;111.59;114.12;116.83;119.72;122.8;126.07;129.54;133.21;137.08;141.13;145.37;149.8;154.4;159.16;164.09;169.17;174.39;179.74;185.22;190.82;196.53;202.34;208.24;214.24;220.32;226.46;232.68;238.96;245.28;251.66;258.08;264.53;271.01;277.52;284.04;290.57;297.11;303.64;310.17;316.68;323.17;329.63;336.06;342.45;348.79;355.08;361.31;367.46;373.54;379.53;385.43;391.23;396.91;402.48;407.91;413.2;418.32;423.28;428.03;432.57;436.85;440.89;444.72;448.4;451.99;455.56;459.14;462.79;466.54;470.39;474.31;478.26;482.17;486.0;489.72;493.28;496.67;499.85;502.82;505.54;508.01;510.24;512.21;513.95;515.47;516.77;517.87;518.79;519.53;520.07;520.38;520.62;520.81;520.97;521.13;521.28;521.45;521.63;521.85;522.1;522.38;522.7;523.06;523.45;523.88;524.34;524.83;525.35;525.89;526.45;527.02;527.61;528.2;528.81;529.42;530.03;530.64;531.25;531.85;532.45" dur="8s" repeatCount="indefinite" calcMode="linear"/>
        </circle>
      </g>

      <g class="legend" transform="translate(195.0, 570)">
        <rect x="0" y="-14" width="310" height="28" rx="14" fill="rgba(20, 15, 35, 0.8)" stroke="rgba(0, 229, 204, 0.4)" stroke-width="1"/>
        <line x1="20" y1="0" x2="45" y2="0" stroke="rgba(255,255,255,0.4)" stroke-width="2" stroke-dasharray="4 3"/>
        <text x="55" y="4" font-size="11" font-weight="600" fill="rgba(255,255,255,0.7)" font-family="system-ui, sans-serif">Reference</text>
        <line x1="150" y1="-6" x2="150" y2="6" stroke="rgba(255,255,255,0.2)" stroke-width="1"/>
        <line x1="165" y1="0" x2="190" y2="0" stroke="url(#trail-grad-t)" stroke-width="3" stroke-linecap="round"/>
        <text x="200" y="4" font-size="11" font-weight="bold" fill="#ff00cc" font-family="system-ui, sans-serif">Real Trajectory</text>
      </g>
    </svg>