<svg xmlns="http://www.w3.org/2000/svg" viewBox="0 0 700 600" width="100%" class="trajectory-svg">
      <defs>
        <linearGradient id="trail-grad-t" x1="83.3" y1="0" x2="600.0" y2="0" gradientUnits="userSpaceOnUse">
          <stop offset="0%" stop-color="#aa00ff"/><stop offset="100%" stop-color="#ff00cc"/>
        </linearGradient>
      </defs>

      <rect width="700" height="600" fill="#0d0a1a"/>
      <g class="grid"><line x1="60" y1="60" x2="60" y2="540" stroke="rgba(0,229,204,1)" stroke-width="0.5" opacity="0.06"/>
<line x1="156" y1="60" x2="156" y2="540" stroke="rgba(0,229,204,1)" stroke-width="0.5" opacity="0.06"/>
<line x1="253" y1="60" x2="253" y2="540" stroke="rgba(0,229,204,1)" stroke-width="0.5" opacity="0.06"/>
<line x1="350" y1="60" x2="350" y2="540" stroke="rgba(0,229,204,1)" stroke-width="0.5" opacity="0.06"/>
<line x1="446" y1="60" x2="446" y2="540" stroke="rgba(0,229,204,1)" stroke-width="0.5" opacity="0.06"/>
<line x1="543" y1="60" x2="543" y2="540" stroke="rgba(0,229,204,1)" stroke-width="0.5" opacity="0.06"/>
<line x1="640" y1="60" x2="640" y2="540" stroke="rgba(0,229,204,1)" stroke-width="0.5" opacity="0.06"/>
<line x1="60" y1="60" x2="640" y2="60" stroke="rgba(0,229,204,1)" stroke-width="0.5" opacity="0.18"/>
<line x1="60" y1="140" x2="640" y2="140" stroke="rgba(0,229,204,1)" stroke-width="0.5" opacity="0.18"/>
<line x1="60" y1="220" x2="640" y2="220" stroke="rgba(0,229,204,1)" stroke-width="0.5" opacity="0.18"/>
<line x1="60" y1="300" x2="640" y2="300" stroke="rgba(0,229,204,1)" stroke-width="0.5" opacity="0.18"/>
<line x1="60" y1="380" x2="640" y2="380" stroke="rgba(0,229,204,1)" stroke-width="0.5" opacity="0.18"/>
<line x1="60" y1="460" x2="640" y2="460" stroke="rgba(0,229,204,1)" stroke-width="0.5" opacity="0.18"/>
<line x1="60" y1="540" x2="640" y2="540" stroke="rgba(0,229,204,1)" stroke-width="0.5" opacity="0.18"/>
</g>
      <rect x="60" y="60" width="580" height="480" fill="none" stroke="rgba(0,229,204,0.15)" stroke-width="0.75" rx="4"/>

      <path d="M 533.88,491.49 L 533.88,489.07 L 533.88,486.64 L 533.88,484.21 L 533.88,481.78 L 533.88,479.35 L 533.88,476.92 L 533.88,474.49 L 533.88,472.06 L 533.88,469.63 L 533.88,467.21 L 533.88,464.78 L 533.88,462.35 L 533.88,459.92 L 533.88,457.49 L 533.88,455.06 L 533.88,452.63 L 533.88,450.2 L 533.88,447.77 L 533.88,445.35 L 533.88,442.92 L 533.88,440.49 L 533.88,438.06 L 533.88,435.63 L 533.88,433.2 L 533.88,430.77 L 533.88,428.34 L 533.88,425.91 L 533.88,423.49 L 533.88,421.06 L 533.88,418.63 L 533.88,416.2 L 533.88,413.77 L 533.88,411.34 L 533.88,408.91 L 533.88,406.48 L 533.88,404.05 L 533.88,401.63 L 533.88,399.2 L 533.88,396.77 L 533.88,394.34 L 533.88,391.91 L 533.88,389.48 L 533.88,387.05 L 533.88,384.62 L 533.88,382.19 L 533.88,379.77 L 533.88,377.34 L 533.88,374.91 L 533.88,372.48 L 533.88,370.05 L 533.88,367.62 L 533.88,365.19 L 533.88,362.76 L 533.88,360.34 L 533.88,357.91 L 533.88,355.48 L 533.88,353.05 L 533.88,350.62 L 533.88,348.19 L 533.88,345.76 L 533.88,343.33 L 533.88,340.9 L 533.88,338.48 L 533.88,336.05 L 533.88,333.62 L 533.88,331.19 L 533.88,328.76 L 533.88,326.33 L 533.88,323.9 L 533.88,321.47 L 533.88,319.04 L 533.88,316.62 L 533.88,314.19 L 533.88,311.76 L 533.88,309.33 L 533.88,306.9 L 533.88,304.47 L 533.88,302.04 L 533.88,299.61 L 533.88,297.18 L 533.88,294.76 L 533.88,292.33 L 533.88,289.9 L 533.88,287.47 L 533.88,285.04 L 533.85,282.61 L 533.8,280.18 L 533.72,277.76 L 533.62,275.33 L 533.49,272.9 L 533.33,270.48 L 533.15,268.06 L 532.94,265.64 L 532.71,263.22 L 532.44,260.81 L 532.16,258.39 L 531.85,255.98 L 531.51,253.58 L 531.15,251.18 L 530.76,248.78 L 530.34,246.39 L 529.9,244.0 L 529.43,241.61 L 528.94,239.24 L 528.42,236.86 L 527.88,234.5 L 527.31,232.13 L 526.72,229.78 L 526.1,227.43 L 525.46,225.09 L 524.79,222.75 L 524.09,220.43 L 523.37,218.11 L 522.63,215.79 L 521.86,213.49 L 521.07,211.19 L 520.25,208.91 L 519.41,206.63 L 518.54,204.36 L 517.65,202.1 L 516.73,199.85 L 515.79,197.61 L 514.83,195.38 L 513.84,193.16 L 512.83,190.95 L 511.8,188.76 L 510.74,186.57 L 509.66,184.4 L 508.55,182.23 L 507.42,180.08 L 506.27,177.94 L 505.1,175.82 L 503.9,173.7 L 502.68,171.6 L 501.44,169.52 L 500.17,167.44 L 498.89,165.38 L 497.58,163.34 L 496.25,161.3 L 494.9,159.29 L 493.52,157.28 L 492.13,155.3 L 490.71,153.32 L 489.27,151.36 L 487.82,149.42 L 486.34,147.5 L 484.84,145.59 L 483.32,143.69 L 481.78,141.81 L 480.21,139.95 L 478.63,138.11 L 477.03,136.28 L 475.41,134.47 L 473.78,132.68 L 472.12,130.9 L 470.44,129.15 L 468.74,127.41 L 467.03,125.69 L 465.3,123.99 L 463.55,122.3 L 461.78,120.64 L 459.99,118.99 L 458.19,117.37 L 456.36,115.76 L 454.52,114.17 L 452.67,112.61 L 450.8,111.06 L 448.91,109.53 L 447.0,108.03 L 445.08,106.54 L 443.14,105.07 L 441.19,103.63 L 439.22,102.21 L 437.24,100.8 L 435.24,99.42 L 433.23,98.06 L 431.2,96.73 L 429.16,95.41 L 427.1,94.12 L 425.03,92.85 L 422.95,91.6 L 420.85,90.37 L 418.75,89.17 L 416.62,87.98 L 414.49,86.83 L 412.34,85.69 L 410.18,84.58 L 408.01,83.49 L 405.83,82.42 L 403.64,81.38 L 401.43,80.36 L 399.21,79.37 L 396.99,78.39 L 394.75,77.45 L 392.51,76.52 L 390.25,75.63 L 387.98,74.75 L 385.71,73.9 L 383.42,73.07 L 381.13,72.27 L 378.83,71.5 L 376.52,70.74 L 374.2,70.02 L 371.88,69.31 L 369.55,68.64 L 367.21,67.99 L 364.86,67.36 L 362.51,66.76 L 360.15,66.18 L 357.78,65.63 L 355.41,65.1 L 353.03,64.6 L 350.65,64.13 L 348.26,63.68 L 345.87,63.26 L 343.48,62.86 L 341.08,62.49 L 338.67,62.14 L 336.26,61.82 L 333.85,61.52 L 331.44,61.26 L 329.02,61.01 L 326.6,60.8 L 324.18,60.61 L 321.76,60.44 L 319.33,60.3 L 316.91,60.19 L 314.48,60.1 L 312.05,60.04 L 309.62,60.01 L 307.19,60.0 L 304.77,60.02 L 302.34,60.06 L 299.91,60.13 L 297.48,60.23 L 295.06,60.35 L 292.63,60.5 L 290.21,60.67 L 287.79,60.87 L 285.37,61.1 L 282.95,61.35 L 280.54,61.63 L 278.13,61.93 L 275.73,62.26 L 273.32,62.62 L 270.92,63.0 L 268.53,63.4 L 266.14,63.84 L 263.75,64.29 L 261.37,64.78 L 259.0,65.29 L 256.63,65.82 L 254.27,66.38 L 251.91,66.97 L 249.56,67.58 L 247.21,68.21 L 244.88,68.88 L 242.55,69.56 L 240.22,70.27 L 237.91,71.01 L 235.6,71.77 L 233.3,72.55 L 231.02,73.36 L 228.73,74.2 L 226.46,75.06 L 224.2,75.94 L 221.95,76.85 L 219.7,77.78 L 217.47,78.74 L 215.25,79.72 L 213.04,80.72 L 210.84,81.75 L 208.65,82.8 L 206.47,83.87 L 204.3,84.97 L 202.15,86.09 L 200.0,87.24 L 197.87,88.4 L 195.76,89.59 L 193.65,90.8 L 191.56,92.04 L 189.48,93.3 L 187.42,94.58 L 185.37,95.88 L 183.33,97.2 L 181.31,98.55 L 179.3,99.91 L 177.31,101.3 L 175.33,102.71 L 173.37,104.14 L 171.42,105.59 L 169.49,107.07 L 167.57,108.56 L 165.67,110.07 L 163.79,111.61 L 161.92,113.16 L 160.07,114.73 L 158.24,116.33 L 156.42,117.94 L 154.63,119.57 L 152.84,121.23 L 151.08,122.9 L 149.34,124.59 L 147.61,126.3 L 145.9,128.02 L 144.21,129.77 L 142.54,131.53 L 140.89,133.31 L 139.26,135.11 L 137.65,136.93 L 136.05,138.76 L 134.48,140.61 L 132.93,142.48 L 131.39,144.36 L 129.88,146.26 L 128.39,148.18 L 126.92,150.11 L 125.46,152.06 L 124.03,154.02 L 122.63,156.0 L 121.24,157.99 L 119.87,160.0 L 118.53,162.02 L 117.2,164.06 L 115.9,166.11 L 114.63,168.18 L 113.37,170.26 L 112.14,172.35 L 110.92,174.45 L 109.73,176.57 L 108.57,178.7 L 107.43,180.85 L 106.31,183.0 L 105.21,185.17 L 104.14,187.35 L 103.09,189.54 L 102.06,191.74 L 101.06,193.95 L 100.08,196.17 L 99.12,198.41 L 98.19,200.65 L 97.28,202.9 L 96.4,205.17 L 95.54,207.44 L 94.71,209.72 L 93.9,212.01 L 93.12,214.31 L 92.36,216.61 L 91.62,218.93 L 90.91,221.25 L 90.22,223.58 L 89.56,225.92 L 88.93,228.26 L 88.32,230.62 L 87.73,232.97 L 87.18,235.34 L 86.64,237.71 L 86.13,240.08 L 85.65,242.46 L 85.19,244.85 L 84.76,247.24 L 84.35,249.63 L 83.97,252.03 L 83.62,254.43 L 83.29,256.84 L 82.99,259.25 L 82.71,261.66 L 82.46,264.08 L 82.24,266.5 L 82.04,268.92 L 81.86,271.34 L 81.72,273.77 L 81.6,276.19 L 81.5,278.62 L 81.43,281.05 L 81.39,283.47 L 81.37,285.9 L 81.38,288.33 L 81.42,290.76 L 81.48,293.19 L 81.56,295.62 L 81.68,298.04 L 81.82,300.47 L 81.98,302.89 L 82.18,305.31 L 82.39,307.73 L 82.64,310.15 L 82.91,312.56 L 83.2,314.97 L 83.52,317.38 L 83.87,319.78 L 84.24,322.18 L 84.64,324.58 L 85.06,326.97 L 85.51,329.36 L 85.99,331.74 L 86.49,334.12 L 87.02,336.49 L 87.57,338.85 L 88.15,341.21 L 88.75,343.57 L 89.38,345.91 L 90.03,348.25 L 90.71,350.58 L 91.41,352.91 L 92.14,355.23 L 92.89,357.53 L 93.67,359.84 L 94.47,362.13 L 95.3,364.41 L 96.15,366.69 L 97.03,368.95 L 97.93,371.21 L 98.85,373.45 L 99.8,375.69 L 100.77,377.92 L 101.77,380.13 L 102.79,382.34 L 103.83,384.53 L 104.9,386.71 L 105.99,388.88 L 107.1,391.04 L 108.24,393.19 L 109.4,395.32 L 110.58,397.44 L 111.78,399.55 L 113.01,401.65 L 114.26,403.73 L 115.53,405.8 L 116.83,407.86 L 118.14,409.9 L 119.48,411.92 L 120.84,413.94 L 122.22,415.93 L 123.63,417.92 L 125.05,419.88 L 126.49,421.84 L 127.96,423.77 L 129.45,425.69 L 130.95,427.6 L 132.48,429.49 L 134.03,431.36 L 135.6,433.21 L 137.18,435.05 L 138.79,436.87 L 140.42,438.68 L 142.06,440.46 L 143.73,442.23 L 145.41,443.98 L 147.12,445.71 L 148.84,447.43 L 150.58,449.12 L 152.33,450.8 L 154.11,452.46 L 155.9,454.1 L 157.71,455.72 L 159.54,457.32 L 161.38,458.89 L 163.25,460.45 L 165.12,461.99 L 167.02,463.51 L 168.93,465.01 L 170.86,466.49 L 172.8,467.95 L 174.76,469.39 L 176.73,470.8 L 178.72,472.2 L 180.72,473.57 L 182.74,474.92 L 184.77,476.25 L 186.82,477.56 L 188.88,478.85 L 190.96,480.11 L 193.04,481.35 L 195.15,482.57 L 197.26,483.76 L 199.39,484.94 L 201.52,486.09 L 203.68,487.22 L 205.84,488.32 L 208.01,489.4 L 210.2,490.46 L 212.4,491.49 L 214.61,492.5 L 216.83,493.49 L 219.06,494.45 L 221.3,495.39 L 223.55,496.31 L 225.81,497.2 L 228.08,498.06 L 230.35,498.91 L 232.64,499.72 L 234.94,500.52 L 237.24,501.28 L 239.55,502.03 L 241.87,502.74 L 244.2,503.44 L 246.54,504.11 L 248.88,504.75 L 251.23,505.37 L 253.58,505.96 L 255.95,506.53 L 258.31,507.07 L 260.69,507.59 L 263.07,508.08 L 265.45,508.54 L 267.84,508.98 L 270.23,509.4 L 272.63,509.79 L 275.03,510.15 L 277.44,510.49 L 279.84,510.8 L 282.26,511.08 L 284.67,511.34 L 287.09,511.58 L 289.51,511.78 L 291.93,511.99 L 294.35,512.2 L 296.77,512.41 L 299.19,512.61 L 301.61,512.82 L 304.03,513.03 L 306.45,513.24 L 308.87,513.44 L 311.29,513.65 L 313.71,513.86 L 316.13,514.07 L 318.55,514.27 L 320.97,514.48 L 323.39,514.69 L 325.81,514.89 L 328.23,515.1 L 330.65,515.31 L 333.07,515.52 L 335.49,515.72 L 337.91,515.93 L 340.33,516.14 L 342.75,516.35 L 345.17,516.55 L 347.59,516.76 L 350.01,516.97 L 352.43,517.18 L 354.85,517.38 L 357.27,517.59 L 359.69,517.8 L 362.11,518.01 L 364.53,518.21 L 366.95,518.42 L 369.37,518.63 L 371.79,518.84 L 374.21,519.04 L 376.63,519.25 L 379.05,519.46 L 381.47,519.67 L 383.89,519.87 L 386.31,520.08 L 388.73,520.29 L 391.15,520.5 L 393.57,520.7 L 395.99,520.91 L 398.41,521.12 L 400.83,521.33 L 403.25,521.53 L 405.67,521.74 L 408.09,521.95 L 410.51,522.16 L 412.93,522.36 L 415.35,522.57 L 417.77,522.78 L 420.19,522.99 L 422.61,523.19 L 425.03,523.4 L 427.45,523.61 L 429.87,523.82 L 432.29,524.02 L 434.71,524.23 L 437.13,524.44 L 439.55,524.65 L 441.97,524.85 L 444.39,525.06 L 446.81,525.27 L 449.23,525.48 L 451.65,525.68 L 454.07,525.89 L 456.49,526.1 L 458.91,526.31 L 461.33,526.51 L 463.75,526.72 L 466.17,526.93 L 468.59,527.14 L 471.01,527.34 L 473.43,527.55 L 475.85,527.76 L 478.27,527.97 L 480.69,528.17 L 483.11,528.38 L 485.53,528.59 L 487.95,528.8 L 490.37,529.0 L 492.79,529.21 L 495.21,529.42 L 497.63,529.63 L 500.05,529.83 L 502.47,530.04 L 504.89,530.25 L 507.31,530.46 L 509.73,530.66 L 512.15,530.87 L 514.57,531.08 L 516.99,531.29 L 519.41,531.49 L 521.83,531.7 L 524.25,531.91 L 526.67,532.12 L 529.09,532.32 L 531.51,532.53 L 533.93,532.74 L 536.35,532.95 L 538.77,533.15 L 541.19,533.36 L 543.61,533.57 L 546.03,533.78 L 548.45,533.98 L 550.87,534.19 L 553.29,534.4 L 555.71,534.61 L 558.13,534.81 L 560.55,535.02 L 562.97,535.23 L 565.39,535.44 L 567.81,535.64 L 570.23,535.85 L 572.65,536.06 L 575.07,536.27 L 577.49,536.47 L 579.91,536.68 L 582.33,536.89 L 584.75,537.1 L 587.17,537.3 L 589.59,537.51 L 592.01,537.72 L 594.43,537.93 L 596.85,538.13 L 599.27,538.34 L 601.69,538.55 L 604.11,538.76 L 606.53,538.96 L 608.95,539.17 L 611.37,539.38 L 613.79,539.59 L 616.21,539.79 L 618.63,540.0" fill="none" stroke="rgba(255,255,255,0.38)" stroke-width="1.3" stroke-dasharray="8 5"/>

      <path d="M 542.62,500.24 L 541.99,493.27 L 540.86,486.37 L 539.39,479.53 L 537.7,472.74 L 535.93,465.98 L 534.17,459.21 L 532.5,452.42 L 531.0,445.58 L 529.76,438.7 L 528.81,431.77 L 528.22,424.8 L 527.97,417.81 L 528.07,410.82 L 528.48,403.83 L 529.15,396.87 L 530.02,389.93 L 531.03,383.01 L 532.12,376.1 L 533.22,369.19 L 534.28,362.28 L 535.24,355.35 L 536.05,348.4 L 536.69,341.43 L 537.13,334.45 L 537.36,327.46 L 537.39,320.47 L 537.21,313.47 L 536.95,306.48 L 536.49,299.5 L 535.85,292.54 L 535.03,285.59 L 534.06,278.66 L 532.95,271.76 L 531.71,264.87 L 530.35,258.01 L 528.88,251.17 L 527.3,244.36 L 525.61,237.57 L 523.82,230.81 L 521.92,224.08 L 519.9,217.38 L 517.74,210.73 L 515.43,204.12 L 512.97,197.58 L 510.33,191.1 L 507.49,184.7 L 504.46,178.4 L 501.21,172.21 L 497.75,166.13 L 494.07,160.18 L 490.17,154.37 L 486.07,148.71 L 481.75,143.2 L 477.25,137.85 L 472.58,132.64 L 467.76,127.58 L 462.66,122.79 L 457.14,118.49 L 451.38,114.53 L 445.5,110.74 L 439.57,107.03 L 433.61,103.36 L 427.64,99.72 L 421.65,96.11 L 415.64,92.54 L 409.58,89.03 L 403.49,85.6 L 397.33,82.29 L 391.09,79.12 L 384.76,76.13 L 378.35,73.35 L 371.83,70.8 L 365.22,68.52 L 358.51,66.53 L 351.73,64.83 L 344.87,63.46 L 337.96,62.39 L 331.0,61.64 L 324.02,61.19 L 317.03,61.03 L 310.04,61.13 L 303.05,61.49 L 296.08,62.08 L 289.13,62.87 L 282.21,63.85 L 275.31,65.01 L 268.44,66.33 L 261.6,67.81 L 254.8,69.44 L 248.03,71.22 L 241.31,73.14 L 234.63,75.23 L 228.01,77.48 L 221.45,79.91 L 214.96,82.53 L 208.56,85.34 L 202.24,88.35 L 196.03,91.57 L 189.94,95.01 L 183.98,98.66 L 178.15,102.53 L 172.47,106.61 L 166.94,110.9 L 161.57,115.38 L 156.37,120.06 L 151.33,124.91 L 146.46,129.93 L 141.76,135.11 L 137.23,140.44 L 132.86,145.9 L 128.66,151.49 L 124.62,157.2 L 120.74,163.02 L 117.03,168.95 L 113.48,174.98 L 110.1,181.1 L 106.89,187.32 L 103.86,193.63 L 101.02,200.02 L 98.36,206.49 L 95.9,213.04 L 93.65,219.66 L 91.6,226.35 L 89.77,233.1 L 88.16,239.91 L 86.78,246.76 L 85.63,253.66 L 84.7,260.59 L 84.01,267.56 L 83.55,274.54 L 83.32,281.53 L 83.32,288.52 L 83.54,295.51 L 83.99,302.49 L 84.65,309.46 L 85.53,316.4 L 86.63,323.3 L 87.93,330.18 L 89.44,337.01 L 91.15,343.79 L 93.07,350.52 L 95.19,357.18 L 97.51,363.78 L 100.02,370.31 L 102.74,376.75 L 105.65,383.11 L 108.76,389.38 L 112.06,395.55 L 115.56,401.6 L 119.25,407.55 L 123.13,413.37 L 127.18,419.07 L 131.4,424.65 L 135.78,430.1 L 140.32,435.43 L 145.01,440.61 L 149.85,445.66 L 154.85,450.55 L 160.0,455.29 L 165.3,459.85 L 170.75,464.24 L 176.34,468.44 L 182.07,472.45 L 187.93,476.27 L 193.92,479.89 L 200.02,483.3 L 206.24,486.52 L 212.55,489.52 L 218.96,492.33 L 225.46,494.93 L 232.03,497.32 L 238.67,499.52 L 245.37,501.51 L 252.14,503.3 L 258.95,504.89 L 265.8,506.29 L 272.69,507.49 L 279.61,508.52 L 286.55,509.42 L 293.5,510.22 L 300.45,510.96 L 307.41,511.66 L 314.37,512.35 L 321.33,513.04 L 328.29,513.77 L 335.25,514.51 L 342.2,515.25 L 349.16,516.0 L 356.11,516.77 L 363.06,517.54 L 370.02,518.31 L 376.97,519.08 L 383.92,519.83 L 390.88,520.57 L 397.84,521.29 L 404.8,521.98 L 411.76,522.64 L 418.73,523.27 L 425.7,523.88 L 432.67,524.46 L 439.64,525.02 L 446.62,525.56 L 453.59,526.09 L 460.57,526.6 L 467.54,527.12 L 474.52,527.64 L 481.5,528.16 L 488.47,528.7 L 495.44,529.24 L 502.42,529.8 L 509.39,530.38 L 516.36,530.97 L 523.33,531.57 L 530.29,532.19 L 537.26,532.82 L 544.23,533.46 L 551.19,534.1 L 558.16,534.75 L 565.12,535.4 L 572.09,536.04 L 579.05,536.68 L 586.02,537.31 L 592.99,537.93 L 599.96,538.55" fill="none" stroke="url(#trail-grad-t)" stroke-width="2.5" stroke-linecap="round" stroke-linejoin="round"
            stroke-dasharray="1566.87" stroke-dashoffset="1566.87">
        <animate attributeName="stroke-dashoffset" values="1566.87;1559.87;1552.88;1545.88;1538.88;1531.9;1524.9;1517.91;1510.91;1503.92;1496.92;1489.93;1482.93;1475.94;1468.94;1461.95;1454.95;1447.96;1440.96;1433.97;1426.98;1419.98;1412.98;1405.98;1398.99;1392.0;1385.01;1378.0;1371.01;1364.01;1357.02;1350.03;1343.03;1336.04;1329.04;1322.04;1315.05;1308.06;1301.06;1294.07;1287.07;1280.08;1273.08;1266.08;1259.1;1252.1;1245.1;1238.11;1231.11;1224.12;1217.12;1210.13;1203.14;1196.13;1189.14;1182.15;1175.16;1168.16;1161.16;1154.17;1147.18;1140.18;1133.19;1126.19;1119.2;1112.21;1105.21;1098.22;1091.22;1084.22;1077.22;1070.24;1063.24;1056.24;1049.24;1042.25;1035.26;1028.27;1021.27;1014.27;1007.28;1000.29;993.29;986.3;979.3;972.31;965.31;958.32;951.32;944.33;937.33;930.34;923.34;916.35;909.35;902.35;895.36;888.36;881.37;874.37;867.39;860.39;853.39;846.4;839.4;832.41;825.41;818.42;811.42;804.43;797.43;790.44;783.45;776.45;769.46;762.46;755.47;748.47;741.47;734.48;727.48;720.49;713.49;706.5;699.5;692.5;685.52;678.52;671.53;664.53;657.53;650.54;643.55;636.55;629.56;622.56;615.56;608.58;601.57;594.58;587.59;580.59;573.6;566.6;559.61;552.62;545.62;538.62;531.63;524.64;517.63;510.64;503.65;496.65;489.66;482.66;475.67;468.68;461.68;454.68;447.69;440.69;433.7;426.71;419.71;412.71;405.72;398.72;391.73;384.73;377.73;370.74;363.75;356.76;349.76;342.76;335.77;328.78;321.78;314.78;307.79;300.8;293.8;286.81;279.81;272.82;265.82;258.83;251.83;244.84;237.84;230.84;223.85;216.86;209.86;202.86;195.87;188.88;181.88;174.88;167.89;160.89;153.89;146.9;139.9;132.92;125.92;118.92;111.93;104.93;97.93;90.94;83.94;76.95;69.96;62.96;55.96;48.97;41.97;34.98;27.98;20.99;14.0;7.0;0.0" dur="8s" repeatCount="indefinite" calcMode="linear"/>
      </path>

      <g>
        <circle r="9" fill="none" stroke="#ffe566" stroke-width="1.5">
          <animate attributeName="cx" values="542.62;541.99;540.86;539.39;537.7;535.93;534.17;532.5;531.0;529.76;528.81;528.22;527.97;528.07;528.48;529.15;530.02;531.03;532.12;533.22;534.28;535.24;536.05;536.69;537.13;537.36;537.39;537.21;536.95;536.49;535.85;535.03;534.06;532.95;531.71;530.35;528.88;527.3;525.61;523.82;521.92;519.9;517.74;515.43;512.97;510.33;507.49;504.46;501.21;497.75;494.07;490.17;486.07;481.75;477.25;472.58;467.76;462.66;457.14;451.38;445.5;439.57;433.61;427.64;421.65;415.64;409.58;403.49;397.33;391.09;384.76;378.35;371.83;365.22;358.51;351.73;344.87;337.96;331.0;324.02;317.03;310.04;303.05;296.08;289.13;282.21;275.31;268.44;261.6;254.8;248.03;241.31;234.63;228.01;221.45;214.96;208.56;202.24;196.03;189.94;183.98;178.15;172.47;166.94;161.57;156.37;151.33;146.46;141.76;137.23;132.86;128.66;124.62;120.74;117.03;113.48;110.1;106.89;103.86;101.02;98.36;95.9;93.65;91.6;89.77;88.16;86.78;85.63;84.7;84.01;83.55;83.32;83.32;83.54;83.99;84.65;85.53;86.63;87.93;89.44;91.15;93.07;95.19;97.51;100.02;102.74;105.65;108.76;112.06;115.56;119.25;123.13;127.18;131.4;135.78;140.32;145.01;149.85;154.85;160.0;165.3;170.75;176.34;182.07;187.93;193.92;200.02;206.24;212.55;218.96;225.46;232.03;238.67;245.37;252.14;258.95;265.8;272.69;279.61;286.55;293.5;300.45;307.41;314.37;321.33;328.29;335.25;342.2;349.16;356.11;363.06;370.02;376.97;383.92;390.88;397.84;404.8;411.76;418.73;425.7;432.67;439.64;446.62;453.59;460.57;467.54;474.52;481.5;488.47;495.44;502.42;509.39;516.36;523.33;530.29;537.26;544.23;551.19;558.16;565.12;572.09;579.05;586.02;592.99;599.96" dur="8s" repeatCount="indefinite" calcMode="linear"/>
          <animate attributeName="cy" values="500.24;493.27;486.37;479.53;472.74;465.98;459.21;452.42;445.58;438.7;431.77;424.8;417.81;410.82;403.83;396.87;389.93;383.01;376.1;369.19;362.28;355.35;348.4;341.43;334.45;327.46;320.47;313.47;306.48;299.5;292.54;285.59;278.66;271.76;264.87;258.01;251.17;244.36;237.57;230.81;224.08;217.38;210.73;204.12;197.58;191.1;184.7;178.4;172.21;166.13;160.18;154.37;148.71;143.2;137.85;132.64;127.58;122.79;118.49;114.53;110.74;107.03;103.36;99.72;96.11;92.54;89.03;85.6;82.29;79.12;76.13;73.35;70.8;68.52;66.53;64.83;63.46;62.39;61.64;61.19;61.03;61.13;61.49;62.08;62.87;63.85;65.01;66.33;67.81;69.44;71.22;73.14;75.23;77.48;79.91;82.53;85.34;88.35;91.57;95.01;98.66;102.53;106.61;110.9;115.38;120.06;124.91;129.93;135.11;140.44;145.9;151.49;157.2;163.02;168.95;174.98;181.1;187.32;193.63;200.02;206.49;213.04;219.66;226.35;233.1;239.91;246.76;253.66;260.59;267.56;274.54;281.53;288.52;295.51;302.49;309.46;316.4;323.3;330.18;337.01;343.79;350.52;357.18;363.78;370.31;376.75;383.11;389.38;395.55;401.6;407.55;413.37;419.07;424.65;430.1;435.43;440.61;445.66;450.55;455.29;459.85;464.24;468.44;472.45;476.27;479.89;483.3;486.52;489.52;492.33;494.93;497.32;499.52;501.51;503.3;504.89;506.29;507.49;508.52;509.42;510.22;510.96;511.66;512.35;513.04;513.77;514.51;515.25;516.0;516.77;517.54;518.31;519.08;519.83;520.57;521.29;521.98;522.64;523.27;523.88;524.46;525.02;525.56;526.09;526.6;527.12;527.64;528.16;528.7;529.24;529.8;530.38;530.97;531.57;532.19;532.82;533.46;534.1;534.75;535.4;536.04;536.68;537.31;537.93;538.55" dur="8s" repeatCount="indefinite" calcMode="linear"/>
          <animate attributeName="r" values="9;24;9" dur="2s" repeatCount="indefinite"/>
          <animate attributeName="opacity" values="0.8;0;0.8" dur="2s" repeatCount="indefinite"/>
        </circle>
        <circle r="5.5" fill="#ffe566">
          <animate attributeName="cx" values="542.62;541.99;540.86;539.39;537.7;535.93;534.17;532.5;531.0;529.76;528.81;528.22;527.97;528.07;528.48;529.15;530.02;531.03;532.12;533.22;534.28;535.24;536.05;536.69;537.13;537.36;537.39;537.21;536.95;536.49;535.85;535.03;534.06;532.95;531.71;530.35;528.88;527.3;525.61;523.82;521.92;519.9;517.74;515.43;512.97;510.33;507.49;504.46;501.21;497.75;494.07;490.17;486.07;481.75;477.25;472.58;467.76;462.66;457.14;451.38;445.5;439.57;433.61;427.64;421.65;415.64;409.58;403.49;397.33;391.09;384.76;378.35;371.83;365.22;358.51;351.73;344.87;337.96;331.0;324.02;317.03;310.04;303.05;296.08;289.13;282.21;275.31;268.44;261.6;254.8;248.03;241.31;234.63;228.01;221.45;214.96;208.56;202.24;196.03;189.94;183.98;178.15;172.47;166.94;161.57;156.37;151.33;146.46;141.76;137.23;132.86;128.66;124.62;120.74;117.03;113.48;110.1;106.89;103.86;101.02;98.36;95.9;93.65;91.6;89.77;88.16;86.78;85.63;84.7;84.01;83.55;83.32;83.32;83.54;83.99;84.65;85.53;86.63;87.93;89.44;91.15;93.07;95.19;97.51;100.02;102.74;105.65;108.76;112.06;115.56;119.25;123.13;127.18;131.4;135.78;140.32;145.01;149.85;154.85;160.0;165.3;170.75;176.34;182.07;187.93;193.92;200.02;206.24;212.55;218.96;225.46;232.03;238.67;245.37;252.14;258.95;265.8;272.69;279.61;286.55;293.5;300.45;307.41;314.37;321.33;328.29;335.25;342.2;349.16;356.11;363.06;370.02;376.97;383.92;390.88;397.84;404.8;411.76;418.73;425.7;432.67;439.64;446.62;453.59;460.57;467.54;474.52;481.5;488.47;495.44;502.42;509.39;516.36;523.33;530.29;537.26;544.23;551.19;558.16;565.12;572.09;579.05;586.02;592.99;599.96" dur="8s" repeatCount="indefinite" calcMode="linear"/>
          <animate attributeName="cy" values="500.24;493.27;486.37;479.53;472.74;465.98;459.21;452.42;445.58;438.7;431.77;424.8;417.81;410.82;403.83;396.87;389.93;383.01;376.1;369.19;362.28;355.35;348.4;341.43;334.45;327.46;320.47;313.47;306.48;299.5;292.54;285.59;278.66;271.76;264.87;258.01;251.17;244.36;237.57;230.81;224.08;217.38;210.73;204.12;197.58;191.1;184.7;178.4;172.21;166.13;160.18;154.37;148.71;143.2;137.85;132.64;127.58;122.79;118.49;114.53;110.74;107.03;103.36;99.72;96.11;92.54;89.03;85.6;82.29;79.12;76.13;73.35;70.8;68.52;66.53;64.83;63.46;62.39;61.64;61.19;61.03;61.13;61.49;62.08;62.87;63.85;65.01;66.33;67.81;69.44;71.22;73.14;75.23;77.48;79.91;82.53;85.34;88.35;91.57;95.01;98.66;102.53;106.61;110.9;115.38;120.06;124.91;129.93;135.11;140.44;145.9;151.49;157.2;163.02;168.95;174.98;181.1;187.32;193.63;200.02;206.49;213.04;219.66;226.35;233.1;239.91;246.76;253.66;260.59;267.56;274.54;281.53;288.52;295.51;302.49;309.46;316.4;323.3;330.18;337.01;343.79;350.52;357.18;363.78;370.31;376.75;383.11;389.38;395.55;401.6;407.55;413.37;419.07;424.65;430.1;435.43;440.61;445.66;450.55;455.29;459.85;464.24;468.44;472.45;476.27;479.89;483.3;486.52;489.52;492.33;494.93;497.32;499.52;501.51;503.3;504.89;506.29;507.49;508.52;509.42;510.22;510.96;511.66;512.35;513.04;513.77;514.51;515.25;516.0;516.77;517.54;518.31;519.08;519.83;520.57;521.29;521.98;522.64;523.27;523.88;524.46;525.02;525.56;526.09;526.6;527.12;527.64;528.16;528.7;529.24;529.8;530.38;530.97;531.57;532.19;532.82;533.46;534.1;534.75;535.4;536.04;536.68;537.31;537.93;538.55" dur="8s" repeatCount="indefinite" calcMode="linear"/>
        </circle>
        <circle r="2" fill="white">
          <animate attributeName="cx" values="542.62;541.99;540.86;539.39;537.7;535.93;534.17;532.5;531.0;529.76;528.81;528.22;527.97;528.07;528.48;529.15;530.02;531.03;532.12;533.22;534.28;535.24;536.05;536.69;537.13;537.36;537.39;537.21;536.95;536.49;535.85;535.03;534.06;532.95;531.71;530.35;528.88;527.3;525.61;523.82;521.92;519.9;517.74;515.43;512.97;510.33;507.49;504.46;501.21;497.75;494.07;490.17;486.07;481.75;477.25;472.58;467.76;462.66;457.14;451.38;445.5;439.57;433.61;427.64;421.65;415.64;409.58;403.49;397.33;391.09;384.76;378.35;371.83;365.22;358.51;351.73;344.87;337.96;331.0;324.02;317.03;310.04;303.05;296.08;289.13;282.21;275.31;268.44;261.6;254.8;248.03;241.31;234.63;228.01;221.45;214.96;208.56;202.24;196.03;189.94;183.98;178.15;172.47;166.94;161.57;156.37;151.33;146.46;141.76;137.23;132.86;128.66;124.62;120.74;117.03;113.48;110.1;106.89;103.86;101.02;98.36;95.9;93.65;91.6;89.77;88.16;86.78;85.63;84.7;84.01;83.55;83.32;83.32;83.54;83.99;84.65;85.53;86.63;87.93;89.44;91.15;93.07;95.19;97.51;100.02;102.74;105.65;108.76;112.06;115.56;119.25;123.13;127.18;131.4;135.78;140.32;145.01;149.85;154.85;160.0;165.3;170.75;176.34;182.07;187.93;193.92;200.02;206.24;212.55;218.96;225.46;232.03;238.67;245.37;252.14;258.95;265.8;272.69;279.61;286.55;293.5;300.45;307.41;314.37;321.33;328.29;335.25;342.2;349.16;356.11;363.06;370.02;376.97;383.92;390.88;397.84;404.8;411.76;418.73;425.7;432.67;439.64;446.62;453.59;460.57;467.54;474.52;481.5;488.47;495.44;502.42;509.39;516.36;523.33;530.29;537.26;544.23;551.19;558.16;565.12;572.09;579.05;586.02;592.99;599.96" dur="8s" repeatCount="indefinite" calcMode="linear"/>
          <animate attributeName="cy" values="500.24;493.27;486.37;479.53;472.74;465.98;459.21;452.42;445.58;438.7;431.77;424.8;417.81;410.82;403.83;396.87;389.93;383.01;376.1;369.19;362.28;355.35;348.4;341.43;334.45;327.46;320.47;313.47;306.48;299.5;292.54;285.59;278.66;271.76;264.87;258.01;251.17;244.36;237.57;230.81;224.08;217.38;210.73;204.12;197.58;191.1;184.7;178.4;172.21;166.13;160.18;154.37;148.71;143.2;137.85;132.64;127.58;122.79;118.49;114.53;110.74;107.03;103.36;99.72;96.11;92.54;89.03;85.6;82.29;79.12;76.13;73.35;70.8;68.52;66.53;64.83;63.46;62.39;61.64;61.19;61.03;61.13;61.49;62.08;62.87;63.85;65.01;66.33;67.81;69.44;71.22;73.14;75.23;77.48;79.91;82.53;85.34;88.35;91.57;95.01;98.66;102.53;106.61;110.9;115.38;120.06;124.91;129.93;135.11;140.44;145.9;151.49;157.2;163.02;168.95;174.98;181.1;187.32;193.63;200.02;206.49;213.04;219.66;226.35;233.1;239.91;246.76;253.66;260.59;267.56;274.54;281.53;288.52;295.51;302.49;309.46;316.4;323.3;330.18;337.01;343.79;350.52;357.18;363.78;370.31;376.75;383.11;389.38;395.55;401.6;407.55;413.37;419.07;424.65;430.1;435.43;440.61;445.66;450.55;455.29;459.85;464.24;468.44;472.45;476.27;479.89;483.3;486.52;489.52;492.33;494.93;497.32;499.52;501.51;503.3;504.89;506.29;507.49;508.52;509.42;510.22;510.96;511.66;512.35;513.04;513.77;514.51;515.25;516.0;516.77;517.54;518.31;519.08;519.83;520.57;521.29;521.98;522.64;523.27;523.88;524.46;525.02;525.56;526.09;526.6;527.12;527.64;528.16;528.7;529.24;529.8;530.38;530.97;531.57;532.19;532.82;533.46;534.1;534.75;535.4;536.04;536.68;537.31;537.93;538.55" dur="8s" repeatCount="indefinite" calcMode="linear"/>
        </circle>
      </g>

      <g class="legend" transform="translate(195.0, 570)">
        <rect x="0" y="-14" width="310" height="28" rx="14" fill="rgba(20, 15, 35, 0.8)" stroke="rgba(0, 229, 204, 0.4)" stroke-width="1"/>
        <line x1="20" y1="0" x2="45" y2="0" stroke="rgba(255,255,255,0.4)" stroke-width="2" stroke-dasharray="4 3"/>
        <text x="55" y="4" font-size="11" font-weight="600" fill="rgba(255,255,255,0.7)" font-family="system-ui, sans-serif">Reference</text>
        <line x1="150" y1="-6" x2="150" y2="6" stroke="rgba(255,255,255,0.2)" stroke-width="1"/>
        <line x1="165" y1="0" x2="190" y2="0" stroke="url(#trail-grad-t)" stroke-width="3" stroke-linecap="round"/>
        <text x="200" y="4" font-size="11" font-weight="bold" fill="#ff00cc" font-family="system-ui, sans-serif">Real Trajectory</text>
      </g>
    </svg>