<svg xmlns="http://www.w3.org/2000/svg" viewBox="0 0 700 400" width="100%" class="trajectory-svg">
      <defs>
        <linearGradient id="trail-grad-e" x1="60" y1="0" x2="670" y2="0" gradientUnits="userSpaceOnUse">
          <stop offset="0%" stop-color="#aa00ff"/><stop offset="100%" stop-color="#ff00cc"/>
        </linearGradient>
      </defs>

      <rect width="700" height="400" fill="#0d0a1a"/>
      <g class="grid"><line x1="60.0" y1="50" x2="60.0" y2="360" stroke="rgba(0,229,204,1)" stroke-width="0.5" opacity="0.06"/>
<line x1="161.66666666666669" y1="50" x2="161.66666666666669" y2="360" stroke="rgba(0,229,204,1)" stroke-width="0.5" opacity="0.06"/>
<line x1="263.33333333333337" y1="50" x2="263.33333333333337" y2="360" stroke="rgba(0,229,204,1)" stroke-width="0.5" opacity="0.06"/>
<line x1="365.0" y1="50" x2="365.0" y2="360" stroke="rgba(0,229,204,1)" stroke-width="0.5" opacity="0.06"/>
<line x1="466.6666666666667" y1="50" x2="466.6666666666667" y2="360" stroke="rgba(0,229,204,1)" stroke-width="0.5" opacity="0.06"/>
<line x1="568.3333333333333" y1="50" x2="568.3333333333333" y2="360" stroke="rgba(0,229,204,1)" stroke-width="0.5" opacity="0.06"/>
<line x1="670.0" y1="50" x2="670.0" y2="360" stroke="rgba(0,229,204,1)" stroke-width="0.5" opacity="0.06"/>
<line x1="60" y1="50.0" x2="670" y2="50.0" stroke="rgba(0,229,204,1)" stroke-width="0.5" opacity="0.18"/>
<line x1="60" y1="101.66666666666666" x2="670" y2="101.66666666666666" stroke="rgba(0,229,204,1)" stroke-width="0.5" opacity="0.18"/>
<line x1="60" y1="153.33333333333331" x2="670" y2="153.33333333333331" stroke="rgba(0,229,204,1)" stroke-width="0.5" opacity="0.18"/>
<line x1="60" y1="205.0" x2="670" y2="205.0" stroke="rgba(0,229,204,1)" stroke-width="0.5" opacity="0.18"/>
<line x1="60" y1="256.66666666666663" x2="670" y2="256.66666666666663" stroke="rgba(0,229,204,1)" stroke-width="0.5" opacity="0.18"/>
<line x1="60" y1="308.3333333333333" x2="670" y2="308.3333333333333" stroke="rgba(0,229,204,1)" stroke-width="0.5" opacity="0.18"/>
<line x1="60" y1="360.0" x2="670" y2="360.0" stroke="rgba(0,229,204,1)" stroke-width="0.5" opacity="0.18"/>
</g>
      <line x1="60" y1="189.62" x2="670" y2="189.62" stroke="rgba(255,255,255,0.5)" stroke-width="1.5" stroke-dasharray="6 6"/>
      <rect x="60" y="50" width="610" height="310" fill="none" stroke="rgba(0,229,204,0.15)" stroke-width="0.75" rx="4"/>

      <g class="axis-labels"><text x="60.0" y="380" font-size="10" fill="rgba(255,255,255,0.6)" text-anchor="middle" font-family="system-ui, sans-serif">0.1s</text>
<text x="161.66666666666669" y="380" font-size="10" fill="rgba(255,255,255,0.6)" text-anchor="middle" font-family="system-ui, sans-serif">7.6s</text>
<text x="263.33333333333337" y="380" font-size="10" fill="rgba(255,255,255,0.6)" text-anchor="middle" font-family="system-ui, sans-serif">15.0s</text>
<text x="365.0" y="380" font-size="10" fill="rgba(255,255,255,0.6)" text-anchor="middle" font-family="system-ui, sans-serif">22.5s</text>
<text x="466.6666666666667" y="380" font-size="10" fill="rgba(255,255,255,0.6)" text-anchor="middle" font-family="system-ui, sans-serif">30.0s</text>
<text x="568.3333333333333" y="380" font-size="10" fill="rgba(255,255,255,0.6)" text-anchor="middle" font-family="system-ui, sans-serif">37.4s</text>
<text x="670.0" y="380" font-size="10" fill="rgba(255,255,255,0.6)" text-anchor="middle" font-family="system-ui, sans-serif">44.9s</text>
<text x="50" y="54.0" font-size="10" fill="rgba(255,255,255,0.6)" text-anchor="end" font-family="system-ui, sans-serif">0.48</text>
<text x="50" y="105.66666666666666" font-size="10" fill="rgba(255,255,255,0.6)" text-anchor="end" font-family="system-ui, sans-serif">0.30</text>
<text x="50" y="157.33333333333331" font-size="10" fill="rgba(255,255,255,0.6)" text-anchor="end" font-family="system-ui, sans-serif">0.13</text>
<text x="50" y="209.0" font-size="10" fill="rgba(255,255,255,0.6)" text-anchor="end" font-family="system-ui, sans-serif">-0.05</text>
<text x="50" y="260.66666666666663" font-size="10" fill="rgba(255,255,255,0.6)" text-anchor="end" font-family="system-ui, sans-serif">-0.23</text>
<text x="50" y="312.3333333333333" font-size="10" fill="rgba(255,255,255,0.6)" text-anchor="end" font-family="system-ui, sans-serif">-0.41</text>
<text x="50" y="364.0" font-size="10" fill="rgba(255,255,255,0.6)" text-anchor="end" font-family="system-ui, sans-serif">-0.59</text>
</g>
      <text x="50" y="35" font-size="11" font-weight="bold" fill="rgba(0,229,204,0.8)" text-anchor="end" font-family="system-ui, sans-serif">Error (m)</text>
      <text x="670" y="395" font-size="11" font-weight="bold" fill="rgba(0,229,204,0.8)" text-anchor="end" font-family="system-ui, sans-serif">Time (s)</text>

      <path d="M 60.0,334.17 L 62.72,328.19 L 65.45,312.87 L 68.17,289.71 L 70.89,261.41 L 73.62,230.25 L 76.34,198.21 L 79.06,167.08 L 81.79,138.5 L 84.51,113.97 L 87.23,94.77 L 89.96,81.87 L 92.68,75.83 L 95.4,76.7 L 98.12,84.03 L 100.85,96.98 L 103.57,114.44 L 106.29,135.12 L 109.02,157.69 L 111.74,180.83 L 114.46,203.27 L 117.19,223.81 L 119.91,241.4 L 122.63,255.17 L 125.36,264.46 L 128.08,268.95 L 130.8,268.61 L 133.53,263.75 L 136.25,255.22 L 138.97,244.18 L 141.7,231.55 L 144.42,218.12 L 147.14,204.58 L 149.87,191.61 L 152.59,179.8 L 155.31,169.66 L 158.04,161.64 L 160.76,156.03 L 163.48,152.96 L 166.21,152.43 L 168.93,154.34 L 171.65,158.38 L 174.38,164.2 L 177.1,171.34 L 179.82,179.34 L 182.54,187.66 L 185.27,195.86 L 187.99,203.47 L 190.71,210.08 L 193.44,215.43 L 196.16,219.34 L 198.88,221.67 L 201.61,222.5 L 204.33,221.95 L 207.05,220.22 L 209.78,217.72 L 212.5,214.92 L 215.22,209.9 L 217.95,199.35 L 220.67,185.02 L 223.39,170.15 L 226.12,156.81 L 228.84,146.23 L 231.56,139.05 L 234.29,135.63 L 237.01,135.94 L 239.73,139.7 L 242.46,146.45 L 245.18,155.57 L 247.9,166.34 L 250.62,178.0 L 253.35,189.86 L 256.07,201.16 L 258.79,211.28 L 261.52,219.73 L 264.24,226.14 L 266.96,230.23 L 269.69,231.88 L 272.41,231.13 L 275.13,228.09 L 277.86,223.05 L 280.58,216.32 L 283.3,208.45 L 286.03,199.96 L 288.75,191.33 L 291.47,183.03 L 294.2,175.53 L 296.92,169.22 L 299.64,164.43 L 302.37,161.38 L 305.09,160.13 L 307.81,160.65 L 310.54,162.83 L 313.26,166.46 L 315.98,171.26 L 318.71,176.87 L 321.43,182.93 L 324.15,189.05 L 326.88,194.9 L 329.6,200.16 L 332.32,204.53 L 335.04,207.85 L 337.77,209.93 L 340.49,210.76 L 343.21,210.34 L 345.94,208.76 L 348.66,206.18 L 351.38,202.79 L 354.11,198.78 L 356.83,194.45 L 359.55,190.06 L 362.28,185.89 L 365.0,182.08 L 367.72,178.92 L 370.45,176.55 L 373.17,175.06 L 375.89,174.49 L 378.62,174.8 L 381.34,175.95 L 384.06,177.8 L 386.79,180.23 L 389.51,183.07 L 392.23,186.14 L 394.96,189.22 L 397.68,192.13 L 400.4,194.74 L 403.12,196.96 L 405.85,198.61 L 408.57,199.63 L 411.29,200.03 L 414.02,199.78 L 416.74,198.93 L 419.46,197.6 L 422.19,195.83 L 424.91,193.74 L 427.63,191.49 L 430.36,189.26 L 433.08,187.11 L 435.8,185.17 L 438.53,183.54 L 441.25,182.28 L 443.97,181.47 L 446.7,181.1 L 449.42,181.19 L 452.14,181.66 L 454.87,182.45 L 457.59,183.5 L 460.31,184.76 L 463.04,186.07 L 465.76,187.35 L 468.48,188.49 L 471.21,189.44 L 473.93,190.3 L 476.65,191.13 L 479.37,191.99 L 482.1,192.84 L 484.82,193.65 L 487.54,194.42 L 490.27,195.13 L 492.99,195.68 L 495.71,196.04 L 498.44,196.2 L 501.16,196.12 L 503.88,195.79 L 506.61,195.28 L 509.33,194.53 L 512.05,193.6 L 514.78,192.57 L 517.5,191.51 L 520.22,190.42 L 522.95,189.39 L 525.67,188.44 L 528.39,187.62 L 531.12,186.98 L 533.84,186.53 L 536.56,186.31 L 539.29,186.2 L 542.01,185.78 L 544.73,184.83 L 547.46,183.41 L 550.18,181.63 L 552.9,179.73 L 555.62,177.92 L 558.35,176.42 L 561.07,175.37 L 563.79,174.89 L 566.52,175.03 L 569.24,175.8 L 571.96,177.17 L 574.69,179.05 L 577.41,181.33 L 580.13,183.88 L 582.86,186.56 L 585.58,189.21 L 588.3,191.7 L 591.03,193.9 L 593.75,195.71 L 596.47,197.04 L 599.2,197.85 L 601.92,198.14 L 604.64,197.9 L 607.37,197.19 L 610.09,196.08 L 612.81,194.65 L 615.54,193.0 L 618.26,191.25 L 620.98,189.5 L 623.71,187.85 L 626.43,186.39 L 629.15,185.19 L 631.87,184.32 L 634.6,183.8 L 637.32,183.64 L 640.04,183.83 L 642.77,184.35 L 645.49,185.15 L 648.21,186.15 L 650.94,187.3 L 653.66,188.53 L 656.38,189.74 L 659.11,190.88 L 661.83,191.89 L 664.55,192.71 L 667.28,193.31 L 670.0,193.66" fill="none" stroke="url(#trail-grad-e)" stroke-width="2.5" stroke-linecap="round" stroke-linejoin="round"
            stroke-dasharray="1396.52" stroke-dashoffset="1396.52">
        <animate attributeName="stroke-dashoffset" values="1396.52;1389.95;1374.39;1351.07;1322.64;1291.36;1259.2;1227.96;1199.25;1174.57;1155.17;1141.99;1135.36;1132.51;1124.69;1111.46;1093.78;1072.93;1050.19;1026.89;1004.29;983.57;965.77;951.73;942.05;936.8;934.06;928.48;919.53;908.16;895.24;881.54;867.73;854.47;842.35;831.85;823.38;817.15;813.05;810.27;806.94;802.07;795.64;788.0;779.55;770.8;762.16;754.08;746.93;740.92;736.16;732.58;729.72;726.95;723.73;720.02;716.12;710.41;699.51;684.93;669.81;656.19;645.27;637.59;633.22;630.48;625.84;618.56;609.04;597.93;585.96;573.79;562.17;551.69;542.81;535.84;530.93;527.74;524.92;520.84;515.11;507.85;499.52;490.6;481.56;472.82;464.84;457.97;452.46;448.37;445.37;442.6;439.11;434.57;429.06;422.82;416.18;409.48;403.02;397.1;391.95;387.66;384.23;381.39;378.63;375.48;371.73;367.38;362.53;357.42;352.26;347.27;342.59;338.42;334.81;331.7;328.93;326.18;323.22;319.94;316.28;312.35;308.25;304.13;300.15;296.38;292.87;289.68;286.77;284.02;281.28;278.43;275.4;272.15;268.72;265.19;261.66;258.2;254.86;251.68;248.68;245.84;243.09;240.37;237.6;234.76;231.85;228.85;225.82;222.82;219.87;216.98;214.12;211.28;208.43;205.57;202.73;199.9;197.08;194.31;191.56;188.83;186.11;183.37;180.59;177.77;174.89;171.98;169.06;166.13;163.21;160.33;157.49;154.68;151.93;149.2;146.46;143.71;140.83;137.75;134.5;131.18;127.92;124.8;121.89;119.13;116.39;113.56;110.52;107.2;103.66;99.93;96.1;92.3;88.62;85.11;81.84;78.82;75.97;73.23;70.5;67.68;64.74;61.67;58.48;55.25;52.01;48.82;45.73;42.76;39.91;37.13;34.4;31.68;28.9;26.06;23.16;20.2;17.22;14.24;11.28;8.38;5.54;2.74;0.0" dur="8s" repeatCount="indefinite" calcMode="linear"/>
      </path>

      <g>
        <circle r="9" fill="none" stroke="#ffe566" stroke-width="1.5">
          <animate attributeName="cx" values="60.0;62.72;65.45;68.17;70.89;73.62;76.34;79.06;81.79;84.51;87.23;89.96;92.68;95.4;98.12;100.85;103.57;106.29;109.02;111.74;114.46;117.19;119.91;122.63;125.36;128.08;130.8;133.53;136.25;138.97;141.7;144.42;147.14;149.87;152.59;155.31;158.04;160.76;163.48;166.21;168.93;171.65;174.38;177.1;179.82;182.54;185.27;187.99;190.71;193.44;196.16;198.88;201.61;204.33;207.05;209.78;212.5;215.22;217.95;220.67;223.39;226.12;228.84;231.56;234.29;237.01;239.73;242.46;245.18;247.9;250.62;253.35;256.07;258.79;261.52;264.24;266.96;269.69;272.41;275.13;277.86;280.58;283.3;286.03;288.75;291.47;294.2;296.92;299.64;302.37;305.09;307.81;310.54;313.26;315.98;318.71;321.43;324.15;326.88;329.6;332.32;335.04;337.77;340.49;343.21;345.94;348.66;351.38;354.11;356.83;359.55;362.28;365.0;367.72;370.45;373.17;375.89;378.62;381.34;384.06;386.79;389.51;392.23;394.96;397.68;400.4;403.12;405.85;408.57;411.29;414.02;416.74;419.46;422.19;424.91;427.63;430.36;433.08;435.8;438.53;441.25;443.97;446.7;449.42;452.14;454.87;457.59;460.31;463.04;465.76;468.48;471.21;473.93;476.65;479.37;482.1;484.82;487.54;490.27;492.99;495.71;498.44;501.16;503.88;506.61;509.33;512.05;514.78;517.5;520.22;522.95;525.67;528.39;531.12;533.84;536.56;539.29;542.01;544.73;547.46;550.18;552.9;555.62;558.35;561.07;563.79;566.52;569.24;571.96;574.69;577.41;580.13;582.86;585.58;588.3;591.03;593.75;596.47;599.2;601.92;604.64;607.37;610.09;612.81;615.54;618.26;620.98;623.71;626.43;629.15;631.87;634.6;637.32;640.04;642.77;645.49;648.21;650.94;653.66;656.38;659.11;661.83;664.55;667.28;670.0" dur="8s" repeatCount="indefinite" calcMode="linear"/>
          <animate attributeName="cy" values="334.17;328.19;312.87;289.71;261.41;230.25;198.21;167.08;138.5;113.97;94.77;81.87;75.83;76.7;84.03;96.98;114.44;135.12;157.69;180.83;203.27;223.81;241.4;255.17;264.46;268.95;268.61;263.75;255.22;244.18;231.55;218.12;204.58;191.61;179.8;169.66;161.64;156.03;152.96;152.43;154.34;158.38;164.2;171.34;179.34;187.66;195.86;203.47;210.08;215.43;219.34;221.67;222.5;221.95;220.22;217.72;214.92;209.9;199.35;185.02;170.15;156.81;146.23;139.05;135.63;135.94;139.7;146.45;155.57;166.34;178.0;189.86;201.16;211.28;219.73;226.14;230.23;231.88;231.13;228.09;223.05;216.32;208.45;199.96;191.33;183.03;175.53;169.22;164.43;161.38;160.13;160.65;162.83;166.46;171.26;176.87;182.93;189.05;194.9;200.16;204.53;207.85;209.93;210.76;210.34;208.76;206.18;202.79;198.78;194.45;190.06;185.89;182.08;178.92;176.55;175.06;174.49;174.8;175.95;177.8;180.23;183.07;186.14;189.22;192.13;194.74;196.96;198.61;199.63;200.03;199.78;198.93;197.6;195.83;193.74;191.49;189.26;187.11;185.17;183.54;182.28;181.47;181.1;181.19;181.66;182.45;183.5;184.76;186.07;187.35;188.49;189.44;190.3;191.13;191.99;192.84;193.65;194.42;195.13;195.68;196.04;196.2;196.12;195.79;195.28;194.53;193.6;192.57;191.51;190.42;189.39;188.44;187.62;186.98;186.53;186.31;186.2;185.78;184.83;183.41;181.63;179.73;177.92;176.42;175.37;174.89;175.03;175.8;177.17;179.05;181.33;183.88;186.56;189.21;191.7;193.9;195.71;197.04;197.85;198.14;197.9;197.19;196.08;194.65;193.0;191.25;189.5;187.85;186.39;185.19;184.32;183.8;183.64;183.83;184.35;185.15;186.15;187.3;188.53;189.74;190.88;191.89;192.71;193.31;193.66" dur="8s" repeatCount="indefinite" calcMode="linear"/>
          <animate attributeName="r" values="9;24;9" dur="2s" repeatCount="indefinite"/>
          <animate attributeName="opacity" values="0.8;0;0.8" dur="2s" repeatCount="indefinite"/>
        </circle>
        <circle r="5.5" fill="#ffe566">
          <animate attributeName="cx" values="60.0;62.72;65.45;68.17;70.89;73.62;76.34;79.06;81.79;84.51;87.23;89.96;92.68;95.4;98.12;100.85;103.57;106.29;109.02;111.74;114.46;117.19;119.91;122.63;125.36;128.08;130.8;133.53;136.25;138.97;141.7;144.42;147.14;149.87;152.59;155.31;158.04;160.76;163.48;166.21;168.93;171.65;174.38;177.1;179.82;182.54;185.27;187.99;190.71;193.44;196.16;198.88;201.61;204.33;207.05;209.78;212.5;215.22;217.95;220.67;223.39;226.12;228.84;231.56;234.29;237.01;239.73;242.46;245.18;247.9;250.62;253.35;256.07;258.79;261.52;264.24;266.96;269.69;272.41;275.13;277.86;280.58;283.3;286.03;288.75;291.47;294.2;296.92;299.64;302.37;305.09;307.81;310.54;313.26;315.98;318.71;321.43;324.15;326.88;329.6;332.32;335.04;337.77;340.49;343.21;345.94;348.66;351.38;354.11;356.83;359.55;362.28;365.0;367.72;370.45;373.17;375.89;378.62;381.34;384.06;386.79;389.51;392.23;394.96;397.68;400.4;403.12;405.85;408.57;411.29;414.02;416.74;419.46;422.19;424.91;427.63;430.36;433.08;435.8;438.53;441.25;443.97;446.7;449.42;452.14;454.87;457.59;460.31;463.04;465.76;468.48;471.21;473.93;476.65;479.37;482.1;484.82;487.54;490.27;492.99;495.71;498.44;501.16;503.88;506.61;509.33;512.05;514.78;517.5;520.22;522.95;525.67;528.39;531.12;533.84;536.56;539.29;542.01;544.73;547.46;550.18;552.9;555.62;558.35;561.07;563.79;566.52;569.24;571.96;574.69;577.41;580.13;582.86;585.58;588.3;591.03;593.75;596.47;599.2;601.92;604.64;607.37;610.09;612.81;615.54;618.26;620.98;623.71;626.43;629.15;631.87;634.6;637.32;640.04;642.77;645.49;648.21;650.94;653.66;656.38;659.11;661.83;664.55;667.28;670.0" dur="8s" repeatCount="indefinite" calcMode="linear"/>
          <animate attributeName="cy" values="334.17;328.19;312.87;289.71;261.41;230.25;198.21;167.08;138.5;113.97;94.77;81.87;75.83;76.7;84.03;96.98;114.44;135.12;157.69;180.83;203.27;223.81;241.4;255.17;264.46;268.95;268.61;263.75;255.22;244.18;231.55;218.12;204.58;191.61;179.8;169.66;161.64;156.03;152.96;152.43;154.34;158.38;164.2;171.34;179.34;187.66;195.86;203.47;210.08;215.43;219.34;221.67;222.5;221.95;220.22;217.72;214.92;209.9;199.35;185.02;170.15;156.81;146.23;139.05;135.63;135.94;139.7;146.45;155.57;166.34;178.0;189.86;201.16;211.28;219.73;226.14;230.23;231.88;231.13;228.09;223.05;216.32;208.45;199.96;191.33;183.03;175.53;169.22;164.43;161.38;160.13;160.65;162.83;166.46;171.26;176.87;182.93;189.05;194.9;200.16;204.53;207.85;209.93;210.76;210.34;208.76;206.18;202.79;198.78;194.45;190.06;185.89;182.08;178.92;176.55;175.06;174.49;174.8;175.95;177.8;180.23;183.07;186.14;189.22;192.13;194.74;196.96;198.61;199.63;200.03;199.78;198.93;197.6;195.83;193.74;191.49;189.26;187.11;185.17;183.54;182.28;181.47;181.1;181.19;181.66;182.45;183.5;184.76;186.07;187.35;188.49;189.44;190.3;191.13;191.99;192.84;193.65;194.42;195.13;195.68;196.04;196.2;196.12;195.79;195.28;194.53;193.6;192.57;191.51;190.42;189.39;188.44;187.62;186.98;186.53;186.31;186.2;185.78;184.83;183.41;181.63;179.73;177.92;176.42;175.37;174.89;175.03;175.8;177.17;179.05;181.33;183.88;186.56;189.21;191.7;193.9;195.71;197.04;197.85;198.14;197.9;197.19;196.08;194.65;193.0;191.25;189.5;187.85;186.39;185.19;184.32;183.8;183.64;183.83;184.35;185.15;186.15;187.3;188.53;189.74;190.88;191.89;192.71;193.31;193.66" dur="8s" repeatCount="indefinite" calcMode="linear"/>
        </circle>
        <circle r="2" fill="white">
          <animate attributeName="cx" values="60.0;62.72;65.45;68.17;70.89;73.62;76.34;79.06;81.79;84.51;87.23;89.96;92.68;95.4;98.12;100.85;103.57;106.29;109.02;111.74;114.46;117.19;119.91;122.63;125.36;128.08;130.8;133.53;136.25;138.97;141.7;144.42;147.14;149.87;152.59;155.31;158.04;160.76;163.48;166.21;168.93;171.65;174.38;177.1;179.82;182.54;185.27;187.99;190.71;193.44;196.16;198.88;201.61;204.33;207.05;209.78;212.5;215.22;217.95;220.67;223.39;226.12;228.84;231.56;234.29;237.01;239.73;242.46;245.18;247.9;250.62;253.35;256.07;258.79;261.52;264.24;266.96;269.69;272.41;275.13;277.86;280.58;283.3;286.03;288.75;291.47;294.2;296.92;299.64;302.37;305.09;307.81;310.54;313.26;315.98;318.71;321.43;324.15;326.88;329.6;332.32;335.04;337.77;340.49;343.21;345.94;348.66;351.38;354.11;356.83;359.55;362.28;365.0;367.72;370.45;373.17;375.89;378.62;381.34;384.06;386.79;389.51;392.23;394.96;397.68;400.4;403.12;405.85;408.57;411.29;414.02;416.74;419.46;422.19;424.91;427.63;430.36;433.08;435.8;438.53;441.25;443.97;446.7;449.42;452.14;454.87;457.59;460.31;463.04;465.76;468.48;471.21;473.93;476.65;479.37;482.1;484.82;487.54;490.27;492.99;495.71;498.44;501.16;503.88;506.61;509.33;512.05;514.78;517.5;520.22;522.95;525.67;528.39;531.12;533.84;536.56;539.29;542.01;544.73;547.46;550.18;552.9;555.62;558.35;561.07;563.79;566.52;569.24;571.96;574.69;577.41;580.13;582.86;585.58;588.3;591.03;593.75;596.47;599.2;601.92;604.64;607.37;610.09;612.81;615.54;618.26;620.98;623.71;626.43;629.15;631.87;634.6;637.32;640.04;642.77;645.49;648.21;650.94;653.66;656.38;659.11;661.83;664.55;667.28;670.0" dur="8s" repeatCount="indefinite" calcMode="linear"/>
          <animate attributeName="cy" values="334.17;328.19;312.87;289.71;261.41;230.25;198.21;167.08;138.5;113.97;94.77;81.87;75.83;76.7;84.03;96.98;114.44;135.12;157.69;180.83;203.27;223.81;241.4;255.17;264.46;268.95;268.61;263.75;255.22;244.18;231.55;218.12;204.58;191.61;179.8;169.66;161.64;156.03;152.96;152.43;154.34;158.38;164.2;171.34;179.34;187.66;195.86;203.47;210.08;215.43;219.34;221.67;222.5;221.95;220.22;217.72;214.92;209.9;199.35;185.02;170.15;156.81;146.23;139.05;135.63;135.94;139.7;146.45;155.57;166.34;178.0;189.86;201.16;211.28;219.73;226.14;230.23;231.88;231.13;228.09;223.05;216.32;208.45;199.96;191.33;183.03;175.53;169.22;164.43;161.38;160.13;160.65;162.83;166.46;171.26;176.87;182.93;189.05;194.9;200.16;204.53;207.85;209.93;210.76;210.34;208.76;206.18;202.79;198.78;194.45;190.06;185.89;182.08;178.92;176.55;175.06;174.49;174.8;175.95;177.8;180.23;183.07;186.14;189.22;192.13;194.74;196.96;198.61;199.63;200.03;199.78;198.93;197.6;195.83;193.74;191.49;189.26;187.11;185.17;183.54;182.28;181.47;181.1;181.19;181.66;182.45;183.5;184.76;186.07;187.35;188.49;189.44;190.3;191.13;191.99;192.84;193.65;194.42;195.13;195.68;196.04;196.2;196.12;195.79;195.28;194.53;193.6;192.57;191.51;190.42;189.39;188.44;187.62;186.98;186.53;186.31;186.2;185.78;184.83;183.41;181.63;179.73;177.92;176.42;175.37;174.89;175.03;175.8;177.17;179.05;181.33;183.88;186.56;189.21;191.7;193.9;195.71;197.04;197.85;198.14;197.9;197.19;196.08;194.65;193.0;191.25;189.5;187.85;186.39;185.19;184.32;183.8;183.64;183.83;184.35;185.15;186.15;187.3;188.53;189.74;190.88;191.89;192.71;193.31;193.66" dur="8s" repeatCount="indefinite" calcMode="linear"/>
        </circle>
      </g>

      <g class="legend" transform="translate(195.0, 20)">
        <rect x="0" y="-14" width="310" height="28" rx="14" fill="rgba(20, 15, 35, 0.8)" stroke="rgba(0, 229, 204, 0.4)" stroke-width="1"/>
        <line x1="20" y1="0" x2="45" y2="0" stroke="rgba(255,255,255,0.4)" stroke-width="2" stroke-dasharray="4 3"/>
        <text x="55" y="4" font-size="11" font-weight="600" fill="rgba(255,255,255,0.7)" font-family="system-ui, sans-serif">Perfect Trajectory</text>
        <line x1="175" y1="-6" x2="175" y2="6" stroke="rgba(255,255,255,0.2)" stroke-width="1"/>
        <line x1="190" y1="0" x2="215" y2="0" stroke="url(#trail-grad-e)" stroke-width="3" stroke-linecap="round"/>
        <text x="225" y="4" font-size="11" font-weight="bold" fill="#ff00cc" font-family="system-ui, sans-serif">Error</text>
      </g>
    </svg>