<svg xmlns="http://www.w3.org/2000/svg" viewBox="0 0 700 400" width="100%" class="trajectory-svg">
      <defs>
        <linearGradient id="trail-grad-e" x1="60" y1="0" x2="670" y2="0" gradientUnits="userSpaceOnUse">
          <stop offset="0%" stop-color="#aa00ff"/><stop offset="100%" stop-color="#ff00cc"/>
        </linearGradient>
      </defs>

      <rect width="700" height="400" fill="#0d0a1a"/>
      <g class="grid"><line x1="60.0" y1="50" x2="60.0" y2="360" stroke="rgba(0,229,204,1)" stroke-width="0.5" opacity="0.06"/>
<line x1="161.66666666666669" y1="50" x2="161.66666666666669" y2="360" stroke="rgba(0,229,204,1)" stroke-width="0.5" opacity="0.06"/>
<line x1="263.33333333333337" y1="50" x2="263.33333333333337" y2="360" stroke="rgba(0,229,204,1)" stroke-width="0.5" opacity="0.06"/>
<line x1="365.0" y1="50" x2="365.0" y2="360" stroke="rgba(0,229,204,1)" stroke-width="0.5" opacity="0.06"/>
<line x1="466.6666666666667" y1="50" x2="466.6666666666667" y2="360" stroke="rgba(0,229,204,1)" stroke-width="0.5" opacity="0.06"/>
<line x1="568.3333333333333" y1="50" x2="568.3333333333333" y2="360" stroke="rgba(0,229,204,1)" stroke-width="0.5" opacity="0.06"/>
<line x1="670.0" y1="50" x2="670.0" y2="360" stroke="rgba(0,229,204,1)" stroke-width="0.5" opacity="0.06"/>
<line x1="60" y1="50.0" x2="670" y2="50.0" stroke="rgba(0,229,204,1)" stroke-width="0.5" opacity="0.18"/>
<line x1="60" y1="101.66666666666666" x2="670" y2="101.66666666666666" stroke="rgba(0,229,204,1)" stroke-width="0.5" opacity="0.18"/>
<line x1="60" y1="153.33333333333331" x2="670" y2="153.33333333333331" stroke="rgba(0,229,204,1)" stroke-width="0.5" opacity="0.18"/>
<line x1="60" y1="205.0" x2="670" y2="205.0" stroke="rgba(0,229,204,1)" stroke-width="0.5" opacity="0.18"/>
<line x1="60" y1="256.66666666666663" x2="670" y2="256.66666666666663" stroke="rgba(0,229,204,1)" stroke-width="0.5" opacity="0.18"/>
<line x1="60" y1="308.3333333333333" x2="670" y2="308.3333333333333" stroke="rgba(0,229,204,1)" stroke-width="0.5" opacity="0.18"/>
<line x1="60" y1="360.0" x2="670" y2="360.0" stroke="rgba(0,229,204,1)" stroke-width="0.5" opacity="0.18"/>
</g>
      <line x1="60" y1="206.32" x2="670" y2="206.32" stroke="rgba(255,255,255,0.5)" stroke-width="1.5" stroke-dasharray="6 6"/>
      <rect x="60" y="50" width="610" height="310" fill="none" stroke="rgba(0,229,204,0.15)" stroke-width="0.75" rx="4"/>

      <g class="axis-labels"><text x="60.0" y="380" font-size="10" fill="rgba(255,255,255,0.6)" text-anchor="middle" font-family="system-ui, sans-serif">0.1s</text>
<text x="161.66666666666669" y="380" font-size="10" fill="rgba(255,255,255,0.6)" text-anchor="middle" font-family="system-ui, sans-serif">7.6s</text>
<text x="263.33333333333337" y="380" font-size="10" fill="rgba(255,255,255,0.6)" text-anchor="middle" font-family="system-ui, sans-serif">15.0s</text>
<text x="365.0" y="380" font-size="10" fill="rgba(255,255,255,0.6)" text-anchor="middle" font-family="system-ui, sans-serif">22.5s</text>
<text x="466.6666666666667" y="380" font-size="10" fill="rgba(255,255,255,0.6)" text-anchor="middle" font-family="system-ui, sans-serif">30.0s</text>
<text x="568.3333333333333" y="380" font-size="10" fill="rgba(255,255,255,0.6)" text-anchor="middle" font-family="system-ui, sans-serif">37.4s</text>
<text x="670.0" y="380" font-size="10" fill="rgba(255,255,255,0.6)" text-anchor="middle" font-family="system-ui, sans-serif">44.9s</text>
<text x="50" y="54.0" font-size="10" fill="rgba(255,255,255,0.6)" text-anchor="end" font-family="system-ui, sans-serif">0.61</text>
<text x="50" y="105.66666666666666" font-size="10" fill="rgba(255,255,255,0.6)" text-anchor="end" font-family="system-ui, sans-serif">0.41</text>
<text x="50" y="157.33333333333331" font-size="10" fill="rgba(255,255,255,0.6)" text-anchor="end" font-family="system-ui, sans-serif">0.21</text>
<text x="50" y="209.0" font-size="10" fill="rgba(255,255,255,0.6)" text-anchor="end" font-family="system-ui, sans-serif">0.01</text>
<text x="50" y="260.66666666666663" font-size="10" fill="rgba(255,255,255,0.6)" text-anchor="end" font-family="system-ui, sans-serif">-0.20</text>
<text x="50" y="312.3333333333333" font-size="10" fill="rgba(255,255,255,0.6)" text-anchor="end" font-family="system-ui, sans-serif">-0.40</text>
<text x="50" y="364.0" font-size="10" fill="rgba(255,255,255,0.6)" text-anchor="end" font-family="system-ui, sans-serif">-0.60</text>
</g>
      <text x="50" y="35" font-size="11" font-weight="bold" fill="rgba(0,229,204,0.8)" text-anchor="end" font-family="system-ui, sans-serif">Error (m)</text>
      <text x="670" y="395" font-size="11" font-weight="bold" fill="rgba(0,229,204,0.8)" text-anchor="end" font-family="system-ui, sans-serif">Time (s)</text>

      <path d="M 60.0,334.17 L 62.72,328.65 L 65.45,317.03 L 68.17,301.71 L 70.89,282.27 L 73.62,258.38 L 76.34,230.64 L 79.06,200.43 L 81.79,169.66 L 84.51,140.42 L 87.23,114.74 L 89.96,94.5 L 92.68,81.21 L 95.4,75.83 L 98.12,78.68 L 100.85,89.34 L 103.57,106.83 L 106.29,129.8 L 109.02,156.67 L 111.74,185.82 L 114.46,215.64 L 117.19,244.54 L 119.91,271.01 L 122.63,293.55 L 125.36,310.81 L 128.08,321.68 L 130.8,325.43 L 133.53,321.91 L 136.25,311.94 L 138.97,297.87 L 141.7,279.79 L 144.42,258.17 L 147.14,234.08 L 149.87,208.95 L 152.59,184.45 L 155.31,162.11 L 158.04,143.34 L 160.76,129.33 L 163.48,120.92 L 166.21,118.54 L 168.93,122.12 L 171.65,131.24 L 174.38,145.09 L 177.1,162.66 L 179.82,182.78 L 182.54,204.29 L 185.27,225.95 L 187.99,246.52 L 190.71,264.84 L 193.44,279.8 L 196.16,290.47 L 198.88,296.2 L 201.61,296.52 L 204.33,291.42 L 207.05,281.34 L 209.78,267.1 L 212.5,249.9 L 215.22,231.08 L 217.95,208.48 L 220.67,184.53 L 223.39,161.32 L 226.12,139.08 L 228.84,118.84 L 231.56,102.54 L 234.29,92.26 L 237.01,89.55 L 239.73,94.97 L 242.46,108.11 L 245.18,127.81 L 247.9,152.51 L 250.62,180.46 L 253.35,209.87 L 256.07,239.08 L 258.79,266.49 L 261.52,290.64 L 264.24,309.94 L 266.96,323.07 L 269.69,328.95 L 272.41,327.06 L 275.13,317.43 L 277.86,300.69 L 280.58,278.03 L 283.3,251.0 L 286.03,221.46 L 288.75,191.13 L 291.47,161.84 L 294.2,135.35 L 296.92,113.36 L 299.64,97.37 L 302.37,88.51 L 305.09,87.37 L 307.81,93.85 L 310.54,107.3 L 313.26,126.6 L 315.98,150.39 L 318.71,177.17 L 321.43,205.38 L 324.15,233.52 L 326.88,260.06 L 329.6,283.61 L 332.32,302.74 L 335.04,316.09 L 337.77,322.62 L 340.49,321.72 L 343.21,313.39 L 345.94,298.16 L 348.66,277.09 L 351.38,251.64 L 354.11,223.49 L 356.83,194.48 L 359.55,166.26 L 362.28,140.59 L 365.0,119.07 L 367.72,103.17 L 370.45,94.0 L 373.17,92.16 L 375.89,97.64 L 378.62,109.87 L 381.34,127.84 L 384.06,150.25 L 386.79,175.67 L 389.51,202.67 L 392.23,229.71 L 394.96,255.35 L 397.68,278.15 L 400.4,296.76 L 403.12,309.95 L 405.85,316.64 L 408.57,316.27 L 411.29,308.74 L 414.02,294.57 L 416.74,274.82 L 419.46,250.8 L 422.19,224.1 L 424.91,196.4 L 427.63,169.44 L 430.36,144.85 L 433.08,124.17 L 435.8,108.78 L 438.53,99.73 L 441.25,97.62 L 443.97,102.46 L 446.7,113.75 L 449.42,130.53 L 452.14,151.59 L 454.87,175.55 L 457.59,200.99 L 460.31,226.46 L 463.04,250.65 L 465.76,272.08 L 468.48,289.45 L 471.21,301.58 L 473.93,307.54 L 476.65,306.88 L 479.37,299.55 L 482.1,286.09 L 484.82,267.52 L 487.54,245.17 L 490.27,220.7 L 492.99,195.7 L 495.71,171.74 L 498.44,150.34 L 501.16,132.89 L 503.88,120.49 L 506.61,113.94 L 509.33,113.57 L 512.05,119.26 L 514.78,130.46 L 517.5,146.27 L 520.22,165.58 L 522.95,187.19 L 525.67,209.76 L 528.39,232.06 L 531.12,252.77 L 533.84,270.69 L 536.56,284.69 L 539.29,293.91 L 542.01,297.57 L 544.73,295.36 L 547.46,287.15 L 550.18,273.12 L 552.9,254.02 L 555.62,230.98 L 558.35,205.43 L 561.07,178.99 L 563.79,153.34 L 566.52,130.2 L 569.24,111.24 L 571.96,98.98 L 574.69,94.35 L 577.41,96.81 L 580.13,105.59 L 582.86,119.76 L 585.58,138.28 L 588.3,160.02 L 591.03,183.76 L 593.75,208.25 L 596.47,232.2 L 599.2,254.34 L 601.92,273.43 L 604.64,288.33 L 607.37,298.14 L 610.09,302.24 L 612.81,300.43 L 615.54,292.94 L 618.26,280.38 L 620.98,263.67 L 623.71,243.93 L 626.43,222.38 L 629.15,200.3 L 631.87,178.92 L 634.6,159.47 L 637.32,143.05 L 640.04,130.64 L 642.77,122.96 L 645.49,120.46 L 648.21,123.23 L 650.94,130.97 L 653.66,143.08 L 656.38,158.7 L 659.11,176.8 L 661.83,196.28 L 664.55,215.97 L 667.28,234.76 L 670.0,251.57" fill="none" stroke="url(#trail-grad-e)" stroke-width="2.5" stroke-linecap="round" stroke-linejoin="round"
            stroke-dasharray="3882.5" stroke-dashoffset="3882.5">
        <animate attributeName="stroke-dashoffset" values="3882.5;3876.34;3864.41;3848.85;3829.22;3805.17;3777.3;3746.97;3716.08;3686.71;3660.89;3640.46;3626.9;3620.87;3616.93;3605.93;3588.23;3565.1;3538.09;3508.81;3478.87;3449.84;3423.23;3400.53;3383.05;3371.85;3367.21;3362.76;3352.42;3338.09;3319.81;3298.02;3273.78;3248.5;3223.85;3201.34;3182.37;3168.1;3159.26;3155.64;3151.15;3141.63;3127.51;3109.73;3089.43;3067.75;3045.92;3025.17;3006.65;2991.44;2980.43;2974.09;2971.34;2965.56;2955.12;2940.62;2923.2;2904.19;2881.42;2857.32;2833.95;2811.54;2791.12;2774.6;2763.96;2760.12;2754.06;2740.64;2720.75;2695.9;2667.82;2638.28;2608.95;2581.4;2557.1;2537.61;2524.2;2517.71;2514.4;2504.4;2487.43;2464.61;2437.45;2407.78;2377.33;2347.91;2321.28;2299.12;2282.9;2273.63;2270.68;2263.66;2249.93;2230.44;2206.5;2179.58;2151.24;2122.97;2096.29;2072.58;2053.26;2039.63;2032.55;2029.69;2020.93;2005.45;1984.21;1958.61;1930.33;1901.19;1872.84;1847.03;1825.34;1809.21;1799.64;1796.36;1790.24;1777.71;1759.53;1736.96;1711.39;1684.25;1657.08;1631.29;1608.33;1589.52;1576.06;1568.83;1566.09;1558.08;1543.65;1523.71;1499.54;1472.7;1444.87;1417.77;1393.03;1372.17;1356.54;1347.09;1343.65;1338.09;1326.48;1309.48;1288.25;1264.13;1238.55;1212.93;1188.59;1166.99;1149.4;1136.97;1130.42;1127.62;1119.8;1106.07;1087.3;1064.78;1040.16;1015.01;990.9;969.33;951.67;938.97;931.88;929.13;922.82;911.3;895.25;875.75;853.97;831.24;808.77;787.88;769.76;755.5;745.88;741.32;737.82;729.16;714.87;695.58;672.38;646.68;620.11;594.31;571.01;551.86;539.3;533.92;530.26;521.06;506.63;487.92;466.01;442.11;417.47;393.37;371.06;351.77;336.63;326.45;321.53;318.26;310.29;297.44;280.51;260.58;238.86;216.61;195.06;175.42;158.77;146.07;137.92;134.22;130.34;122.13;109.72;93.87;75.56;55.89;36.02;17.03;0.0" dur="8s" repeatCount="indefinite" calcMode="linear"/>
      </path>

      <g>
        <circle r="9" fill="none" stroke="#ffe566" stroke-width="1.5">
          <animate attributeName="cx" values="60.0;62.72;65.45;68.17;70.89;73.62;76.34;79.06;81.79;84.51;87.23;89.96;92.68;95.4;98.12;100.85;103.57;106.29;109.02;111.74;114.46;117.19;119.91;122.63;125.36;128.08;130.8;133.53;136.25;138.97;141.7;144.42;147.14;149.87;152.59;155.31;158.04;160.76;163.48;166.21;168.93;171.65;174.38;177.1;179.82;182.54;185.27;187.99;190.71;193.44;196.16;198.88;201.61;204.33;207.05;209.78;212.5;215.22;217.95;220.67;223.39;226.12;228.84;231.56;234.29;237.01;239.73;242.46;245.18;247.9;250.62;253.35;256.07;258.79;261.52;264.24;266.96;269.69;272.41;275.13;277.86;280.58;283.3;286.03;288.75;291.47;294.2;296.92;299.64;302.37;305.09;307.81;310.54;313.26;315.98;318.71;321.43;324.15;326.88;329.6;332.32;335.04;337.77;340.49;343.21;345.94;348.66;351.38;354.11;356.83;359.55;362.28;365.0;367.72;370.45;373.17;375.89;378.62;381.34;384.06;386.79;389.51;392.23;394.96;397.68;400.4;403.12;405.85;408.57;411.29;414.02;416.74;419.46;422.19;424.91;427.63;430.36;433.08;435.8;438.53;441.25;443.97;446.7;449.42;452.14;454.87;457.59;460.31;463.04;465.76;468.48;471.21;473.93;476.65;479.37;482.1;484.82;487.54;490.27;492.99;495.71;498.44;501.16;503.88;506.61;509.33;512.05;514.78;517.5;520.22;522.95;525.67;528.39;531.12;533.84;536.56;539.29;542.01;544.73;547.46;550.18;552.9;555.62;558.35;561.07;563.79;566.52;569.24;571.96;574.69;577.41;580.13;582.86;585.58;588.3;591.03;593.75;596.47;599.2;601.92;604.64;607.37;610.09;612.81;615.54;618.26;620.98;623.71;626.43;629.15;631.87;634.6;637.32;640.04;642.77;645.49;648.21;650.94;653.66;656.38;659.11;661.83;664.55;667.28;670.0" dur="8s" repeatCount="indefinite" calcMode="linear"/>
          <animate attributeName="cy" values="334.17;328.65;317.03;301.71;282.27;258.38;230.64;200.43;169.66;140.42;114.74;94.5;81.21;75.83;78.68;89.34;106.83;129.8;156.67;185.82;215.64;244.54;271.01;293.55;310.81;321.68;325.43;321.91;311.94;297.87;279.79;258.17;234.08;208.95;184.45;162.11;143.34;129.33;120.92;118.54;122.12;131.24;145.09;162.66;182.78;204.29;225.95;246.52;264.84;279.8;290.47;296.2;296.52;291.42;281.34;267.1;249.9;231.08;208.48;184.53;161.32;139.08;118.84;102.54;92.26;89.55;94.97;108.11;127.81;152.51;180.46;209.87;239.08;266.49;290.64;309.94;323.07;328.95;327.06;317.43;300.69;278.03;251.0;221.46;191.13;161.84;135.35;113.36;97.37;88.51;87.37;93.85;107.3;126.6;150.39;177.17;205.38;233.52;260.06;283.61;302.74;316.09;322.62;321.72;313.39;298.16;277.09;251.64;223.49;194.48;166.26;140.59;119.07;103.17;94.0;92.16;97.64;109.87;127.84;150.25;175.67;202.67;229.71;255.35;278.15;296.76;309.95;316.64;316.27;308.74;294.57;274.82;250.8;224.1;196.4;169.44;144.85;124.17;108.78;99.73;97.62;102.46;113.75;130.53;151.59;175.55;200.99;226.46;250.65;272.08;289.45;301.58;307.54;306.88;299.55;286.09;267.52;245.17;220.7;195.7;171.74;150.34;132.89;120.49;113.94;113.57;119.26;130.46;146.27;165.58;187.19;209.76;232.06;252.77;270.69;284.69;293.91;297.57;295.36;287.15;273.12;254.02;230.98;205.43;178.99;153.34;130.2;111.24;98.98;94.35;96.81;105.59;119.76;138.28;160.02;183.76;208.25;232.2;254.34;273.43;288.33;298.14;302.24;300.43;292.94;280.38;263.67;243.93;222.38;200.3;178.92;159.47;143.05;130.64;122.96;120.46;123.23;130.97;143.08;158.7;176.8;196.28;215.97;234.76;251.57" dur="8s" repeatCount="indefinite" calcMode="linear"/>
          <animate attributeName="r" values="9;24;9" dur="2s" repeatCount="indefinite"/>
          <animate attributeName="opacity" values="0.8;0;0.8" dur="2s" repeatCount="indefinite"/>
        </circle>
        <circle r="5.5" fill="#ffe566">
          <animate attributeName="cx" values="60.0;62.72;65.45;68.17;70.89;73.62;76.34;79.06;81.79;84.51;87.23;89.96;92.68;95.4;98.12;100.85;103.57;106.29;109.02;111.74;114.46;117.19;119.91;122.63;125.36;128.08;130.8;133.53;136.25;138.97;141.7;144.42;147.14;149.87;152.59;155.31;158.04;160.76;163.48;166.21;168.93;171.65;174.38;177.1;179.82;182.54;185.27;187.99;190.71;193.44;196.16;198.88;201.61;204.33;207.05;209.78;212.5;215.22;217.95;220.67;223.39;226.12;228.84;231.56;234.29;237.01;239.73;242.46;245.18;247.9;250.62;253.35;256.07;258.79;261.52;264.24;266.96;269.69;272.41;275.13;277.86;280.58;283.3;286.03;288.75;291.47;294.2;296.92;299.64;302.37;305.09;307.81;310.54;313.26;315.98;318.71;321.43;324.15;326.88;329.6;332.32;335.04;337.77;340.49;343.21;345.94;348.66;351.38;354.11;356.83;359.55;362.28;365.0;367.72;370.45;373.17;375.89;378.62;381.34;384.06;386.79;389.51;392.23;394.96;397.68;400.4;403.12;405.85;408.57;411.29;414.02;416.74;419.46;422.19;424.91;427.63;430.36;433.08;435.8;438.53;441.25;443.97;446.7;449.42;452.14;454.87;457.59;460.31;463.04;465.76;468.48;471.21;473.93;476.65;479.37;482.1;484.82;487.54;490.27;492.99;495.71;498.44;501.16;503.88;506.61;509.33;512.05;514.78;517.5;520.22;522.95;525.67;528.39;531.12;533.84;536.56;539.29;542.01;544.73;547.46;550.18;552.9;555.62;558.35;561.07;563.79;566.52;569.24;571.96;574.69;577.41;580.13;582.86;585.58;588.3;591.03;593.75;596.47;599.2;601.92;604.64;607.37;610.09;612.81;615.54;618.26;620.98;623.71;626.43;629.15;631.87;634.6;637.32;640.04;642.77;645.49;648.21;650.94;653.66;656.38;659.11;661.83;664.55;667.28;670.0" dur="8s" repeatCount="indefinite" calcMode="linear"/>
          <animate attributeName="cy" values="334.17;328.65;317.03;301.71;282.27;258.38;230.64;200.43;169.66;140.42;114.74;94.5;81.21;75.83;78.68;89.34;106.83;129.8;156.67;185.82;215.64;244.54;271.01;293.55;310.81;321.68;325.43;321.91;311.94;297.87;279.79;258.17;234.08;208.95;184.45;162.11;143.34;129.33;120.92;118.54;122.12;131.24;145.09;162.66;182.78;204.29;225.95;246.52;264.84;279.8;290.47;296.2;296.52;291.42;281.34;267.1;249.9;231.08;208.48;184.53;161.32;139.08;118.84;102.54;92.26;89.55;94.97;108.11;127.81;152.51;180.46;209.87;239.08;266.49;290.64;309.94;323.07;328.95;327.06;317.43;300.69;278.03;251.0;221.46;191.13;161.84;135.35;113.36;97.37;88.51;87.37;93.85;107.3;126.6;150.39;177.17;205.38;233.52;260.06;283.61;302.74;316.09;322.62;321.72;313.39;298.16;277.09;251.64;223.49;194.48;166.26;140.59;119.07;103.17;94.0;92.16;97.64;109.87;127.84;150.25;175.67;202.67;229.71;255.35;278.15;296.76;309.95;316.64;316.27;308.74;294.57;274.82;250.8;224.1;196.4;169.44;144.85;124.17;108.78;99.73;97.62;102.46;113.75;130.53;151.59;175.55;200.99;226.46;250.65;272.08;289.45;301.58;307.54;306.88;299.55;286.09;267.52;245.17;220.7;195.7;171.74;150.34;132.89;120.49;113.94;113.57;119.26;130.46;146.27;165.58;187.19;209.76;232.06;252.77;270.69;284.69;293.91;297.57;295.36;287.15;273.12;254.02;230.98;205.43;178.99;153.34;130.2;111.24;98.98;94.35;96.81;105.59;119.76;138.28;160.02;183.76;208.25;232.2;254.34;273.43;288.33;298.14;302.24;300.43;292.94;280.38;263.67;243.93;222.38;200.3;178.92;159.47;143.05;130.64;122.96;120.46;123.23;130.97;143.08;158.7;176.8;196.28;215.97;234.76;251.57" dur="8s" repeatCount="indefinite" calcMode="linear"/>
        </circle>
        <circle r="2" fill="white">
          <animate attributeName="cx" values="60.0;62.72;65.45;68.17;70.89;73.62;76.34;79.06;81.79;84.51;87.23;89.96;92.68;95.4;98.12;100.85;103.57;106.29;109.02;111.74;114.46;117.19;119.91;122.63;125.36;128.08;130.8;133.53;136.25;138.97;141.7;144.42;147.14;149.87;152.59;155.31;158.04;160.76;163.48;166.21;168.93;171.65;174.38;177.1;179.82;182.54;185.27;187.99;190.71;193.44;196.16;198.88;201.61;204.33;207.05;209.78;212.5;215.22;217.95;220.67;223.39;226.12;228.84;231.56;234.29;237.01;239.73;242.46;245.18;247.9;250.62;253.35;256.07;258.79;261.52;264.24;266.96;269.69;272.41;275.13;277.86;280.58;283.3;286.03;288.75;291.47;294.2;296.92;299.64;302.37;305.09;307.81;310.54;313.26;315.98;318.71;321.43;324.15;326.88;329.6;332.32;335.04;337.77;340.49;343.21;345.94;348.66;351.38;354.11;356.83;359.55;362.28;365.0;367.72;370.45;373.17;375.89;378.62;381.34;384.06;386.79;389.51;392.23;394.96;397.68;400.4;403.12;405.85;408.57;411.29;414.02;416.74;419.46;422.19;424.91;427.63;430.36;433.08;435.8;438.53;441.25;443.97;446.7;449.42;452.14;454.87;457.59;460.31;463.04;465.76;468.48;471.21;473.93;476.65;479.37;482.1;484.82;487.54;490.27;492.99;495.71;498.44;501.16;503.88;506.61;509.33;512.05;514.78;517.5;520.22;522.95;525.67;528.39;531.12;533.84;536.56;539.29;542.01;544.73;547.46;550.18;552.9;555.62;558.35;561.07;563.79;566.52;569.24;571.96;574.69;577.41;580.13;582.86;585.58;588.3;591.03;593.75;596.47;599.2;601.92;604.64;607.37;610.09;612.81;615.54;618.26;620.98;623.71;626.43;629.15;631.87;634.6;637.32;640.04;642.77;645.49;648.21;650.94;653.66;656.38;659.11;661.83;664.55;667.28;670.0" dur="8s" repeatCount="indefinite" calcMode="linear"/>
          <animate attributeName="cy" values="334.17;328.65;317.03;301.71;282.27;258.38;230.64;200.43;169.66;140.42;114.74;94.5;81.21;75.83;78.68;89.34;106.83;129.8;156.67;185.82;215.64;244.54;271.01;293.55;310.81;321.68;325.43;321.91;311.94;297.87;279.79;258.17;234.08;208.95;184.45;162.11;143.34;129.33;120.92;118.54;122.12;131.24;145.09;162.66;182.78;204.29;225.95;246.52;264.84;279.8;290.47;296.2;296.52;291.42;281.34;267.1;249.9;231.08;208.48;184.53;161.32;139.08;118.84;102.54;92.26;89.55;94.97;108.11;127.81;152.51;180.46;209.87;239.08;266.49;290.64;309.94;323.07;328.95;327.06;317.43;300.69;278.03;251.0;221.46;191.13;161.84;135.35;113.36;97.37;88.51;87.37;93.85;107.3;126.6;150.39;177.17;205.38;233.52;260.06;283.61;302.74;316.09;322.62;321.72;313.39;298.16;277.09;251.64;223.49;194.48;166.26;140.59;119.07;103.17;94.0;92.16;97.64;109.87;127.84;150.25;175.67;202.67;229.71;255.35;278.15;296.76;309.95;316.64;316.27;308.74;294.57;274.82;250.8;224.1;196.4;169.44;144.85;124.17;108.78;99.73;97.62;102.46;113.75;130.53;151.59;175.55;200.99;226.46;250.65;272.08;289.45;301.58;307.54;306.88;299.55;286.09;267.52;245.17;220.7;195.7;171.74;150.34;132.89;120.49;113.94;113.57;119.26;130.46;146.27;165.58;187.19;209.76;232.06;252.77;270.69;284.69;293.91;297.57;295.36;287.15;273.12;254.02;230.98;205.43;178.99;153.34;130.2;111.24;98.98;94.35;96.81;105.59;119.76;138.28;160.02;183.76;208.25;232.2;254.34;273.43;288.33;298.14;302.24;300.43;292.94;280.38;263.67;243.93;222.38;200.3;178.92;159.47;143.05;130.64;122.96;120.46;123.23;130.97;143.08;158.7;176.8;196.28;215.97;234.76;251.57" dur="8s" repeatCount="indefinite" calcMode="linear"/>
        </circle>
      </g>

      <g class="legend" transform="translate(195.0, 20)">
        <rect x="0" y="-14" width="310" height="28" rx="14" fill="rgba(20, 15, 35, 0.8)" stroke="rgba(0, 229, 204, 0.4)" stroke-width="1"/>
        <line x1="20" y1="0" x2="45" y2="0" stroke="rgba(255,255,255,0.4)" stroke-width="2" stroke-dasharray="4 3"/>
        <text x="55" y="4" font-size="11" font-weight="600" fill="rgba(255,255,255,0.7)" font-family="system-ui, sans-serif">Perfect Trajectory</text>
        <line x1="175" y1="-6" x2="175" y2="6" stroke="rgba(255,255,255,0.2)" stroke-width="1"/>
        <line x1="190" y1="0" x2="215" y2="0" stroke="url(#trail-grad-e)" stroke-width="3" stroke-linecap="round"/>
        <text x="225" y="4" font-size="11" font-weight="bold" fill="#ff00cc" font-family="system-ui, sans-serif">Error</text>
      </g>
    </svg>