<svg xmlns="http://www.w3.org/2000/svg" viewBox="0 0 700 600" width="100%" class="trajectory-svg">
      <defs>
        <linearGradient id="trail-grad-t" x1="82.7" y1="0" x2="588.3" y2="0" gradientUnits="userSpaceOnUse">
          <stop offset="0%" stop-color="#aa00ff"/><stop offset="100%" stop-color="#ff00cc"/>
        </linearGradient>
      </defs>

      <rect width="700" height="600" fill="#0d0a1a"/>
      <g class="grid"><line x1="60" y1="60" x2="60" y2="540" stroke="rgba(0,229,204,1)" stroke-width="0.5" opacity="0.06"/>
<line x1="156" y1="60" x2="156" y2="540" stroke="rgba(0,229,204,1)" stroke-width="0.5" opacity="0.06"/>
<line x1="253" y1="60" x2="253" y2="540" stroke="rgba(0,229,204,1)" stroke-width="0.5" opacity="0.06"/>
<line x1="350" y1="60" x2="350" y2="540" stroke="rgba(0,229,204,1)" stroke-width="0.5" opacity="0.06"/>
<line x1="446" y1="60" x2="446" y2="540" stroke="rgba(0,229,204,1)" stroke-width="0.5" opacity="0.06"/>
<line x1="543" y1="60" x2="543" y2="540" stroke="rgba(0,229,204,1)" stroke-width="0.5" opacity="0.06"/>
<line x1="640" y1="60" x2="640" y2="540" stroke="rgba(0,229,204,1)" stroke-width="0.5" opacity="0.06"/>
<line x1="60" y1="60" x2="640" y2="60" stroke="rgba(0,229,204,1)" stroke-width="0.5" opacity="0.18"/>
<line x1="60" y1="140" x2="640" y2="140" stroke="rgba(0,229,204,1)" stroke-width="0.5" opacity="0.18"/>
<line x1="60" y1="220" x2="640" y2="220" stroke="rgba(0,229,204,1)" stroke-width="0.5" opacity="0.18"/>
<line x1="60" y1="300" x2="640" y2="300" stroke="rgba(0,229,204,1)" stroke-width="0.5" opacity="0.18"/>
<line x1="60" y1="380" x2="640" y2="380" stroke="rgba(0,229,204,1)" stroke-width="0.5" opacity="0.18"/>
<line x1="60" y1="460" x2="640" y2="460" stroke="rgba(0,229,204,1)" stroke-width="0.5" opacity="0.18"/>
<line x1="60" y1="540" x2="640" y2="540" stroke="rgba(0,229,204,1)" stroke-width="0.5" opacity="0.18"/>
</g>
      <rect x="60" y="60" width="580" height="480" fill="none" stroke="rgba(0,229,204,0.15)" stroke-width="0.75" rx="4"/>

      <path d="M 533.65,491.55 L 533.65,489.13 L 533.65,486.7 L 533.65,484.28 L 533.65,481.85 L 533.65,479.43 L 533.65,477.0 L 533.65,474.57 L 533.65,472.15 L 533.65,469.72 L 533.65,467.3 L 533.65,464.87 L 533.65,462.44 L 533.65,460.02 L 533.65,457.59 L 533.65,455.17 L 533.65,452.74 L 533.65,450.31 L 533.65,447.89 L 533.65,445.46 L 533.65,443.04 L 533.65,440.61 L 533.65,438.19 L 533.65,435.76 L 533.65,433.33 L 533.65,430.91 L 533.65,428.48 L 533.65,426.06 L 533.65,423.63 L 533.65,421.2 L 533.65,418.78 L 533.65,416.35 L 533.65,413.93 L 533.65,411.5 L 533.65,409.08 L 533.65,406.65 L 533.65,404.22 L 533.65,401.8 L 533.65,399.37 L 533.65,396.95 L 533.65,394.52 L 533.65,392.09 L 533.65,389.67 L 533.65,387.24 L 533.65,384.82 L 533.65,382.39 L 533.65,379.96 L 533.65,377.54 L 533.65,375.11 L 533.65,372.69 L 533.65,370.26 L 533.65,367.84 L 533.65,365.41 L 533.65,362.98 L 533.65,360.56 L 533.65,358.13 L 533.65,355.71 L 533.65,353.28 L 533.65,350.85 L 533.65,348.43 L 533.65,346.0 L 533.65,343.58 L 533.65,341.15 L 533.65,338.72 L 533.65,336.3 L 533.65,333.87 L 533.65,331.45 L 533.65,329.02 L 533.65,326.6 L 533.65,324.17 L 533.65,321.74 L 533.65,319.32 L 533.65,316.89 L 533.65,314.47 L 533.65,312.04 L 533.65,309.61 L 533.65,307.19 L 533.65,304.76 L 533.65,302.34 L 533.65,299.91 L 533.65,297.49 L 533.65,295.06 L 533.65,292.63 L 533.65,290.21 L 533.65,287.78 L 533.65,285.36 L 533.62,282.93 L 533.57,280.5 L 533.49,278.08 L 533.39,275.66 L 533.26,273.23 L 533.1,270.81 L 532.92,268.39 L 532.71,265.98 L 532.48,263.56 L 532.22,261.15 L 531.93,258.74 L 531.62,256.34 L 531.28,253.93 L 530.92,251.54 L 530.53,249.14 L 530.12,246.75 L 529.68,244.37 L 529.21,241.98 L 528.72,239.61 L 528.2,237.24 L 527.66,234.87 L 527.09,232.52 L 526.5,230.16 L 525.88,227.82 L 525.24,225.48 L 524.57,223.15 L 523.88,220.82 L 523.16,218.5 L 522.42,216.2 L 521.65,213.89 L 520.86,211.6 L 520.04,209.32 L 519.2,207.04 L 518.33,204.78 L 517.44,202.52 L 516.53,200.27 L 515.59,198.04 L 514.63,195.81 L 513.64,193.59 L 512.63,191.39 L 511.6,189.19 L 510.54,187.01 L 509.46,184.84 L 508.35,182.68 L 507.23,180.53 L 506.08,178.39 L 504.91,176.27 L 503.71,174.16 L 502.49,172.06 L 501.25,169.98 L 499.99,167.9 L 498.7,165.85 L 497.4,163.8 L 496.07,161.77 L 494.72,159.76 L 493.35,157.76 L 491.95,155.77 L 490.54,153.8 L 489.1,151.85 L 487.64,149.91 L 486.17,147.98 L 484.67,146.07 L 483.15,144.18 L 481.61,142.31 L 480.05,140.45 L 478.47,138.61 L 476.88,136.78 L 475.26,134.97 L 473.62,133.18 L 471.97,131.41 L 470.29,129.66 L 468.6,127.92 L 466.88,126.2 L 465.15,124.5 L 463.4,122.82 L 461.64,121.16 L 459.85,119.51 L 458.05,117.89 L 456.23,116.29 L 454.4,114.7 L 452.54,113.14 L 450.67,111.59 L 448.78,110.07 L 446.88,108.56 L 444.96,107.08 L 443.03,105.61 L 441.08,104.17 L 439.11,102.75 L 437.13,101.35 L 435.14,99.97 L 433.13,98.61 L 431.1,97.28 L 429.06,95.96 L 427.01,94.67 L 424.94,93.4 L 422.86,92.15 L 420.77,90.93 L 418.66,89.72 L 416.54,88.54 L 414.41,87.39 L 412.26,86.25 L 410.11,85.14 L 407.94,84.05 L 405.76,82.99 L 403.57,81.95 L 401.37,80.93 L 399.15,79.94 L 396.93,78.97 L 394.7,78.02 L 392.45,77.1 L 390.2,76.2 L 387.94,75.33 L 385.66,74.48 L 383.38,73.65 L 381.09,72.85 L 378.79,72.08 L 376.49,71.33 L 374.17,70.6 L 371.85,69.9 L 369.52,69.22 L 367.18,68.57 L 364.84,67.94 L 362.49,67.34 L 360.13,66.77 L 357.77,66.22 L 355.4,65.69 L 353.03,65.19 L 350.65,64.72 L 348.27,64.27 L 345.88,63.85 L 343.48,63.45 L 341.09,63.08 L 338.69,62.73 L 336.28,62.41 L 333.87,62.12 L 331.46,61.85 L 329.05,61.61 L 326.63,61.39 L 324.21,61.2 L 321.79,61.04 L 319.37,60.9 L 316.95,60.78 L 314.52,60.7 L 312.1,60.64 L 309.67,60.6 L 307.25,60.59 L 304.82,60.61 L 302.4,60.66 L 299.97,60.73 L 297.55,60.82 L 295.12,60.94 L 292.7,61.09 L 290.28,61.26 L 287.87,61.46 L 285.45,61.69 L 283.04,61.94 L 280.63,62.22 L 278.22,62.52 L 275.82,62.85 L 273.42,63.21 L 271.02,63.59 L 268.63,63.99 L 266.24,64.43 L 263.86,64.88 L 261.48,65.37 L 259.11,65.88 L 256.75,66.41 L 254.38,66.97 L 252.03,67.55 L 249.68,68.16 L 247.34,68.8 L 245.01,69.46 L 242.68,70.14 L 240.36,70.85 L 238.05,71.59 L 235.74,72.35 L 233.45,73.13 L 231.16,73.94 L 228.88,74.78 L 226.62,75.63 L 224.36,76.52 L 222.11,77.42 L 219.87,78.35 L 217.64,79.31 L 215.42,80.29 L 213.21,81.29 L 211.01,82.32 L 208.82,83.37 L 206.65,84.44 L 204.48,85.53 L 202.33,86.65 L 200.19,87.8 L 198.06,88.96 L 195.95,90.15 L 193.84,91.36 L 191.76,92.59 L 189.68,93.85 L 187.62,95.13 L 185.57,96.43 L 183.54,97.75 L 181.52,99.09 L 179.51,100.46 L 177.52,101.84 L 175.54,103.25 L 173.58,104.68 L 171.64,106.13 L 169.71,107.6 L 167.8,109.09 L 165.9,110.61 L 164.02,112.14 L 162.15,113.69 L 160.31,115.26 L 158.48,116.85 L 156.66,118.47 L 154.87,120.1 L 153.09,121.75 L 151.33,123.41 L 149.59,125.1 L 147.86,126.81 L 146.16,128.53 L 144.47,130.28 L 142.8,132.04 L 141.15,133.82 L 139.52,135.61 L 137.91,137.43 L 136.32,139.26 L 134.75,141.11 L 133.2,142.97 L 131.66,144.85 L 130.15,146.75 L 128.66,148.66 L 127.19,150.59 L 125.74,152.54 L 124.31,154.5 L 122.91,156.48 L 121.52,158.47 L 120.16,160.47 L 118.81,162.49 L 117.49,164.53 L 116.19,166.58 L 114.92,168.64 L 113.66,170.71 L 112.43,172.8 L 111.22,174.91 L 110.03,177.02 L 108.87,179.15 L 107.73,181.29 L 106.61,183.44 L 105.51,185.61 L 104.44,187.78 L 103.39,189.97 L 102.37,192.17 L 101.36,194.38 L 100.39,196.6 L 99.43,198.83 L 98.5,201.07 L 97.6,203.32 L 96.72,205.58 L 95.86,207.85 L 95.03,210.13 L 94.22,212.42 L 93.43,214.71 L 92.67,217.02 L 91.94,219.33 L 91.23,221.65 L 90.55,223.97 L 89.89,226.31 L 89.25,228.65 L 88.64,231.0 L 88.06,233.35 L 87.5,235.71 L 86.97,238.08 L 86.46,240.45 L 85.98,242.83 L 85.52,245.21 L 85.09,247.6 L 84.68,249.99 L 84.3,252.39 L 83.95,254.79 L 83.62,257.19 L 83.32,259.6 L 83.04,262.01 L 82.79,264.42 L 82.57,266.84 L 82.37,269.25 L 82.2,271.67 L 82.05,274.09 L 81.93,276.52 L 81.83,278.94 L 81.76,281.37 L 81.72,283.79 L 81.7,286.22 L 81.71,288.64 L 81.75,291.07 L 81.81,293.49 L 81.9,295.92 L 82.01,298.34 L 82.15,300.76 L 82.32,303.18 L 82.51,305.6 L 82.72,308.02 L 82.97,310.43 L 83.24,312.84 L 83.53,315.25 L 83.85,317.66 L 84.2,320.06 L 84.57,322.45 L 84.97,324.85 L 85.39,327.24 L 85.84,329.62 L 86.32,332.0 L 86.82,334.37 L 87.34,336.74 L 87.9,339.1 L 88.47,341.46 L 89.07,343.81 L 89.7,346.15 L 90.35,348.49 L 91.03,350.82 L 91.73,353.14 L 92.46,355.45 L 93.21,357.76 L 93.99,360.06 L 94.79,362.35 L 95.61,364.63 L 96.47,366.9 L 97.34,369.16 L 98.24,371.42 L 99.16,373.66 L 100.11,375.89 L 101.08,378.12 L 102.07,380.33 L 103.09,382.53 L 104.13,384.72 L 105.2,386.9 L 106.29,389.07 L 107.4,391.23 L 108.54,393.37 L 109.69,395.5 L 110.87,397.62 L 112.08,399.73 L 113.3,401.82 L 114.55,403.9 L 115.82,405.97 L 117.12,408.02 L 118.43,410.06 L 119.77,412.08 L 121.12,414.09 L 122.5,416.09 L 123.91,418.07 L 125.33,420.03 L 126.77,421.98 L 128.24,423.92 L 129.72,425.84 L 131.23,427.74 L 132.75,429.62 L 134.3,431.49 L 135.86,433.35 L 137.45,435.18 L 139.05,437.0 L 140.68,438.8 L 142.32,440.59 L 143.98,442.35 L 145.67,444.1 L 147.37,445.83 L 149.09,447.54 L 150.82,449.24 L 152.58,450.91 L 154.35,452.57 L 156.14,454.2 L 157.95,455.82 L 159.78,457.42 L 161.62,459.0 L 163.48,460.55 L 165.35,462.09 L 167.25,463.61 L 169.15,465.11 L 171.08,466.58 L 173.02,468.04 L 174.98,469.47 L 176.95,470.89 L 178.93,472.28 L 180.93,473.65 L 182.95,475.0 L 184.98,476.33 L 187.02,477.64 L 189.08,478.92 L 191.15,480.18 L 193.24,481.42 L 195.34,482.64 L 197.45,483.83 L 199.57,485.01 L 201.71,486.16 L 203.86,487.28 L 206.02,488.38 L 208.19,489.46 L 210.37,490.52 L 212.57,491.55 L 214.78,492.56 L 216.99,493.55 L 219.22,494.51 L 221.46,495.45 L 223.7,496.36 L 225.96,497.25 L 228.23,498.12 L 230.5,498.96 L 232.79,499.77 L 235.08,500.56 L 237.38,501.33 L 239.69,502.07 L 242.01,502.79 L 244.33,503.48 L 246.67,504.15 L 249.0,504.79 L 251.35,505.41 L 253.7,506.0 L 256.06,506.57 L 258.43,507.11 L 260.8,507.63 L 263.17,508.12 L 265.55,508.58 L 267.94,509.02 L 270.33,509.44 L 272.72,509.82 L 275.12,510.19 L 277.53,510.52 L 279.93,510.83 L 282.34,511.12 L 284.75,511.38 L 287.17,511.61 L 289.58,511.82 L 292.0,512.02 L 294.42,512.23 L 296.83,512.44 L 299.25,512.65 L 301.67,512.85 L 304.09,513.06 L 306.5,513.27 L 308.92,513.48 L 311.34,513.68 L 313.75,513.89 L 316.17,514.1 L 318.59,514.3 L 321.0,514.51 L 323.42,514.72 L 325.84,514.93 L 328.26,515.13 L 330.67,515.34 L 333.09,515.55 L 335.51,515.75 L 337.92,515.96 L 340.34,516.17 L 342.76,516.38 L 345.17,516.58 L 347.59,516.79 L 350.01,517.0 L 352.43,517.21 L 354.84,517.41 L 357.26,517.62 L 359.68,517.83 L 362.09,518.03 L 364.51,518.24 L 366.93,518.45 L 369.34,518.66 L 371.76,518.86 L 374.18,519.07 L 376.6,519.28 L 379.01,519.48 L 381.43,519.69 L 383.85,519.9 L 386.26,520.11 L 388.68,520.31 L 391.1,520.52 L 393.51,520.73 L 395.93,520.94 L 398.35,521.14 L 400.77,521.35 L 403.18,521.56 L 405.6,521.76 L 408.02,521.97 L 410.43,522.18 L 412.85,522.39 L 415.27,522.59 L 417.68,522.8 L 420.1,523.01 L 422.52,523.21 L 424.94,523.42 L 427.35,523.63 L 429.77,523.84 L 432.19,524.04 L 434.6,524.25 L 437.02,524.46 L 439.44,524.67 L 441.85,524.87 L 444.27,525.08 L 446.69,525.29 L 449.11,525.49 L 451.52,525.7 L 453.94,525.91 L 456.36,526.12 L 458.77,526.32 L 461.19,526.53 L 463.61,526.74 L 466.02,526.94 L 468.44,527.15 L 470.86,527.36 L 473.28,527.57 L 475.69,527.77 L 478.11,527.98 L 480.53,528.19 L 482.94,528.4 L 485.36,528.6 L 487.78,528.81 L 490.19,529.02 L 492.61,529.22 L 495.03,529.43 L 497.45,529.64 L 499.86,529.85 L 502.28,530.05 L 504.7,530.26 L 507.11,530.47 L 509.53,530.67 L 511.95,530.88 L 514.36,531.09 L 516.78,531.3 L 519.2,531.5 L 521.62,531.71 L 524.03,531.92 L 526.45,532.13 L 528.87,532.33 L 531.28,532.54 L 533.7,532.75 L 536.12,532.95 L 538.53,533.16 L 540.95,533.37 L 543.37,533.58 L 545.79,533.78 L 548.2,533.99 L 550.62,534.2 L 553.04,534.4 L 555.45,534.61 L 557.87,534.82 L 560.29,535.03 L 562.7,535.23 L 565.12,535.44 L 567.54,535.65 L 569.96,535.86 L 572.37,536.06 L 574.79,536.27 L 577.21,536.48 L 579.62,536.68 L 582.04,536.89 L 584.46,537.1 L 586.87,537.31 L 589.29,537.51 L 591.71,537.72 L 594.13,537.93 L 596.54,538.13 L 598.96,538.34 L 601.38,538.55 L 603.79,538.76 L 606.21,538.96 L 608.63,539.17 L 611.04,539.38 L 613.46,539.59 L 615.88,539.79 L 618.3,540.0" fill="none" stroke="rgba(255,255,255,0.38)" stroke-width="1.3" stroke-dasharray="8 5"/>

      <path d="M 542.38,500.29 L 540.89,493.51 L 538.92,486.84 L 538.79,479.87 L 537.1,473.1 L 535.71,466.26 L 534.09,459.47 L 533.18,452.57 L 531.3,445.85 L 530.63,438.9 L 529.54,432.01 L 528.59,425.11 L 528.2,418.16 L 528.28,411.19 L 528.48,404.21 L 528.31,397.24 L 529.5,390.36 L 530.2,383.42 L 531.28,376.52 L 531.62,369.56 L 533.24,362.77 L 533.89,355.83 L 534.93,348.95 L 536.18,342.12 L 536.63,335.18 L 537.64,328.27 L 537.56,321.31 L 538.06,314.39 L 538.03,307.44 L 537.27,300.53 L 537.29,293.56 L 536.04,286.7 L 534.92,279.86 L 533.9,272.99 L 532.02,266.28 L 530.72,259.44 L 528.74,252.8 L 526.83,246.13 L 525.4,239.32 L 522.89,232.82 L 521.2,226.1 L 519.35,219.42 L 516.76,212.97 L 515.1,206.2 L 512.57,199.74 L 510.02,193.31 L 507.92,186.67 L 504.67,180.51 L 502.04,174.09 L 498.98,167.86 L 495.17,162.05 L 492.0,155.85 L 487.83,150.29 L 483.63,144.79 L 479.57,139.14 L 474.54,134.32 L 469.99,129.08 L 464.99,124.26 L 459.44,120.08 L 454.15,115.53 L 447.99,112.25 L 441.92,108.81 L 435.72,105.61 L 429.82,101.9 L 423.43,99.1 L 417.58,95.28 L 411.47,91.97 L 405.38,88.68 L 399.37,85.24 L 392.98,82.47 L 386.98,78.94 L 380.67,76.08 L 374.24,73.49 L 368.03,70.34 L 361.35,68.37 L 354.83,66.03 L 348.2,63.98 L 341.32,62.95 L 334.56,61.31 L 327.63,60.77 L 320.71,60.49 L 313.77,60.0 L 306.85,60.83 L 299.92,61.15 L 293.03,61.88 L 286.26,63.5 L 279.35,64.35 L 272.64,66.12 L 265.97,67.97 L 259.13,69.31 L 252.61,71.73 L 245.92,73.54 L 239.25,75.42 L 232.82,78.1 L 226.1,79.92 L 219.66,82.48 L 213.3,85.22 L 206.69,87.39 L 200.56,90.7 L 194.21,93.49 L 187.99,96.55 L 182.22,100.43 L 176.05,103.65 L 170.49,107.82 L 165.04,112.09 L 159.4,116.16 L 154.61,121.23 L 149.46,125.87 L 144.68,130.89 L 140.52,136.47 L 135.78,141.56 L 131.93,147.35 L 128.08,153.1 L 123.95,158.7 L 120.81,164.92 L 117.06,170.75 L 113.67,176.8 L 110.9,183.17 L 107.3,189.14 L 104.68,195.57 L 101.93,201.92 L 98.84,208.15 L 96.84,214.82 L 94.1,221.2 L 91.89,227.77 L 90.29,234.53 L 87.95,241.1 L 86.78,247.95 L 85.45,254.74 L 84.02,261.54 L 83.8,268.51 L 82.86,275.39 L 82.65,282.32 L 83.11,289.25 L 82.87,296.21 L 83.85,303.1 L 84.61,309.98 L 85.31,316.89 L 87.14,323.61 L 88.19,330.48 L 89.88,337.2 L 92.11,343.78 L 93.61,350.58 L 96.19,357.03 L 98.47,363.57 L 100.65,370.17 L 103.84,376.36 L 106.27,382.86 L 109.29,389.1 L 112.77,395.1 L 115.64,401.46 L 119.53,407.22 L 123.14,413.12 L 126.75,419.05 L 131.28,424.35 L 135.18,430.1 L 139.68,435.37 L 144.5,440.35 L 148.91,445.75 L 154.19,450.28 L 159.22,455.03 L 164.31,459.76 L 170.09,463.64 L 175.39,468.14 L 181.19,471.95 L 187.18,475.42 L 192.89,479.42 L 199.2,482.36 L 205.29,485.65 L 211.43,488.87 L 218.0,491.19 L 224.25,494.24 L 230.8,496.52 L 237.44,498.51 L 243.9,501.09 L 250.72,502.5 L 257.39,504.36 L 264.11,506.1 L 271.03,506.9 L 277.79,508.52 L 284.67,509.33 L 291.58,509.89 L 298.42,511.2 L 305.38,511.38 L 312.25,512.22 L 319.12,513.12 L 326.08,513.23 L 332.94,514.44 L 339.85,514.9 L 346.76,515.38 L 353.61,516.63 L 360.56,516.83 L 367.42,517.85 L 374.28,518.8 L 381.23,519.06 L 388.06,520.4 L 394.98,520.87 L 401.88,521.48 L 408.72,522.71 L 415.69,522.84 L 422.55,523.85 L 429.43,524.59 L 436.38,524.72 L 443.25,525.87 L 450.19,526.04 L 457.1,526.5 L 463.98,527.43 L 470.95,527.33 L 477.84,528.18 L 484.74,528.67 L 491.68,528.71 L 498.57,529.77 L 505.51,529.85 L 512.41,530.38 L 519.29,531.32 L 526.26,531.3 L 533.13,532.34 L 540.03,532.89 L 546.96,533.17 L 553.81,534.41 L 560.76,534.62 L 567.64,535.41 L 574.5,536.44 L 581.46,536.57 L 588.31,537.75" fill="none" stroke="url(#trail-grad-t)" stroke-width="2.5" stroke-linecap="round" stroke-linejoin="round"
            stroke-dasharray="1556.84" stroke-dashoffset="1556.84">
        <animate attributeName="stroke-dashoffset" values="1556.84;1549.9;1542.94;1535.97;1528.99;1522.01;1515.03;1508.07;1501.09;1494.11;1487.14;1480.17;1473.21;1466.24;1459.26;1452.29;1445.3;1438.33;1431.34;1424.38;1417.4;1410.43;1403.47;1396.52;1389.57;1382.59;1375.62;1368.69;1361.74;1354.79;1347.82;1340.84;1333.91;1326.97;1320.0;1313.03;1306.11;1299.17;1292.21;1285.24;1278.31;1271.38;1264.43;1257.46;1250.52;1243.6;1236.64;1229.68;1222.74;1215.8;1208.85;1201.89;1194.94;1188.02;1181.06;1174.09;1167.15;1160.21;1153.26;1146.28;1139.3;1132.33;1125.35;1118.38;1111.4;1104.42;1097.47;1090.54;1083.62;1076.66;1069.69;1062.77;1055.83;1048.87;1041.91;1034.98;1028.04;1021.08;1014.13;1007.18;1000.25;993.29;986.32;979.39;972.46;965.5;958.53;951.59;944.67;937.7;930.75;923.82;916.89;909.92;902.96;896.03;889.1;882.15;875.18;868.24;861.31;854.36;847.4;840.45;833.53;826.57;819.6;812.66;805.73;798.77;791.82;784.86;777.94;770.99;764.02;757.09;750.15;743.21;736.23;729.29;722.37;715.42;708.45;701.51;694.58;687.63;680.66;673.71;666.79;659.84;652.87;645.92;638.99;632.04;625.08;618.12;611.2;604.25;597.29;590.34;583.41;576.46;569.5;562.55;555.63;548.67;541.71;534.77;527.84;520.9;513.93;506.98;500.06;493.12;486.14;479.2;472.27;465.34;458.36;451.41;444.49;437.54;430.58;423.63;416.69;409.76;402.79;395.83;388.91;381.98;375.01;368.05;361.12;354.19;347.23;340.27;333.34;326.4;319.43;312.48;305.55;298.62;291.66;284.7;277.77;270.85;263.88;256.92;249.99;243.07;236.1;229.15;222.22;215.29;208.34;201.37;194.44;187.51;180.56;173.59;166.66;159.74;152.79;145.82;138.88;131.95;125.01;118.04;111.1;104.18;97.24;90.27;83.33;76.41;69.46;62.49;55.55;48.62;41.69;34.73;27.77;20.85;13.91;6.95;0.0" dur="8s" repeatCount="indefinite" calcMode="linear"/>
      </path>

      <g>
        <circle r="9" fill="none" stroke="#ffe566" stroke-width="1.5">
          <animate attributeName="cx" values="542.38;540.89;538.92;538.79;537.1;535.71;534.09;533.18;531.3;530.63;529.54;528.59;528.2;528.28;528.48;528.31;529.5;530.2;531.28;531.62;533.24;533.89;534.93;536.18;536.63;537.64;537.56;538.06;538.03;537.27;537.29;536.04;534.92;533.9;532.02;530.72;528.74;526.83;525.4;522.89;521.2;519.35;516.76;515.1;512.57;510.02;507.92;504.67;502.04;498.98;495.17;492.0;487.83;483.63;479.57;474.54;469.99;464.99;459.44;454.15;447.99;441.92;435.72;429.82;423.43;417.58;411.47;405.38;399.37;392.98;386.98;380.67;374.24;368.03;361.35;354.83;348.2;341.32;334.56;327.63;320.71;313.77;306.85;299.92;293.03;286.26;279.35;272.64;265.97;259.13;252.61;245.92;239.25;232.82;226.1;219.66;213.3;206.69;200.56;194.21;187.99;182.22;176.05;170.49;165.04;159.4;154.61;149.46;144.68;140.52;135.78;131.93;128.08;123.95;120.81;117.06;113.67;110.9;107.3;104.68;101.93;98.84;96.84;94.1;91.89;90.29;87.95;86.78;85.45;84.02;83.8;82.86;82.65;83.11;82.87;83.85;84.61;85.31;87.14;88.19;89.88;92.11;93.61;96.19;98.47;100.65;103.84;106.27;109.29;112.77;115.64;119.53;123.14;126.75;131.28;135.18;139.68;144.5;148.91;154.19;159.22;164.31;170.09;175.39;181.19;187.18;192.89;199.2;205.29;211.43;218.0;224.25;230.8;237.44;243.9;250.72;257.39;264.11;271.03;277.79;284.67;291.58;298.42;305.38;312.25;319.12;326.08;332.94;339.85;346.76;353.61;360.56;367.42;374.28;381.23;388.06;394.98;401.88;408.72;415.69;422.55;429.43;436.38;443.25;450.19;457.1;463.98;470.95;477.84;484.74;491.68;498.57;505.51;512.41;519.29;526.26;533.13;540.03;546.96;553.81;560.76;567.64;574.5;581.46;588.31" dur="8s" repeatCount="indefinite" calcMode="linear"/>
          <animate attributeName="cy" values="500.29;493.51;486.84;479.87;473.1;466.26;459.47;452.57;445.85;438.9;432.01;425.11;418.16;411.19;404.21;397.24;390.36;383.42;376.52;369.56;362.77;355.83;348.95;342.12;335.18;328.27;321.31;314.39;307.44;300.53;293.56;286.7;279.86;272.99;266.28;259.44;252.8;246.13;239.32;232.82;226.1;219.42;212.97;206.2;199.74;193.31;186.67;180.51;174.09;167.86;162.05;155.85;150.29;144.79;139.14;134.32;129.08;124.26;120.08;115.53;112.25;108.81;105.61;101.9;99.1;95.28;91.97;88.68;85.24;82.47;78.94;76.08;73.49;70.34;68.37;66.03;63.98;62.95;61.31;60.77;60.49;60.0;60.83;61.15;61.88;63.5;64.35;66.12;67.97;69.31;71.73;73.54;75.42;78.1;79.92;82.48;85.22;87.39;90.7;93.49;96.55;100.43;103.65;107.82;112.09;116.16;121.23;125.87;130.89;136.47;141.56;147.35;153.1;158.7;164.92;170.75;176.8;183.17;189.14;195.57;201.92;208.15;214.82;221.2;227.77;234.53;241.1;247.95;254.74;261.54;268.51;275.39;282.32;289.25;296.21;303.1;309.98;316.89;323.61;330.48;337.2;343.78;350.58;357.03;363.57;370.17;376.36;382.86;389.1;395.1;401.46;407.22;413.12;419.05;424.35;430.1;435.37;440.35;445.75;450.28;455.03;459.76;463.64;468.14;471.95;475.42;479.42;482.36;485.65;488.87;491.19;494.24;496.52;498.51;501.09;502.5;504.36;506.1;506.9;508.52;509.33;509.89;511.2;511.38;512.22;513.12;513.23;514.44;514.9;515.38;516.63;516.83;517.85;518.8;519.06;520.4;520.87;521.48;522.71;522.84;523.85;524.59;524.72;525.87;526.04;526.5;527.43;527.33;528.18;528.67;528.71;529.77;529.85;530.38;531.32;531.3;532.34;532.89;533.17;534.41;534.62;535.41;536.44;536.57;537.75" dur="8s" repeatCount="indefinite" calcMode="linear"/>
          <animate attributeName="r" values="9;24;9" dur="2s" repeatCount="indefinite"/>
          <animate attributeName="opacity" values="0.8;0;0.8" dur="2s" repeatCount="indefinite"/>
        </circle>
        <circle r="5.5" fill="#ffe566">
          <animate attributeName="cx" values="542.38;540.89;538.92;538.79;537.1;535.71;534.09;533.18;531.3;530.63;529.54;528.59;528.2;528.28;528.48;528.31;529.5;530.2;531.28;531.62;533.24;533.89;534.93;536.18;536.63;537.64;537.56;538.06;538.03;537.27;537.29;536.04;534.92;533.9;532.02;530.72;528.74;526.83;525.4;522.89;521.2;519.35;516.76;515.1;512.57;510.02;507.92;504.67;502.04;498.98;495.17;492.0;487.83;483.63;479.57;474.54;469.99;464.99;459.44;454.15;447.99;441.92;435.72;429.82;423.43;417.58;411.47;405.38;399.37;392.98;386.98;380.67;374.24;368.03;361.35;354.83;348.2;341.32;334.56;327.63;320.71;313.77;306.85;299.92;293.03;286.26;279.35;272.64;265.97;259.13;252.61;245.92;239.25;232.82;226.1;219.66;213.3;206.69;200.56;194.21;187.99;182.22;176.05;170.49;165.04;159.4;154.61;149.46;144.68;140.52;135.78;131.93;128.08;123.95;120.81;117.06;113.67;110.9;107.3;104.68;101.93;98.84;96.84;94.1;91.89;90.29;87.95;86.78;85.45;84.02;83.8;82.86;82.65;83.11;82.87;83.85;84.61;85.31;87.14;88.19;89.88;92.11;93.61;96.19;98.47;100.65;103.84;106.27;109.29;112.77;115.64;119.53;123.14;126.75;131.28;135.18;139.68;144.5;148.91;154.19;159.22;164.31;170.09;175.39;181.19;187.18;192.89;199.2;205.29;211.43;218.0;224.25;230.8;237.44;243.9;250.72;257.39;264.11;271.03;277.79;284.67;291.58;298.42;305.38;312.25;319.12;326.08;332.94;339.85;346.76;353.61;360.56;367.42;374.28;381.23;388.06;394.98;401.88;408.72;415.69;422.55;429.43;436.38;443.25;450.19;457.1;463.98;470.95;477.84;484.74;491.68;498.57;505.51;512.41;519.29;526.26;533.13;540.03;546.96;553.81;560.76;567.64;574.5;581.46;588.31" dur="8s" repeatCount="indefinite" calcMode="linear"/>
          <animate attributeName="cy" values="500.29;493.51;486.84;479.87;473.1;466.26;459.47;452.57;445.85;438.9;432.01;425.11;418.16;411.19;404.21;397.24;390.36;383.42;376.52;369.56;362.77;355.83;348.95;342.12;335.18;328.27;321.31;314.39;307.44;300.53;293.56;286.7;279.86;272.99;266.28;259.44;252.8;246.13;239.32;232.82;226.1;219.42;212.97;206.2;199.74;193.31;186.67;180.51;174.09;167.86;162.05;155.85;150.29;144.79;139.14;134.32;129.08;124.26;120.08;115.53;112.25;108.81;105.61;101.9;99.1;95.28;91.97;88.68;85.24;82.47;78.94;76.08;73.49;70.34;68.37;66.03;63.98;62.95;61.31;60.77;60.49;60.0;60.83;61.15;61.88;63.5;64.35;66.12;67.97;69.31;71.73;73.54;75.42;78.1;79.92;82.48;85.22;87.39;90.7;93.49;96.55;100.43;103.65;107.82;112.09;116.16;121.23;125.87;130.89;136.47;141.56;147.35;153.1;158.7;164.92;170.75;176.8;183.17;189.14;195.57;201.92;208.15;214.82;221.2;227.77;234.53;241.1;247.95;254.74;261.54;268.51;275.39;282.32;289.25;296.21;303.1;309.98;316.89;323.61;330.48;337.2;343.78;350.58;357.03;363.57;370.17;376.36;382.86;389.1;395.1;401.46;407.22;413.12;419.05;424.35;430.1;435.37;440.35;445.75;450.28;455.03;459.76;463.64;468.14;471.95;475.42;479.42;482.36;485.65;488.87;491.19;494.24;496.52;498.51;501.09;502.5;504.36;506.1;506.9;508.52;509.33;509.89;511.2;511.38;512.22;513.12;513.23;514.44;514.9;515.38;516.63;516.83;517.85;518.8;519.06;520.4;520.87;521.48;522.71;522.84;523.85;524.59;524.72;525.87;526.04;526.5;527.43;527.33;528.18;528.67;528.71;529.77;529.85;530.38;531.32;531.3;532.34;532.89;533.17;534.41;534.62;535.41;536.44;536.57;537.75" dur="8s" repeatCount="indefinite" calcMode="linear"/>
        </circle>
        <circle r="2" fill="white">
          <animate attributeName="cx" values="542.38;540.89;538.92;538.79;537.1;535.71;534.09;533.18;531.3;530.63;529.54;528.59;528.2;528.28;528.48;528.31;529.5;530.2;531.28;531.62;533.24;533.89;534.93;536.18;536.63;537.64;537.56;538.06;538.03;537.27;537.29;536.04;534.92;533.9;532.02;530.72;528.74;526.83;525.4;522.89;521.2;519.35;516.76;515.1;512.57;510.02;507.92;504.67;502.04;498.98;495.17;492.0;487.83;483.63;479.57;474.54;469.99;464.99;459.44;454.15;447.99;441.92;435.72;429.82;423.43;417.58;411.47;405.38;399.37;392.98;386.98;380.67;374.24;368.03;361.35;354.83;348.2;341.32;334.56;327.63;320.71;313.77;306.85;299.92;293.03;286.26;279.35;272.64;265.97;259.13;252.61;245.92;239.25;232.82;226.1;219.66;213.3;206.69;200.56;194.21;187.99;182.22;176.05;170.49;165.04;159.4;154.61;149.46;144.68;140.52;135.78;131.93;128.08;123.95;120.81;117.06;113.67;110.9;107.3;104.68;101.93;98.84;96.84;94.1;91.89;90.29;87.95;86.78;85.45;84.02;83.8;82.86;82.65;83.11;82.87;83.85;84.61;85.31;87.14;88.19;89.88;92.11;93.61;96.19;98.47;100.65;103.84;106.27;109.29;112.77;115.64;119.53;123.14;126.75;131.28;135.18;139.68;144.5;148.91;154.19;159.22;164.31;170.09;175.39;181.19;187.18;192.89;199.2;205.29;211.43;218.0;224.25;230.8;237.44;243.9;250.72;257.39;264.11;271.03;277.79;284.67;291.58;298.42;305.38;312.25;319.12;326.08;332.94;339.85;346.76;353.61;360.56;367.42;374.28;381.23;388.06;394.98;401.88;408.72;415.69;422.55;429.43;436.38;443.25;450.19;457.1;463.98;470.95;477.84;484.74;491.68;498.57;505.51;512.41;519.29;526.26;533.13;540.03;546.96;553.81;560.76;567.64;574.5;581.46;588.31" dur="8s" repeatCount="indefinite" calcMode="linear"/>
          <animate attributeName="cy" values="500.29;493.51;486.84;479.87;473.1;466.26;459.47;452.57;445.85;438.9;432.01;425.11;418.16;411.19;404.21;397.24;390.36;383.42;376.52;369.56;362.77;355.83;348.95;342.12;335.18;328.27;321.31;314.39;307.44;300.53;293.56;286.7;279.86;272.99;266.28;259.44;252.8;246.13;239.32;232.82;226.1;219.42;212.97;206.2;199.74;193.31;186.67;180.51;174.09;167.86;162.05;155.85;150.29;144.79;139.14;134.32;129.08;124.26;120.08;115.53;112.25;108.81;105.61;101.9;99.1;95.28;91.97;88.68;85.24;82.47;78.94;76.08;73.49;70.34;68.37;66.03;63.98;62.95;61.31;60.77;60.49;60.0;60.83;61.15;61.88;63.5;64.35;66.12;67.97;69.31;71.73;73.54;75.42;78.1;79.92;82.48;85.22;87.39;90.7;93.49;96.55;100.43;103.65;107.82;112.09;116.16;121.23;125.87;130.89;136.47;141.56;147.35;153.1;158.7;164.92;170.75;176.8;183.17;189.14;195.57;201.92;208.15;214.82;221.2;227.77;234.53;241.1;247.95;254.74;261.54;268.51;275.39;282.32;289.25;296.21;303.1;309.98;316.89;323.61;330.48;337.2;343.78;350.58;357.03;363.57;370.17;376.36;382.86;389.1;395.1;401.46;407.22;413.12;419.05;424.35;430.1;435.37;440.35;445.75;450.28;455.03;459.76;463.64;468.14;471.95;475.42;479.42;482.36;485.65;488.87;491.19;494.24;496.52;498.51;501.09;502.5;504.36;506.1;506.9;508.52;509.33;509.89;511.2;511.38;512.22;513.12;513.23;514.44;514.9;515.38;516.63;516.83;517.85;518.8;519.06;520.4;520.87;521.48;522.71;522.84;523.85;524.59;524.72;525.87;526.04;526.5;527.43;527.33;528.18;528.67;528.71;529.77;529.85;530.38;531.32;531.3;532.34;532.89;533.17;534.41;534.62;535.41;536.44;536.57;537.75" dur="8s" repeatCount="indefinite" calcMode="linear"/>
        </circle>
      </g>

      <g class="legend" transform="translate(195.0, 570)">
        <rect x="0" y="-14" width="310" height="28" rx="14" fill="rgba(20, 15, 35, 0.8)" stroke="rgba(0, 229, 204, 0.4)" stroke-width="1"/>
        <line x1="20" y1="0" x2="45" y2="0" stroke="rgba(255,255,255,0.4)" stroke-width="2" stroke-dasharray="4 3"/>
        <text x="55" y="4" font-size="11" font-weight="600" fill="rgba(255,255,255,0.7)" font-family="system-ui, sans-serif">Reference</text>
        <line x1="150" y1="-6" x2="150" y2="6" stroke="rgba(255,255,255,0.2)" stroke-width="1"/>
        <line x1="165" y1="0" x2="190" y2="0" stroke="url(#trail-grad-t)" stroke-width="3" stroke-linecap="round"/>
        <text x="200" y="4" font-size="11" font-weight="bold" fill="#ff00cc" font-family="system-ui, sans-serif">Real Trajectory</text>
      </g>
    </svg>