<svg xmlns="http://www.w3.org/2000/svg" viewBox="0 0 700 400" width="100%" class="trajectory-svg">
      <defs>
        <linearGradient id="trail-grad-e" x1="60" y1="0" x2="670" y2="0" gradientUnits="userSpaceOnUse">
          <stop offset="0%" stop-color="#aa00ff"/><stop offset="100%" stop-color="#ff00cc"/>
        </linearGradient>
      </defs>

      <rect width="700" height="400" fill="#0d0a1a"/>
      <g class="grid"><line x1="60.0" y1="50" x2="60.0" y2="360" stroke="rgba(0,229,204,1)" stroke-width="0.5" opacity="0.06"/>
<line x1="161.66666666666669" y1="50" x2="161.66666666666669" y2="360" stroke="rgba(0,229,204,1)" stroke-width="0.5" opacity="0.06"/>
<line x1="263.33333333333337" y1="50" x2="263.33333333333337" y2="360" stroke="rgba(0,229,204,1)" stroke-width="0.5" opacity="0.06"/>
<line x1="365.0" y1="50" x2="365.0" y2="360" stroke="rgba(0,229,204,1)" stroke-width="0.5" opacity="0.06"/>
<line x1="466.6666666666667" y1="50" x2="466.6666666666667" y2="360" stroke="rgba(0,229,204,1)" stroke-width="0.5" opacity="0.06"/>
<line x1="568.3333333333333" y1="50" x2="568.3333333333333" y2="360" stroke="rgba(0,229,204,1)" stroke-width="0.5" opacity="0.06"/>
<line x1="670.0" y1="50" x2="670.0" y2="360" stroke="rgba(0,229,204,1)" stroke-width="0.5" opacity="0.06"/>
<line x1="60" y1="50.0" x2="670" y2="50.0" stroke="rgba(0,229,204,1)" stroke-width="0.5" opacity="0.18"/>
<line x1="60" y1="101.66666666666666" x2="670" y2="101.66666666666666" stroke="rgba(0,229,204,1)" stroke-width="0.5" opacity="0.18"/>
<line x1="60" y1="153.33333333333331" x2="670" y2="153.33333333333331" stroke="rgba(0,229,204,1)" stroke-width="0.5" opacity="0.18"/>
<line x1="60" y1="205.0" x2="670" y2="205.0" stroke="rgba(0,229,204,1)" stroke-width="0.5" opacity="0.18"/>
<line x1="60" y1="256.66666666666663" x2="670" y2="256.66666666666663" stroke="rgba(0,229,204,1)" stroke-width="0.5" opacity="0.18"/>
<line x1="60" y1="308.3333333333333" x2="670" y2="308.3333333333333" stroke="rgba(0,229,204,1)" stroke-width="0.5" opacity="0.18"/>
<line x1="60" y1="360.0" x2="670" y2="360.0" stroke="rgba(0,229,204,1)" stroke-width="0.5" opacity="0.18"/>
</g>
      <line x1="60" y1="175.13" x2="670" y2="175.13" stroke="rgba(255,255,255,0.5)" stroke-width="1.5" stroke-dasharray="6 6"/>
      <rect x="60" y="50" width="610" height="310" fill="none" stroke="rgba(0,229,204,0.15)" stroke-width="0.75" rx="4"/>

      <g class="axis-labels"><text x="60.0" y="380" font-size="10" fill="rgba(255,255,255,0.6)" text-anchor="middle" font-family="system-ui, sans-serif">0.1s</text>
<text x="161.66666666666669" y="380" font-size="10" fill="rgba(255,255,255,0.6)" text-anchor="middle" font-family="system-ui, sans-serif">7.6s</text>
<text x="263.33333333333337" y="380" font-size="10" fill="rgba(255,255,255,0.6)" text-anchor="middle" font-family="system-ui, sans-serif">15.0s</text>
<text x="365.0" y="380" font-size="10" fill="rgba(255,255,255,0.6)" text-anchor="middle" font-family="system-ui, sans-serif">22.5s</text>
<text x="466.6666666666667" y="380" font-size="10" fill="rgba(255,255,255,0.6)" text-anchor="middle" font-family="system-ui, sans-serif">30.0s</text>
<text x="568.3333333333333" y="380" font-size="10" fill="rgba(255,255,255,0.6)" text-anchor="middle" font-family="system-ui, sans-serif">37.4s</text>
<text x="670.0" y="380" font-size="10" fill="rgba(255,255,255,0.6)" text-anchor="middle" font-family="system-ui, sans-serif">44.9s</text>
<text x="50" y="54.0" font-size="10" fill="rgba(255,255,255,0.6)" text-anchor="end" font-family="system-ui, sans-serif">0.39</text>
<text x="50" y="105.66666666666666" font-size="10" fill="rgba(255,255,255,0.6)" text-anchor="end" font-family="system-ui, sans-serif">0.23</text>
<text x="50" y="157.33333333333331" font-size="10" fill="rgba(255,255,255,0.6)" text-anchor="end" font-family="system-ui, sans-serif">0.07</text>
<text x="50" y="209.0" font-size="10" fill="rgba(255,255,255,0.6)" text-anchor="end" font-family="system-ui, sans-serif">-0.09</text>
<text x="50" y="260.66666666666663" font-size="10" fill="rgba(255,255,255,0.6)" text-anchor="end" font-family="system-ui, sans-serif">-0.26</text>
<text x="50" y="312.3333333333333" font-size="10" fill="rgba(255,255,255,0.6)" text-anchor="end" font-family="system-ui, sans-serif">-0.42</text>
<text x="50" y="364.0" font-size="10" fill="rgba(255,255,255,0.6)" text-anchor="end" font-family="system-ui, sans-serif">-0.58</text>
</g>
      <text x="50" y="35" font-size="11" font-weight="bold" fill="rgba(0,229,204,0.8)" text-anchor="end" font-family="system-ui, sans-serif">Error (m)</text>
      <text x="670" y="395" font-size="11" font-weight="bold" fill="rgba(0,229,204,0.8)" text-anchor="end" font-family="system-ui, sans-serif">Time (s)</text>

      <path d="M 60.0,334.17 L 62.72,307.07 L 65.45,271.18 L 68.17,268.66 L 70.89,237.94 L 73.62,212.57 L 76.34,183.19 L 79.06,166.53 L 81.79,132.25 L 84.51,120.17 L 87.23,100.26 L 89.96,83.01 L 92.68,75.83 L 95.4,77.4 L 98.12,81.0 L 100.85,77.89 L 103.57,99.48 L 106.29,112.28 L 109.02,132.03 L 111.74,138.25 L 114.46,167.61 L 117.19,179.55 L 119.91,198.44 L 122.63,221.24 L 125.36,229.35 L 128.08,247.84 L 130.8,246.4 L 133.53,255.45 L 136.25,255.22 L 138.97,242.92 L 141.7,246.23 L 144.42,228.7 L 147.14,215.67 L 149.87,207.17 L 152.59,185.96 L 155.31,178.41 L 158.04,161.34 L 160.76,149.12 L 163.48,149.47 L 166.21,132.97 L 168.93,135.73 L 171.65,139.25 L 174.38,132.28 L 177.1,147.18 L 179.82,149.05 L 182.54,154.22 L 185.27,172.22 L 187.99,171.54 L 190.71,186.88 L 193.44,197.5 L 196.16,196.38 L 198.88,212.81 L 201.61,211.4 L 204.33,212.71 L 207.05,221.73 L 209.78,211.25 L 212.5,216.35 L 215.22,214.01 L 217.95,200.3 L 220.67,198.58 L 223.39,172.88 L 226.12,154.41 L 228.84,134.8 L 231.56,129.79 L 234.29,110.15 L 237.01,115.34 L 239.73,114.23 L 242.46,116.9 L 245.18,126.53 L 247.9,126.24 L 250.62,145.33 L 253.35,155.02 L 256.07,163.2 L 258.79,186.14 L 261.52,189.9 L 264.24,204.79 L 266.96,218.01 L 269.69,215.91 L 272.41,229.21 L 275.13,225.81 L 277.86,221.71 L 280.58,225.32 L 283.3,208.77 L 286.03,205.36 L 288.75,198.35 L 291.47,178.84 L 294.2,177.44 L 296.92,162.81 L 299.64,150.45 L 302.37,151.79 L 305.09,136.69 L 307.81,137.05 L 310.54,139.89 L 313.26,131.58 L 315.98,143.76 L 318.71,145.46 L 321.43,147.47 L 324.15,164.7 L 326.88,163.37 L 329.6,176.18 L 332.32,187.56 L 335.04,185.67 L 337.77,201.82 L 340.49,201.24 L 343.21,201.99 L 345.94,211.49 L 348.66,200.94 L 351.38,204.75 L 354.11,202.59 L 356.83,189.11 L 359.55,193.32 L 362.28,180.94 L 365.0,172.66 L 367.72,174.31 L 370.45,158.44 L 373.17,159.65 L 375.89,157.3 L 378.62,145.89 L 381.34,155.43 L 384.06,149.04 L 386.79,149.44 L 389.51,160.2 L 392.23,153.64 L 394.96,165.36 L 397.68,170.69 L 400.4,168.57 L 403.12,184.05 L 405.85,181.57 L 408.57,186.18 L 411.29,196.39 L 414.02,188.08 L 416.74,196.97 L 419.46,196.55 L 422.19,187.69 L 424.91,195.63 L 427.63,185.1 L 430.36,182.39 L 433.08,184.92 L 435.8,170.35 L 438.53,174.2 L 441.25,169.91 L 443.97,159.42 L 446.7,166.83 L 449.42,157.36 L 452.14,157.51 L 454.87,163.86 L 457.59,154.13 L 460.31,163.29 L 463.04,164.69 L 465.76,160.42 L 468.48,173.13 L 471.21,168.2 L 473.93,172.84 L 476.65,181.55 L 479.37,173.95 L 482.1,184.37 L 484.82,184.83 L 487.54,181.11 L 490.27,192.01 L 492.99,184.57 L 495.71,187.03 L 498.44,192.25 L 501.16,181.57 L 503.88,188.91 L 506.61,184.73 L 509.33,177.41 L 512.05,184.94 L 514.78,174.14 L 517.5,174.58 L 520.22,177.64 L 522.95,166.41 L 525.67,173.55 L 528.39,169.55 L 531.12,163.93 L 533.84,173.46 L 536.56,164.58 L 539.29,168.3 L 542.01,173.51 L 544.73,164.57 L 547.46,173.45 L 550.18,169.26 L 552.9,162.39 L 555.62,170.38 L 558.35,158.78 L 561.07,160.1 L 563.79,163.11 L 566.52,152.18 L 569.24,161.87 L 571.96,158.1 L 574.69,154.98 L 577.41,166.23 L 580.13,158.32 L 582.86,165.61 L 585.58,171.71 L 588.3,165.36 L 591.03,178.66 L 593.75,176.24 L 596.47,176.45 L 599.2,187.94 L 601.92,179.48 L 604.64,187.0 L 607.37,189.58 L 610.09,181.11 L 612.81,191.15 L 615.54,183.48 L 618.26,180.99 L 620.98,187.23 L 623.71,174.47 L 626.43,179.29 L 629.15,177.29 L 631.87,167.26 L 634.6,175.82 L 637.32,166.35 L 640.04,165.33 L 642.77,171.59 L 645.49,160.43 L 648.21,168.64 L 650.94,167.85 L 653.66,162.22 L 656.38,174.05 L 659.11,167.06 L 661.83,170.73 L 664.55,178.7 L 667.28,170.16 L 670.0,181.01" fill="none" stroke="url(#trail-grad-e)" stroke-width="2.5" stroke-linecap="round" stroke-linejoin="round"
            stroke-dasharray="2117.51" stroke-dashoffset="2117.51">
        <animate attributeName="stroke-dashoffset" values="2117.51;2090.27;2054.28;2050.57;2019.73;1994.21;1964.71;1947.83;1913.44;1901.05;1880.96;1863.49;1855.82;1852.68;1848.16;1844.03;1822.27;1809.18;1789.24;1782.45;1752.97;1740.72;1721.63;1698.67;1690.12;1671.43;1668.35;1658.9;1656.17;1643.57;1639.28;1621.54;1608.23;1599.3;1577.92;1569.89;1552.6;1540.09;1537.34;1520.62;1516.74;1512.3;1504.81;1489.66;1486.36;1480.52;1462.31;1459.51;1443.93;1432.97;1430.03;1413.37;1410.3;1407.28;1397.86;1387.03;1381.25;1377.66;1363.68;1360.46;1334.62;1315.95;1296.15;1290.45;1270.62;1264.76;1261.82;1258.01;1248.0;1245.26;1225.98;1215.91;1207.29;1184.19;1179.55;1164.41;1150.91;1147.47;1133.89;1129.54;1124.61;1120.09;1103.32;1098.95;1091.43;1071.74;1068.67;1053.79;1041.13;1038.09;1022.75;1020.0;1016.06;1007.32;994.84;991.62;988.24;970.8;967.76;954.67;942.97;939.65;923.27;920.49;917.67;907.79;896.89;892.21;888.73;874.98;869.97;857.29;848.57;845.39;829.29;826.31;822.72;810.98;801.06;794.12;791.36;780.26;773.16;761.13;755.14;751.69;735.98;732.29;726.94;716.37;707.62;698.33;695.57;686.3;677.91;667.03;663.19;659.47;644.65;639.93;634.85;624.02;616.12;606.27;603.54;596.63;586.53;576.97;573.9;568.84;555.84;550.21;544.83;535.7;527.63;516.86;514.1;509.49;498.26;490.33;486.67;480.78;469.76;461.93;456.94;449.13;441.12;429.98;427.23;423.13;411.57;403.93;399.1;392.85;382.94;373.65;369.04;363.16;353.81;344.52;339.53;332.14;323.7;311.78;308.76;304.7;293.44;283.37;278.72;274.58;263.0;254.64;246.85;240.18;233.27;219.69;216.05;213.32;201.51;192.62;184.63;180.87;171.98;161.57;153.43;149.74;142.94;129.89;124.35;120.98;110.59;101.6;91.75;88.84;82.01;70.53;61.88;59.04;52.78;40.65;33.14;28.57;20.15;11.19;0.0" dur="8s" repeatCount="indefinite" calcMode="linear"/>
      </path>

      <g>
        <circle r="9" fill="none" stroke="#ffe566" stroke-width="1.5">
          <animate attributeName="cx" values="60.0;62.72;65.45;68.17;70.89;73.62;76.34;79.06;81.79;84.51;87.23;89.96;92.68;95.4;98.12;100.85;103.57;106.29;109.02;111.74;114.46;117.19;119.91;122.63;125.36;128.08;130.8;133.53;136.25;138.97;141.7;144.42;147.14;149.87;152.59;155.31;158.04;160.76;163.48;166.21;168.93;171.65;174.38;177.1;179.82;182.54;185.27;187.99;190.71;193.44;196.16;198.88;201.61;204.33;207.05;209.78;212.5;215.22;217.95;220.67;223.39;226.12;228.84;231.56;234.29;237.01;239.73;242.46;245.18;247.9;250.62;253.35;256.07;258.79;261.52;264.24;266.96;269.69;272.41;275.13;277.86;280.58;283.3;286.03;288.75;291.47;294.2;296.92;299.64;302.37;305.09;307.81;310.54;313.26;315.98;318.71;321.43;324.15;326.88;329.6;332.32;335.04;337.77;340.49;343.21;345.94;348.66;351.38;354.11;356.83;359.55;362.28;365.0;367.72;370.45;373.17;375.89;378.62;381.34;384.06;386.79;389.51;392.23;394.96;397.68;400.4;403.12;405.85;408.57;411.29;414.02;416.74;419.46;422.19;424.91;427.63;430.36;433.08;435.8;438.53;441.25;443.97;446.7;449.42;452.14;454.87;457.59;460.31;463.04;465.76;468.48;471.21;473.93;476.65;479.37;482.1;484.82;487.54;490.27;492.99;495.71;498.44;501.16;503.88;506.61;509.33;512.05;514.78;517.5;520.22;522.95;525.67;528.39;531.12;533.84;536.56;539.29;542.01;544.73;547.46;550.18;552.9;555.62;558.35;561.07;563.79;566.52;569.24;571.96;574.69;577.41;580.13;582.86;585.58;588.3;591.03;593.75;596.47;599.2;601.92;604.64;607.37;610.09;612.81;615.54;618.26;620.98;623.71;626.43;629.15;631.87;634.6;637.32;640.04;642.77;645.49;648.21;650.94;653.66;656.38;659.11;661.83;664.55;667.28;670.0" dur="8s" repeatCount="indefinite" calcMode="linear"/>
          <animate attributeName="cy" values="334.17;307.07;271.18;268.66;237.94;212.57;183.19;166.53;132.25;120.17;100.26;83.01;75.83;77.4;81.0;77.89;99.48;112.28;132.03;138.25;167.61;179.55;198.44;221.24;229.35;247.84;246.4;255.45;255.22;242.92;246.23;228.7;215.67;207.17;185.96;178.41;161.34;149.12;149.47;132.97;135.73;139.25;132.28;147.18;149.05;154.22;172.22;171.54;186.88;197.5;196.38;212.81;211.4;212.71;221.73;211.25;216.35;214.01;200.3;198.58;172.88;154.41;134.8;129.79;110.15;115.34;114.23;116.9;126.53;126.24;145.33;155.02;163.2;186.14;189.9;204.79;218.01;215.91;229.21;225.81;221.71;225.32;208.77;205.36;198.35;178.84;177.44;162.81;150.45;151.79;136.69;137.05;139.89;131.58;143.76;145.46;147.47;164.7;163.37;176.18;187.56;185.67;201.82;201.24;201.99;211.49;200.94;204.75;202.59;189.11;193.32;180.94;172.66;174.31;158.44;159.65;157.3;145.89;155.43;149.04;149.44;160.2;153.64;165.36;170.69;168.57;184.05;181.57;186.18;196.39;188.08;196.97;196.55;187.69;195.63;185.1;182.39;184.92;170.35;174.2;169.91;159.42;166.83;157.36;157.51;163.86;154.13;163.29;164.69;160.42;173.13;168.2;172.84;181.55;173.95;184.37;184.83;181.11;192.01;184.57;187.03;192.25;181.57;188.91;184.73;177.41;184.94;174.14;174.58;177.64;166.41;173.55;169.55;163.93;173.46;164.58;168.3;173.51;164.57;173.45;169.26;162.39;170.38;158.78;160.1;163.11;152.18;161.87;158.1;154.98;166.23;158.32;165.61;171.71;165.36;178.66;176.24;176.45;187.94;179.48;187.0;189.58;181.11;191.15;183.48;180.99;187.23;174.47;179.29;177.29;167.26;175.82;166.35;165.33;171.59;160.43;168.64;167.85;162.22;174.05;167.06;170.73;178.7;170.16;181.01" dur="8s" repeatCount="indefinite" calcMode="linear"/>
          <animate attributeName="r" values="9;24;9" dur="2s" repeatCount="indefinite"/>
          <animate attributeName="opacity" values="0.8;0;0.8" dur="2s" repeatCount="indefinite"/>
        </circle>
        <circle r="5.5" fill="#ffe566">
          <animate attributeName="cx" values="60.0;62.72;65.45;68.17;70.89;73.62;76.34;79.06;81.79;84.51;87.23;89.96;92.68;95.4;98.12;100.85;103.57;106.29;109.02;111.74;114.46;117.19;119.91;122.63;125.36;128.08;130.8;133.53;136.25;138.97;141.7;144.42;147.14;149.87;152.59;155.31;158.04;160.76;163.48;166.21;168.93;171.65;174.38;177.1;179.82;182.54;185.27;187.99;190.71;193.44;196.16;198.88;201.61;204.33;207.05;209.78;212.5;215.22;217.95;220.67;223.39;226.12;228.84;231.56;234.29;237.01;239.73;242.46;245.18;247.9;250.62;253.35;256.07;258.79;261.52;264.24;266.96;269.69;272.41;275.13;277.86;280.58;283.3;286.03;288.75;291.47;294.2;296.92;299.64;302.37;305.09;307.81;310.54;313.26;315.98;318.71;321.43;324.15;326.88;329.6;332.32;335.04;337.77;340.49;343.21;345.94;348.66;351.38;354.11;356.83;359.55;362.28;365.0;367.72;370.45;373.17;375.89;378.62;381.34;384.06;386.79;389.51;392.23;394.96;397.68;400.4;403.12;405.85;408.57;411.29;414.02;416.74;419.46;422.19;424.91;427.63;430.36;433.08;435.8;438.53;441.25;443.97;446.7;449.42;452.14;454.87;457.59;460.31;463.04;465.76;468.48;471.21;473.93;476.65;479.37;482.1;484.82;487.54;490.27;492.99;495.71;498.44;501.16;503.88;506.61;509.33;512.05;514.78;517.5;520.22;522.95;525.67;528.39;531.12;533.84;536.56;539.29;542.01;544.73;547.46;550.18;552.9;555.62;558.35;561.07;563.79;566.52;569.24;571.96;574.69;577.41;580.13;582.86;585.58;588.3;591.03;593.75;596.47;599.2;601.92;604.64;607.37;610.09;612.81;615.54;618.26;620.98;623.71;626.43;629.15;631.87;634.6;637.32;640.04;642.77;645.49;648.21;650.94;653.66;656.38;659.11;661.83;664.55;667.28;670.0" dur="8s" repeatCount="indefinite" calcMode="linear"/>
          <animate attributeName="cy" values="334.17;307.07;271.18;268.66;237.94;212.57;183.19;166.53;132.25;120.17;100.26;83.01;75.83;77.4;81.0;77.89;99.48;112.28;132.03;138.25;167.61;179.55;198.44;221.24;229.35;247.84;246.4;255.45;255.22;242.92;246.23;228.7;215.67;207.17;185.96;178.41;161.34;149.12;149.47;132.97;135.73;139.25;132.28;147.18;149.05;154.22;172.22;171.54;186.88;197.5;196.38;212.81;211.4;212.71;221.73;211.25;216.35;214.01;200.3;198.58;172.88;154.41;134.8;129.79;110.15;115.34;114.23;116.9;126.53;126.24;145.33;155.02;163.2;186.14;189.9;204.79;218.01;215.91;229.21;225.81;221.71;225.32;208.77;205.36;198.35;178.84;177.44;162.81;150.45;151.79;136.69;137.05;139.89;131.58;143.76;145.46;147.47;164.7;163.37;176.18;187.56;185.67;201.82;201.24;201.99;211.49;200.94;204.75;202.59;189.11;193.32;180.94;172.66;174.31;158.44;159.65;157.3;145.89;155.43;149.04;149.44;160.2;153.64;165.36;170.69;168.57;184.05;181.57;186.18;196.39;188.08;196.97;196.55;187.69;195.63;185.1;182.39;184.92;170.35;174.2;169.91;159.42;166.83;157.36;157.51;163.86;154.13;163.29;164.69;160.42;173.13;168.2;172.84;181.55;173.95;184.37;184.83;181.11;192.01;184.57;187.03;192.25;181.57;188.91;184.73;177.41;184.94;174.14;174.58;177.64;166.41;173.55;169.55;163.93;173.46;164.58;168.3;173.51;164.57;173.45;169.26;162.39;170.38;158.78;160.1;163.11;152.18;161.87;158.1;154.98;166.23;158.32;165.61;171.71;165.36;178.66;176.24;176.45;187.94;179.48;187.0;189.58;181.11;191.15;183.48;180.99;187.23;174.47;179.29;177.29;167.26;175.82;166.35;165.33;171.59;160.43;168.64;167.85;162.22;174.05;167.06;170.73;178.7;170.16;181.01" dur="8s" repeatCount="indefinite" calcMode="linear"/>
        </circle>
        <circle r="2" fill="white">
          <animate attributeName="cx" values="60.0;62.72;65.45;68.17;70.89;73.62;76.34;79.06;81.79;84.51;87.23;89.96;92.68;95.4;98.12;100.85;103.57;106.29;109.02;111.74;114.46;117.19;119.91;122.63;125.36;128.08;130.8;133.53;136.25;138.97;141.7;144.42;147.14;149.87;152.59;155.31;158.04;160.76;163.48;166.21;168.93;171.65;174.38;177.1;179.82;182.54;185.27;187.99;190.71;193.44;196.16;198.88;201.61;204.33;207.05;209.78;212.5;215.22;217.95;220.67;223.39;226.12;228.84;231.56;234.29;237.01;239.73;242.46;245.18;247.9;250.62;253.35;256.07;258.79;261.52;264.24;266.96;269.69;272.41;275.13;277.86;280.58;283.3;286.03;288.75;291.47;294.2;296.92;299.64;302.37;305.09;307.81;310.54;313.26;315.98;318.71;321.43;324.15;326.88;329.6;332.32;335.04;337.77;340.49;343.21;345.94;348.66;351.38;354.11;356.83;359.55;362.28;365.0;367.72;370.45;373.17;375.89;378.62;381.34;384.06;386.79;389.51;392.23;394.96;397.68;400.4;403.12;405.85;408.57;411.29;414.02;416.74;419.46;422.19;424.91;427.63;430.36;433.08;435.8;438.53;441.25;443.97;446.7;449.42;452.14;454.87;457.59;460.31;463.04;465.76;468.48;471.21;473.93;476.65;479.37;482.1;484.82;487.54;490.27;492.99;495.71;498.44;501.16;503.88;506.61;509.33;512.05;514.78;517.5;520.22;522.95;525.67;528.39;531.12;533.84;536.56;539.29;542.01;544.73;547.46;550.18;552.9;555.62;558.35;561.07;563.79;566.52;569.24;571.96;574.69;577.41;580.13;582.86;585.58;588.3;591.03;593.75;596.47;599.2;601.92;604.64;607.37;610.09;612.81;615.54;618.26;620.98;623.71;626.43;629.15;631.87;634.6;637.32;640.04;642.77;645.49;648.21;650.94;653.66;656.38;659.11;661.83;664.55;667.28;670.0" dur="8s" repeatCount="indefinite" calcMode="linear"/>
          <animate attributeName="cy" values="334.17;307.07;271.18;268.66;237.94;212.57;183.19;166.53;132.25;120.17;100.26;83.01;75.83;77.4;81.0;77.89;99.48;112.28;132.03;138.25;167.61;179.55;198.44;221.24;229.35;247.84;246.4;255.45;255.22;242.92;246.23;228.7;215.67;207.17;185.96;178.41;161.34;149.12;149.47;132.97;135.73;139.25;132.28;147.18;149.05;154.22;172.22;171.54;186.88;197.5;196.38;212.81;211.4;212.71;221.73;211.25;216.35;214.01;200.3;198.58;172.88;154.41;134.8;129.79;110.15;115.34;114.23;116.9;126.53;126.24;145.33;155.02;163.2;186.14;189.9;204.79;218.01;215.91;229.21;225.81;221.71;225.32;208.77;205.36;198.35;178.84;177.44;162.81;150.45;151.79;136.69;137.05;139.89;131.58;143.76;145.46;147.47;164.7;163.37;176.18;187.56;185.67;201.82;201.24;201.99;211.49;200.94;204.75;202.59;189.11;193.32;180.94;172.66;174.31;158.44;159.65;157.3;145.89;155.43;149.04;149.44;160.2;153.64;165.36;170.69;168.57;184.05;181.57;186.18;196.39;188.08;196.97;196.55;187.69;195.63;185.1;182.39;184.92;170.35;174.2;169.91;159.42;166.83;157.36;157.51;163.86;154.13;163.29;164.69;160.42;173.13;168.2;172.84;181.55;173.95;184.37;184.83;181.11;192.01;184.57;187.03;192.25;181.57;188.91;184.73;177.41;184.94;174.14;174.58;177.64;166.41;173.55;169.55;163.93;173.46;164.58;168.3;173.51;164.57;173.45;169.26;162.39;170.38;158.78;160.1;163.11;152.18;161.87;158.1;154.98;166.23;158.32;165.61;171.71;165.36;178.66;176.24;176.45;187.94;179.48;187.0;189.58;181.11;191.15;183.48;180.99;187.23;174.47;179.29;177.29;167.26;175.82;166.35;165.33;171.59;160.43;168.64;167.85;162.22;174.05;167.06;170.73;178.7;170.16;181.01" dur="8s" repeatCount="indefinite" calcMode="linear"/>
        </circle>
      </g>

      <g class="legend" transform="translate(195.0, 20)">
        <rect x="0" y="-14" width="310" height="28" rx="14" fill="rgba(20, 15, 35, 0.8)" stroke="rgba(0, 229, 204, 0.4)" stroke-width="1"/>
        <line x1="20" y1="0" x2="45" y2="0" stroke="rgba(255,255,255,0.4)" stroke-width="2" stroke-dasharray="4 3"/>
        <text x="55" y="4" font-size="11" font-weight="600" fill="rgba(255,255,255,0.7)" font-family="system-ui, sans-serif">Perfect Trajectory</text>
        <line x1="175" y1="-6" x2="175" y2="6" stroke="rgba(255,255,255,0.2)" stroke-width="1"/>
        <line x1="190" y1="0" x2="215" y2="0" stroke="url(#trail-grad-e)" stroke-width="3" stroke-linecap="round"/>
        <text x="225" y="4" font-size="11" font-weight="bold" fill="#ff00cc" font-family="system-ui, sans-serif">Error</text>
      </g>
    </svg>