<svg xmlns="http://www.w3.org/2000/svg"
     viewBox="0 0 700 400" width="100%" class="trajectory-svg">

  <defs>
    <linearGradient id="steer-grad" x1="60" y1="0" x2="670" y2="0" gradientUnits="userSpaceOnUse">
      <stop offset="0%"   stop-color="#aa00ff"/>
      <stop offset="100%" stop-color="#ff00cc"/>
    </linearGradient>
  </defs>

  <rect width="700" height="400" fill="#0d0a1a"/>
  <g class="grid"><line x1="60.0" y1="50" x2="60.0" y2="360" stroke="rgba(0,229,204,1)" stroke-width="0.5" opacity="0.06"/>
<line x1="161.66666666666669" y1="50" x2="161.66666666666669" y2="360" stroke="rgba(0,229,204,1)" stroke-width="0.5" opacity="0.06"/>
<line x1="263.33333333333337" y1="50" x2="263.33333333333337" y2="360" stroke="rgba(0,229,204,1)" stroke-width="0.5" opacity="0.06"/>
<line x1="365.0" y1="50" x2="365.0" y2="360" stroke="rgba(0,229,204,1)" stroke-width="0.5" opacity="0.06"/>
<line x1="466.6666666666667" y1="50" x2="466.6666666666667" y2="360" stroke="rgba(0,229,204,1)" stroke-width="0.5" opacity="0.06"/>
<line x1="568.3333333333333" y1="50" x2="568.3333333333333" y2="360" stroke="rgba(0,229,204,1)" stroke-width="0.5" opacity="0.06"/>
<line x1="670.0" y1="50" x2="670.0" y2="360" stroke="rgba(0,229,204,1)" stroke-width="0.5" opacity="0.06"/>
<line x1="60" y1="50.0" x2="670" y2="50.0" stroke="rgba(0,229,204,1)" stroke-width="0.5" opacity="0.18"/>
<line x1="60" y1="112.0" x2="670" y2="112.0" stroke="rgba(0,229,204,1)" stroke-width="0.5" opacity="0.18"/>
<line x1="60" y1="174.0" x2="670" y2="174.0" stroke="rgba(0,229,204,1)" stroke-width="0.5" opacity="0.18"/>
<line x1="60" y1="236.0" x2="670" y2="236.0" stroke="rgba(0,229,204,1)" stroke-width="0.5" opacity="0.18"/>
<line x1="60" y1="298.0" x2="670" y2="298.0" stroke="rgba(0,229,204,1)" stroke-width="0.5" opacity="0.18"/>
<line x1="60" y1="360.0" x2="670" y2="360.0" stroke="rgba(0,229,204,1)" stroke-width="0.5" opacity="0.18"/>
</g>
  <line x1="60" y1="244.87" x2="670" y2="244.87" stroke="rgba(255,255,255,0.35)" stroke-width="1" stroke-dasharray="5 5"/>
  <rect x="60" y="50" width="610" height="310"
        fill="none" stroke="rgba(0,229,204,0.15)" stroke-width="0.75" rx="4"/>
  <g class="axis-labels"><text x="60.0" y="378" font-size="10" fill="rgba(255,255,255,0.5)" text-anchor="middle" font-family="'JetBrains Mono',monospace">0.1s</text>
<text x="161.66666666666669" y="378" font-size="10" fill="rgba(255,255,255,0.5)" text-anchor="middle" font-family="'JetBrains Mono',monospace">7.6s</text>
<text x="263.33333333333337" y="378" font-size="10" fill="rgba(255,255,255,0.5)" text-anchor="middle" font-family="'JetBrains Mono',monospace">15.0s</text>
<text x="365.0" y="378" font-size="10" fill="rgba(255,255,255,0.5)" text-anchor="middle" font-family="'JetBrains Mono',monospace">22.5s</text>
<text x="466.6666666666667" y="378" font-size="10" fill="rgba(255,255,255,0.5)" text-anchor="middle" font-family="'JetBrains Mono',monospace">30.0s</text>
<text x="568.3333333333333" y="378" font-size="10" fill="rgba(255,255,255,0.5)" text-anchor="middle" font-family="'JetBrains Mono',monospace">37.4s</text>
<text x="670.0" y="378" font-size="10" fill="rgba(255,255,255,0.5)" text-anchor="middle" font-family="'JetBrains Mono',monospace">44.9s</text>
<text x="52" y="54.0" font-size="10" fill="rgba(255,255,255,0.5)" text-anchor="end" font-family="'JetBrains Mono',monospace">0.501</text>
<text x="52" y="116.0" font-size="10" fill="rgba(255,255,255,0.5)" text-anchor="end" font-family="'JetBrains Mono',monospace">0.342</text>
<text x="52" y="178.0" font-size="10" fill="rgba(255,255,255,0.5)" text-anchor="end" font-family="'JetBrains Mono',monospace">0.182</text>
<text x="52" y="240.0" font-size="10" fill="rgba(255,255,255,0.5)" text-anchor="end" font-family="'JetBrains Mono',monospace">0.023</text>
<text x="52" y="302.0" font-size="10" fill="rgba(255,255,255,0.5)" text-anchor="end" font-family="'JetBrains Mono',monospace">-0.137</text>
<text x="52" y="364.0" font-size="10" fill="rgba(255,255,255,0.5)" text-anchor="end" font-family="'JetBrains Mono',monospace">-0.296</text>
</g>

  <!-- Labels axes -->
  <text x="52" y="36" font-size="10" letter-spacing="1" font-weight="500"
        fill="rgba(0,229,204,0.75)" text-anchor="end"
        font-family="'JetBrains Mono',monospace">δF (rad)</text>
  <text x="670" y="395" font-size="10" letter-spacing="1" font-weight="500"
        fill="rgba(0,229,204,0.75)" text-anchor="end"
        font-family="'JetBrains Mono',monospace">Time (s)</text>

  <!-- Tracé animé -->
  <path d="M 60.0,123.14 L 62.72,86.66 L 65.45,80.0 L 68.17,105.42 L 70.89,155.01 L 73.62,210.52 L 76.34,256.46 L 79.06,288.89 L 81.79,310.15 L 84.51,323.06 L 87.23,329.33 L 89.96,330.0 L 92.68,326.0 L 95.4,318.34 L 98.12,307.94 L 100.85,295.39 L 103.57,281.07 L 106.29,265.29 L 109.02,248.48 L 111.74,231.27 L 114.46,214.57 L 117.19,199.53 L 119.91,187.4 L 122.63,179.38 L 125.36,176.25 L 128.08,178.1 L 130.8,184.41 L 133.53,194.61 L 136.25,195.51 L 138.97,205.51 L 141.7,214.58 L 144.42,221.58 L 147.14,232.5 L 149.87,235.76 L 152.59,237.56 L 155.31,238.39 L 158.04,237.96 L 160.76,235.6 L 163.48,231.63 L 166.21,225.62 L 168.93,218.2 L 171.65,209.52 L 174.38,200.65 L 177.1,199.83 L 179.82,191.02 L 182.54,183.32 L 185.27,177.28 L 187.99,172.77 L 190.71,170.56 L 193.44,170.36 L 196.16,172.18 L 198.88,184.01 L 201.61,188.91 L 204.33,195.21 L 207.05,202.55 L 209.78,208.26 L 212.5,216.82 L 215.22,104.12 L 217.95,139.01 L 220.67,187.93 L 223.39,240.34 L 226.12,267.45 L 228.84,277.58 L 231.56,273.77 L 234.29,261.15 L 237.01,245.0 L 239.73,228.98 L 242.46,214.66 L 245.18,201.46 L 247.9,189.63 L 250.62,178.41 L 253.35,168.08 L 256.07,166.9 L 258.79,159.75 L 261.52,155.42 L 264.24,154.23 L 266.96,156.32 L 269.69,161.06 L 272.41,167.83 L 275.13,184.4 L 277.86,192.71 L 280.58,201.23 L 283.3,209.68 L 286.03,217.82 L 288.75,225.05 L 291.47,230.58 L 294.2,234.28 L 296.92,235.13 L 299.64,242.64 L 302.37,237.72 L 305.09,230.41 L 307.81,221.48 L 310.54,211.45 L 313.26,201.18 L 315.98,191.06 L 318.71,181.48 L 321.43,173.41 L 324.15,167.24 L 326.88,163.29 L 329.6,169.78 L 332.32,170.03 L 335.04,172.23 L 337.77,176.01 L 340.49,180.95 L 343.21,186.63 L 345.94,192.83 L 348.66,198.89 L 351.38,214.09 L 354.11,219.88 L 356.83,224.62 L 359.55,227.7 L 362.28,229.06 L 365.0,228.34 L 367.72,225.6 L 370.45,221.14 L 373.17,215.0 L 375.89,207.91 L 378.62,200.14 L 381.34,192.6 L 384.06,193.89 L 386.79,187.11 L 389.51,181.54 L 392.23,177.58 L 394.96,175.21 L 397.68,174.42 L 400.4,175.02 L 403.12,176.97 L 405.85,179.72 L 408.57,192.55 L 411.29,197.12 L 414.02,201.86 L 416.74,206.35 L 419.46,210.29 L 422.19,213.77 L 424.91,216.27 L 427.63,217.41 L 430.36,217.47 L 433.08,215.8 L 435.8,212.83 L 438.53,217.85 L 441.25,212.72 L 443.97,206.98 L 446.7,201.04 L 449.42,195.02 L 452.14,189.74 L 454.87,185.07 L 457.59,181.24 L 460.31,178.39 L 463.04,177.09 L 465.76,185.55 L 468.48,186.29 L 471.21,189.97 L 473.93,194.98 L 476.65,199.88 L 479.37,203.35 L 482.1,205.95 L 484.82,207.74 L 487.54,208.89 L 490.27,208.91 L 492.99,217.49 L 495.71,215.98 L 498.44,213.68 L 501.16,210.73 L 503.88,207.03 L 506.61,203.14 L 509.33,198.85 L 512.05,194.93 L 514.78,191.33 L 517.5,187.97 L 520.22,185.51 L 522.95,192.43 L 525.67,191.21 L 528.39,190.56 L 531.12,190.8 L 533.84,191.75 L 536.56,193.07 L 539.29,195.66 L 542.01,203.95 L 544.73,216.29 L 547.46,229.75 L 550.18,245.48 L 552.9,255.02 L 555.62,261.76 L 558.35,265.68 L 561.07,267.11 L 563.79,261.32 L 566.52,261.37 L 569.24,261.43 L 571.96,260.2 L 574.69,257.53 L 577.41,252.61 L 580.13,246.58 L 582.86,240.22 L 585.58,234.28 L 588.3,229.31 L 591.03,225.65 L 593.75,223.43 L 596.47,222.75 L 599.2,223.37 L 601.92,225.23 L 604.64,228.15 L 607.37,231.92 L 610.09,236.31 L 612.81,241.06 L 615.54,245.87 L 618.26,250.49 L 620.98,254.61 L 623.71,258.0 L 626.43,260.47 L 629.15,261.88 L 631.87,262.17 L 634.6,261.38 L 637.32,259.6 L 640.04,256.99 L 642.77,253.73 L 645.49,250.05 L 648.21,246.19 L 650.94,242.38 L 653.66,238.85 L 656.38,235.8 L 659.11,233.42 L 661.83,231.82 L 664.55,231.08 L 667.28,231.23 L 670.0,232.2" fill="none" stroke="url(#steer-grad)"
        stroke-width="2.5" stroke-linecap="round" stroke-linejoin="round"
        stroke-dasharray="1894.89" stroke-dashoffset="1894.89">
    <animate attributeName="stroke-dashoffset"
             values="1894.89;1858.31;1851.11;1825.55;1775.88;1720.3;1674.28;1641.74;1620.31;1607.11;1600.28;1597.47;1592.63;1584.5;1573.75;1560.91;1546.33;1530.32;1513.29;1495.86;1478.94;1463.66;1451.23;1442.76;1438.61;1435.32;1428.44;1417.89;1415.02;1404.66;1395.19;1387.68;1376.42;1372.17;1368.91;1366.06;1363.3;1359.7;1354.89;1348.29;1340.38;1331.29;1322.01;1319.17;1309.95;1301.78;1295.15;1289.88;1286.38;1283.64;1280.37;1268.23;1262.62;1255.76;1247.93;1241.6;1232.62;1119.89;1084.89;1035.9;983.42;956.17;945.68;941.0;928.09;911.71;895.46;880.88;867.4;855.27;843.72;833.04;830.07;822.42;817.3;814.33;810.9;805.43;798.14;781.35;772.6;763.65;754.78;746.19;738.47;732.3;727.71;724.86;716.87;711.24;703.44;694.11;683.71;673.09;662.61;652.65;644.13;637.39;632.59;625.55;622.82;619.32;614.66;609.02;602.72;595.95;589.3;573.86;567.46;562.0;557.89;554.84;552.02;548.16;542.93;536.22;528.62;520.39;512.37;509.36;502.05;495.86;491.05;487.44;484.6;481.82;478.47;474.6;461.48;456.16;450.69;445.44;440.66;436.23;432.54;429.59;426.86;423.67;419.64;413.93;408.12;401.77;395.23;388.62;382.68;377.27;372.58;368.64;365.61;356.73;353.91;349.33;343.63;338.02;333.61;329.84;326.59;323.63;320.9;311.9;308.79;305.22;301.21;296.62;291.86;286.78;282.01;277.5;273.17;269.5;262.07;259.08;256.29;253.55;250.67;247.64;243.88;235.16;222.52;208.78;192.82;182.9;175.63;170.86;167.78;161.39;158.66;155.93;152.95;149.13;143.51;136.89;129.97;123.44;117.77;113.21;109.7;106.89;104.09;100.8;96.81;92.15;86.99;81.52;75.99;70.62;65.69;61.33;57.66;54.6;51.86;49.02;45.77;42.0;37.75;33.17;28.45;23.76;19.3;15.22;11.6;8.44;5.62;2.89;0.0" dur="8s"
             repeatCount="indefinite" calcMode="linear"/>
  </path>

  <!-- Robot -->
  <circle r="9" fill="none" stroke="#ffe566" stroke-width="1.5">
    <animate attributeName="cx" values="60.0;62.72;65.45;68.17;70.89;73.62;76.34;79.06;81.79;84.51;87.23;89.96;92.68;95.4;98.12;100.85;103.57;106.29;109.02;111.74;114.46;117.19;119.91;122.63;125.36;128.08;130.8;133.53;136.25;138.97;141.7;144.42;147.14;149.87;152.59;155.31;158.04;160.76;163.48;166.21;168.93;171.65;174.38;177.1;179.82;182.54;185.27;187.99;190.71;193.44;196.16;198.88;201.61;204.33;207.05;209.78;212.5;215.22;217.95;220.67;223.39;226.12;228.84;231.56;234.29;237.01;239.73;242.46;245.18;247.9;250.62;253.35;256.07;258.79;261.52;264.24;266.96;269.69;272.41;275.13;277.86;280.58;283.3;286.03;288.75;291.47;294.2;296.92;299.64;302.37;305.09;307.81;310.54;313.26;315.98;318.71;321.43;324.15;326.88;329.6;332.32;335.04;337.77;340.49;343.21;345.94;348.66;351.38;354.11;356.83;359.55;362.28;365.0;367.72;370.45;373.17;375.89;378.62;381.34;384.06;386.79;389.51;392.23;394.96;397.68;400.4;403.12;405.85;408.57;411.29;414.02;416.74;419.46;422.19;424.91;427.63;430.36;433.08;435.8;438.53;441.25;443.97;446.7;449.42;452.14;454.87;457.59;460.31;463.04;465.76;468.48;471.21;473.93;476.65;479.37;482.1;484.82;487.54;490.27;492.99;495.71;498.44;501.16;503.88;506.61;509.33;512.05;514.78;517.5;520.22;522.95;525.67;528.39;531.12;533.84;536.56;539.29;542.01;544.73;547.46;550.18;552.9;555.62;558.35;561.07;563.79;566.52;569.24;571.96;574.69;577.41;580.13;582.86;585.58;588.3;591.03;593.75;596.47;599.2;601.92;604.64;607.37;610.09;612.81;615.54;618.26;620.98;623.71;626.43;629.15;631.87;634.6;637.32;640.04;642.77;645.49;648.21;650.94;653.66;656.38;659.11;661.83;664.55;667.28;670.0" dur="8s" repeatCount="indefinite" calcMode="linear"/>
    <animate attributeName="cy" values="123.14;86.66;80.0;105.42;155.01;210.52;256.46;288.89;310.15;323.06;329.33;330.0;326.0;318.34;307.94;295.39;281.07;265.29;248.48;231.27;214.57;199.53;187.4;179.38;176.25;178.1;184.41;194.61;195.51;205.51;214.58;221.58;232.5;235.76;237.56;238.39;237.96;235.6;231.63;225.62;218.2;209.52;200.65;199.83;191.02;183.32;177.28;172.77;170.56;170.36;172.18;184.01;188.91;195.21;202.55;208.26;216.82;104.12;139.01;187.93;240.34;267.45;277.58;273.77;261.15;245.0;228.98;214.66;201.46;189.63;178.41;168.08;166.9;159.75;155.42;154.23;156.32;161.06;167.83;184.4;192.71;201.23;209.68;217.82;225.05;230.58;234.28;235.13;242.64;237.72;230.41;221.48;211.45;201.18;191.06;181.48;173.41;167.24;163.29;169.78;170.03;172.23;176.01;180.95;186.63;192.83;198.89;214.09;219.88;224.62;227.7;229.06;228.34;225.6;221.14;215.0;207.91;200.14;192.6;193.89;187.11;181.54;177.58;175.21;174.42;175.02;176.97;179.72;192.55;197.12;201.86;206.35;210.29;213.77;216.27;217.41;217.47;215.8;212.83;217.85;212.72;206.98;201.04;195.02;189.74;185.07;181.24;178.39;177.09;185.55;186.29;189.97;194.98;199.88;203.35;205.95;207.74;208.89;208.91;217.49;215.98;213.68;210.73;207.03;203.14;198.85;194.93;191.33;187.97;185.51;192.43;191.21;190.56;190.8;191.75;193.07;195.66;203.95;216.29;229.75;245.48;255.02;261.76;265.68;267.11;261.32;261.37;261.43;260.2;257.53;252.61;246.58;240.22;234.28;229.31;225.65;223.43;222.75;223.37;225.23;228.15;231.92;236.31;241.06;245.87;250.49;254.61;258.0;260.47;261.88;262.17;261.38;259.6;256.99;253.73;250.05;246.19;242.38;238.85;235.8;233.42;231.82;231.08;231.23;232.2" dur="8s" repeatCount="indefinite" calcMode="linear"/>
    <animate attributeName="r"       values="9;22;9"   dur="2s" repeatCount="indefinite"/>
    <animate attributeName="opacity" values="0.8;0;0.8" dur="2s" repeatCount="indefinite"/>
  </circle>
  <circle r="5.5" fill="#ffe566">
    <animate attributeName="cx" values="60.0;62.72;65.45;68.17;70.89;73.62;76.34;79.06;81.79;84.51;87.23;89.96;92.68;95.4;98.12;100.85;103.57;106.29;109.02;111.74;114.46;117.19;119.91;122.63;125.36;128.08;130.8;133.53;136.25;138.97;141.7;144.42;147.14;149.87;152.59;155.31;158.04;160.76;163.48;166.21;168.93;171.65;174.38;177.1;179.82;182.54;185.27;187.99;190.71;193.44;196.16;198.88;201.61;204.33;207.05;209.78;212.5;215.22;217.95;220.67;223.39;226.12;228.84;231.56;234.29;237.01;239.73;242.46;245.18;247.9;250.62;253.35;256.07;258.79;261.52;264.24;266.96;269.69;272.41;275.13;277.86;280.58;283.3;286.03;288.75;291.47;294.2;296.92;299.64;302.37;305.09;307.81;310.54;313.26;315.98;318.71;321.43;324.15;326.88;329.6;332.32;335.04;337.77;340.49;343.21;345.94;348.66;351.38;354.11;356.83;359.55;362.28;365.0;367.72;370.45;373.17;375.89;378.62;381.34;384.06;386.79;389.51;392.23;394.96;397.68;400.4;403.12;405.85;408.57;411.29;414.02;416.74;419.46;422.19;424.91;427.63;430.36;433.08;435.8;438.53;441.25;443.97;446.7;449.42;452.14;454.87;457.59;460.31;463.04;465.76;468.48;471.21;473.93;476.65;479.37;482.1;484.82;487.54;490.27;492.99;495.71;498.44;501.16;503.88;506.61;509.33;512.05;514.78;517.5;520.22;522.95;525.67;528.39;531.12;533.84;536.56;539.29;542.01;544.73;547.46;550.18;552.9;555.62;558.35;561.07;563.79;566.52;569.24;571.96;574.69;577.41;580.13;582.86;585.58;588.3;591.03;593.75;596.47;599.2;601.92;604.64;607.37;610.09;612.81;615.54;618.26;620.98;623.71;626.43;629.15;631.87;634.6;637.32;640.04;642.77;645.49;648.21;650.94;653.66;656.38;659.11;661.83;664.55;667.28;670.0" dur="8s" repeatCount="indefinite" calcMode="linear"/>
    <animate attributeName="cy" values="123.14;86.66;80.0;105.42;155.01;210.52;256.46;288.89;310.15;323.06;329.33;330.0;326.0;318.34;307.94;295.39;281.07;265.29;248.48;231.27;214.57;199.53;187.4;179.38;176.25;178.1;184.41;194.61;195.51;205.51;214.58;221.58;232.5;235.76;237.56;238.39;237.96;235.6;231.63;225.62;218.2;209.52;200.65;199.83;191.02;183.32;177.28;172.77;170.56;170.36;172.18;184.01;188.91;195.21;202.55;208.26;216.82;104.12;139.01;187.93;240.34;267.45;277.58;273.77;261.15;245.0;228.98;214.66;201.46;189.63;178.41;168.08;166.9;159.75;155.42;154.23;156.32;161.06;167.83;184.4;192.71;201.23;209.68;217.82;225.05;230.58;234.28;235.13;242.64;237.72;230.41;221.48;211.45;201.18;191.06;181.48;173.41;167.24;163.29;169.78;170.03;172.23;176.01;180.95;186.63;192.83;198.89;214.09;219.88;224.62;227.7;229.06;228.34;225.6;221.14;215.0;207.91;200.14;192.6;193.89;187.11;181.54;177.58;175.21;174.42;175.02;176.97;179.72;192.55;197.12;201.86;206.35;210.29;213.77;216.27;217.41;217.47;215.8;212.83;217.85;212.72;206.98;201.04;195.02;189.74;185.07;181.24;178.39;177.09;185.55;186.29;189.97;194.98;199.88;203.35;205.95;207.74;208.89;208.91;217.49;215.98;213.68;210.73;207.03;203.14;198.85;194.93;191.33;187.97;185.51;192.43;191.21;190.56;190.8;191.75;193.07;195.66;203.95;216.29;229.75;245.48;255.02;261.76;265.68;267.11;261.32;261.37;261.43;260.2;257.53;252.61;246.58;240.22;234.28;229.31;225.65;223.43;222.75;223.37;225.23;228.15;231.92;236.31;241.06;245.87;250.49;254.61;258.0;260.47;261.88;262.17;261.38;259.6;256.99;253.73;250.05;246.19;242.38;238.85;235.8;233.42;231.82;231.08;231.23;232.2" dur="8s" repeatCount="indefinite" calcMode="linear"/>
  </circle>
  <circle r="2" fill="white">
    <animate attributeName="cx" values="60.0;62.72;65.45;68.17;70.89;73.62;76.34;79.06;81.79;84.51;87.23;89.96;92.68;95.4;98.12;100.85;103.57;106.29;109.02;111.74;114.46;117.19;119.91;122.63;125.36;128.08;130.8;133.53;136.25;138.97;141.7;144.42;147.14;149.87;152.59;155.31;158.04;160.76;163.48;166.21;168.93;171.65;174.38;177.1;179.82;182.54;185.27;187.99;190.71;193.44;196.16;198.88;201.61;204.33;207.05;209.78;212.5;215.22;217.95;220.67;223.39;226.12;228.84;231.56;234.29;237.01;239.73;242.46;245.18;247.9;250.62;253.35;256.07;258.79;261.52;264.24;266.96;269.69;272.41;275.13;277.86;280.58;283.3;286.03;288.75;291.47;294.2;296.92;299.64;302.37;305.09;307.81;310.54;313.26;315.98;318.71;321.43;324.15;326.88;329.6;332.32;335.04;337.77;340.49;343.21;345.94;348.66;351.38;354.11;356.83;359.55;362.28;365.0;367.72;370.45;373.17;375.89;378.62;381.34;384.06;386.79;389.51;392.23;394.96;397.68;400.4;403.12;405.85;408.57;411.29;414.02;416.74;419.46;422.19;424.91;427.63;430.36;433.08;435.8;438.53;441.25;443.97;446.7;449.42;452.14;454.87;457.59;460.31;463.04;465.76;468.48;471.21;473.93;476.65;479.37;482.1;484.82;487.54;490.27;492.99;495.71;498.44;501.16;503.88;506.61;509.33;512.05;514.78;517.5;520.22;522.95;525.67;528.39;531.12;533.84;536.56;539.29;542.01;544.73;547.46;550.18;552.9;555.62;558.35;561.07;563.79;566.52;569.24;571.96;574.69;577.41;580.13;582.86;585.58;588.3;591.03;593.75;596.47;599.2;601.92;604.64;607.37;610.09;612.81;615.54;618.26;620.98;623.71;626.43;629.15;631.87;634.6;637.32;640.04;642.77;645.49;648.21;650.94;653.66;656.38;659.11;661.83;664.55;667.28;670.0" dur="8s" repeatCount="indefinite" calcMode="linear"/>
    <animate attributeName="cy" values="123.14;86.66;80.0;105.42;155.01;210.52;256.46;288.89;310.15;323.06;329.33;330.0;326.0;318.34;307.94;295.39;281.07;265.29;248.48;231.27;214.57;199.53;187.4;179.38;176.25;178.1;184.41;194.61;195.51;205.51;214.58;221.58;232.5;235.76;237.56;238.39;237.96;235.6;231.63;225.62;218.2;209.52;200.65;199.83;191.02;183.32;177.28;172.77;170.56;170.36;172.18;184.01;188.91;195.21;202.55;208.26;216.82;104.12;139.01;187.93;240.34;267.45;277.58;273.77;261.15;245.0;228.98;214.66;201.46;189.63;178.41;168.08;166.9;159.75;155.42;154.23;156.32;161.06;167.83;184.4;192.71;201.23;209.68;217.82;225.05;230.58;234.28;235.13;242.64;237.72;230.41;221.48;211.45;201.18;191.06;181.48;173.41;167.24;163.29;169.78;170.03;172.23;176.01;180.95;186.63;192.83;198.89;214.09;219.88;224.62;227.7;229.06;228.34;225.6;221.14;215.0;207.91;200.14;192.6;193.89;187.11;181.54;177.58;175.21;174.42;175.02;176.97;179.72;192.55;197.12;201.86;206.35;210.29;213.77;216.27;217.41;217.47;215.8;212.83;217.85;212.72;206.98;201.04;195.02;189.74;185.07;181.24;178.39;177.09;185.55;186.29;189.97;194.98;199.88;203.35;205.95;207.74;208.89;208.91;217.49;215.98;213.68;210.73;207.03;203.14;198.85;194.93;191.33;187.97;185.51;192.43;191.21;190.56;190.8;191.75;193.07;195.66;203.95;216.29;229.75;245.48;255.02;261.76;265.68;267.11;261.32;261.37;261.43;260.2;257.53;252.61;246.58;240.22;234.28;229.31;225.65;223.43;222.75;223.37;225.23;228.15;231.92;236.31;241.06;245.87;250.49;254.61;258.0;260.47;261.88;262.17;261.38;259.6;256.99;253.73;250.05;246.19;242.38;238.85;235.8;233.42;231.82;231.08;231.23;232.2" dur="8s" repeatCount="indefinite" calcMode="linear"/>
  </circle>

  <!-- Légende -->
  <g transform="translate(240.0,36)">
    <rect x="0" y="-11" width="220" height="22" rx="11"
          fill="rgba(20,15,35,0.85)" stroke="rgba(0,229,204,0.35)" stroke-width="0.75"/>
    <line x1="16" y1="0" x2="38" y2="0" stroke="url(#steer-grad)" stroke-width="2.5" stroke-linecap="round"/>
    <text x="48" y="4" font-size="10" letter-spacing="1.5" font-weight="500"
          fill="rgba(255,180,230,0.85)"
          font-family="'JetBrains Mono',monospace">FRONT STEERING ANGLE</text>
  </g>

</svg>