<svg xmlns="http://www.w3.org/2000/svg"
     viewBox="0 0 700 400" width="100%" class="trajectory-svg">

  <defs>
    <linearGradient id="steer-grad" x1="60" y1="0" x2="670" y2="0" gradientUnits="userSpaceOnUse">
      <stop offset="0%"   stop-color="#aa00ff"/>
      <stop offset="100%" stop-color="#ff00cc"/>
    </linearGradient>
  </defs>

  <rect width="700" height="400" fill="#0d0a1a"/>
  <g class="grid"><line x1="60.0" y1="50" x2="60.0" y2="360" stroke="rgba(0,229,204,1)" stroke-width="0.5" opacity="0.06"/>
<line x1="161.66666666666669" y1="50" x2="161.66666666666669" y2="360" stroke="rgba(0,229,204,1)" stroke-width="0.5" opacity="0.06"/>
<line x1="263.33333333333337" y1="50" x2="263.33333333333337" y2="360" stroke="rgba(0,229,204,1)" stroke-width="0.5" opacity="0.06"/>
<line x1="365.0" y1="50" x2="365.0" y2="360" stroke="rgba(0,229,204,1)" stroke-width="0.5" opacity="0.06"/>
<line x1="466.6666666666667" y1="50" x2="466.6666666666667" y2="360" stroke="rgba(0,229,204,1)" stroke-width="0.5" opacity="0.06"/>
<line x1="568.3333333333333" y1="50" x2="568.3333333333333" y2="360" stroke="rgba(0,229,204,1)" stroke-width="0.5" opacity="0.06"/>
<line x1="670.0" y1="50" x2="670.0" y2="360" stroke="rgba(0,229,204,1)" stroke-width="0.5" opacity="0.06"/>
<line x1="60" y1="50.0" x2="670" y2="50.0" stroke="rgba(0,229,204,1)" stroke-width="0.5" opacity="0.18"/>
<line x1="60" y1="112.0" x2="670" y2="112.0" stroke="rgba(0,229,204,1)" stroke-width="0.5" opacity="0.18"/>
<line x1="60" y1="174.0" x2="670" y2="174.0" stroke="rgba(0,229,204,1)" stroke-width="0.5" opacity="0.18"/>
<line x1="60" y1="236.0" x2="670" y2="236.0" stroke="rgba(0,229,204,1)" stroke-width="0.5" opacity="0.18"/>
<line x1="60" y1="298.0" x2="670" y2="298.0" stroke="rgba(0,229,204,1)" stroke-width="0.5" opacity="0.18"/>
<line x1="60" y1="360.0" x2="670" y2="360.0" stroke="rgba(0,229,204,1)" stroke-width="0.5" opacity="0.18"/>
</g>
  <line x1="60" y1="232.12" x2="670" y2="232.12" stroke="rgba(255,255,255,0.35)" stroke-width="1" stroke-dasharray="5 5"/>
  <rect x="60" y="50" width="610" height="310"
        fill="none" stroke="rgba(0,229,204,0.15)" stroke-width="0.75" rx="4"/>
  <g class="axis-labels"><text x="60.0" y="378" font-size="10" fill="rgba(255,255,255,0.5)" text-anchor="middle" font-family="'JetBrains Mono',monospace">0.1s</text>
<text x="161.66666666666669" y="378" font-size="10" fill="rgba(255,255,255,0.5)" text-anchor="middle" font-family="'JetBrains Mono',monospace">10.4s</text>
<text x="263.33333333333337" y="378" font-size="10" fill="rgba(255,255,255,0.5)" text-anchor="middle" font-family="'JetBrains Mono',monospace">20.7s</text>
<text x="365.0" y="378" font-size="10" fill="rgba(255,255,255,0.5)" text-anchor="middle" font-family="'JetBrains Mono',monospace">31.0s</text>
<text x="466.6666666666667" y="378" font-size="10" fill="rgba(255,255,255,0.5)" text-anchor="middle" font-family="'JetBrains Mono',monospace">41.3s</text>
<text x="568.3333333333333" y="378" font-size="10" fill="rgba(255,255,255,0.5)" text-anchor="middle" font-family="'JetBrains Mono',monospace">51.6s</text>
<text x="670.0" y="378" font-size="10" fill="rgba(255,255,255,0.5)" text-anchor="middle" font-family="'JetBrains Mono',monospace">61.9s</text>
<text x="52" y="54.0" font-size="10" fill="rgba(255,255,255,0.5)" text-anchor="end" font-family="'JetBrains Mono',monospace">0.627</text>
<text x="52" y="116.0" font-size="10" fill="rgba(255,255,255,0.5)" text-anchor="end" font-family="'JetBrains Mono',monospace">0.413</text>
<text x="52" y="178.0" font-size="10" fill="rgba(255,255,255,0.5)" text-anchor="end" font-family="'JetBrains Mono',monospace">0.200</text>
<text x="52" y="240.0" font-size="10" fill="rgba(255,255,255,0.5)" text-anchor="end" font-family="'JetBrains Mono',monospace">-0.013</text>
<text x="52" y="302.0" font-size="10" fill="rgba(255,255,255,0.5)" text-anchor="end" font-family="'JetBrains Mono',monospace">-0.227</text>
<text x="52" y="364.0" font-size="10" fill="rgba(255,255,255,0.5)" text-anchor="end" font-family="'JetBrains Mono',monospace">-0.440</text>
</g>

  <!-- Labels axes -->
  <text x="52" y="36" font-size="10" letter-spacing="1" font-weight="500"
        fill="rgba(0,229,204,0.75)" text-anchor="end"
        font-family="'JetBrains Mono',monospace">δF (rad)</text>
  <text x="670" y="395" font-size="10" letter-spacing="1" font-weight="500"
        fill="rgba(0,229,204,0.75)" text-anchor="end"
        font-family="'JetBrains Mono',monospace">Time (s)</text>

  <!-- Tracé animé -->
  <path d="M 60.0,141.11 L 61.97,80.0 L 63.95,80.0 L 65.92,93.02 L 67.9,198.37 L 69.87,293.53 L 71.84,324.56 L 73.82,289.63 L 75.79,233.83 L 77.77,216.56 L 79.74,253.22 L 81.72,307.48 L 83.69,330.0 L 85.66,301.04 L 87.64,247.7 L 89.61,214.84 L 91.59,220.7 L 93.56,247.36 L 95.53,260.14 L 97.51,240.97 L 99.48,203.61 L 101.46,176.68 L 103.43,177.27 L 105.4,198.7 L 107.38,218.17 L 109.35,219.02 L 111.33,205.06 L 113.3,194.34 L 115.28,201.11 L 117.25,222.86 L 119.22,244.31 L 121.2,252.68 L 123.17,248.05 L 125.15,241.26 L 127.12,242.84 L 129.09,253.37 L 131.07,264.06 L 133.04,265.67 L 135.02,256.85 L 136.99,244.68 L 138.96,237.43 L 140.94,237.2 L 142.91,239.08 L 144.89,236.7 L 146.86,228.38 L 148.83,218.32 L 150.81,212.32 L 152.78,212.6 L 154.76,216.41 L 156.73,219.11 L 158.71,218.56 L 160.68,216.67 L 162.65,217.3 L 164.63,222.92 L 166.6,235.12 L 168.58,248.89 L 170.55,260.45 L 172.52,262.38 L 174.5,262.57 L 176.47,261.4 L 178.45,262.84 L 180.42,269.61 L 182.39,270.07 L 184.37,269.6 L 186.34,261.96 L 188.32,257.83 L 190.29,252.73 L 192.27,249.84 L 194.24,250.38 L 196.21,245.87 L 198.19,243.35 L 200.16,237.81 L 202.14,238.0 L 204.11,237.57 L 206.08,238.45 L 208.06,242.93 L 210.03,242.45 L 212.01,245.61 L 213.98,246.55 L 215.95,252.34 L 217.93,255.03 L 219.9,260.02 L 221.88,260.31 L 223.85,260.69 L 225.83,268.25 L 227.8,273.11 L 229.77,281.14 L 231.75,281.67 L 233.72,283.79 L 235.7,279.46 L 237.67,274.46 L 239.64,278.31 L 241.62,275.34 L 243.59,277.21 L 245.57,271.68 L 247.54,271.28 L 249.51,265.78 L 251.49,261.2 L 253.46,265.38 L 255.44,261.82 L 257.41,265.37 L 259.39,261.16 L 261.36,265.45 L 263.33,264.03 L 265.31,270.45 L 267.28,269.88 L 269.26,275.52 L 271.23,273.16 L 273.2,277.55 L 275.18,273.67 L 277.15,268.66 L 279.13,255.55 L 281.1,243.36 L 283.07,237.62 L 285.05,233.85 L 287.02,232.84 L 289.0,229.29 L 290.97,227.76 L 292.94,223.09 L 294.92,218.85 L 296.89,217.87 L 298.87,219.96 L 300.84,223.94 L 302.82,226.95 L 304.79,228.39 L 306.76,229.08 L 308.74,230.8 L 310.71,234.18 L 312.69,238.04 L 314.66,240.8 L 316.63,241.57 L 318.61,240.99 L 320.58,240.29 L 322.56,240.18 L 324.53,240.27 L 326.5,239.61 L 328.48,237.68 L 330.45,234.9 L 332.43,232.26 L 334.4,230.43 L 336.38,229.33 L 338.35,228.4 L 340.32,227.2 L 342.3,225.9 L 344.27,225.08 L 346.25,225.16 L 348.22,226.06 L 350.19,227.31 L 352.17,228.45 L 354.14,229.41 L 356.12,230.44 L 358.09,231.78 L 360.06,233.36 L 362.04,234.84 L 364.01,235.87 L 365.99,236.37 L 367.96,236.52 L 369.94,236.53 L 371.91,236.49 L 373.88,236.24 L 375.86,235.65 L 377.83,234.7 L 379.81,233.57 L 381.78,232.49 L 383.75,231.6 L 385.73,230.81 L 387.7,229.38 L 389.68,227.18 L 391.65,224.73 L 393.62,221.12 L 395.6,220.62 L 397.57,220.72 L 399.55,222.4 L 401.52,222.05 L 403.5,222.08 L 405.47,222.18 L 407.44,221.86 L 409.42,224.01 L 411.39,224.97 L 413.37,226.73 L 415.34,226.14 L 417.31,226.52 L 419.29,227.11 L 421.26,226.21 L 423.24,226.04 L 425.21,222.62 L 427.18,220.87 L 429.16,217.21 L 431.13,216.81 L 433.11,217.42 L 435.08,215.02 L 437.06,215.27 L 439.03,212.37 L 441.0,212.92 L 442.98,211.33 L 444.95,213.02 L 446.93,215.22 L 448.9,214.02 L 450.87,215.83 L 452.85,214.55 L 454.82,216.68 L 456.8,216.04 L 458.77,217.96 L 460.74,220.17 L 462.72,218.36 L 464.69,218.46 L 466.67,213.07 L 468.64,210.89 L 470.61,206.27 L 472.59,206.18 L 474.56,202.93 L 476.54,203.86 L 478.51,204.33 L 480.49,199.83 L 482.46,200.97 L 484.43,198.25 L 486.41,201.01 L 488.38,198.99 L 490.36,201.0 L 492.33,203.53 L 494.3,200.8 L 496.28,205.88 L 498.25,206.97 L 500.23,212.49 L 502.2,210.59 L 504.17,211.76 L 506.15,207.46 L 508.12,208.75 L 510.1,206.75 L 512.07,208.79 L 514.05,210.13 L 516.02,204.43 L 517.99,203.74 L 519.97,198.68 L 521.94,200.3 L 523.92,197.52 L 525.89,199.44 L 527.86,201.23 L 529.84,197.21 L 531.81,199.54 L 533.79,197.39 L 535.76,201.26 L 537.73,200.79 L 539.71,204.11 L 541.68,202.61 L 543.66,205.24 L 545.63,209.42 L 547.61,212.78 L 549.58,222.65 L 551.55,230.01 L 553.53,236.33 L 555.5,237.4 L 557.48,237.67 L 559.45,234.97 L 561.42,236.61 L 563.4,241.66 L 565.37,244.51 L 567.35,242.59 L 569.32,236.44 L 571.29,230.62 L 573.27,228.28 L 575.24,229.02 L 577.22,230.04 L 579.19,228.57 L 581.17,224.93 L 583.14,221.62 L 585.11,221.06 L 587.09,223.31 L 589.06,226.35 L 591.04,228.11 L 593.01,228.22 L 594.98,228.11 L 596.96,229.35 L 598.93,232.19 L 600.91,235.38 L 602.88,237.35 L 604.85,237.65 L 606.83,237.1 L 608.8,236.89 L 610.78,237.43 L 612.75,238.08 L 614.72,237.9 L 616.7,236.51 L 618.67,234.49 L 620.65,232.74 L 622.62,231.75 L 624.6,231.24 L 626.57,230.59 L 628.54,229.51 L 630.52,228.29 L 632.49,227.49 L 634.47,227.49 L 636.44,228.09 L 638.41,228.83 L 640.39,229.31 L 642.36,229.44 L 644.34,231.51 L 646.31,236.14 L 648.28,245.29 L 650.26,251.33 L 652.23,256.93 L 654.21,256.76 L 656.18,255.64 L 658.16,258.52 L 660.13,258.95 L 662.1,262.18 L 664.08,260.44 L 666.05,259.92 L 668.03,255.36 L 670.0,234.55" fill="none" stroke="url(#steer-grad)"
        stroke-width="2.5" stroke-linecap="round" stroke-linejoin="round"
        stroke-dasharray="1917.42" stroke-dashoffset="1917.42">
    <animate attributeName="stroke-dashoffset"
             values="1917.42;1856.27;1854.29;1841.13;1735.76;1640.58;1609.48;1574.5;1518.66;1501.28;1464.57;1410.27;1387.66;1358.64;1305.26;1272.34;1266.16;1239.42;1226.49;1207.22;1169.81;1142.81;1140.75;1119.23;1099.66;1097.51;1083.41;1072.51;1065.46;1043.62;1022.08;1013.48;1008.45;1001.38;998.85;988.14;977.27;974.72;965.68;953.35;945.84;943.85;941.12;938.03;929.48;919.23;912.91;910.92;906.63;903.28;901.23;898.5;896.43;890.47;878.11;864.2;852.48;849.72;847.73;845.44;842.99;835.94;833.92;831.88;823.99;819.41;813.94;810.44;808.4;803.48;800.27;794.39;792.4;790.39;788.23;783.33;781.3;777.57;775.39;769.27;765.93;760.57;758.57;756.56;748.75;743.5;735.23;733.19;730.29;725.53;720.16;715.83;712.26;709.55;703.67;701.66;695.82;690.83;686.21;682.14;678.08;673.42;668.7;666.27;659.56;657.5;651.53;648.45;643.64;639.28;633.9;620.64;608.29;602.23;597.97;595.75;591.69;589.19;584.13;579.45;577.25;574.37;569.93;566.32;563.88;561.8;559.17;555.26;550.92;547.53;545.42;543.35;541.26;539.28;537.31;535.23;532.47;529.06;525.76;523.07;520.8;518.63;516.32;513.95;511.82;509.83;507.67;505.34;503.05;500.86;498.63;496.25;493.72;491.25;489.03;486.98;485.01;483.03;481.06;479.07;477.0;474.82;472.54;470.29;468.13;466.0;463.56;460.6;457.46;453.35;451.31;449.33;446.74;444.74;442.76;440.78;438.79;435.86;433.67;431.02;428.97;426.96;424.89;422.73;420.74;416.79;414.16;410.0;407.99;405.92;402.81;400.82;397.31;395.26;392.72;390.13;387.17;384.86;382.19;379.83;376.93;374.85;372.1;369.14;366.45;364.48;358.74;355.8;350.78;348.8;345.0;342.81;340.78;335.87;333.59;330.23;326.84;324.01;321.19;317.99;314.62;309.17;306.92;301.05;298.31;296.02;291.29;288.93;286.12;283.28;280.89;274.86;272.77;267.34;264.79;261.38;258.63;255.97;251.48;248.43;245.51;241.17;239.14;235.28;232.8;229.51;224.89;220.99;210.92;203.3;196.68;194.44;192.44;189.1;186.54;181.11;177.65;174.89;168.43;162.29;159.22;157.12;154.89;152.43;148.29;144.44;142.39;139.39;135.77;133.12;131.15;129.17;126.84;123.38;119.63;116.84;114.85;112.79;110.81;108.76;106.68;104.71;102.29;99.46;96.82;94.62;92.57;90.5;88.25;85.93;83.8;81.82;79.76;77.66;75.62;73.64;70.78;65.75;56.39;50.03;44.1;42.11;39.84;36.35;34.33;30.55;27.91;25.87;20.9;0.0" dur="8s"
             repeatCount="indefinite" calcMode="linear"/>
  </path>

  <!-- Robot -->
  <circle r="9" fill="none" stroke="#ffe566" stroke-width="1.5">
    <animate attributeName="cx" values="60.0;61.97;63.95;65.92;67.9;69.87;71.84;73.82;75.79;77.77;79.74;81.72;83.69;85.66;87.64;89.61;91.59;93.56;95.53;97.51;99.48;101.46;103.43;105.4;107.38;109.35;111.33;113.3;115.28;117.25;119.22;121.2;123.17;125.15;127.12;129.09;131.07;133.04;135.02;136.99;138.96;140.94;142.91;144.89;146.86;148.83;150.81;152.78;154.76;156.73;158.71;160.68;162.65;164.63;166.6;168.58;170.55;172.52;174.5;176.47;178.45;180.42;182.39;184.37;186.34;188.32;190.29;192.27;194.24;196.21;198.19;200.16;202.14;204.11;206.08;208.06;210.03;212.01;213.98;215.95;217.93;219.9;221.88;223.85;225.83;227.8;229.77;231.75;233.72;235.7;237.67;239.64;241.62;243.59;245.57;247.54;249.51;251.49;253.46;255.44;257.41;259.39;261.36;263.33;265.31;267.28;269.26;271.23;273.2;275.18;277.15;279.13;281.1;283.07;285.05;287.02;289.0;290.97;292.94;294.92;296.89;298.87;300.84;302.82;304.79;306.76;308.74;310.71;312.69;314.66;316.63;318.61;320.58;322.56;324.53;326.5;328.48;330.45;332.43;334.4;336.38;338.35;340.32;342.3;344.27;346.25;348.22;350.19;352.17;354.14;356.12;358.09;360.06;362.04;364.01;365.99;367.96;369.94;371.91;373.88;375.86;377.83;379.81;381.78;383.75;385.73;387.7;389.68;391.65;393.62;395.6;397.57;399.55;401.52;403.5;405.47;407.44;409.42;411.39;413.37;415.34;417.31;419.29;421.26;423.24;425.21;427.18;429.16;431.13;433.11;435.08;437.06;439.03;441.0;442.98;444.95;446.93;448.9;450.87;452.85;454.82;456.8;458.77;460.74;462.72;464.69;466.67;468.64;470.61;472.59;474.56;476.54;478.51;480.49;482.46;484.43;486.41;488.38;490.36;492.33;494.3;496.28;498.25;500.23;502.2;504.17;506.15;508.12;510.1;512.07;514.05;516.02;517.99;519.97;521.94;523.92;525.89;527.86;529.84;531.81;533.79;535.76;537.73;539.71;541.68;543.66;545.63;547.61;549.58;551.55;553.53;555.5;557.48;559.45;561.42;563.4;565.37;567.35;569.32;571.29;573.27;575.24;577.22;579.19;581.17;583.14;585.11;587.09;589.06;591.04;593.01;594.98;596.96;598.93;600.91;602.88;604.85;606.83;608.8;610.78;612.75;614.72;616.7;618.67;620.65;622.62;624.6;626.57;628.54;630.52;632.49;634.47;636.44;638.41;640.39;642.36;644.34;646.31;648.28;650.26;652.23;654.21;656.18;658.16;660.13;662.1;664.08;666.05;668.03;670.0" dur="8s" repeatCount="indefinite" calcMode="linear"/>
    <animate attributeName="cy" values="141.11;80.0;80.0;93.02;198.37;293.53;324.56;289.63;233.83;216.56;253.22;307.48;330.0;301.04;247.7;214.84;220.7;247.36;260.14;240.97;203.61;176.68;177.27;198.7;218.17;219.02;205.06;194.34;201.11;222.86;244.31;252.68;248.05;241.26;242.84;253.37;264.06;265.67;256.85;244.68;237.43;237.2;239.08;236.7;228.38;218.32;212.32;212.6;216.41;219.11;218.56;216.67;217.3;222.92;235.12;248.89;260.45;262.38;262.57;261.4;262.84;269.61;270.07;269.6;261.96;257.83;252.73;249.84;250.38;245.87;243.35;237.81;238.0;237.57;238.45;242.93;242.45;245.61;246.55;252.34;255.03;260.02;260.31;260.69;268.25;273.11;281.14;281.67;283.79;279.46;274.46;278.31;275.34;277.21;271.68;271.28;265.78;261.2;265.38;261.82;265.37;261.16;265.45;264.03;270.45;269.88;275.52;273.16;277.55;273.67;268.66;255.55;243.36;237.62;233.85;232.84;229.29;227.76;223.09;218.85;217.87;219.96;223.94;226.95;228.39;229.08;230.8;234.18;238.04;240.8;241.57;240.99;240.29;240.18;240.27;239.61;237.68;234.9;232.26;230.43;229.33;228.4;227.2;225.9;225.08;225.16;226.06;227.31;228.45;229.41;230.44;231.78;233.36;234.84;235.87;236.37;236.52;236.53;236.49;236.24;235.65;234.7;233.57;232.49;231.6;230.81;229.38;227.18;224.73;221.12;220.62;220.72;222.4;222.05;222.08;222.18;221.86;224.01;224.97;226.73;226.14;226.52;227.11;226.21;226.04;222.62;220.87;217.21;216.81;217.42;215.02;215.27;212.37;212.92;211.33;213.02;215.22;214.02;215.83;214.55;216.68;216.04;217.96;220.17;218.36;218.46;213.07;210.89;206.27;206.18;202.93;203.86;204.33;199.83;200.97;198.25;201.01;198.99;201.0;203.53;200.8;205.88;206.97;212.49;210.59;211.76;207.46;208.75;206.75;208.79;210.13;204.43;203.74;198.68;200.3;197.52;199.44;201.23;197.21;199.54;197.39;201.26;200.79;204.11;202.61;205.24;209.42;212.78;222.65;230.01;236.33;237.4;237.67;234.97;236.61;241.66;244.51;242.59;236.44;230.62;228.28;229.02;230.04;228.57;224.93;221.62;221.06;223.31;226.35;228.11;228.22;228.11;229.35;232.19;235.38;237.35;237.65;237.1;236.89;237.43;238.08;237.9;236.51;234.49;232.74;231.75;231.24;230.59;229.51;228.29;227.49;227.49;228.09;228.83;229.31;229.44;231.51;236.14;245.29;251.33;256.93;256.76;255.64;258.52;258.95;262.18;260.44;259.92;255.36;234.55" dur="8s" repeatCount="indefinite" calcMode="linear"/>
    <animate attributeName="r"       values="9;22;9"   dur="2s" repeatCount="indefinite"/>
    <animate attributeName="opacity" values="0.8;0;0.8" dur="2s" repeatCount="indefinite"/>
  </circle>
  <circle r="5.5" fill="#ffe566">
    <animate attributeName="cx" values="60.0;61.97;63.95;65.92;67.9;69.87;71.84;73.82;75.79;77.77;79.74;81.72;83.69;85.66;87.64;89.61;91.59;93.56;95.53;97.51;99.48;101.46;103.43;105.4;107.38;109.35;111.33;113.3;115.28;117.25;119.22;121.2;123.17;125.15;127.12;129.09;131.07;133.04;135.02;136.99;138.96;140.94;142.91;144.89;146.86;148.83;150.81;152.78;154.76;156.73;158.71;160.68;162.65;164.63;166.6;168.58;170.55;172.52;174.5;176.47;178.45;180.42;182.39;184.37;186.34;188.32;190.29;192.27;194.24;196.21;198.19;200.16;202.14;204.11;206.08;208.06;210.03;212.01;213.98;215.95;217.93;219.9;221.88;223.85;225.83;227.8;229.77;231.75;233.72;235.7;237.67;239.64;241.62;243.59;245.57;247.54;249.51;251.49;253.46;255.44;257.41;259.39;261.36;263.33;265.31;267.28;269.26;271.23;273.2;275.18;277.15;279.13;281.1;283.07;285.05;287.02;289.0;290.97;292.94;294.92;296.89;298.87;300.84;302.82;304.79;306.76;308.74;310.71;312.69;314.66;316.63;318.61;320.58;322.56;324.53;326.5;328.48;330.45;332.43;334.4;336.38;338.35;340.32;342.3;344.27;346.25;348.22;350.19;352.17;354.14;356.12;358.09;360.06;362.04;364.01;365.99;367.96;369.94;371.91;373.88;375.86;377.83;379.81;381.78;383.75;385.73;387.7;389.68;391.65;393.62;395.6;397.57;399.55;401.52;403.5;405.47;407.44;409.42;411.39;413.37;415.34;417.31;419.29;421.26;423.24;425.21;427.18;429.16;431.13;433.11;435.08;437.06;439.03;441.0;442.98;444.95;446.93;448.9;450.87;452.85;454.82;456.8;458.77;460.74;462.72;464.69;466.67;468.64;470.61;472.59;474.56;476.54;478.51;480.49;482.46;484.43;486.41;488.38;490.36;492.33;494.3;496.28;498.25;500.23;502.2;504.17;506.15;508.12;510.1;512.07;514.05;516.02;517.99;519.97;521.94;523.92;525.89;527.86;529.84;531.81;533.79;535.76;537.73;539.71;541.68;543.66;545.63;547.61;549.58;551.55;553.53;555.5;557.48;559.45;561.42;563.4;565.37;567.35;569.32;571.29;573.27;575.24;577.22;579.19;581.17;583.14;585.11;587.09;589.06;591.04;593.01;594.98;596.96;598.93;600.91;602.88;604.85;606.83;608.8;610.78;612.75;614.72;616.7;618.67;620.65;622.62;624.6;626.57;628.54;630.52;632.49;634.47;636.44;638.41;640.39;642.36;644.34;646.31;648.28;650.26;652.23;654.21;656.18;658.16;660.13;662.1;664.08;666.05;668.03;670.0" dur="8s" repeatCount="indefinite" calcMode="linear"/>
    <animate attributeName="cy" values="141.11;80.0;80.0;93.02;198.37;293.53;324.56;289.63;233.83;216.56;253.22;307.48;330.0;301.04;247.7;214.84;220.7;247.36;260.14;240.97;203.61;176.68;177.27;198.7;218.17;219.02;205.06;194.34;201.11;222.86;244.31;252.68;248.05;241.26;242.84;253.37;264.06;265.67;256.85;244.68;237.43;237.2;239.08;236.7;228.38;218.32;212.32;212.6;216.41;219.11;218.56;216.67;217.3;222.92;235.12;248.89;260.45;262.38;262.57;261.4;262.84;269.61;270.07;269.6;261.96;257.83;252.73;249.84;250.38;245.87;243.35;237.81;238.0;237.57;238.45;242.93;242.45;245.61;246.55;252.34;255.03;260.02;260.31;260.69;268.25;273.11;281.14;281.67;283.79;279.46;274.46;278.31;275.34;277.21;271.68;271.28;265.78;261.2;265.38;261.82;265.37;261.16;265.45;264.03;270.45;269.88;275.52;273.16;277.55;273.67;268.66;255.55;243.36;237.62;233.85;232.84;229.29;227.76;223.09;218.85;217.87;219.96;223.94;226.95;228.39;229.08;230.8;234.18;238.04;240.8;241.57;240.99;240.29;240.18;240.27;239.61;237.68;234.9;232.26;230.43;229.33;228.4;227.2;225.9;225.08;225.16;226.06;227.31;228.45;229.41;230.44;231.78;233.36;234.84;235.87;236.37;236.52;236.53;236.49;236.24;235.65;234.7;233.57;232.49;231.6;230.81;229.38;227.18;224.73;221.12;220.62;220.72;222.4;222.05;222.08;222.18;221.86;224.01;224.97;226.73;226.14;226.52;227.11;226.21;226.04;222.62;220.87;217.21;216.81;217.42;215.02;215.27;212.37;212.92;211.33;213.02;215.22;214.02;215.83;214.55;216.68;216.04;217.96;220.17;218.36;218.46;213.07;210.89;206.27;206.18;202.93;203.86;204.33;199.83;200.97;198.25;201.01;198.99;201.0;203.53;200.8;205.88;206.97;212.49;210.59;211.76;207.46;208.75;206.75;208.79;210.13;204.43;203.74;198.68;200.3;197.52;199.44;201.23;197.21;199.54;197.39;201.26;200.79;204.11;202.61;205.24;209.42;212.78;222.65;230.01;236.33;237.4;237.67;234.97;236.61;241.66;244.51;242.59;236.44;230.62;228.28;229.02;230.04;228.57;224.93;221.62;221.06;223.31;226.35;228.11;228.22;228.11;229.35;232.19;235.38;237.35;237.65;237.1;236.89;237.43;238.08;237.9;236.51;234.49;232.74;231.75;231.24;230.59;229.51;228.29;227.49;227.49;228.09;228.83;229.31;229.44;231.51;236.14;245.29;251.33;256.93;256.76;255.64;258.52;258.95;262.18;260.44;259.92;255.36;234.55" dur="8s" repeatCount="indefinite" calcMode="linear"/>
  </circle>
  <circle r="2" fill="white">
    <animate attributeName="cx" values="60.0;61.97;63.95;65.92;67.9;69.87;71.84;73.82;75.79;77.77;79.74;81.72;83.69;85.66;87.64;89.61;91.59;93.56;95.53;97.51;99.48;101.46;103.43;105.4;107.38;109.35;111.33;113.3;115.28;117.25;119.22;121.2;123.17;125.15;127.12;129.09;131.07;133.04;135.02;136.99;138.96;140.94;142.91;144.89;146.86;148.83;150.81;152.78;154.76;156.73;158.71;160.68;162.65;164.63;166.6;168.58;170.55;172.52;174.5;176.47;178.45;180.42;182.39;184.37;186.34;188.32;190.29;192.27;194.24;196.21;198.19;200.16;202.14;204.11;206.08;208.06;210.03;212.01;213.98;215.95;217.93;219.9;221.88;223.85;225.83;227.8;229.77;231.75;233.72;235.7;237.67;239.64;241.62;243.59;245.57;247.54;249.51;251.49;253.46;255.44;257.41;259.39;261.36;263.33;265.31;267.28;269.26;271.23;273.2;275.18;277.15;279.13;281.1;283.07;285.05;287.02;289.0;290.97;292.94;294.92;296.89;298.87;300.84;302.82;304.79;306.76;308.74;310.71;312.69;314.66;316.63;318.61;320.58;322.56;324.53;326.5;328.48;330.45;332.43;334.4;336.38;338.35;340.32;342.3;344.27;346.25;348.22;350.19;352.17;354.14;356.12;358.09;360.06;362.04;364.01;365.99;367.96;369.94;371.91;373.88;375.86;377.83;379.81;381.78;383.75;385.73;387.7;389.68;391.65;393.62;395.6;397.57;399.55;401.52;403.5;405.47;407.44;409.42;411.39;413.37;415.34;417.31;419.29;421.26;423.24;425.21;427.18;429.16;431.13;433.11;435.08;437.06;439.03;441.0;442.98;444.95;446.93;448.9;450.87;452.85;454.82;456.8;458.77;460.74;462.72;464.69;466.67;468.64;470.61;472.59;474.56;476.54;478.51;480.49;482.46;484.43;486.41;488.38;490.36;492.33;494.3;496.28;498.25;500.23;502.2;504.17;506.15;508.12;510.1;512.07;514.05;516.02;517.99;519.97;521.94;523.92;525.89;527.86;529.84;531.81;533.79;535.76;537.73;539.71;541.68;543.66;545.63;547.61;549.58;551.55;553.53;555.5;557.48;559.45;561.42;563.4;565.37;567.35;569.32;571.29;573.27;575.24;577.22;579.19;581.17;583.14;585.11;587.09;589.06;591.04;593.01;594.98;596.96;598.93;600.91;602.88;604.85;606.83;608.8;610.78;612.75;614.72;616.7;618.67;620.65;622.62;624.6;626.57;628.54;630.52;632.49;634.47;636.44;638.41;640.39;642.36;644.34;646.31;648.28;650.26;652.23;654.21;656.18;658.16;660.13;662.1;664.08;666.05;668.03;670.0" dur="8s" repeatCount="indefinite" calcMode="linear"/>
    <animate attributeName="cy" values="141.11;80.0;80.0;93.02;198.37;293.53;324.56;289.63;233.83;216.56;253.22;307.48;330.0;301.04;247.7;214.84;220.7;247.36;260.14;240.97;203.61;176.68;177.27;198.7;218.17;219.02;205.06;194.34;201.11;222.86;244.31;252.68;248.05;241.26;242.84;253.37;264.06;265.67;256.85;244.68;237.43;237.2;239.08;236.7;228.38;218.32;212.32;212.6;216.41;219.11;218.56;216.67;217.3;222.92;235.12;248.89;260.45;262.38;262.57;261.4;262.84;269.61;270.07;269.6;261.96;257.83;252.73;249.84;250.38;245.87;243.35;237.81;238.0;237.57;238.45;242.93;242.45;245.61;246.55;252.34;255.03;260.02;260.31;260.69;268.25;273.11;281.14;281.67;283.79;279.46;274.46;278.31;275.34;277.21;271.68;271.28;265.78;261.2;265.38;261.82;265.37;261.16;265.45;264.03;270.45;269.88;275.52;273.16;277.55;273.67;268.66;255.55;243.36;237.62;233.85;232.84;229.29;227.76;223.09;218.85;217.87;219.96;223.94;226.95;228.39;229.08;230.8;234.18;238.04;240.8;241.57;240.99;240.29;240.18;240.27;239.61;237.68;234.9;232.26;230.43;229.33;228.4;227.2;225.9;225.08;225.16;226.06;227.31;228.45;229.41;230.44;231.78;233.36;234.84;235.87;236.37;236.52;236.53;236.49;236.24;235.65;234.7;233.57;232.49;231.6;230.81;229.38;227.18;224.73;221.12;220.62;220.72;222.4;222.05;222.08;222.18;221.86;224.01;224.97;226.73;226.14;226.52;227.11;226.21;226.04;222.62;220.87;217.21;216.81;217.42;215.02;215.27;212.37;212.92;211.33;213.02;215.22;214.02;215.83;214.55;216.68;216.04;217.96;220.17;218.36;218.46;213.07;210.89;206.27;206.18;202.93;203.86;204.33;199.83;200.97;198.25;201.01;198.99;201.0;203.53;200.8;205.88;206.97;212.49;210.59;211.76;207.46;208.75;206.75;208.79;210.13;204.43;203.74;198.68;200.3;197.52;199.44;201.23;197.21;199.54;197.39;201.26;200.79;204.11;202.61;205.24;209.42;212.78;222.65;230.01;236.33;237.4;237.67;234.97;236.61;241.66;244.51;242.59;236.44;230.62;228.28;229.02;230.04;228.57;224.93;221.62;221.06;223.31;226.35;228.11;228.22;228.11;229.35;232.19;235.38;237.35;237.65;237.1;236.89;237.43;238.08;237.9;236.51;234.49;232.74;231.75;231.24;230.59;229.51;228.29;227.49;227.49;228.09;228.83;229.31;229.44;231.51;236.14;245.29;251.33;256.93;256.76;255.64;258.52;258.95;262.18;260.44;259.92;255.36;234.55" dur="8s" repeatCount="indefinite" calcMode="linear"/>
  </circle>

  <!-- Légende -->
  <g transform="translate(240.0,36)">
    <rect x="0" y="-11" width="220" height="22" rx="11"
          fill="rgba(20,15,35,0.85)" stroke="rgba(0,229,204,0.35)" stroke-width="0.75"/>
    <line x1="16" y1="0" x2="38" y2="0" stroke="url(#steer-grad)" stroke-width="2.5" stroke-linecap="round"/>
    <text x="48" y="4" font-size="10" letter-spacing="1.5" font-weight="500"
          fill="rgba(255,180,230,0.85)"
          font-family="'JetBrains Mono',monospace">FRONT STEERING ANGLE</text>
  </g>

</svg>