<svg xmlns="http://www.w3.org/2000/svg" viewBox="0 0 700 600" width="100%" class="trajectory-svg">
      <defs>
        <linearGradient id="trail-grad-t" x1="63.5" y1="0" x2="632.2" y2="0" gradientUnits="userSpaceOnUse">
          <stop offset="0%" stop-color="#aa00ff"/><stop offset="100%" stop-color="#ff00cc"/>
        </linearGradient>
      </defs>

      <rect width="700" height="600" fill="#0d0a1a"/>
      <g class="grid"><line x1="60" y1="60" x2="60" y2="540" stroke="rgba(0,229,204,1)" stroke-width="0.5" opacity="0.06"/>
<line x1="156" y1="60" x2="156" y2="540" stroke="rgba(0,229,204,1)" stroke-width="0.5" opacity="0.06"/>
<line x1="253" y1="60" x2="253" y2="540" stroke="rgba(0,229,204,1)" stroke-width="0.5" opacity="0.06"/>
<line x1="350" y1="60" x2="350" y2="540" stroke="rgba(0,229,204,1)" stroke-width="0.5" opacity="0.06"/>
<line x1="446" y1="60" x2="446" y2="540" stroke="rgba(0,229,204,1)" stroke-width="0.5" opacity="0.06"/>
<line x1="543" y1="60" x2="543" y2="540" stroke="rgba(0,229,204,1)" stroke-width="0.5" opacity="0.06"/>
<line x1="640" y1="60" x2="640" y2="540" stroke="rgba(0,229,204,1)" stroke-width="0.5" opacity="0.06"/>
<line x1="60" y1="60" x2="640" y2="60" stroke="rgba(0,229,204,1)" stroke-width="0.5" opacity="0.18"/>
<line x1="60" y1="140" x2="640" y2="140" stroke="rgba(0,229,204,1)" stroke-width="0.5" opacity="0.18"/>
<line x1="60" y1="220" x2="640" y2="220" stroke="rgba(0,229,204,1)" stroke-width="0.5" opacity="0.18"/>
<line x1="60" y1="300" x2="640" y2="300" stroke="rgba(0,229,204,1)" stroke-width="0.5" opacity="0.18"/>
<line x1="60" y1="380" x2="640" y2="380" stroke="rgba(0,229,204,1)" stroke-width="0.5" opacity="0.18"/>
<line x1="60" y1="460" x2="640" y2="460" stroke="rgba(0,229,204,1)" stroke-width="0.5" opacity="0.18"/>
<line x1="60" y1="540" x2="640" y2="540" stroke="rgba(0,229,204,1)" stroke-width="0.5" opacity="0.18"/>
</g>
      <rect x="60" y="60" width="580" height="480" fill="none" stroke="rgba(0,229,204,0.15)" stroke-width="0.75" rx="4"/>

      <path d="M 60.0,94.98 L 60.82,94.98 L 61.64,94.98 L 62.45,94.98 L 63.27,94.98 L 64.09,94.98 L 64.91,94.98 L 65.72,94.98 L 66.54,94.98 L 67.36,94.98 L 68.18,94.98 L 68.99,94.98 L 69.81,94.98 L 70.63,94.98 L 71.45,94.98 L 72.26,94.98 L 73.08,94.98 L 73.9,94.98 L 74.72,94.98 L 75.53,94.98 L 76.35,94.98 L 77.17,94.98 L 77.99,94.98 L 78.8,94.98 L 79.62,94.98 L 80.44,94.98 L 81.26,94.98 L 82.08,94.98 L 82.89,94.98 L 83.71,94.98 L 84.53,94.98 L 85.35,94.98 L 86.16,94.98 L 86.98,94.98 L 87.8,94.98 L 88.62,94.98 L 89.43,94.98 L 90.25,94.98 L 91.07,94.98 L 91.89,94.98 L 92.7,94.98 L 93.52,94.98 L 94.34,94.98 L 95.16,94.98 L 95.97,94.98 L 96.79,94.98 L 97.61,94.98 L 98.43,94.98 L 99.25,94.98 L 100.06,94.98 L 100.88,94.98 L 101.7,94.98 L 102.52,94.98 L 103.33,94.98 L 104.15,94.98 L 104.97,94.98 L 105.79,94.98 L 106.6,94.98 L 107.42,94.98 L 108.24,94.98 L 109.06,94.98 L 109.87,94.98 L 110.69,94.98 L 111.51,94.98 L 112.33,94.98 L 113.14,94.98 L 113.96,94.98 L 114.78,94.98 L 115.6,94.98 L 116.41,94.98 L 117.23,94.98 L 118.05,94.98 L 118.87,94.98 L 119.69,94.98 L 120.5,94.98 L 121.32,94.98 L 122.14,94.98 L 122.96,94.98 L 123.77,94.98 L 124.59,94.98 L 125.41,94.98 L 126.23,94.98 L 127.04,94.98 L 127.86,94.98 L 128.68,94.98 L 129.5,94.98 L 130.31,94.98 L 131.13,94.98 L 131.95,94.98 L 132.77,94.98 L 133.58,94.98 L 134.4,94.98 L 135.22,94.98 L 136.04,94.98 L 136.85,94.98 L 137.67,94.98 L 138.49,94.98 L 139.31,94.98 L 140.13,94.98 L 140.94,94.98 L 141.76,94.98 L 142.58,94.98 L 143.4,94.98 L 144.21,94.98 L 145.03,94.98 L 145.85,94.98 L 146.67,94.98 L 147.48,94.98 L 148.3,94.98 L 149.12,94.98 L 149.94,94.98 L 150.75,94.98 L 151.57,94.98 L 152.39,94.98 L 153.21,94.98 L 154.02,94.98 L 154.84,94.98 L 155.66,94.98 L 156.48,94.98 L 157.3,94.98 L 158.11,94.98 L 158.93,94.98 L 159.75,94.98 L 160.57,94.98 L 161.38,94.98 L 162.2,94.98 L 163.02,94.98 L 163.84,94.98 L 164.65,94.98 L 165.47,94.98 L 166.29,94.98 L 167.11,94.98 L 167.92,94.98 L 168.74,94.98 L 169.56,94.98 L 170.38,94.98 L 171.19,94.98 L 172.01,94.98 L 172.83,94.98 L 173.65,94.98 L 174.46,94.98 L 175.28,94.98 L 176.1,94.98 L 176.92,94.98 L 177.74,94.98 L 178.55,94.98 L 179.37,94.98 L 180.19,94.98 L 181.01,94.98 L 181.82,94.98 L 182.64,94.98 L 183.46,94.98 L 184.28,94.98 L 185.09,94.98 L 185.91,94.98 L 186.73,94.98 L 187.55,94.98 L 188.36,94.98 L 189.18,94.98 L 190.0,94.98 L 190.82,94.98 L 191.63,94.98 L 192.45,94.98 L 193.27,94.98 L 194.09,94.98 L 194.9,94.98 L 195.72,94.98 L 196.54,94.98 L 197.36,94.98 L 198.18,94.98 L 198.99,94.98 L 199.81,94.98 L 200.63,94.98 L 201.45,94.98 L 202.26,94.98 L 203.08,94.98 L 203.9,94.98 L 204.72,94.98 L 205.53,94.98 L 206.35,94.98 L 207.17,94.98 L 207.99,94.98 L 208.8,94.98 L 209.62,94.98 L 210.44,94.98 L 211.26,94.98 L 212.07,94.98 L 212.89,94.98 L 213.71,94.98 L 214.53,94.98 L 215.35,94.98 L 216.16,94.98 L 216.98,94.98 L 217.8,94.99 L 218.62,94.99 L 219.43,95.01 L 220.25,95.02 L 221.07,95.04 L 221.89,95.06 L 222.7,95.09 L 223.52,95.12 L 224.34,95.16 L 225.15,95.2 L 225.97,95.25 L 226.78,95.3 L 227.6,95.35 L 228.42,95.41 L 229.23,95.47 L 230.05,95.54 L 230.86,95.61 L 231.67,95.69 L 232.49,95.77 L 233.3,95.85 L 234.11,95.94 L 234.93,96.03 L 235.74,96.13 L 236.55,96.23 L 237.36,96.34 L 238.17,96.45 L 238.98,96.56 L 239.79,96.68 L 240.6,96.81 L 241.4,96.93 L 242.21,97.07 L 243.02,97.2 L 243.82,97.34 L 244.63,97.49 L 245.43,97.63 L 246.24,97.79 L 247.04,97.95 L 247.84,98.11 L 248.64,98.27 L 249.44,98.44 L 250.24,98.62 L 251.04,98.8 L 251.83,98.98 L 252.63,99.17 L 253.42,99.36 L 254.22,99.55 L 255.01,99.75 L 255.8,99.96 L 256.59,100.16 L 257.38,100.38 L 258.17,100.59 L 258.96,100.81 L 259.74,101.04 L 260.53,101.27 L 261.31,101.5 L 262.1,101.74 L 262.88,101.98 L 263.66,102.22 L 264.44,102.47 L 265.21,102.73 L 265.99,102.99 L 266.76,103.25 L 267.54,103.51 L 268.31,103.78 L 269.08,104.06 L 269.85,104.34 L 270.61,104.62 L 271.38,104.91 L 272.14,105.2 L 272.91,105.49 L 273.67,105.79 L 274.43,106.09 L 275.18,106.4 L 275.94,106.71 L 276.7,107.02 L 277.45,107.34 L 278.2,107.67 L 278.95,107.99 L 279.7,108.32 L 280.44,108.66 L 281.19,109.0 L 281.93,109.34 L 282.67,109.69 L 283.41,110.04 L 284.15,110.39 L 284.88,110.75 L 285.61,111.11 L 286.35,111.48 L 287.07,111.85 L 287.8,112.22 L 288.53,112.6 L 289.25,112.98 L 289.97,113.36 L 290.69,113.75 L 291.41,114.15 L 292.12,114.54 L 292.84,114.94 L 293.55,115.35 L 294.25,115.75 L 294.96,116.17 L 295.66,116.58 L 296.37,117.0 L 297.07,117.42 L 297.76,117.85 L 298.46,118.29 L 299.15,118.73 L 299.83,119.17 L 300.51,119.63 L 301.19,120.09 L 301.86,120.56 L 302.52,121.03 L 303.18,121.51 L 303.84,122.0 L 304.48,122.5 L 305.13,123.0 L 305.77,123.52 L 306.4,124.03 L 307.03,124.56 L 307.65,125.09 L 308.27,125.63 L 308.88,126.17 L 309.48,126.72 L 310.08,127.28 L 310.67,127.84 L 311.26,128.41 L 311.84,128.99 L 312.41,129.57 L 312.98,130.16 L 313.54,130.75 L 314.1,131.35 L 314.65,131.96 L 315.19,132.57 L 315.72,133.19 L 316.25,133.81 L 316.78,134.44 L 317.29,135.07 L 317.8,135.71 L 318.3,136.36 L 318.8,137.01 L 319.29,137.66 L 319.77,138.32 L 320.24,138.99 L 320.71,139.66 L 321.17,140.34 L 321.62,141.02 L 322.07,141.71 L 322.5,142.4 L 322.93,143.09 L 323.36,143.79 L 323.77,144.49 L 324.18,145.2 L 324.58,145.92 L 324.97,146.63 L 325.36,147.36 L 325.73,148.08 L 326.1,148.81 L 326.47,149.54 L 326.82,150.28 L 327.16,151.02 L 327.5,151.77 L 327.83,152.51 L 328.15,153.27 L 328.47,154.02 L 328.77,154.78 L 329.07,155.54 L 329.36,156.3 L 329.64,157.07 L 329.92,157.84 L 330.18,158.62 L 330.44,159.39 L 330.69,160.17 L 330.93,160.95 L 331.16,161.74 L 331.38,162.52 L 331.59,163.31 L 331.8,164.1 L 332.0,164.9 L 332.19,165.69 L 332.37,166.49 L 332.54,167.29 L 332.7,168.09 L 332.86,168.89 L 333.01,169.7 L 333.14,170.5 L 333.27,171.31 L 333.39,172.12 L 333.51,172.93 L 333.61,173.74 L 333.7,174.55 L 333.79,175.37 L 333.87,176.18 L 333.94,176.99 L 334.0,177.81 L 334.05,178.63 L 334.1,179.44 L 334.15,180.26 L 334.2,181.07 L 334.24,181.89 L 334.29,182.71 L 334.34,183.52 L 334.38,184.34 L 334.43,185.16 L 334.48,185.97 L 334.52,186.79 L 334.57,187.6 L 334.62,188.42 L 334.67,189.24 L 334.71,190.05 L 334.76,190.87 L 334.81,191.69 L 334.85,192.5 L 334.9,193.32 L 334.95,194.13 L 335.0,194.95 L 335.04,195.77 L 335.09,196.58 L 335.14,197.4 L 335.19,198.22 L 335.23,199.03 L 335.28,199.85 L 335.33,200.66 L 335.37,201.48 L 335.42,202.3 L 335.47,203.11 L 335.52,203.93 L 335.56,204.75 L 335.61,205.56 L 335.66,206.38 L 335.7,207.19 L 335.75,208.01 L 335.8,208.83 L 335.85,209.64 L 335.89,210.46 L 335.94,211.28 L 335.99,212.09 L 336.03,212.91 L 336.08,213.72 L 336.13,214.54 L 336.18,215.36 L 336.22,216.17 L 336.27,216.99 L 336.32,217.8 L 336.37,218.62 L 336.41,219.44 L 336.46,220.25 L 336.51,221.07 L 336.55,221.89 L 336.6,222.7 L 336.65,223.52 L 336.7,224.33 L 336.74,225.15 L 336.79,225.97 L 336.84,226.78 L 336.88,227.6 L 336.93,228.42 L 336.98,229.23 L 337.03,230.05 L 337.07,230.86 L 337.12,231.68 L 337.17,232.5 L 337.22,233.31 L 337.26,234.13 L 337.31,234.95 L 337.36,235.76 L 337.4,236.58 L 337.45,237.39 L 337.5,238.21 L 337.55,239.03 L 337.59,239.84 L 337.64,240.66 L 337.69,241.48 L 337.73,242.29 L 337.78,243.11 L 337.83,243.92 L 337.88,244.74 L 337.92,245.56 L 337.97,246.37 L 338.02,247.19 L 338.06,248.01 L 338.11,248.82 L 338.16,249.64 L 338.21,250.45 L 338.25,251.27 L 338.3,252.09 L 338.35,252.9 L 338.4,253.72 L 338.44,254.54 L 338.49,255.35 L 338.54,256.17 L 338.58,256.98 L 338.63,257.8 L 338.68,258.62 L 338.73,259.43 L 338.77,260.25 L 338.82,261.07 L 338.87,261.88 L 338.91,262.7 L 338.96,263.51 L 339.01,264.33 L 339.06,265.15 L 339.1,265.96 L 339.15,266.78 L 339.2,267.6 L 339.25,268.41 L 339.29,269.23 L 339.34,270.04 L 339.39,270.86 L 339.43,271.68 L 339.48,272.49 L 339.53,273.31 L 339.58,274.13 L 339.62,274.94 L 339.67,275.76 L 339.72,276.57 L 339.76,277.39 L 339.81,278.21 L 339.86,279.02 L 339.91,279.84 L 339.95,280.66 L 340.0,281.47 L 340.05,282.29 L 340.09,283.1 L 340.14,283.92 L 340.19,284.74 L 340.24,285.55 L 340.28,286.37 L 340.33,287.19 L 340.38,288.0 L 340.43,288.82 L 340.47,289.63 L 340.52,290.45 L 340.57,291.27 L 340.61,292.08 L 340.66,292.9 L 340.71,293.72 L 340.76,294.53 L 340.8,295.35 L 340.85,296.16 L 340.9,296.98 L 340.94,297.8 L 340.99,298.61 L 341.04,299.43 L 341.09,300.25 L 341.13,301.06 L 341.18,301.88 L 341.23,302.69 L 341.28,303.51 L 341.32,304.33 L 341.37,305.14 L 341.42,305.96 L 341.46,306.78 L 341.51,307.59 L 341.56,308.41 L 341.61,309.22 L 341.65,310.04 L 341.7,310.86 L 341.75,311.67 L 341.79,312.49 L 341.84,313.31 L 341.89,314.12 L 341.94,314.94 L 341.98,315.75 L 342.03,316.57 L 342.08,317.39 L 342.12,318.2 L 342.17,319.02 L 342.22,319.84 L 342.27,320.65 L 342.31,321.47 L 342.36,322.28 L 342.41,323.1 L 342.46,323.92 L 342.5,324.73 L 342.55,325.55 L 342.6,326.37 L 342.64,327.18 L 342.69,328.0 L 342.74,328.81 L 342.79,329.63 L 342.83,330.45 L 342.88,331.26 L 342.93,332.08 L 342.97,332.9 L 343.02,333.71 L 343.07,334.53 L 343.12,335.34 L 343.16,336.16 L 343.21,336.98 L 343.26,337.79 L 343.31,338.61 L 343.35,339.42 L 343.4,340.24 L 343.46,341.06 L 343.51,341.87 L 343.56,342.69 L 343.62,343.5 L 343.68,344.32 L 343.74,345.14 L 343.8,345.95 L 343.86,346.77 L 343.93,347.58 L 344.0,348.4 L 344.07,349.21 L 344.14,350.02 L 344.21,350.84 L 344.28,351.65 L 344.36,352.47 L 344.44,353.28 L 344.52,354.1 L 344.6,354.91 L 344.68,355.72 L 344.76,356.54 L 344.85,357.35 L 344.94,358.16 L 345.03,358.97 L 345.12,359.79 L 345.21,360.6 L 345.31,361.41 L 345.4,362.22 L 345.5,363.03 L 345.6,363.85 L 345.7,364.66 L 345.8,365.47 L 345.91,366.28 L 346.02,367.09 L 346.12,367.9 L 346.23,368.71 L 346.35,369.52 L 346.46,370.33 L 346.57,371.14 L 346.69,371.95 L 346.81,372.76 L 346.93,373.57 L 347.05,374.37 L 347.18,375.18 L 347.3,375.99 L 347.43,376.8 L 347.56,377.61 L 347.69,378.41 L 347.82,379.22 L 347.96,380.03 L 348.09,380.83 L 348.23,381.64 L 348.37,382.44 L 348.51,383.25 L 348.65,384.05 L 348.8,384.86 L 348.94,385.66 L 349.09,386.47 L 349.24,387.27 L 349.4,388.07 L 349.55,388.88 L 349.71,389.68 L 349.88,390.48 L 350.04,391.28 L 350.21,392.08 L 350.39,392.88 L 350.57,393.68 L 350.75,394.47 L 350.93,395.27 L 351.12,396.07 L 351.31,396.86 L 351.5,397.66 L 351.7,398.45 L 351.9,399.24 L 352.11,400.03 L 352.31,400.82 L 352.53,401.61 L 352.74,402.4 L 352.96,403.19 L 353.18,403.98 L 353.4,404.76 L 353.63,405.55 L 353.86,406.33 L 354.1,407.12 L 354.33,407.9 L 354.57,408.68 L 354.82,409.46 L 355.07,410.24 L 355.32,411.02 L 355.57,411.79 L 355.83,412.57 L 356.09,413.35 L 356.35,414.12 L 356.62,414.89 L 356.89,415.66 L 357.17,416.43 L 357.44,417.2 L 357.72,417.97 L 358.01,418.74 L 358.3,419.5 L 358.59,420.27 L 358.88,421.03 L 359.18,421.79 L 359.48,422.55 L 359.78,423.31 L 360.08,424.07 L 360.39,424.83 L 360.71,425.58 L 361.02,426.34 L 361.34,427.09 L 361.66,427.84 L 361.99,428.59 L 362.32,429.34 L 362.65,430.09 L 362.99,430.83 L 363.32,431.58 L 363.67,432.32 L 364.01,433.06 L 364.36,433.8 L 364.71,434.54 L 365.06,435.28 L 365.42,436.01 L 365.78,436.75 L 366.14,437.48 L 366.51,438.21 L 366.88,438.94 L 367.25,439.67 L 367.63,440.39 L 368.0,441.12 L 368.39,441.84 L 368.77,442.56 L 369.16,443.28 L 369.55,444.0 L 369.95,444.71 L 370.35,445.43 L 370.76,446.13 L 371.17,446.84 L 371.59,447.54 L 372.02,448.24 L 372.44,448.94 L 372.88,449.63 L 373.32,450.32 L 373.76,451.01 L 374.21,451.69 L 374.67,452.37 L 375.13,453.05 L 375.59,453.72 L 376.06,454.39 L 376.53,455.05 L 377.01,455.72 L 377.5,456.37 L 377.99,457.03 L 378.48,457.68 L 378.98,458.33 L 379.48,458.97 L 379.99,459.61 L 380.51,460.25 L 381.02,460.88 L 381.55,461.51 L 382.07,462.13 L 382.61,462.76 L 383.14,463.37 L 383.68,463.99 L 384.23,464.59 L 384.78,465.2 L 385.34,465.8 L 385.89,466.4 L 386.46,466.99 L 387.03,467.58 L 387.6,468.16 L 388.18,468.74 L 388.76,469.31 L 389.34,469.89 L 389.93,470.45 L 390.52,471.01 L 391.12,471.57 L 391.72,472.13 L 392.33,472.67 L 392.94,473.22 L 393.56,473.76 L 394.17,474.29 L 394.8,474.82 L 395.42,475.35 L 396.05,475.87 L 396.69,476.39 L 397.32,476.9 L 397.96,477.41 L 398.61,477.91 L 399.26,478.41 L 399.91,478.9 L 400.57,479.39 L 401.23,479.87 L 401.89,480.35 L 402.56,480.82 L 403.23,481.29 L 403.9,481.75 L 404.58,482.21 L 405.26,482.66 L 405.94,483.11 L 406.63,483.55 L 407.32,483.99 L 408.02,484.42 L 408.71,484.85 L 409.41,485.27 L 410.12,485.69 L 410.82,486.1 L 411.53,486.5 L 412.25,486.9 L 412.96,487.3 L 413.68,487.69 L 414.4,488.08 L 415.13,488.46 L 415.85,488.83 L 416.58,489.2 L 417.31,489.56 L 418.05,489.92 L 418.79,490.27 L 419.53,490.62 L 420.27,490.96 L 421.02,491.3 L 421.76,491.63 L 422.51,491.95 L 423.27,492.27 L 424.02,492.58 L 424.78,492.89 L 425.54,493.19 L 426.3,493.49 L 427.07,493.78 L 427.83,494.07 L 428.6,494.35 L 429.37,494.62 L 430.14,494.89 L 430.92,495.15 L 431.69,495.41 L 432.47,495.66 L 433.25,495.9 L 434.03,496.14 L 434.82,496.37 L 435.6,496.6 L 436.39,496.82 L 437.18,497.04 L 437.97,497.25 L 438.76,497.45 L 439.55,497.65 L 440.35,497.84 L 441.14,498.03 L 441.94,498.21 L 442.74,498.38 L 443.54,498.55 L 444.34,498.71 L 445.15,498.87 L 445.95,499.02 L 446.75,499.17 L 447.56,499.3 L 448.37,499.44 L 449.17,499.56 L 449.98,499.68 L 450.79,499.8 L 451.6,499.91 L 452.41,500.01 L 453.23,500.1 L 454.04,500.2 L 454.85,500.28 L 455.67,500.36 L 456.48,500.43 L 457.29,500.5 L 458.11,500.56 L 458.93,500.61 L 459.74,500.66 L 460.56,500.7 L 461.38,500.74 L 462.19,500.76 L 463.01,500.79 L 463.83,500.81 L 464.64,500.82 L 465.46,500.83 L 466.28,500.84 L 467.1,500.85 L 467.91,500.86 L 468.73,500.86 L 469.55,500.87 L 470.37,500.88 L 471.19,500.89 L 472.0,500.9 L 472.82,500.91 L 473.64,500.91 L 474.46,500.92 L 475.27,500.93 L 476.09,500.94 L 476.91,500.95 L 477.73,500.96 L 478.54,500.97 L 479.36,500.97 L 480.18,500.98 L 481.0,500.99 L 481.81,501.0 L 482.63,501.01 L 483.45,501.02 L 484.27,501.03 L 485.08,501.03 L 485.9,501.04 L 486.72,501.05 L 487.54,501.06 L 488.35,501.07 L 489.17,501.08 L 489.99,501.09 L 490.81,501.09 L 491.62,501.1 L 492.44,501.11 L 493.26,501.12 L 494.08,501.13 L 494.89,501.14 L 495.71,501.15 L 496.53,501.15 L 497.35,501.16 L 498.16,501.17 L 498.98,501.18 L 499.8,501.19 L 500.62,501.2 L 501.43,501.21 L 502.25,501.21 L 503.07,501.22 L 503.89,501.23 L 504.71,501.24 L 505.52,501.25 L 506.34,501.26 L 507.16,501.27 L 507.98,501.27 L 508.79,501.28 L 509.61,501.29 L 510.43,501.3 L 511.25,501.31 L 512.06,501.32 L 512.88,501.33 L 513.7,501.33 L 514.52,501.34 L 515.33,501.35 L 516.15,501.36 L 516.97,501.37 L 517.79,501.38 L 518.6,501.39 L 519.42,501.39 L 520.24,501.4 L 521.06,501.41 L 521.87,501.42 L 522.69,501.43 L 523.51,501.44 L 524.33,501.45 L 525.14,501.45 L 525.96,501.46 L 526.78,501.47 L 527.6,501.48 L 528.41,501.49 L 529.23,501.5 L 530.05,501.51 L 530.87,501.51 L 531.68,501.52 L 532.5,501.53 L 533.32,501.54 L 534.14,501.55 L 534.95,501.56 L 535.77,501.57 L 536.59,501.57 L 537.41,501.58 L 538.23,501.59 L 539.04,501.6 L 539.86,501.61 L 540.68,501.62 L 541.5,501.63 L 542.31,501.63 L 543.13,501.64 L 543.95,501.65 L 544.77,501.66 L 545.58,501.67 L 546.4,501.68 L 547.22,501.69 L 548.04,501.69 L 548.85,501.7 L 549.67,501.71 L 550.49,501.72 L 551.31,501.73 L 552.12,501.74 L 552.94,501.75 L 553.76,501.75 L 554.58,501.76 L 555.39,501.77 L 556.21,501.78 L 557.03,501.79 L 557.85,501.8 L 558.66,501.81 L 559.48,501.81 L 560.3,501.82 L 561.12,501.83 L 561.93,501.84 L 562.75,501.85 L 563.57,501.86 L 564.39,501.87 L 565.2,501.87 L 566.02,501.88 L 566.84,501.89 L 567.66,501.9 L 568.47,501.91 L 569.29,501.92 L 570.11,501.93 L 570.93,501.93 L 571.75,501.94 L 572.56,501.95 L 573.38,501.96 L 574.2,501.97 L 575.02,501.98 L 575.83,501.99 L 576.65,501.99 L 577.47,502.0 L 578.29,502.01 L 579.1,502.02 L 579.92,502.03 L 580.74,502.04 L 581.56,502.05 L 582.37,502.05 L 583.19,502.06 L 584.01,502.07 L 584.83,502.08 L 585.64,502.09 L 586.46,502.1 L 587.28,502.11 L 588.1,502.11 L 588.91,502.12 L 589.73,502.13 L 590.55,502.14 L 591.37,502.15 L 592.18,502.16 L 593.0,502.17 L 593.82,502.17 L 594.64,502.18 L 595.45,502.19 L 596.27,502.2 L 597.09,502.21 L 597.91,502.22 L 598.72,502.23 L 599.54,502.23 L 600.36,502.24 L 601.18,502.25 L 601.99,502.26 L 602.81,502.27 L 603.63,502.28 L 604.45,502.3 L 605.26,502.32 L 606.08,502.34 L 606.9,502.37 L 607.72,502.4 L 608.53,502.44 L 609.35,502.48 L 610.17,502.52 L 610.98,502.57 L 611.8,502.63 L 612.61,502.69 L 613.43,502.75 L 614.24,502.82 L 615.06,502.89 L 615.87,502.96 L 616.69,503.04 L 617.5,503.13 L 618.31,503.22 L 619.12,503.31 L 619.94,503.41 L 620.75,503.51 L 621.56,503.61 L 622.37,503.72 L 623.18,503.84 L 623.99,503.96 L 624.79,504.08 L 625.6,504.21 L 626.41,504.34 L 627.22,504.48 L 628.02,504.62 L 628.83,504.76 L 629.63,504.91 L 630.43,505.06 L 631.23,505.22 L 632.04,505.38 L 632.84,505.55 L 633.64,505.72 L 634.44,505.89 L 635.23,506.07 L 636.03,506.25 L 636.83,506.44 L 637.62,506.63 L 638.42,506.82 L 639.21,507.02 L 640.0,507.23" fill="none" stroke="rgba(255,255,255,0.38)" stroke-width="1.3" stroke-dasharray="8 5"/>

      <path d="M 63.5,98.49 L 66.24,97.97 L 68.9,97.08 L 71.65,96.57 L 74.44,96.27 L 77.2,95.78 L 79.86,94.92 L 82.47,93.89 L 85.16,93.09 L 87.94,92.77 L 90.74,92.84 L 93.54,93.0 L 96.34,93.02 L 99.14,92.94 L 101.94,93.01 L 104.72,93.39 L 107.45,94.03 L 110.17,94.7 L 112.93,95.21 L 115.71,95.51 L 118.51,95.74 L 121.29,96.03 L 124.07,96.38 L 126.86,96.66 L 129.66,96.74 L 132.46,96.59 L 135.25,96.3 L 138.04,96.01 L 140.83,95.78 L 143.63,95.55 L 146.41,95.25 L 149.19,94.87 L 151.97,94.48 L 154.75,94.17 L 157.55,93.99 L 160.35,93.92 L 163.16,93.9 L 165.96,93.89 L 168.76,93.91 L 171.56,94.01 L 174.36,94.21 L 177.15,94.48 L 179.94,94.76 L 182.73,94.99 L 185.53,95.19 L 188.33,95.37 L 191.12,95.54 L 193.92,95.7 L 196.72,95.8 L 199.53,95.82 L 202.33,95.77 L 205.13,95.67 L 207.93,95.56 L 210.73,95.43 L 213.53,95.29 L 216.33,95.14 L 219.13,94.96 L 221.93,94.81 L 224.73,94.72 L 227.53,94.74 L 230.33,94.89 L 233.12,95.15 L 235.9,95.49 L 238.67,95.92 L 241.43,96.44 L 244.16,97.07 L 246.87,97.8 L 249.55,98.6 L 252.23,99.43 L 254.9,100.3 L 257.56,101.18 L 260.21,102.08 L 262.86,103.0 L 265.5,103.94 L 268.15,104.87 L 270.79,105.8 L 273.44,106.72 L 276.08,107.67 L 278.7,108.64 L 281.32,109.66 L 283.91,110.71 L 286.49,111.82 L 289.04,112.98 L 291.56,114.2 L 294.05,115.51 L 296.48,116.89 L 298.87,118.35 L 301.21,119.9 L 303.48,121.55 L 305.66,123.31 L 307.75,125.17 L 309.75,127.14 L 311.66,129.19 L 313.5,131.31 L 315.25,133.5 L 316.92,135.74 L 318.52,138.05 L 320.03,140.41 L 321.48,142.81 L 322.88,145.24 L 324.21,147.7 L 325.48,150.2 L 326.68,152.73 L 327.81,155.3 L 328.87,157.9 L 329.84,160.53 L 330.73,163.19 L 331.52,165.87 L 332.21,168.59 L 332.78,171.34 L 333.23,174.1 L 333.57,176.89 L 333.79,179.68 L 333.92,182.48 L 333.99,185.28 L 334.06,188.08 L 334.14,190.89 L 334.25,193.69 L 334.39,196.49 L 334.55,199.29 L 334.73,202.08 L 334.93,204.88 L 335.16,207.67 L 335.42,210.46 L 335.72,213.25 L 336.02,216.04 L 336.32,218.83 L 336.6,221.61 L 336.87,224.4 L 337.13,227.2 L 337.38,229.99 L 337.6,232.78 L 337.78,235.58 L 337.93,238.38 L 338.05,241.18 L 338.16,243.98 L 338.26,246.78 L 338.34,249.58 L 338.41,252.39 L 338.48,255.19 L 338.55,257.99 L 338.63,260.79 L 338.74,263.59 L 338.86,266.4 L 338.99,269.2 L 339.15,271.99 L 339.32,274.79 L 339.51,277.59 L 339.72,280.38 L 339.94,283.18 L 340.17,285.97 L 340.39,288.77 L 340.61,291.56 L 340.83,294.36 L 341.05,297.15 L 341.25,299.95 L 341.44,302.74 L 341.61,305.54 L 341.77,308.34 L 341.91,311.14 L 342.05,313.94 L 342.18,316.74 L 342.3,319.54 L 342.41,322.34 L 342.53,325.14 L 342.65,327.94 L 342.77,330.74 L 342.9,333.54 L 343.04,336.34 L 343.19,339.14 L 343.36,341.94 L 343.54,344.74 L 343.76,347.53 L 344.03,350.32 L 344.32,353.11 L 344.64,355.9 L 344.99,358.68 L 345.35,361.46 L 345.74,364.23 L 346.15,367.01 L 346.58,369.78 L 347.02,372.54 L 347.47,375.31 L 347.93,378.08 L 348.4,380.84 L 348.88,383.6 L 349.37,386.36 L 349.88,389.12 L 350.41,391.87 L 350.98,394.62 L 351.59,397.35 L 352.25,400.08 L 352.95,402.79 L 353.7,405.49 L 354.49,408.18 L 355.34,410.85 L 356.24,413.51 L 357.19,416.15 L 358.18,418.77 L 359.22,421.37 L 360.3,423.96 L 361.41,426.53 L 362.56,429.09 L 363.75,431.63 L 364.96,434.15 L 366.21,436.67 L 367.48,439.16 L 368.78,441.65 L 370.11,444.11 L 371.48,446.56 L 372.91,448.97 L 374.4,451.34 L 375.95,453.68 L 377.57,455.97 L 379.25,458.21 L 381.0,460.41 L 382.81,462.55 L 384.68,464.63 L 386.62,466.65 L 388.62,468.61 L 390.68,470.52 L 392.78,472.37 L 394.94,474.17 L 397.14,475.9 L 399.38,477.59 L 401.65,479.23 L 403.95,480.84 L 406.27,482.41 L 408.61,483.95 L 410.99,485.44 L 413.4,486.87 L 415.84,488.24 L 418.31,489.56 L 420.81,490.82 L 423.35,492.02 L 425.92,493.14 L 428.53,494.17 L 431.17,495.11 L 433.84,495.96 L 436.53,496.73 L 439.25,497.41 L 441.99,498.01 L 444.75,498.52 L 447.52,498.95 L 450.3,499.3 L 453.09,499.58 L 455.88,499.8 L 458.68,499.96 L 461.48,500.06 L 464.29,500.1 L 467.09,500.11 L 469.89,500.1 L 472.7,500.11 L 475.5,500.15 L 478.3,500.24 L 481.1,500.37 L 483.9,500.49 L 486.7,500.6 L 489.5,500.72 L 492.3,500.87 L 495.1,501.04 L 497.9,501.21 L 500.7,501.36 L 503.5,501.48 L 506.3,501.56 L 509.1,501.63 L 511.9,501.69 L 514.71,501.73 L 517.51,501.74 L 520.31,501.72 L 523.12,501.68 L 525.92,501.62 L 528.72,501.57 L 531.52,501.53 L 534.33,501.48 L 537.13,501.44 L 539.93,501.41 L 542.74,501.39 L 545.54,501.39 L 548.34,501.42 L 551.15,501.47 L 553.95,501.52 L 556.75,501.58 L 559.55,501.66 L 562.36,501.74 L 565.16,501.84 L 567.96,501.93 L 570.76,502.01 L 573.56,502.08 L 576.37,502.15 L 579.17,502.2 L 581.97,502.24 L 584.77,502.27 L 587.58,502.29 L 590.38,502.3 L 593.18,502.29 L 595.99,502.28 L 598.79,502.27 L 601.59,502.27 L 604.4,502.26 L 607.2,502.27 L 610.0,502.33 L 612.8,502.45 L 615.6,502.66 L 618.39,502.94 L 621.17,503.31 L 623.94,503.74 L 626.69,504.25 L 629.44,504.83 L 632.16,505.48" fill="none" stroke="url(#trail-grad-t)" stroke-width="2.5" stroke-linecap="round" stroke-linejoin="round"
            stroke-dasharray="866.15" stroke-dashoffset="866.15">
        <animate attributeName="stroke-dashoffset" values="866.15;863.36;860.55;857.76;854.95;852.15;849.35;846.55;843.74;840.94;838.14;835.34;832.54;829.73;826.93;824.13;821.32;818.52;815.72;812.92;810.11;807.32;804.51;801.71;798.91;796.1;793.3;790.49;787.69;784.89;782.09;779.28;776.48;773.68;770.87;768.07;765.26;762.46;759.66;756.86;754.05;751.25;748.45;745.65;742.84;740.03;737.24;734.43;731.63;728.82;726.02;723.22;720.42;717.61;714.81;712.01;709.2;706.4;703.6;700.8;697.99;695.19;692.39;689.59;686.78;683.98;681.17;678.37;675.57;672.76;669.96;667.16;664.35;661.55;658.74;655.94;653.14;650.33;647.54;644.73;641.93;639.12;636.32;633.52;630.71;627.91;625.11;622.31;619.5;616.7;613.9;611.09;608.29;605.48;602.68;599.89;597.08;594.28;591.47;588.67;585.87;583.07;580.27;577.46;574.65;571.85;569.04;566.25;563.44;560.63;557.84;555.03;552.23;549.43;546.62;543.82;541.01;538.21;535.41;532.6;529.81;527.0;524.2;521.4;518.59;515.79;512.98;510.19;507.38;504.57;501.77;498.97;496.16;493.36;490.56;487.76;484.95;482.15;479.34;476.54;473.74;470.94;468.14;465.32;462.52;459.73;456.92;454.12;451.32;448.51;445.71;442.9;440.1;437.29;434.49;431.69;428.89;426.09;423.28;420.48;417.67;414.87;412.07;409.27;406.46;403.66;400.86;398.06;395.25;392.45;389.64;386.84;384.04;381.24;378.43;375.62;372.82;370.02;367.22;364.41;361.61;358.81;356.01;353.2;350.4;347.6;344.79;341.99;339.19;336.38;333.58;330.77;327.97;325.17;322.37;319.56;316.76;313.95;311.15;308.35;305.54;302.74;299.94;297.13;294.34;291.52;288.73;285.92;283.12;280.32;277.51;274.71;271.91;269.1;266.3;263.49;260.69;257.89;255.09;252.29;249.48;246.68;243.87;241.07;238.27;235.47;232.66;229.86;227.06;224.25;221.45;218.65;215.85;213.05;210.24;207.43;204.63;201.83;199.02;196.23;193.42;190.62;187.81;185.01;182.21;179.4;176.6;173.8;171.0;168.19;165.39;162.59;159.78;156.98;154.17;151.37;148.57;145.77;142.96;140.16;137.36;134.55;131.75;128.94;126.14;123.34;120.54;117.73;114.93;112.13;109.32;106.52;103.72;100.92;98.11;95.31;92.51;89.7;86.9;84.1;81.29;78.49;75.69;72.89;70.07;67.27;64.47;61.67;58.87;56.06;53.26;50.46;47.66;44.85;42.05;39.25;36.44;33.64;30.84;28.03;25.23;22.43;19.62;16.82;14.01;11.21;8.4;5.61;2.8;0.0" dur="8s" repeatCount="indefinite" calcMode="linear"/>
      </path>

      <g>
        <circle r="9" fill="none" stroke="#ffe566" stroke-width="1.5">
          <animate attributeName="cx" values="63.5;66.24;68.9;71.65;74.44;77.2;79.86;82.47;85.16;87.94;90.74;93.54;96.34;99.14;101.94;104.72;107.45;110.17;112.93;115.71;118.51;121.29;124.07;126.86;129.66;132.46;135.25;138.04;140.83;143.63;146.41;149.19;151.97;154.75;157.55;160.35;163.16;165.96;168.76;171.56;174.36;177.15;179.94;182.73;185.53;188.33;191.12;193.92;196.72;199.53;202.33;205.13;207.93;210.73;213.53;216.33;219.13;221.93;224.73;227.53;230.33;233.12;235.9;238.67;241.43;244.16;246.87;249.55;252.23;254.9;257.56;260.21;262.86;265.5;268.15;270.79;273.44;276.08;278.7;281.32;283.91;286.49;289.04;291.56;294.05;296.48;298.87;301.21;303.48;305.66;307.75;309.75;311.66;313.5;315.25;316.92;318.52;320.03;321.48;322.88;324.21;325.48;326.68;327.81;328.87;329.84;330.73;331.52;332.21;332.78;333.23;333.57;333.79;333.92;333.99;334.06;334.14;334.25;334.39;334.55;334.73;334.93;335.16;335.42;335.72;336.02;336.32;336.6;336.87;337.13;337.38;337.6;337.78;337.93;338.05;338.16;338.26;338.34;338.41;338.48;338.55;338.63;338.74;338.86;338.99;339.15;339.32;339.51;339.72;339.94;340.17;340.39;340.61;340.83;341.05;341.25;341.44;341.61;341.77;341.91;342.05;342.18;342.3;342.41;342.53;342.65;342.77;342.9;343.04;343.19;343.36;343.54;343.76;344.03;344.32;344.64;344.99;345.35;345.74;346.15;346.58;347.02;347.47;347.93;348.4;348.88;349.37;349.88;350.41;350.98;351.59;352.25;352.95;353.7;354.49;355.34;356.24;357.19;358.18;359.22;360.3;361.41;362.56;363.75;364.96;366.21;367.48;368.78;370.11;371.48;372.91;374.4;375.95;377.57;379.25;381.0;382.81;384.68;386.62;388.62;390.68;392.78;394.94;397.14;399.38;401.65;403.95;406.27;408.61;410.99;413.4;415.84;418.31;420.81;423.35;425.92;428.53;431.17;433.84;436.53;439.25;441.99;444.75;447.52;450.3;453.09;455.88;458.68;461.48;464.29;467.09;469.89;472.7;475.5;478.3;481.1;483.9;486.7;489.5;492.3;495.1;497.9;500.7;503.5;506.3;509.1;511.9;514.71;517.51;520.31;523.12;525.92;528.72;531.52;534.33;537.13;539.93;542.74;545.54;548.34;551.15;553.95;556.75;559.55;562.36;565.16;567.96;570.76;573.56;576.37;579.17;581.97;584.77;587.58;590.38;593.18;595.99;598.79;601.59;604.4;607.2;610.0;612.8;615.6;618.39;621.17;623.94;626.69;629.44;632.16" dur="8s" repeatCount="indefinite" calcMode="linear"/>
          <animate attributeName="cy" values="98.49;97.97;97.08;96.57;96.27;95.78;94.92;93.89;93.09;92.77;92.84;93.0;93.02;92.94;93.01;93.39;94.03;94.7;95.21;95.51;95.74;96.03;96.38;96.66;96.74;96.59;96.3;96.01;95.78;95.55;95.25;94.87;94.48;94.17;93.99;93.92;93.9;93.89;93.91;94.01;94.21;94.48;94.76;94.99;95.19;95.37;95.54;95.7;95.8;95.82;95.77;95.67;95.56;95.43;95.29;95.14;94.96;94.81;94.72;94.74;94.89;95.15;95.49;95.92;96.44;97.07;97.8;98.6;99.43;100.3;101.18;102.08;103.0;103.94;104.87;105.8;106.72;107.67;108.64;109.66;110.71;111.82;112.98;114.2;115.51;116.89;118.35;119.9;121.55;123.31;125.17;127.14;129.19;131.31;133.5;135.74;138.05;140.41;142.81;145.24;147.7;150.2;152.73;155.3;157.9;160.53;163.19;165.87;168.59;171.34;174.1;176.89;179.68;182.48;185.28;188.08;190.89;193.69;196.49;199.29;202.08;204.88;207.67;210.46;213.25;216.04;218.83;221.61;224.4;227.2;229.99;232.78;235.58;238.38;241.18;243.98;246.78;249.58;252.39;255.19;257.99;260.79;263.59;266.4;269.2;271.99;274.79;277.59;280.38;283.18;285.97;288.77;291.56;294.36;297.15;299.95;302.74;305.54;308.34;311.14;313.94;316.74;319.54;322.34;325.14;327.94;330.74;333.54;336.34;339.14;341.94;344.74;347.53;350.32;353.11;355.9;358.68;361.46;364.23;367.01;369.78;372.54;375.31;378.08;380.84;383.6;386.36;389.12;391.87;394.62;397.35;400.08;402.79;405.49;408.18;410.85;413.51;416.15;418.77;421.37;423.96;426.53;429.09;431.63;434.15;436.67;439.16;441.65;444.11;446.56;448.97;451.34;453.68;455.97;458.21;460.41;462.55;464.63;466.65;468.61;470.52;472.37;474.17;475.9;477.59;479.23;480.84;482.41;483.95;485.44;486.87;488.24;489.56;490.82;492.02;493.14;494.17;495.11;495.96;496.73;497.41;498.01;498.52;498.95;499.3;499.58;499.8;499.96;500.06;500.1;500.11;500.1;500.11;500.15;500.24;500.37;500.49;500.6;500.72;500.87;501.04;501.21;501.36;501.48;501.56;501.63;501.69;501.73;501.74;501.72;501.68;501.62;501.57;501.53;501.48;501.44;501.41;501.39;501.39;501.42;501.47;501.52;501.58;501.66;501.74;501.84;501.93;502.01;502.08;502.15;502.2;502.24;502.27;502.29;502.3;502.29;502.28;502.27;502.27;502.26;502.27;502.33;502.45;502.66;502.94;503.31;503.74;504.25;504.83;505.48" dur="8s" repeatCount="indefinite" calcMode="linear"/>
          <animate attributeName="r" values="9;24;9" dur="2s" repeatCount="indefinite"/>
          <animate attributeName="opacity" values="0.8;0;0.8" dur="2s" repeatCount="indefinite"/>
        </circle>
        <circle r="5.5" fill="#ffe566">
          <animate attributeName="cx" values="63.5;66.24;68.9;71.65;74.44;77.2;79.86;82.47;85.16;87.94;90.74;93.54;96.34;99.14;101.94;104.72;107.45;110.17;112.93;115.71;118.51;121.29;124.07;126.86;129.66;132.46;135.25;138.04;140.83;143.63;146.41;149.19;151.97;154.75;157.55;160.35;163.16;165.96;168.76;171.56;174.36;177.15;179.94;182.73;185.53;188.33;191.12;193.92;196.72;199.53;202.33;205.13;207.93;210.73;213.53;216.33;219.13;221.93;224.73;227.53;230.33;233.12;235.9;238.67;241.43;244.16;246.87;249.55;252.23;254.9;257.56;260.21;262.86;265.5;268.15;270.79;273.44;276.08;278.7;281.32;283.91;286.49;289.04;291.56;294.05;296.48;298.87;301.21;303.48;305.66;307.75;309.75;311.66;313.5;315.25;316.92;318.52;320.03;321.48;322.88;324.21;325.48;326.68;327.81;328.87;329.84;330.73;331.52;332.21;332.78;333.23;333.57;333.79;333.92;333.99;334.06;334.14;334.25;334.39;334.55;334.73;334.93;335.16;335.42;335.72;336.02;336.32;336.6;336.87;337.13;337.38;337.6;337.78;337.93;338.05;338.16;338.26;338.34;338.41;338.48;338.55;338.63;338.74;338.86;338.99;339.15;339.32;339.51;339.72;339.94;340.17;340.39;340.61;340.83;341.05;341.25;341.44;341.61;341.77;341.91;342.05;342.18;342.3;342.41;342.53;342.65;342.77;342.9;343.04;343.19;343.36;343.54;343.76;344.03;344.32;344.64;344.99;345.35;345.74;346.15;346.58;347.02;347.47;347.93;348.4;348.88;349.37;349.88;350.41;350.98;351.59;352.25;352.95;353.7;354.49;355.34;356.24;357.19;358.18;359.22;360.3;361.41;362.56;363.75;364.96;366.21;367.48;368.78;370.11;371.48;372.91;374.4;375.95;377.57;379.25;381.0;382.81;384.68;386.62;388.62;390.68;392.78;394.94;397.14;399.38;401.65;403.95;406.27;408.61;410.99;413.4;415.84;418.31;420.81;423.35;425.92;428.53;431.17;433.84;436.53;439.25;441.99;444.75;447.52;450.3;453.09;455.88;458.68;461.48;464.29;467.09;469.89;472.7;475.5;478.3;481.1;483.9;486.7;489.5;492.3;495.1;497.9;500.7;503.5;506.3;509.1;511.9;514.71;517.51;520.31;523.12;525.92;528.72;531.52;534.33;537.13;539.93;542.74;545.54;548.34;551.15;553.95;556.75;559.55;562.36;565.16;567.96;570.76;573.56;576.37;579.17;581.97;584.77;587.58;590.38;593.18;595.99;598.79;601.59;604.4;607.2;610.0;612.8;615.6;618.39;621.17;623.94;626.69;629.44;632.16" dur="8s" repeatCount="indefinite" calcMode="linear"/>
          <animate attributeName="cy" values="98.49;97.97;97.08;96.57;96.27;95.78;94.92;93.89;93.09;92.77;92.84;93.0;93.02;92.94;93.01;93.39;94.03;94.7;95.21;95.51;95.74;96.03;96.38;96.66;96.74;96.59;96.3;96.01;95.78;95.55;95.25;94.87;94.48;94.17;93.99;93.92;93.9;93.89;93.91;94.01;94.21;94.48;94.76;94.99;95.19;95.37;95.54;95.7;95.8;95.82;95.77;95.67;95.56;95.43;95.29;95.14;94.96;94.81;94.72;94.74;94.89;95.15;95.49;95.92;96.44;97.07;97.8;98.6;99.43;100.3;101.18;102.08;103.0;103.94;104.87;105.8;106.72;107.67;108.64;109.66;110.71;111.82;112.98;114.2;115.51;116.89;118.35;119.9;121.55;123.31;125.17;127.14;129.19;131.31;133.5;135.74;138.05;140.41;142.81;145.24;147.7;150.2;152.73;155.3;157.9;160.53;163.19;165.87;168.59;171.34;174.1;176.89;179.68;182.48;185.28;188.08;190.89;193.69;196.49;199.29;202.08;204.88;207.67;210.46;213.25;216.04;218.83;221.61;224.4;227.2;229.99;232.78;235.58;238.38;241.18;243.98;246.78;249.58;252.39;255.19;257.99;260.79;263.59;266.4;269.2;271.99;274.79;277.59;280.38;283.18;285.97;288.77;291.56;294.36;297.15;299.95;302.74;305.54;308.34;311.14;313.94;316.74;319.54;322.34;325.14;327.94;330.74;333.54;336.34;339.14;341.94;344.74;347.53;350.32;353.11;355.9;358.68;361.46;364.23;367.01;369.78;372.54;375.31;378.08;380.84;383.6;386.36;389.12;391.87;394.62;397.35;400.08;402.79;405.49;408.18;410.85;413.51;416.15;418.77;421.37;423.96;426.53;429.09;431.63;434.15;436.67;439.16;441.65;444.11;446.56;448.97;451.34;453.68;455.97;458.21;460.41;462.55;464.63;466.65;468.61;470.52;472.37;474.17;475.9;477.59;479.23;480.84;482.41;483.95;485.44;486.87;488.24;489.56;490.82;492.02;493.14;494.17;495.11;495.96;496.73;497.41;498.01;498.52;498.95;499.3;499.58;499.8;499.96;500.06;500.1;500.11;500.1;500.11;500.15;500.24;500.37;500.49;500.6;500.72;500.87;501.04;501.21;501.36;501.48;501.56;501.63;501.69;501.73;501.74;501.72;501.68;501.62;501.57;501.53;501.48;501.44;501.41;501.39;501.39;501.42;501.47;501.52;501.58;501.66;501.74;501.84;501.93;502.01;502.08;502.15;502.2;502.24;502.27;502.29;502.3;502.29;502.28;502.27;502.27;502.26;502.27;502.33;502.45;502.66;502.94;503.31;503.74;504.25;504.83;505.48" dur="8s" repeatCount="indefinite" calcMode="linear"/>
        </circle>
        <circle r="2" fill="white">
          <animate attributeName="cx" values="63.5;66.24;68.9;71.65;74.44;77.2;79.86;82.47;85.16;87.94;90.74;93.54;96.34;99.14;101.94;104.72;107.45;110.17;112.93;115.71;118.51;121.29;124.07;126.86;129.66;132.46;135.25;138.04;140.83;143.63;146.41;149.19;151.97;154.75;157.55;160.35;163.16;165.96;168.76;171.56;174.36;177.15;179.94;182.73;185.53;188.33;191.12;193.92;196.72;199.53;202.33;205.13;207.93;210.73;213.53;216.33;219.13;221.93;224.73;227.53;230.33;233.12;235.9;238.67;241.43;244.16;246.87;249.55;252.23;254.9;257.56;260.21;262.86;265.5;268.15;270.79;273.44;276.08;278.7;281.32;283.91;286.49;289.04;291.56;294.05;296.48;298.87;301.21;303.48;305.66;307.75;309.75;311.66;313.5;315.25;316.92;318.52;320.03;321.48;322.88;324.21;325.48;326.68;327.81;328.87;329.84;330.73;331.52;332.21;332.78;333.23;333.57;333.79;333.92;333.99;334.06;334.14;334.25;334.39;334.55;334.73;334.93;335.16;335.42;335.72;336.02;336.32;336.6;336.87;337.13;337.38;337.6;337.78;337.93;338.05;338.16;338.26;338.34;338.41;338.48;338.55;338.63;338.74;338.86;338.99;339.15;339.32;339.51;339.72;339.94;340.17;340.39;340.61;340.83;341.05;341.25;341.44;341.61;341.77;341.91;342.05;342.18;342.3;342.41;342.53;342.65;342.77;342.9;343.04;343.19;343.36;343.54;343.76;344.03;344.32;344.64;344.99;345.35;345.74;346.15;346.58;347.02;347.47;347.93;348.4;348.88;349.37;349.88;350.41;350.98;351.59;352.25;352.95;353.7;354.49;355.34;356.24;357.19;358.18;359.22;360.3;361.41;362.56;363.75;364.96;366.21;367.48;368.78;370.11;371.48;372.91;374.4;375.95;377.57;379.25;381.0;382.81;384.68;386.62;388.62;390.68;392.78;394.94;397.14;399.38;401.65;403.95;406.27;408.61;410.99;413.4;415.84;418.31;420.81;423.35;425.92;428.53;431.17;433.84;436.53;439.25;441.99;444.75;447.52;450.3;453.09;455.88;458.68;461.48;464.29;467.09;469.89;472.7;475.5;478.3;481.1;483.9;486.7;489.5;492.3;495.1;497.9;500.7;503.5;506.3;509.1;511.9;514.71;517.51;520.31;523.12;525.92;528.72;531.52;534.33;537.13;539.93;542.74;545.54;548.34;551.15;553.95;556.75;559.55;562.36;565.16;567.96;570.76;573.56;576.37;579.17;581.97;584.77;587.58;590.38;593.18;595.99;598.79;601.59;604.4;607.2;610.0;612.8;615.6;618.39;621.17;623.94;626.69;629.44;632.16" dur="8s" repeatCount="indefinite" calcMode="linear"/>
          <animate attributeName="cy" values="98.49;97.97;97.08;96.57;96.27;95.78;94.92;93.89;93.09;92.77;92.84;93.0;93.02;92.94;93.01;93.39;94.03;94.7;95.21;95.51;95.74;96.03;96.38;96.66;96.74;96.59;96.3;96.01;95.78;95.55;95.25;94.87;94.48;94.17;93.99;93.92;93.9;93.89;93.91;94.01;94.21;94.48;94.76;94.99;95.19;95.37;95.54;95.7;95.8;95.82;95.77;95.67;95.56;95.43;95.29;95.14;94.96;94.81;94.72;94.74;94.89;95.15;95.49;95.92;96.44;97.07;97.8;98.6;99.43;100.3;101.18;102.08;103.0;103.94;104.87;105.8;106.72;107.67;108.64;109.66;110.71;111.82;112.98;114.2;115.51;116.89;118.35;119.9;121.55;123.31;125.17;127.14;129.19;131.31;133.5;135.74;138.05;140.41;142.81;145.24;147.7;150.2;152.73;155.3;157.9;160.53;163.19;165.87;168.59;171.34;174.1;176.89;179.68;182.48;185.28;188.08;190.89;193.69;196.49;199.29;202.08;204.88;207.67;210.46;213.25;216.04;218.83;221.61;224.4;227.2;229.99;232.78;235.58;238.38;241.18;243.98;246.78;249.58;252.39;255.19;257.99;260.79;263.59;266.4;269.2;271.99;274.79;277.59;280.38;283.18;285.97;288.77;291.56;294.36;297.15;299.95;302.74;305.54;308.34;311.14;313.94;316.74;319.54;322.34;325.14;327.94;330.74;333.54;336.34;339.14;341.94;344.74;347.53;350.32;353.11;355.9;358.68;361.46;364.23;367.01;369.78;372.54;375.31;378.08;380.84;383.6;386.36;389.12;391.87;394.62;397.35;400.08;402.79;405.49;408.18;410.85;413.51;416.15;418.77;421.37;423.96;426.53;429.09;431.63;434.15;436.67;439.16;441.65;444.11;446.56;448.97;451.34;453.68;455.97;458.21;460.41;462.55;464.63;466.65;468.61;470.52;472.37;474.17;475.9;477.59;479.23;480.84;482.41;483.95;485.44;486.87;488.24;489.56;490.82;492.02;493.14;494.17;495.11;495.96;496.73;497.41;498.01;498.52;498.95;499.3;499.58;499.8;499.96;500.06;500.1;500.11;500.1;500.11;500.15;500.24;500.37;500.49;500.6;500.72;500.87;501.04;501.21;501.36;501.48;501.56;501.63;501.69;501.73;501.74;501.72;501.68;501.62;501.57;501.53;501.48;501.44;501.41;501.39;501.39;501.42;501.47;501.52;501.58;501.66;501.74;501.84;501.93;502.01;502.08;502.15;502.2;502.24;502.27;502.29;502.3;502.29;502.28;502.27;502.27;502.26;502.27;502.33;502.45;502.66;502.94;503.31;503.74;504.25;504.83;505.48" dur="8s" repeatCount="indefinite" calcMode="linear"/>
        </circle>
      </g>

      <g class="legend" transform="translate(195.0, 570)">
        <rect x="0" y="-14" width="310" height="28" rx="14" fill="rgba(20, 15, 35, 0.8)" stroke="rgba(0, 229, 204, 0.4)" stroke-width="1"/>
        <line x1="20" y1="0" x2="45" y2="0" stroke="rgba(255,255,255,0.4)" stroke-width="2" stroke-dasharray="4 3"/>
        <text x="55" y="4" font-size="11" font-weight="600" fill="rgba(255,255,255,0.7)" font-family="system-ui, sans-serif">Reference</text>
        <line x1="150" y1="-6" x2="150" y2="6" stroke="rgba(255,255,255,0.2)" stroke-width="1"/>
        <line x1="165" y1="0" x2="190" y2="0" stroke="url(#trail-grad-t)" stroke-width="3" stroke-linecap="round"/>
        <text x="200" y="4" font-size="11" font-weight="bold" fill="#ff00cc" font-family="system-ui, sans-serif">Real Trajectory</text>
      </g>
    </svg>