<svg xmlns="http://www.w3.org/2000/svg" viewBox="0 0 700 400" width="100%" class="trajectory-svg">
      <defs>
        <linearGradient id="trail-grad-e" x1="60" y1="0" x2="670" y2="0" gradientUnits="userSpaceOnUse">
          <stop offset="0%" stop-color="#aa00ff"/><stop offset="100%" stop-color="#ff00cc"/>
        </linearGradient>
      </defs>

      <rect width="700" height="400" fill="#0d0a1a"/>
      <g class="grid"><line x1="60.0" y1="50" x2="60.0" y2="360" stroke="rgba(0,229,204,1)" stroke-width="0.5" opacity="0.06"/>
<line x1="161.66666666666669" y1="50" x2="161.66666666666669" y2="360" stroke="rgba(0,229,204,1)" stroke-width="0.5" opacity="0.06"/>
<line x1="263.33333333333337" y1="50" x2="263.33333333333337" y2="360" stroke="rgba(0,229,204,1)" stroke-width="0.5" opacity="0.06"/>
<line x1="365.0" y1="50" x2="365.0" y2="360" stroke="rgba(0,229,204,1)" stroke-width="0.5" opacity="0.06"/>
<line x1="466.6666666666667" y1="50" x2="466.6666666666667" y2="360" stroke="rgba(0,229,204,1)" stroke-width="0.5" opacity="0.06"/>
<line x1="568.3333333333333" y1="50" x2="568.3333333333333" y2="360" stroke="rgba(0,229,204,1)" stroke-width="0.5" opacity="0.06"/>
<line x1="670.0" y1="50" x2="670.0" y2="360" stroke="rgba(0,229,204,1)" stroke-width="0.5" opacity="0.06"/>
<line x1="60" y1="50.0" x2="670" y2="50.0" stroke="rgba(0,229,204,1)" stroke-width="0.5" opacity="0.18"/>
<line x1="60" y1="101.66666666666666" x2="670" y2="101.66666666666666" stroke="rgba(0,229,204,1)" stroke-width="0.5" opacity="0.18"/>
<line x1="60" y1="153.33333333333331" x2="670" y2="153.33333333333331" stroke="rgba(0,229,204,1)" stroke-width="0.5" opacity="0.18"/>
<line x1="60" y1="205.0" x2="670" y2="205.0" stroke="rgba(0,229,204,1)" stroke-width="0.5" opacity="0.18"/>
<line x1="60" y1="256.66666666666663" x2="670" y2="256.66666666666663" stroke="rgba(0,229,204,1)" stroke-width="0.5" opacity="0.18"/>
<line x1="60" y1="308.3333333333333" x2="670" y2="308.3333333333333" stroke="rgba(0,229,204,1)" stroke-width="0.5" opacity="0.18"/>
<line x1="60" y1="360.0" x2="670" y2="360.0" stroke="rgba(0,229,204,1)" stroke-width="0.5" opacity="0.18"/>
</g>
      <line x1="60" y1="175.75" x2="670" y2="175.75" stroke="rgba(255,255,255,0.5)" stroke-width="1.5" stroke-dasharray="6 6"/>
      <rect x="60" y="50" width="610" height="310" fill="none" stroke="rgba(0,229,204,0.15)" stroke-width="0.75" rx="4"/>

      <g class="axis-labels"><text x="60.0" y="380" font-size="10" fill="rgba(255,255,255,0.6)" text-anchor="middle" font-family="system-ui, sans-serif">0.1s</text>
<text x="161.66666666666669" y="380" font-size="10" fill="rgba(255,255,255,0.6)" text-anchor="middle" font-family="system-ui, sans-serif">10.4s</text>
<text x="263.33333333333337" y="380" font-size="10" fill="rgba(255,255,255,0.6)" text-anchor="middle" font-family="system-ui, sans-serif">20.7s</text>
<text x="365.0" y="380" font-size="10" fill="rgba(255,255,255,0.6)" text-anchor="middle" font-family="system-ui, sans-serif">31.0s</text>
<text x="466.6666666666667" y="380" font-size="10" fill="rgba(255,255,255,0.6)" text-anchor="middle" font-family="system-ui, sans-serif">41.3s</text>
<text x="568.3333333333333" y="380" font-size="10" fill="rgba(255,255,255,0.6)" text-anchor="middle" font-family="system-ui, sans-serif">51.6s</text>
<text x="670.0" y="380" font-size="10" fill="rgba(255,255,255,0.6)" text-anchor="middle" font-family="system-ui, sans-serif">61.9s</text>
<text x="50" y="54.0" font-size="10" fill="rgba(255,255,255,0.6)" text-anchor="end" font-family="system-ui, sans-serif">0.40</text>
<text x="50" y="105.66666666666666" font-size="10" fill="rgba(255,255,255,0.6)" text-anchor="end" font-family="system-ui, sans-serif">0.23</text>
<text x="50" y="157.33333333333331" font-size="10" fill="rgba(255,255,255,0.6)" text-anchor="end" font-family="system-ui, sans-serif">0.07</text>
<text x="50" y="209.0" font-size="10" fill="rgba(255,255,255,0.6)" text-anchor="end" font-family="system-ui, sans-serif">-0.09</text>
<text x="50" y="260.66666666666663" font-size="10" fill="rgba(255,255,255,0.6)" text-anchor="end" font-family="system-ui, sans-serif">-0.26</text>
<text x="50" y="312.3333333333333" font-size="10" fill="rgba(255,255,255,0.6)" text-anchor="end" font-family="system-ui, sans-serif">-0.42</text>
<text x="50" y="364.0" font-size="10" fill="rgba(255,255,255,0.6)" text-anchor="end" font-family="system-ui, sans-serif">-0.58</text>
</g>
      <text x="50" y="35" font-size="11" font-weight="bold" fill="rgba(0,229,204,0.8)" text-anchor="end" font-family="system-ui, sans-serif">Error (m)</text>
      <text x="670" y="395" font-size="11" font-weight="bold" fill="rgba(0,229,204,0.8)" text-anchor="end" font-family="system-ui, sans-serif">Time (s)</text>

      <path d="M 60.0,334.17 L 61.97,311.02 L 63.95,270.55 L 65.92,247.51 L 67.9,234.11 L 69.87,211.96 L 71.84,172.78 L 73.82,126.44 L 75.79,90.37 L 77.77,75.83 L 79.74,79.13 L 81.72,86.26 L 83.69,87.02 L 85.66,83.56 L 87.64,86.5 L 89.61,103.71 L 91.59,132.66 L 93.56,163.13 L 95.53,185.93 L 97.51,199.55 L 99.48,209.82 L 101.46,222.92 L 103.43,238.85 L 105.4,251.71 L 107.38,255.24 L 109.35,248.29 L 111.33,235.39 L 113.3,222.41 L 115.28,211.78 L 117.25,201.44 L 119.22,188.02 L 121.2,170.88 L 123.17,153.1 L 125.15,139.04 L 127.12,130.95 L 129.09,127.73 L 131.07,126.67 L 133.04,126.25 L 135.02,127.36 L 136.99,132.01 L 138.96,141.05 L 140.94,153.1 L 142.91,165.51 L 144.89,176.29 L 146.86,185.24 L 148.83,193.33 L 150.81,201.19 L 152.78,208.16 L 154.76,212.72 L 156.73,213.76 L 158.71,211.47 L 160.68,207.06 L 162.65,201.7 L 164.63,195.61 L 166.6,188.4 L 168.58,179.22 L 170.55,167.81 L 172.52,155.52 L 174.5,144.57 L 176.47,136.83 L 178.45,132.72 L 180.42,131.44 L 182.39,132.09 L 184.37,134.44 L 186.34,138.97 L 188.32,146.14 L 190.29,155.53 L 192.27,166.04 L 194.24,176.25 L 196.21,185.33 L 198.19,193.05 L 200.16,199.48 L 202.14,204.57 L 204.11,207.81 L 206.08,208.72 L 208.06,206.99 L 210.03,203.05 L 212.01,197.58 L 213.98,191.33 L 215.95,184.65 L 217.93,177.7 L 219.9,170.72 L 221.88,164.15 L 223.85,158.54 L 225.83,153.93 L 227.8,150.18 L 229.77,146.98 L 231.75,144.5 L 233.72,143.4 L 235.7,144.22 L 237.67,147.3 L 239.64,152.19 L 241.62,158.1 L 243.59,164.38 L 245.57,170.64 L 247.54,176.99 L 249.51,183.14 L 251.49,188.84 L 253.46,193.36 L 255.44,196.34 L 257.41,197.54 L 259.39,197.29 L 261.36,195.81 L 263.33,193.33 L 265.31,189.83 L 267.28,185.44 L 269.26,180.44 L 271.23,175.3 L 273.2,170.59 L 275.18,166.83 L 277.15,164.95 L 279.13,165.64 L 281.1,169.46 L 283.07,175.92 L 285.05,183.63 L 287.02,190.93 L 289.0,196.74 L 290.97,200.79 L 292.94,203.02 L 294.92,203.97 L 296.89,204.01 L 298.87,202.96 L 300.84,200.32 L 302.82,195.9 L 304.79,190.13 L 306.76,183.88 L 308.74,177.93 L 310.71,172.56 L 312.69,167.69 L 314.66,163.28 L 316.63,159.56 L 318.61,157.02 L 320.58,156.03 L 322.56,156.58 L 324.53,158.32 L 326.5,160.86 L 328.48,163.94 L 330.45,167.53 L 332.43,171.58 L 334.4,175.86 L 336.38,179.96 L 338.35,183.48 L 340.32,186.17 L 342.3,188.02 L 344.27,189.1 L 346.25,189.43 L 348.22,188.96 L 350.19,187.65 L 352.17,185.56 L 354.14,182.94 L 356.12,180.05 L 358.09,177.15 L 360.06,174.36 L 362.04,171.79 L 364.01,169.52 L 365.99,167.71 L 367.96,166.51 L 369.94,166.0 L 371.91,166.16 L 373.88,166.89 L 375.86,168.07 L 377.83,169.63 L 379.81,171.48 L 381.78,173.54 L 383.75,175.65 L 385.73,177.65 L 387.7,179.44 L 389.68,181.04 L 391.65,182.58 L 393.62,184.16 L 395.6,185.76 L 397.57,186.99 L 399.55,187.39 L 401.52,186.77 L 403.5,185.39 L 405.47,183.62 L 407.44,181.77 L 409.42,179.82 L 411.39,177.68 L 413.37,175.34 L 415.34,173.01 L 417.31,171.03 L 419.29,169.61 L 421.26,168.83 L 423.24,168.66 L 425.21,169.15 L 427.18,170.39 L 429.16,172.35 L 431.13,174.85 L 433.11,177.42 L 435.08,179.76 L 437.06,181.63 L 439.03,183.06 L 441.0,184.1 L 442.98,184.68 L 444.95,184.74 L 446.93,184.13 L 448.9,182.94 L 450.87,181.28 L 452.85,179.39 L 454.82,177.44 L 456.8,175.5 L 458.77,173.66 L 460.74,171.95 L 462.72,170.55 L 464.69,169.59 L 466.67,169.41 L 468.64,170.25 L 470.61,172.11 L 472.59,174.61 L 474.56,177.19 L 476.54,179.53 L 478.51,181.35 L 480.49,182.78 L 482.46,183.79 L 484.43,184.34 L 486.41,184.21 L 488.38,183.25 L 490.36,181.59 L 492.33,179.28 L 494.3,176.66 L 496.28,173.83 L 498.25,170.91 L 500.23,167.94 L 502.2,165.19 L 504.17,163.23 L 506.15,162.57 L 508.12,163.45 L 510.1,165.5 L 512.07,168.28 L 514.05,171.3 L 516.02,174.61 L 517.99,178.25 L 519.97,182.15 L 521.94,185.97 L 523.92,189.18 L 525.89,191.46 L 527.86,192.56 L 529.84,192.75 L 531.81,192.11 L 533.79,190.79 L 535.76,188.72 L 537.73,185.9 L 539.71,182.47 L 541.68,178.68 L 543.66,175.04 L 545.63,171.69 L 547.61,168.47 L 549.58,164.81 L 551.55,160.36 L 553.53,155.31 L 555.5,150.52 L 557.48,147.14 L 559.45,145.99 L 561.42,147.53 L 563.4,150.73 L 565.37,154.18 L 567.35,157.42 L 569.32,161.06 L 571.29,165.92 L 573.27,172.02 L 575.24,178.37 L 577.22,183.71 L 579.19,187.44 L 581.17,189.84 L 583.14,191.56 L 585.11,192.86 L 587.09,193.38 L 589.06,192.56 L 591.04,190.2 L 593.01,186.75 L 594.98,182.96 L 596.96,179.37 L 598.93,176.04 L 600.91,172.78 L 602.88,169.52 L 604.85,166.56 L 606.83,164.37 L 608.8,163.27 L 610.78,163.23 L 612.75,163.94 L 614.72,165.11 L 616.7,166.68 L 618.67,168.71 L 620.65,171.25 L 622.62,174.09 L 624.6,176.9 L 626.57,179.35 L 628.54,181.3 L 630.52,182.78 L 632.49,183.85 L 634.47,184.5 L 636.44,184.6 L 638.41,184.07 L 640.39,182.95 L 642.36,181.4 L 644.34,179.42 L 646.31,176.81 L 648.28,173.22 L 650.26,168.41 L 652.23,162.78 L 654.21,157.26 L 656.18,153.03 L 658.16,150.59 L 660.13,149.92 L 662.1,150.53 L 664.08,152.18 L 666.05,154.88 L 668.03,158.73 L 670.0,164.83" fill="none" stroke="url(#trail-grad-e)" stroke-width="2.5" stroke-linecap="round" stroke-linejoin="round"
            stroke-dasharray="1667.15" stroke-dashoffset="1667.15">
        <animate attributeName="stroke-dashoffset" values="1667.15;1643.92;1603.4;1580.28;1566.73;1544.49;1505.26;1458.88;1422.76;1408.08;1404.24;1396.84;1394.73;1390.75;1387.2;1369.88;1340.86;1310.33;1287.44;1273.68;1263.22;1249.98;1233.92;1220.91;1216.87;1209.64;1196.59;1183.46;1172.65;1162.12;1148.56;1131.31;1113.42;1099.22;1090.89;1087.12;1084.87;1082.86;1080.59;1075.54;1066.29;1054.07;1041.51;1030.55;1021.38;1013.06;1004.95;997.71;992.74;990.51;987.48;982.65;976.94;970.54;963.06;953.67;942.09;929.65;918.52;910.53;905.97;903.62;901.55;898.47;893.53;886.1;876.5;865.81;855.41;846.12;838.15;831.42;825.96;822.17;820.0;817.37;812.96;807.15;800.59;793.63;786.4;779.15;772.29;766.34;761.33;757.09;753.33;750.16;747.9;745.76;742.1;736.83;730.6;724.02;717.45;710.8;704.34;698.31;693.38;689.8;687.49;685.5;683.04;679.87;675.85;671.03;665.66;660.15;655.05;650.8;648.07;645.98;641.68;634.93;626.97;619.4;613.27;608.76;605.79;603.59;601.62;599.38;596.09;591.24;585.15;578.59;572.32;566.6;561.34;556.51;552.31;549.08;546.88;544.82;542.2;538.98;535.32;531.23;526.72;522.01;517.45;513.42;510.08;507.37;505.13;503.12;501.1;498.73;495.85;492.57;489.07;485.56;482.15;478.9;475.9;473.22;470.91;468.86;466.89;464.79;462.48;459.97;457.26;454.41;451.52;448.71;446.05;443.5;441.0;438.47;435.93;433.61;431.59;429.52;427.11;424.46;421.76;418.98;416.07;413.0;409.95;407.16;404.72;402.6;400.62;398.59;396.26;393.47;390.29;387.05;383.99;381.26;378.83;376.6;374.54;372.57;370.5;368.19;365.62;362.88;360.11;357.34;354.64;352.03;349.61;347.42;345.43;343.29;340.58;337.39;334.14;331.08;328.39;325.95;323.74;321.69;319.71;317.52;314.93;311.9;308.62;305.17;301.64;298.07;294.69;291.91;289.83;287.67;284.82;281.41;277.8;273.95;269.81;265.43;261.14;257.36;254.35;252.1;250.11;248.03;245.66;242.8;239.36;235.4;231.13;226.98;223.1;219.32;215.16;210.29;204.87;199.69;195.77;193.49;190.99;187.23;183.25;179.46;175.32;170.07;163.66;157.01;151.32;147.1;143.99;141.37;139.01;136.97;134.83;131.75;127.78;123.51;119.41;115.54;111.72;107.91;104.36;101.41;99.15;97.17;95.08;92.78;90.26;87.43;84.21;80.75;77.31;74.17;71.4;68.93;66.68;64.6;62.63;60.59;58.31;55.81;53.01;49.74;45.64;40.44;34.48;28.61;23.94;20.8;18.72;16.66;14.08;10.74;6.41;0.0" dur="8s" repeatCount="indefinite" calcMode="linear"/>
      </path>

      <g>
        <circle r="9" fill="none" stroke="#ffe566" stroke-width="1.5">
          <animate attributeName="cx" values="60.0;61.97;63.95;65.92;67.9;69.87;71.84;73.82;75.79;77.77;79.74;81.72;83.69;85.66;87.64;89.61;91.59;93.56;95.53;97.51;99.48;101.46;103.43;105.4;107.38;109.35;111.33;113.3;115.28;117.25;119.22;121.2;123.17;125.15;127.12;129.09;131.07;133.04;135.02;136.99;138.96;140.94;142.91;144.89;146.86;148.83;150.81;152.78;154.76;156.73;158.71;160.68;162.65;164.63;166.6;168.58;170.55;172.52;174.5;176.47;178.45;180.42;182.39;184.37;186.34;188.32;190.29;192.27;194.24;196.21;198.19;200.16;202.14;204.11;206.08;208.06;210.03;212.01;213.98;215.95;217.93;219.9;221.88;223.85;225.83;227.8;229.77;231.75;233.72;235.7;237.67;239.64;241.62;243.59;245.57;247.54;249.51;251.49;253.46;255.44;257.41;259.39;261.36;263.33;265.31;267.28;269.26;271.23;273.2;275.18;277.15;279.13;281.1;283.07;285.05;287.02;289.0;290.97;292.94;294.92;296.89;298.87;300.84;302.82;304.79;306.76;308.74;310.71;312.69;314.66;316.63;318.61;320.58;322.56;324.53;326.5;328.48;330.45;332.43;334.4;336.38;338.35;340.32;342.3;344.27;346.25;348.22;350.19;352.17;354.14;356.12;358.09;360.06;362.04;364.01;365.99;367.96;369.94;371.91;373.88;375.86;377.83;379.81;381.78;383.75;385.73;387.7;389.68;391.65;393.62;395.6;397.57;399.55;401.52;403.5;405.47;407.44;409.42;411.39;413.37;415.34;417.31;419.29;421.26;423.24;425.21;427.18;429.16;431.13;433.11;435.08;437.06;439.03;441.0;442.98;444.95;446.93;448.9;450.87;452.85;454.82;456.8;458.77;460.74;462.72;464.69;466.67;468.64;470.61;472.59;474.56;476.54;478.51;480.49;482.46;484.43;486.41;488.38;490.36;492.33;494.3;496.28;498.25;500.23;502.2;504.17;506.15;508.12;510.1;512.07;514.05;516.02;517.99;519.97;521.94;523.92;525.89;527.86;529.84;531.81;533.79;535.76;537.73;539.71;541.68;543.66;545.63;547.61;549.58;551.55;553.53;555.5;557.48;559.45;561.42;563.4;565.37;567.35;569.32;571.29;573.27;575.24;577.22;579.19;581.17;583.14;585.11;587.09;589.06;591.04;593.01;594.98;596.96;598.93;600.91;602.88;604.85;606.83;608.8;610.78;612.75;614.72;616.7;618.67;620.65;622.62;624.6;626.57;628.54;630.52;632.49;634.47;636.44;638.41;640.39;642.36;644.34;646.31;648.28;650.26;652.23;654.21;656.18;658.16;660.13;662.1;664.08;666.05;668.03;670.0" dur="8s" repeatCount="indefinite" calcMode="linear"/>
          <animate attributeName="cy" values="334.17;311.02;270.55;247.51;234.11;211.96;172.78;126.44;90.37;75.83;79.13;86.26;87.02;83.56;86.5;103.71;132.66;163.13;185.93;199.55;209.82;222.92;238.85;251.71;255.24;248.29;235.39;222.41;211.78;201.44;188.02;170.88;153.1;139.04;130.95;127.73;126.67;126.25;127.36;132.01;141.05;153.1;165.51;176.29;185.24;193.33;201.19;208.16;212.72;213.76;211.47;207.06;201.7;195.61;188.4;179.22;167.81;155.52;144.57;136.83;132.72;131.44;132.09;134.44;138.97;146.14;155.53;166.04;176.25;185.33;193.05;199.48;204.57;207.81;208.72;206.99;203.05;197.58;191.33;184.65;177.7;170.72;164.15;158.54;153.93;150.18;146.98;144.5;143.4;144.22;147.3;152.19;158.1;164.38;170.64;176.99;183.14;188.84;193.36;196.34;197.54;197.29;195.81;193.33;189.83;185.44;180.44;175.3;170.59;166.83;164.95;165.64;169.46;175.92;183.63;190.93;196.74;200.79;203.02;203.97;204.01;202.96;200.32;195.9;190.13;183.88;177.93;172.56;167.69;163.28;159.56;157.02;156.03;156.58;158.32;160.86;163.94;167.53;171.58;175.86;179.96;183.48;186.17;188.02;189.1;189.43;188.96;187.65;185.56;182.94;180.05;177.15;174.36;171.79;169.52;167.71;166.51;166.0;166.16;166.89;168.07;169.63;171.48;173.54;175.65;177.65;179.44;181.04;182.58;184.16;185.76;186.99;187.39;186.77;185.39;183.62;181.77;179.82;177.68;175.34;173.01;171.03;169.61;168.83;168.66;169.15;170.39;172.35;174.85;177.42;179.76;181.63;183.06;184.1;184.68;184.74;184.13;182.94;181.28;179.39;177.44;175.5;173.66;171.95;170.55;169.59;169.41;170.25;172.11;174.61;177.19;179.53;181.35;182.78;183.79;184.34;184.21;183.25;181.59;179.28;176.66;173.83;170.91;167.94;165.19;163.23;162.57;163.45;165.5;168.28;171.3;174.61;178.25;182.15;185.97;189.18;191.46;192.56;192.75;192.11;190.79;188.72;185.9;182.47;178.68;175.04;171.69;168.47;164.81;160.36;155.31;150.52;147.14;145.99;147.53;150.73;154.18;157.42;161.06;165.92;172.02;178.37;183.71;187.44;189.84;191.56;192.86;193.38;192.56;190.2;186.75;182.96;179.37;176.04;172.78;169.52;166.56;164.37;163.27;163.23;163.94;165.11;166.68;168.71;171.25;174.09;176.9;179.35;181.3;182.78;183.85;184.5;184.6;184.07;182.95;181.4;179.42;176.81;173.22;168.41;162.78;157.26;153.03;150.59;149.92;150.53;152.18;154.88;158.73;164.83" dur="8s" repeatCount="indefinite" calcMode="linear"/>
          <animate attributeName="r" values="9;24;9" dur="2s" repeatCount="indefinite"/>
          <animate attributeName="opacity" values="0.8;0;0.8" dur="2s" repeatCount="indefinite"/>
        </circle>
        <circle r="5.5" fill="#ffe566">
          <animate attributeName="cx" values="60.0;61.97;63.95;65.92;67.9;69.87;71.84;73.82;75.79;77.77;79.74;81.72;83.69;85.66;87.64;89.61;91.59;93.56;95.53;97.51;99.48;101.46;103.43;105.4;107.38;109.35;111.33;113.3;115.28;117.25;119.22;121.2;123.17;125.15;127.12;129.09;131.07;133.04;135.02;136.99;138.96;140.94;142.91;144.89;146.86;148.83;150.81;152.78;154.76;156.73;158.71;160.68;162.65;164.63;166.6;168.58;170.55;172.52;174.5;176.47;178.45;180.42;182.39;184.37;186.34;188.32;190.29;192.27;194.24;196.21;198.19;200.16;202.14;204.11;206.08;208.06;210.03;212.01;213.98;215.95;217.93;219.9;221.88;223.85;225.83;227.8;229.77;231.75;233.72;235.7;237.67;239.64;241.62;243.59;245.57;247.54;249.51;251.49;253.46;255.44;257.41;259.39;261.36;263.33;265.31;267.28;269.26;271.23;273.2;275.18;277.15;279.13;281.1;283.07;285.05;287.02;289.0;290.97;292.94;294.92;296.89;298.87;300.84;302.82;304.79;306.76;308.74;310.71;312.69;314.66;316.63;318.61;320.58;322.56;324.53;326.5;328.48;330.45;332.43;334.4;336.38;338.35;340.32;342.3;344.27;346.25;348.22;350.19;352.17;354.14;356.12;358.09;360.06;362.04;364.01;365.99;367.96;369.94;371.91;373.88;375.86;377.83;379.81;381.78;383.75;385.73;387.7;389.68;391.65;393.62;395.6;397.57;399.55;401.52;403.5;405.47;407.44;409.42;411.39;413.37;415.34;417.31;419.29;421.26;423.24;425.21;427.18;429.16;431.13;433.11;435.08;437.06;439.03;441.0;442.98;444.95;446.93;448.9;450.87;452.85;454.82;456.8;458.77;460.74;462.72;464.69;466.67;468.64;470.61;472.59;474.56;476.54;478.51;480.49;482.46;484.43;486.41;488.38;490.36;492.33;494.3;496.28;498.25;500.23;502.2;504.17;506.15;508.12;510.1;512.07;514.05;516.02;517.99;519.97;521.94;523.92;525.89;527.86;529.84;531.81;533.79;535.76;537.73;539.71;541.68;543.66;545.63;547.61;549.58;551.55;553.53;555.5;557.48;559.45;561.42;563.4;565.37;567.35;569.32;571.29;573.27;575.24;577.22;579.19;581.17;583.14;585.11;587.09;589.06;591.04;593.01;594.98;596.96;598.93;600.91;602.88;604.85;606.83;608.8;610.78;612.75;614.72;616.7;618.67;620.65;622.62;624.6;626.57;628.54;630.52;632.49;634.47;636.44;638.41;640.39;642.36;644.34;646.31;648.28;650.26;652.23;654.21;656.18;658.16;660.13;662.1;664.08;666.05;668.03;670.0" dur="8s" repeatCount="indefinite" calcMode="linear"/>
          <animate attributeName="cy" values="334.17;311.02;270.55;247.51;234.11;211.96;172.78;126.44;90.37;75.83;79.13;86.26;87.02;83.56;86.5;103.71;132.66;163.13;185.93;199.55;209.82;222.92;238.85;251.71;255.24;248.29;235.39;222.41;211.78;201.44;188.02;170.88;153.1;139.04;130.95;127.73;126.67;126.25;127.36;132.01;141.05;153.1;165.51;176.29;185.24;193.33;201.19;208.16;212.72;213.76;211.47;207.06;201.7;195.61;188.4;179.22;167.81;155.52;144.57;136.83;132.72;131.44;132.09;134.44;138.97;146.14;155.53;166.04;176.25;185.33;193.05;199.48;204.57;207.81;208.72;206.99;203.05;197.58;191.33;184.65;177.7;170.72;164.15;158.54;153.93;150.18;146.98;144.5;143.4;144.22;147.3;152.19;158.1;164.38;170.64;176.99;183.14;188.84;193.36;196.34;197.54;197.29;195.81;193.33;189.83;185.44;180.44;175.3;170.59;166.83;164.95;165.64;169.46;175.92;183.63;190.93;196.74;200.79;203.02;203.97;204.01;202.96;200.32;195.9;190.13;183.88;177.93;172.56;167.69;163.28;159.56;157.02;156.03;156.58;158.32;160.86;163.94;167.53;171.58;175.86;179.96;183.48;186.17;188.02;189.1;189.43;188.96;187.65;185.56;182.94;180.05;177.15;174.36;171.79;169.52;167.71;166.51;166.0;166.16;166.89;168.07;169.63;171.48;173.54;175.65;177.65;179.44;181.04;182.58;184.16;185.76;186.99;187.39;186.77;185.39;183.62;181.77;179.82;177.68;175.34;173.01;171.03;169.61;168.83;168.66;169.15;170.39;172.35;174.85;177.42;179.76;181.63;183.06;184.1;184.68;184.74;184.13;182.94;181.28;179.39;177.44;175.5;173.66;171.95;170.55;169.59;169.41;170.25;172.11;174.61;177.19;179.53;181.35;182.78;183.79;184.34;184.21;183.25;181.59;179.28;176.66;173.83;170.91;167.94;165.19;163.23;162.57;163.45;165.5;168.28;171.3;174.61;178.25;182.15;185.97;189.18;191.46;192.56;192.75;192.11;190.79;188.72;185.9;182.47;178.68;175.04;171.69;168.47;164.81;160.36;155.31;150.52;147.14;145.99;147.53;150.73;154.18;157.42;161.06;165.92;172.02;178.37;183.71;187.44;189.84;191.56;192.86;193.38;192.56;190.2;186.75;182.96;179.37;176.04;172.78;169.52;166.56;164.37;163.27;163.23;163.94;165.11;166.68;168.71;171.25;174.09;176.9;179.35;181.3;182.78;183.85;184.5;184.6;184.07;182.95;181.4;179.42;176.81;173.22;168.41;162.78;157.26;153.03;150.59;149.92;150.53;152.18;154.88;158.73;164.83" dur="8s" repeatCount="indefinite" calcMode="linear"/>
        </circle>
        <circle r="2" fill="white">
          <animate attributeName="cx" values="60.0;61.97;63.95;65.92;67.9;69.87;71.84;73.82;75.79;77.77;79.74;81.72;83.69;85.66;87.64;89.61;91.59;93.56;95.53;97.51;99.48;101.46;103.43;105.4;107.38;109.35;111.33;113.3;115.28;117.25;119.22;121.2;123.17;125.15;127.12;129.09;131.07;133.04;135.02;136.99;138.96;140.94;142.91;144.89;146.86;148.83;150.81;152.78;154.76;156.73;158.71;160.68;162.65;164.63;166.6;168.58;170.55;172.52;174.5;176.47;178.45;180.42;182.39;184.37;186.34;188.32;190.29;192.27;194.24;196.21;198.19;200.16;202.14;204.11;206.08;208.06;210.03;212.01;213.98;215.95;217.93;219.9;221.88;223.85;225.83;227.8;229.77;231.75;233.72;235.7;237.67;239.64;241.62;243.59;245.57;247.54;249.51;251.49;253.46;255.44;257.41;259.39;261.36;263.33;265.31;267.28;269.26;271.23;273.2;275.18;277.15;279.13;281.1;283.07;285.05;287.02;289.0;290.97;292.94;294.92;296.89;298.87;300.84;302.82;304.79;306.76;308.74;310.71;312.69;314.66;316.63;318.61;320.58;322.56;324.53;326.5;328.48;330.45;332.43;334.4;336.38;338.35;340.32;342.3;344.27;346.25;348.22;350.19;352.17;354.14;356.12;358.09;360.06;362.04;364.01;365.99;367.96;369.94;371.91;373.88;375.86;377.83;379.81;381.78;383.75;385.73;387.7;389.68;391.65;393.62;395.6;397.57;399.55;401.52;403.5;405.47;407.44;409.42;411.39;413.37;415.34;417.31;419.29;421.26;423.24;425.21;427.18;429.16;431.13;433.11;435.08;437.06;439.03;441.0;442.98;444.95;446.93;448.9;450.87;452.85;454.82;456.8;458.77;460.74;462.72;464.69;466.67;468.64;470.61;472.59;474.56;476.54;478.51;480.49;482.46;484.43;486.41;488.38;490.36;492.33;494.3;496.28;498.25;500.23;502.2;504.17;506.15;508.12;510.1;512.07;514.05;516.02;517.99;519.97;521.94;523.92;525.89;527.86;529.84;531.81;533.79;535.76;537.73;539.71;541.68;543.66;545.63;547.61;549.58;551.55;553.53;555.5;557.48;559.45;561.42;563.4;565.37;567.35;569.32;571.29;573.27;575.24;577.22;579.19;581.17;583.14;585.11;587.09;589.06;591.04;593.01;594.98;596.96;598.93;600.91;602.88;604.85;606.83;608.8;610.78;612.75;614.72;616.7;618.67;620.65;622.62;624.6;626.57;628.54;630.52;632.49;634.47;636.44;638.41;640.39;642.36;644.34;646.31;648.28;650.26;652.23;654.21;656.18;658.16;660.13;662.1;664.08;666.05;668.03;670.0" dur="8s" repeatCount="indefinite" calcMode="linear"/>
          <animate attributeName="cy" values="334.17;311.02;270.55;247.51;234.11;211.96;172.78;126.44;90.37;75.83;79.13;86.26;87.02;83.56;86.5;103.71;132.66;163.13;185.93;199.55;209.82;222.92;238.85;251.71;255.24;248.29;235.39;222.41;211.78;201.44;188.02;170.88;153.1;139.04;130.95;127.73;126.67;126.25;127.36;132.01;141.05;153.1;165.51;176.29;185.24;193.33;201.19;208.16;212.72;213.76;211.47;207.06;201.7;195.61;188.4;179.22;167.81;155.52;144.57;136.83;132.72;131.44;132.09;134.44;138.97;146.14;155.53;166.04;176.25;185.33;193.05;199.48;204.57;207.81;208.72;206.99;203.05;197.58;191.33;184.65;177.7;170.72;164.15;158.54;153.93;150.18;146.98;144.5;143.4;144.22;147.3;152.19;158.1;164.38;170.64;176.99;183.14;188.84;193.36;196.34;197.54;197.29;195.81;193.33;189.83;185.44;180.44;175.3;170.59;166.83;164.95;165.64;169.46;175.92;183.63;190.93;196.74;200.79;203.02;203.97;204.01;202.96;200.32;195.9;190.13;183.88;177.93;172.56;167.69;163.28;159.56;157.02;156.03;156.58;158.32;160.86;163.94;167.53;171.58;175.86;179.96;183.48;186.17;188.02;189.1;189.43;188.96;187.65;185.56;182.94;180.05;177.15;174.36;171.79;169.52;167.71;166.51;166.0;166.16;166.89;168.07;169.63;171.48;173.54;175.65;177.65;179.44;181.04;182.58;184.16;185.76;186.99;187.39;186.77;185.39;183.62;181.77;179.82;177.68;175.34;173.01;171.03;169.61;168.83;168.66;169.15;170.39;172.35;174.85;177.42;179.76;181.63;183.06;184.1;184.68;184.74;184.13;182.94;181.28;179.39;177.44;175.5;173.66;171.95;170.55;169.59;169.41;170.25;172.11;174.61;177.19;179.53;181.35;182.78;183.79;184.34;184.21;183.25;181.59;179.28;176.66;173.83;170.91;167.94;165.19;163.23;162.57;163.45;165.5;168.28;171.3;174.61;178.25;182.15;185.97;189.18;191.46;192.56;192.75;192.11;190.79;188.72;185.9;182.47;178.68;175.04;171.69;168.47;164.81;160.36;155.31;150.52;147.14;145.99;147.53;150.73;154.18;157.42;161.06;165.92;172.02;178.37;183.71;187.44;189.84;191.56;192.86;193.38;192.56;190.2;186.75;182.96;179.37;176.04;172.78;169.52;166.56;164.37;163.27;163.23;163.94;165.11;166.68;168.71;171.25;174.09;176.9;179.35;181.3;182.78;183.85;184.5;184.6;184.07;182.95;181.4;179.42;176.81;173.22;168.41;162.78;157.26;153.03;150.59;149.92;150.53;152.18;154.88;158.73;164.83" dur="8s" repeatCount="indefinite" calcMode="linear"/>
        </circle>
      </g>

      <g class="legend" transform="translate(195.0, 20)">
        <rect x="0" y="-14" width="310" height="28" rx="14" fill="rgba(20, 15, 35, 0.8)" stroke="rgba(0, 229, 204, 0.4)" stroke-width="1"/>
        <line x1="20" y1="0" x2="45" y2="0" stroke="rgba(255,255,255,0.4)" stroke-width="2" stroke-dasharray="4 3"/>
        <text x="55" y="4" font-size="11" font-weight="600" fill="rgba(255,255,255,0.7)" font-family="system-ui, sans-serif">Perfect Trajectory</text>
        <line x1="175" y1="-6" x2="175" y2="6" stroke="rgba(255,255,255,0.2)" stroke-width="1"/>
        <line x1="190" y1="0" x2="215" y2="0" stroke="url(#trail-grad-e)" stroke-width="3" stroke-linecap="round"/>
        <text x="225" y="4" font-size="11" font-weight="bold" fill="#ff00cc" font-family="system-ui, sans-serif">Error</text>
      </g>
    </svg>