<svg xmlns="http://www.w3.org/2000/svg" viewBox="0 0 700 400" width="100%" class="trajectory-svg">
      <defs>
        <linearGradient id="trail-grad-e" x1="60" y1="0" x2="670" y2="0" gradientUnits="userSpaceOnUse">
          <stop offset="0%" stop-color="#aa00ff"/><stop offset="100%" stop-color="#ff00cc"/>
        </linearGradient>
      </defs>

      <rect width="700" height="400" fill="#0d0a1a"/>
      <g class="grid"><line x1="60.0" y1="50" x2="60.0" y2="360" stroke="rgba(0,229,204,1)" stroke-width="0.5" opacity="0.06"/>
<line x1="161.66666666666669" y1="50" x2="161.66666666666669" y2="360" stroke="rgba(0,229,204,1)" stroke-width="0.5" opacity="0.06"/>
<line x1="263.33333333333337" y1="50" x2="263.33333333333337" y2="360" stroke="rgba(0,229,204,1)" stroke-width="0.5" opacity="0.06"/>
<line x1="365.0" y1="50" x2="365.0" y2="360" stroke="rgba(0,229,204,1)" stroke-width="0.5" opacity="0.06"/>
<line x1="466.6666666666667" y1="50" x2="466.6666666666667" y2="360" stroke="rgba(0,229,204,1)" stroke-width="0.5" opacity="0.06"/>
<line x1="568.3333333333333" y1="50" x2="568.3333333333333" y2="360" stroke="rgba(0,229,204,1)" stroke-width="0.5" opacity="0.06"/>
<line x1="670.0" y1="50" x2="670.0" y2="360" stroke="rgba(0,229,204,1)" stroke-width="0.5" opacity="0.06"/>
<line x1="60" y1="50.0" x2="670" y2="50.0" stroke="rgba(0,229,204,1)" stroke-width="0.5" opacity="0.18"/>
<line x1="60" y1="101.66666666666666" x2="670" y2="101.66666666666666" stroke="rgba(0,229,204,1)" stroke-width="0.5" opacity="0.18"/>
<line x1="60" y1="153.33333333333331" x2="670" y2="153.33333333333331" stroke="rgba(0,229,204,1)" stroke-width="0.5" opacity="0.18"/>
<line x1="60" y1="205.0" x2="670" y2="205.0" stroke="rgba(0,229,204,1)" stroke-width="0.5" opacity="0.18"/>
<line x1="60" y1="256.66666666666663" x2="670" y2="256.66666666666663" stroke="rgba(0,229,204,1)" stroke-width="0.5" opacity="0.18"/>
<line x1="60" y1="308.3333333333333" x2="670" y2="308.3333333333333" stroke="rgba(0,229,204,1)" stroke-width="0.5" opacity="0.18"/>
<line x1="60" y1="360.0" x2="670" y2="360.0" stroke="rgba(0,229,204,1)" stroke-width="0.5" opacity="0.18"/>
</g>
      <line x1="60" y1="251.04" x2="670" y2="251.04" stroke="rgba(255,255,255,0.5)" stroke-width="1.5" stroke-dasharray="6 6"/>
      <rect x="60" y="50" width="610" height="310" fill="none" stroke="rgba(0,229,204,0.15)" stroke-width="0.75" rx="4"/>

      <g class="axis-labels"><text x="60.0" y="380" font-size="10" fill="rgba(255,255,255,0.6)" text-anchor="middle" font-family="system-ui, sans-serif">0.1s</text>
<text x="161.66666666666669" y="380" font-size="10" fill="rgba(255,255,255,0.6)" text-anchor="middle" font-family="system-ui, sans-serif">10.4s</text>
<text x="263.33333333333337" y="380" font-size="10" fill="rgba(255,255,255,0.6)" text-anchor="middle" font-family="system-ui, sans-serif">20.7s</text>
<text x="365.0" y="380" font-size="10" fill="rgba(255,255,255,0.6)" text-anchor="middle" font-family="system-ui, sans-serif">31.0s</text>
<text x="466.6666666666667" y="380" font-size="10" fill="rgba(255,255,255,0.6)" text-anchor="middle" font-family="system-ui, sans-serif">41.3s</text>
<text x="568.3333333333333" y="380" font-size="10" fill="rgba(255,255,255,0.6)" text-anchor="middle" font-family="system-ui, sans-serif">51.6s</text>
<text x="670.0" y="380" font-size="10" fill="rgba(255,255,255,0.6)" text-anchor="middle" font-family="system-ui, sans-serif">61.9s</text>
<text x="50" y="54.0" font-size="10" fill="rgba(255,255,255,0.6)" text-anchor="end" font-family="system-ui, sans-serif">21.15</text>
<text x="50" y="105.66666666666666" font-size="10" fill="rgba(255,255,255,0.6)" text-anchor="end" font-family="system-ui, sans-serif">15.71</text>
<text x="50" y="157.33333333333331" font-size="10" fill="rgba(255,255,255,0.6)" text-anchor="end" font-family="system-ui, sans-serif">10.28</text>
<text x="50" y="209.0" font-size="10" fill="rgba(255,255,255,0.6)" text-anchor="end" font-family="system-ui, sans-serif">4.84</text>
<text x="50" y="260.66666666666663" font-size="10" fill="rgba(255,255,255,0.6)" text-anchor="end" font-family="system-ui, sans-serif">-0.59</text>
<text x="50" y="312.3333333333333" font-size="10" fill="rgba(255,255,255,0.6)" text-anchor="end" font-family="system-ui, sans-serif">-6.03</text>
<text x="50" y="364.0" font-size="10" fill="rgba(255,255,255,0.6)" text-anchor="end" font-family="system-ui, sans-serif">-11.46</text>
</g>
      <text x="50" y="35" font-size="11" font-weight="bold" fill="rgba(0,229,204,0.8)" text-anchor="end" font-family="system-ui, sans-serif">Error (m)</text>
      <text x="670" y="395" font-size="11" font-weight="bold" fill="rgba(0,229,204,0.8)" text-anchor="end" font-family="system-ui, sans-serif">Time (s)</text>

      <path d="M 60.0,255.79 L 61.97,255.59 L 63.95,255.16 L 65.92,254.55 L 67.9,253.76 L 69.87,252.79 L 71.84,251.63 L 73.82,250.34 L 75.79,249.04 L 77.77,247.83 L 79.74,246.82 L 81.72,246.1 L 83.69,245.73 L 85.66,245.72 L 87.64,246.08 L 89.61,246.77 L 91.59,247.74 L 93.56,248.92 L 95.53,250.23 L 97.51,251.59 L 99.48,252.91 L 101.46,254.12 L 103.43,255.14 L 105.4,255.91 L 107.38,256.36 L 109.35,256.48 L 111.33,256.25 L 113.3,255.68 L 115.28,254.83 L 117.25,253.73 L 119.22,252.46 L 121.2,251.11 L 123.17,249.75 L 125.15,248.46 L 127.12,247.33 L 129.09,246.43 L 131.07,245.82 L 133.04,245.54 L 135.02,245.61 L 136.99,246.03 L 138.96,246.77 L 140.94,247.78 L 142.91,248.99 L 144.89,250.33 L 146.86,251.72 L 148.83,253.06 L 150.81,254.29 L 152.78,255.32 L 154.76,256.08 L 156.73,256.53 L 158.71,256.62 L 160.68,256.36 L 162.65,255.76 L 164.63,254.86 L 166.6,253.72 L 168.58,252.39 L 170.55,250.96 L 172.52,249.51 L 174.5,248.12 L 176.47,246.88 L 178.45,245.87 L 180.42,245.15 L 182.39,244.77 L 184.37,244.77 L 186.34,245.15 L 188.32,245.89 L 190.29,246.93 L 192.27,248.23 L 194.24,249.7 L 196.21,251.26 L 198.19,252.82 L 200.16,254.29 L 202.14,255.58 L 204.11,256.6 L 206.08,257.28 L 208.06,257.57 L 210.03,257.44 L 212.01,256.9 L 213.98,255.98 L 215.95,254.76 L 217.93,253.3 L 219.9,251.71 L 221.88,250.09 L 223.85,248.52 L 225.83,247.1 L 227.8,245.91 L 229.77,245.02 L 231.75,244.47 L 233.72,244.3 L 235.7,244.5 L 237.67,245.08 L 239.64,245.98 L 241.62,247.18 L 243.59,248.59 L 245.57,250.15 L 247.54,251.77 L 249.51,253.37 L 251.49,254.87 L 253.46,256.16 L 255.44,257.16 L 257.41,257.78 L 259.39,257.97 L 261.36,257.71 L 263.33,257.02 L 265.31,255.95 L 267.28,254.56 L 269.26,252.96 L 271.23,251.25 L 273.2,249.53 L 275.18,247.9 L 277.15,246.45 L 279.13,245.26 L 281.1,244.38 L 283.07,243.86 L 285.05,243.78 L 287.02,244.16 L 289.0,245.01 L 290.97,246.25 L 292.94,247.82 L 294.92,249.64 L 296.89,251.61 L 298.87,253.62 L 300.84,255.56 L 302.82,257.32 L 304.79,258.78 L 306.76,259.87 L 308.74,260.53 L 310.71,260.69 L 312.69,260.3 L 314.66,259.37 L 316.63,257.95 L 318.61,256.18 L 320.58,254.11 L 322.56,251.85 L 324.53,249.49 L 326.5,247.15 L 328.48,244.93 L 330.45,242.95 L 332.43,241.29 L 334.4,240.02 L 336.38,239.21 L 338.35,238.92 L 340.32,239.18 L 342.3,240.01 L 344.27,241.38 L 346.25,243.26 L 348.22,245.51 L 350.19,248.02 L 352.17,250.73 L 354.14,253.56 L 356.12,256.4 L 358.09,259.18 L 360.06,261.76 L 362.04,264.08 L 364.01,266.06 L 365.99,267.65 L 367.96,268.76 L 369.94,269.34 L 371.91,269.36 L 373.88,268.8 L 375.86,267.68 L 377.83,266.02 L 379.81,263.85 L 381.78,261.23 L 383.75,258.28 L 385.73,255.12 L 387.7,251.8 L 389.68,248.38 L 391.65,244.9 L 393.62,241.4 L 395.6,237.94 L 397.57,234.53 L 399.55,231.23 L 401.52,228.1 L 403.5,225.16 L 405.47,222.45 L 407.44,220.06 L 409.42,218.07 L 411.39,216.56 L 413.37,215.57 L 415.34,215.14 L 417.31,215.29 L 419.29,216.03 L 421.26,217.33 L 423.24,219.17 L 425.21,221.51 L 427.18,224.29 L 429.16,227.45 L 431.13,230.88 L 433.11,234.45 L 435.08,238.11 L 437.06,241.84 L 439.03,245.61 L 441.0,249.38 L 442.98,253.16 L 444.95,256.94 L 446.93,260.71 L 448.9,264.48 L 450.87,268.24 L 452.85,272.01 L 454.82,275.78 L 456.8,279.54 L 458.77,283.3 L 460.74,287.06 L 462.72,290.82 L 464.69,294.56 L 466.67,298.3 L 468.64,302.03 L 470.61,305.74 L 472.59,309.42 L 474.56,313.02 L 476.54,316.52 L 478.51,319.9 L 480.49,323.08 L 482.46,325.98 L 484.43,328.54 L 486.41,330.68 L 488.38,332.35 L 490.36,333.51 L 492.33,334.12 L 494.3,334.17 L 496.28,333.65 L 498.25,332.59 L 500.23,330.99 L 502.2,328.9 L 504.17,326.36 L 506.15,323.43 L 508.12,320.17 L 510.1,316.65 L 512.07,313.0 L 514.05,309.28 L 516.02,305.5 L 517.99,301.71 L 519.97,297.91 L 521.94,294.11 L 523.92,290.31 L 525.89,286.5 L 527.86,282.7 L 529.84,278.9 L 531.81,275.1 L 533.79,271.3 L 535.76,267.5 L 537.73,263.7 L 539.71,259.9 L 541.68,256.1 L 543.66,252.3 L 545.63,248.5 L 547.61,244.7 L 549.58,240.9 L 551.55,237.1 L 553.53,233.3 L 555.5,229.5 L 557.48,225.7 L 559.45,221.89 L 561.42,218.09 L 563.4,214.29 L 565.37,210.49 L 567.35,206.69 L 569.32,202.89 L 571.29,199.09 L 573.27,195.29 L 575.24,191.49 L 577.22,187.69 L 579.19,183.89 L 581.17,180.09 L 583.14,176.29 L 585.11,172.49 L 587.09,168.69 L 589.06,164.89 L 591.04,161.09 L 593.01,157.29 L 594.98,153.49 L 596.96,149.69 L 598.93,145.89 L 600.91,142.09 L 602.88,138.29 L 604.85,134.49 L 606.83,130.69 L 608.8,126.89 L 610.78,123.09 L 612.75,119.29 L 614.72,115.5 L 616.7,111.7 L 618.67,107.91 L 620.65,104.13 L 622.62,100.38 L 624.6,96.69 L 626.57,93.09 L 628.54,89.56 L 630.52,86.08 L 632.49,82.67 L 634.47,79.28 L 636.44,75.86 L 638.41,75.83 L 640.39,76.29 L 642.36,76.65 L 644.34,77.02 L 646.31,77.6 L 648.28,78.53 L 650.26,79.89 L 652.23,81.72 L 654.21,84.01 L 656.18,86.72 L 658.16,89.81 L 660.13,93.19 L 662.1,96.8 L 664.08,100.52 L 666.05,104.29 L 668.03,108.09 L 670.0,111.89" fill="none" stroke="url(#trail-grad-e)" stroke-width="2.5" stroke-linecap="round" stroke-linejoin="round"
            stroke-dasharray="935.69" stroke-dashoffset="935.69">
        <animate attributeName="stroke-dashoffset" values="935.69;933.71;931.68;929.62;927.49;925.29;923.0;920.64;918.28;915.96;913.75;911.64;909.64;907.67;905.65;903.57;901.36;899.06;896.7;894.3;891.93;889.61;887.39;885.27;883.24;881.27;879.27;877.22;875.07;872.81;870.47;868.07;865.68;863.32;861.04;858.88;856.81;854.82;852.84;850.82;848.72;846.49;844.18;841.79;839.38;837.0;834.67;832.44;830.32;828.3;826.32;824.33;822.27;820.1;817.82;815.44;813.0;810.56;808.14;805.81;803.59;801.49;799.48;797.5;795.5;793.38;791.16;788.79;786.33;783.82;781.3;778.84;776.47;774.26;772.17;770.17;768.2;766.14;763.97;761.65;759.19;756.66;754.1;751.58;749.15;746.85;744.68;742.63;740.65;738.66;736.61;734.44;732.13;729.7;727.18;724.63;722.1;719.61;717.26;715.04;712.97;710.98;709.0;706.91;704.66;702.25;699.7;697.09;694.48;691.91;689.47;687.16;685.0;682.96;680.98;678.97;676.82;674.49;671.97;669.28;666.5;663.68;660.91;658.26;655.81;653.56;651.47;649.49;647.48;645.3;642.87;640.21;637.36;634.35;631.28;628.22;625.24;622.45;619.87;617.52;615.38;613.39;611.41;609.26;606.86;604.13;601.14;597.95;594.59;591.14;587.68;584.27;581.03;577.98;575.18;572.65;570.38;568.32;566.35;564.3;562.03;559.45;556.51;553.24;549.69;545.96;542.1;538.15;534.15;530.13;526.15;522.21;518.36;514.66;511.12;507.77;504.67;501.86;499.38;497.17;495.15;493.17;491.06;488.7;486.0;482.94;479.53;475.8;471.85;467.76;463.61;459.38;455.13;450.88;446.61;442.35;438.09;433.83;429.59;425.33;421.08;416.83;412.58;408.34;404.09;399.86;395.63;391.41;387.21;383.03;378.93;374.91;371.0;367.25;363.74;360.51;357.6;355.02;352.72;350.66;348.69;346.64;344.4;341.86;338.99;335.77;332.24;328.43;324.39;320.24;316.03;311.76;307.49;303.21;298.93;294.64;290.35;286.07;281.79;277.51;273.22;268.94;264.66;260.38;256.1;251.81;247.53;243.25;238.97;234.69;230.4;226.12;221.84;217.55;213.27;208.98;204.7;200.42;196.14;191.86;187.57;183.29;179.01;174.72;170.44;166.16;161.88;157.59;153.31;149.03;144.75;140.47;136.18;131.9;127.62;123.34;119.06;114.77;110.49;106.21;101.93;97.66;93.37;89.1;84.83;80.6;76.41;72.31;68.26;64.26;60.32;56.4;52.45;50.48;48.45;46.44;44.43;42.37;40.2;37.79;35.11;32.08;28.73;25.06;21.15;17.03;12.82;8.57;4.28;0.0" dur="8s" repeatCount="indefinite" calcMode="linear"/>
      </path>

      <g>
        <circle r="9" fill="none" stroke="#ffe566" stroke-width="1.5">
          <animate attributeName="cx" values="60.0;61.97;63.95;65.92;67.9;69.87;71.84;73.82;75.79;77.77;79.74;81.72;83.69;85.66;87.64;89.61;91.59;93.56;95.53;97.51;99.48;101.46;103.43;105.4;107.38;109.35;111.33;113.3;115.28;117.25;119.22;121.2;123.17;125.15;127.12;129.09;131.07;133.04;135.02;136.99;138.96;140.94;142.91;144.89;146.86;148.83;150.81;152.78;154.76;156.73;158.71;160.68;162.65;164.63;166.6;168.58;170.55;172.52;174.5;176.47;178.45;180.42;182.39;184.37;186.34;188.32;190.29;192.27;194.24;196.21;198.19;200.16;202.14;204.11;206.08;208.06;210.03;212.01;213.98;215.95;217.93;219.9;221.88;223.85;225.83;227.8;229.77;231.75;233.72;235.7;237.67;239.64;241.62;243.59;245.57;247.54;249.51;251.49;253.46;255.44;257.41;259.39;261.36;263.33;265.31;267.28;269.26;271.23;273.2;275.18;277.15;279.13;281.1;283.07;285.05;287.02;289.0;290.97;292.94;294.92;296.89;298.87;300.84;302.82;304.79;306.76;308.74;310.71;312.69;314.66;316.63;318.61;320.58;322.56;324.53;326.5;328.48;330.45;332.43;334.4;336.38;338.35;340.32;342.3;344.27;346.25;348.22;350.19;352.17;354.14;356.12;358.09;360.06;362.04;364.01;365.99;367.96;369.94;371.91;373.88;375.86;377.83;379.81;381.78;383.75;385.73;387.7;389.68;391.65;393.62;395.6;397.57;399.55;401.52;403.5;405.47;407.44;409.42;411.39;413.37;415.34;417.31;419.29;421.26;423.24;425.21;427.18;429.16;431.13;433.11;435.08;437.06;439.03;441.0;442.98;444.95;446.93;448.9;450.87;452.85;454.82;456.8;458.77;460.74;462.72;464.69;466.67;468.64;470.61;472.59;474.56;476.54;478.51;480.49;482.46;484.43;486.41;488.38;490.36;492.33;494.3;496.28;498.25;500.23;502.2;504.17;506.15;508.12;510.1;512.07;514.05;516.02;517.99;519.97;521.94;523.92;525.89;527.86;529.84;531.81;533.79;535.76;537.73;539.71;541.68;543.66;545.63;547.61;549.58;551.55;553.53;555.5;557.48;559.45;561.42;563.4;565.37;567.35;569.32;571.29;573.27;575.24;577.22;579.19;581.17;583.14;585.11;587.09;589.06;591.04;593.01;594.98;596.96;598.93;600.91;602.88;604.85;606.83;608.8;610.78;612.75;614.72;616.7;618.67;620.65;622.62;624.6;626.57;628.54;630.52;632.49;634.47;636.44;638.41;640.39;642.36;644.34;646.31;648.28;650.26;652.23;654.21;656.18;658.16;660.13;662.1;664.08;666.05;668.03;670.0" dur="8s" repeatCount="indefinite" calcMode="linear"/>
          <animate attributeName="cy" values="255.79;255.59;255.16;254.55;253.76;252.79;251.63;250.34;249.04;247.83;246.82;246.1;245.73;245.72;246.08;246.77;247.74;248.92;250.23;251.59;252.91;254.12;255.14;255.91;256.36;256.48;256.25;255.68;254.83;253.73;252.46;251.11;249.75;248.46;247.33;246.43;245.82;245.54;245.61;246.03;246.77;247.78;248.99;250.33;251.72;253.06;254.29;255.32;256.08;256.53;256.62;256.36;255.76;254.86;253.72;252.39;250.96;249.51;248.12;246.88;245.87;245.15;244.77;244.77;245.15;245.89;246.93;248.23;249.7;251.26;252.82;254.29;255.58;256.6;257.28;257.57;257.44;256.9;255.98;254.76;253.3;251.71;250.09;248.52;247.1;245.91;245.02;244.47;244.3;244.5;245.08;245.98;247.18;248.59;250.15;251.77;253.37;254.87;256.16;257.16;257.78;257.97;257.71;257.02;255.95;254.56;252.96;251.25;249.53;247.9;246.45;245.26;244.38;243.86;243.78;244.16;245.01;246.25;247.82;249.64;251.61;253.62;255.56;257.32;258.78;259.87;260.53;260.69;260.3;259.37;257.95;256.18;254.11;251.85;249.49;247.15;244.93;242.95;241.29;240.02;239.21;238.92;239.18;240.01;241.38;243.26;245.51;248.02;250.73;253.56;256.4;259.18;261.76;264.08;266.06;267.65;268.76;269.34;269.36;268.8;267.68;266.02;263.85;261.23;258.28;255.12;251.8;248.38;244.9;241.4;237.94;234.53;231.23;228.1;225.16;222.45;220.06;218.07;216.56;215.57;215.14;215.29;216.03;217.33;219.17;221.51;224.29;227.45;230.88;234.45;238.11;241.84;245.61;249.38;253.16;256.94;260.71;264.48;268.24;272.01;275.78;279.54;283.3;287.06;290.82;294.56;298.3;302.03;305.74;309.42;313.02;316.52;319.9;323.08;325.98;328.54;330.68;332.35;333.51;334.12;334.17;333.65;332.59;330.99;328.9;326.36;323.43;320.17;316.65;313.0;309.28;305.5;301.71;297.91;294.11;290.31;286.5;282.7;278.9;275.1;271.3;267.5;263.7;259.9;256.1;252.3;248.5;244.7;240.9;237.1;233.3;229.5;225.7;221.89;218.09;214.29;210.49;206.69;202.89;199.09;195.29;191.49;187.69;183.89;180.09;176.29;172.49;168.69;164.89;161.09;157.29;153.49;149.69;145.89;142.09;138.29;134.49;130.69;126.89;123.09;119.29;115.5;111.7;107.91;104.13;100.38;96.69;93.09;89.56;86.08;82.67;79.28;75.86;75.83;76.29;76.65;77.02;77.6;78.53;79.89;81.72;84.01;86.72;89.81;93.19;96.8;100.52;104.29;108.09;111.89" dur="8s" repeatCount="indefinite" calcMode="linear"/>
          <animate attributeName="r" values="9;24;9" dur="2s" repeatCount="indefinite"/>
          <animate attributeName="opacity" values="0.8;0;0.8" dur="2s" repeatCount="indefinite"/>
        </circle>
        <circle r="5.5" fill="#ffe566">
          <animate attributeName="cx" values="60.0;61.97;63.95;65.92;67.9;69.87;71.84;73.82;75.79;77.77;79.74;81.72;83.69;85.66;87.64;89.61;91.59;93.56;95.53;97.51;99.48;101.46;103.43;105.4;107.38;109.35;111.33;113.3;115.28;117.25;119.22;121.2;123.17;125.15;127.12;129.09;131.07;133.04;135.02;136.99;138.96;140.94;142.91;144.89;146.86;148.83;150.81;152.78;154.76;156.73;158.71;160.68;162.65;164.63;166.6;168.58;170.55;172.52;174.5;176.47;178.45;180.42;182.39;184.37;186.34;188.32;190.29;192.27;194.24;196.21;198.19;200.16;202.14;204.11;206.08;208.06;210.03;212.01;213.98;215.95;217.93;219.9;221.88;223.85;225.83;227.8;229.77;231.75;233.72;235.7;237.67;239.64;241.62;243.59;245.57;247.54;249.51;251.49;253.46;255.44;257.41;259.39;261.36;263.33;265.31;267.28;269.26;271.23;273.2;275.18;277.15;279.13;281.1;283.07;285.05;287.02;289.0;290.97;292.94;294.92;296.89;298.87;300.84;302.82;304.79;306.76;308.74;310.71;312.69;314.66;316.63;318.61;320.58;322.56;324.53;326.5;328.48;330.45;332.43;334.4;336.38;338.35;340.32;342.3;344.27;346.25;348.22;350.19;352.17;354.14;356.12;358.09;360.06;362.04;364.01;365.99;367.96;369.94;371.91;373.88;375.86;377.83;379.81;381.78;383.75;385.73;387.7;389.68;391.65;393.62;395.6;397.57;399.55;401.52;403.5;405.47;407.44;409.42;411.39;413.37;415.34;417.31;419.29;421.26;423.24;425.21;427.18;429.16;431.13;433.11;435.08;437.06;439.03;441.0;442.98;444.95;446.93;448.9;450.87;452.85;454.82;456.8;458.77;460.74;462.72;464.69;466.67;468.64;470.61;472.59;474.56;476.54;478.51;480.49;482.46;484.43;486.41;488.38;490.36;492.33;494.3;496.28;498.25;500.23;502.2;504.17;506.15;508.12;510.1;512.07;514.05;516.02;517.99;519.97;521.94;523.92;525.89;527.86;529.84;531.81;533.79;535.76;537.73;539.71;541.68;543.66;545.63;547.61;549.58;551.55;553.53;555.5;557.48;559.45;561.42;563.4;565.37;567.35;569.32;571.29;573.27;575.24;577.22;579.19;581.17;583.14;585.11;587.09;589.06;591.04;593.01;594.98;596.96;598.93;600.91;602.88;604.85;606.83;608.8;610.78;612.75;614.72;616.7;618.67;620.65;622.62;624.6;626.57;628.54;630.52;632.49;634.47;636.44;638.41;640.39;642.36;644.34;646.31;648.28;650.26;652.23;654.21;656.18;658.16;660.13;662.1;664.08;666.05;668.03;670.0" dur="8s" repeatCount="indefinite" calcMode="linear"/>
          <animate attributeName="cy" values="255.79;255.59;255.16;254.55;253.76;252.79;251.63;250.34;249.04;247.83;246.82;246.1;245.73;245.72;246.08;246.77;247.74;248.92;250.23;251.59;252.91;254.12;255.14;255.91;256.36;256.48;256.25;255.68;254.83;253.73;252.46;251.11;249.75;248.46;247.33;246.43;245.82;245.54;245.61;246.03;246.77;247.78;248.99;250.33;251.72;253.06;254.29;255.32;256.08;256.53;256.62;256.36;255.76;254.86;253.72;252.39;250.96;249.51;248.12;246.88;245.87;245.15;244.77;244.77;245.15;245.89;246.93;248.23;249.7;251.26;252.82;254.29;255.58;256.6;257.28;257.57;257.44;256.9;255.98;254.76;253.3;251.71;250.09;248.52;247.1;245.91;245.02;244.47;244.3;244.5;245.08;245.98;247.18;248.59;250.15;251.77;253.37;254.87;256.16;257.16;257.78;257.97;257.71;257.02;255.95;254.56;252.96;251.25;249.53;247.9;246.45;245.26;244.38;243.86;243.78;244.16;245.01;246.25;247.82;249.64;251.61;253.62;255.56;257.32;258.78;259.87;260.53;260.69;260.3;259.37;257.95;256.18;254.11;251.85;249.49;247.15;244.93;242.95;241.29;240.02;239.21;238.92;239.18;240.01;241.38;243.26;245.51;248.02;250.73;253.56;256.4;259.18;261.76;264.08;266.06;267.65;268.76;269.34;269.36;268.8;267.68;266.02;263.85;261.23;258.28;255.12;251.8;248.38;244.9;241.4;237.94;234.53;231.23;228.1;225.16;222.45;220.06;218.07;216.56;215.57;215.14;215.29;216.03;217.33;219.17;221.51;224.29;227.45;230.88;234.45;238.11;241.84;245.61;249.38;253.16;256.94;260.71;264.48;268.24;272.01;275.78;279.54;283.3;287.06;290.82;294.56;298.3;302.03;305.74;309.42;313.02;316.52;319.9;323.08;325.98;328.54;330.68;332.35;333.51;334.12;334.17;333.65;332.59;330.99;328.9;326.36;323.43;320.17;316.65;313.0;309.28;305.5;301.71;297.91;294.11;290.31;286.5;282.7;278.9;275.1;271.3;267.5;263.7;259.9;256.1;252.3;248.5;244.7;240.9;237.1;233.3;229.5;225.7;221.89;218.09;214.29;210.49;206.69;202.89;199.09;195.29;191.49;187.69;183.89;180.09;176.29;172.49;168.69;164.89;161.09;157.29;153.49;149.69;145.89;142.09;138.29;134.49;130.69;126.89;123.09;119.29;115.5;111.7;107.91;104.13;100.38;96.69;93.09;89.56;86.08;82.67;79.28;75.86;75.83;76.29;76.65;77.02;77.6;78.53;79.89;81.72;84.01;86.72;89.81;93.19;96.8;100.52;104.29;108.09;111.89" dur="8s" repeatCount="indefinite" calcMode="linear"/>
        </circle>
        <circle r="2" fill="white">
          <animate attributeName="cx" values="60.0;61.97;63.95;65.92;67.9;69.87;71.84;73.82;75.79;77.77;79.74;81.72;83.69;85.66;87.64;89.61;91.59;93.56;95.53;97.51;99.48;101.46;103.43;105.4;107.38;109.35;111.33;113.3;115.28;117.25;119.22;121.2;123.17;125.15;127.12;129.09;131.07;133.04;135.02;136.99;138.96;140.94;142.91;144.89;146.86;148.83;150.81;152.78;154.76;156.73;158.71;160.68;162.65;164.63;166.6;168.58;170.55;172.52;174.5;176.47;178.45;180.42;182.39;184.37;186.34;188.32;190.29;192.27;194.24;196.21;198.19;200.16;202.14;204.11;206.08;208.06;210.03;212.01;213.98;215.95;217.93;219.9;221.88;223.85;225.83;227.8;229.77;231.75;233.72;235.7;237.67;239.64;241.62;243.59;245.57;247.54;249.51;251.49;253.46;255.44;257.41;259.39;261.36;263.33;265.31;267.28;269.26;271.23;273.2;275.18;277.15;279.13;281.1;283.07;285.05;287.02;289.0;290.97;292.94;294.92;296.89;298.87;300.84;302.82;304.79;306.76;308.74;310.71;312.69;314.66;316.63;318.61;320.58;322.56;324.53;326.5;328.48;330.45;332.43;334.4;336.38;338.35;340.32;342.3;344.27;346.25;348.22;350.19;352.17;354.14;356.12;358.09;360.06;362.04;364.01;365.99;367.96;369.94;371.91;373.88;375.86;377.83;379.81;381.78;383.75;385.73;387.7;389.68;391.65;393.62;395.6;397.57;399.55;401.52;403.5;405.47;407.44;409.42;411.39;413.37;415.34;417.31;419.29;421.26;423.24;425.21;427.18;429.16;431.13;433.11;435.08;437.06;439.03;441.0;442.98;444.95;446.93;448.9;450.87;452.85;454.82;456.8;458.77;460.74;462.72;464.69;466.67;468.64;470.61;472.59;474.56;476.54;478.51;480.49;482.46;484.43;486.41;488.38;490.36;492.33;494.3;496.28;498.25;500.23;502.2;504.17;506.15;508.12;510.1;512.07;514.05;516.02;517.99;519.97;521.94;523.92;525.89;527.86;529.84;531.81;533.79;535.76;537.73;539.71;541.68;543.66;545.63;547.61;549.58;551.55;553.53;555.5;557.48;559.45;561.42;563.4;565.37;567.35;569.32;571.29;573.27;575.24;577.22;579.19;581.17;583.14;585.11;587.09;589.06;591.04;593.01;594.98;596.96;598.93;600.91;602.88;604.85;606.83;608.8;610.78;612.75;614.72;616.7;618.67;620.65;622.62;624.6;626.57;628.54;630.52;632.49;634.47;636.44;638.41;640.39;642.36;644.34;646.31;648.28;650.26;652.23;654.21;656.18;658.16;660.13;662.1;664.08;666.05;668.03;670.0" dur="8s" repeatCount="indefinite" calcMode="linear"/>
          <animate attributeName="cy" values="255.79;255.59;255.16;254.55;253.76;252.79;251.63;250.34;249.04;247.83;246.82;246.1;245.73;245.72;246.08;246.77;247.74;248.92;250.23;251.59;252.91;254.12;255.14;255.91;256.36;256.48;256.25;255.68;254.83;253.73;252.46;251.11;249.75;248.46;247.33;246.43;245.82;245.54;245.61;246.03;246.77;247.78;248.99;250.33;251.72;253.06;254.29;255.32;256.08;256.53;256.62;256.36;255.76;254.86;253.72;252.39;250.96;249.51;248.12;246.88;245.87;245.15;244.77;244.77;245.15;245.89;246.93;248.23;249.7;251.26;252.82;254.29;255.58;256.6;257.28;257.57;257.44;256.9;255.98;254.76;253.3;251.71;250.09;248.52;247.1;245.91;245.02;244.47;244.3;244.5;245.08;245.98;247.18;248.59;250.15;251.77;253.37;254.87;256.16;257.16;257.78;257.97;257.71;257.02;255.95;254.56;252.96;251.25;249.53;247.9;246.45;245.26;244.38;243.86;243.78;244.16;245.01;246.25;247.82;249.64;251.61;253.62;255.56;257.32;258.78;259.87;260.53;260.69;260.3;259.37;257.95;256.18;254.11;251.85;249.49;247.15;244.93;242.95;241.29;240.02;239.21;238.92;239.18;240.01;241.38;243.26;245.51;248.02;250.73;253.56;256.4;259.18;261.76;264.08;266.06;267.65;268.76;269.34;269.36;268.8;267.68;266.02;263.85;261.23;258.28;255.12;251.8;248.38;244.9;241.4;237.94;234.53;231.23;228.1;225.16;222.45;220.06;218.07;216.56;215.57;215.14;215.29;216.03;217.33;219.17;221.51;224.29;227.45;230.88;234.45;238.11;241.84;245.61;249.38;253.16;256.94;260.71;264.48;268.24;272.01;275.78;279.54;283.3;287.06;290.82;294.56;298.3;302.03;305.74;309.42;313.02;316.52;319.9;323.08;325.98;328.54;330.68;332.35;333.51;334.12;334.17;333.65;332.59;330.99;328.9;326.36;323.43;320.17;316.65;313.0;309.28;305.5;301.71;297.91;294.11;290.31;286.5;282.7;278.9;275.1;271.3;267.5;263.7;259.9;256.1;252.3;248.5;244.7;240.9;237.1;233.3;229.5;225.7;221.89;218.09;214.29;210.49;206.69;202.89;199.09;195.29;191.49;187.69;183.89;180.09;176.29;172.49;168.69;164.89;161.09;157.29;153.49;149.69;145.89;142.09;138.29;134.49;130.69;126.89;123.09;119.29;115.5;111.7;107.91;104.13;100.38;96.69;93.09;89.56;86.08;82.67;79.28;75.86;75.83;76.29;76.65;77.02;77.6;78.53;79.89;81.72;84.01;86.72;89.81;93.19;96.8;100.52;104.29;108.09;111.89" dur="8s" repeatCount="indefinite" calcMode="linear"/>
        </circle>
      </g>

      <g class="legend" transform="translate(195.0, 20)">
        <rect x="0" y="-14" width="310" height="28" rx="14" fill="rgba(20, 15, 35, 0.8)" stroke="rgba(0, 229, 204, 0.4)" stroke-width="1"/>
        <line x1="20" y1="0" x2="45" y2="0" stroke="rgba(255,255,255,0.4)" stroke-width="2" stroke-dasharray="4 3"/>
        <text x="55" y="4" font-size="11" font-weight="600" fill="rgba(255,255,255,0.7)" font-family="system-ui, sans-serif">Perfect Trajectory</text>
        <line x1="175" y1="-6" x2="175" y2="6" stroke="rgba(255,255,255,0.2)" stroke-width="1"/>
        <line x1="190" y1="0" x2="215" y2="0" stroke="url(#trail-grad-e)" stroke-width="3" stroke-linecap="round"/>
        <text x="225" y="4" font-size="11" font-weight="bold" fill="#ff00cc" font-family="system-ui, sans-serif">Error</text>
      </g>
    </svg>