<svg xmlns="http://www.w3.org/2000/svg"
     viewBox="0 0 700 400" width="100%" class="trajectory-svg">

  <defs>
    <linearGradient id="steer-grad" x1="60" y1="0" x2="670" y2="0" gradientUnits="userSpaceOnUse">
      <stop offset="0%"   stop-color="#aa00ff"/>
      <stop offset="100%" stop-color="#ff00cc"/>
    </linearGradient>
  </defs>

  <rect width="700" height="400" fill="#0d0a1a"/>
  <g class="grid"><line x1="60.0" y1="50" x2="60.0" y2="360" stroke="rgba(0,229,204,1)" stroke-width="0.5" opacity="0.06"/>
<line x1="161.66666666666669" y1="50" x2="161.66666666666669" y2="360" stroke="rgba(0,229,204,1)" stroke-width="0.5" opacity="0.06"/>
<line x1="263.33333333333337" y1="50" x2="263.33333333333337" y2="360" stroke="rgba(0,229,204,1)" stroke-width="0.5" opacity="0.06"/>
<line x1="365.0" y1="50" x2="365.0" y2="360" stroke="rgba(0,229,204,1)" stroke-width="0.5" opacity="0.06"/>
<line x1="466.6666666666667" y1="50" x2="466.6666666666667" y2="360" stroke="rgba(0,229,204,1)" stroke-width="0.5" opacity="0.06"/>
<line x1="568.3333333333333" y1="50" x2="568.3333333333333" y2="360" stroke="rgba(0,229,204,1)" stroke-width="0.5" opacity="0.06"/>
<line x1="670.0" y1="50" x2="670.0" y2="360" stroke="rgba(0,229,204,1)" stroke-width="0.5" opacity="0.06"/>
<line x1="60" y1="50.0" x2="670" y2="50.0" stroke="rgba(0,229,204,1)" stroke-width="0.5" opacity="0.18"/>
<line x1="60" y1="112.0" x2="670" y2="112.0" stroke="rgba(0,229,204,1)" stroke-width="0.5" opacity="0.18"/>
<line x1="60" y1="174.0" x2="670" y2="174.0" stroke="rgba(0,229,204,1)" stroke-width="0.5" opacity="0.18"/>
<line x1="60" y1="236.0" x2="670" y2="236.0" stroke="rgba(0,229,204,1)" stroke-width="0.5" opacity="0.18"/>
<line x1="60" y1="298.0" x2="670" y2="298.0" stroke="rgba(0,229,204,1)" stroke-width="0.5" opacity="0.18"/>
<line x1="60" y1="360.0" x2="670" y2="360.0" stroke="rgba(0,229,204,1)" stroke-width="0.5" opacity="0.18"/>
</g>
  <line x1="60" y1="205.0" x2="670" y2="205.0" stroke="rgba(255,255,255,0.35)" stroke-width="1" stroke-dasharray="5 5"/>
  <rect x="60" y="50" width="610" height="310"
        fill="none" stroke="rgba(0,229,204,0.15)" stroke-width="0.75" rx="4"/>
  <g class="axis-labels"><text x="60.0" y="378" font-size="10" fill="rgba(255,255,255,0.5)" text-anchor="middle" font-family="'JetBrains Mono',monospace">0.1s</text>
<text x="161.66666666666669" y="378" font-size="10" fill="rgba(255,255,255,0.5)" text-anchor="middle" font-family="'JetBrains Mono',monospace">10.4s</text>
<text x="263.33333333333337" y="378" font-size="10" fill="rgba(255,255,255,0.5)" text-anchor="middle" font-family="'JetBrains Mono',monospace">20.7s</text>
<text x="365.0" y="378" font-size="10" fill="rgba(255,255,255,0.5)" text-anchor="middle" font-family="'JetBrains Mono',monospace">31.0s</text>
<text x="466.6666666666667" y="378" font-size="10" fill="rgba(255,255,255,0.5)" text-anchor="middle" font-family="'JetBrains Mono',monospace">41.3s</text>
<text x="568.3333333333333" y="378" font-size="10" fill="rgba(255,255,255,0.5)" text-anchor="middle" font-family="'JetBrains Mono',monospace">51.6s</text>
<text x="670.0" y="378" font-size="10" fill="rgba(255,255,255,0.5)" text-anchor="middle" font-family="'JetBrains Mono',monospace">61.9s</text>
<text x="52" y="54.0" font-size="10" fill="rgba(255,255,255,0.5)" text-anchor="end" font-family="'JetBrains Mono',monospace">0.649</text>
<text x="52" y="116.0" font-size="10" fill="rgba(255,255,255,0.5)" text-anchor="end" font-family="'JetBrains Mono',monospace">0.390</text>
<text x="52" y="178.0" font-size="10" fill="rgba(255,255,255,0.5)" text-anchor="end" font-family="'JetBrains Mono',monospace">0.130</text>
<text x="52" y="240.0" font-size="10" fill="rgba(255,255,255,0.5)" text-anchor="end" font-family="'JetBrains Mono',monospace">-0.130</text>
<text x="52" y="302.0" font-size="10" fill="rgba(255,255,255,0.5)" text-anchor="end" font-family="'JetBrains Mono',monospace">-0.390</text>
<text x="52" y="364.0" font-size="10" fill="rgba(255,255,255,0.5)" text-anchor="end" font-family="'JetBrains Mono',monospace">-0.649</text>
</g>

  <!-- Labels axes -->
  <text x="52" y="36" font-size="10" letter-spacing="1" font-weight="500"
        fill="rgba(0,229,204,0.75)" text-anchor="end"
        font-family="'JetBrains Mono',monospace">δF (rad)</text>
  <text x="670" y="395" font-size="10" letter-spacing="1" font-weight="500"
        fill="rgba(0,229,204,0.75)" text-anchor="end"
        font-family="'JetBrains Mono',monospace">Time (s)</text>

  <!-- Tracé animé -->
  <path d="M 60.0,94.16 L 61.97,80.0 L 63.95,80.0 L 65.92,120.43 L 67.9,182.0 L 69.87,232.61 L 71.84,266.58 L 73.82,285.48 L 75.79,295.13 L 77.77,300.61 L 79.74,303.54 L 81.72,302.19 L 83.69,293.72 L 85.66,276.86 L 87.64,253.19 L 89.61,226.57 L 91.59,201.18 L 93.56,179.7 L 95.53,162.53 L 97.51,148.46 L 99.48,136.0 L 101.46,124.55 L 103.43,115.11 L 105.4,110.08 L 107.38,112.36 L 109.35,123.77 L 111.33,143.79 L 113.3,169.32 L 115.28,195.98 L 117.25,220.01 L 119.22,239.73 L 121.2,255.55 L 123.17,268.98 L 125.15,281.2 L 127.12,292.03 L 129.09,299.65 L 131.07,301.19 L 133.04,294.04 L 135.02,277.49 L 136.99,253.56 L 138.96,226.4 L 140.94,200.42 L 142.91,178.43 L 144.89,160.87 L 146.86,146.49 L 148.83,133.7 L 150.81,121.92 L 152.78,112.24 L 154.76,107.25 L 156.73,110.0 L 158.71,122.35 L 160.68,143.59 L 162.65,170.22 L 164.63,197.74 L 166.6,223.41 L 168.58,245.89 L 170.55,264.9 L 172.52,281.17 L 174.5,297.06 L 176.47,309.87 L 178.45,319.36 L 180.42,322.82 L 182.39,319.55 L 184.37,304.53 L 186.34,280.39 L 188.32,253.63 L 190.29,224.64 L 192.27,199.43 L 194.24,179.37 L 196.21,163.04 L 198.19,147.86 L 200.16,134.1 L 202.14,118.09 L 204.11,104.49 L 206.08,101.07 L 208.06,108.34 L 210.03,132.4 L 212.01,164.37 L 213.98,201.98 L 215.95,232.89 L 217.93,256.29 L 219.9,272.91 L 221.88,287.69 L 223.85,299.55 L 225.83,311.81 L 227.8,322.55 L 229.77,328.58 L 231.75,327.68 L 233.72,321.71 L 235.7,304.26 L 237.67,279.92 L 239.64,253.39 L 241.62,232.75 L 243.59,211.63 L 245.57,193.99 L 247.54,178.14 L 249.51,161.53 L 251.49,142.36 L 253.46,125.71 L 255.44,107.58 L 257.41,104.43 L 259.39,118.49 L 261.36,144.88 L 263.33,187.49 L 265.31,225.32 L 267.28,260.76 L 269.26,281.8 L 271.23,295.56 L 273.2,306.02 L 275.18,316.37 L 277.15,327.75 L 279.13,330.0 L 281.1,330.0 L 283.07,330.0 L 285.05,330.0 L 287.02,321.66 L 289.0,284.03 L 290.97,235.1 L 292.94,189.95 L 294.92,156.2 L 296.89,133.83 L 298.87,117.06 L 300.84,99.26 L 302.82,80.0 L 304.79,80.0 L 306.76,80.0 L 308.74,80.0 L 310.71,80.0 L 312.69,80.0 L 314.66,98.73 L 316.63,155.33 L 318.61,209.86 L 320.58,250.26 L 322.56,273.67 L 324.53,286.83 L 326.5,299.95 L 328.48,321.19 L 330.45,330.0 L 332.43,330.0 L 334.4,330.0 L 336.38,330.0 L 338.35,330.0 L 340.32,330.0 L 342.3,330.0 L 344.27,330.0 L 346.25,277.01 L 348.22,211.96 L 350.19,163.08 L 352.17,137.03 L 354.14,127.25 L 356.12,119.78 L 358.09,100.61 L 360.06,80.0 L 362.04,80.0 L 364.01,80.0 L 365.99,80.0 L 367.96,80.0 L 369.94,80.0 L 371.91,80.0 L 373.88,80.0 L 375.86,80.0 L 377.83,80.0 L 379.81,80.0 L 381.78,111.86 L 383.75,184.77 L 385.73,234.97 L 387.7,256.13 L 389.68,253.03 L 391.65,240.54 L 393.62,233.37 L 395.6,240.69 L 397.57,266.64 L 399.55,316.33 L 401.52,330.0 L 403.5,330.0 L 405.47,330.0 L 407.44,330.0 L 409.42,330.0 L 411.39,330.0 L 413.37,330.0 L 415.34,330.0 L 417.31,330.0 L 419.29,330.0 L 421.26,330.0 L 423.24,330.0 L 425.21,330.0 L 427.18,330.0 L 429.16,330.0 L 431.13,237.15 L 433.11,181.66 L 435.08,158.42 L 437.06,165.31 L 439.03,187.78 L 441.0,208.57 L 442.98,217.41 L 444.95,212.96 L 446.93,205.09 L 448.9,197.91 L 450.87,196.24 L 452.85,197.26 L 454.82,199.56 L 456.8,200.61 L 458.77,199.13 L 460.74,196.81 L 462.72,192.71 L 464.69,188.63 L 466.67,182.92 L 468.64,173.54 L 470.61,156.73 L 472.59,115.87 L 474.56,80.0 L 476.54,80.0 L 478.51,80.0 L 480.49,80.0 L 482.46,80.0 L 484.43,80.0 L 486.41,80.0 L 488.38,80.0 L 490.36,80.0 L 492.33,80.0 L 494.3,80.0 L 496.28,80.0 L 498.25,80.0 L 500.23,80.0 L 502.2,80.0 L 504.17,80.0 L 506.15,80.0 L 508.12,80.0 L 510.1,141.68 L 512.07,209.63 L 514.05,247.78 L 516.02,250.73 L 517.99,231.22 L 519.97,206.62 L 521.94,191.69 L 523.92,190.54 L 525.89,198.02 L 527.86,206.26 L 529.84,210.26 L 531.81,207.28 L 533.79,205.42 L 535.76,204.23 L 537.73,203.97 L 539.71,204.37 L 541.68,204.93 L 543.66,205.26 L 545.63,205.28 L 547.61,205.11 L 549.58,203.26 L 551.55,202.8 L 553.53,204.32 L 555.5,205.57 L 557.48,205.93 L 559.45,205.59 L 561.42,205.04 L 563.4,204.69 L 565.37,204.64 L 567.35,202.42 L 569.32,203.83 L 571.29,205.39 L 573.27,206.07 L 575.24,205.88 L 577.22,205.31 L 579.19,204.85 L 581.17,202.45 L 583.14,203.11 L 585.11,204.95 L 587.09,206.17 L 589.06,206.38 L 591.04,205.91 L 593.01,204.05 L 594.98,202.8 L 596.96,204.44 L 598.93,206.19 L 600.91,207.1 L 602.88,207.14 L 604.85,204.23 L 606.83,205.39 L 608.8,207.42 L 610.78,209.41 L 612.75,208.47 L 614.72,212.1 L 616.7,219.98 L 618.67,238.23 L 620.65,330.0 L 622.62,330.0 L 624.6,330.0 L 626.57,80.0 L 628.54,80.0 L 630.52,80.0 L 632.49,80.0 L 634.47,80.0 L 636.44,80.0 L 638.41,330.0 L 640.39,330.0 L 642.36,330.0 L 644.34,330.0 L 646.31,330.0 L 648.28,330.0 L 650.26,330.0 L 652.23,330.0 L 654.21,330.0 L 656.18,330.0 L 658.16,330.0 L 660.13,330.0 L 662.1,279.96 L 664.08,196.08 L 666.05,154.31 L 668.03,147.71 L 670.0,174.26" fill="none" stroke="url(#steer-grad)"
        stroke-width="2.5" stroke-linecap="round" stroke-linejoin="round"
        stroke-dasharray="4719.45" stroke-dashoffset="4719.45">
    <animate attributeName="stroke-dashoffset"
             values="4719.45;4705.15;4703.17;4662.7;4601.09;4550.45;4516.42;4497.42;4487.57;4481.74;4478.21;4475.81;4467.12;4450.14;4426.39;4399.7;4374.23;4352.66;4335.38;4321.17;4308.55;4296.93;4287.29;4281.89;4278.87;4267.29;4247.17;4221.57;4194.83;4170.72;4150.9;4134.96;4121.39;4109.01;4098.0;4090.13;4087.62;4080.2;4063.54;4039.53;4012.29;3986.24;3964.16;3946.49;3931.98;3919.03;3907.09;3897.21;3891.84;3888.46;3875.95;3854.62;3827.92;3800.33;3774.58;3752.01;3732.9;3716.51;3700.5;3687.54;3677.85;3673.86;3670.05;3654.9;3630.68;3603.84;3574.79;3549.5;3529.34;3512.89;3497.59;3483.68;3467.55;3453.81;3449.86;3442.33;3418.19;3386.16;3348.5;3317.52;3294.04;3277.3;3262.39;3250.37;3237.95;3227.03;3220.69;3218.51;3212.23;3194.66;3170.24;3143.64;3122.91;3101.69;3083.94;3067.97;3051.25;3031.97;3015.21;2996.97;2993.25;2979.06;2952.59;2909.94;2872.05;2836.56;2815.43;2801.53;2790.88;2780.35;2768.8;2765.8;2763.83;2761.86;2759.88;2751.31;2713.63;2664.66;2619.46;2585.66;2563.2;2546.31;2528.4;2509.04;2507.07;2505.1;2503.12;2501.15;2499.17;2480.34;2423.71;2369.14;2328.69;2305.2;2291.89;2278.62;2257.29;2248.26;2246.28;2244.31;2242.33;2240.36;2238.39;2236.41;2234.44;2181.42;2116.34;2067.42;2041.29;2031.32;2023.59;2004.32;1983.61;1981.63;1979.66;1977.68;1975.71;1973.73;1971.76;1969.79;1967.81;1965.84;1963.86;1931.94;1859.01;1808.77;1787.52;1783.84;1771.19;1763.76;1756.17;1730.15;1680.42;1666.61;1664.63;1662.66;1660.69;1658.71;1656.74;1654.76;1652.79;1650.82;1648.84;1646.87;1644.89;1642.92;1640.95;1638.97;1546.1;1490.57;1467.25;1460.08;1437.52;1416.64;1407.58;1402.72;1394.6;1387.16;1384.57;1382.35;1379.32;1377.08;1374.61;1371.57;1367.01;1362.48;1356.44;1346.86;1329.93;1289.02;1253.1;1251.12;1249.15;1247.17;1245.2;1243.23;1241.25;1239.28;1237.3;1235.33;1233.36;1231.38;1229.41;1227.43;1225.46;1223.49;1221.51;1219.54;1157.83;1089.85;1051.65;1048.1;1028.49;1003.81;988.75;986.46;978.73;970.25;965.79;962.22;959.5;957.2;955.21;953.19;951.15;949.14;947.17;945.18;942.48;940.46;937.96;935.63;933.61;931.62;929.57;927.56;925.59;922.61;920.19;917.68;915.58;913.61;911.55;909.52;906.41;904.33;901.64;899.31;897.33;895.3;892.59;890.25;887.68;885.05;882.87;880.9;877.38;875.09;872.26;869.45;867.27;863.14;855.02;836.66;744.87;742.9;740.92;490.91;488.94;486.96;484.99;483.01;481.04;231.03;229.05;227.08;225.1;223.13;221.16;219.18;217.21;215.23;213.26;211.28;209.31;159.23;75.33;33.51;26.62;0.0" dur="8s"
             repeatCount="indefinite" calcMode="linear"/>
  </path>

  <!-- Robot -->
  <circle r="9" fill="none" stroke="#ffe566" stroke-width="1.5">
    <animate attributeName="cx" values="60.0;61.97;63.95;65.92;67.9;69.87;71.84;73.82;75.79;77.77;79.74;81.72;83.69;85.66;87.64;89.61;91.59;93.56;95.53;97.51;99.48;101.46;103.43;105.4;107.38;109.35;111.33;113.3;115.28;117.25;119.22;121.2;123.17;125.15;127.12;129.09;131.07;133.04;135.02;136.99;138.96;140.94;142.91;144.89;146.86;148.83;150.81;152.78;154.76;156.73;158.71;160.68;162.65;164.63;166.6;168.58;170.55;172.52;174.5;176.47;178.45;180.42;182.39;184.37;186.34;188.32;190.29;192.27;194.24;196.21;198.19;200.16;202.14;204.11;206.08;208.06;210.03;212.01;213.98;215.95;217.93;219.9;221.88;223.85;225.83;227.8;229.77;231.75;233.72;235.7;237.67;239.64;241.62;243.59;245.57;247.54;249.51;251.49;253.46;255.44;257.41;259.39;261.36;263.33;265.31;267.28;269.26;271.23;273.2;275.18;277.15;279.13;281.1;283.07;285.05;287.02;289.0;290.97;292.94;294.92;296.89;298.87;300.84;302.82;304.79;306.76;308.74;310.71;312.69;314.66;316.63;318.61;320.58;322.56;324.53;326.5;328.48;330.45;332.43;334.4;336.38;338.35;340.32;342.3;344.27;346.25;348.22;350.19;352.17;354.14;356.12;358.09;360.06;362.04;364.01;365.99;367.96;369.94;371.91;373.88;375.86;377.83;379.81;381.78;383.75;385.73;387.7;389.68;391.65;393.62;395.6;397.57;399.55;401.52;403.5;405.47;407.44;409.42;411.39;413.37;415.34;417.31;419.29;421.26;423.24;425.21;427.18;429.16;431.13;433.11;435.08;437.06;439.03;441.0;442.98;444.95;446.93;448.9;450.87;452.85;454.82;456.8;458.77;460.74;462.72;464.69;466.67;468.64;470.61;472.59;474.56;476.54;478.51;480.49;482.46;484.43;486.41;488.38;490.36;492.33;494.3;496.28;498.25;500.23;502.2;504.17;506.15;508.12;510.1;512.07;514.05;516.02;517.99;519.97;521.94;523.92;525.89;527.86;529.84;531.81;533.79;535.76;537.73;539.71;541.68;543.66;545.63;547.61;549.58;551.55;553.53;555.5;557.48;559.45;561.42;563.4;565.37;567.35;569.32;571.29;573.27;575.24;577.22;579.19;581.17;583.14;585.11;587.09;589.06;591.04;593.01;594.98;596.96;598.93;600.91;602.88;604.85;606.83;608.8;610.78;612.75;614.72;616.7;618.67;620.65;622.62;624.6;626.57;628.54;630.52;632.49;634.47;636.44;638.41;640.39;642.36;644.34;646.31;648.28;650.26;652.23;654.21;656.18;658.16;660.13;662.1;664.08;666.05;668.03;670.0" dur="8s" repeatCount="indefinite" calcMode="linear"/>
    <animate attributeName="cy" values="94.16;80.0;80.0;120.43;182.0;232.61;266.58;285.48;295.13;300.61;303.54;302.19;293.72;276.86;253.19;226.57;201.18;179.7;162.53;148.46;136.0;124.55;115.11;110.08;112.36;123.77;143.79;169.32;195.98;220.01;239.73;255.55;268.98;281.2;292.03;299.65;301.19;294.04;277.49;253.56;226.4;200.42;178.43;160.87;146.49;133.7;121.92;112.24;107.25;110.0;122.35;143.59;170.22;197.74;223.41;245.89;264.9;281.17;297.06;309.87;319.36;322.82;319.55;304.53;280.39;253.63;224.64;199.43;179.37;163.04;147.86;134.1;118.09;104.49;101.07;108.34;132.4;164.37;201.98;232.89;256.29;272.91;287.69;299.55;311.81;322.55;328.58;327.68;321.71;304.26;279.92;253.39;232.75;211.63;193.99;178.14;161.53;142.36;125.71;107.58;104.43;118.49;144.88;187.49;225.32;260.76;281.8;295.56;306.02;316.37;327.75;330.0;330.0;330.0;330.0;321.66;284.03;235.1;189.95;156.2;133.83;117.06;99.26;80.0;80.0;80.0;80.0;80.0;80.0;98.73;155.33;209.86;250.26;273.67;286.83;299.95;321.19;330.0;330.0;330.0;330.0;330.0;330.0;330.0;330.0;277.01;211.96;163.08;137.03;127.25;119.78;100.61;80.0;80.0;80.0;80.0;80.0;80.0;80.0;80.0;80.0;80.0;80.0;111.86;184.77;234.97;256.13;253.03;240.54;233.37;240.69;266.64;316.33;330.0;330.0;330.0;330.0;330.0;330.0;330.0;330.0;330.0;330.0;330.0;330.0;330.0;330.0;330.0;237.15;181.66;158.42;165.31;187.78;208.57;217.41;212.96;205.09;197.91;196.24;197.26;199.56;200.61;199.13;196.81;192.71;188.63;182.92;173.54;156.73;115.87;80.0;80.0;80.0;80.0;80.0;80.0;80.0;80.0;80.0;80.0;80.0;80.0;80.0;80.0;80.0;80.0;80.0;80.0;141.68;209.63;247.78;250.73;231.22;206.62;191.69;190.54;198.02;206.26;210.26;207.28;205.42;204.23;203.97;204.37;204.93;205.26;205.28;205.11;203.26;202.8;204.32;205.57;205.93;205.59;205.04;204.69;204.64;202.42;203.83;205.39;206.07;205.88;205.31;204.85;202.45;203.11;204.95;206.17;206.38;205.91;204.05;202.8;204.44;206.19;207.1;207.14;204.23;205.39;207.42;209.41;208.47;212.1;219.98;238.23;330.0;330.0;330.0;80.0;80.0;80.0;80.0;80.0;80.0;330.0;330.0;330.0;330.0;330.0;330.0;330.0;330.0;330.0;330.0;330.0;330.0;279.96;196.08;154.31;147.71;174.26" dur="8s" repeatCount="indefinite" calcMode="linear"/>
    <animate attributeName="r"       values="9;22;9"   dur="2s" repeatCount="indefinite"/>
    <animate attributeName="opacity" values="0.8;0;0.8" dur="2s" repeatCount="indefinite"/>
  </circle>
  <circle r="5.5" fill="#ffe566">
    <animate attributeName="cx" values="60.0;61.97;63.95;65.92;67.9;69.87;71.84;73.82;75.79;77.77;79.74;81.72;83.69;85.66;87.64;89.61;91.59;93.56;95.53;97.51;99.48;101.46;103.43;105.4;107.38;109.35;111.33;113.3;115.28;117.25;119.22;121.2;123.17;125.15;127.12;129.09;131.07;133.04;135.02;136.99;138.96;140.94;142.91;144.89;146.86;148.83;150.81;152.78;154.76;156.73;158.71;160.68;162.65;164.63;166.6;168.58;170.55;172.52;174.5;176.47;178.45;180.42;182.39;184.37;186.34;188.32;190.29;192.27;194.24;196.21;198.19;200.16;202.14;204.11;206.08;208.06;210.03;212.01;213.98;215.95;217.93;219.9;221.88;223.85;225.83;227.8;229.77;231.75;233.72;235.7;237.67;239.64;241.62;243.59;245.57;247.54;249.51;251.49;253.46;255.44;257.41;259.39;261.36;263.33;265.31;267.28;269.26;271.23;273.2;275.18;277.15;279.13;281.1;283.07;285.05;287.02;289.0;290.97;292.94;294.92;296.89;298.87;300.84;302.82;304.79;306.76;308.74;310.71;312.69;314.66;316.63;318.61;320.58;322.56;324.53;326.5;328.48;330.45;332.43;334.4;336.38;338.35;340.32;342.3;344.27;346.25;348.22;350.19;352.17;354.14;356.12;358.09;360.06;362.04;364.01;365.99;367.96;369.94;371.91;373.88;375.86;377.83;379.81;381.78;383.75;385.73;387.7;389.68;391.65;393.62;395.6;397.57;399.55;401.52;403.5;405.47;407.44;409.42;411.39;413.37;415.34;417.31;419.29;421.26;423.24;425.21;427.18;429.16;431.13;433.11;435.08;437.06;439.03;441.0;442.98;444.95;446.93;448.9;450.87;452.85;454.82;456.8;458.77;460.74;462.72;464.69;466.67;468.64;470.61;472.59;474.56;476.54;478.51;480.49;482.46;484.43;486.41;488.38;490.36;492.33;494.3;496.28;498.25;500.23;502.2;504.17;506.15;508.12;510.1;512.07;514.05;516.02;517.99;519.97;521.94;523.92;525.89;527.86;529.84;531.81;533.79;535.76;537.73;539.71;541.68;543.66;545.63;547.61;549.58;551.55;553.53;555.5;557.48;559.45;561.42;563.4;565.37;567.35;569.32;571.29;573.27;575.24;577.22;579.19;581.17;583.14;585.11;587.09;589.06;591.04;593.01;594.98;596.96;598.93;600.91;602.88;604.85;606.83;608.8;610.78;612.75;614.72;616.7;618.67;620.65;622.62;624.6;626.57;628.54;630.52;632.49;634.47;636.44;638.41;640.39;642.36;644.34;646.31;648.28;650.26;652.23;654.21;656.18;658.16;660.13;662.1;664.08;666.05;668.03;670.0" dur="8s" repeatCount="indefinite" calcMode="linear"/>
    <animate attributeName="cy" values="94.16;80.0;80.0;120.43;182.0;232.61;266.58;285.48;295.13;300.61;303.54;302.19;293.72;276.86;253.19;226.57;201.18;179.7;162.53;148.46;136.0;124.55;115.11;110.08;112.36;123.77;143.79;169.32;195.98;220.01;239.73;255.55;268.98;281.2;292.03;299.65;301.19;294.04;277.49;253.56;226.4;200.42;178.43;160.87;146.49;133.7;121.92;112.24;107.25;110.0;122.35;143.59;170.22;197.74;223.41;245.89;264.9;281.17;297.06;309.87;319.36;322.82;319.55;304.53;280.39;253.63;224.64;199.43;179.37;163.04;147.86;134.1;118.09;104.49;101.07;108.34;132.4;164.37;201.98;232.89;256.29;272.91;287.69;299.55;311.81;322.55;328.58;327.68;321.71;304.26;279.92;253.39;232.75;211.63;193.99;178.14;161.53;142.36;125.71;107.58;104.43;118.49;144.88;187.49;225.32;260.76;281.8;295.56;306.02;316.37;327.75;330.0;330.0;330.0;330.0;321.66;284.03;235.1;189.95;156.2;133.83;117.06;99.26;80.0;80.0;80.0;80.0;80.0;80.0;98.73;155.33;209.86;250.26;273.67;286.83;299.95;321.19;330.0;330.0;330.0;330.0;330.0;330.0;330.0;330.0;277.01;211.96;163.08;137.03;127.25;119.78;100.61;80.0;80.0;80.0;80.0;80.0;80.0;80.0;80.0;80.0;80.0;80.0;111.86;184.77;234.97;256.13;253.03;240.54;233.37;240.69;266.64;316.33;330.0;330.0;330.0;330.0;330.0;330.0;330.0;330.0;330.0;330.0;330.0;330.0;330.0;330.0;330.0;237.15;181.66;158.42;165.31;187.78;208.57;217.41;212.96;205.09;197.91;196.24;197.26;199.56;200.61;199.13;196.81;192.71;188.63;182.92;173.54;156.73;115.87;80.0;80.0;80.0;80.0;80.0;80.0;80.0;80.0;80.0;80.0;80.0;80.0;80.0;80.0;80.0;80.0;80.0;80.0;141.68;209.63;247.78;250.73;231.22;206.62;191.69;190.54;198.02;206.26;210.26;207.28;205.42;204.23;203.97;204.37;204.93;205.26;205.28;205.11;203.26;202.8;204.32;205.57;205.93;205.59;205.04;204.69;204.64;202.42;203.83;205.39;206.07;205.88;205.31;204.85;202.45;203.11;204.95;206.17;206.38;205.91;204.05;202.8;204.44;206.19;207.1;207.14;204.23;205.39;207.42;209.41;208.47;212.1;219.98;238.23;330.0;330.0;330.0;80.0;80.0;80.0;80.0;80.0;80.0;330.0;330.0;330.0;330.0;330.0;330.0;330.0;330.0;330.0;330.0;330.0;330.0;279.96;196.08;154.31;147.71;174.26" dur="8s" repeatCount="indefinite" calcMode="linear"/>
  </circle>
  <circle r="2" fill="white">
    <animate attributeName="cx" values="60.0;61.97;63.95;65.92;67.9;69.87;71.84;73.82;75.79;77.77;79.74;81.72;83.69;85.66;87.64;89.61;91.59;93.56;95.53;97.51;99.48;101.46;103.43;105.4;107.38;109.35;111.33;113.3;115.28;117.25;119.22;121.2;123.17;125.15;127.12;129.09;131.07;133.04;135.02;136.99;138.96;140.94;142.91;144.89;146.86;148.83;150.81;152.78;154.76;156.73;158.71;160.68;162.65;164.63;166.6;168.58;170.55;172.52;174.5;176.47;178.45;180.42;182.39;184.37;186.34;188.32;190.29;192.27;194.24;196.21;198.19;200.16;202.14;204.11;206.08;208.06;210.03;212.01;213.98;215.95;217.93;219.9;221.88;223.85;225.83;227.8;229.77;231.75;233.72;235.7;237.67;239.64;241.62;243.59;245.57;247.54;249.51;251.49;253.46;255.44;257.41;259.39;261.36;263.33;265.31;267.28;269.26;271.23;273.2;275.18;277.15;279.13;281.1;283.07;285.05;287.02;289.0;290.97;292.94;294.92;296.89;298.87;300.84;302.82;304.79;306.76;308.74;310.71;312.69;314.66;316.63;318.61;320.58;322.56;324.53;326.5;328.48;330.45;332.43;334.4;336.38;338.35;340.32;342.3;344.27;346.25;348.22;350.19;352.17;354.14;356.12;358.09;360.06;362.04;364.01;365.99;367.96;369.94;371.91;373.88;375.86;377.83;379.81;381.78;383.75;385.73;387.7;389.68;391.65;393.62;395.6;397.57;399.55;401.52;403.5;405.47;407.44;409.42;411.39;413.37;415.34;417.31;419.29;421.26;423.24;425.21;427.18;429.16;431.13;433.11;435.08;437.06;439.03;441.0;442.98;444.95;446.93;448.9;450.87;452.85;454.82;456.8;458.77;460.74;462.72;464.69;466.67;468.64;470.61;472.59;474.56;476.54;478.51;480.49;482.46;484.43;486.41;488.38;490.36;492.33;494.3;496.28;498.25;500.23;502.2;504.17;506.15;508.12;510.1;512.07;514.05;516.02;517.99;519.97;521.94;523.92;525.89;527.86;529.84;531.81;533.79;535.76;537.73;539.71;541.68;543.66;545.63;547.61;549.58;551.55;553.53;555.5;557.48;559.45;561.42;563.4;565.37;567.35;569.32;571.29;573.27;575.24;577.22;579.19;581.17;583.14;585.11;587.09;589.06;591.04;593.01;594.98;596.96;598.93;600.91;602.88;604.85;606.83;608.8;610.78;612.75;614.72;616.7;618.67;620.65;622.62;624.6;626.57;628.54;630.52;632.49;634.47;636.44;638.41;640.39;642.36;644.34;646.31;648.28;650.26;652.23;654.21;656.18;658.16;660.13;662.1;664.08;666.05;668.03;670.0" dur="8s" repeatCount="indefinite" calcMode="linear"/>
    <animate attributeName="cy" values="94.16;80.0;80.0;120.43;182.0;232.61;266.58;285.48;295.13;300.61;303.54;302.19;293.72;276.86;253.19;226.57;201.18;179.7;162.53;148.46;136.0;124.55;115.11;110.08;112.36;123.77;143.79;169.32;195.98;220.01;239.73;255.55;268.98;281.2;292.03;299.65;301.19;294.04;277.49;253.56;226.4;200.42;178.43;160.87;146.49;133.7;121.92;112.24;107.25;110.0;122.35;143.59;170.22;197.74;223.41;245.89;264.9;281.17;297.06;309.87;319.36;322.82;319.55;304.53;280.39;253.63;224.64;199.43;179.37;163.04;147.86;134.1;118.09;104.49;101.07;108.34;132.4;164.37;201.98;232.89;256.29;272.91;287.69;299.55;311.81;322.55;328.58;327.68;321.71;304.26;279.92;253.39;232.75;211.63;193.99;178.14;161.53;142.36;125.71;107.58;104.43;118.49;144.88;187.49;225.32;260.76;281.8;295.56;306.02;316.37;327.75;330.0;330.0;330.0;330.0;321.66;284.03;235.1;189.95;156.2;133.83;117.06;99.26;80.0;80.0;80.0;80.0;80.0;80.0;98.73;155.33;209.86;250.26;273.67;286.83;299.95;321.19;330.0;330.0;330.0;330.0;330.0;330.0;330.0;330.0;277.01;211.96;163.08;137.03;127.25;119.78;100.61;80.0;80.0;80.0;80.0;80.0;80.0;80.0;80.0;80.0;80.0;80.0;111.86;184.77;234.97;256.13;253.03;240.54;233.37;240.69;266.64;316.33;330.0;330.0;330.0;330.0;330.0;330.0;330.0;330.0;330.0;330.0;330.0;330.0;330.0;330.0;330.0;237.15;181.66;158.42;165.31;187.78;208.57;217.41;212.96;205.09;197.91;196.24;197.26;199.56;200.61;199.13;196.81;192.71;188.63;182.92;173.54;156.73;115.87;80.0;80.0;80.0;80.0;80.0;80.0;80.0;80.0;80.0;80.0;80.0;80.0;80.0;80.0;80.0;80.0;80.0;80.0;141.68;209.63;247.78;250.73;231.22;206.62;191.69;190.54;198.02;206.26;210.26;207.28;205.42;204.23;203.97;204.37;204.93;205.26;205.28;205.11;203.26;202.8;204.32;205.57;205.93;205.59;205.04;204.69;204.64;202.42;203.83;205.39;206.07;205.88;205.31;204.85;202.45;203.11;204.95;206.17;206.38;205.91;204.05;202.8;204.44;206.19;207.1;207.14;204.23;205.39;207.42;209.41;208.47;212.1;219.98;238.23;330.0;330.0;330.0;80.0;80.0;80.0;80.0;80.0;80.0;330.0;330.0;330.0;330.0;330.0;330.0;330.0;330.0;330.0;330.0;330.0;330.0;279.96;196.08;154.31;147.71;174.26" dur="8s" repeatCount="indefinite" calcMode="linear"/>
  </circle>

  <!-- Légende -->
  <g transform="translate(240.0,36)">
    <rect x="0" y="-11" width="220" height="22" rx="11"
          fill="rgba(20,15,35,0.85)" stroke="rgba(0,229,204,0.35)" stroke-width="0.75"/>
    <line x1="16" y1="0" x2="38" y2="0" stroke="url(#steer-grad)" stroke-width="2.5" stroke-linecap="round"/>
    <text x="48" y="4" font-size="10" letter-spacing="1.5" font-weight="500"
          fill="rgba(255,180,230,0.85)"
          font-family="'JetBrains Mono',monospace">FRONT STEERING ANGLE</text>
  </g>

</svg>