<svg xmlns="http://www.w3.org/2000/svg" viewBox="0 0 700 600" width="100%" class="trajectory-svg">
      <defs>
        <linearGradient id="trail-grad-t" x1="63.5" y1="0" x2="509.0" y2="0" gradientUnits="userSpaceOnUse">
          <stop offset="0%" stop-color="#aa00ff"/><stop offset="100%" stop-color="#ff00cc"/>
        </linearGradient>
      </defs>

      <rect width="700" height="600" fill="#0d0a1a"/>
      <g class="grid"><line x1="60" y1="60" x2="60" y2="540" stroke="rgba(0,229,204,1)" stroke-width="0.5" opacity="0.06"/>
<line x1="156" y1="60" x2="156" y2="540" stroke="rgba(0,229,204,1)" stroke-width="0.5" opacity="0.06"/>
<line x1="253" y1="60" x2="253" y2="540" stroke="rgba(0,229,204,1)" stroke-width="0.5" opacity="0.06"/>
<line x1="350" y1="60" x2="350" y2="540" stroke="rgba(0,229,204,1)" stroke-width="0.5" opacity="0.06"/>
<line x1="446" y1="60" x2="446" y2="540" stroke="rgba(0,229,204,1)" stroke-width="0.5" opacity="0.06"/>
<line x1="543" y1="60" x2="543" y2="540" stroke="rgba(0,229,204,1)" stroke-width="0.5" opacity="0.06"/>
<line x1="640" y1="60" x2="640" y2="540" stroke="rgba(0,229,204,1)" stroke-width="0.5" opacity="0.06"/>
<line x1="60" y1="60" x2="640" y2="60" stroke="rgba(0,229,204,1)" stroke-width="0.5" opacity="0.18"/>
<line x1="60" y1="140" x2="640" y2="140" stroke="rgba(0,229,204,1)" stroke-width="0.5" opacity="0.18"/>
<line x1="60" y1="220" x2="640" y2="220" stroke="rgba(0,229,204,1)" stroke-width="0.5" opacity="0.18"/>
<line x1="60" y1="300" x2="640" y2="300" stroke="rgba(0,229,204,1)" stroke-width="0.5" opacity="0.18"/>
<line x1="60" y1="380" x2="640" y2="380" stroke="rgba(0,229,204,1)" stroke-width="0.5" opacity="0.18"/>
<line x1="60" y1="460" x2="640" y2="460" stroke="rgba(0,229,204,1)" stroke-width="0.5" opacity="0.18"/>
<line x1="60" y1="540" x2="640" y2="540" stroke="rgba(0,229,204,1)" stroke-width="0.5" opacity="0.18"/>
</g>
      <rect x="60" y="60" width="580" height="480" fill="none" stroke="rgba(0,229,204,0.15)" stroke-width="0.75" rx="4"/>

      <path d="M 60.0,95.9 L 60.82,95.9 L 61.64,95.9 L 62.45,95.9 L 63.27,95.9 L 64.09,95.9 L 64.91,95.9 L 65.72,95.9 L 66.54,95.9 L 67.36,95.9 L 68.18,95.9 L 68.99,95.9 L 69.81,95.9 L 70.63,95.9 L 71.45,95.9 L 72.26,95.9 L 73.08,95.9 L 73.9,95.9 L 74.72,95.9 L 75.53,95.9 L 76.35,95.9 L 77.17,95.9 L 77.99,95.9 L 78.8,95.9 L 79.62,95.9 L 80.44,95.9 L 81.26,95.9 L 82.08,95.9 L 82.89,95.9 L 83.71,95.9 L 84.53,95.9 L 85.35,95.9 L 86.16,95.9 L 86.98,95.9 L 87.8,95.9 L 88.62,95.9 L 89.43,95.9 L 90.25,95.9 L 91.07,95.9 L 91.89,95.9 L 92.7,95.9 L 93.52,95.9 L 94.34,95.9 L 95.16,95.9 L 95.97,95.9 L 96.79,95.9 L 97.61,95.9 L 98.43,95.9 L 99.25,95.9 L 100.06,95.9 L 100.88,95.9 L 101.7,95.9 L 102.52,95.9 L 103.33,95.9 L 104.15,95.9 L 104.97,95.9 L 105.79,95.9 L 106.6,95.9 L 107.42,95.9 L 108.24,95.9 L 109.06,95.9 L 109.87,95.9 L 110.69,95.9 L 111.51,95.9 L 112.33,95.9 L 113.14,95.9 L 113.96,95.9 L 114.78,95.9 L 115.6,95.9 L 116.41,95.9 L 117.23,95.9 L 118.05,95.9 L 118.87,95.9 L 119.69,95.9 L 120.5,95.9 L 121.32,95.9 L 122.14,95.9 L 122.96,95.9 L 123.77,95.9 L 124.59,95.9 L 125.41,95.9 L 126.23,95.9 L 127.04,95.9 L 127.86,95.9 L 128.68,95.9 L 129.5,95.9 L 130.31,95.9 L 131.13,95.9 L 131.95,95.9 L 132.77,95.9 L 133.58,95.9 L 134.4,95.9 L 135.22,95.9 L 136.04,95.9 L 136.85,95.9 L 137.67,95.9 L 138.49,95.9 L 139.31,95.9 L 140.13,95.9 L 140.94,95.9 L 141.76,95.9 L 142.58,95.9 L 143.4,95.9 L 144.21,95.9 L 145.03,95.9 L 145.85,95.9 L 146.67,95.9 L 147.48,95.9 L 148.3,95.9 L 149.12,95.9 L 149.94,95.9 L 150.75,95.9 L 151.57,95.9 L 152.39,95.9 L 153.21,95.9 L 154.02,95.9 L 154.84,95.9 L 155.66,95.9 L 156.48,95.9 L 157.3,95.9 L 158.11,95.9 L 158.93,95.9 L 159.75,95.9 L 160.57,95.9 L 161.38,95.9 L 162.2,95.9 L 163.02,95.9 L 163.84,95.9 L 164.65,95.9 L 165.47,95.9 L 166.29,95.9 L 167.11,95.9 L 167.92,95.9 L 168.74,95.9 L 169.56,95.9 L 170.38,95.9 L 171.19,95.9 L 172.01,95.9 L 172.83,95.9 L 173.65,95.9 L 174.46,95.9 L 175.28,95.9 L 176.1,95.9 L 176.92,95.9 L 177.74,95.9 L 178.55,95.9 L 179.37,95.9 L 180.19,95.9 L 181.01,95.9 L 181.82,95.9 L 182.64,95.9 L 183.46,95.9 L 184.28,95.9 L 185.09,95.9 L 185.91,95.9 L 186.73,95.9 L 187.55,95.9 L 188.36,95.9 L 189.18,95.9 L 190.0,95.9 L 190.82,95.9 L 191.63,95.9 L 192.45,95.9 L 193.27,95.9 L 194.09,95.9 L 194.9,95.9 L 195.72,95.9 L 196.54,95.9 L 197.36,95.9 L 198.18,95.9 L 198.99,95.9 L 199.81,95.9 L 200.63,95.9 L 201.45,95.9 L 202.26,95.9 L 203.08,95.9 L 203.9,95.9 L 204.72,95.9 L 205.53,95.9 L 206.35,95.9 L 207.17,95.9 L 207.99,95.9 L 208.8,95.9 L 209.62,95.9 L 210.44,95.9 L 211.26,95.9 L 212.07,95.9 L 212.89,95.9 L 213.71,95.9 L 214.53,95.9 L 215.35,95.9 L 216.16,95.9 L 216.98,95.91 L 217.8,95.91 L 218.62,95.92 L 219.43,95.93 L 220.25,95.94 L 221.07,95.96 L 221.89,95.98 L 222.7,96.01 L 223.52,96.04 L 224.34,96.08 L 225.15,96.12 L 225.97,96.17 L 226.78,96.22 L 227.6,96.27 L 228.42,96.33 L 229.23,96.39 L 230.05,96.46 L 230.86,96.53 L 231.67,96.61 L 232.49,96.69 L 233.3,96.77 L 234.11,96.86 L 234.93,96.96 L 235.74,97.05 L 236.55,97.15 L 237.36,97.26 L 238.17,97.37 L 238.98,97.49 L 239.79,97.6 L 240.6,97.73 L 241.4,97.86 L 242.21,97.99 L 243.02,98.12 L 243.82,98.26 L 244.63,98.41 L 245.43,98.56 L 246.24,98.71 L 247.04,98.87 L 247.84,99.03 L 248.64,99.19 L 249.44,99.36 L 250.24,99.54 L 251.04,99.72 L 251.83,99.9 L 252.63,100.09 L 253.42,100.28 L 254.22,100.47 L 255.01,100.67 L 255.8,100.88 L 256.59,101.09 L 257.38,101.3 L 258.17,101.51 L 258.96,101.73 L 259.74,101.96 L 260.53,102.19 L 261.31,102.42 L 262.1,102.66 L 262.88,102.9 L 263.66,103.15 L 264.44,103.4 L 265.21,103.65 L 265.99,103.91 L 266.76,104.17 L 267.54,104.44 L 268.31,104.71 L 269.08,104.98 L 269.85,105.26 L 270.61,105.54 L 271.38,105.83 L 272.14,106.12 L 272.91,106.41 L 273.67,106.71 L 274.43,107.01 L 275.18,107.32 L 275.94,107.63 L 276.7,107.95 L 277.45,108.26 L 278.2,108.59 L 278.95,108.91 L 279.7,109.24 L 280.44,109.58 L 281.19,109.92 L 281.93,110.26 L 282.67,110.61 L 283.41,110.96 L 284.15,111.31 L 284.88,111.67 L 285.61,112.03 L 286.35,112.4 L 287.07,112.77 L 287.8,113.14 L 288.53,113.52 L 289.25,113.9 L 289.97,114.29 L 290.69,114.67 L 291.41,115.07 L 292.12,115.46 L 292.84,115.86 L 293.55,116.27 L 294.25,116.68 L 294.96,117.09 L 295.66,117.5 L 296.37,117.92 L 297.07,118.35 L 297.76,118.77 L 298.46,119.21 L 299.15,119.65 L 299.83,120.09 L 300.51,120.55 L 301.19,121.01 L 301.86,121.48 L 302.52,121.95 L 303.18,122.44 L 303.84,122.93 L 304.48,123.42 L 305.13,123.93 L 305.77,124.44 L 306.4,124.95 L 307.03,125.48 L 307.65,126.01 L 308.27,126.55 L 308.88,127.09 L 309.48,127.64 L 310.08,128.2 L 310.67,128.76 L 311.26,129.33 L 311.84,129.91 L 312.41,130.49 L 312.98,131.08 L 313.54,131.67 L 314.1,132.27 L 314.65,132.88 L 315.19,133.49 L 315.72,134.11 L 316.25,134.73 L 316.78,135.36 L 317.29,135.99 L 317.8,136.63 L 318.3,137.28 L 318.8,137.93 L 319.29,138.59 L 319.77,139.25 L 320.24,139.91 L 320.71,140.58 L 321.17,141.26 L 321.62,141.94 L 322.07,142.63 L 322.5,143.32 L 322.93,144.01 L 323.36,144.71 L 323.77,145.42 L 324.18,146.13 L 324.58,146.84 L 324.97,147.56 L 325.36,148.28 L 325.73,149.0 L 326.1,149.73 L 326.47,150.46 L 326.82,151.2 L 327.16,151.94 L 327.5,152.69 L 327.83,153.44 L 328.15,154.19 L 328.47,154.94 L 328.77,155.7 L 329.07,156.46 L 329.36,157.23 L 329.64,157.99 L 329.92,158.76 L 330.18,159.54 L 330.44,160.31 L 330.69,161.09 L 330.93,161.88 L 331.16,162.66 L 331.38,163.45 L 331.59,164.23 L 331.8,165.03 L 332.0,165.82 L 332.19,166.61 L 332.37,167.41 L 332.54,168.21 L 332.7,169.01 L 332.86,169.82 L 333.01,170.62 L 333.14,171.43 L 333.27,172.23 L 333.39,173.04 L 333.51,173.85 L 333.61,174.66 L 333.7,175.47 L 333.79,176.29 L 333.87,177.1 L 333.94,177.92 L 334.0,178.73 L 334.05,179.55 L 334.1,180.36 L 334.15,181.18 L 334.2,182.0 L 334.24,182.81 L 334.29,183.63 L 334.34,184.44 L 334.38,185.26 L 334.43,186.08 L 334.48,186.89 L 334.52,187.71 L 334.57,188.53 L 334.62,189.34 L 334.67,190.16 L 334.71,190.97 L 334.76,191.79 L 334.81,192.61 L 334.85,193.42 L 334.9,194.24 L 334.95,195.06 L 335.0,195.87 L 335.04,196.69 L 335.09,197.5 L 335.14,198.32 L 335.19,199.14 L 335.23,199.95 L 335.28,200.77 L 335.33,201.59 L 335.37,202.4 L 335.42,203.22 L 335.47,204.03 L 335.52,204.85 L 335.56,205.67 L 335.61,206.48 L 335.66,207.3 L 335.7,208.12 L 335.75,208.93 L 335.8,209.75 L 335.85,210.56 L 335.89,211.38 L 335.94,212.2 L 335.99,213.01 L 336.03,213.83 L 336.08,214.65 L 336.13,215.46 L 336.18,216.28 L 336.22,217.09 L 336.27,217.91 L 336.32,218.73 L 336.37,219.54 L 336.41,220.36 L 336.46,221.18 L 336.51,221.99 L 336.55,222.81 L 336.6,223.62 L 336.65,224.44 L 336.7,225.26 L 336.74,226.07 L 336.79,226.89 L 336.84,227.71 L 336.88,228.52 L 336.93,229.34 L 336.98,230.15 L 337.03,230.97 L 337.07,231.79 L 337.12,232.6 L 337.17,233.42 L 337.22,234.24 L 337.26,235.05 L 337.31,235.87 L 337.36,236.68 L 337.4,237.5 L 337.45,238.32 L 337.5,239.13 L 337.55,239.95 L 337.59,240.77 L 337.64,241.58 L 337.69,242.4 L 337.73,243.21 L 337.78,244.03 L 337.83,244.85 L 337.88,245.66 L 337.92,246.48 L 337.97,247.3 L 338.02,248.11 L 338.06,248.93 L 338.11,249.74 L 338.16,250.56 L 338.21,251.38 L 338.25,252.19 L 338.3,253.01 L 338.35,253.83 L 338.4,254.64 L 338.44,255.46 L 338.49,256.27 L 338.54,257.09 L 338.58,257.91 L 338.63,258.72 L 338.68,259.54 L 338.73,260.36 L 338.77,261.17 L 338.82,261.99 L 338.87,262.8 L 338.91,263.62 L 338.96,264.44 L 339.01,265.25 L 339.06,266.07 L 339.1,266.88 L 339.15,267.7 L 339.2,268.52 L 339.25,269.33 L 339.29,270.15 L 339.34,270.97 L 339.39,271.78 L 339.43,272.6 L 339.48,273.41 L 339.53,274.23 L 339.58,275.05 L 339.62,275.86 L 339.67,276.68 L 339.72,277.5 L 339.76,278.31 L 339.81,279.13 L 339.86,279.94 L 339.91,280.76 L 339.95,281.58 L 340.0,282.39 L 340.05,283.21 L 340.09,284.03 L 340.14,284.84 L 340.19,285.66 L 340.24,286.47 L 340.28,287.29 L 340.33,288.11 L 340.38,288.92 L 340.43,289.74 L 340.47,290.56 L 340.52,291.37 L 340.57,292.19 L 340.61,293.0 L 340.66,293.82 L 340.71,294.64 L 340.76,295.45 L 340.8,296.27 L 340.85,297.09 L 340.9,297.9 L 340.94,298.72 L 340.99,299.53 L 341.04,300.35 L 341.09,301.17 L 341.13,301.98 L 341.18,302.8 L 341.23,303.62 L 341.28,304.43 L 341.32,305.25 L 341.37,306.06 L 341.42,306.88 L 341.46,307.7 L 341.51,308.51 L 341.56,309.33 L 341.61,310.15 L 341.65,310.96 L 341.7,311.78 L 341.75,312.59 L 341.79,313.41 L 341.84,314.23 L 341.89,315.04 L 341.94,315.86 L 341.98,316.68 L 342.03,317.49 L 342.08,318.31 L 342.12,319.12 L 342.17,319.94 L 342.22,320.76 L 342.27,321.57 L 342.31,322.39 L 342.36,323.21 L 342.41,324.02 L 342.46,324.84 L 342.5,325.65 L 342.55,326.47 L 342.6,327.29 L 342.64,328.1 L 342.69,328.92 L 342.74,329.74 L 342.79,330.55 L 342.83,331.37 L 342.88,332.18 L 342.93,333.0 L 342.97,333.82 L 343.02,334.63 L 343.07,335.45 L 343.12,336.27 L 343.16,337.08 L 343.21,337.9 L 343.26,338.71 L 343.31,339.53 L 343.35,340.35 L 343.4,341.16 L 343.46,341.98 L 343.51,342.79 L 343.56,343.61 L 343.62,344.43 L 343.68,345.24 L 343.74,346.06 L 343.8,346.87 L 343.86,347.69 L 343.93,348.5 L 344.0,349.32 L 344.07,350.13 L 344.14,350.95 L 344.21,351.76 L 344.28,352.57 L 344.36,353.39 L 344.44,354.2 L 344.52,355.02 L 344.6,355.83 L 344.68,356.64 L 344.76,357.46 L 344.85,358.27 L 344.94,359.08 L 345.03,359.9 L 345.12,360.71 L 345.21,361.52 L 345.31,362.33 L 345.4,363.14 L 345.5,363.96 L 345.6,364.77 L 345.7,365.58 L 345.8,366.39 L 345.91,367.2 L 346.02,368.01 L 346.12,368.82 L 346.23,369.63 L 346.35,370.44 L 346.46,371.25 L 346.57,372.06 L 346.69,372.87 L 346.81,373.68 L 346.93,374.49 L 347.05,375.3 L 347.18,376.1 L 347.3,376.91 L 347.43,377.72 L 347.56,378.53 L 347.69,379.33 L 347.82,380.14 L 347.96,380.95 L 348.09,381.75 L 348.23,382.56 L 348.37,383.37 L 348.51,384.17 L 348.65,384.98 L 348.8,385.78 L 348.94,386.59 L 349.09,387.39 L 349.24,388.19 L 349.4,389.0 L 349.55,389.8 L 349.71,390.6 L 349.88,391.4 L 350.04,392.2 L 350.21,393.0 L 350.39,393.8 L 350.57,394.6 L 350.75,395.4 L 350.93,396.19 L 351.12,396.99 L 351.31,397.78 L 351.5,398.58 L 351.7,399.37 L 351.9,400.16 L 352.11,400.95 L 352.31,401.75 L 352.53,402.54 L 352.74,403.32 L 352.96,404.11 L 353.18,404.9 L 353.4,405.69 L 353.63,406.47 L 353.86,407.26 L 354.1,408.04 L 354.33,408.82 L 354.57,409.6 L 354.82,410.38 L 355.07,411.16 L 355.32,411.94 L 355.57,412.72 L 355.83,413.49 L 356.09,414.27 L 356.35,415.04 L 356.62,415.81 L 356.89,416.59 L 357.17,417.36 L 357.44,418.12 L 357.72,418.89 L 358.01,419.66 L 358.3,420.43 L 358.59,421.19 L 358.88,421.95 L 359.18,422.71 L 359.48,423.48 L 359.78,424.23 L 360.08,424.99 L 360.39,425.75 L 360.71,426.5 L 361.02,427.26 L 361.34,428.01 L 361.66,428.76 L 361.99,429.51 L 362.32,430.26 L 362.65,431.01 L 362.99,431.75 L 363.32,432.5 L 363.67,433.24 L 364.01,433.98 L 364.36,434.72 L 364.71,435.46 L 365.06,436.2 L 365.42,436.93 L 365.78,437.67 L 366.14,438.4 L 366.51,439.13 L 366.88,439.86 L 367.25,440.59 L 367.63,441.32 L 368.0,442.04 L 368.39,442.76 L 368.77,443.48 L 369.16,444.2 L 369.55,444.92 L 369.95,445.64 L 370.35,446.35 L 370.76,447.06 L 371.17,447.76 L 371.59,448.46 L 372.02,449.16 L 372.44,449.86 L 372.88,450.55 L 373.32,451.24 L 373.76,451.93 L 374.21,452.61 L 374.67,453.29 L 375.13,453.97 L 375.59,454.64 L 376.06,455.31 L 376.53,455.97 L 377.01,456.64 L 377.5,457.3 L 377.99,457.95 L 378.48,458.6 L 378.98,459.25 L 379.48,459.89 L 379.99,460.53 L 380.51,461.17 L 381.02,461.8 L 381.55,462.43 L 382.07,463.06 L 382.61,463.68 L 383.14,464.29 L 383.68,464.91 L 384.23,465.52 L 384.78,466.12 L 385.34,466.72 L 385.89,467.32 L 386.46,467.91 L 387.03,468.5 L 387.6,469.08 L 388.18,469.66 L 388.76,470.24 L 389.34,470.81 L 389.93,471.37 L 390.52,471.94 L 391.12,472.49 L 391.72,473.05 L 392.33,473.6 L 392.94,474.14 L 393.56,474.68 L 394.17,475.21 L 394.8,475.75 L 395.42,476.27 L 396.05,476.79 L 396.69,477.31 L 397.32,477.82 L 397.96,478.33 L 398.61,478.83 L 399.26,479.33 L 399.91,479.82 L 400.57,480.31 L 401.23,480.79 L 401.89,481.27 L 402.56,481.74 L 403.23,482.21 L 403.9,482.67 L 404.58,483.13 L 405.26,483.58 L 405.94,484.03 L 406.63,484.47 L 407.32,484.91 L 408.02,485.34 L 408.71,485.77 L 409.41,486.19 L 410.12,486.61 L 410.82,487.02 L 411.53,487.43 L 412.25,487.83 L 412.96,488.22 L 413.68,488.61 L 414.4,489.0 L 415.13,489.38 L 415.85,489.75 L 416.58,490.12 L 417.31,490.48 L 418.05,490.84 L 418.79,491.19 L 419.53,491.54 L 420.27,491.88 L 421.02,492.22 L 421.76,492.55 L 422.51,492.87 L 423.27,493.19 L 424.02,493.5 L 424.78,493.81 L 425.54,494.11 L 426.3,494.41 L 427.07,494.7 L 427.83,494.99 L 428.6,495.27 L 429.37,495.54 L 430.14,495.81 L 430.92,496.07 L 431.69,496.33 L 432.47,496.58 L 433.25,496.82 L 434.03,497.06 L 434.82,497.3 L 435.6,497.52 L 436.39,497.74 L 437.18,497.96 L 437.97,498.17 L 438.76,498.37 L 439.55,498.57 L 440.35,498.76 L 441.14,498.95 L 441.94,499.13 L 442.74,499.3 L 443.54,499.47 L 444.34,499.64 L 445.15,499.79 L 445.95,499.94 L 446.75,500.09 L 447.56,500.23 L 448.37,500.36 L 449.17,500.48 L 449.98,500.6 L 450.79,500.72 L 451.6,500.83 L 452.41,500.93 L 453.23,501.03 L 454.04,501.12 L 454.85,501.2 L 455.67,501.28 L 456.48,501.35 L 457.29,501.42 L 458.11,501.48 L 458.93,501.53 L 459.74,501.58 L 460.56,501.62 L 461.38,501.66 L 462.19,501.69 L 463.01,501.71 L 463.83,501.73 L 464.64,501.74 L 465.46,501.75 L 466.28,501.76 L 467.1,501.77 L 467.91,501.78 L 468.73,501.79 L 469.55,501.79 L 470.37,501.8 L 471.19,501.81 L 472.0,501.82 L 472.82,501.83 L 473.64,501.84 L 474.46,501.84 L 475.27,501.85 L 476.09,501.86 L 476.91,501.87 L 477.73,501.88 L 478.54,501.89 L 479.36,501.9 L 480.18,501.9 L 481.0,501.91 L 481.81,501.92 L 482.63,501.93 L 483.45,501.94 L 484.27,501.95 L 485.08,501.96 L 485.9,501.96 L 486.72,501.97 L 487.54,501.98 L 488.35,501.99 L 489.17,502.0 L 489.99,502.01 L 490.81,502.02 L 491.62,502.02 L 492.44,502.03 L 493.26,502.04 L 494.08,502.05 L 494.89,502.06 L 495.71,502.07 L 496.53,502.08 L 497.35,502.08 L 498.16,502.09 L 498.98,502.1 L 499.8,502.11 L 500.62,502.12 L 501.43,502.13 L 502.25,502.14 L 503.07,502.14 L 503.89,502.15 L 504.71,502.16 L 505.52,502.17 L 506.34,502.18 L 507.16,502.19 L 507.98,502.2 L 508.79,502.2 L 509.61,502.21 L 510.43,502.22 L 511.25,502.23 L 512.06,502.24 L 512.88,502.25 L 513.7,502.26 L 514.52,502.26 L 515.33,502.27 L 516.15,502.28 L 516.97,502.29 L 517.79,502.3 L 518.6,502.31 L 519.42,502.32 L 520.24,502.32 L 521.06,502.33 L 521.87,502.34 L 522.69,502.35 L 523.51,502.36 L 524.33,502.37 L 525.14,502.38 L 525.96,502.38 L 526.78,502.39 L 527.6,502.4 L 528.41,502.41 L 529.23,502.42 L 530.05,502.43 L 530.87,502.44 L 531.68,502.44 L 532.5,502.45 L 533.32,502.46 L 534.14,502.47 L 534.95,502.48 L 535.77,502.49 L 536.59,502.5 L 537.41,502.5 L 538.23,502.51 L 539.04,502.52 L 539.86,502.53 L 540.68,502.54 L 541.5,502.55 L 542.31,502.56 L 543.13,502.56 L 543.95,502.57 L 544.77,502.58 L 545.58,502.59 L 546.4,502.6 L 547.22,502.61 L 548.04,502.62 L 548.85,502.62 L 549.67,502.63 L 550.49,502.64 L 551.31,502.65 L 552.12,502.66 L 552.94,502.67 L 553.76,502.68 L 554.58,502.68 L 555.39,502.69 L 556.21,502.7 L 557.03,502.71 L 557.85,502.72 L 558.66,502.73 L 559.48,502.74 L 560.3,502.74 L 561.12,502.75 L 561.93,502.76 L 562.75,502.77 L 563.57,502.78 L 564.39,502.79 L 565.2,502.8 L 566.02,502.8 L 566.84,502.81 L 567.66,502.82 L 568.47,502.83 L 569.29,502.84 L 570.11,502.85 L 570.93,502.86 L 571.75,502.86 L 572.56,502.87 L 573.38,502.88 L 574.2,502.89 L 575.02,502.9 L 575.83,502.91 L 576.65,502.92 L 577.47,502.92 L 578.29,502.93 L 579.1,502.94 L 579.92,502.95 L 580.74,502.96 L 581.56,502.97 L 582.37,502.98 L 583.19,502.98 L 584.01,502.99 L 584.83,503.0 L 585.64,503.01 L 586.46,503.02 L 587.28,503.03 L 588.1,503.04 L 588.91,503.04 L 589.73,503.05 L 590.55,503.06 L 591.37,503.07 L 592.18,503.08 L 593.0,503.09 L 593.82,503.1 L 594.64,503.1 L 595.45,503.11 L 596.27,503.12 L 597.09,503.13 L 597.91,503.14 L 598.72,503.15 L 599.54,503.16 L 600.36,503.16 L 601.18,503.17 L 601.99,503.18 L 602.81,503.19 L 603.63,503.2 L 604.45,503.22 L 605.26,503.24 L 606.08,503.26 L 606.9,503.29 L 607.72,503.32 L 608.53,503.36 L 609.35,503.4 L 610.17,503.45 L 610.98,503.49 L 611.8,503.55 L 612.61,503.61 L 613.43,503.67 L 614.24,503.74 L 615.06,503.81 L 615.87,503.88 L 616.69,503.96 L 617.5,504.05 L 618.31,504.14 L 619.12,504.23 L 619.94,504.33 L 620.75,504.43 L 621.56,504.54 L 622.37,504.65 L 623.18,504.76 L 623.99,504.88 L 624.79,505.0 L 625.6,505.13 L 626.41,505.26 L 627.22,505.4 L 628.02,505.54 L 628.83,505.68 L 629.63,505.83 L 630.43,505.98 L 631.23,506.14 L 632.04,506.3 L 632.84,506.47 L 633.64,506.64 L 634.44,506.81 L 635.23,506.99 L 636.03,507.17 L 636.83,507.36 L 637.62,507.55 L 638.42,507.75 L 639.21,507.95 L 640.0,508.15" fill="none" stroke="rgba(255,255,255,0.38)" stroke-width="1.3" stroke-dasharray="8 5"/>

      <path d="M 63.5,99.41 L 66.3,99.26 L 69.09,98.94 L 71.85,98.49 L 74.6,97.91 L 77.31,97.19 L 79.97,96.33 L 82.61,95.39 L 85.25,94.43 L 87.9,93.54 L 90.61,92.79 L 93.36,92.26 L 96.15,91.99 L 98.95,91.98 L 101.74,92.25 L 104.49,92.76 L 107.2,93.47 L 109.87,94.34 L 112.5,95.3 L 115.12,96.3 L 117.75,97.28 L 120.4,98.17 L 123.1,98.93 L 125.85,99.49 L 128.63,99.83 L 131.43,99.91 L 134.23,99.74 L 137.0,99.33 L 139.73,98.69 L 142.41,97.89 L 145.06,96.95 L 147.68,95.95 L 150.29,94.95 L 152.93,94.0 L 155.61,93.17 L 158.33,92.51 L 161.1,92.06 L 163.89,91.85 L 166.69,91.9 L 169.48,92.21 L 172.23,92.75 L 174.93,93.5 L 177.59,94.39 L 180.21,95.38 L 182.82,96.4 L 185.44,97.39 L 188.1,98.3 L 190.79,99.06 L 193.54,99.62 L 196.32,99.95 L 199.12,100.02 L 201.92,99.83 L 204.69,99.38 L 207.41,98.72 L 210.08,97.88 L 212.72,96.92 L 215.33,95.9 L 217.94,94.89 L 220.59,93.96 L 223.28,93.18 L 226.02,92.59 L 228.8,92.27 L 231.6,92.25 L 234.39,92.55 L 237.12,93.17 L 239.77,94.08 L 242.31,95.27 L 244.74,96.66 L 247.08,98.21 L 249.34,99.86 L 251.59,101.54 L 253.84,103.21 L 256.15,104.79 L 258.55,106.24 L 261.05,107.51 L 263.65,108.57 L 266.33,109.38 L 269.07,109.94 L 271.85,110.29 L 274.65,110.44 L 277.46,110.46 L 280.26,110.42 L 283.06,110.4 L 285.86,110.47 L 288.66,110.7 L 291.42,111.17 L 294.12,111.91 L 296.72,112.95 L 299.18,114.3 L 301.44,115.96 L 303.47,117.89 L 305.26,120.04 L 306.8,122.38 L 308.12,124.85 L 309.26,127.41 L 310.27,130.03 L 311.21,132.67 L 312.14,135.31 L 313.13,137.94 L 314.24,140.51 L 315.51,143.01 L 316.96,145.41 L 318.59,147.68 L 320.4,149.83 L 322.34,151.85 L 324.38,153.77 L 326.47,155.64 L 328.56,157.51 L 330.59,159.44 L 332.5,161.49 L 334.23,163.69 L 335.72,166.07 L 336.92,168.6 L 337.78,171.27 L 338.26,174.03 L 338.33,176.82 L 338.01,179.61 L 337.36,182.33 L 336.44,184.98 L 335.31,187.55 L 334.06,190.05 L 332.75,192.53 L 331.49,195.03 L 330.37,197.6 L 329.47,200.26 L 328.83,202.98 L 328.52,205.77 L 328.58,208.57 L 329.03,211.33 L 329.88,214.0 L 331.07,216.54 L 332.53,218.93 L 334.18,221.19 L 335.98,223.34 L 337.84,225.44 L 339.7,227.54 L 341.46,229.71 L 343.06,232.02 L 344.42,234.47 L 345.51,237.05 L 346.27,239.75 L 346.64,242.52 L 346.61,245.32 L 346.16,248.09 L 345.3,250.75 L 344.06,253.26 L 342.54,255.61 L 340.81,257.82 L 338.93,259.9 L 336.96,261.89 L 334.97,263.87 L 333.04,265.9 L 331.26,268.06 L 329.68,270.38 L 328.35,272.85 L 327.34,275.46 L 326.67,278.18 L 326.41,280.97 L 326.56,283.76 L 327.12,286.51 L 328.1,289.13 L 329.47,291.57 L 331.2,293.78 L 333.25,295.69 L 335.52,297.33 L 337.93,298.75 L 340.45,299.97 L 343.05,301.04 L 345.67,302.02 L 348.31,302.97 L 350.93,303.97 L 353.5,305.08 L 356.01,306.33 L 358.41,307.78 L 360.68,309.42 L 362.79,311.27 L 364.67,313.34 L 366.27,315.64 L 367.53,318.14 L 368.42,320.8 L 368.89,323.56 L 368.94,326.36 L 368.56,329.14 L 367.76,331.82 L 366.55,334.35 L 364.97,336.66 L 363.05,338.69 L 360.84,340.41 L 358.41,341.8 L 355.85,342.96 L 353.21,343.9 L 350.51,344.65 L 347.78,345.27 L 345.03,345.83 L 342.28,346.36 L 339.53,346.92 L 336.79,347.5 L 334.05,348.1 L 331.32,348.71 L 328.58,349.33 L 325.85,349.95 L 323.12,350.58 L 320.39,351.22 L 317.67,351.89 L 314.95,352.58 L 312.24,353.3 L 309.54,354.05 L 306.85,354.86 L 304.19,355.72 L 301.56,356.69 L 299.0,357.83 L 296.53,359.16 L 294.19,360.7 L 292.01,362.46 L 290.08,364.49 L 288.43,366.75 L 287.13,369.23 L 286.21,371.88 L 285.7,374.63 L 285.62,377.43 L 285.97,380.21 L 286.75,382.9 L 287.93,385.44 L 289.49,387.77 L 291.39,389.83 L 293.58,391.56 L 296.02,392.94 L 298.64,393.92 L 301.39,394.5 L 304.17,394.77 L 306.98,394.8 L 309.77,394.61 L 312.55,394.26 L 315.32,393.82 L 318.08,393.33 L 320.84,392.85 L 323.61,392.39 L 326.38,391.95 L 329.15,391.51 L 331.91,391.07 L 334.68,390.62 L 337.45,390.16 L 340.21,389.7 L 342.98,389.24 L 345.74,388.78 L 348.51,388.32 L 351.27,387.86 L 354.04,387.4 L 356.8,386.94 L 359.57,386.48 L 362.33,386.01 L 365.1,385.55 L 367.86,385.08 L 370.63,384.62 L 373.39,384.15 L 376.15,383.68 L 378.92,383.21 L 381.68,382.74 L 384.44,382.27 L 387.21,381.79 L 389.97,381.32 L 392.73,380.84 L 395.49,380.37 L 398.26,379.89 L 401.02,379.41 L 403.78,378.93 L 406.54,378.45 L 409.3,377.97 L 412.07,377.49 L 414.83,377.01 L 417.59,376.53 L 420.35,376.04 L 423.11,375.55 L 425.87,375.07 L 428.63,374.59 L 431.39,374.11 L 434.16,373.63 L 436.92,373.15 L 439.68,372.67 L 442.44,372.2 L 445.21,371.73 L 447.97,371.27 L 450.74,370.83 L 453.51,370.41 L 456.3,370.08 L 459.1,369.95 L 461.9,369.98 L 464.69,370.22 L 467.47,370.57 L 470.24,371.0 L 473.0,371.49 L 475.76,371.98 L 478.54,372.36 L 481.32,372.66 L 484.1,373.05 L 486.89,373.36 L 489.67,373.67 L 492.43,374.14 L 495.14,374.86 L 497.74,375.89 L 500.18,377.27 L 502.4,378.99 L 504.34,381.01 L 505.95,383.3 L 507.19,385.81 L 508.03,388.48 L 508.58,391.23 L 508.89,394.01 L 509.01,396.81 L 508.96,399.62" fill="none" stroke="url(#trail-grad-t)" stroke-width="2.5" stroke-linecap="round" stroke-linejoin="round"
            stroke-dasharray="865.94" stroke-dashoffset="865.94">
        <animate attributeName="stroke-dashoffset" values="865.94;863.14;860.33;857.53;854.72;851.92;849.12;846.32;843.51;840.72;837.9;835.1;832.3;829.5;826.7;823.9;821.1;818.29;815.49;812.69;809.88;807.09;804.28;801.47;798.67;795.87;793.07;790.27;787.46;784.67;781.85;779.05;776.25;773.45;770.64;767.84;765.04;762.24;759.44;756.63;753.83;751.03;748.22;745.42;742.62;739.82;737.01;734.21;731.41;728.61;725.81;723.0;720.19;717.39;714.59;711.79;708.98;706.18;703.38;700.58;697.77;694.97;692.17;689.37;686.57;683.77;680.96;678.16;675.36;672.56;669.75;666.95;664.15;661.34;658.54;655.73;652.93;650.14;647.33;644.53;641.72;638.92;636.12;633.32;630.51;627.71;624.91;622.11;619.3;616.5;613.7;610.9;608.1;605.3;602.5;599.69;596.89;594.09;591.28;588.48;585.67;582.87;580.08;577.27;574.46;571.66;568.86;566.05;563.25;560.45;557.65;554.84;552.04;549.24;546.44;543.65;540.84;538.04;535.24;532.43;529.63;526.83;524.03;521.23;518.42;515.62;512.82;510.02;507.22;504.42;501.61;498.81;496.01;493.21;490.4;487.6;484.81;482.0;479.19;476.39;473.59;470.79;467.99;465.19;462.39;459.59;456.79;453.99;451.18;448.38;445.57;442.77;439.97;437.17;434.36;431.56;428.76;425.96;423.17;420.36;417.56;414.76;411.96;409.16;406.36;403.56;400.76;397.95;395.15;392.34;389.54;386.74;383.94;381.13;378.33;375.53;372.73;369.93;367.13;364.32;361.52;358.72;355.92;353.12;350.32;347.52;344.72;341.92;339.12;336.31;333.51;330.71;327.91;325.1;322.3;319.49;316.69;313.89;311.09;308.28;305.48;302.68;299.88;297.08;294.27;291.47;288.66;285.85;283.06;280.26;277.45;274.65;271.85;269.04;266.24;263.45;260.65;257.84;255.04;252.24;249.44;246.64;243.84;241.03;238.23;235.44;232.64;229.84;227.03;224.24;221.43;218.63;215.83;213.02;210.22;207.42;204.61;201.81;199.0;196.21;193.4;190.59;187.79;184.99;182.19;179.38;176.58;173.77;170.98;168.17;165.37;162.56;159.76;156.95;154.15;151.35;148.54;145.74;142.95;140.13;137.33;134.53;131.73;128.92;126.12;123.32;120.52;117.72;114.9;112.1;109.3;106.5;103.7;100.89;98.09;95.29;92.48;89.68;86.88;84.08;81.27;78.47;75.66;72.86;70.05;67.25;64.45;61.65;58.85;56.05;53.24;50.44;47.63;44.84;42.03;39.22;36.43;33.63;30.82;28.02;25.22;22.41;19.61;16.81;14.01;11.21;8.41;5.61;2.81;0.0" dur="8s" repeatCount="indefinite" calcMode="linear"/>
      </path>

      <g>
        <circle r="9" fill="none" stroke="#ffe566" stroke-width="1.5">
          <animate attributeName="cx" values="63.5;66.3;69.09;71.85;74.6;77.31;79.97;82.61;85.25;87.9;90.61;93.36;96.15;98.95;101.74;104.49;107.2;109.87;112.5;115.12;117.75;120.4;123.1;125.85;128.63;131.43;134.23;137.0;139.73;142.41;145.06;147.68;150.29;152.93;155.61;158.33;161.1;163.89;166.69;169.48;172.23;174.93;177.59;180.21;182.82;185.44;188.1;190.79;193.54;196.32;199.12;201.92;204.69;207.41;210.08;212.72;215.33;217.94;220.59;223.28;226.02;228.8;231.6;234.39;237.12;239.77;242.31;244.74;247.08;249.34;251.59;253.84;256.15;258.55;261.05;263.65;266.33;269.07;271.85;274.65;277.46;280.26;283.06;285.86;288.66;291.42;294.12;296.72;299.18;301.44;303.47;305.26;306.8;308.12;309.26;310.27;311.21;312.14;313.13;314.24;315.51;316.96;318.59;320.4;322.34;324.38;326.47;328.56;330.59;332.5;334.23;335.72;336.92;337.78;338.26;338.33;338.01;337.36;336.44;335.31;334.06;332.75;331.49;330.37;329.47;328.83;328.52;328.58;329.03;329.88;331.07;332.53;334.18;335.98;337.84;339.7;341.46;343.06;344.42;345.51;346.27;346.64;346.61;346.16;345.3;344.06;342.54;340.81;338.93;336.96;334.97;333.04;331.26;329.68;328.35;327.34;326.67;326.41;326.56;327.12;328.1;329.47;331.2;333.25;335.52;337.93;340.45;343.05;345.67;348.31;350.93;353.5;356.01;358.41;360.68;362.79;364.67;366.27;367.53;368.42;368.89;368.94;368.56;367.76;366.55;364.97;363.05;360.84;358.41;355.85;353.21;350.51;347.78;345.03;342.28;339.53;336.79;334.05;331.32;328.58;325.85;323.12;320.39;317.67;314.95;312.24;309.54;306.85;304.19;301.56;299.0;296.53;294.19;292.01;290.08;288.43;287.13;286.21;285.7;285.62;285.97;286.75;287.93;289.49;291.39;293.58;296.02;298.64;301.39;304.17;306.98;309.77;312.55;315.32;318.08;320.84;323.61;326.38;329.15;331.91;334.68;337.45;340.21;342.98;345.74;348.51;351.27;354.04;356.8;359.57;362.33;365.1;367.86;370.63;373.39;376.15;378.92;381.68;384.44;387.21;389.97;392.73;395.49;398.26;401.02;403.78;406.54;409.3;412.07;414.83;417.59;420.35;423.11;425.87;428.63;431.39;434.16;436.92;439.68;442.44;445.21;447.97;450.74;453.51;456.3;459.1;461.9;464.69;467.47;470.24;473.0;475.76;478.54;481.32;484.1;486.89;489.67;492.43;495.14;497.74;500.18;502.4;504.34;505.95;507.19;508.03;508.58;508.89;509.01;508.96" dur="8s" repeatCount="indefinite" calcMode="linear"/>
          <animate attributeName="cy" values="99.41;99.26;98.94;98.49;97.91;97.19;96.33;95.39;94.43;93.54;92.79;92.26;91.99;91.98;92.25;92.76;93.47;94.34;95.3;96.3;97.28;98.17;98.93;99.49;99.83;99.91;99.74;99.33;98.69;97.89;96.95;95.95;94.95;94.0;93.17;92.51;92.06;91.85;91.9;92.21;92.75;93.5;94.39;95.38;96.4;97.39;98.3;99.06;99.62;99.95;100.02;99.83;99.38;98.72;97.88;96.92;95.9;94.89;93.96;93.18;92.59;92.27;92.25;92.55;93.17;94.08;95.27;96.66;98.21;99.86;101.54;103.21;104.79;106.24;107.51;108.57;109.38;109.94;110.29;110.44;110.46;110.42;110.4;110.47;110.7;111.17;111.91;112.95;114.3;115.96;117.89;120.04;122.38;124.85;127.41;130.03;132.67;135.31;137.94;140.51;143.01;145.41;147.68;149.83;151.85;153.77;155.64;157.51;159.44;161.49;163.69;166.07;168.6;171.27;174.03;176.82;179.61;182.33;184.98;187.55;190.05;192.53;195.03;197.6;200.26;202.98;205.77;208.57;211.33;214.0;216.54;218.93;221.19;223.34;225.44;227.54;229.71;232.02;234.47;237.05;239.75;242.52;245.32;248.09;250.75;253.26;255.61;257.82;259.9;261.89;263.87;265.9;268.06;270.38;272.85;275.46;278.18;280.97;283.76;286.51;289.13;291.57;293.78;295.69;297.33;298.75;299.97;301.04;302.02;302.97;303.97;305.08;306.33;307.78;309.42;311.27;313.34;315.64;318.14;320.8;323.56;326.36;329.14;331.82;334.35;336.66;338.69;340.41;341.8;342.96;343.9;344.65;345.27;345.83;346.36;346.92;347.5;348.1;348.71;349.33;349.95;350.58;351.22;351.89;352.58;353.3;354.05;354.86;355.72;356.69;357.83;359.16;360.7;362.46;364.49;366.75;369.23;371.88;374.63;377.43;380.21;382.9;385.44;387.77;389.83;391.56;392.94;393.92;394.5;394.77;394.8;394.61;394.26;393.82;393.33;392.85;392.39;391.95;391.51;391.07;390.62;390.16;389.7;389.24;388.78;388.32;387.86;387.4;386.94;386.48;386.01;385.55;385.08;384.62;384.15;383.68;383.21;382.74;382.27;381.79;381.32;380.84;380.37;379.89;379.41;378.93;378.45;377.97;377.49;377.01;376.53;376.04;375.55;375.07;374.59;374.11;373.63;373.15;372.67;372.2;371.73;371.27;370.83;370.41;370.08;369.95;369.98;370.22;370.57;371.0;371.49;371.98;372.36;372.66;373.05;373.36;373.67;374.14;374.86;375.89;377.27;378.99;381.01;383.3;385.81;388.48;391.23;394.01;396.81;399.62" dur="8s" repeatCount="indefinite" calcMode="linear"/>
          <animate attributeName="r" values="9;24;9" dur="2s" repeatCount="indefinite"/>
          <animate attributeName="opacity" values="0.8;0;0.8" dur="2s" repeatCount="indefinite"/>
        </circle>
        <circle r="5.5" fill="#ffe566">
          <animate attributeName="cx" values="63.5;66.3;69.09;71.85;74.6;77.31;79.97;82.61;85.25;87.9;90.61;93.36;96.15;98.95;101.74;104.49;107.2;109.87;112.5;115.12;117.75;120.4;123.1;125.85;128.63;131.43;134.23;137.0;139.73;142.41;145.06;147.68;150.29;152.93;155.61;158.33;161.1;163.89;166.69;169.48;172.23;174.93;177.59;180.21;182.82;185.44;188.1;190.79;193.54;196.32;199.12;201.92;204.69;207.41;210.08;212.72;215.33;217.94;220.59;223.28;226.02;228.8;231.6;234.39;237.12;239.77;242.31;244.74;247.08;249.34;251.59;253.84;256.15;258.55;261.05;263.65;266.33;269.07;271.85;274.65;277.46;280.26;283.06;285.86;288.66;291.42;294.12;296.72;299.18;301.44;303.47;305.26;306.8;308.12;309.26;310.27;311.21;312.14;313.13;314.24;315.51;316.96;318.59;320.4;322.34;324.38;326.47;328.56;330.59;332.5;334.23;335.72;336.92;337.78;338.26;338.33;338.01;337.36;336.44;335.31;334.06;332.75;331.49;330.37;329.47;328.83;328.52;328.58;329.03;329.88;331.07;332.53;334.18;335.98;337.84;339.7;341.46;343.06;344.42;345.51;346.27;346.64;346.61;346.16;345.3;344.06;342.54;340.81;338.93;336.96;334.97;333.04;331.26;329.68;328.35;327.34;326.67;326.41;326.56;327.12;328.1;329.47;331.2;333.25;335.52;337.93;340.45;343.05;345.67;348.31;350.93;353.5;356.01;358.41;360.68;362.79;364.67;366.27;367.53;368.42;368.89;368.94;368.56;367.76;366.55;364.97;363.05;360.84;358.41;355.85;353.21;350.51;347.78;345.03;342.28;339.53;336.79;334.05;331.32;328.58;325.85;323.12;320.39;317.67;314.95;312.24;309.54;306.85;304.19;301.56;299.0;296.53;294.19;292.01;290.08;288.43;287.13;286.21;285.7;285.62;285.97;286.75;287.93;289.49;291.39;293.58;296.02;298.64;301.39;304.17;306.98;309.77;312.55;315.32;318.08;320.84;323.61;326.38;329.15;331.91;334.68;337.45;340.21;342.98;345.74;348.51;351.27;354.04;356.8;359.57;362.33;365.1;367.86;370.63;373.39;376.15;378.92;381.68;384.44;387.21;389.97;392.73;395.49;398.26;401.02;403.78;406.54;409.3;412.07;414.83;417.59;420.35;423.11;425.87;428.63;431.39;434.16;436.92;439.68;442.44;445.21;447.97;450.74;453.51;456.3;459.1;461.9;464.69;467.47;470.24;473.0;475.76;478.54;481.32;484.1;486.89;489.67;492.43;495.14;497.74;500.18;502.4;504.34;505.95;507.19;508.03;508.58;508.89;509.01;508.96" dur="8s" repeatCount="indefinite" calcMode="linear"/>
          <animate attributeName="cy" values="99.41;99.26;98.94;98.49;97.91;97.19;96.33;95.39;94.43;93.54;92.79;92.26;91.99;91.98;92.25;92.76;93.47;94.34;95.3;96.3;97.28;98.17;98.93;99.49;99.83;99.91;99.74;99.33;98.69;97.89;96.95;95.95;94.95;94.0;93.17;92.51;92.06;91.85;91.9;92.21;92.75;93.5;94.39;95.38;96.4;97.39;98.3;99.06;99.62;99.95;100.02;99.83;99.38;98.72;97.88;96.92;95.9;94.89;93.96;93.18;92.59;92.27;92.25;92.55;93.17;94.08;95.27;96.66;98.21;99.86;101.54;103.21;104.79;106.24;107.51;108.57;109.38;109.94;110.29;110.44;110.46;110.42;110.4;110.47;110.7;111.17;111.91;112.95;114.3;115.96;117.89;120.04;122.38;124.85;127.41;130.03;132.67;135.31;137.94;140.51;143.01;145.41;147.68;149.83;151.85;153.77;155.64;157.51;159.44;161.49;163.69;166.07;168.6;171.27;174.03;176.82;179.61;182.33;184.98;187.55;190.05;192.53;195.03;197.6;200.26;202.98;205.77;208.57;211.33;214.0;216.54;218.93;221.19;223.34;225.44;227.54;229.71;232.02;234.47;237.05;239.75;242.52;245.32;248.09;250.75;253.26;255.61;257.82;259.9;261.89;263.87;265.9;268.06;270.38;272.85;275.46;278.18;280.97;283.76;286.51;289.13;291.57;293.78;295.69;297.33;298.75;299.97;301.04;302.02;302.97;303.97;305.08;306.33;307.78;309.42;311.27;313.34;315.64;318.14;320.8;323.56;326.36;329.14;331.82;334.35;336.66;338.69;340.41;341.8;342.96;343.9;344.65;345.27;345.83;346.36;346.92;347.5;348.1;348.71;349.33;349.95;350.58;351.22;351.89;352.58;353.3;354.05;354.86;355.72;356.69;357.83;359.16;360.7;362.46;364.49;366.75;369.23;371.88;374.63;377.43;380.21;382.9;385.44;387.77;389.83;391.56;392.94;393.92;394.5;394.77;394.8;394.61;394.26;393.82;393.33;392.85;392.39;391.95;391.51;391.07;390.62;390.16;389.7;389.24;388.78;388.32;387.86;387.4;386.94;386.48;386.01;385.55;385.08;384.62;384.15;383.68;383.21;382.74;382.27;381.79;381.32;380.84;380.37;379.89;379.41;378.93;378.45;377.97;377.49;377.01;376.53;376.04;375.55;375.07;374.59;374.11;373.63;373.15;372.67;372.2;371.73;371.27;370.83;370.41;370.08;369.95;369.98;370.22;370.57;371.0;371.49;371.98;372.36;372.66;373.05;373.36;373.67;374.14;374.86;375.89;377.27;378.99;381.01;383.3;385.81;388.48;391.23;394.01;396.81;399.62" dur="8s" repeatCount="indefinite" calcMode="linear"/>
        </circle>
        <circle r="2" fill="white">
          <animate attributeName="cx" values="63.5;66.3;69.09;71.85;74.6;77.31;79.97;82.61;85.25;87.9;90.61;93.36;96.15;98.95;101.74;104.49;107.2;109.87;112.5;115.12;117.75;120.4;123.1;125.85;128.63;131.43;134.23;137.0;139.73;142.41;145.06;147.68;150.29;152.93;155.61;158.33;161.1;163.89;166.69;169.48;172.23;174.93;177.59;180.21;182.82;185.44;188.1;190.79;193.54;196.32;199.12;201.92;204.69;207.41;210.08;212.72;215.33;217.94;220.59;223.28;226.02;228.8;231.6;234.39;237.12;239.77;242.31;244.74;247.08;249.34;251.59;253.84;256.15;258.55;261.05;263.65;266.33;269.07;271.85;274.65;277.46;280.26;283.06;285.86;288.66;291.42;294.12;296.72;299.18;301.44;303.47;305.26;306.8;308.12;309.26;310.27;311.21;312.14;313.13;314.24;315.51;316.96;318.59;320.4;322.34;324.38;326.47;328.56;330.59;332.5;334.23;335.72;336.92;337.78;338.26;338.33;338.01;337.36;336.44;335.31;334.06;332.75;331.49;330.37;329.47;328.83;328.52;328.58;329.03;329.88;331.07;332.53;334.18;335.98;337.84;339.7;341.46;343.06;344.42;345.51;346.27;346.64;346.61;346.16;345.3;344.06;342.54;340.81;338.93;336.96;334.97;333.04;331.26;329.68;328.35;327.34;326.67;326.41;326.56;327.12;328.1;329.47;331.2;333.25;335.52;337.93;340.45;343.05;345.67;348.31;350.93;353.5;356.01;358.41;360.68;362.79;364.67;366.27;367.53;368.42;368.89;368.94;368.56;367.76;366.55;364.97;363.05;360.84;358.41;355.85;353.21;350.51;347.78;345.03;342.28;339.53;336.79;334.05;331.32;328.58;325.85;323.12;320.39;317.67;314.95;312.24;309.54;306.85;304.19;301.56;299.0;296.53;294.19;292.01;290.08;288.43;287.13;286.21;285.7;285.62;285.97;286.75;287.93;289.49;291.39;293.58;296.02;298.64;301.39;304.17;306.98;309.77;312.55;315.32;318.08;320.84;323.61;326.38;329.15;331.91;334.68;337.45;340.21;342.98;345.74;348.51;351.27;354.04;356.8;359.57;362.33;365.1;367.86;370.63;373.39;376.15;378.92;381.68;384.44;387.21;389.97;392.73;395.49;398.26;401.02;403.78;406.54;409.3;412.07;414.83;417.59;420.35;423.11;425.87;428.63;431.39;434.16;436.92;439.68;442.44;445.21;447.97;450.74;453.51;456.3;459.1;461.9;464.69;467.47;470.24;473.0;475.76;478.54;481.32;484.1;486.89;489.67;492.43;495.14;497.74;500.18;502.4;504.34;505.95;507.19;508.03;508.58;508.89;509.01;508.96" dur="8s" repeatCount="indefinite" calcMode="linear"/>
          <animate attributeName="cy" values="99.41;99.26;98.94;98.49;97.91;97.19;96.33;95.39;94.43;93.54;92.79;92.26;91.99;91.98;92.25;92.76;93.47;94.34;95.3;96.3;97.28;98.17;98.93;99.49;99.83;99.91;99.74;99.33;98.69;97.89;96.95;95.95;94.95;94.0;93.17;92.51;92.06;91.85;91.9;92.21;92.75;93.5;94.39;95.38;96.4;97.39;98.3;99.06;99.62;99.95;100.02;99.83;99.38;98.72;97.88;96.92;95.9;94.89;93.96;93.18;92.59;92.27;92.25;92.55;93.17;94.08;95.27;96.66;98.21;99.86;101.54;103.21;104.79;106.24;107.51;108.57;109.38;109.94;110.29;110.44;110.46;110.42;110.4;110.47;110.7;111.17;111.91;112.95;114.3;115.96;117.89;120.04;122.38;124.85;127.41;130.03;132.67;135.31;137.94;140.51;143.01;145.41;147.68;149.83;151.85;153.77;155.64;157.51;159.44;161.49;163.69;166.07;168.6;171.27;174.03;176.82;179.61;182.33;184.98;187.55;190.05;192.53;195.03;197.6;200.26;202.98;205.77;208.57;211.33;214.0;216.54;218.93;221.19;223.34;225.44;227.54;229.71;232.02;234.47;237.05;239.75;242.52;245.32;248.09;250.75;253.26;255.61;257.82;259.9;261.89;263.87;265.9;268.06;270.38;272.85;275.46;278.18;280.97;283.76;286.51;289.13;291.57;293.78;295.69;297.33;298.75;299.97;301.04;302.02;302.97;303.97;305.08;306.33;307.78;309.42;311.27;313.34;315.64;318.14;320.8;323.56;326.36;329.14;331.82;334.35;336.66;338.69;340.41;341.8;342.96;343.9;344.65;345.27;345.83;346.36;346.92;347.5;348.1;348.71;349.33;349.95;350.58;351.22;351.89;352.58;353.3;354.05;354.86;355.72;356.69;357.83;359.16;360.7;362.46;364.49;366.75;369.23;371.88;374.63;377.43;380.21;382.9;385.44;387.77;389.83;391.56;392.94;393.92;394.5;394.77;394.8;394.61;394.26;393.82;393.33;392.85;392.39;391.95;391.51;391.07;390.62;390.16;389.7;389.24;388.78;388.32;387.86;387.4;386.94;386.48;386.01;385.55;385.08;384.62;384.15;383.68;383.21;382.74;382.27;381.79;381.32;380.84;380.37;379.89;379.41;378.93;378.45;377.97;377.49;377.01;376.53;376.04;375.55;375.07;374.59;374.11;373.63;373.15;372.67;372.2;371.73;371.27;370.83;370.41;370.08;369.95;369.98;370.22;370.57;371.0;371.49;371.98;372.36;372.66;373.05;373.36;373.67;374.14;374.86;375.89;377.27;378.99;381.01;383.3;385.81;388.48;391.23;394.01;396.81;399.62" dur="8s" repeatCount="indefinite" calcMode="linear"/>
        </circle>
      </g>

      <g class="legend" transform="translate(195.0, 570)">
        <rect x="0" y="-14" width="310" height="28" rx="14" fill="rgba(20, 15, 35, 0.8)" stroke="rgba(0, 229, 204, 0.4)" stroke-width="1"/>
        <line x1="20" y1="0" x2="45" y2="0" stroke="rgba(255,255,255,0.4)" stroke-width="2" stroke-dasharray="4 3"/>
        <text x="55" y="4" font-size="11" font-weight="600" fill="rgba(255,255,255,0.7)" font-family="system-ui, sans-serif">Reference</text>
        <line x1="150" y1="-6" x2="150" y2="6" stroke="rgba(255,255,255,0.2)" stroke-width="1"/>
        <line x1="165" y1="0" x2="190" y2="0" stroke="url(#trail-grad-t)" stroke-width="3" stroke-linecap="round"/>
        <text x="200" y="4" font-size="11" font-weight="bold" fill="#ff00cc" font-family="system-ui, sans-serif">Real Trajectory</text>
      </g>
    </svg>