<svg xmlns="http://www.w3.org/2000/svg" viewBox="0 0 700 400" width="100%" class="trajectory-svg">
      <defs>
        <linearGradient id="trail-grad-e" x1="60" y1="0" x2="670" y2="0" gradientUnits="userSpaceOnUse">
          <stop offset="0%" stop-color="#aa00ff"/><stop offset="100%" stop-color="#ff00cc"/>
        </linearGradient>
      </defs>

      <rect width="700" height="400" fill="#0d0a1a"/>
      <g class="grid"><line x1="60.0" y1="50" x2="60.0" y2="360" stroke="rgba(0,229,204,1)" stroke-width="0.5" opacity="0.06"/>
<line x1="161.66666666666669" y1="50" x2="161.66666666666669" y2="360" stroke="rgba(0,229,204,1)" stroke-width="0.5" opacity="0.06"/>
<line x1="263.33333333333337" y1="50" x2="263.33333333333337" y2="360" stroke="rgba(0,229,204,1)" stroke-width="0.5" opacity="0.06"/>
<line x1="365.0" y1="50" x2="365.0" y2="360" stroke="rgba(0,229,204,1)" stroke-width="0.5" opacity="0.06"/>
<line x1="466.6666666666667" y1="50" x2="466.6666666666667" y2="360" stroke="rgba(0,229,204,1)" stroke-width="0.5" opacity="0.06"/>
<line x1="568.3333333333333" y1="50" x2="568.3333333333333" y2="360" stroke="rgba(0,229,204,1)" stroke-width="0.5" opacity="0.06"/>
<line x1="670.0" y1="50" x2="670.0" y2="360" stroke="rgba(0,229,204,1)" stroke-width="0.5" opacity="0.06"/>
<line x1="60" y1="50.0" x2="670" y2="50.0" stroke="rgba(0,229,204,1)" stroke-width="0.5" opacity="0.18"/>
<line x1="60" y1="101.66666666666666" x2="670" y2="101.66666666666666" stroke="rgba(0,229,204,1)" stroke-width="0.5" opacity="0.18"/>
<line x1="60" y1="153.33333333333331" x2="670" y2="153.33333333333331" stroke="rgba(0,229,204,1)" stroke-width="0.5" opacity="0.18"/>
<line x1="60" y1="205.0" x2="670" y2="205.0" stroke="rgba(0,229,204,1)" stroke-width="0.5" opacity="0.18"/>
<line x1="60" y1="256.66666666666663" x2="670" y2="256.66666666666663" stroke="rgba(0,229,204,1)" stroke-width="0.5" opacity="0.18"/>
<line x1="60" y1="308.3333333333333" x2="670" y2="308.3333333333333" stroke="rgba(0,229,204,1)" stroke-width="0.5" opacity="0.18"/>
<line x1="60" y1="360.0" x2="670" y2="360.0" stroke="rgba(0,229,204,1)" stroke-width="0.5" opacity="0.18"/>
</g>
      <line x1="60" y1="226.7" x2="670" y2="226.7" stroke="rgba(255,255,255,0.5)" stroke-width="1.5" stroke-dasharray="6 6"/>
      <rect x="60" y="50" width="610" height="310" fill="none" stroke="rgba(0,229,204,0.15)" stroke-width="0.75" rx="4"/>

      <g class="axis-labels"><text x="60.0" y="380" font-size="10" fill="rgba(255,255,255,0.6)" text-anchor="middle" font-family="system-ui, sans-serif">0.1s</text>
<text x="161.66666666666669" y="380" font-size="10" fill="rgba(255,255,255,0.6)" text-anchor="middle" font-family="system-ui, sans-serif">10.4s</text>
<text x="263.33333333333337" y="380" font-size="10" fill="rgba(255,255,255,0.6)" text-anchor="middle" font-family="system-ui, sans-serif">20.7s</text>
<text x="365.0" y="380" font-size="10" fill="rgba(255,255,255,0.6)" text-anchor="middle" font-family="system-ui, sans-serif">31.0s</text>
<text x="466.6666666666667" y="380" font-size="10" fill="rgba(255,255,255,0.6)" text-anchor="middle" font-family="system-ui, sans-serif">41.3s</text>
<text x="568.3333333333333" y="380" font-size="10" fill="rgba(255,255,255,0.6)" text-anchor="middle" font-family="system-ui, sans-serif">51.6s</text>
<text x="670.0" y="380" font-size="10" fill="rgba(255,255,255,0.6)" text-anchor="middle" font-family="system-ui, sans-serif">61.9s</text>
<text x="50" y="54.0" font-size="10" fill="rgba(255,255,255,0.6)" text-anchor="end" font-family="system-ui, sans-serif">0.82</text>
<text x="50" y="105.66666666666666" font-size="10" fill="rgba(255,255,255,0.6)" text-anchor="end" font-family="system-ui, sans-serif">0.58</text>
<text x="50" y="157.33333333333331" font-size="10" fill="rgba(255,255,255,0.6)" text-anchor="end" font-family="system-ui, sans-serif">0.34</text>
<text x="50" y="209.0" font-size="10" fill="rgba(255,255,255,0.6)" text-anchor="end" font-family="system-ui, sans-serif">0.10</text>
<text x="50" y="260.66666666666663" font-size="10" fill="rgba(255,255,255,0.6)" text-anchor="end" font-family="system-ui, sans-serif">-0.14</text>
<text x="50" y="312.3333333333333" font-size="10" fill="rgba(255,255,255,0.6)" text-anchor="end" font-family="system-ui, sans-serif">-0.38</text>
<text x="50" y="364.0" font-size="10" fill="rgba(255,255,255,0.6)" text-anchor="end" font-family="system-ui, sans-serif">-0.62</text>
</g>
      <text x="50" y="35" font-size="11" font-weight="bold" fill="rgba(0,229,204,0.8)" text-anchor="end" font-family="system-ui, sans-serif">Error (m)</text>
      <text x="670" y="395" font-size="11" font-weight="bold" fill="rgba(0,229,204,0.8)" text-anchor="end" font-family="system-ui, sans-serif">Time (s)</text>

      <path d="M 60.0,334.17 L 61.97,321.24 L 63.95,298.43 L 65.92,289.22 L 67.9,294.82 L 69.87,304.58 L 71.84,310.23 L 73.82,310.12 L 75.79,306.41 L 77.77,301.45 L 79.74,296.31 L 81.72,291.12 L 83.69,285.73 L 85.66,280.16 L 87.64,274.59 L 89.61,269.2 L 91.59,264.13 L 93.56,259.44 L 95.53,255.12 L 97.51,251.2 L 99.48,247.65 L 101.46,244.49 L 103.43,241.68 L 105.4,239.22 L 107.38,237.07 L 109.35,235.21 L 111.33,233.62 L 113.3,232.26 L 115.28,231.1 L 117.25,230.13 L 119.22,229.33 L 121.2,228.66 L 123.17,228.12 L 125.15,227.68 L 127.12,227.32 L 129.09,227.05 L 131.07,226.83 L 133.04,226.67 L 135.02,226.55 L 136.99,226.46 L 138.96,226.41 L 140.94,226.37 L 142.91,226.35 L 144.89,226.35 L 146.86,226.35 L 148.83,226.37 L 150.81,226.39 L 152.78,226.41 L 154.76,226.43 L 156.73,226.45 L 158.71,226.48 L 160.68,226.5 L 162.65,226.46 L 164.63,226.07 L 166.6,225.03 L 168.58,223.08 L 170.55,220.16 L 172.52,216.38 L 174.5,211.84 L 176.47,206.76 L 178.45,201.31 L 180.42,195.69 L 182.39,190.04 L 184.37,184.51 L 186.34,179.2 L 188.32,174.2 L 190.29,169.6 L 192.27,165.42 L 194.24,161.72 L 196.21,158.5 L 198.19,155.71 L 200.16,153.4 L 202.14,151.53 L 204.11,150.0 L 206.08,148.85 L 208.06,148.03 L 210.03,147.44 L 212.01,147.11 L 213.98,146.98 L 215.95,147.01 L 217.93,147.12 L 219.9,147.32 L 221.88,147.62 L 223.85,147.78 L 225.83,147.5 L 227.8,146.52 L 229.77,144.62 L 231.75,141.8 L 233.72,138.17 L 235.7,133.81 L 237.67,128.97 L 239.64,123.84 L 241.62,118.52 L 243.59,113.21 L 245.57,108.09 L 247.54,103.31 L 249.51,98.76 L 251.49,94.55 L 253.46,90.87 L 255.44,87.6 L 257.41,84.78 L 259.39,82.44 L 261.36,80.49 L 263.33,78.95 L 265.31,77.77 L 267.28,76.95 L 269.26,76.37 L 271.23,76.02 L 273.2,75.83 L 275.18,75.86 L 277.15,76.16 L 279.13,77.16 L 281.1,79.43 L 283.07,83.38 L 285.05,89.13 L 287.02,96.58 L 289.0,105.4 L 290.97,115.27 L 292.94,126.09 L 294.92,139.41 L 296.89,153.58 L 298.87,166.2 L 300.84,176.29 L 302.82,184.26 L 304.79,190.92 L 306.76,196.77 L 308.74,201.96 L 310.71,206.45 L 312.69,210.26 L 314.66,213.45 L 316.63,216.11 L 318.61,218.34 L 320.58,220.2 L 322.56,221.75 L 324.53,223.01 L 326.5,224.04 L 328.48,224.86 L 330.45,225.52 L 332.43,226.03 L 334.4,226.43 L 336.38,226.73 L 338.35,226.95 L 340.32,227.11 L 342.3,227.22 L 344.27,227.28 L 346.25,227.32 L 348.22,227.33 L 350.19,227.32 L 352.17,227.3 L 354.14,227.26 L 356.12,227.23 L 358.09,227.18 L 360.06,227.14 L 362.04,227.1 L 364.01,227.06 L 365.99,227.02 L 367.96,226.98 L 369.94,226.94 L 371.91,226.91 L 373.88,226.88 L 375.86,226.86 L 377.83,226.83 L 379.81,226.81 L 381.78,226.79 L 383.75,226.78 L 385.73,226.76 L 387.7,226.75 L 389.68,226.75 L 391.65,226.84 L 393.62,227.14 L 395.6,227.76 L 397.57,228.78 L 399.55,230.18 L 401.52,231.9 L 403.5,233.88 L 405.47,236.02 L 407.44,238.26 L 409.42,240.53 L 411.39,242.78 L 413.37,244.95 L 415.34,247.01 L 417.31,248.92 L 419.29,250.66 L 421.26,252.24 L 423.24,253.61 L 425.21,254.86 L 427.18,256.11 L 429.16,257.51 L 431.13,259.11 L 433.11,260.94 L 435.08,262.99 L 437.06,265.18 L 439.03,267.46 L 441.0,269.78 L 442.98,272.05 L 444.95,274.29 L 446.93,276.4 L 448.9,278.37 L 450.87,280.2 L 452.85,281.82 L 454.82,283.3 L 456.8,284.55 L 458.77,285.64 L 460.74,286.56 L 462.72,287.27 L 464.69,287.88 L 466.67,288.34 L 468.64,288.82 L 470.61,289.54 L 472.59,290.62 L 474.56,292.23 L 476.54,294.35 L 478.51,296.84 L 480.49,299.64 L 482.46,302.69 L 484.43,305.91 L 486.41,309.12 L 488.38,312.21 L 490.36,315.22 L 492.33,318.05 L 494.3,320.67 L 496.28,323.16 L 498.25,325.39 L 500.23,327.29 L 502.2,328.89 L 504.17,330.21 L 506.15,331.27 L 508.12,332.14 L 510.1,332.79 L 512.07,333.25 L 514.05,333.58 L 516.02,333.77 L 517.99,333.84 L 519.97,333.85 L 521.94,333.78 L 523.92,333.66 L 525.89,333.52 L 527.86,333.35 L 529.84,333.17 L 531.81,333.0 L 533.79,332.82 L 535.76,332.65 L 537.73,332.52 L 539.71,332.38 L 541.68,332.27 L 543.66,332.18 L 545.63,332.1 L 547.61,332.05 L 549.58,332.07 L 551.55,332.04 L 553.53,331.54 L 555.5,330.09 L 557.48,327.39 L 559.45,323.43 L 561.42,318.27 L 563.4,312.11 L 565.37,304.19 L 567.35,294.17 L 569.32,284.17 L 571.29,275.72 L 573.27,268.99 L 575.24,263.42 L 577.22,258.49 L 579.19,253.99 L 581.17,249.93 L 583.14,246.34 L 585.11,243.24 L 587.09,240.56 L 589.06,238.25 L 591.04,236.25 L 593.01,234.53 L 594.98,233.06 L 596.96,231.82 L 598.93,230.77 L 600.91,229.89 L 602.88,229.16 L 604.85,228.56 L 606.83,228.06 L 608.8,227.67 L 610.78,227.35 L 612.75,227.09 L 614.72,226.89 L 616.7,226.74 L 618.67,226.63 L 620.65,226.55 L 622.62,226.49 L 624.6,226.45 L 626.57,226.43 L 628.54,226.43 L 630.52,226.43 L 632.49,226.43 L 634.47,226.45 L 636.44,226.46 L 638.41,226.48 L 640.39,226.5 L 642.36,226.52 L 644.34,226.54 L 646.31,226.56 L 648.28,226.55 L 650.26,226.35 L 652.23,225.63 L 654.21,224.08 L 656.18,221.57 L 658.16,218.12 L 660.13,213.88 L 662.1,208.99 L 664.08,203.7 L 666.05,198.12 L 668.03,192.46 L 670.0,186.85" fill="none" stroke="url(#trail-grad-e)" stroke-width="2.5" stroke-linecap="round" stroke-linejoin="round"
            stroke-dasharray="1056.38" stroke-dashoffset="1056.38">
        <animate attributeName="stroke-dashoffset" values="1056.38;1043.31;1020.41;1010.99;1005.05;995.09;989.11;987.13;982.93;977.59;972.08;966.53;960.79;954.88;948.97;943.23;937.79;932.7;927.95;923.56;919.5;915.77;912.34;909.19;906.27;903.56;901.02;898.62;896.33;894.13;892.01;889.92;887.87;885.85;883.84;881.85;879.86;877.89;875.9;873.93;871.96;869.98;868.01;866.03;864.06;862.09;860.11;858.14;856.16;854.19;852.21;850.24;848.27;846.25;844.02;841.24;837.72;833.46;828.5;823.06;817.26;811.3;805.32;799.44;793.78;788.4;783.4;778.77;774.58;770.81;767.39;764.35;761.63;759.13;756.85;754.71;752.65;750.64;748.67;746.7;744.72;742.74;740.73;738.76;736.76;734.56;731.82;728.38;724.25;719.46;714.23;708.74;703.06;697.4;691.91;686.74;681.78;677.13;672.95;669.13;665.69;662.62;659.85;657.35;655.05;652.91;650.85;648.85;646.87;644.89;642.9;640.68;637.67;633.26;627.18;619.47;610.43;600.37;589.37;575.9;561.6;548.82;538.54;530.33;523.38;517.21;511.66;506.75;502.46;498.71;495.4;492.42;489.71;487.19;484.86;482.63;480.49;478.41;476.37;474.36;472.35;470.37;468.4;466.41;464.44;462.46;460.49;458.52;456.54;454.57;452.59;450.62;448.65;446.67;444.7;442.72;440.75;438.77;436.8;434.83;432.85;430.88;428.9;426.93;424.96;422.98;421.01;419.03;417.05;415.06;412.99;410.77;408.34;405.73;402.93;400.02;397.04;394.02;391.03;388.1;385.25;382.5;379.87;377.34;374.93;372.6;370.27;367.84;365.3;362.61;359.76;356.81;353.8;350.75;347.74;344.76;341.87;339.08;336.39;333.83;331.37;329.03;326.78;324.6;322.5;320.44;318.4;316.38;314.28;312.02;309.48;306.58;303.4;299.97;296.34;292.57;288.8;285.13;281.53;278.08;274.8;271.62;268.65;265.9;263.36;260.99;258.75;256.59;254.51;252.49;250.48;248.5;246.53;244.55;242.58;240.59;238.62;236.64;234.65;232.68;230.69;228.71;226.74;224.75;222.78;220.8;218.82;216.84;214.87;212.9;210.86;208.42;205.07;200.64;195.12;188.65;180.49;170.28;160.08;151.41;144.39;138.48;133.17;128.26;123.74;119.65;115.97;112.64;109.6;106.79;104.18;101.72;99.38;97.15;94.98;92.88;90.82;88.78;86.77;84.77;82.78;80.8;78.81;76.84;74.86;72.89;70.91;68.94;66.97;64.99;63.02;61.04;59.07;57.1;55.12;53.15;51.17;49.2;47.23;45.24;43.14;40.62;37.43;33.46;28.78;23.51;17.86;11.94;5.95;0.0" dur="8s" repeatCount="indefinite" calcMode="linear"/>
      </path>

      <g>
        <circle r="9" fill="none" stroke="#ffe566" stroke-width="1.5">
          <animate attributeName="cx" values="60.0;61.97;63.95;65.92;67.9;69.87;71.84;73.82;75.79;77.77;79.74;81.72;83.69;85.66;87.64;89.61;91.59;93.56;95.53;97.51;99.48;101.46;103.43;105.4;107.38;109.35;111.33;113.3;115.28;117.25;119.22;121.2;123.17;125.15;127.12;129.09;131.07;133.04;135.02;136.99;138.96;140.94;142.91;144.89;146.86;148.83;150.81;152.78;154.76;156.73;158.71;160.68;162.65;164.63;166.6;168.58;170.55;172.52;174.5;176.47;178.45;180.42;182.39;184.37;186.34;188.32;190.29;192.27;194.24;196.21;198.19;200.16;202.14;204.11;206.08;208.06;210.03;212.01;213.98;215.95;217.93;219.9;221.88;223.85;225.83;227.8;229.77;231.75;233.72;235.7;237.67;239.64;241.62;243.59;245.57;247.54;249.51;251.49;253.46;255.44;257.41;259.39;261.36;263.33;265.31;267.28;269.26;271.23;273.2;275.18;277.15;279.13;281.1;283.07;285.05;287.02;289.0;290.97;292.94;294.92;296.89;298.87;300.84;302.82;304.79;306.76;308.74;310.71;312.69;314.66;316.63;318.61;320.58;322.56;324.53;326.5;328.48;330.45;332.43;334.4;336.38;338.35;340.32;342.3;344.27;346.25;348.22;350.19;352.17;354.14;356.12;358.09;360.06;362.04;364.01;365.99;367.96;369.94;371.91;373.88;375.86;377.83;379.81;381.78;383.75;385.73;387.7;389.68;391.65;393.62;395.6;397.57;399.55;401.52;403.5;405.47;407.44;409.42;411.39;413.37;415.34;417.31;419.29;421.26;423.24;425.21;427.18;429.16;431.13;433.11;435.08;437.06;439.03;441.0;442.98;444.95;446.93;448.9;450.87;452.85;454.82;456.8;458.77;460.74;462.72;464.69;466.67;468.64;470.61;472.59;474.56;476.54;478.51;480.49;482.46;484.43;486.41;488.38;490.36;492.33;494.3;496.28;498.25;500.23;502.2;504.17;506.15;508.12;510.1;512.07;514.05;516.02;517.99;519.97;521.94;523.92;525.89;527.86;529.84;531.81;533.79;535.76;537.73;539.71;541.68;543.66;545.63;547.61;549.58;551.55;553.53;555.5;557.48;559.45;561.42;563.4;565.37;567.35;569.32;571.29;573.27;575.24;577.22;579.19;581.17;583.14;585.11;587.09;589.06;591.04;593.01;594.98;596.96;598.93;600.91;602.88;604.85;606.83;608.8;610.78;612.75;614.72;616.7;618.67;620.65;622.62;624.6;626.57;628.54;630.52;632.49;634.47;636.44;638.41;640.39;642.36;644.34;646.31;648.28;650.26;652.23;654.21;656.18;658.16;660.13;662.1;664.08;666.05;668.03;670.0" dur="8s" repeatCount="indefinite" calcMode="linear"/>
          <animate attributeName="cy" values="334.17;321.24;298.43;289.22;294.82;304.58;310.23;310.12;306.41;301.45;296.31;291.12;285.73;280.16;274.59;269.2;264.13;259.44;255.12;251.2;247.65;244.49;241.68;239.22;237.07;235.21;233.62;232.26;231.1;230.13;229.33;228.66;228.12;227.68;227.32;227.05;226.83;226.67;226.55;226.46;226.41;226.37;226.35;226.35;226.35;226.37;226.39;226.41;226.43;226.45;226.48;226.5;226.46;226.07;225.03;223.08;220.16;216.38;211.84;206.76;201.31;195.69;190.04;184.51;179.2;174.2;169.6;165.42;161.72;158.5;155.71;153.4;151.53;150.0;148.85;148.03;147.44;147.11;146.98;147.01;147.12;147.32;147.62;147.78;147.5;146.52;144.62;141.8;138.17;133.81;128.97;123.84;118.52;113.21;108.09;103.31;98.76;94.55;90.87;87.6;84.78;82.44;80.49;78.95;77.77;76.95;76.37;76.02;75.83;75.86;76.16;77.16;79.43;83.38;89.13;96.58;105.4;115.27;126.09;139.41;153.58;166.2;176.29;184.26;190.92;196.77;201.96;206.45;210.26;213.45;216.11;218.34;220.2;221.75;223.01;224.04;224.86;225.52;226.03;226.43;226.73;226.95;227.11;227.22;227.28;227.32;227.33;227.32;227.3;227.26;227.23;227.18;227.14;227.1;227.06;227.02;226.98;226.94;226.91;226.88;226.86;226.83;226.81;226.79;226.78;226.76;226.75;226.75;226.84;227.14;227.76;228.78;230.18;231.9;233.88;236.02;238.26;240.53;242.78;244.95;247.01;248.92;250.66;252.24;253.61;254.86;256.11;257.51;259.11;260.94;262.99;265.18;267.46;269.78;272.05;274.29;276.4;278.37;280.2;281.82;283.3;284.55;285.64;286.56;287.27;287.88;288.34;288.82;289.54;290.62;292.23;294.35;296.84;299.64;302.69;305.91;309.12;312.21;315.22;318.05;320.67;323.16;325.39;327.29;328.89;330.21;331.27;332.14;332.79;333.25;333.58;333.77;333.84;333.85;333.78;333.66;333.52;333.35;333.17;333.0;332.82;332.65;332.52;332.38;332.27;332.18;332.1;332.05;332.07;332.04;331.54;330.09;327.39;323.43;318.27;312.11;304.19;294.17;284.17;275.72;268.99;263.42;258.49;253.99;249.93;246.34;243.24;240.56;238.25;236.25;234.53;233.06;231.82;230.77;229.89;229.16;228.56;228.06;227.67;227.35;227.09;226.89;226.74;226.63;226.55;226.49;226.45;226.43;226.43;226.43;226.43;226.45;226.46;226.48;226.5;226.52;226.54;226.56;226.55;226.35;225.63;224.08;221.57;218.12;213.88;208.99;203.7;198.12;192.46;186.85" dur="8s" repeatCount="indefinite" calcMode="linear"/>
          <animate attributeName="r" values="9;24;9" dur="2s" repeatCount="indefinite"/>
          <animate attributeName="opacity" values="0.8;0;0.8" dur="2s" repeatCount="indefinite"/>
        </circle>
        <circle r="5.5" fill="#ffe566">
          <animate attributeName="cx" values="60.0;61.97;63.95;65.92;67.9;69.87;71.84;73.82;75.79;77.77;79.74;81.72;83.69;85.66;87.64;89.61;91.59;93.56;95.53;97.51;99.48;101.46;103.43;105.4;107.38;109.35;111.33;113.3;115.28;117.25;119.22;121.2;123.17;125.15;127.12;129.09;131.07;133.04;135.02;136.99;138.96;140.94;142.91;144.89;146.86;148.83;150.81;152.78;154.76;156.73;158.71;160.68;162.65;164.63;166.6;168.58;170.55;172.52;174.5;176.47;178.45;180.42;182.39;184.37;186.34;188.32;190.29;192.27;194.24;196.21;198.19;200.16;202.14;204.11;206.08;208.06;210.03;212.01;213.98;215.95;217.93;219.9;221.88;223.85;225.83;227.8;229.77;231.75;233.72;235.7;237.67;239.64;241.62;243.59;245.57;247.54;249.51;251.49;253.46;255.44;257.41;259.39;261.36;263.33;265.31;267.28;269.26;271.23;273.2;275.18;277.15;279.13;281.1;283.07;285.05;287.02;289.0;290.97;292.94;294.92;296.89;298.87;300.84;302.82;304.79;306.76;308.74;310.71;312.69;314.66;316.63;318.61;320.58;322.56;324.53;326.5;328.48;330.45;332.43;334.4;336.38;338.35;340.32;342.3;344.27;346.25;348.22;350.19;352.17;354.14;356.12;358.09;360.06;362.04;364.01;365.99;367.96;369.94;371.91;373.88;375.86;377.83;379.81;381.78;383.75;385.73;387.7;389.68;391.65;393.62;395.6;397.57;399.55;401.52;403.5;405.47;407.44;409.42;411.39;413.37;415.34;417.31;419.29;421.26;423.24;425.21;427.18;429.16;431.13;433.11;435.08;437.06;439.03;441.0;442.98;444.95;446.93;448.9;450.87;452.85;454.82;456.8;458.77;460.74;462.72;464.69;466.67;468.64;470.61;472.59;474.56;476.54;478.51;480.49;482.46;484.43;486.41;488.38;490.36;492.33;494.3;496.28;498.25;500.23;502.2;504.17;506.15;508.12;510.1;512.07;514.05;516.02;517.99;519.97;521.94;523.92;525.89;527.86;529.84;531.81;533.79;535.76;537.73;539.71;541.68;543.66;545.63;547.61;549.58;551.55;553.53;555.5;557.48;559.45;561.42;563.4;565.37;567.35;569.32;571.29;573.27;575.24;577.22;579.19;581.17;583.14;585.11;587.09;589.06;591.04;593.01;594.98;596.96;598.93;600.91;602.88;604.85;606.83;608.8;610.78;612.75;614.72;616.7;618.67;620.65;622.62;624.6;626.57;628.54;630.52;632.49;634.47;636.44;638.41;640.39;642.36;644.34;646.31;648.28;650.26;652.23;654.21;656.18;658.16;660.13;662.1;664.08;666.05;668.03;670.0" dur="8s" repeatCount="indefinite" calcMode="linear"/>
          <animate attributeName="cy" values="334.17;321.24;298.43;289.22;294.82;304.58;310.23;310.12;306.41;301.45;296.31;291.12;285.73;280.16;274.59;269.2;264.13;259.44;255.12;251.2;247.65;244.49;241.68;239.22;237.07;235.21;233.62;232.26;231.1;230.13;229.33;228.66;228.12;227.68;227.32;227.05;226.83;226.67;226.55;226.46;226.41;226.37;226.35;226.35;226.35;226.37;226.39;226.41;226.43;226.45;226.48;226.5;226.46;226.07;225.03;223.08;220.16;216.38;211.84;206.76;201.31;195.69;190.04;184.51;179.2;174.2;169.6;165.42;161.72;158.5;155.71;153.4;151.53;150.0;148.85;148.03;147.44;147.11;146.98;147.01;147.12;147.32;147.62;147.78;147.5;146.52;144.62;141.8;138.17;133.81;128.97;123.84;118.52;113.21;108.09;103.31;98.76;94.55;90.87;87.6;84.78;82.44;80.49;78.95;77.77;76.95;76.37;76.02;75.83;75.86;76.16;77.16;79.43;83.38;89.13;96.58;105.4;115.27;126.09;139.41;153.58;166.2;176.29;184.26;190.92;196.77;201.96;206.45;210.26;213.45;216.11;218.34;220.2;221.75;223.01;224.04;224.86;225.52;226.03;226.43;226.73;226.95;227.11;227.22;227.28;227.32;227.33;227.32;227.3;227.26;227.23;227.18;227.14;227.1;227.06;227.02;226.98;226.94;226.91;226.88;226.86;226.83;226.81;226.79;226.78;226.76;226.75;226.75;226.84;227.14;227.76;228.78;230.18;231.9;233.88;236.02;238.26;240.53;242.78;244.95;247.01;248.92;250.66;252.24;253.61;254.86;256.11;257.51;259.11;260.94;262.99;265.18;267.46;269.78;272.05;274.29;276.4;278.37;280.2;281.82;283.3;284.55;285.64;286.56;287.27;287.88;288.34;288.82;289.54;290.62;292.23;294.35;296.84;299.64;302.69;305.91;309.12;312.21;315.22;318.05;320.67;323.16;325.39;327.29;328.89;330.21;331.27;332.14;332.79;333.25;333.58;333.77;333.84;333.85;333.78;333.66;333.52;333.35;333.17;333.0;332.82;332.65;332.52;332.38;332.27;332.18;332.1;332.05;332.07;332.04;331.54;330.09;327.39;323.43;318.27;312.11;304.19;294.17;284.17;275.72;268.99;263.42;258.49;253.99;249.93;246.34;243.24;240.56;238.25;236.25;234.53;233.06;231.82;230.77;229.89;229.16;228.56;228.06;227.67;227.35;227.09;226.89;226.74;226.63;226.55;226.49;226.45;226.43;226.43;226.43;226.43;226.45;226.46;226.48;226.5;226.52;226.54;226.56;226.55;226.35;225.63;224.08;221.57;218.12;213.88;208.99;203.7;198.12;192.46;186.85" dur="8s" repeatCount="indefinite" calcMode="linear"/>
        </circle>
        <circle r="2" fill="white">
          <animate attributeName="cx" values="60.0;61.97;63.95;65.92;67.9;69.87;71.84;73.82;75.79;77.77;79.74;81.72;83.69;85.66;87.64;89.61;91.59;93.56;95.53;97.51;99.48;101.46;103.43;105.4;107.38;109.35;111.33;113.3;115.28;117.25;119.22;121.2;123.17;125.15;127.12;129.09;131.07;133.04;135.02;136.99;138.96;140.94;142.91;144.89;146.86;148.83;150.81;152.78;154.76;156.73;158.71;160.68;162.65;164.63;166.6;168.58;170.55;172.52;174.5;176.47;178.45;180.42;182.39;184.37;186.34;188.32;190.29;192.27;194.24;196.21;198.19;200.16;202.14;204.11;206.08;208.06;210.03;212.01;213.98;215.95;217.93;219.9;221.88;223.85;225.83;227.8;229.77;231.75;233.72;235.7;237.67;239.64;241.62;243.59;245.57;247.54;249.51;251.49;253.46;255.44;257.41;259.39;261.36;263.33;265.31;267.28;269.26;271.23;273.2;275.18;277.15;279.13;281.1;283.07;285.05;287.02;289.0;290.97;292.94;294.92;296.89;298.87;300.84;302.82;304.79;306.76;308.74;310.71;312.69;314.66;316.63;318.61;320.58;322.56;324.53;326.5;328.48;330.45;332.43;334.4;336.38;338.35;340.32;342.3;344.27;346.25;348.22;350.19;352.17;354.14;356.12;358.09;360.06;362.04;364.01;365.99;367.96;369.94;371.91;373.88;375.86;377.83;379.81;381.78;383.75;385.73;387.7;389.68;391.65;393.62;395.6;397.57;399.55;401.52;403.5;405.47;407.44;409.42;411.39;413.37;415.34;417.31;419.29;421.26;423.24;425.21;427.18;429.16;431.13;433.11;435.08;437.06;439.03;441.0;442.98;444.95;446.93;448.9;450.87;452.85;454.82;456.8;458.77;460.74;462.72;464.69;466.67;468.64;470.61;472.59;474.56;476.54;478.51;480.49;482.46;484.43;486.41;488.38;490.36;492.33;494.3;496.28;498.25;500.23;502.2;504.17;506.15;508.12;510.1;512.07;514.05;516.02;517.99;519.97;521.94;523.92;525.89;527.86;529.84;531.81;533.79;535.76;537.73;539.71;541.68;543.66;545.63;547.61;549.58;551.55;553.53;555.5;557.48;559.45;561.42;563.4;565.37;567.35;569.32;571.29;573.27;575.24;577.22;579.19;581.17;583.14;585.11;587.09;589.06;591.04;593.01;594.98;596.96;598.93;600.91;602.88;604.85;606.83;608.8;610.78;612.75;614.72;616.7;618.67;620.65;622.62;624.6;626.57;628.54;630.52;632.49;634.47;636.44;638.41;640.39;642.36;644.34;646.31;648.28;650.26;652.23;654.21;656.18;658.16;660.13;662.1;664.08;666.05;668.03;670.0" dur="8s" repeatCount="indefinite" calcMode="linear"/>
          <animate attributeName="cy" values="334.17;321.24;298.43;289.22;294.82;304.58;310.23;310.12;306.41;301.45;296.31;291.12;285.73;280.16;274.59;269.2;264.13;259.44;255.12;251.2;247.65;244.49;241.68;239.22;237.07;235.21;233.62;232.26;231.1;230.13;229.33;228.66;228.12;227.68;227.32;227.05;226.83;226.67;226.55;226.46;226.41;226.37;226.35;226.35;226.35;226.37;226.39;226.41;226.43;226.45;226.48;226.5;226.46;226.07;225.03;223.08;220.16;216.38;211.84;206.76;201.31;195.69;190.04;184.51;179.2;174.2;169.6;165.42;161.72;158.5;155.71;153.4;151.53;150.0;148.85;148.03;147.44;147.11;146.98;147.01;147.12;147.32;147.62;147.78;147.5;146.52;144.62;141.8;138.17;133.81;128.97;123.84;118.52;113.21;108.09;103.31;98.76;94.55;90.87;87.6;84.78;82.44;80.49;78.95;77.77;76.95;76.37;76.02;75.83;75.86;76.16;77.16;79.43;83.38;89.13;96.58;105.4;115.27;126.09;139.41;153.58;166.2;176.29;184.26;190.92;196.77;201.96;206.45;210.26;213.45;216.11;218.34;220.2;221.75;223.01;224.04;224.86;225.52;226.03;226.43;226.73;226.95;227.11;227.22;227.28;227.32;227.33;227.32;227.3;227.26;227.23;227.18;227.14;227.1;227.06;227.02;226.98;226.94;226.91;226.88;226.86;226.83;226.81;226.79;226.78;226.76;226.75;226.75;226.84;227.14;227.76;228.78;230.18;231.9;233.88;236.02;238.26;240.53;242.78;244.95;247.01;248.92;250.66;252.24;253.61;254.86;256.11;257.51;259.11;260.94;262.99;265.18;267.46;269.78;272.05;274.29;276.4;278.37;280.2;281.82;283.3;284.55;285.64;286.56;287.27;287.88;288.34;288.82;289.54;290.62;292.23;294.35;296.84;299.64;302.69;305.91;309.12;312.21;315.22;318.05;320.67;323.16;325.39;327.29;328.89;330.21;331.27;332.14;332.79;333.25;333.58;333.77;333.84;333.85;333.78;333.66;333.52;333.35;333.17;333.0;332.82;332.65;332.52;332.38;332.27;332.18;332.1;332.05;332.07;332.04;331.54;330.09;327.39;323.43;318.27;312.11;304.19;294.17;284.17;275.72;268.99;263.42;258.49;253.99;249.93;246.34;243.24;240.56;238.25;236.25;234.53;233.06;231.82;230.77;229.89;229.16;228.56;228.06;227.67;227.35;227.09;226.89;226.74;226.63;226.55;226.49;226.45;226.43;226.43;226.43;226.43;226.45;226.46;226.48;226.5;226.52;226.54;226.56;226.55;226.35;225.63;224.08;221.57;218.12;213.88;208.99;203.7;198.12;192.46;186.85" dur="8s" repeatCount="indefinite" calcMode="linear"/>
        </circle>
      </g>

      <g class="legend" transform="translate(195.0, 20)">
        <rect x="0" y="-14" width="310" height="28" rx="14" fill="rgba(20, 15, 35, 0.8)" stroke="rgba(0, 229, 204, 0.4)" stroke-width="1"/>
        <line x1="20" y1="0" x2="45" y2="0" stroke="rgba(255,255,255,0.4)" stroke-width="2" stroke-dasharray="4 3"/>
        <text x="55" y="4" font-size="11" font-weight="600" fill="rgba(255,255,255,0.7)" font-family="system-ui, sans-serif">Perfect Trajectory</text>
        <line x1="175" y1="-6" x2="175" y2="6" stroke="rgba(255,255,255,0.2)" stroke-width="1"/>
        <line x1="190" y1="0" x2="215" y2="0" stroke="url(#trail-grad-e)" stroke-width="3" stroke-linecap="round"/>
        <text x="225" y="4" font-size="11" font-weight="bold" fill="#ff00cc" font-family="system-ui, sans-serif">Error</text>
      </g>
    </svg>