<svg xmlns="http://www.w3.org/2000/svg" viewBox="0 0 700 600" width="100%" class="trajectory-svg">
      <defs>
        <linearGradient id="trail-grad-t" x1="63.5" y1="0" x2="624.5" y2="0" gradientUnits="userSpaceOnUse">
          <stop offset="0%" stop-color="#aa00ff"/><stop offset="100%" stop-color="#ff00cc"/>
        </linearGradient>
      </defs>

      <rect width="700" height="600" fill="#0d0a1a"/>
      <g class="grid"><line x1="60" y1="60" x2="60" y2="540" stroke="rgba(0,229,204,1)" stroke-width="0.5" opacity="0.06"/>
<line x1="156" y1="60" x2="156" y2="540" stroke="rgba(0,229,204,1)" stroke-width="0.5" opacity="0.06"/>
<line x1="253" y1="60" x2="253" y2="540" stroke="rgba(0,229,204,1)" stroke-width="0.5" opacity="0.06"/>
<line x1="350" y1="60" x2="350" y2="540" stroke="rgba(0,229,204,1)" stroke-width="0.5" opacity="0.06"/>
<line x1="446" y1="60" x2="446" y2="540" stroke="rgba(0,229,204,1)" stroke-width="0.5" opacity="0.06"/>
<line x1="543" y1="60" x2="543" y2="540" stroke="rgba(0,229,204,1)" stroke-width="0.5" opacity="0.06"/>
<line x1="640" y1="60" x2="640" y2="540" stroke="rgba(0,229,204,1)" stroke-width="0.5" opacity="0.06"/>
<line x1="60" y1="60" x2="640" y2="60" stroke="rgba(0,229,204,1)" stroke-width="0.5" opacity="0.18"/>
<line x1="60" y1="140" x2="640" y2="140" stroke="rgba(0,229,204,1)" stroke-width="0.5" opacity="0.18"/>
<line x1="60" y1="220" x2="640" y2="220" stroke="rgba(0,229,204,1)" stroke-width="0.5" opacity="0.18"/>
<line x1="60" y1="300" x2="640" y2="300" stroke="rgba(0,229,204,1)" stroke-width="0.5" opacity="0.18"/>
<line x1="60" y1="380" x2="640" y2="380" stroke="rgba(0,229,204,1)" stroke-width="0.5" opacity="0.18"/>
<line x1="60" y1="460" x2="640" y2="460" stroke="rgba(0,229,204,1)" stroke-width="0.5" opacity="0.18"/>
<line x1="60" y1="540" x2="640" y2="540" stroke="rgba(0,229,204,1)" stroke-width="0.5" opacity="0.18"/>
</g>
      <rect x="60" y="60" width="580" height="480" fill="none" stroke="rgba(0,229,204,0.15)" stroke-width="0.75" rx="4"/>

      <path d="M 60.0,93.88 L 60.82,93.88 L 61.64,93.88 L 62.45,93.88 L 63.27,93.88 L 64.09,93.88 L 64.91,93.88 L 65.72,93.88 L 66.54,93.88 L 67.36,93.88 L 68.18,93.88 L 68.99,93.88 L 69.81,93.88 L 70.63,93.88 L 71.45,93.88 L 72.26,93.88 L 73.08,93.88 L 73.9,93.88 L 74.72,93.88 L 75.53,93.88 L 76.35,93.88 L 77.17,93.88 L 77.99,93.88 L 78.8,93.88 L 79.62,93.88 L 80.44,93.88 L 81.26,93.88 L 82.08,93.88 L 82.89,93.88 L 83.71,93.88 L 84.53,93.88 L 85.35,93.88 L 86.16,93.88 L 86.98,93.88 L 87.8,93.88 L 88.62,93.88 L 89.43,93.88 L 90.25,93.88 L 91.07,93.88 L 91.89,93.88 L 92.7,93.88 L 93.52,93.88 L 94.34,93.88 L 95.16,93.88 L 95.97,93.88 L 96.79,93.88 L 97.61,93.88 L 98.43,93.88 L 99.25,93.88 L 100.06,93.88 L 100.88,93.88 L 101.7,93.88 L 102.52,93.88 L 103.33,93.88 L 104.15,93.88 L 104.97,93.88 L 105.79,93.88 L 106.6,93.88 L 107.42,93.88 L 108.24,93.88 L 109.06,93.88 L 109.87,93.88 L 110.69,93.88 L 111.51,93.88 L 112.33,93.88 L 113.14,93.88 L 113.96,93.88 L 114.78,93.88 L 115.6,93.88 L 116.41,93.88 L 117.23,93.88 L 118.05,93.88 L 118.87,93.88 L 119.69,93.88 L 120.5,93.88 L 121.32,93.88 L 122.14,93.88 L 122.96,93.88 L 123.77,93.88 L 124.59,93.88 L 125.41,93.88 L 126.23,93.88 L 127.04,93.88 L 127.86,93.88 L 128.68,93.88 L 129.5,93.88 L 130.31,93.88 L 131.13,93.88 L 131.95,93.88 L 132.77,93.88 L 133.58,93.88 L 134.4,93.88 L 135.22,93.88 L 136.04,93.88 L 136.85,93.88 L 137.67,93.88 L 138.49,93.88 L 139.31,93.88 L 140.13,93.88 L 140.94,93.88 L 141.76,93.88 L 142.58,93.88 L 143.4,93.88 L 144.21,93.88 L 145.03,93.88 L 145.85,93.88 L 146.67,93.88 L 147.48,93.88 L 148.3,93.88 L 149.12,93.88 L 149.94,93.88 L 150.75,93.88 L 151.57,93.88 L 152.39,93.88 L 153.21,93.88 L 154.02,93.88 L 154.84,93.88 L 155.66,93.88 L 156.48,93.88 L 157.3,93.88 L 158.11,93.88 L 158.93,93.88 L 159.75,93.88 L 160.57,93.88 L 161.38,93.88 L 162.2,93.88 L 163.02,93.88 L 163.84,93.88 L 164.65,93.88 L 165.47,93.88 L 166.29,93.88 L 167.11,93.88 L 167.92,93.88 L 168.74,93.88 L 169.56,93.88 L 170.38,93.88 L 171.19,93.88 L 172.01,93.88 L 172.83,93.88 L 173.65,93.88 L 174.46,93.88 L 175.28,93.88 L 176.1,93.88 L 176.92,93.88 L 177.74,93.88 L 178.55,93.88 L 179.37,93.88 L 180.19,93.88 L 181.01,93.88 L 181.82,93.88 L 182.64,93.88 L 183.46,93.88 L 184.28,93.88 L 185.09,93.88 L 185.91,93.88 L 186.73,93.88 L 187.55,93.88 L 188.36,93.88 L 189.18,93.88 L 190.0,93.88 L 190.82,93.88 L 191.63,93.88 L 192.45,93.88 L 193.27,93.88 L 194.09,93.88 L 194.9,93.88 L 195.72,93.88 L 196.54,93.88 L 197.36,93.88 L 198.18,93.88 L 198.99,93.88 L 199.81,93.88 L 200.63,93.88 L 201.45,93.88 L 202.26,93.88 L 203.08,93.88 L 203.9,93.88 L 204.72,93.88 L 205.53,93.88 L 206.35,93.88 L 207.17,93.88 L 207.99,93.88 L 208.8,93.88 L 209.62,93.88 L 210.44,93.88 L 211.26,93.88 L 212.07,93.88 L 212.89,93.88 L 213.71,93.88 L 214.53,93.88 L 215.35,93.88 L 216.16,93.88 L 216.98,93.89 L 217.8,93.89 L 218.62,93.9 L 219.43,93.91 L 220.25,93.92 L 221.07,93.94 L 221.89,93.97 L 222.7,93.99 L 223.52,94.03 L 224.34,94.06 L 225.15,94.1 L 225.97,94.15 L 226.78,94.2 L 227.6,94.25 L 228.42,94.31 L 229.23,94.37 L 230.05,94.44 L 230.86,94.51 L 231.67,94.59 L 232.49,94.67 L 233.3,94.75 L 234.11,94.84 L 234.93,94.94 L 235.74,95.03 L 236.55,95.14 L 237.36,95.24 L 238.17,95.35 L 238.98,95.47 L 239.79,95.59 L 240.6,95.71 L 241.4,95.84 L 242.21,95.97 L 243.02,96.1 L 243.82,96.24 L 244.63,96.39 L 245.43,96.54 L 246.24,96.69 L 247.04,96.85 L 247.84,97.01 L 248.64,97.18 L 249.44,97.35 L 250.24,97.52 L 251.04,97.7 L 251.83,97.88 L 252.63,98.07 L 253.42,98.26 L 254.22,98.45 L 255.01,98.65 L 255.8,98.86 L 256.59,99.07 L 257.38,99.28 L 258.17,99.49 L 258.96,99.72 L 259.74,99.94 L 260.53,100.17 L 261.31,100.4 L 262.1,100.64 L 262.88,100.88 L 263.66,101.13 L 264.44,101.38 L 265.21,101.63 L 265.99,101.89 L 266.76,102.15 L 267.54,102.42 L 268.31,102.69 L 269.08,102.96 L 269.85,103.24 L 270.61,103.52 L 271.38,103.81 L 272.14,104.1 L 272.91,104.39 L 273.67,104.69 L 274.43,104.99 L 275.18,105.3 L 275.94,105.61 L 276.7,105.93 L 277.45,106.25 L 278.2,106.57 L 278.95,106.89 L 279.7,107.23 L 280.44,107.56 L 281.19,107.9 L 281.93,108.24 L 282.67,108.59 L 283.41,108.94 L 284.15,109.29 L 284.88,109.65 L 285.61,110.01 L 286.35,110.38 L 287.07,110.75 L 287.8,111.12 L 288.53,111.5 L 289.25,111.88 L 289.97,112.27 L 290.69,112.65 L 291.41,113.05 L 292.12,113.44 L 292.84,113.84 L 293.55,114.25 L 294.25,114.66 L 294.96,115.07 L 295.66,115.48 L 296.37,115.9 L 297.07,116.33 L 297.76,116.75 L 298.46,117.19 L 299.15,117.63 L 299.83,118.07 L 300.51,118.53 L 301.19,118.99 L 301.86,119.46 L 302.52,119.93 L 303.18,120.42 L 303.84,120.91 L 304.48,121.4 L 305.13,121.91 L 305.77,122.42 L 306.4,122.93 L 307.03,123.46 L 307.65,123.99 L 308.27,124.53 L 308.88,125.07 L 309.48,125.62 L 310.08,126.18 L 310.67,126.74 L 311.26,127.31 L 311.84,127.89 L 312.41,128.47 L 312.98,129.06 L 313.54,129.65 L 314.1,130.25 L 314.65,130.86 L 315.19,131.47 L 315.72,132.09 L 316.25,132.71 L 316.78,133.34 L 317.29,133.97 L 317.8,134.61 L 318.3,135.26 L 318.8,135.91 L 319.29,136.57 L 319.77,137.23 L 320.24,137.89 L 320.71,138.56 L 321.17,139.24 L 321.62,139.92 L 322.07,140.61 L 322.5,141.3 L 322.93,141.99 L 323.36,142.69 L 323.77,143.4 L 324.18,144.11 L 324.58,144.82 L 324.97,145.54 L 325.36,146.26 L 325.73,146.98 L 326.1,147.71 L 326.47,148.45 L 326.82,149.18 L 327.16,149.92 L 327.5,150.67 L 327.83,151.42 L 328.15,152.17 L 328.47,152.92 L 328.77,153.68 L 329.07,154.44 L 329.36,155.21 L 329.64,155.97 L 329.92,156.75 L 330.18,157.52 L 330.44,158.3 L 330.69,159.07 L 330.93,159.86 L 331.16,160.64 L 331.38,161.43 L 331.59,162.22 L 331.8,163.01 L 332.0,163.8 L 332.19,164.6 L 332.37,165.39 L 332.54,166.19 L 332.7,166.99 L 332.86,167.8 L 333.01,168.6 L 333.14,169.41 L 333.27,170.21 L 333.39,171.02 L 333.51,171.83 L 333.61,172.64 L 333.7,173.45 L 333.79,174.27 L 333.87,175.08 L 333.94,175.9 L 334.0,176.71 L 334.05,177.53 L 334.1,178.34 L 334.15,179.16 L 334.2,179.98 L 334.24,180.79 L 334.29,181.61 L 334.34,182.43 L 334.38,183.24 L 334.43,184.06 L 334.48,184.87 L 334.52,185.69 L 334.57,186.51 L 334.62,187.32 L 334.67,188.14 L 334.71,188.96 L 334.76,189.77 L 334.81,190.59 L 334.85,191.4 L 334.9,192.22 L 334.95,193.04 L 335.0,193.85 L 335.04,194.67 L 335.09,195.48 L 335.14,196.3 L 335.19,197.12 L 335.23,197.93 L 335.28,198.75 L 335.33,199.57 L 335.37,200.38 L 335.42,201.2 L 335.47,202.01 L 335.52,202.83 L 335.56,203.65 L 335.61,204.46 L 335.66,205.28 L 335.7,206.1 L 335.75,206.91 L 335.8,207.73 L 335.85,208.54 L 335.89,209.36 L 335.94,210.18 L 335.99,210.99 L 336.03,211.81 L 336.08,212.63 L 336.13,213.44 L 336.18,214.26 L 336.22,215.07 L 336.27,215.89 L 336.32,216.71 L 336.37,217.52 L 336.41,218.34 L 336.46,219.16 L 336.51,219.97 L 336.55,220.79 L 336.6,221.6 L 336.65,222.42 L 336.7,223.24 L 336.74,224.05 L 336.79,224.87 L 336.84,225.69 L 336.88,226.5 L 336.93,227.32 L 336.98,228.13 L 337.03,228.95 L 337.07,229.77 L 337.12,230.58 L 337.17,231.4 L 337.22,232.22 L 337.26,233.03 L 337.31,233.85 L 337.36,234.66 L 337.4,235.48 L 337.45,236.3 L 337.5,237.11 L 337.55,237.93 L 337.59,238.75 L 337.64,239.56 L 337.69,240.38 L 337.73,241.19 L 337.78,242.01 L 337.83,242.83 L 337.88,243.64 L 337.92,244.46 L 337.97,245.28 L 338.02,246.09 L 338.06,246.91 L 338.11,247.72 L 338.16,248.54 L 338.21,249.36 L 338.25,250.17 L 338.3,250.99 L 338.35,251.81 L 338.4,252.62 L 338.44,253.44 L 338.49,254.25 L 338.54,255.07 L 338.58,255.89 L 338.63,256.7 L 338.68,257.52 L 338.73,258.34 L 338.77,259.15 L 338.82,259.97 L 338.87,260.78 L 338.91,261.6 L 338.96,262.42 L 339.01,263.23 L 339.06,264.05 L 339.1,264.87 L 339.15,265.68 L 339.2,266.5 L 339.25,267.31 L 339.29,268.13 L 339.34,268.95 L 339.39,269.76 L 339.43,270.58 L 339.48,271.4 L 339.53,272.21 L 339.58,273.03 L 339.62,273.84 L 339.67,274.66 L 339.72,275.48 L 339.76,276.29 L 339.81,277.11 L 339.86,277.93 L 339.91,278.74 L 339.95,279.56 L 340.0,280.37 L 340.05,281.19 L 340.09,282.01 L 340.14,282.82 L 340.19,283.64 L 340.24,284.46 L 340.28,285.27 L 340.33,286.09 L 340.38,286.9 L 340.43,287.72 L 340.47,288.54 L 340.52,289.35 L 340.57,290.17 L 340.61,290.99 L 340.66,291.8 L 340.71,292.62 L 340.76,293.43 L 340.8,294.25 L 340.85,295.07 L 340.9,295.88 L 340.94,296.7 L 340.99,297.52 L 341.04,298.33 L 341.09,299.15 L 341.13,299.96 L 341.18,300.78 L 341.23,301.6 L 341.28,302.41 L 341.32,303.23 L 341.37,304.05 L 341.42,304.86 L 341.46,305.68 L 341.51,306.49 L 341.56,307.31 L 341.61,308.13 L 341.65,308.94 L 341.7,309.76 L 341.75,310.58 L 341.79,311.39 L 341.84,312.21 L 341.89,313.02 L 341.94,313.84 L 341.98,314.66 L 342.03,315.47 L 342.08,316.29 L 342.12,317.1 L 342.17,317.92 L 342.22,318.74 L 342.27,319.55 L 342.31,320.37 L 342.36,321.19 L 342.41,322.0 L 342.46,322.82 L 342.5,323.63 L 342.55,324.45 L 342.6,325.27 L 342.64,326.08 L 342.69,326.9 L 342.74,327.72 L 342.79,328.53 L 342.83,329.35 L 342.88,330.16 L 342.93,330.98 L 342.97,331.8 L 343.02,332.61 L 343.07,333.43 L 343.12,334.25 L 343.16,335.06 L 343.21,335.88 L 343.26,336.69 L 343.31,337.51 L 343.35,338.33 L 343.4,339.14 L 343.46,339.96 L 343.51,340.78 L 343.56,341.59 L 343.62,342.41 L 343.68,343.22 L 343.74,344.04 L 343.8,344.85 L 343.86,345.67 L 343.93,346.48 L 344.0,347.3 L 344.07,348.11 L 344.14,348.93 L 344.21,349.74 L 344.28,350.56 L 344.36,351.37 L 344.44,352.18 L 344.52,353.0 L 344.6,353.81 L 344.68,354.62 L 344.76,355.44 L 344.85,356.25 L 344.94,357.06 L 345.03,357.88 L 345.12,358.69 L 345.21,359.5 L 345.31,360.31 L 345.4,361.12 L 345.5,361.94 L 345.6,362.75 L 345.7,363.56 L 345.8,364.37 L 345.91,365.18 L 346.02,365.99 L 346.12,366.8 L 346.23,367.61 L 346.35,368.42 L 346.46,369.23 L 346.57,370.04 L 346.69,370.85 L 346.81,371.66 L 346.93,372.47 L 347.05,373.28 L 347.18,374.09 L 347.3,374.89 L 347.43,375.7 L 347.56,376.51 L 347.69,377.32 L 347.82,378.12 L 347.96,378.93 L 348.09,379.73 L 348.23,380.54 L 348.37,381.35 L 348.51,382.15 L 348.65,382.96 L 348.8,383.76 L 348.94,384.57 L 349.09,385.37 L 349.24,386.17 L 349.4,386.98 L 349.55,387.78 L 349.71,388.58 L 349.88,389.38 L 350.04,390.18 L 350.21,390.98 L 350.39,391.78 L 350.57,392.58 L 350.75,393.38 L 350.93,394.17 L 351.12,394.97 L 351.31,395.76 L 351.5,396.56 L 351.7,397.35 L 351.9,398.14 L 352.11,398.94 L 352.31,399.73 L 352.53,400.52 L 352.74,401.3 L 352.96,402.09 L 353.18,402.88 L 353.4,403.67 L 353.63,404.45 L 353.86,405.24 L 354.1,406.02 L 354.33,406.8 L 354.57,407.58 L 354.82,408.36 L 355.07,409.14 L 355.32,409.92 L 355.57,410.7 L 355.83,411.47 L 356.09,412.25 L 356.35,413.02 L 356.62,413.79 L 356.89,414.57 L 357.17,415.34 L 357.44,416.11 L 357.72,416.87 L 358.01,417.64 L 358.3,418.41 L 358.59,419.17 L 358.88,419.93 L 359.18,420.7 L 359.48,421.46 L 359.78,422.22 L 360.08,422.97 L 360.39,423.73 L 360.71,424.49 L 361.02,425.24 L 361.34,425.99 L 361.66,426.74 L 361.99,427.49 L 362.32,428.24 L 362.65,428.99 L 362.99,429.74 L 363.32,430.48 L 363.67,431.22 L 364.01,431.96 L 364.36,432.7 L 364.71,433.44 L 365.06,434.18 L 365.42,434.92 L 365.78,435.65 L 366.14,436.38 L 366.51,437.11 L 366.88,437.84 L 367.25,438.57 L 367.63,439.3 L 368.0,440.02 L 368.39,440.74 L 368.77,441.47 L 369.16,442.18 L 369.55,442.9 L 369.95,443.62 L 370.35,444.33 L 370.76,445.04 L 371.17,445.74 L 371.59,446.44 L 372.02,447.14 L 372.44,447.84 L 372.88,448.53 L 373.32,449.22 L 373.76,449.91 L 374.21,450.59 L 374.67,451.27 L 375.13,451.95 L 375.59,452.62 L 376.06,453.29 L 376.53,453.96 L 377.01,454.62 L 377.5,455.28 L 377.99,455.93 L 378.48,456.58 L 378.98,457.23 L 379.48,457.87 L 379.99,458.51 L 380.51,459.15 L 381.02,459.78 L 381.55,460.41 L 382.07,461.04 L 382.61,461.66 L 383.14,462.27 L 383.68,462.89 L 384.23,463.5 L 384.78,464.1 L 385.34,464.7 L 385.89,465.3 L 386.46,465.89 L 387.03,466.48 L 387.6,467.06 L 388.18,467.64 L 388.76,468.22 L 389.34,468.79 L 389.93,469.35 L 390.52,469.92 L 391.12,470.47 L 391.72,471.03 L 392.33,471.58 L 392.94,472.12 L 393.56,472.66 L 394.17,473.2 L 394.8,473.73 L 395.42,474.25 L 396.05,474.77 L 396.69,475.29 L 397.32,475.8 L 397.96,476.31 L 398.61,476.81 L 399.26,477.31 L 399.91,477.8 L 400.57,478.29 L 401.23,478.77 L 401.89,479.25 L 402.56,479.72 L 403.23,480.19 L 403.9,480.65 L 404.58,481.11 L 405.26,481.56 L 405.94,482.01 L 406.63,482.45 L 407.32,482.89 L 408.02,483.32 L 408.71,483.75 L 409.41,484.17 L 410.12,484.59 L 410.82,485.0 L 411.53,485.41 L 412.25,485.81 L 412.96,486.2 L 413.68,486.59 L 414.4,486.98 L 415.13,487.36 L 415.85,487.73 L 416.58,488.1 L 417.31,488.46 L 418.05,488.82 L 418.79,489.17 L 419.53,489.52 L 420.27,489.86 L 421.02,490.2 L 421.76,490.53 L 422.51,490.85 L 423.27,491.17 L 424.02,491.49 L 424.78,491.79 L 425.54,492.1 L 426.3,492.39 L 427.07,492.68 L 427.83,492.97 L 428.6,493.25 L 429.37,493.52 L 430.14,493.79 L 430.92,494.05 L 431.69,494.31 L 432.47,494.56 L 433.25,494.8 L 434.03,495.04 L 434.82,495.28 L 435.6,495.5 L 436.39,495.72 L 437.18,495.94 L 437.97,496.15 L 438.76,496.35 L 439.55,496.55 L 440.35,496.74 L 441.14,496.93 L 441.94,497.11 L 442.74,497.29 L 443.54,497.45 L 444.34,497.62 L 445.15,497.77 L 445.95,497.92 L 446.75,498.07 L 447.56,498.21 L 448.37,498.34 L 449.17,498.46 L 449.98,498.59 L 450.79,498.7 L 451.6,498.81 L 452.41,498.91 L 453.23,499.01 L 454.04,499.1 L 454.85,499.18 L 455.67,499.26 L 456.48,499.33 L 457.29,499.4 L 458.11,499.46 L 458.93,499.51 L 459.74,499.56 L 460.56,499.6 L 461.38,499.64 L 462.19,499.67 L 463.01,499.69 L 463.83,499.71 L 464.64,499.72 L 465.46,499.73 L 466.28,499.74 L 467.1,499.75 L 467.91,499.76 L 468.73,499.77 L 469.55,499.77 L 470.37,499.78 L 471.19,499.79 L 472.0,499.8 L 472.82,499.81 L 473.64,499.82 L 474.46,499.83 L 475.27,499.83 L 476.09,499.84 L 476.91,499.85 L 477.73,499.86 L 478.54,499.87 L 479.36,499.88 L 480.18,499.89 L 481.0,499.89 L 481.81,499.9 L 482.63,499.91 L 483.45,499.92 L 484.27,499.93 L 485.08,499.94 L 485.9,499.95 L 486.72,499.95 L 487.54,499.96 L 488.35,499.97 L 489.17,499.98 L 489.99,499.99 L 490.81,500.0 L 491.62,500.01 L 492.44,500.01 L 493.26,500.02 L 494.08,500.03 L 494.89,500.04 L 495.71,500.05 L 496.53,500.06 L 497.35,500.07 L 498.16,500.07 L 498.98,500.08 L 499.8,500.09 L 500.62,500.1 L 501.43,500.11 L 502.25,500.12 L 503.07,500.13 L 503.89,500.13 L 504.71,500.14 L 505.52,500.15 L 506.34,500.16 L 507.16,500.17 L 507.98,500.18 L 508.79,500.19 L 509.61,500.19 L 510.43,500.2 L 511.25,500.21 L 512.06,500.22 L 512.88,500.23 L 513.7,500.24 L 514.52,500.25 L 515.33,500.25 L 516.15,500.26 L 516.97,500.27 L 517.79,500.28 L 518.6,500.29 L 519.42,500.3 L 520.24,500.31 L 521.06,500.31 L 521.87,500.32 L 522.69,500.33 L 523.51,500.34 L 524.33,500.35 L 525.14,500.36 L 525.96,500.36 L 526.78,500.37 L 527.6,500.38 L 528.41,500.39 L 529.23,500.4 L 530.05,500.41 L 530.87,500.42 L 531.68,500.42 L 532.5,500.43 L 533.32,500.44 L 534.14,500.45 L 534.95,500.46 L 535.77,500.47 L 536.59,500.48 L 537.41,500.48 L 538.23,500.49 L 539.04,500.5 L 539.86,500.51 L 540.68,500.52 L 541.5,500.53 L 542.31,500.54 L 543.13,500.54 L 543.95,500.55 L 544.77,500.56 L 545.58,500.57 L 546.4,500.58 L 547.22,500.59 L 548.04,500.6 L 548.85,500.6 L 549.67,500.61 L 550.49,500.62 L 551.31,500.63 L 552.12,500.64 L 552.94,500.65 L 553.76,500.66 L 554.58,500.66 L 555.39,500.67 L 556.21,500.68 L 557.03,500.69 L 557.85,500.7 L 558.66,500.71 L 559.48,500.72 L 560.3,500.72 L 561.12,500.73 L 561.93,500.74 L 562.75,500.75 L 563.57,500.76 L 564.39,500.77 L 565.2,500.78 L 566.02,500.78 L 566.84,500.79 L 567.66,500.8 L 568.47,500.81 L 569.29,500.82 L 570.11,500.83 L 570.93,500.84 L 571.75,500.84 L 572.56,500.85 L 573.38,500.86 L 574.2,500.87 L 575.02,500.88 L 575.83,500.89 L 576.65,500.9 L 577.47,500.9 L 578.29,500.91 L 579.1,500.92 L 579.92,500.93 L 580.74,500.94 L 581.56,500.95 L 582.37,500.96 L 583.19,500.96 L 584.01,500.97 L 584.83,500.98 L 585.64,500.99 L 586.46,501.0 L 587.28,501.01 L 588.1,501.02 L 588.91,501.02 L 589.73,501.03 L 590.55,501.04 L 591.37,501.05 L 592.18,501.06 L 593.0,501.07 L 593.82,501.08 L 594.64,501.08 L 595.45,501.09 L 596.27,501.1 L 597.09,501.11 L 597.91,501.12 L 598.72,501.13 L 599.54,501.14 L 600.36,501.14 L 601.18,501.15 L 601.99,501.16 L 602.81,501.17 L 603.63,501.18 L 604.45,501.2 L 605.26,501.22 L 606.08,501.24 L 606.9,501.27 L 607.72,501.3 L 608.53,501.34 L 609.35,501.38 L 610.17,501.43 L 610.98,501.48 L 611.8,501.53 L 612.61,501.59 L 613.43,501.65 L 614.24,501.72 L 615.06,501.79 L 615.87,501.87 L 616.69,501.95 L 617.5,502.03 L 618.31,502.12 L 619.12,502.21 L 619.94,502.31 L 620.75,502.41 L 621.56,502.52 L 622.37,502.63 L 623.18,502.74 L 623.99,502.86 L 624.79,502.98 L 625.6,503.11 L 626.41,503.24 L 627.22,503.38 L 628.02,503.52 L 628.83,503.66 L 629.63,503.81 L 630.43,503.96 L 631.23,504.12 L 632.04,504.28 L 632.84,504.45 L 633.64,504.62 L 634.44,504.79 L 635.23,504.97 L 636.03,505.15 L 636.83,505.34 L 637.62,505.53 L 638.42,505.73 L 639.21,505.93 L 640.0,506.13" fill="none" stroke="rgba(255,255,255,0.38)" stroke-width="1.3" stroke-dasharray="8 5"/>

      <path d="M 63.5,97.39 L 66.26,96.97 L 68.97,96.22 L 71.75,95.92 L 74.54,96.11 L 77.33,96.42 L 80.13,96.61 L 82.93,96.6 L 85.73,96.48 L 88.53,96.32 L 91.33,96.15 L 94.12,95.98 L 96.92,95.81 L 99.72,95.63 L 102.52,95.45 L 105.31,95.27 L 108.11,95.1 L 110.91,94.95 L 113.71,94.81 L 116.51,94.68 L 119.31,94.57 L 122.11,94.46 L 124.92,94.37 L 127.72,94.29 L 130.52,94.22 L 133.32,94.16 L 136.12,94.11 L 138.93,94.06 L 141.73,94.03 L 144.53,94.0 L 147.34,93.97 L 150.14,93.95 L 152.94,93.93 L 155.75,93.92 L 158.55,93.9 L 161.35,93.9 L 164.16,93.89 L 166.96,93.88 L 169.76,93.88 L 172.57,93.88 L 175.37,93.87 L 178.17,93.87 L 180.98,93.87 L 183.78,93.87 L 186.58,93.87 L 189.38,93.87 L 192.19,93.87 L 194.99,93.87 L 197.79,93.88 L 200.6,93.88 L 203.4,93.88 L 206.2,93.88 L 209.01,93.88 L 211.81,93.88 L 214.61,93.88 L 217.42,93.87 L 220.22,93.87 L 223.02,93.88 L 225.83,93.9 L 228.63,93.94 L 231.43,94.02 L 234.23,94.14 L 237.03,94.31 L 239.83,94.53 L 242.62,94.8 L 245.4,95.13 L 248.17,95.52 L 250.94,95.98 L 253.69,96.5 L 256.44,97.08 L 259.16,97.73 L 261.88,98.44 L 264.57,99.21 L 267.25,100.04 L 269.91,100.93 L 272.54,101.88 L 275.16,102.88 L 277.76,103.94 L 280.33,105.05 L 282.88,106.21 L 285.41,107.41 L 287.92,108.67 L 290.4,109.97 L 292.86,111.32 L 295.3,112.71 L 297.71,114.14 L 300.09,115.62 L 302.44,117.14 L 304.77,118.71 L 307.05,120.33 L 309.29,122.02 L 311.48,123.77 L 313.61,125.59 L 315.67,127.49 L 317.67,129.45 L 319.59,131.5 L 321.43,133.61 L 323.19,135.79 L 324.86,138.04 L 326.44,140.36 L 327.92,142.74 L 329.31,145.17 L 330.6,147.66 L 331.8,150.2 L 332.89,152.78 L 333.88,155.4 L 334.77,158.06 L 335.56,160.75 L 336.26,163.46 L 336.85,166.2 L 337.34,168.96 L 337.74,171.74 L 338.03,174.52 L 338.21,177.32 L 338.31,180.12 L 338.32,182.93 L 338.26,185.73 L 338.15,188.53 L 338.0,191.33 L 337.76,194.12 L 337.48,196.91 L 337.25,199.7 L 337.1,202.5 L 337.01,205.3 L 336.96,208.11 L 336.94,210.91 L 336.94,213.71 L 336.96,216.52 L 337.0,219.32 L 337.06,222.12 L 337.13,224.92 L 337.22,227.73 L 337.33,230.53 L 337.44,233.33 L 337.56,236.13 L 337.69,238.93 L 337.82,241.73 L 337.97,244.53 L 338.11,247.33 L 338.26,250.13 L 338.41,252.93 L 338.57,255.73 L 338.72,258.53 L 338.88,261.32 L 339.04,264.12 L 339.2,266.92 L 339.36,269.72 L 339.53,272.52 L 339.69,275.32 L 339.85,278.12 L 340.01,280.91 L 340.18,283.71 L 340.34,286.51 L 340.5,289.31 L 340.67,292.11 L 340.83,294.91 L 340.99,297.7 L 341.16,300.5 L 341.32,303.3 L 341.48,306.1 L 341.65,308.9 L 341.81,311.7 L 341.97,314.5 L 342.13,317.29 L 342.3,320.09 L 342.46,322.89 L 342.62,325.69 L 342.78,328.49 L 342.94,331.29 L 343.11,334.08 L 343.27,336.88 L 343.43,339.68 L 343.59,342.48 L 343.76,345.28 L 343.93,348.08 L 344.12,350.87 L 344.32,353.67 L 344.54,356.46 L 344.78,359.26 L 345.05,362.05 L 345.33,364.84 L 345.64,367.62 L 345.98,370.41 L 346.34,373.19 L 346.72,375.96 L 347.14,378.73 L 347.57,381.5 L 348.04,384.27 L 348.52,387.03 L 349.04,389.78 L 349.58,392.54 L 350.15,395.28 L 350.76,398.02 L 351.4,400.74 L 352.08,403.46 L 352.8,406.17 L 353.56,408.87 L 354.37,411.56 L 355.22,414.23 L 356.11,416.88 L 357.04,419.53 L 358.02,422.15 L 359.04,424.76 L 360.11,427.36 L 361.21,429.93 L 362.36,432.49 L 363.55,435.03 L 364.78,437.55 L 366.05,440.05 L 367.35,442.53 L 368.69,444.99 L 370.07,447.43 L 371.5,449.85 L 372.97,452.23 L 374.49,454.59 L 376.06,456.91 L 377.69,459.19 L 379.38,461.43 L 381.12,463.62 L 382.92,465.77 L 384.78,467.87 L 386.69,469.92 L 388.66,471.91 L 390.69,473.85 L 392.76,475.73 L 394.9,477.55 L 397.08,479.32 L 399.3,481.02 L 401.58,482.66 L 403.89,484.24 L 406.25,485.75 L 408.65,487.21 L 411.08,488.6 L 413.55,489.92 L 416.05,491.19 L 418.59,492.39 L 421.15,493.52 L 423.74,494.59 L 426.36,495.6 L 429.0,496.54 L 431.66,497.42 L 434.34,498.23 L 437.05,498.97 L 439.77,499.64 L 442.5,500.25 L 445.25,500.79 L 448.02,501.27 L 450.79,501.67 L 453.57,502.01 L 456.36,502.28 L 459.16,502.48 L 461.96,502.6 L 464.76,502.65 L 467.56,502.64 L 470.37,502.56 L 473.17,502.44 L 475.96,502.25 L 478.75,501.98 L 481.54,501.7 L 484.34,501.47 L 487.14,501.3 L 489.93,501.15 L 492.74,501.03 L 495.54,500.92 L 498.34,500.82 L 501.14,500.73 L 503.94,500.67 L 506.74,500.61 L 509.55,500.56 L 512.35,500.53 L 515.15,500.5 L 517.96,500.49 L 520.76,500.48 L 523.56,500.47 L 526.37,500.47 L 529.17,500.48 L 531.97,500.49 L 534.78,500.5 L 537.58,500.52 L 540.38,500.54 L 543.19,500.56 L 545.99,500.58 L 548.79,500.61 L 551.59,500.63 L 554.4,500.66 L 557.2,500.69 L 560.0,500.71 L 562.81,500.74 L 565.61,500.77 L 568.41,500.8 L 571.22,500.83 L 574.02,500.86 L 576.82,500.89 L 579.63,500.92 L 582.43,500.95 L 585.23,500.98 L 588.03,501.01 L 590.84,501.04 L 593.64,501.07 L 596.44,501.1 L 599.25,501.13 L 602.05,501.15 L 604.85,501.18 L 607.66,501.21 L 610.46,501.25 L 613.26,501.32 L 616.06,501.41 L 618.86,501.54 L 621.66,501.72 L 624.46,501.94" fill="none" stroke="url(#trail-grad-t)" stroke-width="2.5" stroke-linecap="round" stroke-linejoin="round"
            stroke-dasharray="866.17" stroke-dashoffset="866.17">
        <animate attributeName="stroke-dashoffset" values="866.17;863.38;860.57;857.77;854.98;852.17;849.36;846.56;843.76;840.96;838.15;835.36;832.55;829.75;826.94;824.14;821.34;818.54;815.73;812.93;810.13;807.32;804.51;801.71;798.91;796.11;793.31;790.5;787.7;784.9;782.09;779.29;776.49;773.68;770.88;768.08;765.27;762.47;759.67;756.86;754.06;751.26;748.45;745.65;742.85;740.05;737.24;734.44;731.64;728.83;726.03;723.23;720.42;717.62;714.82;712.01;709.21;706.41;703.6;700.8;698.0;695.19;692.39;689.58;686.78;683.98;681.18;678.37;675.57;672.76;669.97;667.16;664.36;661.55;658.75;655.95;653.15;650.34;647.54;644.74;641.94;639.13;636.33;633.52;630.72;627.91;625.11;622.31;619.5;616.7;613.9;611.1;608.29;605.49;602.69;599.88;597.08;594.28;591.48;588.67;585.87;583.07;580.27;577.46;574.66;571.85;569.05;566.25;563.45;560.64;557.84;555.03;552.24;549.43;546.63;543.82;541.02;538.22;535.41;532.61;529.81;527.01;524.21;521.4;518.59;515.79;512.99;510.18;507.38;504.58;501.78;498.97;496.17;493.37;490.56;487.76;484.96;482.15;479.35;476.55;473.74;470.94;468.13;465.34;462.53;459.73;456.92;454.12;451.32;448.51;445.72;442.91;440.11;437.3;434.5;431.69;428.9;426.09;423.29;420.48;417.68;414.87;412.07;409.27;406.47;403.66;400.86;398.06;395.25;392.46;389.65;386.85;384.04;381.24;378.43;375.64;372.83;370.03;367.22;364.42;361.61;358.81;356.0;353.2;350.41;347.6;344.8;341.99;339.19;336.39;333.58;330.78;327.97;325.18;322.37;319.57;316.77;313.96;311.15;308.36;305.55;302.75;299.95;297.14;294.34;291.54;288.73;285.93;283.12;280.32;277.52;274.72;271.91;269.11;266.3;263.5;260.7;257.89;255.1;252.29;249.49;246.69;243.89;241.08;238.28;235.47;232.66;229.87;227.06;224.26;221.46;218.65;215.85;213.05;210.25;207.44;204.64;201.84;199.03;196.23;193.42;190.62;187.81;185.01;182.22;179.41;176.6;173.8;171.0;168.2;165.39;162.59;159.79;156.99;154.18;151.38;148.58;145.78;142.97;140.16;137.36;134.56;131.75;128.95;126.15;123.35;120.55;117.74;114.93;112.13;109.33;106.52;103.72;100.92;98.11;95.31;92.51;89.7;86.9;84.1;81.29;78.49;75.69;72.89;70.08;67.28;64.48;61.67;58.87;56.07;53.26;50.46;47.66;44.85;42.05;39.25;36.45;33.64;30.84;28.04;25.23;22.43;19.63;16.82;14.02;11.22;8.42;5.61;2.81;0.0" dur="8s" repeatCount="indefinite" calcMode="linear"/>
      </path>

      <g>
        <circle r="9" fill="none" stroke="#ffe566" stroke-width="1.5">
          <animate attributeName="cx" values="63.5;66.26;68.97;71.75;74.54;77.33;80.13;82.93;85.73;88.53;91.33;94.12;96.92;99.72;102.52;105.31;108.11;110.91;113.71;116.51;119.31;122.11;124.92;127.72;130.52;133.32;136.12;138.93;141.73;144.53;147.34;150.14;152.94;155.75;158.55;161.35;164.16;166.96;169.76;172.57;175.37;178.17;180.98;183.78;186.58;189.38;192.19;194.99;197.79;200.6;203.4;206.2;209.01;211.81;214.61;217.42;220.22;223.02;225.83;228.63;231.43;234.23;237.03;239.83;242.62;245.4;248.17;250.94;253.69;256.44;259.16;261.88;264.57;267.25;269.91;272.54;275.16;277.76;280.33;282.88;285.41;287.92;290.4;292.86;295.3;297.71;300.09;302.44;304.77;307.05;309.29;311.48;313.61;315.67;317.67;319.59;321.43;323.19;324.86;326.44;327.92;329.31;330.6;331.8;332.89;333.88;334.77;335.56;336.26;336.85;337.34;337.74;338.03;338.21;338.31;338.32;338.26;338.15;338.0;337.76;337.48;337.25;337.1;337.01;336.96;336.94;336.94;336.96;337.0;337.06;337.13;337.22;337.33;337.44;337.56;337.69;337.82;337.97;338.11;338.26;338.41;338.57;338.72;338.88;339.04;339.2;339.36;339.53;339.69;339.85;340.01;340.18;340.34;340.5;340.67;340.83;340.99;341.16;341.32;341.48;341.65;341.81;341.97;342.13;342.3;342.46;342.62;342.78;342.94;343.11;343.27;343.43;343.59;343.76;343.93;344.12;344.32;344.54;344.78;345.05;345.33;345.64;345.98;346.34;346.72;347.14;347.57;348.04;348.52;349.04;349.58;350.15;350.76;351.4;352.08;352.8;353.56;354.37;355.22;356.11;357.04;358.02;359.04;360.11;361.21;362.36;363.55;364.78;366.05;367.35;368.69;370.07;371.5;372.97;374.49;376.06;377.69;379.38;381.12;382.92;384.78;386.69;388.66;390.69;392.76;394.9;397.08;399.3;401.58;403.89;406.25;408.65;411.08;413.55;416.05;418.59;421.15;423.74;426.36;429.0;431.66;434.34;437.05;439.77;442.5;445.25;448.02;450.79;453.57;456.36;459.16;461.96;464.76;467.56;470.37;473.17;475.96;478.75;481.54;484.34;487.14;489.93;492.74;495.54;498.34;501.14;503.94;506.74;509.55;512.35;515.15;517.96;520.76;523.56;526.37;529.17;531.97;534.78;537.58;540.38;543.19;545.99;548.79;551.59;554.4;557.2;560.0;562.81;565.61;568.41;571.22;574.02;576.82;579.63;582.43;585.23;588.03;590.84;593.64;596.44;599.25;602.05;604.85;607.66;610.46;613.26;616.06;618.86;621.66;624.46" dur="8s" repeatCount="indefinite" calcMode="linear"/>
          <animate attributeName="cy" values="97.39;96.97;96.22;95.92;96.11;96.42;96.61;96.6;96.48;96.32;96.15;95.98;95.81;95.63;95.45;95.27;95.1;94.95;94.81;94.68;94.57;94.46;94.37;94.29;94.22;94.16;94.11;94.06;94.03;94.0;93.97;93.95;93.93;93.92;93.9;93.9;93.89;93.88;93.88;93.88;93.87;93.87;93.87;93.87;93.87;93.87;93.87;93.87;93.88;93.88;93.88;93.88;93.88;93.88;93.88;93.87;93.87;93.88;93.9;93.94;94.02;94.14;94.31;94.53;94.8;95.13;95.52;95.98;96.5;97.08;97.73;98.44;99.21;100.04;100.93;101.88;102.88;103.94;105.05;106.21;107.41;108.67;109.97;111.32;112.71;114.14;115.62;117.14;118.71;120.33;122.02;123.77;125.59;127.49;129.45;131.5;133.61;135.79;138.04;140.36;142.74;145.17;147.66;150.2;152.78;155.4;158.06;160.75;163.46;166.2;168.96;171.74;174.52;177.32;180.12;182.93;185.73;188.53;191.33;194.12;196.91;199.7;202.5;205.3;208.11;210.91;213.71;216.52;219.32;222.12;224.92;227.73;230.53;233.33;236.13;238.93;241.73;244.53;247.33;250.13;252.93;255.73;258.53;261.32;264.12;266.92;269.72;272.52;275.32;278.12;280.91;283.71;286.51;289.31;292.11;294.91;297.7;300.5;303.3;306.1;308.9;311.7;314.5;317.29;320.09;322.89;325.69;328.49;331.29;334.08;336.88;339.68;342.48;345.28;348.08;350.87;353.67;356.46;359.26;362.05;364.84;367.62;370.41;373.19;375.96;378.73;381.5;384.27;387.03;389.78;392.54;395.28;398.02;400.74;403.46;406.17;408.87;411.56;414.23;416.88;419.53;422.15;424.76;427.36;429.93;432.49;435.03;437.55;440.05;442.53;444.99;447.43;449.85;452.23;454.59;456.91;459.19;461.43;463.62;465.77;467.87;469.92;471.91;473.85;475.73;477.55;479.32;481.02;482.66;484.24;485.75;487.21;488.6;489.92;491.19;492.39;493.52;494.59;495.6;496.54;497.42;498.23;498.97;499.64;500.25;500.79;501.27;501.67;502.01;502.28;502.48;502.6;502.65;502.64;502.56;502.44;502.25;501.98;501.7;501.47;501.3;501.15;501.03;500.92;500.82;500.73;500.67;500.61;500.56;500.53;500.5;500.49;500.48;500.47;500.47;500.48;500.49;500.5;500.52;500.54;500.56;500.58;500.61;500.63;500.66;500.69;500.71;500.74;500.77;500.8;500.83;500.86;500.89;500.92;500.95;500.98;501.01;501.04;501.07;501.1;501.13;501.15;501.18;501.21;501.25;501.32;501.41;501.54;501.72;501.94" dur="8s" repeatCount="indefinite" calcMode="linear"/>
          <animate attributeName="r" values="9;24;9" dur="2s" repeatCount="indefinite"/>
          <animate attributeName="opacity" values="0.8;0;0.8" dur="2s" repeatCount="indefinite"/>
        </circle>
        <circle r="5.5" fill="#ffe566">
          <animate attributeName="cx" values="63.5;66.26;68.97;71.75;74.54;77.33;80.13;82.93;85.73;88.53;91.33;94.12;96.92;99.72;102.52;105.31;108.11;110.91;113.71;116.51;119.31;122.11;124.92;127.72;130.52;133.32;136.12;138.93;141.73;144.53;147.34;150.14;152.94;155.75;158.55;161.35;164.16;166.96;169.76;172.57;175.37;178.17;180.98;183.78;186.58;189.38;192.19;194.99;197.79;200.6;203.4;206.2;209.01;211.81;214.61;217.42;220.22;223.02;225.83;228.63;231.43;234.23;237.03;239.83;242.62;245.4;248.17;250.94;253.69;256.44;259.16;261.88;264.57;267.25;269.91;272.54;275.16;277.76;280.33;282.88;285.41;287.92;290.4;292.86;295.3;297.71;300.09;302.44;304.77;307.05;309.29;311.48;313.61;315.67;317.67;319.59;321.43;323.19;324.86;326.44;327.92;329.31;330.6;331.8;332.89;333.88;334.77;335.56;336.26;336.85;337.34;337.74;338.03;338.21;338.31;338.32;338.26;338.15;338.0;337.76;337.48;337.25;337.1;337.01;336.96;336.94;336.94;336.96;337.0;337.06;337.13;337.22;337.33;337.44;337.56;337.69;337.82;337.97;338.11;338.26;338.41;338.57;338.72;338.88;339.04;339.2;339.36;339.53;339.69;339.85;340.01;340.18;340.34;340.5;340.67;340.83;340.99;341.16;341.32;341.48;341.65;341.81;341.97;342.13;342.3;342.46;342.62;342.78;342.94;343.11;343.27;343.43;343.59;343.76;343.93;344.12;344.32;344.54;344.78;345.05;345.33;345.64;345.98;346.34;346.72;347.14;347.57;348.04;348.52;349.04;349.58;350.15;350.76;351.4;352.08;352.8;353.56;354.37;355.22;356.11;357.04;358.02;359.04;360.11;361.21;362.36;363.55;364.78;366.05;367.35;368.69;370.07;371.5;372.97;374.49;376.06;377.69;379.38;381.12;382.92;384.78;386.69;388.66;390.69;392.76;394.9;397.08;399.3;401.58;403.89;406.25;408.65;411.08;413.55;416.05;418.59;421.15;423.74;426.36;429.0;431.66;434.34;437.05;439.77;442.5;445.25;448.02;450.79;453.57;456.36;459.16;461.96;464.76;467.56;470.37;473.17;475.96;478.75;481.54;484.34;487.14;489.93;492.74;495.54;498.34;501.14;503.94;506.74;509.55;512.35;515.15;517.96;520.76;523.56;526.37;529.17;531.97;534.78;537.58;540.38;543.19;545.99;548.79;551.59;554.4;557.2;560.0;562.81;565.61;568.41;571.22;574.02;576.82;579.63;582.43;585.23;588.03;590.84;593.64;596.44;599.25;602.05;604.85;607.66;610.46;613.26;616.06;618.86;621.66;624.46" dur="8s" repeatCount="indefinite" calcMode="linear"/>
          <animate attributeName="cy" values="97.39;96.97;96.22;95.92;96.11;96.42;96.61;96.6;96.48;96.32;96.15;95.98;95.81;95.63;95.45;95.27;95.1;94.95;94.81;94.68;94.57;94.46;94.37;94.29;94.22;94.16;94.11;94.06;94.03;94.0;93.97;93.95;93.93;93.92;93.9;93.9;93.89;93.88;93.88;93.88;93.87;93.87;93.87;93.87;93.87;93.87;93.87;93.87;93.88;93.88;93.88;93.88;93.88;93.88;93.88;93.87;93.87;93.88;93.9;93.94;94.02;94.14;94.31;94.53;94.8;95.13;95.52;95.98;96.5;97.08;97.73;98.44;99.21;100.04;100.93;101.88;102.88;103.94;105.05;106.21;107.41;108.67;109.97;111.32;112.71;114.14;115.62;117.14;118.71;120.33;122.02;123.77;125.59;127.49;129.45;131.5;133.61;135.79;138.04;140.36;142.74;145.17;147.66;150.2;152.78;155.4;158.06;160.75;163.46;166.2;168.96;171.74;174.52;177.32;180.12;182.93;185.73;188.53;191.33;194.12;196.91;199.7;202.5;205.3;208.11;210.91;213.71;216.52;219.32;222.12;224.92;227.73;230.53;233.33;236.13;238.93;241.73;244.53;247.33;250.13;252.93;255.73;258.53;261.32;264.12;266.92;269.72;272.52;275.32;278.12;280.91;283.71;286.51;289.31;292.11;294.91;297.7;300.5;303.3;306.1;308.9;311.7;314.5;317.29;320.09;322.89;325.69;328.49;331.29;334.08;336.88;339.68;342.48;345.28;348.08;350.87;353.67;356.46;359.26;362.05;364.84;367.62;370.41;373.19;375.96;378.73;381.5;384.27;387.03;389.78;392.54;395.28;398.02;400.74;403.46;406.17;408.87;411.56;414.23;416.88;419.53;422.15;424.76;427.36;429.93;432.49;435.03;437.55;440.05;442.53;444.99;447.43;449.85;452.23;454.59;456.91;459.19;461.43;463.62;465.77;467.87;469.92;471.91;473.85;475.73;477.55;479.32;481.02;482.66;484.24;485.75;487.21;488.6;489.92;491.19;492.39;493.52;494.59;495.6;496.54;497.42;498.23;498.97;499.64;500.25;500.79;501.27;501.67;502.01;502.28;502.48;502.6;502.65;502.64;502.56;502.44;502.25;501.98;501.7;501.47;501.3;501.15;501.03;500.92;500.82;500.73;500.67;500.61;500.56;500.53;500.5;500.49;500.48;500.47;500.47;500.48;500.49;500.5;500.52;500.54;500.56;500.58;500.61;500.63;500.66;500.69;500.71;500.74;500.77;500.8;500.83;500.86;500.89;500.92;500.95;500.98;501.01;501.04;501.07;501.1;501.13;501.15;501.18;501.21;501.25;501.32;501.41;501.54;501.72;501.94" dur="8s" repeatCount="indefinite" calcMode="linear"/>
        </circle>
        <circle r="2" fill="white">
          <animate attributeName="cx" values="63.5;66.26;68.97;71.75;74.54;77.33;80.13;82.93;85.73;88.53;91.33;94.12;96.92;99.72;102.52;105.31;108.11;110.91;113.71;116.51;119.31;122.11;124.92;127.72;130.52;133.32;136.12;138.93;141.73;144.53;147.34;150.14;152.94;155.75;158.55;161.35;164.16;166.96;169.76;172.57;175.37;178.17;180.98;183.78;186.58;189.38;192.19;194.99;197.79;200.6;203.4;206.2;209.01;211.81;214.61;217.42;220.22;223.02;225.83;228.63;231.43;234.23;237.03;239.83;242.62;245.4;248.17;250.94;253.69;256.44;259.16;261.88;264.57;267.25;269.91;272.54;275.16;277.76;280.33;282.88;285.41;287.92;290.4;292.86;295.3;297.71;300.09;302.44;304.77;307.05;309.29;311.48;313.61;315.67;317.67;319.59;321.43;323.19;324.86;326.44;327.92;329.31;330.6;331.8;332.89;333.88;334.77;335.56;336.26;336.85;337.34;337.74;338.03;338.21;338.31;338.32;338.26;338.15;338.0;337.76;337.48;337.25;337.1;337.01;336.96;336.94;336.94;336.96;337.0;337.06;337.13;337.22;337.33;337.44;337.56;337.69;337.82;337.97;338.11;338.26;338.41;338.57;338.72;338.88;339.04;339.2;339.36;339.53;339.69;339.85;340.01;340.18;340.34;340.5;340.67;340.83;340.99;341.16;341.32;341.48;341.65;341.81;341.97;342.13;342.3;342.46;342.62;342.78;342.94;343.11;343.27;343.43;343.59;343.76;343.93;344.12;344.32;344.54;344.78;345.05;345.33;345.64;345.98;346.34;346.72;347.14;347.57;348.04;348.52;349.04;349.58;350.15;350.76;351.4;352.08;352.8;353.56;354.37;355.22;356.11;357.04;358.02;359.04;360.11;361.21;362.36;363.55;364.78;366.05;367.35;368.69;370.07;371.5;372.97;374.49;376.06;377.69;379.38;381.12;382.92;384.78;386.69;388.66;390.69;392.76;394.9;397.08;399.3;401.58;403.89;406.25;408.65;411.08;413.55;416.05;418.59;421.15;423.74;426.36;429.0;431.66;434.34;437.05;439.77;442.5;445.25;448.02;450.79;453.57;456.36;459.16;461.96;464.76;467.56;470.37;473.17;475.96;478.75;481.54;484.34;487.14;489.93;492.74;495.54;498.34;501.14;503.94;506.74;509.55;512.35;515.15;517.96;520.76;523.56;526.37;529.17;531.97;534.78;537.58;540.38;543.19;545.99;548.79;551.59;554.4;557.2;560.0;562.81;565.61;568.41;571.22;574.02;576.82;579.63;582.43;585.23;588.03;590.84;593.64;596.44;599.25;602.05;604.85;607.66;610.46;613.26;616.06;618.86;621.66;624.46" dur="8s" repeatCount="indefinite" calcMode="linear"/>
          <animate attributeName="cy" values="97.39;96.97;96.22;95.92;96.11;96.42;96.61;96.6;96.48;96.32;96.15;95.98;95.81;95.63;95.45;95.27;95.1;94.95;94.81;94.68;94.57;94.46;94.37;94.29;94.22;94.16;94.11;94.06;94.03;94.0;93.97;93.95;93.93;93.92;93.9;93.9;93.89;93.88;93.88;93.88;93.87;93.87;93.87;93.87;93.87;93.87;93.87;93.87;93.88;93.88;93.88;93.88;93.88;93.88;93.88;93.87;93.87;93.88;93.9;93.94;94.02;94.14;94.31;94.53;94.8;95.13;95.52;95.98;96.5;97.08;97.73;98.44;99.21;100.04;100.93;101.88;102.88;103.94;105.05;106.21;107.41;108.67;109.97;111.32;112.71;114.14;115.62;117.14;118.71;120.33;122.02;123.77;125.59;127.49;129.45;131.5;133.61;135.79;138.04;140.36;142.74;145.17;147.66;150.2;152.78;155.4;158.06;160.75;163.46;166.2;168.96;171.74;174.52;177.32;180.12;182.93;185.73;188.53;191.33;194.12;196.91;199.7;202.5;205.3;208.11;210.91;213.71;216.52;219.32;222.12;224.92;227.73;230.53;233.33;236.13;238.93;241.73;244.53;247.33;250.13;252.93;255.73;258.53;261.32;264.12;266.92;269.72;272.52;275.32;278.12;280.91;283.71;286.51;289.31;292.11;294.91;297.7;300.5;303.3;306.1;308.9;311.7;314.5;317.29;320.09;322.89;325.69;328.49;331.29;334.08;336.88;339.68;342.48;345.28;348.08;350.87;353.67;356.46;359.26;362.05;364.84;367.62;370.41;373.19;375.96;378.73;381.5;384.27;387.03;389.78;392.54;395.28;398.02;400.74;403.46;406.17;408.87;411.56;414.23;416.88;419.53;422.15;424.76;427.36;429.93;432.49;435.03;437.55;440.05;442.53;444.99;447.43;449.85;452.23;454.59;456.91;459.19;461.43;463.62;465.77;467.87;469.92;471.91;473.85;475.73;477.55;479.32;481.02;482.66;484.24;485.75;487.21;488.6;489.92;491.19;492.39;493.52;494.59;495.6;496.54;497.42;498.23;498.97;499.64;500.25;500.79;501.27;501.67;502.01;502.28;502.48;502.6;502.65;502.64;502.56;502.44;502.25;501.98;501.7;501.47;501.3;501.15;501.03;500.92;500.82;500.73;500.67;500.61;500.56;500.53;500.5;500.49;500.48;500.47;500.47;500.48;500.49;500.5;500.52;500.54;500.56;500.58;500.61;500.63;500.66;500.69;500.71;500.74;500.77;500.8;500.83;500.86;500.89;500.92;500.95;500.98;501.01;501.04;501.07;501.1;501.13;501.15;501.18;501.21;501.25;501.32;501.41;501.54;501.72;501.94" dur="8s" repeatCount="indefinite" calcMode="linear"/>
        </circle>
      </g>

      <g class="legend" transform="translate(195.0, 570)">
        <rect x="0" y="-14" width="310" height="28" rx="14" fill="rgba(20, 15, 35, 0.8)" stroke="rgba(0, 229, 204, 0.4)" stroke-width="1"/>
        <line x1="20" y1="0" x2="45" y2="0" stroke="rgba(255,255,255,0.4)" stroke-width="2" stroke-dasharray="4 3"/>
        <text x="55" y="4" font-size="11" font-weight="600" fill="rgba(255,255,255,0.7)" font-family="system-ui, sans-serif">Reference</text>
        <line x1="150" y1="-6" x2="150" y2="6" stroke="rgba(255,255,255,0.2)" stroke-width="1"/>
        <line x1="165" y1="0" x2="190" y2="0" stroke="url(#trail-grad-t)" stroke-width="3" stroke-linecap="round"/>
        <text x="200" y="4" font-size="11" font-weight="bold" fill="#ff00cc" font-family="system-ui, sans-serif">Real Trajectory</text>
      </g>
    </svg>