<svg xmlns="http://www.w3.org/2000/svg"
     viewBox="0 0 700 400" width="100%" class="trajectory-svg">

  <defs>
    <linearGradient id="steer-grad" x1="60" y1="0" x2="670" y2="0" gradientUnits="userSpaceOnUse">
      <stop offset="0%"   stop-color="#aa00ff"/>
      <stop offset="100%" stop-color="#ff00cc"/>
    </linearGradient>
  </defs>

  <rect width="700" height="400" fill="#0d0a1a"/>
  <g class="grid"><line x1="60.0" y1="50" x2="60.0" y2="360" stroke="rgba(0,229,204,1)" stroke-width="0.5" opacity="0.06"/>
<line x1="161.66666666666669" y1="50" x2="161.66666666666669" y2="360" stroke="rgba(0,229,204,1)" stroke-width="0.5" opacity="0.06"/>
<line x1="263.33333333333337" y1="50" x2="263.33333333333337" y2="360" stroke="rgba(0,229,204,1)" stroke-width="0.5" opacity="0.06"/>
<line x1="365.0" y1="50" x2="365.0" y2="360" stroke="rgba(0,229,204,1)" stroke-width="0.5" opacity="0.06"/>
<line x1="466.6666666666667" y1="50" x2="466.6666666666667" y2="360" stroke="rgba(0,229,204,1)" stroke-width="0.5" opacity="0.06"/>
<line x1="568.3333333333333" y1="50" x2="568.3333333333333" y2="360" stroke="rgba(0,229,204,1)" stroke-width="0.5" opacity="0.06"/>
<line x1="670.0" y1="50" x2="670.0" y2="360" stroke="rgba(0,229,204,1)" stroke-width="0.5" opacity="0.06"/>
<line x1="60" y1="50.0" x2="670" y2="50.0" stroke="rgba(0,229,204,1)" stroke-width="0.5" opacity="0.18"/>
<line x1="60" y1="112.0" x2="670" y2="112.0" stroke="rgba(0,229,204,1)" stroke-width="0.5" opacity="0.18"/>
<line x1="60" y1="174.0" x2="670" y2="174.0" stroke="rgba(0,229,204,1)" stroke-width="0.5" opacity="0.18"/>
<line x1="60" y1="236.0" x2="670" y2="236.0" stroke="rgba(0,229,204,1)" stroke-width="0.5" opacity="0.18"/>
<line x1="60" y1="298.0" x2="670" y2="298.0" stroke="rgba(0,229,204,1)" stroke-width="0.5" opacity="0.18"/>
<line x1="60" y1="360.0" x2="670" y2="360.0" stroke="rgba(0,229,204,1)" stroke-width="0.5" opacity="0.18"/>
</g>
  <line x1="60" y1="195.02" x2="670" y2="195.02" stroke="rgba(255,255,255,0.35)" stroke-width="1" stroke-dasharray="5 5"/>
  <rect x="60" y="50" width="610" height="310"
        fill="none" stroke="rgba(0,229,204,0.15)" stroke-width="0.75" rx="4"/>
  <g class="axis-labels"><text x="60.0" y="378" font-size="10" fill="rgba(255,255,255,0.5)" text-anchor="middle" font-family="'JetBrains Mono',monospace">0.1s</text>
<text x="161.66666666666669" y="378" font-size="10" fill="rgba(255,255,255,0.5)" text-anchor="middle" font-family="'JetBrains Mono',monospace">10.4s</text>
<text x="263.33333333333337" y="378" font-size="10" fill="rgba(255,255,255,0.5)" text-anchor="middle" font-family="'JetBrains Mono',monospace">20.7s</text>
<text x="365.0" y="378" font-size="10" fill="rgba(255,255,255,0.5)" text-anchor="middle" font-family="'JetBrains Mono',monospace">31.0s</text>
<text x="466.6666666666667" y="378" font-size="10" fill="rgba(255,255,255,0.5)" text-anchor="middle" font-family="'JetBrains Mono',monospace">41.3s</text>
<text x="568.3333333333333" y="378" font-size="10" fill="rgba(255,255,255,0.5)" text-anchor="middle" font-family="'JetBrains Mono',monospace">51.6s</text>
<text x="670.0" y="378" font-size="10" fill="rgba(255,255,255,0.5)" text-anchor="middle" font-family="'JetBrains Mono',monospace">61.9s</text>
<text x="52" y="54.0" font-size="10" fill="rgba(255,255,255,0.5)" text-anchor="end" font-family="'JetBrains Mono',monospace">0.152</text>
<text x="52" y="116.0" font-size="10" fill="rgba(255,255,255,0.5)" text-anchor="end" font-family="'JetBrains Mono',monospace">0.087</text>
<text x="52" y="178.0" font-size="10" fill="rgba(255,255,255,0.5)" text-anchor="end" font-family="'JetBrains Mono',monospace">0.022</text>
<text x="52" y="240.0" font-size="10" fill="rgba(255,255,255,0.5)" text-anchor="end" font-family="'JetBrains Mono',monospace">-0.043</text>
<text x="52" y="302.0" font-size="10" fill="rgba(255,255,255,0.5)" text-anchor="end" font-family="'JetBrains Mono',monospace">-0.108</text>
<text x="52" y="364.0" font-size="10" fill="rgba(255,255,255,0.5)" text-anchor="end" font-family="'JetBrains Mono',monospace">-0.173</text>
</g>

  <!-- Labels axes -->
  <text x="52" y="36" font-size="10" letter-spacing="1" font-weight="500"
        fill="rgba(0,229,204,0.75)" text-anchor="end"
        font-family="'JetBrains Mono',monospace">δF (rad)</text>
  <text x="670" y="395" font-size="10" letter-spacing="1" font-weight="500"
        fill="rgba(0,229,204,0.75)" text-anchor="end"
        font-family="'JetBrains Mono',monospace">Time (s)</text>

  <!-- Tracé animé -->
  <path d="M 60.0,99.51 L 61.97,97.53 L 63.95,87.6 L 65.92,80.0 L 67.9,81.8 L 69.87,91.65 L 71.84,104.69 L 73.82,117.14 L 75.79,127.76 L 77.77,136.87 L 79.74,145.05 L 81.72,152.56 L 83.69,159.35 L 85.66,165.35 L 87.64,170.54 L 89.61,174.98 L 91.59,178.79 L 93.56,182.03 L 95.53,184.77 L 97.51,187.07 L 99.48,188.98 L 101.46,190.56 L 103.43,191.84 L 105.4,192.87 L 107.38,193.69 L 109.35,194.34 L 111.33,194.84 L 113.3,195.21 L 115.28,195.48 L 117.25,195.67 L 119.22,195.8 L 121.2,195.87 L 123.17,195.91 L 125.15,195.91 L 127.12,195.89 L 129.09,195.85 L 131.07,195.8 L 133.04,195.75 L 135.02,195.69 L 136.99,195.62 L 138.96,195.56 L 140.94,195.5 L 142.91,195.45 L 144.89,195.39 L 146.86,195.35 L 148.83,195.3 L 150.81,195.26 L 152.78,195.23 L 154.76,195.19 L 156.73,195.16 L 158.71,195.14 L 160.68,195.19 L 162.65,196.06 L 164.63,199.7 L 166.6,204.15 L 168.58,211.47 L 170.55,217.49 L 172.52,225.91 L 174.5,231.79 L 176.47,237.13 L 178.45,244.63 L 180.42,248.72 L 182.39,254.94 L 184.37,257.61 L 186.34,259.51 L 188.32,263.76 L 190.29,264.41 L 192.27,267.5 L 194.24,267.17 L 196.21,266.4 L 198.19,268.32 L 200.16,266.97 L 202.14,268.44 L 204.11,266.73 L 206.08,264.91 L 208.06,266.09 L 210.03,264.18 L 212.01,262.25 L 213.98,263.44 L 215.95,261.65 L 217.93,262.9 L 219.9,261.19 L 221.88,259.79 L 223.85,263.46 L 225.83,265.54 L 227.8,268.96 L 229.77,278.36 L 231.75,283.23 L 233.72,288.06 L 235.7,298.31 L 237.67,302.51 L 239.64,306.07 L 241.62,314.9 L 243.59,317.11 L 245.57,318.64 L 247.54,325.63 L 249.51,326.01 L 251.49,325.75 L 253.46,325.03 L 255.44,330.0 L 257.41,328.56 L 259.39,326.84 L 261.36,324.84 L 263.33,328.85 L 265.31,326.65 L 267.28,324.4 L 269.26,322.08 L 271.23,325.93 L 273.2,323.65 L 275.18,321.26 L 277.15,317.25 L 279.13,313.96 L 281.1,302.95 L 283.07,290.12 L 285.05,278.18 L 287.02,264.03 L 289.0,251.39 L 290.97,238.46 L 292.94,226.83 L 294.92,218.47 L 296.89,212.76 L 298.87,209.39 L 300.84,206.54 L 302.82,203.9 L 304.79,201.59 L 306.76,199.49 L 308.74,197.9 L 310.71,196.62 L 312.69,195.64 L 314.66,194.93 L 316.63,194.35 L 318.61,193.95 L 320.58,193.66 L 322.56,193.49 L 324.53,193.39 L 326.5,193.36 L 328.48,193.38 L 330.45,193.43 L 332.43,193.51 L 334.4,193.61 L 336.38,193.71 L 338.35,193.83 L 340.32,193.94 L 342.3,194.05 L 344.27,194.16 L 346.25,194.26 L 348.22,194.35 L 350.19,194.44 L 352.17,194.52 L 354.14,194.59 L 356.12,194.65 L 358.09,194.71 L 360.06,194.76 L 362.04,194.8 L 364.01,194.84 L 365.99,194.87 L 367.96,194.9 L 369.94,194.93 L 371.91,194.95 L 373.88,194.96 L 375.86,194.98 L 377.83,194.99 L 379.81,195.0 L 381.78,195.0 L 383.75,195.01 L 385.73,195.01 L 387.7,195.01 L 389.68,194.82 L 391.65,193.66 L 393.62,192.04 L 395.6,189.98 L 397.57,186.84 L 399.55,184.4 L 401.52,181.06 L 403.5,178.84 L 405.47,175.77 L 407.44,174.03 L 409.42,172.6 L 411.39,170.3 L 413.37,169.44 L 415.34,167.67 L 417.31,167.34 L 419.29,166.04 L 421.26,166.14 L 423.24,166.32 L 425.21,164.64 L 427.18,163.74 L 429.16,160.52 L 431.13,158.87 L 433.11,157.21 L 435.08,153.4 L 437.06,151.93 L 439.03,148.38 L 441.0,147.37 L 442.98,144.28 L 444.95,143.79 L 446.93,143.58 L 448.9,141.22 L 450.87,141.49 L 452.85,139.57 L 454.82,140.22 L 456.8,141.03 L 458.77,139.56 L 460.74,140.6 L 462.72,139.29 L 464.69,140.45 L 466.67,141.37 L 468.64,138.41 L 470.61,137.21 L 472.59,131.8 L 474.56,129.4 L 476.54,126.98 L 478.51,120.69 L 480.49,118.44 L 482.46,116.55 L 484.43,110.96 L 486.41,109.84 L 488.38,109.12 L 490.36,104.53 L 492.33,104.49 L 494.3,100.59 L 496.28,101.26 L 498.25,102.3 L 500.23,99.34 L 502.2,100.77 L 504.17,102.36 L 506.15,99.79 L 508.12,101.54 L 510.1,103.36 L 512.07,100.94 L 514.05,102.78 L 516.02,104.62 L 517.99,102.18 L 519.97,103.96 L 521.94,105.72 L 523.92,103.18 L 525.89,104.85 L 527.86,106.5 L 529.84,103.84 L 531.81,105.4 L 533.79,106.94 L 535.76,104.18 L 537.73,105.64 L 539.71,107.1 L 541.68,104.27 L 543.66,105.67 L 545.63,107.08 L 547.61,104.2 L 549.58,105.76 L 551.55,108.57 L 553.53,110.98 L 555.5,118.79 L 557.48,126.31 L 559.45,136.28 L 561.42,146.28 L 563.4,155.21 L 565.37,163.82 L 567.35,169.61 L 569.32,173.79 L 571.29,176.93 L 573.27,179.58 L 575.24,182.34 L 577.22,184.77 L 579.19,186.95 L 581.17,188.76 L 583.14,190.19 L 585.11,191.41 L 587.09,192.4 L 589.06,193.24 L 591.04,193.89 L 593.01,194.42 L 594.98,194.84 L 596.96,195.14 L 598.93,195.37 L 600.91,195.53 L 602.88,195.64 L 604.85,195.7 L 606.83,195.74 L 608.8,195.74 L 610.78,195.73 L 612.75,195.7 L 614.72,195.66 L 616.7,195.62 L 618.67,195.57 L 620.65,195.52 L 622.62,195.47 L 624.6,195.42 L 626.57,195.38 L 628.54,195.33 L 630.52,195.29 L 632.49,195.26 L 634.47,195.22 L 636.44,195.19 L 638.41,195.17 L 640.39,195.14 L 642.36,195.12 L 644.34,195.1 L 646.31,195.1 L 648.28,195.58 L 650.26,197.5 L 652.23,202.5 L 654.21,207.65 L 656.18,215.51 L 658.16,221.63 L 660.13,230.05 L 662.1,235.67 L 664.08,240.71 L 666.05,247.87 L 668.03,251.56 L 670.0,257.38" fill="none" stroke="url(#steer-grad)"
        stroke-width="2.5" stroke-linecap="round" stroke-linejoin="round"
        stroke-dasharray="1103.89" stroke-dashoffset="1103.89">
    <animate attributeName="stroke-dashoffset"
             values="1103.89;1101.09;1090.97;1083.12;1080.44;1070.4;1057.21;1044.6;1033.8;1024.48;1016.06;1008.3;1001.23;994.91;989.36;984.5;980.21;976.41;973.04;970.0;967.26;964.73;962.38;960.15;958.01;955.94;953.89;951.89;949.89;947.91;945.94;943.96;941.99;940.01;938.04;936.07;934.09;932.11;930.13;928.16;926.19;924.21;922.24;920.26;918.29;916.32;914.34;912.37;910.39;908.42;906.44;904.47;902.31;898.17;893.3;885.72;879.39;870.74;864.53;858.84;851.08;846.55;840.02;836.7;833.96;829.27;827.2;823.53;821.53;819.41;816.66;814.27;811.8;809.19;806.51;804.21;801.46;798.7;796.4;793.73;791.39;788.78;786.36;782.19;779.32;775.37;765.77;760.51;755.3;744.86;740.22;736.15;727.1;724.14;721.64;714.38;712.37;710.37;708.27;702.93;700.48;697.86;695.05;690.59;687.63;684.64;681.59;677.26;674.25;671.15;666.68;662.84;651.65;638.67;626.57;612.28;599.49;586.41;574.61;566.02;559.98;556.07;552.61;549.31;546.27;543.39;540.85;538.5;536.3;534.2;532.15;530.13;528.14;526.15;524.18;522.21;520.23;518.26;516.27;514.3;512.32;510.35;508.37;506.39;504.42;502.43;500.46;498.49;496.51;494.54;492.56;490.59;488.61;486.63;484.66;482.68;480.71;478.73;476.76;474.79;472.81;470.84;468.86;466.89;464.92;462.94;460.97;458.98;456.7;454.15;451.29;447.58;444.44;440.56;437.59;433.94;431.31;428.87;425.84;423.68;421.03;419.04;416.67;414.7;412.71;410.12;407.95;404.17;401.6;399.02;394.73;392.26;388.2;385.99;382.32;380.29;378.3;375.22;373.24;370.48;368.4;366.26;363.81;361.58;359.2;356.92;354.74;351.18;348.87;343.11;340.01;336.88;330.29;327.29;324.56;318.63;316.36;314.26;309.26;307.29;302.92;300.83;298.61;295.04;292.61;290.08;286.83;284.2;281.51;278.39;275.69;272.99;269.86;267.19;264.55;261.33;258.75;256.18;252.86;250.35;247.84;244.45;242.0;239.54;236.09;233.66;231.24;227.75;225.23;221.8;218.68;210.63;202.85;192.69;182.5;173.35;164.52;158.4;153.78;150.07;146.76;143.37;140.24;137.3;134.62;132.18;129.87;127.65;125.51;123.43;121.39;119.37;117.37;115.39;113.4;111.43;109.46;107.47;105.5;103.52;101.55;99.58;97.6;95.63;93.65;91.68;89.7;87.73;85.76;83.78;81.81;79.83;77.86;75.89;73.91;71.94;69.96;67.99;65.96;63.2;57.83;52.31;44.21;37.78;29.13;23.17;17.76;10.33;6.14;0.0" dur="8s"
             repeatCount="indefinite" calcMode="linear"/>
  </path>

  <!-- Robot -->
  <circle r="9" fill="none" stroke="#ffe566" stroke-width="1.5">
    <animate attributeName="cx" values="60.0;61.97;63.95;65.92;67.9;69.87;71.84;73.82;75.79;77.77;79.74;81.72;83.69;85.66;87.64;89.61;91.59;93.56;95.53;97.51;99.48;101.46;103.43;105.4;107.38;109.35;111.33;113.3;115.28;117.25;119.22;121.2;123.17;125.15;127.12;129.09;131.07;133.04;135.02;136.99;138.96;140.94;142.91;144.89;146.86;148.83;150.81;152.78;154.76;156.73;158.71;160.68;162.65;164.63;166.6;168.58;170.55;172.52;174.5;176.47;178.45;180.42;182.39;184.37;186.34;188.32;190.29;192.27;194.24;196.21;198.19;200.16;202.14;204.11;206.08;208.06;210.03;212.01;213.98;215.95;217.93;219.9;221.88;223.85;225.83;227.8;229.77;231.75;233.72;235.7;237.67;239.64;241.62;243.59;245.57;247.54;249.51;251.49;253.46;255.44;257.41;259.39;261.36;263.33;265.31;267.28;269.26;271.23;273.2;275.18;277.15;279.13;281.1;283.07;285.05;287.02;289.0;290.97;292.94;294.92;296.89;298.87;300.84;302.82;304.79;306.76;308.74;310.71;312.69;314.66;316.63;318.61;320.58;322.56;324.53;326.5;328.48;330.45;332.43;334.4;336.38;338.35;340.32;342.3;344.27;346.25;348.22;350.19;352.17;354.14;356.12;358.09;360.06;362.04;364.01;365.99;367.96;369.94;371.91;373.88;375.86;377.83;379.81;381.78;383.75;385.73;387.7;389.68;391.65;393.62;395.6;397.57;399.55;401.52;403.5;405.47;407.44;409.42;411.39;413.37;415.34;417.31;419.29;421.26;423.24;425.21;427.18;429.16;431.13;433.11;435.08;437.06;439.03;441.0;442.98;444.95;446.93;448.9;450.87;452.85;454.82;456.8;458.77;460.74;462.72;464.69;466.67;468.64;470.61;472.59;474.56;476.54;478.51;480.49;482.46;484.43;486.41;488.38;490.36;492.33;494.3;496.28;498.25;500.23;502.2;504.17;506.15;508.12;510.1;512.07;514.05;516.02;517.99;519.97;521.94;523.92;525.89;527.86;529.84;531.81;533.79;535.76;537.73;539.71;541.68;543.66;545.63;547.61;549.58;551.55;553.53;555.5;557.48;559.45;561.42;563.4;565.37;567.35;569.32;571.29;573.27;575.24;577.22;579.19;581.17;583.14;585.11;587.09;589.06;591.04;593.01;594.98;596.96;598.93;600.91;602.88;604.85;606.83;608.8;610.78;612.75;614.72;616.7;618.67;620.65;622.62;624.6;626.57;628.54;630.52;632.49;634.47;636.44;638.41;640.39;642.36;644.34;646.31;648.28;650.26;652.23;654.21;656.18;658.16;660.13;662.1;664.08;666.05;668.03;670.0" dur="8s" repeatCount="indefinite" calcMode="linear"/>
    <animate attributeName="cy" values="99.51;97.53;87.6;80.0;81.8;91.65;104.69;117.14;127.76;136.87;145.05;152.56;159.35;165.35;170.54;174.98;178.79;182.03;184.77;187.07;188.98;190.56;191.84;192.87;193.69;194.34;194.84;195.21;195.48;195.67;195.8;195.87;195.91;195.91;195.89;195.85;195.8;195.75;195.69;195.62;195.56;195.5;195.45;195.39;195.35;195.3;195.26;195.23;195.19;195.16;195.14;195.19;196.06;199.7;204.15;211.47;217.49;225.91;231.79;237.13;244.63;248.72;254.94;257.61;259.51;263.76;264.41;267.5;267.17;266.4;268.32;266.97;268.44;266.73;264.91;266.09;264.18;262.25;263.44;261.65;262.9;261.19;259.79;263.46;265.54;268.96;278.36;283.23;288.06;298.31;302.51;306.07;314.9;317.11;318.64;325.63;326.01;325.75;325.03;330.0;328.56;326.84;324.84;328.85;326.65;324.4;322.08;325.93;323.65;321.26;317.25;313.96;302.95;290.12;278.18;264.03;251.39;238.46;226.83;218.47;212.76;209.39;206.54;203.9;201.59;199.49;197.9;196.62;195.64;194.93;194.35;193.95;193.66;193.49;193.39;193.36;193.38;193.43;193.51;193.61;193.71;193.83;193.94;194.05;194.16;194.26;194.35;194.44;194.52;194.59;194.65;194.71;194.76;194.8;194.84;194.87;194.9;194.93;194.95;194.96;194.98;194.99;195.0;195.0;195.01;195.01;195.01;194.82;193.66;192.04;189.98;186.84;184.4;181.06;178.84;175.77;174.03;172.6;170.3;169.44;167.67;167.34;166.04;166.14;166.32;164.64;163.74;160.52;158.87;157.21;153.4;151.93;148.38;147.37;144.28;143.79;143.58;141.22;141.49;139.57;140.22;141.03;139.56;140.6;139.29;140.45;141.37;138.41;137.21;131.8;129.4;126.98;120.69;118.44;116.55;110.96;109.84;109.12;104.53;104.49;100.59;101.26;102.3;99.34;100.77;102.36;99.79;101.54;103.36;100.94;102.78;104.62;102.18;103.96;105.72;103.18;104.85;106.5;103.84;105.4;106.94;104.18;105.64;107.1;104.27;105.67;107.08;104.2;105.76;108.57;110.98;118.79;126.31;136.28;146.28;155.21;163.82;169.61;173.79;176.93;179.58;182.34;184.77;186.95;188.76;190.19;191.41;192.4;193.24;193.89;194.42;194.84;195.14;195.37;195.53;195.64;195.7;195.74;195.74;195.73;195.7;195.66;195.62;195.57;195.52;195.47;195.42;195.38;195.33;195.29;195.26;195.22;195.19;195.17;195.14;195.12;195.1;195.1;195.58;197.5;202.5;207.65;215.51;221.63;230.05;235.67;240.71;247.87;251.56;257.38" dur="8s" repeatCount="indefinite" calcMode="linear"/>
    <animate attributeName="r"       values="9;22;9"   dur="2s" repeatCount="indefinite"/>
    <animate attributeName="opacity" values="0.8;0;0.8" dur="2s" repeatCount="indefinite"/>
  </circle>
  <circle r="5.5" fill="#ffe566">
    <animate attributeName="cx" values="60.0;61.97;63.95;65.92;67.9;69.87;71.84;73.82;75.79;77.77;79.74;81.72;83.69;85.66;87.64;89.61;91.59;93.56;95.53;97.51;99.48;101.46;103.43;105.4;107.38;109.35;111.33;113.3;115.28;117.25;119.22;121.2;123.17;125.15;127.12;129.09;131.07;133.04;135.02;136.99;138.96;140.94;142.91;144.89;146.86;148.83;150.81;152.78;154.76;156.73;158.71;160.68;162.65;164.63;166.6;168.58;170.55;172.52;174.5;176.47;178.45;180.42;182.39;184.37;186.34;188.32;190.29;192.27;194.24;196.21;198.19;200.16;202.14;204.11;206.08;208.06;210.03;212.01;213.98;215.95;217.93;219.9;221.88;223.85;225.83;227.8;229.77;231.75;233.72;235.7;237.67;239.64;241.62;243.59;245.57;247.54;249.51;251.49;253.46;255.44;257.41;259.39;261.36;263.33;265.31;267.28;269.26;271.23;273.2;275.18;277.15;279.13;281.1;283.07;285.05;287.02;289.0;290.97;292.94;294.92;296.89;298.87;300.84;302.82;304.79;306.76;308.74;310.71;312.69;314.66;316.63;318.61;320.58;322.56;324.53;326.5;328.48;330.45;332.43;334.4;336.38;338.35;340.32;342.3;344.27;346.25;348.22;350.19;352.17;354.14;356.12;358.09;360.06;362.04;364.01;365.99;367.96;369.94;371.91;373.88;375.86;377.83;379.81;381.78;383.75;385.73;387.7;389.68;391.65;393.62;395.6;397.57;399.55;401.52;403.5;405.47;407.44;409.42;411.39;413.37;415.34;417.31;419.29;421.26;423.24;425.21;427.18;429.16;431.13;433.11;435.08;437.06;439.03;441.0;442.98;444.95;446.93;448.9;450.87;452.85;454.82;456.8;458.77;460.74;462.72;464.69;466.67;468.64;470.61;472.59;474.56;476.54;478.51;480.49;482.46;484.43;486.41;488.38;490.36;492.33;494.3;496.28;498.25;500.23;502.2;504.17;506.15;508.12;510.1;512.07;514.05;516.02;517.99;519.97;521.94;523.92;525.89;527.86;529.84;531.81;533.79;535.76;537.73;539.71;541.68;543.66;545.63;547.61;549.58;551.55;553.53;555.5;557.48;559.45;561.42;563.4;565.37;567.35;569.32;571.29;573.27;575.24;577.22;579.19;581.17;583.14;585.11;587.09;589.06;591.04;593.01;594.98;596.96;598.93;600.91;602.88;604.85;606.83;608.8;610.78;612.75;614.72;616.7;618.67;620.65;622.62;624.6;626.57;628.54;630.52;632.49;634.47;636.44;638.41;640.39;642.36;644.34;646.31;648.28;650.26;652.23;654.21;656.18;658.16;660.13;662.1;664.08;666.05;668.03;670.0" dur="8s" repeatCount="indefinite" calcMode="linear"/>
    <animate attributeName="cy" values="99.51;97.53;87.6;80.0;81.8;91.65;104.69;117.14;127.76;136.87;145.05;152.56;159.35;165.35;170.54;174.98;178.79;182.03;184.77;187.07;188.98;190.56;191.84;192.87;193.69;194.34;194.84;195.21;195.48;195.67;195.8;195.87;195.91;195.91;195.89;195.85;195.8;195.75;195.69;195.62;195.56;195.5;195.45;195.39;195.35;195.3;195.26;195.23;195.19;195.16;195.14;195.19;196.06;199.7;204.15;211.47;217.49;225.91;231.79;237.13;244.63;248.72;254.94;257.61;259.51;263.76;264.41;267.5;267.17;266.4;268.32;266.97;268.44;266.73;264.91;266.09;264.18;262.25;263.44;261.65;262.9;261.19;259.79;263.46;265.54;268.96;278.36;283.23;288.06;298.31;302.51;306.07;314.9;317.11;318.64;325.63;326.01;325.75;325.03;330.0;328.56;326.84;324.84;328.85;326.65;324.4;322.08;325.93;323.65;321.26;317.25;313.96;302.95;290.12;278.18;264.03;251.39;238.46;226.83;218.47;212.76;209.39;206.54;203.9;201.59;199.49;197.9;196.62;195.64;194.93;194.35;193.95;193.66;193.49;193.39;193.36;193.38;193.43;193.51;193.61;193.71;193.83;193.94;194.05;194.16;194.26;194.35;194.44;194.52;194.59;194.65;194.71;194.76;194.8;194.84;194.87;194.9;194.93;194.95;194.96;194.98;194.99;195.0;195.0;195.01;195.01;195.01;194.82;193.66;192.04;189.98;186.84;184.4;181.06;178.84;175.77;174.03;172.6;170.3;169.44;167.67;167.34;166.04;166.14;166.32;164.64;163.74;160.52;158.87;157.21;153.4;151.93;148.38;147.37;144.28;143.79;143.58;141.22;141.49;139.57;140.22;141.03;139.56;140.6;139.29;140.45;141.37;138.41;137.21;131.8;129.4;126.98;120.69;118.44;116.55;110.96;109.84;109.12;104.53;104.49;100.59;101.26;102.3;99.34;100.77;102.36;99.79;101.54;103.36;100.94;102.78;104.62;102.18;103.96;105.72;103.18;104.85;106.5;103.84;105.4;106.94;104.18;105.64;107.1;104.27;105.67;107.08;104.2;105.76;108.57;110.98;118.79;126.31;136.28;146.28;155.21;163.82;169.61;173.79;176.93;179.58;182.34;184.77;186.95;188.76;190.19;191.41;192.4;193.24;193.89;194.42;194.84;195.14;195.37;195.53;195.64;195.7;195.74;195.74;195.73;195.7;195.66;195.62;195.57;195.52;195.47;195.42;195.38;195.33;195.29;195.26;195.22;195.19;195.17;195.14;195.12;195.1;195.1;195.58;197.5;202.5;207.65;215.51;221.63;230.05;235.67;240.71;247.87;251.56;257.38" dur="8s" repeatCount="indefinite" calcMode="linear"/>
  </circle>
  <circle r="2" fill="white">
    <animate attributeName="cx" values="60.0;61.97;63.95;65.92;67.9;69.87;71.84;73.82;75.79;77.77;79.74;81.72;83.69;85.66;87.64;89.61;91.59;93.56;95.53;97.51;99.48;101.46;103.43;105.4;107.38;109.35;111.33;113.3;115.28;117.25;119.22;121.2;123.17;125.15;127.12;129.09;131.07;133.04;135.02;136.99;138.96;140.94;142.91;144.89;146.86;148.83;150.81;152.78;154.76;156.73;158.71;160.68;162.65;164.63;166.6;168.58;170.55;172.52;174.5;176.47;178.45;180.42;182.39;184.37;186.34;188.32;190.29;192.27;194.24;196.21;198.19;200.16;202.14;204.11;206.08;208.06;210.03;212.01;213.98;215.95;217.93;219.9;221.88;223.85;225.83;227.8;229.77;231.75;233.72;235.7;237.67;239.64;241.62;243.59;245.57;247.54;249.51;251.49;253.46;255.44;257.41;259.39;261.36;263.33;265.31;267.28;269.26;271.23;273.2;275.18;277.15;279.13;281.1;283.07;285.05;287.02;289.0;290.97;292.94;294.92;296.89;298.87;300.84;302.82;304.79;306.76;308.74;310.71;312.69;314.66;316.63;318.61;320.58;322.56;324.53;326.5;328.48;330.45;332.43;334.4;336.38;338.35;340.32;342.3;344.27;346.25;348.22;350.19;352.17;354.14;356.12;358.09;360.06;362.04;364.01;365.99;367.96;369.94;371.91;373.88;375.86;377.83;379.81;381.78;383.75;385.73;387.7;389.68;391.65;393.62;395.6;397.57;399.55;401.52;403.5;405.47;407.44;409.42;411.39;413.37;415.34;417.31;419.29;421.26;423.24;425.21;427.18;429.16;431.13;433.11;435.08;437.06;439.03;441.0;442.98;444.95;446.93;448.9;450.87;452.85;454.82;456.8;458.77;460.74;462.72;464.69;466.67;468.64;470.61;472.59;474.56;476.54;478.51;480.49;482.46;484.43;486.41;488.38;490.36;492.33;494.3;496.28;498.25;500.23;502.2;504.17;506.15;508.12;510.1;512.07;514.05;516.02;517.99;519.97;521.94;523.92;525.89;527.86;529.84;531.81;533.79;535.76;537.73;539.71;541.68;543.66;545.63;547.61;549.58;551.55;553.53;555.5;557.48;559.45;561.42;563.4;565.37;567.35;569.32;571.29;573.27;575.24;577.22;579.19;581.17;583.14;585.11;587.09;589.06;591.04;593.01;594.98;596.96;598.93;600.91;602.88;604.85;606.83;608.8;610.78;612.75;614.72;616.7;618.67;620.65;622.62;624.6;626.57;628.54;630.52;632.49;634.47;636.44;638.41;640.39;642.36;644.34;646.31;648.28;650.26;652.23;654.21;656.18;658.16;660.13;662.1;664.08;666.05;668.03;670.0" dur="8s" repeatCount="indefinite" calcMode="linear"/>
    <animate attributeName="cy" values="99.51;97.53;87.6;80.0;81.8;91.65;104.69;117.14;127.76;136.87;145.05;152.56;159.35;165.35;170.54;174.98;178.79;182.03;184.77;187.07;188.98;190.56;191.84;192.87;193.69;194.34;194.84;195.21;195.48;195.67;195.8;195.87;195.91;195.91;195.89;195.85;195.8;195.75;195.69;195.62;195.56;195.5;195.45;195.39;195.35;195.3;195.26;195.23;195.19;195.16;195.14;195.19;196.06;199.7;204.15;211.47;217.49;225.91;231.79;237.13;244.63;248.72;254.94;257.61;259.51;263.76;264.41;267.5;267.17;266.4;268.32;266.97;268.44;266.73;264.91;266.09;264.18;262.25;263.44;261.65;262.9;261.19;259.79;263.46;265.54;268.96;278.36;283.23;288.06;298.31;302.51;306.07;314.9;317.11;318.64;325.63;326.01;325.75;325.03;330.0;328.56;326.84;324.84;328.85;326.65;324.4;322.08;325.93;323.65;321.26;317.25;313.96;302.95;290.12;278.18;264.03;251.39;238.46;226.83;218.47;212.76;209.39;206.54;203.9;201.59;199.49;197.9;196.62;195.64;194.93;194.35;193.95;193.66;193.49;193.39;193.36;193.38;193.43;193.51;193.61;193.71;193.83;193.94;194.05;194.16;194.26;194.35;194.44;194.52;194.59;194.65;194.71;194.76;194.8;194.84;194.87;194.9;194.93;194.95;194.96;194.98;194.99;195.0;195.0;195.01;195.01;195.01;194.82;193.66;192.04;189.98;186.84;184.4;181.06;178.84;175.77;174.03;172.6;170.3;169.44;167.67;167.34;166.04;166.14;166.32;164.64;163.74;160.52;158.87;157.21;153.4;151.93;148.38;147.37;144.28;143.79;143.58;141.22;141.49;139.57;140.22;141.03;139.56;140.6;139.29;140.45;141.37;138.41;137.21;131.8;129.4;126.98;120.69;118.44;116.55;110.96;109.84;109.12;104.53;104.49;100.59;101.26;102.3;99.34;100.77;102.36;99.79;101.54;103.36;100.94;102.78;104.62;102.18;103.96;105.72;103.18;104.85;106.5;103.84;105.4;106.94;104.18;105.64;107.1;104.27;105.67;107.08;104.2;105.76;108.57;110.98;118.79;126.31;136.28;146.28;155.21;163.82;169.61;173.79;176.93;179.58;182.34;184.77;186.95;188.76;190.19;191.41;192.4;193.24;193.89;194.42;194.84;195.14;195.37;195.53;195.64;195.7;195.74;195.74;195.73;195.7;195.66;195.62;195.57;195.52;195.47;195.42;195.38;195.33;195.29;195.26;195.22;195.19;195.17;195.14;195.12;195.1;195.1;195.58;197.5;202.5;207.65;215.51;221.63;230.05;235.67;240.71;247.87;251.56;257.38" dur="8s" repeatCount="indefinite" calcMode="linear"/>
  </circle>

  <!-- Légende -->
  <g transform="translate(240.0,36)">
    <rect x="0" y="-11" width="220" height="22" rx="11"
          fill="rgba(20,15,35,0.85)" stroke="rgba(0,229,204,0.35)" stroke-width="0.75"/>
    <line x1="16" y1="0" x2="38" y2="0" stroke="url(#steer-grad)" stroke-width="2.5" stroke-linecap="round"/>
    <text x="48" y="4" font-size="10" letter-spacing="1.5" font-weight="500"
          fill="rgba(255,180,230,0.85)"
          font-family="'JetBrains Mono',monospace">FRONT STEERING ANGLE</text>
  </g>

</svg>